<svg version="1.1" id="Layer_1" xmlns="http://www.w3.org/2000/svg" xmlns:xlink="http://www.w3.org/1999/xlink" x="0px" y="0px"
	 width="100%" viewBox="0 0 458 278" enable-background="new 0 0 458 278" xml:space="preserve">
<path fill="#000000" opacity="1.000000" stroke="none" 
	d="
M330.000000,279.000000 
	C220.000000,279.000000 110.500000,279.000000 1.000000,279.000000 
	C1.000000,186.333328 1.000000,93.666664 1.000000,1.000000 
	C153.666672,1.000000 306.333344,1.000000 459.000000,1.000000 
	C459.000000,93.666664 459.000000,186.333328 459.000000,279.000000 
	C416.166656,279.000000 373.333344,279.000000 330.000000,279.000000 
M84.124985,125.585716 
	C83.797989,125.743134 83.470993,125.900543 83.089394,125.982773 
	C83.089394,125.982773 83.183289,126.006813 84.001106,126.230247 
	C85.033928,124.841118 86.066757,123.451988 87.014923,122.015022 
	C87.014923,122.015022 87.062843,122.099625 87.711891,121.833466 
	C88.801849,120.606293 90.242271,119.546440 90.921730,118.123291 
	C94.030869,111.611061 99.302513,110.858322 105.921265,110.869446 
	C216.918549,111.056137 327.916260,111.015381 438.913788,110.921364 
	C441.316864,110.919334 443.718872,109.695641 446.763275,108.721352 
	C446.319916,104.547928 443.853241,103.905464 439.994720,103.911743 
	C361.081116,104.040321 282.167206,104.002007 203.253387,104.027084 
	C169.794785,104.037712 136.336212,104.117188 102.271202,104.005302 
	C102.535187,102.216530 102.155045,99.818695 103.172646,98.742531 
	C108.047806,93.586708 106.804031,87.031685 108.200851,80.255707 
	C108.609825,78.913078 109.018799,77.570442 109.500610,75.988686 
	C110.905495,75.988686 112.393272,75.988663 113.881042,75.988693 
	C220.928085,75.990944 327.975128,75.994301 435.022186,75.988098 
	C437.348297,75.987968 439.674408,75.878166 442.783112,75.980385 
	C443.856079,74.934921 444.929047,73.889458 446.001984,72.843987 
	C445.001404,71.961823 444.000854,71.079666 442.074188,70.043564 
	C427.422272,70.035767 412.770386,70.021301 398.118469,70.021255 
	C303.379364,70.020950 208.640228,70.036018 113.901222,69.939400 
	C111.974052,69.937439 110.048195,68.647575 108.012932,67.171112 
	C107.690849,65.742142 107.368774,64.313171 107.006172,62.250340 
	C106.948898,61.833206 106.891624,61.416073 106.990685,60.216839 
	C105.699806,56.129887 104.408936,52.042934 103.013000,47.291370 
	C102.618996,46.527454 102.224991,45.763538 101.819016,44.297085 
	C100.894577,42.825008 99.970131,41.352936 98.933067,39.410992 
	C98.748573,39.105946 98.478081,38.954903 98.007767,38.237091 
	C95.831200,33.897961 93.363091,29.869726 87.719910,28.171423 
	C84.797531,28.075851 81.875160,27.980278 78.293930,28.161701 
	C72.732986,32.044144 69.951691,37.705513 68.001877,44.424267 
	C68.001877,44.424267 67.953781,44.874729 67.388893,45.089821 
	C67.369972,45.620937 67.351051,46.152058 67.386284,46.746517 
	C67.386284,46.746517 67.386047,46.738926 67.055260,47.220554 
	C66.662971,49.799854 66.270676,52.379154 65.176773,55.314194 
	C65.504303,58.543148 65.831825,61.772099 65.860565,65.668716 
	C64.881805,67.103569 63.903053,68.538429 61.998108,70.030609 
	C51.425098,70.031670 40.846581,70.232162 30.281673,69.940109 
	C25.766586,69.815285 24.137356,71.252464 25.340603,76.119331 
	C26.805115,76.027863 28.402811,75.928070 30.906271,75.978355 
	C34.270424,75.929649 37.634579,75.880943 41.914051,75.987854 
	C45.943077,75.936035 49.972107,75.884216 54.742527,75.985756 
	C55.494587,75.935913 56.246643,75.886070 57.872997,75.986572 
	C60.235214,76.027641 62.597431,76.068718 65.303627,76.812172 
	C65.832497,77.104752 66.718910,77.295357 66.835861,77.705421 
	C68.265503,82.718071 69.937622,87.702515 70.807549,92.819946 
	C71.422157,96.435478 70.910080,100.242531 69.977814,104.022751 
	C55.018883,104.022751 40.059952,104.022751 24.964472,104.022751 
	C25.054731,105.706398 25.116251,106.853943 25.020164,108.819893 
	C26.600615,109.547676 28.173044,110.886017 29.762781,110.906914 
	C42.772430,111.077866 55.785309,111.003250 69.761452,111.003250 
	C67.468185,113.867088 65.813622,115.933327 63.866608,118.639961 
	C62.563271,120.051285 61.259933,121.462608 59.232475,122.990761 
	C57.447201,125.312836 55.661930,127.634911 53.407742,130.067566 
	C53.103844,130.252014 52.953690,130.521973 52.336216,131.125473 
	C51.850754,132.068726 51.365292,133.011993 50.224434,134.222351 
	C49.069679,136.110229 47.914925,137.998093 46.837570,139.759430 
	C39.112282,139.759430 31.650404,139.759430 24.454170,139.759430 
	C23.209915,145.953445 26.631117,146.154434 30.547781,146.030746 
	C34.012581,145.921295 37.485844,146.079803 41.287399,146.839386 
	C40.578224,151.559158 39.869045,156.278915 39.006172,161.743881 
	C39.057728,162.499451 39.109283,163.255035 39.066544,164.549759 
	C39.365738,164.737305 39.664936,164.924866 40.003464,165.892349 
	C40.057827,166.928619 40.112190,167.964874 40.010185,169.838760 
	C40.135944,170.948654 40.261707,172.058563 40.406445,173.244080 
	C40.406445,173.244080 40.393394,173.320953 40.222366,173.762482 
	C40.241943,174.127945 40.427402,174.361343 40.728756,174.587936 
	C40.728756,174.587936 40.595146,174.606445 39.834255,174.756866 
	C38.556564,174.892776 37.278873,175.028671 35.339901,175.009979 
	C34.892902,175.062088 34.445908,175.114212 33.145176,175.009949 
	C29.069496,175.030060 24.165365,173.685791 24.227341,181.381653 
	C29.727314,181.689621 35.323864,182.002991 39.199738,182.220016 
	C42.477039,188.271194 45.010704,193.545364 48.104061,198.467834 
	C50.477993,202.245453 53.557617,205.579636 56.323395,209.111023 
	C55.970634,209.491760 55.617874,209.872513 55.265114,210.253250 
	C47.800121,210.253250 40.335125,210.253250 32.825756,210.316574 
	C32.825756,210.316574 32.820095,210.263382 32.008610,210.015503 
	C28.638918,210.004517 24.785772,209.058182 23.995680,215.200577 
	C25.708599,215.745361 27.675936,216.868698 29.670002,216.918335 
	C37.904819,217.123352 46.149475,216.895935 54.387238,217.029419 
	C64.592758,217.194778 74.795036,217.560211 85.660255,217.992981 
	C86.107262,217.942474 86.554276,217.891953 87.683304,218.151825 
	C89.416603,218.269669 91.149910,218.387512 93.162048,218.524307 
	C94.040352,220.272415 95.012962,222.208221 95.974983,224.261795 
	C95.974983,224.261795 96.138390,224.408051 96.199348,224.939743 
	C96.426956,226.974609 96.654572,229.009460 97.007362,231.537964 
	C97.060669,231.699142 97.113968,231.860306 97.009270,232.790283 
	C97.294418,234.211731 97.579567,235.633194 97.967407,237.969498 
	C98.027008,241.982010 98.086609,245.994507 98.016212,250.500000 
	C98.059532,250.664322 98.102859,250.828659 97.987915,251.786255 
	C98.040459,252.859604 98.092995,253.932953 97.848648,255.681229 
	C96.572609,257.698669 95.454994,259.840546 93.988220,261.708191 
	C90.732437,265.853851 82.032906,267.345978 76.619644,264.855865 
	C72.237488,262.840057 70.493484,258.501953 71.570717,252.014465 
	C73.177666,252.014465 74.845367,251.841522 76.466240,252.043808 
	C84.333382,253.025696 90.636627,246.701492 88.851349,238.994019 
	C88.139397,235.920395 86.674644,232.107483 84.291763,230.499268 
	C75.827858,224.787018 65.216614,228.064789 59.949017,237.181656 
	C53.368382,248.571014 58.169849,265.659393 70.563965,271.093475 
	C78.111786,274.402740 85.485947,275.896088 93.229111,271.111420 
	C99.006943,267.541199 101.763367,262.781708 103.643013,256.266205 
	C105.794968,248.806793 104.858330,242.017838 103.008163,234.094772 
	C102.288887,228.528244 101.569603,222.961700 100.821915,217.175293 
	C102.058601,217.090988 102.697304,217.009399 103.336021,217.009323 
	C152.736465,217.003510 202.137009,216.972214 251.536926,217.132538 
	C253.323944,217.138336 255.104858,219.034576 257.183197,220.711426 
	C260.737732,223.159225 264.292297,225.607025 268.176483,228.739487 
	C270.669373,231.693130 267.602203,231.897690 266.135284,232.988846 
	C264.027832,234.556442 262.013245,236.248856 259.198517,237.995941 
	C257.761047,239.502670 256.323578,241.009415 254.427902,242.996445 
	C251.081406,242.996445 246.928528,243.091660 242.782593,242.962906 
	C240.032272,242.877487 238.347885,244.002884 239.144684,246.681488 
	C239.544556,248.025818 241.361481,249.601288 242.759872,249.857162 
	C245.492996,250.357224 248.454407,249.620926 251.182205,250.134872 
	C253.104294,250.497009 255.454514,251.641602 256.480072,253.188400 
	C261.410614,260.624786 268.465149,263.552063 277.630035,264.019714 
	C278.067657,264.060577 278.505280,264.101440 279.404388,264.882446 
	C282.202118,264.922943 285.005066,264.868103 287.796570,265.021912 
	C295.996063,265.473755 303.657654,264.030701 310.309875,258.907257 
	C310.309875,258.907257 310.323853,258.934265 310.964386,258.546753 
	C312.600403,256.855225 314.101654,254.998688 315.911743,253.520309 
	C317.602448,252.139465 319.492615,250.682251 321.530396,250.134583 
	C323.691742,249.553680 326.173157,250.277985 328.435394,249.924393 
	C330.530487,249.596924 333.029724,249.083603 334.350342,247.698227 
	C335.050018,246.964218 333.621307,244.201309 333.354523,243.148102 
	C326.690552,241.856110 319.683472,246.226059 315.040771,238.965225 
	C315.040771,238.965225 315.127045,238.930664 314.944153,238.429245 
	C314.638824,238.339767 314.333496,238.250290 313.370300,237.868668 
	C311.291382,236.230530 309.212494,234.592392 307.010559,232.172821 
	C305.666229,231.494415 304.321930,230.816025 302.902161,230.099564 
	C306.724030,227.016724 310.381378,224.066589 314.677002,220.863419 
	C315.490601,219.689346 316.304169,218.515274 317.351898,217.003311 
	C357.204681,217.003311 397.682739,217.003296 438.160797,217.003281 
	C439.660156,217.003281 441.330414,217.417130 442.611664,216.888428 
	C443.938568,216.340866 445.724731,214.917816 445.776154,213.806732 
	C445.831604,212.608383 444.346771,210.885712 443.093109,210.211639 
	C441.920441,209.581131 440.170441,209.998978 438.674530,209.998795 
	C399.524719,209.994080 360.374786,210.025253 321.225403,209.893356 
	C319.516449,209.887604 317.497498,208.733017 316.185059,207.510254 
	C314.506165,205.946075 313.398529,203.768677 311.945282,201.390732 
	C311.764038,201.088531 311.497284,200.942429 310.954346,200.445145 
	C310.644989,200.347290 310.335602,200.249435 309.343964,199.848907 
	C306.902100,198.530716 304.460236,197.212524 302.466919,196.136475 
	C306.497681,192.891861 310.253052,189.868927 314.748749,186.783340 
	C316.498932,182.735123 319.409943,181.834747 323.862091,181.863754 
	C362.352539,182.114655 400.845367,182.015442 439.337433,181.981415 
	C440.946869,181.979996 442.737305,181.951599 444.102631,181.261505 
	C445.042236,180.786545 445.968842,179.077362 445.847443,178.043594 
	C445.720062,176.958954 444.511536,175.694412 443.445923,175.120834 
	C442.541199,174.633850 441.167145,175.019226 440.000732,175.018036 
	C399.011475,174.976212 358.022186,174.934326 316.763672,174.209915 
	C313.301514,170.797928 310.386902,166.339630 306.267334,164.183960 
	C296.622650,159.137100 285.930969,158.414398 275.465393,161.126495 
	C267.245392,163.256699 259.191650,166.419968 254.029831,174.993896 
	C214.390198,175.006424 174.750000,174.924591 135.111603,175.152206 
	C130.216553,175.180328 127.389633,174.032822 126.797302,168.277069 
	C125.546364,166.144882 124.295418,164.012680 123.007019,161.211365 
	C122.017952,160.105240 121.028893,158.999115 120.002571,157.197342 
	C118.898895,155.903503 117.795227,154.609650 116.231567,152.774796 
	C115.065590,151.612839 113.786491,150.540451 112.771545,149.258881 
	C112.038246,148.332932 111.655991,147.128967 111.498215,146.014862 
	C111.498215,146.014862 111.880089,146.038040 112.049858,146.550842 
	C112.357925,146.650711 112.665993,146.750580 113.902191,147.012939 
	C123.371719,146.960175 132.841248,146.907394 143.357529,146.994904 
	C148.230576,146.947083 153.103622,146.899246 158.434860,147.008575 
	C251.632874,147.017319 344.830902,147.026611 438.028900,147.027588 
	C439.022766,147.027603 440.016663,146.918503 441.674713,146.994186 
	C442.120392,146.941757 442.566071,146.889313 443.542084,146.935593 
	C443.729553,146.642426 443.916992,146.349258 444.018402,146.025009 
	C444.018402,146.025009 444.067505,146.102219 444.772034,145.783356 
	C447.124054,141.000656 446.364441,140.022125 440.243469,140.022064 
	C325.022736,140.020782 209.802017,140.022919 94.581299,140.020813 
	C92.084709,140.020767 89.588112,139.979446 86.910759,139.387024 
	C86.550987,138.925156 86.191223,138.463272 85.993774,137.178421 
	C85.942909,135.785187 85.892036,134.391937 85.989639,132.258530 
	C85.606384,130.373627 85.223129,128.488724 84.831673,126.511948 
	C84.831673,126.511948 84.771690,126.461571 84.124985,125.585716 
z"/>
<path fill="#FCFCFC" opacity="1.000000" stroke="none" 
	d="
M70.901001,103.964081 
	C70.910080,100.242531 71.422157,96.435478 70.807549,92.819946 
	C69.937622,87.702515 68.265503,82.718071 66.835861,77.705421 
	C66.718910,77.295357 65.832497,77.104752 65.101074,76.128571 
	C62.265244,75.575386 59.631973,75.705803 56.998703,75.836227 
	C56.246643,75.886070 55.494587,75.935913 54.264580,75.529114 
	C49.430882,73.758408 45.075115,72.444130 40.998734,75.832245 
	C37.634579,75.880943 34.270424,75.929649 30.404942,75.541588 
	C28.475359,71.910431 30.556444,71.984238 32.730850,71.990089 
	C42.795559,72.017189 52.860424,72.016151 62.925117,71.986389 
	C64.429932,71.981941 65.934135,71.771469 67.438622,71.656311 
	C67.429123,71.183708 67.419632,70.711105 67.410133,70.238510 
	C65.914856,70.150101 64.419579,70.061691 62.924297,69.973282 
	C63.903053,68.538429 64.881805,67.103569 66.385635,65.231773 
	C68.261871,61.338120 69.704948,57.871765 65.878387,54.958454 
	C66.270676,52.379154 66.662971,49.799854 67.665909,47.043167 
	C69.097008,46.376217 69.917458,45.886662 70.737900,45.397106 
	C69.878021,44.931103 69.018150,44.465099 68.158272,43.999100 
	C69.951691,37.705513 72.732986,32.044144 78.783783,28.345673 
	C81.310425,30.332352 83.347206,32.135063 85.312309,33.874332 
	C85.995064,32.625362 87.016594,30.756649 88.038132,28.887934 
	C93.363091,29.869726 95.831200,33.897961 97.711502,38.613373 
	C96.838860,39.477619 96.262474,39.965584 95.686081,40.453548 
	C96.805946,40.262653 97.925819,40.071758 99.045685,39.880863 
	C99.970131,41.352936 100.894577,42.825008 101.519539,44.705070 
	C101.852730,46.060699 102.485397,47.008343 103.118065,47.955986 
	C104.408936,52.042934 105.699806,56.129887 106.598969,60.666126 
	C105.967957,61.883125 105.728661,62.650837 105.489365,63.418552 
	C106.008476,63.240433 106.527588,63.062317 107.046700,62.884201 
	C107.368774,64.313171 107.690849,65.742142 107.665543,67.656464 
	C105.487770,72.508171 104.539497,76.839218 107.832932,81.000458 
	C106.804031,87.031685 108.047806,93.586708 103.172646,98.742531 
	C102.155045,99.818695 102.535187,102.216530 102.753326,104.507156 
	C105.468475,105.339699 107.701363,105.958710 109.934525,105.959686 
	C218.031311,106.006981 326.128113,106.005386 434.224915,105.984528 
	C438.482605,105.983711 442.788452,105.553528 446.121399,109.041840 
	C443.718872,109.695641 441.316864,110.919334 438.913788,110.921364 
	C327.916260,111.015381 216.918549,111.056137 105.921265,110.869446 
	C99.302513,110.858322 94.030869,111.611061 90.921730,118.123291 
	C90.242271,119.546440 88.801849,120.606293 87.340546,121.675049 
	C86.570961,121.193214 86.172714,120.869797 85.774467,120.546387 
	C85.690872,120.808014 85.488213,121.267891 85.542259,121.300354 
	C86.035942,121.596848 86.574280,121.819000 87.099579,122.062866 
	C86.066757,123.451988 85.033928,124.841118 83.555038,125.863060 
	C82.953484,125.309708 82.797997,125.123543 82.642517,124.937378 
	C82.809677,125.310905 82.976837,125.684433 83.143997,126.057961 
	C83.470993,125.900543 83.797989,125.743134 84.222610,125.764709 
	C84.493446,126.163750 84.666656,126.383789 84.839874,126.603821 
	C85.223129,128.488724 85.606384,130.373627 85.539230,132.630615 
	C84.118423,133.599106 83.148041,134.195526 82.177658,134.791946 
	C83.395592,135.861771 84.613518,136.931580 85.831451,138.001404 
	C86.191223,138.463272 86.550987,138.925156 86.743904,139.909866 
	C88.344475,140.955551 90.111610,141.934921 91.879364,141.936035 
	C206.524185,142.008453 321.169037,142.001602 435.813904,142.001953 
	C437.146973,142.001953 438.484741,142.075851 439.812195,141.989868 
	C442.779297,141.797684 444.169098,143.158493 444.067505,146.102219 
	C444.067505,146.102219 444.018402,146.025009 443.838928,146.107773 
	C443.367615,146.329910 443.151733,146.545349 443.011749,146.836884 
	C442.566071,146.889313 442.120392,146.941757 441.369934,146.583710 
	C441.282654,141.915176 437.968506,144.119888 436.582947,144.121353 
	C365.057373,144.196915 293.532074,144.481308 222.006500,144.596481 
	C201.899628,144.628845 181.792068,144.207977 161.684692,144.008011 
	C160.356369,143.994797 159.026917,144.092972 157.697998,144.139328 
	C157.790894,145.043350 157.883789,145.947388 157.976669,146.851410 
	C153.103622,146.899246 148.230576,146.947083 142.985046,146.497589 
	C141.214249,145.334229 139.825897,144.116623 138.416046,144.091187 
	C128.948822,143.920410 119.477028,144.002991 109.589951,144.002121 
	C107.784760,143.999725 106.396317,143.998642 104.637466,143.995575 
	C103.330803,144.213867 102.394554,144.434143 101.458313,144.654419 
	C101.479469,144.957748 101.500633,145.261078 101.521797,145.564407 
	C102.681503,145.716309 103.841209,145.868210 105.153702,146.323624 
	C108.534393,149.821991 110.838295,154.589661 116.691559,153.315796 
	C117.795227,154.609650 118.898895,155.903503 120.015350,157.932373 
	C120.681038,160.882141 121.333946,163.096878 121.986855,165.311600 
	C122.266319,165.254807 122.545792,165.197998 122.825256,165.141205 
	C122.898331,164.054291 122.971405,162.967392 123.044479,161.880478 
	C124.295418,164.012680 125.546364,166.144882 126.455948,168.728027 
	C123.919426,174.499832 125.419304,176.993317 130.908066,176.994522 
	C172.278549,177.003540 213.649048,176.993164 255.352112,176.962021 
	C259.117096,176.953354 262.549500,176.971497 266.320892,176.991547 
	C267.438446,176.667068 268.217072,176.340668 269.346558,176.013031 
	C270.798279,176.341827 271.899139,176.671829 273.139404,177.322021 
	C273.519196,178.761261 273.759613,179.880325 273.587952,180.945297 
	C268.016846,180.955765 262.851532,180.915390 257.706512,181.218399 
	C257.067383,181.256042 256.535614,183.116364 255.618652,183.982758 
	C250.418533,183.169724 245.553864,182.506042 240.622559,181.406174 
	C235.940933,180.688110 231.327545,180.358734 226.708298,180.202591 
	C226.277176,180.188019 225.809006,181.269684 224.872681,181.917847 
	C194.336075,181.996964 164.284607,182.053375 134.233826,181.935364 
	C130.605652,181.921097 129.320602,182.605560 128.760941,186.681610 
	C128.023834,192.049927 128.021469,198.177109 122.626625,202.158401 
	C122.277290,202.602936 122.129539,202.898621 121.852310,203.510910 
	C120.916046,206.050659 120.109276,208.273788 119.123947,210.629425 
	C118.947289,210.953522 118.949188,211.145126 118.951088,211.336746 
	C119.136780,211.126602 119.322472,210.916473 119.780052,210.387207 
	C121.144669,210.097885 122.237396,210.127701 123.350388,210.535126 
	C124.883644,211.378952 126.396645,211.845200 129.010498,212.650665 
	C127.761574,211.091888 127.387337,210.624817 127.475464,210.082245 
	C168.196548,210.003403 208.455292,210.017792 248.713898,209.952179 
	C251.107147,209.948273 253.499344,209.302628 256.207031,209.109650 
	C257.343323,210.394562 258.164581,211.525406 258.255188,211.650146 
	C261.863678,211.650146 264.655212,211.872238 267.393646,211.586166 
	C270.003723,211.313507 272.558411,210.510834 275.596497,209.966583 
	C280.933960,209.995697 285.820007,210.151154 290.686188,209.908661 
	C292.108032,209.837814 293.473389,208.633682 295.199158,208.085785 
	C301.618011,214.080231 308.875092,210.952866 315.437927,211.384979 
	C314.217133,207.956512 313.130951,204.906006 312.044739,201.855515 
	C313.398529,203.768677 314.506165,205.946075 316.185059,207.510254 
	C317.497498,208.733017 319.516449,209.887604 321.225403,209.893356 
	C360.374786,210.025253 399.524719,209.994080 438.674530,209.998795 
	C440.170441,209.998978 441.920441,209.581131 443.093109,210.211639 
	C444.346771,210.885712 445.831604,212.608383 445.776154,213.806732 
	C445.724731,214.917816 443.938568,216.340866 442.611664,216.888428 
	C441.330414,217.417130 439.660156,217.003281 438.160797,217.003281 
	C397.682739,217.003296 357.204681,217.003311 317.351898,217.003311 
	C316.304169,218.515274 315.490601,219.689346 314.328674,220.678467 
	C313.652740,219.995438 313.325165,219.497345 313.136230,218.665131 
	C313.381134,217.858719 313.731720,217.110626 313.556793,216.955612 
	C311.067017,214.749512 302.422607,215.923950 300.583435,218.655945 
	C297.591309,223.100555 293.061737,225.141006 289.127808,223.552826 
	C291.816467,222.478729 294.336243,221.744308 297.055420,220.951782 
	C296.239899,219.812500 295.770599,219.156891 295.273193,218.462021 
	C296.066010,218.088989 296.785370,217.750534 298.062134,217.149811 
	C291.355286,217.149811 285.439758,217.149811 278.589905,217.149811 
	C281.138000,219.410538 283.092743,221.144791 284.848480,223.144135 
	C281.870667,221.753738 279.050995,220.161392 276.336792,218.406006 
	C275.474243,217.848175 274.806244,216.108826 274.195404,216.179230 
	C268.303406,216.858093 261.356384,213.096008 256.888611,220.049789 
	C255.104858,219.034576 253.323944,217.138336 251.536926,217.132538 
	C202.137009,216.972214 152.736465,217.003510 103.336021,217.009323 
	C102.697304,217.009399 102.058601,217.090988 100.821915,217.175293 
	C101.569603,222.961700 102.288887,228.528244 102.729340,234.575439 
	C101.967422,235.698990 101.484322,236.341873 100.609077,236.990677 
	C99.432854,237.015961 98.648781,237.035294 97.864716,237.054626 
	C97.579567,235.633194 97.294418,234.211731 97.370773,232.541382 
	C98.566063,231.804031 99.399849,231.315567 100.233627,230.827118 
	C99.992554,230.541107 99.751472,230.255112 99.510399,229.969101 
	C98.634323,230.327515 97.758255,230.685913 96.882187,231.044327 
	C96.654572,229.009460 96.426956,226.974609 96.536118,224.725403 
	C96.938652,224.164841 97.004425,223.818634 97.070198,223.472427 
	C96.708656,223.696304 96.347115,223.920166 95.985573,224.144028 
	C95.012962,222.208221 94.040352,220.272415 93.162048,218.524307 
	C91.149910,218.387512 89.416603,218.269669 87.335045,217.665985 
	C86.625900,216.606430 86.265022,216.032745 85.904144,215.459045 
	C85.602341,216.252441 85.300529,217.045837 84.998718,217.839233 
	C74.795036,217.560211 64.592758,217.194778 54.387238,217.029419 
	C46.149475,216.895935 37.904819,217.123352 29.670002,216.918335 
	C27.675936,216.868698 25.708599,215.745361 23.995680,215.200577 
	C24.785772,209.058182 28.638918,210.004517 32.216286,210.309174 
	C32.572685,210.486313 32.721413,210.369781 32.870136,210.253250 
	C40.335125,210.253250 47.800121,210.253250 55.265114,210.253250 
	C55.617874,209.872513 55.970634,209.491760 56.323395,209.111023 
	C53.557617,205.579636 50.477993,202.245453 48.104061,198.467834 
	C45.010704,193.545364 42.477039,188.271194 39.199738,182.220016 
	C35.323864,182.002991 29.727314,181.689621 24.227341,181.381653 
	C24.165365,173.685791 29.069496,175.030060 33.616444,175.368225 
	C34.406044,176.019424 34.724377,176.312332 35.042709,176.605240 
	C35.362198,176.125015 35.681690,175.644791 36.001183,175.164566 
	C37.278873,175.028671 38.556564,174.892776 40.311096,174.965988 
	C41.035885,175.444199 41.283836,175.713272 41.531792,175.982361 
	C41.280777,175.475800 41.029762,174.969223 40.778748,174.462662 
	C40.427402,174.361343 40.241943,174.127945 40.518024,173.325485 
	C40.890678,172.768494 40.967674,172.648514 41.044670,172.528519 
	C40.825603,172.741837 40.606537,172.955139 40.387470,173.168457 
	C40.261707,172.058563 40.135944,170.948654 40.456512,169.321075 
	C41.733017,165.886658 44.546612,162.527008 39.159866,160.998688 
	C39.869045,156.278915 40.578224,151.559158 41.101120,146.112656 
	C41.107407,144.303482 41.299969,143.221024 41.492527,142.138580 
	C42.832542,143.596481 44.172562,145.054382 46.392326,147.469421 
	C48.492107,143.814896 50.664505,140.225876 52.554142,136.493698 
	C52.781269,136.045120 51.475250,134.820297 50.879829,133.955246 
	C51.365292,133.011993 51.850754,132.068726 52.682659,131.335632 
	C53.400208,132.418945 53.771309,133.292084 54.208233,134.320099 
	C56.010262,133.366379 57.525017,132.564713 59.039776,131.763031 
	C58.970695,131.333435 58.901615,130.903839 58.832535,130.474243 
	C57.180576,130.301819 55.528614,130.129410 53.876656,129.956985 
	C55.661930,127.634911 57.447201,125.312836 59.606644,123.306396 
	C60.211239,124.612747 60.441666,125.603470 60.604755,126.304672 
	C63.537830,123.741272 66.205032,121.410248 69.716164,118.341652 
	C67.031616,118.176392 65.595329,118.087975 64.159050,117.999557 
	C65.813622,115.933327 67.468185,113.867088 69.761452,111.003250 
	C55.785309,111.003250 42.772430,111.077866 29.762781,110.906914 
	C28.173044,110.886017 26.600615,109.547676 25.473724,108.351746 
	C28.260242,107.256012 30.585844,106.119667 32.927383,106.085823 
	C45.403996,105.905434 57.884621,106.011917 70.363800,105.988190 
	C72.054665,105.984978 73.745201,105.807625 75.435890,105.710907 
	C75.426949,105.220711 75.418007,104.730507 75.409065,104.240311 
	C73.906380,104.148239 72.403687,104.056160 70.901001,103.964081 
M91.107399,216.274597 
	C91.191940,216.323425 91.276482,216.372253 91.361008,216.421082 
	C91.240974,216.280518 91.120941,216.139954 90.892937,215.725616 
	C90.808311,215.676712 90.723679,215.627823 90.639046,215.578918 
	C90.759125,215.719696 90.879196,215.860458 91.107399,216.274597 
M65.516525,160.021606 
	C65.244278,160.140869 64.972023,160.260132 64.699776,160.379395 
	C64.787010,160.501617 64.944550,160.734573 64.951393,160.730225 
	C65.311577,160.501480 65.659004,160.252670 66.279205,159.893448 
	C66.184067,159.926315 66.088936,159.959183 65.516525,160.021606 
M97.106865,218.275879 
	C97.191681,218.324509 97.276497,218.373138 97.361298,218.421768 
	C97.241859,218.280426 97.122414,218.139069 96.935677,217.346909 
	C96.291405,216.644485 95.647141,215.942062 95.002869,215.239624 
	C94.700096,215.658890 94.397324,216.078140 94.094551,216.497391 
	C95.062256,216.999283 96.029961,217.501175 97.106865,218.275879 
M74.457481,133.770004 
	C73.171555,134.140823 71.885628,134.511627 70.599701,134.882446 
	C71.108238,135.601883 71.616776,136.321335 71.872803,137.665115 
	C71.285408,138.763062 70.698006,139.860992 69.332092,141.109970 
	C68.517906,143.019684 67.703712,144.929398 66.200371,146.990417 
	C64.982872,147.637024 63.506485,148.036453 62.602962,148.982819 
	C60.843060,150.826172 59.404064,152.975906 57.261414,155.086838 
	C57.214939,155.738861 57.168461,156.390900 57.013626,157.832825 
	C56.049805,160.905106 55.085983,163.977402 53.534241,166.572311 
	C52.935909,165.038467 52.337578,163.504639 51.739250,161.970795 
	C51.048073,162.236389 50.356899,162.501984 49.665726,162.767578 
	C50.805279,165.537003 51.944832,168.306412 53.007915,171.834793 
	C53.338192,172.945328 53.668468,174.055847 54.141659,175.822449 
	C55.428261,175.606934 56.714867,175.391434 58.868649,175.010529 
	C59.577576,173.576141 60.862530,172.155807 60.897968,170.704971 
	C61.072403,163.564255 63.008446,157.189178 68.263496,152.519684 
	C70.128128,152.217667 72.978508,152.536774 73.644638,151.479599 
	C74.890244,149.502777 73.545273,147.806503 70.963478,147.542282 
	C70.963478,147.542282 70.950668,147.121429 71.355278,146.563187 
	C74.997841,145.707764 73.556595,143.302032 73.730286,141.012238 
	C74.472778,140.967682 75.215279,140.923126 75.982277,141.530029 
	C77.989075,144.893051 78.423912,141.555756 81.011963,140.693420 
	C78.628769,140.269531 77.750031,140.113220 76.985832,139.149124 
	C76.989899,137.531143 77.037170,135.909897 76.916397,134.301300 
	C76.906685,134.171936 75.740753,134.129410 74.457481,133.770004 
M83.996460,174.180420 
	C84.036736,172.952545 84.290764,171.685593 84.074821,170.504562 
	C83.552658,167.648788 82.811226,164.833099 82.836739,161.984375 
	C83.384224,161.581116 83.931702,161.177856 84.479187,160.774612 
	C83.611282,160.531982 82.743370,160.289352 81.215843,160.252808 
	C80.283348,161.131912 79.436821,162.131516 78.403252,162.868973 
	C74.235451,165.842636 71.690582,169.768524 70.742546,175.316254 
	C70.906723,175.874603 71.031990,176.904587 71.240799,176.921799 
	C75.678047,177.287872 80.124680,177.540100 84.590164,177.815781 
	C84.434097,177.094986 84.193970,175.985962 83.996460,174.180420 
M89.849922,75.354843 
	C87.729965,74.903084 85.619164,74.117310 83.488434,74.058983 
	C75.457802,73.839119 75.486374,73.926056 75.926872,82.019478 
	C75.987381,83.131157 75.406830,84.270706 75.416710,85.394775 
	C75.422653,86.071136 75.996735,86.742508 76.315498,87.416130 
	C76.892387,86.905563 77.469284,86.395004 78.760674,86.242554 
	C78.760048,88.420082 78.759422,90.597610 78.380440,91.921379 
	C77.663101,91.020721 76.945755,90.120056 76.228416,89.219398 
	C75.779892,89.727814 75.331367,90.236229 74.882843,90.744644 
	C76.185081,91.460587 77.487312,92.176537 79.511482,92.639984 
	C80.187706,94.611160 80.863930,96.582329 81.449875,98.290329 
	C83.033478,95.967178 84.797417,93.685532 86.229919,91.211945 
	C88.911194,86.582031 92.437225,82.098022 89.849922,75.354843 
M91.152519,172.737610 
	C90.208511,174.399948 89.264511,176.062286 87.986336,178.313065 
	C96.730812,177.644135 103.876816,177.097473 111.212685,176.536301 
	C110.665390,175.912064 110.340111,175.541061 110.582481,174.907959 
	C110.348190,173.590469 110.113892,172.272964 110.573921,170.887527 
	C110.890976,170.018387 111.324501,169.164612 111.442703,168.269211 
	C111.472031,168.047043 110.480202,167.690063 109.957764,167.395065 
	C109.638313,168.208755 109.318855,169.022446 108.297142,169.819458 
	C103.413994,164.301636 98.818382,158.260391 90.154739,159.166367 
	C90.790825,164.081268 91.347534,168.382843 91.152519,172.737610 
M76.358635,69.984756 
	C75.490677,70.142151 74.622719,70.299553 73.754768,70.456955 
	C73.758522,70.870140 73.762276,71.283325 73.766029,71.696510 
	C80.333984,71.696510 86.901939,71.696510 93.766991,71.696510 
	C93.806351,71.193970 93.892563,70.093399 93.962547,69.200073 
	C92.474396,69.095009 91.219994,69.006447 90.241409,68.209412 
	C90.781700,66.293419 91.875053,64.338348 91.743019,62.469860 
	C91.495522,58.967430 90.538666,55.515118 90.570229,51.928288 
	C92.670799,50.391884 92.144707,49.471542 89.724434,48.230797 
	C88.535545,46.335720 87.416557,44.391357 86.129204,42.565712 
	C85.454155,41.608391 84.542152,40.288239 83.628807,40.195164 
	C82.887016,40.119564 81.643272,41.480160 81.213341,42.462547 
	C79.686546,45.951160 78.412827,49.550533 76.664452,52.615654 
	C76.134010,52.955799 75.603569,53.295948 75.073128,53.636093 
	C75.662415,54.424469 76.251694,55.212849 76.992332,56.825939 
	C77.025230,61.206383 77.058128,65.586823 76.358635,69.984756 
M115.374290,189.440216 
	C116.435005,189.511917 117.495728,189.583633 118.556442,189.655334 
	C118.642372,189.156647 118.728302,188.657959 118.814232,188.159286 
	C117.597565,187.772400 116.380905,187.385529 115.000771,186.219482 
	C114.401726,182.822937 111.602783,182.224945 109.000000,182.082596 
	C104.094772,181.814346 99.164436,182.005188 94.063004,182.005188 
	C94.684242,186.213684 95.258827,190.106155 95.222115,194.004608 
	C94.717865,194.257660 94.213608,194.510696 93.709358,194.763748 
	C94.512169,195.161163 95.314980,195.558594 96.735703,196.242401 
	C97.104172,199.161179 97.472633,202.079956 96.897156,205.000397 
	C95.305374,205.097382 93.713593,205.194351 92.530685,205.784653 
	C92.372025,205.927628 92.213364,206.070602 91.769836,205.314651 
	C91.566681,205.074783 91.363525,204.834915 91.008934,203.974442 
	C90.003105,199.189926 88.853416,194.430054 88.028137,189.614594 
	C87.013168,183.692322 85.228745,182.013885 79.250565,182.004486 
	C76.672691,182.000427 74.094803,182.003815 71.541298,182.003815 
	C71.659477,183.185257 71.750214,184.092316 71.129494,184.889267 
	C69.642639,183.168625 68.155777,181.447983 66.668922,179.727341 
	C66.402466,180.015335 66.136009,180.303314 65.869560,180.591309 
	C66.230095,182.432724 66.590622,184.274155 66.195427,186.006760 
	C65.776665,185.803513 65.224632,185.707825 64.960114,185.380081 
	C62.728863,182.615524 56.758785,180.584457 54.452927,182.294113 
	C50.701771,185.075378 54.594952,187.738068 55.039780,190.455841 
	C55.160522,191.193542 55.625130,191.930954 56.092411,192.546707 
	C58.740261,196.035873 61.436855,199.488037 63.624874,203.304947 
	C63.769341,203.806519 63.913811,204.308075 64.058281,204.809631 
	C64.719887,204.499176 65.381500,204.188705 66.762215,203.989670 
	C68.857414,205.286636 70.952606,206.583618 72.791580,208.516785 
	C72.778160,211.126053 72.778160,211.126053 77.331169,209.045685 
	C78.553665,209.422211 79.776161,209.798737 81.134827,210.846542 
	C84.351067,214.082825 87.222427,212.742859 90.979889,209.982895 
	C91.400391,208.516556 91.820892,207.050201 92.636841,206.660080 
	C93.328949,208.440170 94.021057,210.220276 94.461510,211.353104 
	C102.968513,212.569214 106.760559,206.670776 111.502457,202.440582 
	C112.904106,201.190155 114.102173,199.870789 111.012573,198.246399 
	C112.326035,195.125549 113.639496,192.004700 115.374290,189.440216 
M78.353798,148.142731 
	C79.173813,148.028214 79.993820,147.913696 80.813835,147.799194 
	C80.525040,146.949921 80.428955,145.555405 79.905396,145.370377 
	C78.957184,145.035233 77.754112,145.421173 76.657440,145.506073 
	C77.006721,146.282623 77.356003,147.059174 78.353798,148.142731 
M91.442741,184.195602 
	C91.755981,183.164352 92.069229,182.133087 92.382469,181.101837 
	C92.039986,180.960754 91.697510,180.819687 91.355026,180.678604 
	C90.621559,181.826477 89.888084,182.974350 89.154617,184.122238 
	C89.802513,184.323547 90.450417,184.524872 91.442741,184.195602 
M64.565147,210.641266 
	C65.444633,211.026886 66.324120,211.412506 67.203598,211.798126 
	C67.299477,211.379868 67.395363,210.961609 67.491241,210.543365 
	C66.675911,210.434296 65.860580,210.325226 64.565147,210.641266 
M110.893929,212.386444 
	C111.001518,211.725555 111.109116,211.064682 111.216713,210.403793 
	C110.647423,210.468628 110.078133,210.533463 109.508842,210.598297 
	C109.773582,211.282898 110.038322,211.967499 110.893929,212.386444 
M89.982056,92.752731 
	C90.822273,92.599777 91.662498,92.446831 92.502724,92.293877 
	C92.345833,91.822113 92.188950,91.350357 92.032059,90.878593 
	C91.192780,91.356476 90.353493,91.834358 89.982056,92.752731 
M115.490623,195.856155 
	C115.792480,195.430328 116.094337,195.004486 116.396194,194.578659 
	C115.949463,194.465179 115.502739,194.351700 115.056007,194.238205 
	C115.002579,194.736511 114.949142,195.234818 115.490623,195.856155 
M93.382965,188.468079 
	C93.117165,188.181213 92.851372,187.894348 92.585564,187.607483 
	C92.483818,187.709991 92.285072,187.891891 92.294510,187.903427 
	C92.531326,188.192841 92.790070,188.464279 93.382965,188.468079 
M75.346954,44.628262 
	C75.421364,44.880478 75.495781,45.132694 75.570198,45.384914 
	C75.850029,45.111454 76.129860,44.837994 76.409691,44.564533 
	C76.159302,44.483887 75.908920,44.403240 75.346954,44.628262 
M45.365448,186.524673 
	C45.156898,186.470795 44.948349,186.416931 44.739799,186.363068 
	C44.873795,186.495209 45.007793,186.627350 45.365448,186.524673 
M85.752434,165.827011 
	C85.587288,165.881638 85.422142,165.936264 85.256989,165.990891 
	C85.423126,166.044235 85.589256,166.097580 85.752434,165.827011 
M87.248055,161.172714 
	C87.412903,161.118179 87.577751,161.063644 87.742599,161.009125 
	C87.576782,160.955856 87.410973,160.902588 87.248055,161.172714 
M45.248238,189.172714 
	C45.413033,189.118210 45.577827,189.063705 45.742622,189.009201 
	C45.576870,188.955963 45.411121,188.902710 45.248238,189.172714 
M91.516785,54.414215 
	C91.516785,54.414215 91.580910,54.522625 91.516785,54.414215 
M72.483345,46.586704 
	C72.483345,46.586704 72.418449,46.477360 72.483345,46.586704 
M86.414345,163.483185 
	C86.414345,163.483185 86.522736,163.419098 86.414345,163.483185 
M79.516762,133.413452 
	C79.516762,133.413452 79.581596,133.522720 79.516762,133.413452 
M50.586075,176.516846 
	C50.586075,176.516846 50.477161,176.581345 50.586075,176.516846 
M71.585777,111.516853 
	C71.585777,111.516853 71.477203,111.581131 71.585777,111.516853 
M90.414062,189.483261 
	C90.414062,189.483261 90.522873,189.418808 90.414062,189.483261 
M52.413643,191.483032 
	C52.413643,191.483032 52.522789,191.418259 52.413643,191.483032 
M91.516914,194.413651 
	C91.516914,194.413651 91.581825,194.523087 91.516914,194.413651 
M50.414616,171.483368 
	C50.414616,171.483368 50.522869,171.419373 50.414616,171.483368 
M75.585625,212.516785 
	C75.585625,212.516785 75.477310,212.580856 75.585625,212.516785 
M255.414154,179.483139 
	C255.414154,179.483139 255.522873,179.418793 255.414154,179.483139 
M145.483383,211.585327 
	C145.483383,211.585327 145.419449,211.477188 145.483383,211.585327 
M217.516891,211.414642 
	C217.516891,211.414642 217.580872,211.522781 217.516891,211.414642 
M232.585266,211.516785 
	C232.585266,211.516785 232.477081,211.580688 232.585266,211.516785 
z"/>
<path fill="#FBFBFB" opacity="1.000000" stroke="none" 
	d="
M108.016891,80.628082 
	C104.539497,76.839218 105.487770,72.508171 107.719940,68.050186 
	C110.048195,68.647575 111.974052,69.937439 113.901222,69.939400 
	C208.640228,70.036018 303.379364,70.020950 398.118469,70.021255 
	C412.770386,70.021301 427.422272,70.035767 442.426270,70.500710 
	C440.742371,71.305664 438.706573,71.956871 436.670410,71.957802 
	C329.340637,72.006927 222.010834,72.001060 114.681030,72.000946 
	C112.663872,72.000946 110.646706,72.000946 108.629547,72.000946 
	C108.621117,72.472221 108.612679,72.943497 108.604248,73.414780 
	C109.612869,73.609200 110.619637,73.959602 111.630424,73.971626 
	C116.580391,74.030548 121.531441,73.999893 126.482101,73.999908 
	C192.313278,74.000038 258.144440,74.000000 323.975616,74.000000 
	C361.474365,74.000000 398.973206,73.974228 436.471680,74.077339 
	C438.316193,74.082413 440.157654,75.213028 442.000519,75.819534 
	C439.674408,75.878166 437.348297,75.987968 435.022186,75.988098 
	C327.975128,75.994301 220.928085,75.990944 113.881042,75.988693 
	C112.393272,75.988663 110.905495,75.988686 109.500610,75.988686 
	C109.018799,77.570442 108.609825,78.913078 108.016891,80.628082 
z"/>
<path fill="#EFEFEF" opacity="1.000000" stroke="none" 
	d="
M255.954102,184.132111 
	C256.535614,183.116364 257.067383,181.256042 257.706512,181.218399 
	C262.851532,180.915390 268.016846,180.955765 273.768005,181.207031 
	C275.522583,182.012543 276.685089,182.502213 277.977264,183.298080 
	C279.410156,184.783325 280.713409,185.962372 282.146912,187.339661 
	C282.519653,187.753220 282.799561,187.894562 283.528534,187.980438 
	C290.007965,190.609940 296.900177,188.495773 298.141479,182.855896 
	C299.661377,178.206055 303.385864,181.209183 305.800415,180.487625 
	C312.843658,178.382843 313.986847,179.618042 314.008392,186.845993 
	C310.253052,189.868927 306.497681,192.891861 302.466919,196.136475 
	C304.460236,197.212524 306.902100,198.530716 309.818176,200.197632 
	C310.541046,200.756332 310.825256,200.891693 311.145020,200.952438 
	C311.497284,200.942429 311.764038,201.088531 311.994995,201.623123 
	C313.130951,204.906006 314.217133,207.956512 315.437927,211.384979 
	C308.875092,210.952866 301.618011,214.080231 295.188904,207.787994 
	C294.212891,206.614410 293.581665,205.875412 293.061432,204.831482 
	C291.768616,200.836945 290.218140,200.325714 285.499908,202.091003 
	C274.874512,202.011856 274.874512,202.011856 275.137451,209.941162 
	C272.558411,210.510834 270.003723,211.313507 267.393646,211.586166 
	C264.655212,211.872238 261.863678,211.650146 258.255188,211.650146 
	C258.164581,211.525406 257.343323,210.394562 256.253265,208.733734 
	C258.545258,205.458496 261.004974,202.608322 263.704681,200.007294 
	C265.333130,198.438370 267.334747,197.256729 268.364319,196.495651 
	C264.188171,192.699280 260.573334,189.413193 256.882568,185.902496 
	C256.673981,185.372696 256.455444,185.152893 256.071808,184.803528 
	C255.992554,184.588608 255.954102,184.132095 255.954102,184.132111 
z"/>
<path fill="#FBFBFB" opacity="1.000000" stroke="none" 
	d="
M101.001221,236.984741 
	C101.484322,236.341873 101.967422,235.698990 102.779572,235.009979 
	C104.858330,242.017838 105.794968,248.806793 103.643013,256.266205 
	C101.763367,262.781708 99.006943,267.541199 93.229111,271.111420 
	C85.485947,275.896088 78.111786,274.402740 70.563965,271.093475 
	C58.169849,265.659393 53.368382,248.571014 59.949017,237.181656 
	C65.216614,228.064789 75.827858,224.787018 84.291763,230.499268 
	C86.674644,232.107483 88.139397,235.920395 88.851349,238.994019 
	C90.636627,246.701492 84.333382,253.025696 76.466240,252.043808 
	C74.845367,251.841522 73.177666,252.014465 71.570717,252.014465 
	C70.493484,258.501953 72.237488,262.840057 76.619644,264.855865 
	C82.032906,267.345978 90.732437,265.853851 93.988220,261.708191 
	C95.454994,259.840546 96.572609,257.698669 98.403717,255.320496 
	C99.638901,253.721695 100.843033,252.509521 100.905708,251.240967 
	C101.139999,246.498886 101.000519,241.738358 101.001221,236.984741 
z"/>
<path fill="#FBFBFB" opacity="1.000000" stroke="none" 
	d="
M277.847626,182.991882 
	C276.685089,182.502213 275.522583,182.012543 274.180023,181.261139 
	C273.759613,179.880325 273.519196,178.761261 273.163208,177.006714 
	C273.651550,174.916779 274.255493,173.462296 274.929077,172.447113 
	C275.433838,173.585052 275.851837,174.878159 276.306732,174.891266 
	C281.402924,175.038132 286.506073,175.037491 291.602722,174.901703 
	C292.037415,174.890121 292.438751,173.625137 293.208801,172.983582 
	C295.660583,173.831772 297.697845,175.007629 299.870483,175.368576 
	C304.312958,176.106659 308.820648,176.570816 313.318512,176.778183 
	C314.525085,176.833801 315.793121,175.557373 317.032928,174.892456 
	C358.022186,174.934326 399.011475,174.976212 440.000732,175.018036 
	C441.167145,175.019226 442.541199,174.633850 443.445923,175.120834 
	C444.511536,175.694412 445.720062,176.958954 445.847443,178.043594 
	C445.968842,179.077362 445.042236,180.786545 444.102631,181.261505 
	C442.737305,181.951599 440.946869,181.979996 439.337433,181.981415 
	C400.845367,182.015442 362.352539,182.114655 323.862091,181.863754 
	C319.409943,181.834747 316.498932,182.735123 314.378571,186.814667 
	C313.986847,179.618042 312.843658,178.382843 305.800415,180.487625 
	C303.385864,181.209183 299.661377,178.206055 297.800720,182.672852 
	C296.721008,182.147766 296.246033,181.121689 295.824402,181.143143 
	C292.301514,181.322418 288.784363,181.655075 285.273804,182.021469 
	C282.791687,182.280548 280.322540,182.663971 277.847626,182.991882 
M293.414124,176.483307 
	C293.414124,176.483307 293.523773,176.419250 293.414124,176.483307 
z"/>
<path fill="#EFEFEF" opacity="1.000000" stroke="none" 
	d="
M257.035889,220.380615 
	C261.356384,213.096008 268.303406,216.858093 274.195404,216.179230 
	C274.806244,216.108826 275.474243,217.848175 276.336792,218.406006 
	C279.050995,220.161392 281.870667,221.753738 285.198975,223.201752 
	C286.818634,223.293701 287.888763,223.593109 288.958923,223.892502 
	C293.061737,225.141006 297.591309,223.100555 300.583435,218.655945 
	C302.422607,215.923950 311.067017,214.749512 313.556793,216.955612 
	C313.731720,217.110626 313.381134,217.858719 312.824860,218.803192 
	C307.613800,221.904449 302.806488,224.455399 298.130676,227.228104 
	C297.189728,227.786072 296.329285,229.146469 296.229248,230.211746 
	C296.166962,230.875610 297.524597,232.200378 298.378265,232.326477 
	C301.264618,232.752884 304.210480,232.776627 307.133575,232.954269 
	C309.212494,234.592392 311.291382,236.230530 313.829102,238.208130 
	C314.530945,238.755630 314.810638,238.883331 315.127045,238.930664 
	C315.127045,238.930664 315.040771,238.965225 315.035400,239.294922 
	C315.871887,242.695648 314.999237,243.792419 311.535797,244.140503 
	C304.822662,244.815186 298.658264,244.152115 293.061951,239.798416 
	C292.981018,239.587799 292.954285,239.137329 292.964569,238.747192 
	C291.533447,234.748032 283.564453,231.580612 280.664581,233.581161 
	C280.162384,233.927612 280.213898,235.076706 279.656982,235.934784 
	C278.581329,236.024704 277.858337,236.034927 276.771790,236.079514 
	C275.959869,237.110519 275.511414,238.107147 275.049500,239.073013 
	C275.036011,239.042252 275.094696,239.074966 274.755920,239.097885 
	C274.021759,239.877228 273.773407,240.778214 273.200806,241.360321 
	C271.962982,242.618790 270.542725,244.709778 269.225922,244.688385 
	C265.324036,244.624954 261.436096,243.701935 257.372345,243.089371 
	C258.282013,241.673798 259.141022,240.337112 260.367920,238.995056 
	C266.000153,236.518051 271.303009,234.122437 276.486053,231.490799 
	C277.241516,231.107239 277.907471,229.491592 277.721741,228.641068 
	C277.570526,227.948608 276.065765,227.076630 275.190643,227.107880 
	C272.734558,227.195633 270.293701,227.709213 267.846832,228.054825 
	C264.292297,225.607025 260.737732,223.159225 257.035889,220.380615 
z"/>
<path fill="#EDEDED" opacity="1.000000" stroke="none" 
	d="
M158.205765,146.929993 
	C157.883789,145.947388 157.790894,145.043350 157.697998,144.139328 
	C159.026917,144.092972 160.356369,143.994797 161.684692,144.008011 
	C181.792068,144.207977 201.899628,144.628845 222.006500,144.596481 
	C293.532074,144.481308 365.057373,144.196915 436.582947,144.121353 
	C437.968506,144.119888 441.282654,141.915176 441.037842,146.516785 
	C440.016663,146.918503 439.022766,147.027603 438.028900,147.027588 
	C344.830902,147.026611 251.632874,147.017319 158.205765,146.929993 
z"/>
<path fill="#FDFDFD" opacity="1.000000" stroke="none" 
	d="
M260.000000,239.000427 
	C259.141022,240.337112 258.282013,241.673798 257.372345,243.089371 
	C261.436096,243.701935 265.324036,244.624954 269.225922,244.688385 
	C270.542725,244.709778 271.962982,242.618790 273.200806,241.360321 
	C273.773407,240.778214 274.021759,239.877228 274.705994,239.530518 
	C274.666504,242.149368 275.247101,243.178192 277.845551,243.065094 
	C283.065338,242.837875 288.301971,242.997513 293.490845,242.997513 
	C293.356995,241.847916 293.249939,240.928482 293.142883,240.009033 
	C298.658264,244.152115 304.822662,244.815186 311.535797,244.140503 
	C314.999237,243.792419 315.871887,242.695648 315.052673,239.251770 
	C319.683472,246.226059 326.690552,241.856110 333.354523,243.148102 
	C333.621307,244.201309 335.050018,246.964218 334.350342,247.698227 
	C333.029724,249.083603 330.530487,249.596924 328.435394,249.924393 
	C326.173157,250.277985 323.691742,249.553680 321.530396,250.134583 
	C319.492615,250.682251 317.602448,252.139465 315.911743,253.520309 
	C314.101654,254.998688 312.600403,256.855225 310.582520,258.333618 
	C311.794525,255.061935 313.388458,252.003357 315.369080,248.202682 
	C310.297852,248.202682 306.013123,247.454773 302.259552,248.541397 
	C300.569092,249.030777 300.047302,253.236526 298.799927,255.655304 
	C297.091644,258.967865 287.899658,259.263763 286.401886,256.075195 
	C292.955139,257.501221 297.280670,255.620026 297.678833,250.649796 
	C291.268616,250.649796 284.918640,250.649796 277.458740,250.649796 
	C279.929626,252.600647 281.993103,254.229858 284.008575,256.194061 
	C280.008820,258.818176 278.724457,255.460342 277.691498,253.081802 
	C276.061096,249.327499 273.559570,247.761017 269.601013,247.982635 
	C267.278168,248.112701 264.929169,247.858627 262.616760,248.060944 
	C261.233002,248.182022 259.897156,248.850586 258.539795,249.273041 
	C259.093140,250.743317 259.234192,252.677521 260.273407,253.601028 
	C264.132111,257.030060 267.503052,261.397552 273.613464,261.149658 
	C274.700470,261.105560 275.862366,262.907745 276.989685,263.857391 
	C268.465149,263.552063 261.410614,260.624786 256.480072,253.188400 
	C255.454514,251.641602 253.104294,250.497009 251.182205,250.134872 
	C248.454407,249.620926 245.492996,250.357224 242.759872,249.857162 
	C241.361481,249.601288 239.544556,248.025818 239.144684,246.681488 
	C238.347885,244.002884 240.032272,242.877487 242.782593,242.962906 
	C246.928528,243.091660 251.081406,242.996445 254.427902,242.996445 
	C256.323578,241.009415 257.761047,239.502670 259.589783,238.220047 
	C259.987396,238.629578 259.993713,238.815002 260.000000,239.000427 
z"/>
<path fill="#FBFBFB" opacity="1.000000" stroke="none" 
	d="
M444.419769,145.942780 
	C444.169098,143.158493 442.779297,141.797684 439.812195,141.989868 
	C438.484741,142.075851 437.146973,142.001953 435.813904,142.001953 
	C321.169037,142.001602 206.524185,142.008453 91.879364,141.936035 
	C90.111610,141.934921 88.344475,140.955551 86.834290,140.195038 
	C89.588112,139.979446 92.084709,140.020767 94.581299,140.020813 
	C209.802017,140.022919 325.022736,140.020782 440.243469,140.022064 
	C446.364441,140.022125 447.124054,141.000656 444.419769,145.942780 
z"/>
<path fill="#FBFBFB" opacity="1.000000" stroke="none" 
	d="
M446.442322,108.881592 
	C442.788452,105.553528 438.482605,105.983711 434.224915,105.984528 
	C326.128113,106.005386 218.031311,106.006981 109.934525,105.959686 
	C107.701363,105.958710 105.468475,105.339699 103.056534,104.587189 
	C136.336212,104.117188 169.794785,104.037712 203.253387,104.027084 
	C282.167206,104.002007 361.081116,104.040321 439.994720,103.911743 
	C443.853241,103.905464 446.319916,104.547928 446.442322,108.881592 
z"/>
<path fill="#FCFCFC" opacity="1.000000" stroke="none" 
	d="
M442.391815,75.899963 
	C440.157654,75.213028 438.316193,74.082413 436.471680,74.077339 
	C398.973206,73.974228 361.474365,74.000000 323.975616,74.000000 
	C258.144440,74.000000 192.313278,74.000038 126.482101,73.999908 
	C121.531441,73.999893 116.580391,74.030548 111.630424,73.971626 
	C110.619637,73.959602 109.612869,73.609200 108.604248,73.414780 
	C108.612679,72.943497 108.621117,72.472221 108.629547,72.000946 
	C110.646706,72.000946 112.663872,72.000946 114.681030,72.000946 
	C222.010834,72.001060 329.340637,72.006927 436.670410,71.957802 
	C438.706573,71.956871 440.742371,71.305664 442.889343,70.577682 
	C444.000854,71.079666 445.001404,71.961823 446.001984,72.843987 
	C444.929047,73.889458 443.856079,74.934921 442.391815,75.899963 
z"/>
<path fill="#EFEFEF" opacity="1.000000" stroke="none" 
	d="
M316.898315,174.551178 
	C315.793121,175.557373 314.525085,176.833801 313.318512,176.778183 
	C308.820648,176.570816 304.312958,176.106659 299.870483,175.368576 
	C297.697845,175.007629 295.660583,173.831772 293.248810,172.786728 
	C292.935577,172.548721 292.945282,172.147095 293.075165,171.834732 
	C293.128998,167.296844 291.082855,166.437469 284.467224,168.013168 
	C282.207428,167.991409 280.370789,167.853256 278.564453,168.028091 
	C276.263062,168.250839 274.599060,169.291855 274.859436,172.007812 
	C274.255493,173.462296 273.651550,174.916779 273.023804,176.686539 
	C271.899139,176.671829 270.798279,176.341827 269.061798,175.890579 
	C267.611420,176.176102 266.796692,176.582855 265.981934,176.989624 
	C262.549500,176.971497 259.117096,176.953354 255.343811,176.607605 
	C254.986267,175.807343 254.969574,175.334686 254.952896,174.862030 
	C259.191650,166.419968 267.245392,163.256699 275.465393,161.126495 
	C285.930969,158.414398 296.622650,159.137100 306.267334,164.183960 
	C310.386902,166.339630 313.301514,170.797928 316.898315,174.551178 
z"/>
<path fill="#EEEEEE" opacity="1.000000" stroke="none" 
	d="
M286.009888,256.143036 
	C287.899658,259.263763 297.091644,258.967865 298.799927,255.655304 
	C300.047302,253.236526 300.569092,249.030777 302.259552,248.541397 
	C306.013123,247.454773 310.297852,248.202682 315.369080,248.202682 
	C313.388458,252.003357 311.794525,255.061935 310.262238,258.527405 
	C310.323853,258.934265 310.309875,258.907257 310.068481,258.623627 
	C308.535126,258.578400 307.188995,258.663788 305.966125,259.097107 
	C304.673676,259.555084 303.535858,260.809235 302.266052,260.910858 
	C295.908539,261.419617 289.520111,261.549286 283.166077,262.088989 
	C281.710693,262.212585 280.348175,263.428894 278.942902,264.142334 
	C278.505280,264.101440 278.067657,264.060577 277.309875,263.938538 
	C275.862366,262.907745 274.700470,261.105560 273.613464,261.149658 
	C267.503052,261.397552 264.132111,257.030060 260.273407,253.601028 
	C259.234192,252.677521 259.093140,250.743317 258.539795,249.273041 
	C259.897156,248.850586 261.233002,248.182022 262.616760,248.060944 
	C264.929169,247.858627 267.278168,248.112701 269.601013,247.982635 
	C273.559570,247.761017 276.061096,249.327499 277.691498,253.081802 
	C278.724457,255.460342 280.008820,258.818176 284.334900,256.244934 
	C285.142792,256.021545 285.576355,256.082306 286.009888,256.143036 
z"/>
<path fill="#FBFBFB" opacity="1.000000" stroke="none" 
	d="
M254.491364,174.927963 
	C254.969574,175.334686 254.986267,175.807343 255.011230,176.634415 
	C213.649048,176.993164 172.278549,177.003540 130.908066,176.994522 
	C125.419304,176.993317 123.919426,174.499832 126.474289,169.088959 
	C127.389633,174.032822 130.216553,175.180328 135.111603,175.152206 
	C174.750000,174.924591 214.390198,175.006424 254.491364,174.927963 
z"/>
<path fill="#FBFBFB" opacity="1.000000" stroke="none" 
	d="
M50.552132,134.088806 
	C51.475250,134.820297 52.781269,136.045120 52.554142,136.493698 
	C50.664505,140.225876 48.492107,143.814896 46.392326,147.469421 
	C44.172562,145.054382 42.832542,143.596481 41.492527,142.138580 
	C41.299969,143.221024 41.107407,144.303482 40.935108,145.752960 
	C37.485844,146.079803 34.012581,145.921295 30.547781,146.030746 
	C26.631117,146.154434 23.209915,145.953445 24.454170,139.759430 
	C31.650404,139.759430 39.112282,139.759430 46.837570,139.759430 
	C47.914925,137.998093 49.069679,136.110229 50.552132,134.088806 
z"/>
<path fill="#FBFBFB" opacity="1.000000" stroke="none" 
	d="
M70.439407,103.993416 
	C72.403687,104.056160 73.906380,104.148239 75.409065,104.240311 
	C75.418007,104.730507 75.426949,105.220711 75.435890,105.710907 
	C73.745201,105.807625 72.054665,105.984978 70.363800,105.988190 
	C57.884621,106.011917 45.403996,105.905434 32.927383,106.085823 
	C30.585844,106.119667 28.260242,107.256012 25.552528,107.942551 
	C25.116251,106.853943 25.054731,105.706398 24.964472,104.022751 
	C40.059952,104.022751 55.018883,104.022751 70.439407,103.993416 
z"/>
<path fill="#FBFBFB" opacity="1.000000" stroke="none" 
	d="
M62.461205,70.001945 
	C64.419579,70.061691 65.914856,70.150101 67.410133,70.238510 
	C67.419632,70.711105 67.429123,71.183708 67.438622,71.656311 
	C65.934135,71.771469 64.429932,71.981941 62.925117,71.986389 
	C52.860424,72.016151 42.795559,72.017189 32.730850,71.990089 
	C30.556444,71.984238 28.475359,71.910431 29.952061,75.466553 
	C28.402811,75.928070 26.805115,76.027863 25.340603,76.119331 
	C24.137356,71.252464 25.766586,69.815285 30.281673,69.940109 
	C40.846581,70.232162 51.425098,70.031670 62.461205,70.001945 
z"/>
<path fill="#F2F2F2" opacity="1.000000" stroke="none" 
	d="
M110.006714,144.003433 
	C119.477028,144.002991 128.948822,143.920410 138.416046,144.091187 
	C139.825897,144.116623 141.214249,145.334229 142.461670,146.427460 
	C132.841248,146.907394 123.371719,146.960175 113.308533,146.735291 
	C112.471405,146.248566 112.193146,146.108704 111.880089,146.038040 
	C111.880089,146.038040 111.498215,146.014862 111.044777,145.867050 
	C110.396461,145.147308 110.201591,144.575363 110.006714,144.003433 
z"/>
<path fill="#FDFDFD" opacity="1.000000" stroke="none" 
	d="
M279.173645,264.512390 
	C280.348175,263.428894 281.710693,262.212585 283.166077,262.088989 
	C289.520111,261.549286 295.908539,261.419617 302.266052,260.910858 
	C303.535858,260.809235 304.673676,259.555084 305.966125,259.097107 
	C307.188995,258.663788 308.535126,258.578400 310.084595,258.632446 
	C303.657654,264.030701 295.996063,265.473755 287.796570,265.021912 
	C285.005066,264.868103 282.202118,264.922943 279.173645,264.512390 
z"/>
<path fill="#F9F9F9" opacity="1.000000" stroke="none" 
	d="
M307.072083,232.563538 
	C304.210480,232.776627 301.264618,232.752884 298.378265,232.326477 
	C297.524597,232.200378 296.166962,230.875610 296.229248,230.211746 
	C296.329285,229.146469 297.189728,227.786072 298.130676,227.228104 
	C302.806488,224.455399 307.613800,221.904449 312.686157,219.137329 
	C313.325165,219.497345 313.652740,219.995438 314.009521,220.804993 
	C310.381378,224.066589 306.724030,227.016724 302.902161,230.099564 
	C304.321930,230.816025 305.666229,231.494415 307.072083,232.563538 
z"/>
<path fill="#F9F9F9" opacity="1.000000" stroke="none" 
	d="
M260.367920,238.995056 
	C259.993713,238.815002 259.987396,238.629578 259.970032,238.166077 
	C262.013245,236.248856 264.027832,234.556442 266.135284,232.988846 
	C267.602203,231.897690 270.669373,231.693130 268.011658,228.397156 
	C270.293701,227.709213 272.734558,227.195633 275.190643,227.107880 
	C276.065765,227.076630 277.570526,227.948608 277.721741,228.641068 
	C277.907471,229.491592 277.241516,231.107239 276.486053,231.490799 
	C271.303009,234.122437 266.000153,236.518051 260.367920,238.995056 
z"/>
<path fill="#F2F2F2" opacity="1.000000" stroke="none" 
	d="
M100.609070,236.990677 
	C101.000519,241.738358 101.139999,246.498886 100.905708,251.240967 
	C100.843033,252.509521 99.638901,253.721695 98.552162,254.983032 
	C98.092995,253.932953 98.040459,252.859604 98.303818,251.375504 
	C98.865448,250.808441 99.111183,250.652130 99.356918,250.495804 
	C98.953346,250.332870 98.549782,250.169937 98.146210,250.007019 
	C98.086609,245.994507 98.027008,241.982010 97.916061,237.512054 
	C98.648781,237.035294 99.432854,237.015961 100.609070,236.990677 
z"/>
<path fill="#FBFBFB" opacity="1.000000" stroke="none" 
	d="
M109.589951,144.002121 
	C110.201591,144.575363 110.396461,145.147308 110.854256,145.884125 
	C111.655991,147.128967 112.038246,148.332932 112.771545,149.258881 
	C113.786491,150.540451 115.065590,151.612839 116.461563,153.045288 
	C110.838295,154.589661 108.534393,149.821991 105.156982,145.986282 
	C105.007607,144.896149 105.007744,144.446854 105.007881,143.997559 
	C106.396317,143.998642 107.784760,143.999725 109.589951,144.002121 
z"/>
<path fill="#FBFBFB" opacity="1.000000" stroke="none" 
	d="
M64.012833,118.319763 
	C65.595329,118.087975 67.031616,118.176392 69.716164,118.341652 
	C66.205032,121.410248 63.537830,123.741272 60.604755,126.304672 
	C60.441666,125.603470 60.211239,124.612747 59.968700,123.247978 
	C61.259933,121.462608 62.563271,120.051285 64.012833,118.319763 
z"/>
<path fill="#FBFBFB" opacity="1.000000" stroke="none" 
	d="
M87.879021,28.529678 
	C87.016594,30.756649 85.995064,32.625362 85.312309,33.874332 
	C83.347206,32.135063 81.310425,30.332352 79.113213,28.207172 
	C81.875160,27.980278 84.797531,28.075851 87.879021,28.529678 
z"/>
<path fill="#FBFBFB" opacity="1.000000" stroke="none" 
	d="
M41.456390,75.910049 
	C45.075115,72.444130 49.430882,73.758408 53.893883,75.452438 
	C49.972107,75.884216 45.943077,75.936035 41.456390,75.910049 
z"/>
<path fill="#FBFBFB" opacity="1.000000" stroke="none" 
	d="
M65.527580,55.136322 
	C69.704948,57.871765 68.261871,61.338120 66.535034,64.897942 
	C65.831825,61.772099 65.504303,58.543148 65.527580,55.136322 
z"/>
<path fill="#FBFBFB" opacity="1.000000" stroke="none" 
	d="
M53.642197,130.012268 
	C55.528614,130.129410 57.180576,130.301819 58.832535,130.474243 
	C58.901615,130.903839 58.970695,131.333435 59.039776,131.763031 
	C57.525017,132.564713 56.010262,133.366379 54.208233,134.320099 
	C53.771309,133.292084 53.400208,132.418945 52.993191,131.211639 
	C52.953690,130.521973 53.103844,130.252014 53.642197,130.012268 
z"/>
<path fill="#FBFBFB" opacity="1.000000" stroke="none" 
	d="
M39.083019,161.371277 
	C44.546612,162.527008 41.733017,165.886658 40.534698,168.902252 
	C40.112190,167.964874 40.057827,166.928619 39.911697,165.278198 
	C39.674286,164.371552 39.454590,164.153732 39.160843,164.010605 
	C39.109283,163.255035 39.057728,162.499451 39.083019,161.371277 
z"/>
<path fill="#FBFBFB" opacity="1.000000" stroke="none" 
	d="
M85.912613,137.589905 
	C84.613518,136.931580 83.395592,135.861771 82.177658,134.791946 
	C83.148041,134.195526 84.118423,133.599106 85.464989,133.000702 
	C85.892036,134.391937 85.942909,135.785187 85.912613,137.589905 
z"/>
<path fill="#FBFBFB" opacity="1.000000" stroke="none" 
	d="
M57.435852,75.911392 
	C59.631973,75.705803 62.265244,75.575386 64.929077,75.777382 
	C62.597431,76.068718 60.235214,76.027641 57.435852,75.911392 
z"/>
<path fill="#FBFBFB" opacity="1.000000" stroke="none" 
	d="
M123.025749,161.545929 
	C122.971405,162.967392 122.898331,164.054291 122.825256,165.141205 
	C122.545792,165.197998 122.266319,165.254807 121.986855,165.311600 
	C121.333946,163.096878 120.681038,160.882141 120.033981,158.280212 
	C121.028893,158.999115 122.017952,160.105240 123.025749,161.545929 
z"/>
<path fill="#FBFBFB" opacity="1.000000" stroke="none" 
	d="
M68.080078,44.211685 
	C69.018150,44.465099 69.878021,44.931103 70.737900,45.397106 
	C69.917458,45.886662 69.097008,46.376217 67.831306,46.802353 
	C67.386047,46.738926 67.386284,46.746517 67.582092,46.283279 
	C67.836533,45.504936 67.895157,45.189835 67.953781,44.874729 
	C67.953781,44.874729 68.001877,44.424267 68.080078,44.211685 
z"/>
<path fill="#FBFBFB" opacity="1.000000" stroke="none" 
	d="
M98.989380,39.645927 
	C97.925819,40.071758 96.805946,40.262653 95.686081,40.453548 
	C96.262474,39.965584 96.838860,39.477619 97.768417,38.973755 
	C98.478081,38.954903 98.748573,39.105946 98.989380,39.645927 
z"/>
<path fill="#FBFBFB" opacity="1.000000" stroke="none" 
	d="
M96.944771,231.291138 
	C97.758255,230.685913 98.634323,230.327515 99.510399,229.969101 
	C99.751472,230.255112 99.992554,230.541107 100.233627,230.827118 
	C99.399849,231.315567 98.566063,231.804031 97.449783,232.156982 
	C97.113968,231.860306 97.060669,231.699142 96.944771,231.291138 
z"/>
<path fill="#FBFBFB" opacity="1.000000" stroke="none" 
	d="
M103.065536,47.623680 
	C102.485397,47.008343 101.852730,46.060699 101.525528,45.056343 
	C102.224991,45.763538 102.618996,46.527454 103.065536,47.623680 
z"/>
<path fill="#FBFBFB" opacity="1.000000" stroke="none" 
	d="
M85.329483,217.916107 
	C85.300529,217.045837 85.602341,216.252441 85.904144,215.459045 
	C86.265022,216.032745 86.625900,216.606430 86.994034,217.510788 
	C86.554276,217.891953 86.107262,217.942474 85.329483,217.916107 
z"/>
<path fill="#FBFBFB" opacity="1.000000" stroke="none" 
	d="
M107.026436,62.567268 
	C106.527588,63.062317 106.008476,63.240433 105.489365,63.418552 
	C105.728661,62.650837 105.967957,61.883125 106.520798,61.057175 
	C106.891624,61.416073 106.948898,61.833206 107.026436,62.567268 
z"/>
<path fill="#FBFBFB" opacity="1.000000" stroke="none" 
	d="
M35.670540,175.087280 
	C35.681690,175.644791 35.362198,176.125015 35.042709,176.605240 
	C34.724377,176.312332 34.406044,176.019424 34.043312,175.446411 
	C34.445908,175.114212 34.892902,175.062088 35.670540,175.087280 
z"/>
<path fill="#FBFBFB" opacity="1.000000" stroke="none" 
	d="
M95.980278,224.202911 
	C96.347115,223.920166 96.708656,223.696304 97.070198,223.472427 
	C97.004425,223.818634 96.938652,224.164841 96.505630,224.459549 
	C96.138390,224.408051 95.974983,224.261795 95.980278,224.202911 
z"/>
<path fill="#FBFBFB" opacity="1.000000" stroke="none" 
	d="
M83.116699,126.020370 
	C82.976837,125.684433 82.809677,125.310905 82.642517,124.937378 
	C82.797997,125.123543 82.953484,125.309708 83.146126,125.751343 
	C83.183289,126.006813 83.089394,125.982773 83.116699,126.020370 
z"/>
<path fill="#FCFCFC" opacity="1.000000" stroke="none" 
	d="
M98.081207,250.253510 
	C98.549782,250.169937 98.953346,250.332870 99.356918,250.495804 
	C99.111183,250.652130 98.865448,250.808441 98.382950,250.978882 
	C98.102859,250.828659 98.059532,250.664322 98.081207,250.253510 
z"/>
<path fill="#FCFCFC" opacity="1.000000" stroke="none" 
	d="
M67.671341,44.982277 
	C67.895157,45.189835 67.836533,45.504936 67.555023,46.251610 
	C67.351051,46.152058 67.369972,45.620937 67.671341,44.982277 
z"/>
<path fill="#FDFDFD" opacity="1.000000" stroke="none" 
	d="
M315.035583,238.679962 
	C314.810638,238.883331 314.530945,238.755630 314.158051,238.354187 
	C314.333496,238.250290 314.638824,238.339767 315.035583,238.679962 
z"/>
<path fill="#FFFFFF" opacity="1.000000" stroke="none" 
	d="
M443.276917,146.886230 
	C443.151733,146.545349 443.367615,146.329910 443.881958,146.123322 
	C443.916992,146.349258 443.729553,146.642426 443.276917,146.886230 
z"/>
<path fill="#FFFFFF" opacity="1.000000" stroke="none" 
	d="
M111.964973,146.294434 
	C112.193146,146.108704 112.471405,146.248566 112.844467,146.654053 
	C112.665993,146.750580 112.357925,146.650711 111.964973,146.294434 
z"/>
<path fill="#FBFBFB" opacity="1.000000" stroke="none" 
	d="
M40.396957,173.206268 
	C40.606537,172.955139 40.825603,172.741837 41.044670,172.528519 
	C40.967674,172.648514 40.890678,172.768494 40.603539,173.104721 
	C40.393394,173.320953 40.406445,173.244080 40.396957,173.206268 
z"/>
<path fill="#FCFCFC" opacity="1.000000" stroke="none" 
	d="
M311.049683,200.698792 
	C310.825256,200.891693 310.541046,200.756332 310.159332,200.348969 
	C310.335602,200.249435 310.644989,200.347290 311.049683,200.698792 
z"/>
<path fill="#FBFBFB" opacity="1.000000" stroke="none" 
	d="
M84.835770,126.557884 
	C84.666656,126.383789 84.493446,126.163750 84.545959,126.202637 
	C84.771690,126.461571 84.831673,126.511948 84.835770,126.557884 
z"/>
<path fill="#FCFCFC" opacity="1.000000" stroke="none" 
	d="
M39.113693,164.280182 
	C39.454590,164.153732 39.674286,164.371552 39.892033,164.888245 
	C39.664936,164.924866 39.365738,164.737305 39.113693,164.280182 
z"/>
<path fill="#FBFBFB" opacity="1.000000" stroke="none" 
	d="
M32.847946,210.284912 
	C32.721413,210.369781 32.572685,210.486313 32.622028,210.433105 
	C32.820095,210.263382 32.825756,210.316574 32.847946,210.284912 
z"/>
<path fill="#000000" opacity="1.000000" stroke="none" 
	d="
M256.958496,186.127106 
	C260.573334,189.413193 264.188171,192.699280 268.364319,196.495651 
	C267.334747,197.256729 265.333130,198.438370 263.704681,200.007294 
	C261.004974,202.608322 258.545258,205.458496 255.938248,208.579651 
	C253.499344,209.302628 251.107147,209.948273 248.713898,209.952179 
	C208.455292,210.017792 168.196548,210.003403 127.172638,210.005615 
	C125.381676,210.055511 124.355904,210.106522 123.330124,210.157532 
	C122.237396,210.127701 121.144669,210.097885 119.709991,210.353165 
	C119.368034,210.638260 119.302505,210.496933 119.302505,210.496933 
	C120.109276,208.273788 120.916046,206.050659 122.118622,203.404144 
	C122.619026,202.657043 122.723625,202.333298 122.828217,202.009567 
	C128.021469,198.177109 128.023834,192.049927 128.760941,186.681610 
	C129.320602,182.605560 130.605652,181.921097 134.233826,181.935364 
	C164.284607,182.053375 194.336075,181.996964 225.236526,181.994049 
	C230.953537,181.943939 235.821365,181.893143 240.689194,181.842346 
	C245.553864,182.506042 250.418533,183.169724 255.618652,183.982758 
	C255.954102,184.132095 255.992554,184.588608 256.030151,185.072662 
	C256.364655,185.746857 256.661591,185.936981 256.958496,186.127106 
z"/>
<path fill="#000000" opacity="1.000000" stroke="none" 
	d="
M92.241394,205.583862 
	C91.820892,207.050201 91.400391,208.516556 90.045929,210.002899 
	C86.407524,210.073685 83.703087,210.124466 80.998650,210.175262 
	C79.776161,209.798737 78.553665,209.422211 76.778130,208.915588 
	C75.165993,208.483856 74.106895,208.182220 73.047798,207.880600 
	C70.952606,206.583618 68.857414,205.286636 66.304146,203.649384 
	C65.269669,203.190338 64.693260,203.071579 64.116859,202.952820 
	C61.436855,199.488037 58.740261,196.035873 56.092411,192.546707 
	C55.625130,191.930954 55.160522,191.193542 55.039780,190.455841 
	C54.594952,187.738068 50.701771,185.075378 54.452927,182.294113 
	C56.758785,180.584457 62.728863,182.615524 64.960114,185.380081 
	C65.224632,185.707825 65.776665,185.803513 66.478119,186.390167 
	C66.639221,186.885895 66.486664,186.979828 66.405663,187.116241 
	C66.338326,187.229675 66.312866,187.507812 66.340630,187.518036 
	C69.059280,188.518982 71.784805,189.501297 74.509895,190.484787 
	C74.721893,190.002457 74.933891,189.520126 75.145897,189.037796 
	C74.044243,187.691666 72.942596,186.345520 71.840950,184.999390 
	C71.750214,184.092316 71.659477,183.185257 71.541298,182.003815 
	C74.094803,182.003815 76.672691,182.000427 79.250565,182.004486 
	C85.228745,182.013885 87.013168,183.692322 88.028137,189.614594 
	C88.853416,194.430054 90.003105,199.189926 91.008926,204.494171 
	C91.357521,205.413803 91.706108,205.813690 92.054703,206.213577 
	C92.213364,206.070602 92.372025,205.927628 92.348717,205.602814 
	C92.166748,205.420959 92.241402,205.583862 92.241394,205.583862 
z"/>
<path fill="#000000" opacity="1.000000" stroke="none" 
	d="
M95.833420,193.998642 
	C95.258827,190.106155 94.684242,186.213684 94.063004,182.005188 
	C99.164436,182.005188 104.094772,181.814346 109.000000,182.082596 
	C111.602783,182.224945 114.401726,182.822937 115.006271,186.917328 
	C114.992172,188.038071 114.972565,188.460953 114.952957,188.883850 
	C113.639496,192.004700 112.326035,195.125549 110.948547,198.949707 
	C107.244453,202.418350 103.604393,205.183670 99.472488,208.322632 
	C98.894188,207.144363 98.367645,206.071548 97.841103,204.998734 
	C97.472633,202.079956 97.104172,199.161179 96.369293,195.773407 
	C95.946396,194.869141 95.889908,194.433899 95.833420,193.998642 
z"/>
<path fill="#000000" opacity="1.000000" stroke="none" 
	d="
M77.043236,53.107948 
	C78.412827,49.550533 79.686546,45.951160 81.213341,42.462547 
	C81.643272,41.480160 82.887016,40.119564 83.628807,40.195164 
	C84.542152,40.288239 85.454155,41.608391 86.129204,42.565712 
	C87.416557,44.391357 88.535545,46.335720 89.490143,48.721634 
	C89.462845,50.155632 89.669846,51.098797 89.876846,52.041962 
	C90.538666,55.515118 91.495522,58.967430 91.743019,62.469860 
	C91.875053,64.338348 90.781700,66.293419 89.731735,68.767090 
	C85.178383,69.538940 81.134697,69.753105 77.091019,69.967270 
	C77.058128,65.586823 77.025230,61.206383 76.991028,56.057487 
	C77.007561,54.562004 77.025398,53.834976 77.043236,53.107948 
z"/>
<path fill="#000000" opacity="1.000000" stroke="none" 
	d="
M109.879608,170.955475 
	C110.113892,172.272964 110.348190,173.590469 109.835136,174.964722 
	C104.867218,175.016602 100.631279,175.216019 96.434044,174.900604 
	C94.877388,174.783600 93.411522,173.458542 91.904243,172.684433 
	C91.347534,168.382843 90.790825,164.081268 90.154739,159.166367 
	C98.818382,158.260391 103.413994,164.301636 108.905579,169.922729 
	C109.635872,170.335831 109.757744,170.645660 109.879608,170.955475 
z"/>
<path fill="#000000" opacity="1.000000" stroke="none" 
	d="
M57.832157,154.998749 
	C59.404064,152.975906 60.843060,150.826172 62.602962,148.982819 
	C63.506485,148.036453 64.982872,147.637024 66.876129,146.991898 
	C68.684814,147.036057 69.817741,147.078751 70.950668,147.121429 
	C70.950668,147.121429 70.963478,147.542282 70.693680,147.771820 
	C70.423889,148.001358 69.999367,148.157455 69.718254,148.115265 
	C69.608978,148.423782 69.780815,148.774490 69.889633,149.412598 
	C69.201973,150.428558 68.577339,151.157089 67.952705,151.885635 
	C63.008446,157.189178 61.072403,163.564255 60.897968,170.704971 
	C60.862530,172.155807 59.577576,173.576141 58.039074,175.017044 
	C56.139248,175.071167 55.068996,175.118774 53.998745,175.166382 
	C53.668468,174.055847 53.338192,172.945328 53.022186,171.444855 
	C53.036461,171.054932 53.058418,171.102295 53.314423,171.021210 
	C53.660137,170.632797 53.749847,170.325455 53.917061,169.652161 
	C54.037098,168.540710 54.079632,167.795197 54.122166,167.049683 
	C55.085983,163.977402 56.049805,160.905106 57.364326,157.326889 
	C57.754066,156.213547 57.793114,155.606155 57.832157,154.998749 
z"/>
<path fill="#000000" opacity="1.000000" stroke="none" 
	d="
M78.758797,92.775139 
	C78.759422,90.597610 78.760048,88.420082 78.383713,85.640915 
	C77.992584,75.926003 77.992622,75.921173 87.062462,75.990875 
	C88.041855,75.998398 89.020515,76.102249 89.999512,76.161407 
	C92.437225,82.098022 88.911194,86.582031 86.229919,91.211945 
	C84.797417,93.685532 83.033478,95.967178 81.449875,98.290329 
	C80.863930,96.582329 80.187706,94.611160 79.143860,92.718742 
	C78.776245,92.797501 78.758797,92.775139 78.758797,92.775139 
z"/>
<path fill="#000000" opacity="1.000000" stroke="none" 
	d="
M275.596497,209.966583 
	C274.874512,202.011856 274.874512,202.011856 285.670227,202.421967 
	C288.505524,203.581848 290.727966,204.359131 292.950439,205.136414 
	C293.581665,205.875412 294.212891,206.614410 294.854401,207.651199 
	C293.473389,208.633682 292.108032,209.837814 290.686188,209.908661 
	C285.820007,210.151154 280.933960,209.995697 275.596497,209.966583 
z"/>
<path fill="#000000" opacity="1.000000" stroke="none" 
	d="
M71.047714,174.880371 
	C71.690582,169.768524 74.235451,165.842636 78.403252,162.868973 
	C79.436821,162.131516 80.283348,161.131912 81.600327,160.475571 
	C82.042603,161.132645 82.100395,161.566940 82.158188,162.001251 
	C82.811226,164.833099 83.552658,167.648788 84.074821,170.504562 
	C84.290764,171.685593 84.036736,172.952545 83.518539,174.587219 
	C79.042984,174.956131 75.045349,174.918243 71.047714,174.880371 
z"/>
<path fill="#FBFBFB" opacity="1.000000" stroke="none" 
	d="
M97.369125,204.999573 
	C98.367645,206.071548 98.894188,207.144363 99.472488,208.322632 
	C103.604393,205.183670 107.244453,202.418350 111.026550,199.326324 
	C114.102173,199.870789 112.904106,201.190155 111.502457,202.440582 
	C106.760559,206.670776 102.968513,212.569214 94.461510,211.353104 
	C94.021057,210.220276 93.328949,208.440170 92.439117,206.121979 
	C92.241402,205.583862 92.166748,205.420959 92.144279,205.356140 
	C93.713593,205.194351 95.305374,205.097382 97.369125,204.999573 
z"/>
<path fill="#000000" opacity="1.000000" stroke="none" 
	d="
M289.127808,223.552826 
	C287.888763,223.593109 286.818634,223.293701 285.397949,222.936676 
	C283.092743,221.144791 281.138000,219.410538 278.589905,217.149811 
	C285.439758,217.149811 291.355286,217.149811 298.062134,217.149811 
	C296.785370,217.750534 296.066010,218.088989 295.273193,218.462021 
	C295.770599,219.156891 296.239899,219.812500 297.055420,220.951782 
	C294.336243,221.744308 291.816467,222.478729 289.127808,223.552826 
z"/>
<path fill="#FBFBFB" opacity="1.000000" stroke="none" 
	d="
M91.528381,172.711029 
	C93.411522,173.458542 94.877388,174.783600 96.434044,174.900604 
	C100.631279,175.216019 104.867218,175.016602 109.551315,175.095764 
	C110.340111,175.541061 110.665390,175.912064 111.212685,176.536301 
	C103.876816,177.097473 96.730812,177.644135 87.986336,178.313065 
	C89.264511,176.062286 90.208511,174.399948 91.528381,172.711029 
z"/>
<path fill="#FBFBFB" opacity="1.000000" stroke="none" 
	d="
M89.924713,75.758125 
	C89.020515,76.102249 88.041855,75.998398 87.062462,75.990875 
	C77.992622,75.921173 77.992584,75.926003 78.026459,85.461853 
	C77.469284,86.395004 76.892387,86.905563 76.315506,87.416130 
	C75.996735,86.742508 75.422653,86.071136 75.416710,85.394775 
	C75.406830,84.270706 75.987381,83.131157 75.926872,82.019478 
	C75.486374,73.926056 75.457802,73.839119 83.488434,74.058983 
	C85.619164,74.117310 87.729965,74.903084 89.924713,75.758125 
z"/>
<path fill="#FBFBFB" opacity="1.000000" stroke="none" 
	d="
M76.724823,69.976013 
	C81.134697,69.753105 85.178383,69.538940 89.593826,69.121330 
	C91.219994,69.006447 92.474396,69.095009 93.962547,69.200073 
	C93.892563,70.093399 93.806351,71.193970 93.766991,71.696510 
	C86.901939,71.696510 80.333984,71.696510 73.766029,71.696510 
	C73.762276,71.283325 73.758522,70.870140 73.754768,70.456955 
	C74.622719,70.299553 75.490677,70.142151 76.724823,69.976013 
z"/>
<path fill="#FBFBFB" opacity="1.000000" stroke="none" 
	d="
M71.485222,184.944336 
	C72.942596,186.345520 74.044243,187.691666 75.145897,189.037796 
	C74.933891,189.520126 74.721893,190.002457 74.509895,190.484787 
	C71.784805,189.501297 69.059280,188.518982 66.340630,187.518036 
	C66.312866,187.507812 66.338326,187.229675 66.405663,187.116241 
	C66.486664,186.979828 66.639221,186.885895 66.855980,186.444580 
	C66.590622,184.274155 66.230095,182.432724 65.869560,180.591309 
	C66.136009,180.303314 66.402466,180.015335 66.668922,179.727341 
	C68.155777,181.447983 69.642639,183.168625 71.485222,184.944336 
z"/>
<path fill="#FBFBFB" opacity="1.000000" stroke="none" 
	d="
M71.152969,146.842316 
	C69.817741,147.078751 68.684814,147.036057 67.220703,146.916245 
	C67.703712,144.929398 68.517906,143.019684 70.084358,141.053650 
	C71.558090,141.053680 72.279556,141.110031 73.001022,141.166382 
	C73.556595,143.302032 74.997841,145.707764 71.152969,146.842316 
z"/>
<path fill="#000000" opacity="1.000000" stroke="none" 
	d="
M73.365654,141.089310 
	C72.279556,141.110031 71.558090,141.053680 70.473618,140.978134 
	C70.698006,139.860992 71.285408,138.763062 72.292595,137.251221 
	C73.512299,135.907043 74.312210,134.976776 75.112122,134.046524 
	C75.740753,134.129410 76.906685,134.171936 76.916397,134.301300 
	C77.037170,135.909897 76.989899,137.531143 76.695007,139.609268 
	C76.101654,140.254318 75.952843,140.524048 75.957771,140.878571 
	C75.215279,140.923126 74.472778,140.967682 73.365654,141.089310 
z"/>
<path fill="#FBFBFB" opacity="1.000000" stroke="none" 
	d="
M70.895126,175.098312 
	C75.045349,174.918243 79.042984,174.956131 83.497231,174.935471 
	C84.193970,175.985962 84.434097,177.094986 84.590164,177.815781 
	C80.124680,177.540100 75.678047,177.287872 71.240799,176.921799 
	C71.031990,176.904587 70.906723,175.874603 70.895126,175.098312 
z"/>
<path fill="#FBFBFB" opacity="1.000000" stroke="none" 
	d="
M69.999367,148.157455 
	C69.999367,148.157455 70.423889,148.001358 70.648781,147.977493 
	C73.545273,147.806503 74.890244,149.502777 73.644638,151.479599 
	C72.978508,152.536774 70.128128,152.217667 68.108101,152.202667 
	C68.577339,151.157089 69.201973,150.428558 69.909042,149.170959 
	C69.991486,148.641891 69.999367,148.157455 69.999367,148.157455 
z"/>
<path fill="#FBFBFB" opacity="1.000000" stroke="none" 
	d="
M53.828201,166.811005 
	C54.079632,167.795197 54.037098,168.540710 53.725620,169.782837 
	C53.232113,170.509277 53.099361,170.783569 53.058418,171.102295 
	C53.058418,171.102295 53.036461,171.054932 53.060425,171.065384 
	C51.944832,168.306412 50.805279,165.537003 49.665726,162.767578 
	C50.356899,162.501984 51.048073,162.236389 51.739250,161.970795 
	C52.337578,163.504639 52.935909,165.038467 53.828201,166.811005 
z"/>
<path fill="#FBFBFB" opacity="1.000000" stroke="none" 
	d="
M81.066742,210.510895 
	C83.703087,210.124466 86.407524,210.073685 89.556732,210.100616 
	C87.222427,212.742859 84.351067,214.082825 81.066742,210.510895 
z"/>
<path fill="#FBFBFB" opacity="1.000000" stroke="none" 
	d="
M240.622559,181.406189 
	C235.821365,181.893143 230.953537,181.943939 225.721863,181.918549 
	C225.809006,181.269684 226.277176,180.188019 226.708298,180.202591 
	C231.327545,180.358734 235.940933,180.688110 240.622559,181.406189 
z"/>
<path fill="#FBFBFB" opacity="1.000000" stroke="none" 
	d="
M78.029541,147.989227 
	C77.356003,147.059174 77.006721,146.282623 76.657440,145.506073 
	C77.754112,145.421173 78.957184,145.035233 79.905396,145.370377 
	C80.428955,145.555405 80.525040,146.949921 80.813835,147.799194 
	C79.993820,147.913696 79.173813,148.028214 78.029541,147.989227 
z"/>
<path fill="#FBFBFB" opacity="1.000000" stroke="none" 
	d="
M74.784798,133.908264 
	C74.312210,134.976776 73.512299,135.907043 72.418854,136.939041 
	C71.616776,136.321335 71.108238,135.601883 70.599701,134.882446 
	C71.885628,134.511627 73.171555,134.140823 74.784798,133.908264 
z"/>
<path fill="#FBFBFB" opacity="1.000000" stroke="none" 
	d="
M91.270531,184.460907 
	C90.450417,184.524872 89.802513,184.323547 89.154617,184.122223 
	C89.888084,182.974350 90.621559,181.826477 91.355026,180.678604 
	C91.697510,180.819687 92.039986,180.960754 92.382469,181.101837 
	C92.069229,182.133087 91.755981,183.164352 91.270531,184.460907 
z"/>
<path fill="#FBFBFB" opacity="1.000000" stroke="none" 
	d="
M75.970024,141.204300 
	C75.952843,140.524048 76.101654,140.254318 76.637741,140.013168 
	C77.750031,140.113220 78.628769,140.269531 81.011963,140.693420 
	C78.423912,141.555756 77.989075,144.893051 75.970024,141.204300 
z"/>
<path fill="#FBFBFB" opacity="1.000000" stroke="none" 
	d="
M115.163620,189.162033 
	C114.972565,188.460953 114.992172,188.038071 115.088013,187.306915 
	C116.380905,187.385529 117.597565,187.772400 118.814232,188.159286 
	C118.728302,188.657959 118.642372,189.156647 118.556442,189.655334 
	C117.495728,189.583633 116.435005,189.511917 115.163620,189.162033 
z"/>
<path fill="#FBFBFB" opacity="1.000000" stroke="none" 
	d="
M110.226761,170.921509 
	C109.757744,170.645660 109.635872,170.335831 109.256699,169.931061 
	C109.318855,169.022446 109.638313,168.208755 109.957764,167.395065 
	C110.480202,167.690063 111.472031,168.047043 111.442703,168.269211 
	C111.324501,169.164612 110.890976,170.018387 110.226761,170.921509 
z"/>
<path fill="#FBFBFB" opacity="1.000000" stroke="none" 
	d="
M78.569618,92.348259 
	C78.758797,92.775139 78.776245,92.797501 78.782898,92.844986 
	C77.487312,92.176537 76.185081,91.460587 74.882843,90.744644 
	C75.331367,90.236229 75.779892,89.727814 76.228416,89.219398 
	C76.945755,90.120056 77.663101,91.020721 78.569618,92.348259 
z"/>
<path fill="#FBFBFB" opacity="1.000000" stroke="none" 
	d="
M72.919693,208.198700 
	C74.106895,208.182220 75.165993,208.483856 76.512680,208.978394 
	C72.778160,211.126053 72.778160,211.126053 72.919693,208.198700 
z"/>
<path fill="#FBFBFB" opacity="1.000000" stroke="none" 
	d="
M123.350388,210.535126 
	C124.355904,210.106522 125.381676,210.055511 126.710281,210.081116 
	C127.387337,210.624817 127.761574,211.091888 129.010498,212.650665 
	C126.396645,211.845200 124.883644,211.378952 123.350388,210.535126 
z"/>
<path fill="#FBFBFB" opacity="1.000000" stroke="none" 
	d="
M90.223541,51.985123 
	C89.669846,51.098797 89.462845,50.155632 89.564987,49.086414 
	C92.144707,49.471542 92.670799,50.391884 90.223541,51.985123 
z"/>
<path fill="#FBFBFB" opacity="1.000000" stroke="none" 
	d="
M64.805199,210.428711 
	C65.860580,210.325226 66.675911,210.434296 67.491241,210.543365 
	C67.395363,210.961609 67.299477,211.379868 67.203598,211.798126 
	C66.324120,211.412506 65.444633,211.026886 64.805199,210.428711 
z"/>
<path fill="#FBFBFB" opacity="1.000000" stroke="none" 
	d="
M110.598495,212.519272 
	C110.038322,211.967499 109.773582,211.282898 109.508842,210.598297 
	C110.078133,210.533463 110.647423,210.468628 111.216713,210.403793 
	C111.109116,211.064682 111.001518,211.725555 110.598495,212.519272 
z"/>
<path fill="#FBFBFB" opacity="1.000000" stroke="none" 
	d="
M89.748131,92.532486 
	C90.353493,91.834358 91.192780,91.356476 92.032059,90.878593 
	C92.188950,91.350357 92.345833,91.822113 92.502724,92.293877 
	C91.662498,92.446831 90.822273,92.599777 89.748131,92.532486 
z"/>
<path fill="#FBFBFB" opacity="1.000000" stroke="none" 
	d="
M76.853844,52.861801 
	C77.025398,53.834976 77.007561,54.562004 76.915352,55.645126 
	C76.251694,55.212849 75.662415,54.424469 75.073128,53.636093 
	C75.603569,53.295948 76.134010,52.955799 76.853844,52.861801 
z"/>
<path fill="#F2F2F2" opacity="1.000000" stroke="none" 
	d="
M104.637466,143.995575 
	C105.007744,144.446854 105.007607,144.896149 105.004196,145.682785 
	C103.841209,145.868210 102.681503,145.716309 101.521797,145.564407 
	C101.500633,145.261078 101.479469,144.957748 101.458313,144.654419 
	C102.394554,144.434143 103.330803,144.213867 104.637466,143.995575 
z"/>
<path fill="#FBFBFB" opacity="1.000000" stroke="none" 
	d="
M54.070202,175.494415 
	C55.068996,175.118774 56.139248,175.071167 57.605484,175.099731 
	C56.714867,175.391434 55.428261,175.606934 54.070202,175.494415 
z"/>
<path fill="#FBFBFB" opacity="1.000000" stroke="none" 
	d="
M96.997665,218.003052 
	C96.029961,217.501175 95.062256,216.999283 94.094551,216.497391 
	C94.397324,216.078140 94.700096,215.658890 95.002869,215.239624 
	C95.647141,215.942062 96.291405,216.644485 96.967834,217.673462 
	C97.000000,218.000000 96.997673,218.003052 96.997665,218.003052 
z"/>
<path fill="#FBFBFB" opacity="1.000000" stroke="none" 
	d="
M63.870865,203.128876 
	C64.693260,203.071579 65.269669,203.190338 65.944595,203.593658 
	C65.381500,204.188705 64.719887,204.499176 64.058281,204.809631 
	C63.913811,204.308075 63.769341,203.806519 63.870865,203.128876 
z"/>
<path fill="#FBFBFB" opacity="1.000000" stroke="none" 
	d="
M115.193161,195.794647 
	C114.949142,195.234818 115.002579,194.736511 115.056007,194.238205 
	C115.502739,194.351700 115.949463,194.465179 116.396194,194.578659 
	C116.094337,195.004486 115.792480,195.430328 115.193161,195.794647 
z"/>
<path fill="#FBFBFB" opacity="1.000000" stroke="none" 
	d="
M82.497467,161.992813 
	C82.100395,161.566940 82.042603,161.132645 81.930138,160.372528 
	C82.743370,160.289352 83.611282,160.531982 84.479187,160.774612 
	C83.931702,161.177856 83.384224,161.581116 82.497467,161.992813 
z"/>
<path fill="#FBFBFB" opacity="1.000000" stroke="none" 
	d="
M95.527763,194.001617 
	C95.889908,194.433899 95.946396,194.869141 96.060341,195.630203 
	C95.314980,195.558594 94.512169,195.161163 93.709358,194.763748 
	C94.213608,194.510696 94.717865,194.257660 95.527763,194.001617 
z"/>
<path fill="#FBFBFB" opacity="1.000000" stroke="none" 
	d="
M266.320892,176.991547 
	C266.796692,176.582855 267.611420,176.176102 268.710938,175.891800 
	C268.217072,176.340668 267.438446,176.667068 266.320892,176.991547 
z"/>
<path fill="#FBFBFB" opacity="1.000000" stroke="none" 
	d="
M87.057251,122.038940 
	C86.574280,121.819000 86.035942,121.596848 85.542259,121.300354 
	C85.488213,121.267891 85.690872,120.808014 85.774467,120.546387 
	C86.172714,120.869797 86.570961,121.193214 87.016022,121.808128 
	C87.062843,122.099625 87.014923,122.015022 87.057251,122.038940 
z"/>
<path fill="#FBFBFB" opacity="1.000000" stroke="none" 
	d="
M57.546783,155.042786 
	C57.793114,155.606155 57.754066,156.213547 57.418503,156.931946 
	C57.168461,156.390900 57.214939,155.738861 57.546783,155.042786 
z"/>
<path fill="#FBFBFB" opacity="1.000000" stroke="none" 
	d="
M93.213951,188.603485 
	C92.790070,188.464279 92.531326,188.192841 92.294510,187.903427 
	C92.285072,187.891891 92.483818,187.709991 92.585571,187.607483 
	C92.851372,187.894348 93.117165,188.181213 93.213951,188.603485 
z"/>
<path fill="#FBFBFB" opacity="1.000000" stroke="none" 
	d="
M75.502747,44.475426 
	C75.908920,44.403240 76.159302,44.483887 76.409691,44.564537 
	C76.129860,44.837994 75.850029,45.111454 75.570198,45.384911 
	C75.495781,45.132694 75.421364,44.880478 75.502747,44.475426 
z"/>
<path fill="#FBFBFB" opacity="1.000000" stroke="none" 
	d="
M66.007767,160.005981 
	C65.659004,160.252670 65.311577,160.501480 64.951393,160.730225 
	C64.944550,160.734573 64.787010,160.501617 64.699776,160.379395 
	C64.972023,160.260132 65.244278,160.140869 65.758263,160.010803 
	C66.000000,160.000000 66.007774,160.005981 66.007767,160.005981 
z"/>
<path fill="#FBFBFB" opacity="1.000000" stroke="none" 
	d="
M45.253620,186.642090 
	C45.007793,186.627350 44.873795,186.495209 44.739799,186.363068 
	C44.948349,186.416931 45.156898,186.470795 45.253620,186.642090 
z"/>
<path fill="#FBFBFB" opacity="1.000000" stroke="none" 
	d="
M85.753906,165.988983 
	C85.589256,166.097580 85.423126,166.044235 85.256989,165.990906 
	C85.422142,165.936264 85.587288,165.881638 85.753906,165.988983 
z"/>
<path fill="#FBFBFB" opacity="1.000000" stroke="none" 
	d="
M87.246605,161.011017 
	C87.410973,160.902588 87.576782,160.955856 87.742599,161.009125 
	C87.577751,161.063644 87.412903,161.118179 87.246605,161.011017 
z"/>
<path fill="#FBFBFB" opacity="1.000000" stroke="none" 
	d="
M40.753754,174.525299 
	C41.029762,174.969223 41.280777,175.475800 41.531792,175.982361 
	C41.283836,175.713272 41.035885,175.444199 40.691540,174.890778 
	C40.595146,174.606445 40.728756,174.587936 40.753754,174.525299 
z"/>
<path fill="#FBFBFB" opacity="1.000000" stroke="none" 
	d="
M45.246803,189.011093 
	C45.411121,188.902710 45.576870,188.955963 45.742622,189.009201 
	C45.577827,189.063705 45.413033,189.118210 45.246803,189.011093 
z"/>
<path fill="#FBFBFB" opacity="1.000000" stroke="none" 
	d="
M91.548843,54.468422 
	C91.580910,54.522625 91.516785,54.414215 91.548843,54.468422 
z"/>
<path fill="#FBFBFB" opacity="1.000000" stroke="none" 
	d="
M90.999268,216.001221 
	C90.879196,215.860458 90.759125,215.719696 90.639053,215.578918 
	C90.723679,215.627823 90.808311,215.676712 90.946472,215.862808 
	C91.000000,216.000000 90.999275,216.001221 90.999268,216.001221 
z"/>
<path fill="#FBFBFB" opacity="1.000000" stroke="none" 
	d="
M97.001480,217.998856 
	C97.122414,218.139069 97.241859,218.280426 97.361298,218.421768 
	C97.276497,218.373138 97.191681,218.324509 97.052269,218.139465 
	C96.997673,218.003052 97.000000,218.000000 97.001480,217.998856 
z"/>
<path fill="#FBFBFB" opacity="1.000000" stroke="none" 
	d="
M91.000458,215.999695 
	C91.120941,216.139954 91.240974,216.280518 91.361015,216.421082 
	C91.276482,216.372253 91.191940,216.323425 91.053337,216.137909 
	C90.999275,216.001221 91.000000,216.000000 91.000458,215.999695 
z"/>
<path fill="#FBFBFB" opacity="1.000000" stroke="none" 
	d="
M65.996902,159.996033 
	C66.088936,159.959183 66.184067,159.926315 66.143494,159.949707 
	C66.007774,160.005981 66.000000,160.000000 65.996902,159.996033 
z"/>
<path fill="#FBFBFB" opacity="1.000000" stroke="none" 
	d="
M72.450897,46.532032 
	C72.418449,46.477360 72.483345,46.586704 72.450897,46.532032 
z"/>
<path fill="#FBFBFB" opacity="1.000000" stroke="none" 
	d="
M86.468536,163.451141 
	C86.522736,163.419098 86.414345,163.483185 86.468536,163.451141 
z"/>
<path fill="#FBFBFB" opacity="1.000000" stroke="none" 
	d="
M79.549179,133.468079 
	C79.581596,133.522720 79.516762,133.413452 79.549179,133.468079 
z"/>
<path fill="#FBFBFB" opacity="1.000000" stroke="none" 
	d="
M122.626633,202.158401 
	C122.723625,202.333298 122.619026,202.657043 122.248108,203.087540 
	C122.129539,202.898621 122.277290,202.602936 122.626633,202.158401 
z"/>
<path fill="#FBFBFB" opacity="1.000000" stroke="none" 
	d="
M50.531616,176.549103 
	C50.477161,176.581345 50.586075,176.516846 50.531616,176.549103 
z"/>
<path fill="#FBFBFB" opacity="1.000000" stroke="none" 
	d="
M71.531494,111.548996 
	C71.477203,111.581131 71.585777,111.516853 71.531494,111.548996 
z"/>
<path fill="#FBFBFB" opacity="1.000000" stroke="none" 
	d="
M90.468468,189.451035 
	C90.522873,189.418808 90.414062,189.483261 90.468468,189.451035 
z"/>
<path fill="#FBFBFB" opacity="1.000000" stroke="none" 
	d="
M52.468216,191.450653 
	C52.522789,191.418259 52.413643,191.483032 52.468216,191.450653 
z"/>
<path fill="#FBFBFB" opacity="1.000000" stroke="none" 
	d="
M91.549370,194.468369 
	C91.581825,194.523087 91.516914,194.413651 91.549370,194.468369 
z"/>
<path fill="#FBFBFB" opacity="1.000000" stroke="none" 
	d="
M50.468742,171.451370 
	C50.522869,171.419373 50.414616,171.483368 50.468742,171.451370 
z"/>
<path fill="#FBFBFB" opacity="1.000000" stroke="none" 
	d="
M75.531464,212.548828 
	C75.477310,212.580856 75.585625,212.516785 75.531464,212.548828 
z"/>
<path fill="#FBFBFB" opacity="1.000000" stroke="none" 
	d="
M255.468506,179.450958 
	C255.522873,179.418793 255.414154,179.483139 255.468506,179.450958 
z"/>
<path fill="#FBFBFB" opacity="1.000000" stroke="none" 
	d="
M119.438095,210.672302 
	C119.322472,210.916473 119.136780,211.126602 118.951088,211.336746 
	C118.949188,211.145126 118.947289,210.953522 119.123947,210.629425 
	C119.302505,210.496933 119.368034,210.638260 119.438095,210.672302 
z"/>
<path fill="#FBFBFB" opacity="1.000000" stroke="none" 
	d="
M145.451416,211.531250 
	C145.419449,211.477188 145.483383,211.585327 145.451416,211.531250 
z"/>
<path fill="#FBFBFB" opacity="1.000000" stroke="none" 
	d="
M217.548889,211.468719 
	C217.580872,211.522781 217.516891,211.414642 217.548889,211.468719 
z"/>
<path fill="#FBFBFB" opacity="1.000000" stroke="none" 
	d="
M232.531174,211.548737 
	C232.477081,211.580688 232.585266,211.516785 232.531174,211.548737 
z"/>
<path fill="#000000" opacity="1.000000" stroke="none" 
	d="
M277.977264,183.298080 
	C280.322540,182.663971 282.791687,182.280548 285.273804,182.021469 
	C288.784363,181.655075 292.301514,181.322418 295.824402,181.143143 
	C296.246033,181.121689 296.721008,182.147766 297.511993,182.871353 
	C296.900177,188.495773 290.007965,190.609940 283.446411,187.720123 
	C282.640594,187.341309 282.328644,187.241364 282.016663,187.141418 
	C280.713409,185.962372 279.410156,184.783325 277.977264,183.298080 
z"/>
<path fill="#FCFCFB" opacity="1.000000" stroke="none" 
	d="
M293.061432,204.831497 
	C290.727966,204.359131 288.505524,203.581848 286.112732,202.473602 
	C290.218140,200.325714 291.768616,200.836945 293.061432,204.831497 
z"/>
<path fill="#FBFBFB" opacity="1.000000" stroke="none" 
	d="
M256.882568,185.902496 
	C256.661591,185.936981 256.364655,185.746857 256.109406,185.287598 
	C256.455444,185.152893 256.673981,185.372696 256.882568,185.902496 
z"/>
<path fill="#FBFBFB" opacity="1.000000" stroke="none" 
	d="
M282.146912,187.339661 
	C282.328644,187.241364 282.640594,187.341309 283.034698,187.701569 
	C282.799561,187.894562 282.519653,187.753220 282.146912,187.339661 
z"/>
<path fill="#000000" opacity="1.000000" stroke="none" 
	d="
M274.929077,172.447113 
	C274.599060,169.291855 276.263062,168.250839 278.564453,168.028091 
	C280.370789,167.853256 282.207428,167.991409 284.624939,168.366669 
	C287.794586,169.877594 290.369934,171.012344 292.945282,172.147095 
	C292.945282,172.147095 292.935577,172.548721 292.895569,172.745575 
	C292.438751,173.625137 292.037415,174.890121 291.602722,174.901703 
	C286.506073,175.037491 281.402924,175.038132 276.306732,174.891266 
	C275.851837,174.878159 275.433838,173.585052 274.929077,172.447113 
z"/>
<path fill="#EFEFEF" opacity="1.000000" stroke="none" 
	d="
M293.468933,176.451279 
	C293.523773,176.419250 293.414124,176.483307 293.468933,176.451279 
z"/>
<path fill="#000000" opacity="1.000000" stroke="none" 
	d="
M293.061951,239.798416 
	C293.249939,240.928482 293.356995,241.847916 293.490845,242.997513 
	C288.301971,242.997513 283.065338,242.837875 277.845551,243.065094 
	C275.247101,243.178192 274.666504,242.149368 275.044769,239.507599 
	C275.094696,239.074966 275.036011,239.042252 275.358765,238.951294 
	C276.166107,237.921936 276.650696,236.983536 277.135315,236.045135 
	C277.858337,236.034927 278.581329,236.024704 280.037720,236.000809 
	C285.429169,234.728210 289.127991,237.179245 292.954285,239.137329 
	C292.954285,239.137329 292.981018,239.587799 293.061951,239.798416 
z"/>
<path fill="#FDFDFD" opacity="1.000000" stroke="none" 
	d="
M292.964569,238.747192 
	C289.127991,237.179245 285.429169,234.728210 280.390350,235.921112 
	C280.213898,235.076706 280.162384,233.927612 280.664581,233.581161 
	C283.564453,231.580612 291.533447,234.748032 292.964569,238.747192 
z"/>
<path fill="#FDFDFD" opacity="1.000000" stroke="none" 
	d="
M276.771790,236.079514 
	C276.650696,236.983536 276.166107,237.921936 275.372223,238.982056 
	C275.511414,238.107147 275.959869,237.110519 276.771790,236.079514 
z"/>
<path fill="#000000" opacity="1.000000" stroke="none" 
	d="
M286.401886,256.075195 
	C285.576355,256.082306 285.142792,256.021545 284.382935,255.909943 
	C281.993103,254.229858 279.929626,252.600647 277.458740,250.649796 
	C284.918640,250.649796 291.268616,250.649796 297.678833,250.649796 
	C297.280670,255.620026 292.955139,257.501221 286.401886,256.075195 
z"/>
<path fill="#FBFBFB" opacity="1.000000" stroke="none" 
	d="
M293.075165,171.834732 
	C290.369934,171.012344 287.794586,169.877594 285.061523,168.389328 
	C291.082855,166.437469 293.128998,167.296844 293.075165,171.834732 
z"/>
<path fill="#FCFCFC" opacity="1.000000" stroke="none" 
	d="
M91.912270,205.764114 
	C91.706108,205.813690 91.357521,205.413803 91.084656,204.804489 
	C91.363525,204.834915 91.566681,205.074783 91.912270,205.764114 
z"/>
<path fill="#FCFCFC" opacity="1.000000" stroke="none" 
	d="
M69.718254,148.115265 
	C69.999367,148.157455 69.991486,148.641891 69.972076,148.883545 
	C69.780815,148.774490 69.608978,148.423782 69.718254,148.115265 
z"/>
<path fill="#FCFCFC" opacity="1.000000" stroke="none" 
	d="
M53.314423,171.021210 
	C53.099361,170.783569 53.232113,170.509277 53.648117,170.148773 
	C53.749847,170.325455 53.660137,170.632797 53.314423,171.021210 
z"/>
</svg>