<svg version="1.1" id="Layer_1" xmlns="http://www.w3.org/2000/svg" xmlns:xlink="http://www.w3.org/1999/xlink" x="0px" y="0px"
	 width="100%" viewBox="0 0 197 97" enable-background="new 0 0 197 97" xml:space="preserve">
<path fill="#000000" opacity="1.000000" stroke="none" 
	d="
M1.000000,27.000000 
	C1.000000,18.348585 1.000000,9.697171 1.000007,1.049545 
	C66.666687,1.053333 132.333359,1.053333 198.000000,1.053333 
	C198.000000,9.425333 198.000000,17.743999 197.580536,26.565666 
	C195.603699,26.377199 194.068054,25.629683 192.481049,25.014668 
	C191.481964,24.627497 190.371719,24.108801 189.369827,24.212746 
	C180.574692,25.125229 171.792740,26.164585 162.543823,27.086998 
	C158.592224,27.005642 155.095078,26.850191 151.617493,27.044415 
	C148.079147,27.242031 144.560028,27.784050 140.600800,28.095991 
	C138.265778,27.677769 136.362671,27.046009 134.459137,27.044737 
	C113.306541,27.030600 92.153893,27.114044 70.541298,27.099010 
	C65.719368,27.074160 61.357388,27.121437 56.532539,27.092569 
	C46.742199,27.001083 37.414726,26.985743 28.049507,26.547306 
	C27.182098,22.079758 26.681795,17.929811 25.429657,14.020686 
	C24.190493,10.152061 21.744871,9.753561 18.949265,12.658400 
	C17.781900,13.871377 17.079300,15.531645 16.032408,17.297930 
	C15.568022,18.391870 15.236608,19.176418 14.614719,20.074923 
	C14.281625,20.787716 14.239002,21.386555 14.104658,22.366020 
	C13.989215,23.790167 13.965493,24.833685 13.565090,26.070156 
	C9.125607,26.508738 5.062803,26.754368 1.000000,27.000000 
M130.812347,19.012949 
	C131.540009,17.887272 133.145493,16.271786 132.839279,15.722993 
	C131.680008,13.645393 130.179214,10.952942 128.254410,10.395387 
	C127.003006,10.032894 124.008781,12.632129 123.207245,14.507794 
	C122.084534,17.135073 124.247131,18.248131 126.737907,18.777950 
	C125.405556,20.617506 124.073212,22.457060 122.368660,24.810509 
	C126.501213,24.810509 129.604584,24.810509 133.014694,24.810509 
	C132.916306,23.104242 132.829956,21.606787 132.732208,19.911827 
	C131.118439,20.792252 129.922028,21.444979 128.725616,22.097706 
	C128.597641,21.869469 128.469681,21.641232 128.341721,21.412994 
	C128.907394,20.649231 129.473083,19.885468 130.812347,19.012949 
M189.017242,12.430772 
	C187.791763,10.957080 186.827454,8.875557 185.258438,8.201378 
	C183.995514,7.658709 180.667358,8.629444 180.578644,9.257080 
	C180.299271,11.233518 181.114227,13.364639 181.533493,15.583566 
	C179.245529,16.746347 177.091644,18.627422 180.719360,20.926851 
	C182.306427,21.932825 185.190323,21.903225 187.000046,21.160881 
	C188.051270,20.729677 188.199402,17.966719 188.638046,16.223852 
	C188.879425,15.264746 188.880890,14.245253 189.017242,12.430772 
M75.069405,22.571087 
	C74.679550,20.256405 73.858231,17.915535 73.996780,15.632926 
	C74.228584,11.813807 73.134575,10.703985 69.413338,11.868793 
	C68.604324,12.122026 67.771439,12.298998 66.648010,12.588911 
	C70.847908,16.031919 71.070335,18.335398 68.010300,24.988245 
	C69.963867,24.988245 71.769310,25.172812 73.505005,24.905121 
	C74.293114,24.783575 74.943024,23.765938 75.069405,22.571087 
z"/>
<path fill="#000000" opacity="1.000000" stroke="none" 
	d="
M198.000000,75.000000 
	C198.000000,82.653442 198.000000,90.306885 198.000000,97.940186 
	C132.333313,97.940186 66.666634,97.940186 1.000000,97.940186 
	C1.000000,86.899345 1.000000,75.918335 1.362754,64.471931 
	C3.115086,65.685394 4.504665,67.364235 6.031874,69.364708 
	C7.020053,70.350395 7.870603,71.014450 8.587673,71.574295 
	C7.472755,72.098671 6.276920,72.661102 5.081084,73.223534 
	C5.165087,73.765198 5.249091,74.306870 5.333095,74.848534 
	C10.327525,74.848534 15.321957,74.848534 20.698195,74.932228 
	C24.390944,84.189133 23.709377,87.499107 18.437040,89.242630 
	C18.823032,87.671585 20.067221,85.566933 19.484415,84.308167 
	C18.534567,82.256676 16.535633,79.577034 14.712212,79.354813 
	C12.861135,79.129234 9.623137,81.147926 8.933006,82.933662 
	C8.138868,84.988525 8.728024,88.380539 10.039546,90.276512 
	C12.625336,94.014603 17.016985,93.609100 20.841553,92.568306 
	C24.889263,91.466789 25.831299,87.803680 25.950487,84.099541 
	C26.017738,82.009552 25.913296,79.785728 25.261446,77.830475 
	C24.239592,74.765381 26.195814,75.019287 28.451509,74.931915 
	C44.612022,74.954865 60.309284,74.896996 76.349739,75.007828 
	C76.756226,76.435562 76.819519,77.694595 76.510269,78.818657 
	C72.899437,77.374107 70.034950,77.707649 67.131615,79.917702 
	C64.554390,81.879501 61.550381,83.280647 58.523247,85.053108 
	C60.527447,85.945747 62.219551,86.153770 62.888130,87.091530 
	C65.794609,91.168175 70.629250,92.338249 74.710121,89.765617 
	C77.552635,87.973656 80.514297,86.370705 83.203476,84.810524 
	C82.370697,83.373917 81.105133,81.190704 79.923256,78.627869 
	C80.023811,77.213448 80.040672,76.178642 80.519760,75.089645 
	C93.634453,75.063667 106.286919,75.091881 119.094994,75.458473 
	C121.112587,80.934830 124.425667,82.442177 129.140930,79.873604 
	C131.324844,78.683952 133.094482,76.733757 135.514893,75.077774 
	C156.325241,74.970123 176.672653,74.913055 197.260498,74.922813 
	C197.500961,74.989647 198.000000,75.000000 198.000000,75.000000 
z"/>
<path fill="#FBFCFC" opacity="1.000000" stroke="none" 
	d="
M5.894243,69.043083 
	C4.504665,67.364235 3.115086,65.685394 1.362754,64.003273 
	C1.000000,59.310745 1.000000,54.621487 1.395145,49.463348 
	C6.845572,48.738098 7.311656,43.805676 10.199770,40.914661 
	C11.338113,39.928337 12.176540,39.062889 13.324858,38.059868 
	C13.815314,37.285965 13.995881,36.649643 14.520983,35.968697 
	C17.557539,32.903950 20.249563,29.883827 22.972622,26.433716 
	C23.003658,23.676334 23.003658,21.348942 23.003658,19.021549 
	C22.496584,18.929190 21.989510,18.836830 21.482437,18.744471 
	C20.354267,20.841669 19.226099,22.938866 17.803259,24.897026 
	C16.404520,23.833790 15.300450,22.909592 14.196381,21.985394 
	C14.239002,21.386555 14.281625,20.787716 14.921513,20.055710 
	C15.734312,18.944540 15.949846,17.966539 16.165380,16.988539 
	C17.079300,15.531645 17.781900,13.871377 18.949265,12.658400 
	C21.744871,9.753561 24.190493,10.152061 25.429657,14.020686 
	C26.681795,17.929811 27.182098,22.079758 27.696112,26.588657 
	C25.336605,27.862698 24.062990,28.918369 26.052410,31.411301 
	C25.373802,33.841850 24.751253,35.895557 23.856560,38.135979 
	C23.383337,39.162216 23.182261,40.001740 22.627550,40.911240 
	C21.458111,41.984783 20.642305,42.988346 19.490669,44.062302 
	C16.907713,46.819225 14.660588,49.505749 12.546818,52.032845 
	C15.773124,51.682594 18.958048,50.864803 22.039436,51.153210 
	C24.459747,51.379738 26.752140,52.972965 29.437279,54.101208 
	C31.403111,60.718021 35.935173,61.405964 41.793308,61.132278 
	C51.172295,60.694099 60.591221,61.110718 69.995560,61.501656 
	C69.996628,62.508583 69.995399,63.179871 69.530716,63.922646 
	C59.119740,63.996758 49.112373,64.646912 39.249329,63.735435 
	C34.132088,63.262539 31.830076,64.682755 30.160252,68.535339 
	C29.363583,66.433144 28.683167,64.717636 28.139606,62.947536 
	C28.183586,62.927704 28.090708,62.962463 27.746714,62.997459 
	C27.328194,62.998646 27.160786,62.999599 26.745224,63.000515 
	C26.497070,63.000481 26.000763,63.000305 25.995047,62.655132 
	C25.445072,57.288502 22.285027,64.506348 20.943188,61.284512 
	C20.711306,60.727749 17.662968,60.982456 16.084749,61.442589 
	C14.252429,61.976807 12.606632,63.150780 10.517851,64.031158 
	C10.433904,65.202927 10.711981,66.390610 10.972061,67.615707 
	C10.954063,67.653107 10.950311,67.736023 10.593864,67.857521 
	C8.789693,68.333702 7.341968,68.688393 5.894243,69.043083 
M20.586477,58.516785 
	C20.586477,58.516785 20.477505,58.581425 20.586477,58.516785 
z"/>
<path fill="#FAFBFA" opacity="1.000000" stroke="none" 
	d="
M163.006866,27.166351 
	C171.792740,26.164585 180.574692,25.125229 189.369827,24.212746 
	C190.371719,24.108801 191.481964,24.627497 192.481049,25.014668 
	C194.068054,25.629683 195.603699,26.377199 197.580536,27.034332 
	C198.000000,27.750000 198.000000,28.500000 197.596176,29.592598 
	C195.735382,30.279339 194.278427,30.623480 192.474731,30.976479 
	C191.044296,31.345329 189.960587,31.705322 188.459290,32.040592 
	C180.330841,33.008835 172.607986,33.917957 164.913040,35.021786 
	C158.954880,35.876472 153.031662,36.974739 146.664825,37.968842 
	C141.227936,37.993076 136.185532,37.665939 131.221191,38.145966 
	C127.423103,38.513222 123.723694,39.900913 119.554428,40.901146 
	C110.308662,41.979240 101.466743,42.833591 92.678497,44.069599 
	C88.347832,44.678684 84.116394,45.993275 79.506592,46.991882 
	C78.506195,46.992718 77.839256,46.990295 77.102600,46.573887 
	C77.001892,44.482056 76.970894,42.804214 77.059784,40.831966 
	C77.455978,39.748230 77.732269,38.958900 78.453384,38.096146 
	C86.175179,37.343716 93.462250,36.757420 100.726791,35.964603 
	C112.480888,34.681812 124.220161,33.263325 136.215454,32.198975 
	C137.826385,32.051350 139.187546,31.606897 140.883698,31.089588 
	C142.130005,30.973288 143.041321,30.929842 144.215164,31.192976 
	C150.302460,30.915674 156.134247,30.386337 161.938507,29.642279 
	C162.392960,29.584023 162.655258,28.026873 163.006866,27.166351 
z"/>
<path fill="#000000" opacity="1.000000" stroke="none" 
	d="
M198.000000,64.000000 
	C198.000000,66.370560 198.000000,68.741112 197.531372,71.561806 
	C176.792526,72.011940 156.522324,72.011940 136.252167,72.011940 
	C136.252167,69.036964 136.252167,66.632629 136.252167,64.136467 
	C149.665909,64.136467 162.803253,64.136467 175.974640,64.518784 
	C178.453705,69.393219 184.395309,71.054466 187.872711,67.321007 
	C190.964493,64.001556 194.236404,63.888981 198.000000,64.000000 
z"/>
<path fill="#ECEDEB" opacity="1.000000" stroke="none" 
	d="
M175.940598,64.136467 
	C162.803253,64.136467 149.665909,64.136467 136.252167,64.136467 
	C136.252167,66.632629 136.252167,69.036964 136.252167,72.011940 
	C156.522324,72.011940 176.792526,72.011940 197.531372,72.005966 
	C198.000000,72.444443 198.000000,72.888893 197.797638,73.762543 
	C197.318436,74.339455 197.126678,74.560867 197.020050,74.855988 
	C176.672653,74.913055 156.325241,74.970123 135.465836,74.691589 
	C134.176407,69.053345 130.928558,68.078644 126.319420,69.371758 
	C125.215530,69.681465 124.050537,69.773354 123.053757,69.610199 
	C125.606392,68.502563 128.044342,67.820747 130.419540,66.964790 
	C131.443405,66.595810 132.337372,65.866386 134.235382,64.739754 
	C127.551353,62.948284 121.778053,65.694489 117.124352,61.909603 
	C121.507828,61.014633 125.791168,60.832829 130.049072,61.083355 
	C132.571991,61.231792 133.294128,60.226849 133.507782,58.015636 
	C134.503876,58.013916 135.167953,58.016388 135.899582,58.458611 
	C137.244431,59.603188 138.511246,60.898148 139.800613,60.920979 
	C151.869263,61.134682 163.941772,61.130440 176.009537,61.557755 
	C175.984131,62.662998 175.962357,63.399734 175.940598,64.136467 
z"/>
<path fill="#FBFCFC" opacity="1.000000" stroke="none" 
	d="
M175.974640,64.518784 
	C175.962357,63.399734 175.984131,62.662998 176.366669,61.479385 
	C178.475052,59.647823 180.222672,58.263142 182.194000,57.155521 
	C185.890259,57.627487 189.362823,57.822388 192.906342,58.431519 
	C193.160599,63.039993 196.356262,60.210812 198.000000,61.000000 
	C198.000000,61.750000 198.000000,62.500000 198.000000,63.625000 
	C194.236404,63.888981 190.964493,64.001556 187.872711,67.321007 
	C184.395309,71.054466 178.453705,69.393219 175.974640,64.518784 
z"/>
<path fill="#000000" opacity="1.000000" stroke="none" 
	d="
M14.176449,36.013317 
	C13.995881,36.649643 13.815314,37.285965 12.870447,37.973175 
	C8.404098,38.016037 4.702049,38.008018 1.000000,38.000000 
	C1.000000,35.629444 1.000000,33.258884 1.462656,30.451202 
	C5.932143,30.053469 9.938974,30.092863 13.968683,30.552345 
	C14.053190,32.652725 14.114820,34.333023 14.176449,36.013317 
z"/>
<path fill="#E1E7E6" opacity="1.000000" stroke="none" 
	d="
M192.835388,58.017292 
	C189.362823,57.822388 185.890259,57.627487 182.283325,56.869781 
	C182.720825,56.191505 183.292725,56.076031 184.089020,55.880379 
	C184.632446,55.682964 184.852478,55.465534 185.350037,55.071037 
	C186.743851,55.153339 187.761139,55.312519 188.889923,55.489143 
	C188.889923,54.312603 188.889923,53.179459 189.180573,51.916046 
	C190.314011,50.855881 191.156784,49.925980 192.281830,48.988533 
	C192.751999,48.969231 192.939865,48.957466 193.533112,48.969826 
	C195.292313,48.995968 196.646149,48.997982 198.000000,49.000000 
	C198.000000,49.750000 198.000000,50.500000 197.561737,51.624866 
	C195.762054,52.081978 194.400620,52.164223 193.123505,52.241375 
	C193.011505,54.486732 192.923447,56.252010 192.835388,58.017292 
z"/>
<path fill="#000000" opacity="1.000000" stroke="none" 
	d="
M9.899855,41.035530 
	C7.311656,43.805676 6.845572,48.738098 1.395145,48.997231 
	C1.000000,46.629444 1.000000,44.258884 1.446365,41.448364 
	C4.561771,41.017448 7.230813,41.026489 9.899855,41.035530 
z"/>
<path fill="#000000" opacity="1.000000" stroke="none" 
	d="
M192.906342,58.431519 
	C192.923447,56.252010 193.011505,54.486732 193.123505,52.241375 
	C194.400620,52.164223 195.762054,52.081978 197.561737,51.999866 
	C198.000000,54.700012 198.000000,57.400028 198.000000,60.550018 
	C196.356262,60.210812 193.160599,63.039993 192.906342,58.431519 
z"/>
<path fill="#E1E7E6" opacity="1.000000" stroke="none" 
	d="
M13.945806,30.132259 
	C9.938974,30.092863 5.932143,30.053469 1.462656,30.007038 
	C1.000000,29.250000 1.000000,28.500000 1.000000,27.375000 
	C5.062803,26.754368 9.125607,26.508738 13.675561,26.365044 
	C14.090410,27.688742 14.018107,28.910501 13.945806,30.132259 
z"/>
<path fill="#000000" opacity="1.000000" stroke="none" 
	d="
M192.821442,30.967621 
	C194.278427,30.623480 195.735382,30.279339 197.596176,29.967598 
	C198.000000,32.370556 198.000000,34.741116 197.585571,37.557377 
	C195.794067,37.969540 194.416977,37.935997 193.021133,37.469086 
	C192.942078,35.013012 192.881760,32.990314 192.821442,30.967621 
z"/>
<path fill="#000000" opacity="1.000000" stroke="none" 
	d="
M198.000000,48.555832 
	C196.646149,48.997982 195.292313,48.995968 193.482452,48.533630 
	C193.057556,45.730919 193.088684,43.388527 193.523987,41.024223 
	C195.285446,41.001537 196.642731,41.000771 198.000000,41.000000 
	C198.000000,43.370556 198.000000,45.741116 198.000000,48.555832 
z"/>
<path fill="#ECEDEB" opacity="1.000000" stroke="none" 
	d="
M10.199770,40.914658 
	C7.230813,41.026489 4.561771,41.017448 1.446365,41.004204 
	C1.000000,40.250000 1.000000,39.500000 1.000000,38.375000 
	C4.702049,38.008018 8.404098,38.016037 12.560557,38.110748 
	C12.176540,39.062889 11.338113,39.928337 10.199770,40.914658 
z"/>
<path fill="#D9DFDB" opacity="1.000000" stroke="none" 
	d="
M198.000000,40.625000 
	C196.642731,41.000771 195.285446,41.001537 193.171646,41.011429 
	C191.945160,41.012115 191.475204,41.003685 191.044342,40.675385 
	C191.735580,39.537827 192.387741,38.720139 193.039886,37.902458 
	C194.416977,37.935997 195.794067,37.969540 197.585571,38.001541 
	C198.000000,38.750000 198.000000,39.500000 198.000000,40.625000 
z"/>
<path fill="#FCFDFC" opacity="1.000000" stroke="none" 
	d="
M197.260498,74.922821 
	C197.126678,74.560867 197.318436,74.339455 197.797638,74.095871 
	C198.000000,74.000000 198.000000,74.500000 198.000000,74.750000 
	C198.000000,75.000000 197.500961,74.989647 197.260498,74.922821 
z"/>
<path fill="#E1E7E6" opacity="1.000000" stroke="none" 
	d="
M71.001251,27.171139 
	C92.153893,27.114044 113.306541,27.030600 134.459137,27.044737 
	C136.362671,27.046009 138.265778,27.677769 140.706223,28.311817 
	C141.499420,29.012672 141.755493,29.418430 141.548080,29.903589 
	C117.911339,29.936165 94.738060,29.889341 71.416290,29.176279 
	C71.178947,28.063740 71.090096,27.617439 71.001251,27.171139 
z"/>
<path fill="#F1F3F2" opacity="1.000000" stroke="none" 
	d="
M189.003876,12.841879 
	C188.880890,14.245253 188.879425,15.264746 188.638046,16.223852 
	C188.199402,17.966719 188.051270,20.729677 187.000046,21.160881 
	C185.190323,21.903225 182.306427,21.932825 180.719360,20.926851 
	C177.091644,18.627422 179.245529,16.746347 181.533493,15.583566 
	C181.114227,13.364639 180.299271,11.233518 180.578644,9.257080 
	C180.667358,8.629444 183.995514,7.658709 185.258438,8.201378 
	C186.827454,8.875557 187.791763,10.957080 189.003876,12.841879 
z"/>
<path fill="#F3F6F3" opacity="1.000000" stroke="none" 
	d="
M26.108469,31.034454 
	C24.062990,28.918369 25.336605,27.862698 27.733858,27.011757 
	C37.414726,26.985743 46.742199,27.001083 56.533478,27.426020 
	C56.997044,28.502520 56.996811,29.169426 56.533981,29.914738 
	C47.792782,29.986132 39.513462,29.920141 31.236156,30.020479 
	C29.523083,30.041246 27.817503,30.680340 26.108469,31.034454 
z"/>
<path fill="#F1F3F2" opacity="1.000000" stroke="none" 
	d="
M142.011551,29.824192 
	C141.755493,29.418430 141.499420,29.012672 141.137939,28.391087 
	C144.560028,27.784050 148.079147,27.242031 151.617493,27.044415 
	C155.095078,26.850191 158.592224,27.005642 162.543823,27.087002 
	C162.655258,28.026873 162.392960,29.584023 161.938507,29.642279 
	C156.134247,30.386337 150.302460,30.915674 144.135559,30.892445 
	C143.199463,30.131622 142.605515,29.977907 142.011551,29.824192 
z"/>
<path fill="#ECEDEB" opacity="1.000000" stroke="none" 
	d="
M13.968683,30.552345 
	C14.018107,28.910501 14.090410,27.688742 14.052242,26.172094 
	C13.965493,24.833685 13.989215,23.790167 14.104658,22.366020 
	C15.300450,22.909592 16.404520,23.833790 17.840073,25.213943 
	C19.761566,26.067833 21.351576,26.465769 22.941586,26.863705 
	C20.249563,29.883827 17.557539,32.903950 14.520983,35.968697 
	C14.114820,34.333023 14.053190,32.652725 13.968683,30.552345 
z"/>
<path fill="#EDF3F1" opacity="1.000000" stroke="none" 
	d="
M75.362518,22.862936 
	C74.943024,23.765938 74.293114,24.783575 73.505005,24.905121 
	C71.769310,25.172812 69.963867,24.988245 68.010300,24.988245 
	C71.070335,18.335398 70.847908,16.031919 66.648010,12.588911 
	C67.771439,12.298998 68.604324,12.122026 69.413338,11.868793 
	C73.134575,10.703985 74.228584,11.813807 73.996780,15.632926 
	C73.858231,17.915535 74.679550,20.256405 75.362518,22.862936 
z"/>
<path fill="#ECEDEB" opacity="1.000000" stroke="none" 
	d="
M126.849602,18.065748 
	C124.247131,18.248131 122.084534,17.135073 123.207245,14.507794 
	C124.008781,12.632129 127.003006,10.032894 128.254410,10.395387 
	C130.179214,10.952942 131.680008,13.645393 132.839279,15.722993 
	C133.145493,16.271786 131.540009,17.887272 130.394348,18.754845 
	C129.351730,15.323380 128.026215,17.234684 126.849602,18.065748 
z"/>
<path fill="#E1E7E6" opacity="1.000000" stroke="none" 
	d="
M126.793755,18.421848 
	C128.026215,17.234684 129.351730,15.323380 130.007568,18.809223 
	C129.473083,19.885468 128.907394,20.649231 128.341721,21.412994 
	C128.469681,21.641232 128.597641,21.869469 128.725616,22.097706 
	C129.922028,21.444979 131.118439,20.792252 132.732208,19.911827 
	C132.829956,21.606787 132.916306,23.104242 133.014694,24.810509 
	C129.604584,24.810509 126.501213,24.810509 122.368660,24.810509 
	C124.073212,22.457060 125.405556,20.617506 126.793755,18.421848 
z"/>
<path fill="#EDF3F1" opacity="1.000000" stroke="none" 
	d="
M56.996574,29.836330 
	C56.996811,29.169426 56.997044,28.502520 56.996346,27.502165 
	C61.357388,27.121437 65.719368,27.074160 70.541298,27.099010 
	C71.090096,27.617439 71.178947,28.063740 71.036987,29.179127 
	C66.202972,29.844254 61.599773,29.840292 56.996574,29.836330 
z"/>
<path fill="#ECEDEB" opacity="1.000000" stroke="none" 
	d="
M16.032408,17.297930 
	C15.949846,17.966539 15.734312,18.944540 15.211985,19.941753 
	C15.236608,19.176418 15.568022,18.391870 16.032408,17.297930 
z"/>
<path fill="#FCFDFC" opacity="1.000000" stroke="none" 
	d="
M26.000763,63.000305 
	C26.000763,63.000305 26.497070,63.000481 26.747826,63.419598 
	C26.248381,66.303993 25.498184,68.769272 24.334885,72.592079 
	C24.655735,72.714935 26.330181,73.356094 28.004679,74.210800 
	C28.004732,74.424339 27.988260,74.851105 27.988260,74.851105 
	C26.195814,75.019287 24.239592,74.765381 25.261446,77.830475 
	C25.913296,79.785728 26.017738,82.009552 25.950487,84.099541 
	C25.831299,87.803680 24.889263,91.466789 20.841553,92.568306 
	C17.016985,93.609100 12.625336,94.014603 10.039546,90.276512 
	C8.728024,88.380539 8.138868,84.988525 8.933006,82.933662 
	C9.623137,81.147926 12.861135,79.129234 14.712212,79.354813 
	C16.535633,79.577034 18.534567,82.256676 19.484415,84.308167 
	C20.067221,85.566933 18.823032,87.671585 18.437040,89.242630 
	C23.709377,87.499107 24.390944,84.189133 20.886190,74.459015 
	C20.776577,72.890717 20.860775,71.879311 20.970831,70.560608 
	C20.966711,69.844551 20.936733,69.435814 21.241093,68.857773 
	C24.185688,67.675552 21.342838,62.420170 26.000763,63.000305 
z"/>
<path fill="#FCFDFC" opacity="1.000000" stroke="none" 
	d="
M79.839561,79.007492 
	C81.105133,81.190704 82.370697,83.373917 83.203476,84.810524 
	C80.514297,86.370705 77.552635,87.973656 74.710121,89.765617 
	C70.629250,92.338249 65.794609,91.168175 62.888130,87.091530 
	C62.219551,86.153770 60.527447,85.945747 58.523247,85.053108 
	C61.550381,83.280647 64.554390,81.879501 67.131615,79.917702 
	C70.034950,77.707649 72.899437,77.374107 76.879715,78.832191 
	C78.361000,78.989639 79.100281,78.998566 79.839561,79.007492 
z"/>
<path fill="#ECEDEB" opacity="1.000000" stroke="none" 
	d="
M28.451509,74.931915 
	C27.988260,74.851105 28.004732,74.424339 28.009323,73.855576 
	C28.030384,72.813339 28.046858,72.339867 28.525827,71.914124 
	C44.661171,72.028435 60.334015,72.095016 76.004593,72.496277 
	C76.003731,73.500359 76.005135,74.169746 76.006546,74.839134 
	C60.309284,74.896996 44.612022,74.954865 28.451509,74.931915 
z"/>
<path fill="#FCFDFC" opacity="1.000000" stroke="none" 
	d="
M122.913643,69.965416 
	C124.050537,69.773354 125.215530,69.681465 126.319420,69.371758 
	C130.928558,68.078644 134.176407,69.053345 135.002884,74.742172 
	C133.094482,76.733757 131.324844,78.683952 129.140930,79.873604 
	C124.425667,82.442177 121.112587,80.934830 119.272919,75.176689 
	C119.849236,73.666626 120.403214,72.776711 121.049606,71.616264 
	C121.732559,70.885620 122.323097,70.425522 122.913643,69.965416 
z"/>
<path fill="#F3F6F3" opacity="1.000000" stroke="none" 
	d="
M76.349731,75.007828 
	C76.005135,74.169746 76.003731,73.500359 76.377426,72.292763 
	C76.517723,68.876854 76.282913,65.999161 75.971649,62.638878 
	C75.824547,61.838310 75.753899,61.520325 75.964066,61.100071 
	C76.558327,60.334282 76.871780,59.670769 77.516327,59.006744 
	C78.509621,59.005859 79.171814,59.005486 79.922890,59.438408 
	C81.601448,60.248287 83.185692,60.920525 84.781754,60.949898 
	C91.435936,61.072365 98.093674,61.001442 104.750107,61.001442 
	C104.820465,61.967442 104.890823,62.933445 104.961182,63.899445 
	C96.729225,64.201942 88.429024,63.884495 80.058685,64.077705 
	C80.058685,66.948196 80.058685,69.402931 80.043243,72.268311 
	C80.037720,73.500587 80.047630,74.322212 80.057541,75.143837 
	C80.040672,76.178642 80.023811,77.213448 79.923256,78.627869 
	C79.100281,78.998566 78.361000,78.989639 77.252266,78.967171 
	C76.819519,77.694595 76.756226,76.435562 76.349731,75.007828 
z"/>
<path fill="#ECEDEB" opacity="1.000000" stroke="none" 
	d="
M80.519760,75.089645 
	C80.047630,74.322212 80.037720,73.500587 80.505127,72.324898 
	C94.307358,71.942825 107.632278,71.914818 120.957191,71.886803 
	C120.403214,72.776711 119.849236,73.666626 119.117325,74.838318 
	C106.286919,75.091881 93.634453,75.063667 80.519760,75.089645 
z"/>
<path fill="#F1F3F2" opacity="1.000000" stroke="none" 
	d="
M20.944973,70.867912 
	C20.860775,71.879311 20.776577,72.890717 20.504383,74.375320 
	C15.321957,74.848534 10.327525,74.848534 5.333095,74.848534 
	C5.249091,74.306870 5.165087,73.765198 5.081084,73.223534 
	C6.276920,72.661102 7.472755,72.098671 8.587673,71.574295 
	C7.870603,71.014450 7.020053,70.350395 6.031873,69.364708 
	C7.341968,68.688393 8.789693,68.333702 10.816693,67.968124 
	C11.738458,68.306137 12.080947,68.655045 12.738170,69.270187 
	C15.683593,69.980247 18.314283,70.424080 20.944973,70.867912 
z"/>
<path fill="#000000" opacity="1.000000" stroke="none" 
	d="
M56.533981,29.914738 
	C61.599773,29.840292 66.202972,29.844254 71.185486,29.845367 
	C94.738060,29.889341 117.911339,29.936165 141.548080,29.903591 
	C142.605515,29.977907 143.199463,30.131622 143.873047,30.585869 
	C143.041321,30.929842 142.130005,30.973288 140.586273,31.014160 
	C138.624481,31.308437 137.295090,31.605288 135.965698,31.902142 
	C124.220161,33.263325 112.480888,34.681812 100.726791,35.964603 
	C93.462250,36.757420 86.175179,37.343716 77.990372,38.014935 
	C65.391556,38.059620 53.700581,38.112091 41.547539,38.082943 
	C35.433216,37.983971 29.780960,37.966618 24.128704,37.949261 
	C24.751253,35.895557 25.373802,33.841850 26.052410,31.411301 
	C27.817503,30.680340 29.523083,30.041246 31.236156,30.020479 
	C39.513462,29.920141 47.792782,29.986132 56.533981,29.914738 
z"/>
<path fill="#000000" opacity="1.000000" stroke="none" 
	d="
M76.939896,41.126373 
	C76.970894,42.804214 77.001892,44.482056 77.006294,46.988052 
	C74.648384,48.260284 72.317062,48.704357 69.744461,49.081779 
	C69.342018,49.058487 69.180870,49.101845 68.685715,49.068176 
	C67.900322,49.041344 67.448921,49.091541 66.533928,49.069725 
	C50.741619,48.997711 35.412903,48.997711 20.138058,48.997711 
	C20.011047,46.957050 19.918774,45.474480 19.826500,43.991905 
	C20.642305,42.988346 21.458111,41.984783 23.090607,40.994110 
	C29.941229,40.953110 35.975163,40.899216 42.472538,40.915432 
	C54.270618,41.032486 65.605255,41.079430 76.939896,41.126373 
z"/>
<path fill="#000000" opacity="1.000000" stroke="none" 
	d="
M77.185226,59.007256 
	C76.871780,59.670769 76.558327,60.334282 75.939713,61.135780 
	C75.634560,61.273762 75.577637,61.210949 75.188644,61.116692 
	C73.197525,61.070297 71.595390,61.118156 69.993263,61.166016 
	C60.591221,61.110718 51.172295,60.694099 41.793308,61.132278 
	C35.935173,61.405964 31.403111,60.718021 29.397717,53.663322 
	C30.452095,52.715302 31.878286,52.044678 33.312393,52.027290 
	C44.539734,51.891190 55.768589,51.880394 67.450928,51.909035 
	C70.924034,51.987129 73.943199,51.987129 77.185226,51.987129 
	C77.185226,54.780968 77.185226,56.894112 77.185226,59.007256 
z"/>
<path fill="#000000" opacity="1.000000" stroke="none" 
	d="
M76.048111,63.121464 
	C76.282913,65.999161 76.517723,68.876854 76.379700,71.958069 
	C60.334015,72.095016 44.661171,72.028435 28.568443,71.644669 
	C28.857876,70.525665 29.567190,69.723839 30.276505,68.922012 
	C31.830076,64.682755 34.132088,63.262539 39.249329,63.735435 
	C49.112373,64.646912 59.119740,63.996758 69.943375,64.001335 
	C72.214729,63.955753 73.609970,63.902966 75.259041,63.904411 
	C75.691292,63.679588 75.869698,63.400528 76.048111,63.121464 
z"/>
<path fill="#EDF3F1" opacity="1.000000" stroke="none" 
	d="
M66.996979,51.830940 
	C55.768589,51.880394 44.539734,51.891190 33.312393,52.027290 
	C31.878286,52.044678 30.452095,52.715302 29.061798,53.521179 
	C26.752140,52.972965 24.459747,51.379738 22.039436,51.153210 
	C18.958048,50.864803 15.773124,51.682594 12.546818,52.032845 
	C14.660588,49.505749 16.907713,46.819225 19.490669,44.062302 
	C19.918774,45.474480 20.011047,46.957050 20.138058,48.997711 
	C35.412903,48.997711 50.741619,48.997711 66.535797,49.405872 
	C66.999832,50.486336 66.998405,51.158638 66.996979,51.830940 
z"/>
<path fill="#F7F8F8" opacity="1.000000" stroke="none" 
	d="
M12.423437,69.003952 
	C12.080947,68.655045 11.738458,68.306137 11.173140,67.846626 
	C10.950311,67.736023 10.954063,67.653107 11.374910,67.293083 
	C11.490463,65.971062 11.185171,65.009071 10.879877,64.047073 
	C12.606632,63.150780 14.252429,61.976807 16.084749,61.442589 
	C17.662968,60.982456 20.711306,60.727749 20.943188,61.284512 
	C22.285027,64.506348 25.445072,57.288502 25.995047,62.655132 
	C21.342838,62.420170 24.185688,67.675552 20.886383,68.681435 
	C20.078665,67.228088 19.959990,65.781776 19.837345,64.287086 
	C18.514051,64.006844 17.317774,63.753494 14.674236,63.193642 
	C16.917372,65.149475 18.004431,66.097305 20.194407,68.006783 
	C16.795691,68.442909 14.609564,68.723427 12.423437,69.003952 
z"/>
<path fill="#E1E7E6" opacity="1.000000" stroke="none" 
	d="
M42.009098,40.845322 
	C35.975163,40.899216 29.941229,40.953110 23.444241,40.924133 
	C23.182261,40.001740 23.383337,39.162216 23.856560,38.135979 
	C29.780960,37.966618 35.433216,37.983971 41.544235,38.418034 
	C42.005032,39.504936 42.007065,40.175133 42.009098,40.845322 
z"/>
<path fill="#F7F8F8" opacity="1.000000" stroke="none" 
	d="
M30.160252,68.535339 
	C29.567190,69.723839 28.857876,70.525665 28.105946,71.596947 
	C28.046858,72.339867 28.030384,72.813339 28.009270,73.642029 
	C26.330181,73.356094 24.655735,72.714935 24.334885,72.592079 
	C25.498184,68.769272 26.248381,66.303993 26.995979,63.419632 
	C27.160786,62.999599 27.328194,62.998646 27.747799,62.998848 
	C28.000000,63.000000 28.002748,63.002125 28.002750,63.002125 
	C28.683167,64.717636 29.363583,66.433144 30.160252,68.535339 
z"/>
<path fill="#000000" opacity="1.000000" stroke="none" 
	d="
M22.972622,26.433716 
	C21.351576,26.465769 19.761566,26.067833 18.134743,25.352982 
	C19.226099,22.938866 20.354267,20.841669 21.482437,18.744471 
	C21.989510,18.836830 22.496584,18.929190 23.003658,19.021549 
	C23.003658,21.348942 23.003658,23.676334 22.972622,26.433716 
z"/>
<path fill="#F3F6F3" opacity="1.000000" stroke="none" 
	d="
M75.005203,63.850178 
	C73.609970,63.902966 72.214729,63.955753 70.406830,63.929848 
	C69.995399,63.179871 69.996628,62.508583 69.995560,61.501656 
	C71.595390,61.118156 73.197525,61.070297 74.996536,61.533276 
	C75.130684,62.646133 75.067940,63.248158 75.005203,63.850178 
z"/>
<path fill="#000000" opacity="1.000000" stroke="none" 
	d="
M10.517853,64.031158 
	C11.185171,65.009071 11.490463,65.971062 11.392907,67.255676 
	C10.711981,66.390610 10.433904,65.202927 10.517853,64.031158 
z"/>
<path fill="#F7F8F8" opacity="1.000000" stroke="none" 
	d="
M27.998913,62.998611 
	C28.090708,62.962463 28.183586,62.927704 28.139606,62.947536 
	C28.002748,63.002125 28.000000,63.000000 27.998913,62.998611 
z"/>
<path fill="#F7F8F8" opacity="1.000000" stroke="none" 
	d="
M20.531990,58.549103 
	C20.477505,58.581425 20.586477,58.516785 20.531990,58.549103 
z"/>
<path fill="#000000" opacity="1.000000" stroke="none" 
	d="
M79.840050,46.988621 
	C84.116394,45.993275 88.347832,44.678684 92.678497,44.069599 
	C101.466743,42.833591 110.308662,41.979240 120.012833,40.987816 
	C123.990654,41.004475 127.102226,41.205589 130.171936,40.933907 
	C132.724197,40.708023 133.239609,41.929092 133.109589,44.425621 
	C132.932327,46.227200 132.835770,47.590485 132.723892,49.170105 
	C129.844498,49.170105 127.420258,49.170105 124.533379,49.094398 
	C118.044746,49.069599 112.018761,49.120506 105.529663,49.098240 
	C96.727776,48.981266 88.389008,48.937469 80.022202,48.574131 
	C79.942802,47.832603 79.891426,47.410610 79.840050,46.988621 
z"/>
<path fill="#000000" opacity="1.000000" stroke="none" 
	d="
M147.092911,37.964722 
	C153.031662,36.974739 158.954880,35.876472 164.913040,35.021786 
	C172.607986,33.917957 180.330841,33.008835 188.508789,32.484039 
	C188.975906,34.536373 188.975906,36.120537 188.975906,38.172028 
	C178.361877,38.172028 168.168488,38.172028 157.526016,38.097305 
	C153.748932,38.003296 150.420914,37.984009 147.092911,37.964722 
z"/>
<path fill="#D4DBD7" opacity="1.000000" stroke="none" 
	d="
M157.975098,38.172028 
	C168.168488,38.172028 178.361877,38.172028 188.975906,38.172028 
	C188.975906,36.120537 188.975906,34.536373 188.926392,32.508759 
	C189.960587,31.705322 191.044296,31.345329 192.474716,30.976477 
	C192.881760,32.990314 192.942078,35.013012 193.021133,37.469082 
	C192.387741,38.720139 191.735580,39.537827 190.704407,40.677338 
	C189.872284,41.003395 189.419189,41.007626 188.499756,40.998947 
	C178.352341,40.931961 168.671280,40.877884 158.837799,40.628372 
	C158.448624,39.679295 158.211853,38.925663 157.975098,38.172028 
z"/>
<path fill="#E0E4E3" opacity="1.000000" stroke="none" 
	d="
M157.526001,38.097305 
	C158.211853,38.925663 158.448624,39.679295 158.374969,40.702576 
	C151.667892,40.975277 145.266479,41.122425 138.876999,40.910042 
	C136.342850,40.825806 135.759048,41.886105 135.506104,43.993126 
	C134.513626,43.993301 133.851959,43.990314 133.190308,43.987328 
	C133.239609,41.929092 132.724197,40.708023 130.171936,40.933907 
	C127.102226,41.205589 123.990654,41.004475 120.438797,40.921387 
	C123.723694,39.900913 127.423103,38.513222 131.221191,38.145966 
	C136.185532,37.665939 141.227936,37.993076 146.664825,37.968842 
	C150.420914,37.984009 153.748932,38.003296 157.526001,38.097305 
z"/>
<path fill="#EDF3F1" opacity="1.000000" stroke="none" 
	d="
M42.472538,40.915436 
	C42.007065,40.175133 42.005032,39.504936 42.006302,38.499653 
	C53.700581,38.112091 65.391556,38.059620 77.545547,38.088356 
	C77.732269,38.958900 77.455978,39.748230 77.059784,40.831966 
	C65.605255,41.079430 54.270618,41.032486 42.472538,40.915436 
z"/>
<path fill="#ECEDEB" opacity="1.000000" stroke="none" 
	d="
M79.506592,46.991882 
	C79.891426,47.410610 79.942802,47.832603 79.903778,48.862892 
	C79.909592,50.327305 80.005814,51.183422 80.049149,52.472610 
	C79.942184,54.938828 79.888100,56.971970 79.834007,59.005112 
	C79.171814,59.005486 78.509621,59.005859 77.516327,59.006744 
	C77.185226,56.894112 77.185226,54.780968 77.185226,51.987129 
	C73.943199,51.987129 70.924034,51.987129 67.450928,51.909035 
	C66.998405,51.158638 66.999832,50.486336 66.999390,49.477886 
	C67.448921,49.091541 67.900322,49.041344 68.775467,49.214638 
	C69.461388,49.341560 69.723572,49.244999 69.985748,49.148434 
	C72.317062,48.704357 74.648384,48.260284 77.076004,47.402042 
	C77.839256,46.990295 78.506195,46.992718 79.506592,46.991882 
z"/>
<path fill="#F1F3F2" opacity="1.000000" stroke="none" 
	d="
M136.215454,32.198971 
	C137.295090,31.605288 138.624481,31.308437 140.251297,31.087017 
	C139.187546,31.606897 137.826385,32.051350 136.215454,32.198971 
z"/>
<path fill="#000000" opacity="1.000000" stroke="none" 
	d="
M79.922890,59.438408 
	C79.888100,56.971970 79.942184,54.938828 80.510910,52.452187 
	C89.347961,51.941658 97.670372,51.884628 106.455566,51.907143 
	C112.944206,51.934765 118.970078,51.882835 125.442070,51.907394 
	C128.241425,51.983879 130.594650,51.983879 132.861450,51.983879 
	C132.990524,54.462711 133.083130,56.241268 133.175735,58.019829 
	C133.294128,60.226849 132.571991,61.231792 130.049072,61.083355 
	C125.791168,60.832829 121.507828,61.014633 117.124352,61.909603 
	C121.778053,65.694489 127.551353,62.948284 134.235382,64.739754 
	C132.337372,65.866386 131.443405,66.595810 130.419540,66.964790 
	C128.044342,67.820747 125.606392,68.502563 123.053757,69.610199 
	C122.323097,70.425522 121.732559,70.885620 121.049606,71.616264 
	C107.632278,71.914818 94.307358,71.942825 80.520569,71.914246 
	C80.058685,69.402931 80.058685,66.948196 80.058685,64.077705 
	C88.429024,63.884495 96.729225,64.201942 104.961182,63.899445 
	C104.890823,62.933445 104.820465,61.967442 104.750107,61.001442 
	C98.093674,61.001442 91.435936,61.072365 84.781754,60.949898 
	C83.185692,60.920525 81.601448,60.248287 79.922890,59.438408 
z"/>
<path fill="#000000" opacity="1.000000" stroke="none" 
	d="
M188.889923,52.046314 
	C188.889923,53.179459 188.889923,54.312603 188.889923,55.489143 
	C187.761139,55.312519 186.743851,55.153339 185.080994,55.032349 
	C184.245148,55.367214 184.054871,55.663887 183.864609,55.960556 
	C183.292725,56.076031 182.720825,56.191505 182.059616,56.592720 
	C180.222672,58.263142 178.475052,59.647823 176.370300,61.110878 
	C163.941772,61.130440 151.869263,61.134682 139.800613,60.920979 
	C138.511246,60.898148 137.244431,59.603188 135.985718,58.016090 
	C136.004303,55.537437 136.004303,53.941063 136.004303,51.836632 
	C148.284622,51.836632 160.144287,51.836632 172.465973,51.910301 
	C178.248627,52.004753 183.569275,52.025532 188.889923,52.046314 
z"/>
<path fill="#D4D9D6" opacity="1.000000" stroke="none" 
	d="
M172.003952,51.836632 
	C160.144287,51.836632 148.284622,51.836632 136.004303,51.836632 
	C136.004303,53.941063 136.004303,55.537437 135.918152,57.576340 
	C135.167953,58.016388 134.503876,58.013916 133.507782,58.015636 
	C133.083130,56.241268 132.990524,54.462711 132.861450,51.983879 
	C130.594650,51.983879 128.241425,51.983879 125.442993,51.574795 
	C124.997200,50.500507 124.996605,49.835308 124.996017,49.170105 
	C127.420258,49.170105 129.844498,49.170105 132.723892,49.170105 
	C132.835770,47.590485 132.932327,46.227200 133.109589,44.425621 
	C133.851959,43.990314 134.513626,43.993301 135.584961,44.436142 
	C135.994644,46.142273 135.994644,47.408546 135.994644,49.165859 
	C148.266266,49.165859 160.135223,49.165859 172.002808,49.499706 
	C172.002274,50.501247 172.003113,51.168938 172.003952,51.836632 
z"/>
<path fill="#D9DFDB" opacity="1.000000" stroke="none" 
	d="
M172.465973,51.910301 
	C172.003113,51.168938 172.002274,50.501247 172.464935,49.425995 
	C178.354477,48.681137 183.780533,48.343842 189.524536,48.009338 
	C190.561523,48.340115 191.280533,48.668102 191.999557,48.996082 
	C191.156784,49.925980 190.314011,50.855881 189.180573,51.916046 
	C183.569275,52.025532 178.248627,52.004753 172.465973,51.910301 
z"/>
<path fill="#D4D9D6" opacity="1.000000" stroke="none" 
	d="
M192.281830,48.988541 
	C191.280533,48.668102 190.561523,48.340115 189.426636,47.581188 
	C188.995880,45.104115 188.980988,43.057987 188.966095,41.011856 
	C189.419189,41.007626 189.872284,41.003395 190.665314,40.997208 
	C191.475204,41.003685 191.945160,41.012115 192.767456,41.033340 
	C193.088684,43.388527 193.057556,45.730919 193.077087,48.509506 
	C192.939865,48.957466 192.751999,48.969231 192.281830,48.988541 
z"/>
<path fill="#FBFCFC" opacity="1.000000" stroke="none" 
	d="
M184.089020,55.880379 
	C184.054871,55.663887 184.245148,55.367214 184.704453,55.109230 
	C184.852478,55.465534 184.632446,55.682964 184.089020,55.880379 
z"/>
<path fill="#000000" opacity="1.000000" stroke="none" 
	d="
M12.738171,69.270187 
	C14.609564,68.723427 16.795691,68.442909 20.194407,68.006783 
	C18.004431,66.097305 16.917372,65.149475 14.674236,63.193642 
	C17.317774,63.753494 18.514051,64.006844 19.837345,64.287086 
	C19.959990,65.781776 20.078665,67.228088 20.552048,68.850731 
	C20.936733,69.435814 20.966711,69.844551 20.970831,70.560608 
	C18.314283,70.424080 15.683593,69.980247 12.738171,69.270187 
z"/>
<path fill="#FBFCFC" opacity="1.000000" stroke="none" 
	d="
M75.259041,63.904411 
	C75.067940,63.248158 75.130684,62.646133 75.385529,61.627533 
	C75.577637,61.210949 75.634560,61.273762 75.658905,61.238052 
	C75.753899,61.520325 75.824547,61.838310 75.971649,62.638878 
	C75.869698,63.400528 75.691292,63.679588 75.259041,63.904411 
z"/>
<path fill="#EDF3F1" opacity="1.000000" stroke="none" 
	d="
M69.744461,49.081779 
	C69.723572,49.244999 69.461388,49.341560 69.109467,49.291664 
	C69.180870,49.101845 69.342018,49.058487 69.744461,49.081779 
z"/>
<path fill="#E0E4E3" opacity="1.000000" stroke="none" 
	d="
M105.992783,51.827599 
	C97.670372,51.884628 89.347961,51.941658 80.563782,52.019112 
	C80.005814,51.183422 79.909592,50.327305 79.931808,49.182426 
	C88.389008,48.937469 96.727776,48.981266 105.530975,49.430260 
	C105.994522,50.499500 105.993652,51.163551 105.992783,51.827599 
z"/>
<path fill="#D9DFDB" opacity="1.000000" stroke="none" 
	d="
M106.455566,51.907143 
	C105.993652,51.163551 105.994522,50.499500 105.994080,49.503433 
	C112.018761,49.120506 118.044746,49.069599 124.533379,49.094398 
	C124.996605,49.835308 124.997200,50.500507 124.996864,51.498306 
	C118.970078,51.882835 112.944206,51.934765 106.455566,51.907143 
z"/>
<path fill="#000000" opacity="1.000000" stroke="none" 
	d="
M188.499756,40.998947 
	C188.980988,43.057987 188.995880,45.104115 189.108673,47.578396 
	C183.780533,48.343842 178.354477,48.681137 172.466309,49.092148 
	C160.135223,49.165859 148.266266,49.165859 135.994644,49.165859 
	C135.994644,47.408546 135.994644,46.142273 135.915787,44.432983 
	C135.759048,41.886105 136.342850,40.825806 138.876999,40.910042 
	C145.266479,41.122425 151.667892,40.975277 158.527374,40.898014 
	C168.671280,40.877884 178.352341,40.931961 188.499756,40.998947 
z"/>
</svg>