<svg version="1.1" id="Layer_1" xmlns="http://www.w3.org/2000/svg" xmlns:xlink="http://www.w3.org/1999/xlink" x="0px" y="0px"
	 width="100%" viewBox="0 0 366 682" enable-background="new 0 0 366 682" xml:space="preserve">
<path fill="#000000" opacity="1.000000" stroke="none" 
	d="
M1.000005,622.000000 
	C1.000000,415.067749 1.000000,208.135468 1.000000,1.101605 
	C122.892265,1.101605 244.784653,1.101605 367.000000,1.101605 
	C367.000000,107.357193 367.000000,213.714722 366.675049,320.935608 
	C365.648834,319.963593 364.605225,318.183838 364.296814,316.284668 
	C357.873566,276.731750 338.760223,243.373367 313.705963,212.995926 
	C300.063843,196.455322 285.254852,180.826248 272.334198,163.755157 
	C258.475800,145.445068 245.783997,126.201096 233.410507,106.835983 
	C225.241653,94.051353 218.075394,80.562508 211.283539,66.977341 
	C202.365982,49.140278 194.271210,30.892237 185.790115,12.836200 
	C184.364380,9.800851 182.774445,6.842637 181.260376,3.848781 
	C180.864655,3.935594 180.468918,4.022407 180.073196,4.109220 
	C180.073196,177.990707 180.073196,351.872192 180.073196,526.205811 
	C176.273819,524.702148 173.337708,522.958679 170.190125,522.394104 
	C155.860245,519.823425 141.505859,516.291321 126.848434,518.036011 
	C115.404190,519.398193 103.736145,520.855042 92.836121,524.353088 
	C76.367706,529.638184 61.979572,539.191040 48.700745,550.360657 
	C35.091240,561.808411 23.534363,575.093323 15.002505,590.556946 
	C9.805601,599.976135 6.823086,610.614197 2.768988,620.673767 
	C2.533311,621.258484 1.605639,621.564392 1.000005,622.000000 
z"/>
<path fill="#010101" opacity="1.000000" stroke="none" 
	d="
M367.000000,372.000000 
	C367.000000,475.588959 367.000000,579.177917 367.000000,683.000000 
	C276.312561,683.000000 185.624939,683.000000 94.163788,682.651855 
	C94.235321,681.917053 95.047485,681.416992 95.930412,681.160767 
	C108.057510,677.642273 120.903305,675.654907 132.167130,670.322632 
	C150.291534,661.742676 165.777710,649.327698 177.318649,632.219177 
	C185.056702,620.748169 191.984482,609.093079 194.780502,595.497803 
	C197.317429,583.162170 200.913147,570.680664 200.958405,558.252258 
	C201.424316,430.282593 201.262253,302.310608 201.285599,174.339249 
	C201.285843,172.926758 201.424408,171.514297 201.543274,169.245422 
	C213.828278,175.259293 225.646729,180.598511 237.045563,186.719254 
	C259.635681,198.849289 280.660919,213.204605 298.689941,231.674286 
	C309.948792,243.208328 319.397552,256.066467 326.934448,270.238007 
	C340.812439,296.332672 345.571045,324.422760 345.139679,353.778320 
	C344.816498,375.773407 340.852356,397.283142 335.066315,418.140442 
	C328.632324,441.333649 319.202606,463.710083 310.758514,486.323151 
	C308.045563,493.588318 304.321381,500.475861 301.059814,507.536163 
	C302.727783,507.483521 303.830841,506.836823 304.526703,505.890656 
	C309.129242,499.632812 313.523224,493.218964 318.211578,487.027344 
	C330.223145,471.164185 339.105530,453.490265 347.481445,435.610657 
	C356.659302,416.019348 361.929596,395.168335 365.212952,373.807526 
	C365.317169,373.129486 366.382660,372.599182 367.000000,372.000000 
z"/>
<path fill="#FEFEFE" opacity="1.000000" stroke="none" 
	d="
M367.000000,371.531342 
	C366.382660,372.599182 365.317169,373.129486 365.212952,373.807526 
	C361.929596,395.168335 356.659302,416.019348 347.481445,435.610657 
	C339.105530,453.490265 330.223145,471.164185 318.211578,487.027344 
	C313.523224,493.218964 309.129242,499.632812 304.526703,505.890656 
	C303.830841,506.836823 302.727783,507.483521 301.059814,507.536163 
	C304.321381,500.475861 308.045563,493.588318 310.758514,486.323151 
	C319.202606,463.710083 328.632324,441.333649 335.066315,418.140442 
	C340.852356,397.283142 344.816498,375.773407 345.139679,353.778320 
	C345.571045,324.422760 340.812439,296.332672 326.934448,270.238007 
	C319.397552,256.066467 309.948792,243.208328 298.689941,231.674286 
	C280.660919,213.204605 259.635681,198.849289 237.045563,186.719254 
	C225.646729,180.598511 213.828278,175.259293 201.543274,169.245422 
	C201.424408,171.514297 201.285843,172.926758 201.285599,174.339249 
	C201.262253,302.310608 201.424316,430.282593 200.958405,558.252258 
	C200.913147,570.680664 197.317429,583.162170 194.780502,595.497803 
	C191.984482,609.093079 185.056702,620.748169 177.318649,632.219177 
	C165.777710,649.327698 150.291534,661.742676 132.167130,670.322632 
	C120.903305,675.654907 108.057510,677.642273 95.930412,681.160767 
	C95.047485,681.416992 94.235321,681.917053 93.695129,682.651855 
	C80.645775,683.000000 67.291542,683.000000 53.687233,682.633545 
	C45.271500,679.749207 37.037975,677.429871 28.955837,674.667664 
	C16.210949,670.311707 7.210100,661.969177 2.771418,649.018616 
	C2.605206,648.533691 1.609270,648.333130 0.999995,648.000000 
	C1.000000,639.645752 1.000000,631.291504 1.000005,622.468628 
	C1.605639,621.564392 2.533311,621.258484 2.768988,620.673767 
	C6.823086,610.614197 9.805601,599.976135 15.002505,590.556946 
	C23.534363,575.093323 35.091240,561.808411 48.700745,550.360657 
	C61.979572,539.191040 76.367706,529.638184 92.836121,524.353088 
	C103.736145,520.855042 115.404190,519.398193 126.848434,518.036011 
	C141.505859,516.291321 155.860245,519.823425 170.190125,522.394104 
	C173.337708,522.958679 176.273819,524.702148 180.073196,526.205811 
	C180.073196,351.872192 180.073196,177.990707 180.073196,4.109220 
	C180.468918,4.022407 180.864655,3.935594 181.260376,3.848781 
	C182.774445,6.842637 184.364380,9.800851 185.790115,12.836200 
	C194.271210,30.892237 202.365982,49.140278 211.283539,66.977341 
	C218.075394,80.562508 225.241653,94.051353 233.410507,106.835983 
	C245.783997,126.201096 258.475800,145.445068 272.334198,163.755157 
	C285.254852,180.826248 300.063843,196.455322 313.705963,212.995926 
	C338.760223,243.373367 357.873566,276.731750 364.296814,316.284668 
	C364.605225,318.183838 365.648834,319.963593 366.675049,321.399475 
	C367.000000,337.687561 367.000000,354.375122 367.000000,371.531342 
z"/>
<path fill="#030303" opacity="1.000000" stroke="none" 
	d="
M0.999995,648.468628 
	C1.609270,648.333130 2.605206,648.533691 2.771418,649.018616 
	C7.210100,661.969177 16.210949,670.311707 28.955837,674.667664 
	C37.037975,677.429871 45.271500,679.749207 53.218575,682.633545 
	C35.754299,683.000000 18.508596,683.000000 1.000000,683.000000 
	C1.000000,671.647095 1.000000,660.292236 0.999995,648.468628 
z"/>
</svg>