<svg version="1.1" id="Layer_1" xmlns="http://www.w3.org/2000/svg" xmlns:xlink="http://www.w3.org/1999/xlink" x="0px" y="0px"
	 width="100%" viewBox="0 0 310 500" enable-background="new 0 0 310 500" xml:space="preserve">
<path fill="#000000" opacity="1.000000" stroke="none" 
	d="
M129.000000,501.000000 
	C86.013115,501.000000 43.526230,501.000000 1.019672,501.000000 
	C1.019672,334.397888 1.019672,167.795761 1.019672,1.096815 
	C104.236824,1.096815 207.473770,1.096815 310.855347,1.096815 
	C310.855347,167.666565 310.855347,334.333282 310.855347,501.000000 
	C250.462479,501.000000 189.981247,501.000000 129.000000,501.000000 
M157.523300,423.008026 
	C165.243622,413.409180 168.473190,402.505524 168.424133,390.147980 
	C168.215714,337.662201 168.339386,285.175049 168.355545,232.688416 
	C168.356018,231.144623 168.509689,229.600876 168.626007,227.417374 
	C173.468384,230.485123 177.660980,233.114685 181.827255,235.785278 
	C199.198914,246.920563 216.845169,257.664734 231.963425,271.939026 
	C246.984055,286.121155 256.462036,302.939972 256.686035,324.060059 
	C256.847229,339.258759 252.973358,353.684753 247.451920,367.711365 
	C245.288757,373.206665 242.923965,378.622589 240.626633,384.133087 
	C245.813522,385.292542 245.881317,385.333679 248.158310,381.580566 
	C259.223450,363.342072 263.966370,343.271698 264.787476,322.205261 
	C265.262695,310.012451 264.817566,297.740448 258.836639,286.684052 
	C256.838196,282.989716 256.579956,279.856934 257.415192,275.944885 
	C260.766510,260.248291 260.677643,244.573593 256.643280,228.940063 
	C255.977844,226.361435 255.906631,223.367447 256.482422,220.769684 
	C265.567688,179.780594 256.371582,143.822632 226.763855,113.712479 
	C215.912598,102.677063 204.421677,92.256073 192.987305,81.812347 
	C179.456711,69.454010 170.337753,54.824341 169.101761,36.204735 
	C168.770874,31.220299 166.228165,31.257580 162.616470,31.262653 
	C157.903717,31.269272 159.390366,34.652737 159.389328,36.937710 
	C159.340240,145.244186 159.353271,253.550705 159.359207,361.857208 
	C159.359314,363.803192 159.359207,365.749176 159.359207,367.582489 
	C154.475708,365.650299 150.043076,363.391083 145.342514,362.133118 
	C132.202133,358.616608 119.296341,360.302216 106.751648,365.082001 
	C87.861046,372.279694 71.858398,383.187988 62.927197,402.019714 
	C50.874901,427.432312 65.066940,450.996368 93.115059,451.822693 
	C118.726578,452.577240 140.079346,442.783234 157.523300,423.008026 
z"/>
<path fill="#FAFAFA" opacity="1.000000" stroke="none" 
	d="
M157.286804,423.274719 
	C140.079346,442.783234 118.726578,452.577240 93.115059,451.822693 
	C65.066940,450.996368 50.874901,427.432312 62.927197,402.019714 
	C71.858398,383.187988 87.861046,372.279694 106.751648,365.082001 
	C119.296341,360.302216 132.202133,358.616608 145.342514,362.133118 
	C150.043076,363.391083 154.475708,365.650299 159.359207,367.582489 
	C159.359207,365.749176 159.359314,363.803192 159.359207,361.857208 
	C159.353271,253.550705 159.340240,145.244186 159.389328,36.937710 
	C159.390366,34.652737 157.903717,31.269272 162.616470,31.262653 
	C166.228165,31.257580 168.770874,31.220299 169.101761,36.204735 
	C170.337753,54.824341 179.456711,69.454010 192.987305,81.812347 
	C204.421677,92.256073 215.912598,102.677063 226.763855,113.712479 
	C256.371582,143.822632 265.567688,179.780594 256.482422,220.769684 
	C255.906631,223.367447 255.977844,226.361435 256.643280,228.940063 
	C260.677643,244.573593 260.766510,260.248291 257.415192,275.944885 
	C256.579956,279.856934 256.838196,282.989716 258.836639,286.684052 
	C264.817566,297.740448 265.262695,310.012451 264.787476,322.205261 
	C263.966370,343.271698 259.223450,363.342072 248.158310,381.580566 
	C245.881317,385.333679 245.813522,385.292542 240.626633,384.133087 
	C242.923965,378.622589 245.288757,373.206665 247.451920,367.711365 
	C252.973358,353.684753 256.847229,339.258759 256.686035,324.060059 
	C256.462036,302.939972 246.984055,286.121155 231.963425,271.939026 
	C216.845169,257.664734 199.198914,246.920563 181.827255,235.785278 
	C177.660980,233.114685 173.468384,230.485123 168.626007,227.417374 
	C168.509689,229.600876 168.356018,231.144623 168.355545,232.688416 
	C168.339386,285.175049 168.215714,337.662201 168.424133,390.147980 
	C168.473190,402.505524 165.243622,413.409180 157.286804,423.274719 
M194.512238,177.970520 
	C186.314087,172.854370 178.115936,167.738205 169.316696,162.246933 
	C170.168137,182.181488 179.434967,197.005402 191.745255,210.027924 
	C201.787476,220.651077 212.927643,230.227921 223.205383,240.639481 
	C231.591797,249.135086 239.424866,258.177063 247.496765,266.982758 
	C248.177719,267.725586 248.809097,268.513885 249.783585,269.656311 
	C251.319412,249.796204 246.059509,232.525574 235.272095,216.771317 
	C224.573975,201.147522 210.484558,189.090607 194.512238,177.970520 
M205.453918,157.045837 
	C222.283646,172.799194 239.697144,188.058441 249.491043,209.802856 
	C252.685699,189.785904 248.025452,172.009430 236.920975,155.543549 
	C224.227875,136.722046 206.564789,123.523239 188.215805,110.989159 
	C182.359100,106.988472 176.458450,103.052155 169.958328,98.668549 
	C169.982147,110.105522 172.041565,120.266296 178.837341,128.417114 
	C187.019043,138.230255 196.192764,147.216324 205.453918,157.045837 
z"/>
<path fill="#030303" opacity="1.000000" stroke="none" 
	d="
M194.814545,178.165039 
	C210.484558,189.090607 224.573975,201.147522 235.272095,216.771317 
	C246.059509,232.525574 251.319412,249.796204 249.783585,269.656311 
	C248.809097,268.513885 248.177719,267.725586 247.496765,266.982758 
	C239.424866,258.177063 231.591797,249.135086 223.205383,240.639481 
	C212.927643,230.227921 201.787476,220.651077 191.745255,210.027924 
	C179.434967,197.005402 170.168137,182.181488 169.316696,162.246933 
	C178.115936,167.738205 186.314087,172.854370 194.814545,178.165039 
z"/>
<path fill="#040404" opacity="1.000000" stroke="none" 
	d="
M205.195480,156.803146 
	C196.192764,147.216324 187.019043,138.230255 178.837341,128.417114 
	C172.041565,120.266296 169.982147,110.105522 169.958328,98.668549 
	C176.458450,103.052155 182.359100,106.988472 188.215805,110.989159 
	C206.564789,123.523239 224.227875,136.722046 236.920975,155.543549 
	C248.025452,172.009430 252.685699,189.785904 249.491043,209.802856 
	C239.697144,188.058441 222.283646,172.799194 205.195480,156.803146 
z"/>
</svg>