<svg version="1.1" id="Layer_1" xmlns="http://www.w3.org/2000/svg" xmlns:xlink="http://www.w3.org/1999/xlink" x="0px" y="0px"
	 width="100%" viewBox="0 0 607 411" enable-background="new 0 0 607 411" xml:space="preserve">
<path fill="#000000" opacity="1.000000" stroke="none" 
	d="
M433.000000,412.000000 
	C288.666687,412.000000 144.833405,412.000000 1.000077,412.000000 
	C1.000051,275.000061 1.000051,138.000137 1.000026,1.000151 
	C203.333206,1.000100 405.666412,1.000100 607.999756,1.000050 
	C607.999817,137.999847 607.999817,274.999695 607.999878,411.999756 
	C549.833313,412.000000 491.666656,412.000000 433.000000,412.000000 
M344.258026,8.174708 
	C344.116486,9.801692 343.851532,11.428637 343.851013,13.055664 
	C343.821533,106.858139 343.813965,200.660629 343.804291,294.463104 
	C343.804108,296.198822 343.804260,297.934540 343.804260,299.793182 
	C337.569031,297.318237 332.207642,294.563080 326.516205,293.047211 
	C308.622894,288.281464 291.113861,290.750366 274.147705,297.378662 
	C252.853226,305.697968 235.627243,318.951416 225.104568,339.777039 
	C215.809753,358.172607 219.726974,377.288727 235.183975,389.091187 
	C243.816254,395.682495 253.916748,398.570282 264.540405,399.111725 
	C290.829102,400.451599 314.178009,392.340485 334.146240,375.369873 
	C350.397186,361.558502 360.407318,344.517487 358.288696,322.134308 
	C357.960358,318.665680 358.212646,315.141113 358.212799,311.642426 
	C358.217102,211.842117 358.228577,112.041794 358.178101,12.241506 
	C358.177399,10.850376 357.402161,9.459639 356.092163,7.844234 
	C352.399750,7.925597 348.707306,8.006961 344.258026,8.174708 
z"/>
<path fill="#E1E1E1" opacity="1.000000" stroke="none" 
	d="
M356.988403,8.068719 
	C357.402161,9.459639 358.177399,10.850376 358.178101,12.241506 
	C358.228577,112.041794 358.217102,211.842117 358.212799,311.642426 
	C358.212646,315.141113 357.960358,318.665680 358.288696,322.134308 
	C360.407318,344.517487 350.397186,361.558502 334.146240,375.369873 
	C314.178009,392.340485 290.829102,400.451599 264.540405,399.111725 
	C253.916748,398.570282 243.816254,395.682495 235.183975,389.091187 
	C219.726974,377.288727 215.809753,358.172607 225.104568,339.777039 
	C235.627243,318.951416 252.853226,305.697968 274.147705,297.378662 
	C291.113861,290.750366 308.622894,288.281464 326.516205,293.047211 
	C332.207642,294.563080 337.569031,297.318237 343.804260,299.793182 
	C343.804260,297.934540 343.804108,296.198822 343.804291,294.463104 
	C343.813965,200.660629 343.821533,106.858139 343.851013,13.055664 
	C343.851532,11.428637 344.116486,9.801692 344.649323,8.594330 
	C344.712128,110.580780 344.388214,212.147629 343.977509,313.714142 
	C343.974060,314.570068 342.799194,315.421326 341.851959,316.214905 
	C334.800079,310.668335 326.760895,310.557068 318.743683,310.906189 
	C299.714020,311.734863 282.453583,318.496094 266.057831,327.584595 
	C254.353027,334.072815 243.639618,341.942871 235.770126,353.078156 
	C226.486816,366.214050 231.022858,377.143555 246.821533,379.736572 
	C247.477493,379.844269 248.142838,379.900543 248.805679,379.959778 
	C265.546844,381.456451 281.116730,376.852539 296.288818,370.569641 
	C312.455170,363.875000 327.290253,354.995392 338.331116,341.123260 
	C341.461975,337.189545 342.742401,331.783081 345.341797,327.021423 
	C347.144043,327.002197 348.475922,327.020660 349.807861,327.023682 
	C357.005066,327.039917 356.990204,327.038574 356.989990,319.771973 
	C356.986938,215.870895 356.988190,111.969803 356.988403,8.068719 
z"/>
<path fill="#FFFFFF" opacity="1.000000" stroke="none" 
	d="
M342.171234,316.274750 
	C342.799194,315.421326 343.974060,314.570068 343.977509,313.714142 
	C344.388214,212.147629 344.712128,110.580780 345.027771,8.551138 
	C348.707306,8.006961 352.399750,7.925597 356.540283,7.956477 
	C356.988190,111.969803 356.986938,215.870895 356.989990,319.771973 
	C356.990204,327.038574 357.005066,327.039917 349.807861,327.023682 
	C348.475922,327.020660 347.144043,327.002197 345.008362,326.773376 
	C343.526794,323.128845 342.849030,319.701813 342.171234,316.274750 
z"/>
<path fill="#020202" opacity="1.000000" stroke="none" 
	d="
M341.851959,316.214905 
	C342.849030,319.701813 343.526794,323.128845 344.538025,326.803955 
	C342.742401,331.783081 341.461975,337.189545 338.331116,341.123260 
	C327.290253,354.995392 312.455170,363.875000 296.288818,370.569641 
	C281.116730,376.852539 265.546844,381.456451 248.805679,379.959778 
	C248.142838,379.900543 247.477493,379.844269 246.821533,379.736572 
	C231.022858,377.143555 226.486816,366.214050 235.770126,353.078156 
	C243.639618,341.942871 254.353027,334.072815 266.057831,327.584595 
	C282.453583,318.496094 299.714020,311.734863 318.743683,310.906189 
	C326.760895,310.557068 334.800079,310.668335 341.851959,316.214905 
z"/>
</svg>