<svg version="1.1" id="Layer_1" xmlns="http://www.w3.org/2000/svg" xmlns:xlink="http://www.w3.org/1999/xlink" x="0px" y="0px"
	 width="100%" viewBox="0 0 608 608" enable-background="new 0 0 608 608" xml:space="preserve">
<path fill="#000000" opacity="1.000000" stroke="none" 
	d="
M251.213959,144.902115 
	C271.370117,142.387451 291.171417,141.993301 310.982574,142.700928 
	C368.780701,144.765427 422.918732,158.684677 470.255554,193.428391 
	C504.185791,218.332138 526.538879,250.733704 532.092041,293.273468 
	C537.098389,331.624573 526.123291,365.412689 501.759338,394.998962 
	C470.639557,432.789154 430.283508,455.410553 382.736694,465.073975 
	C324.831085,476.842712 267.422882,474.128876 211.391754,454.919830 
	C174.315369,442.208984 141.190521,422.668396 115.496117,392.254456 
	C97.312149,370.730438 86.678604,345.852783 82.512032,317.949280 
	C79.359192,296.834717 80.217896,276.127655 86.532753,255.769012 
	C95.539131,226.733109 114.164238,204.835556 138.426575,187.337463 
	C171.176132,163.718307 208.039291,150.780075 247.834213,145.560440 
	C248.821732,145.430908 249.791718,145.167633 251.213959,144.902115 
M333.630615,180.884598 
	C316.681915,169.209778 297.810364,165.514481 277.576172,167.204239 
	C254.790833,169.107040 237.151764,179.383408 225.059296,198.947281 
	C212.638229,219.042755 209.191223,241.483200 208.446381,264.452454 
	C207.759735,285.626953 210.141434,306.646423 214.433105,327.362000 
	C221.493149,361.440094 234.052551,393.050995 258.200104,418.970764 
	C279.850616,442.210266 306.872803,450.669617 337.915466,446.247131 
	C368.623474,441.872284 386.305786,422.504181 395.571106,394.158508 
	C404.195221,367.774506 404.023682,340.774292 400.439423,313.690155 
	C396.296906,282.387817 386.826477,252.744339 371.280334,225.148331 
	C361.716125,208.170853 350.609650,192.501160 333.630615,180.884598 
z"/>
</svg>