<svg version="1.1" id="Layer_1" xmlns="http://www.w3.org/2000/svg" xmlns:xlink="http://www.w3.org/1999/xlink" x="0px" y="0px"
	 width="100%" viewBox="0 0 607 411" enable-background="new 0 0 607 411" xml:space="preserve">
<path fill="#000000" opacity="1.000000" stroke="none" 
	d="
M322.000000,412.000000 
	C214.666687,412.000000 107.833382,412.000000 1.000057,412.000000 
	C1.000038,275.000061 1.000038,138.000122 1.000019,1.000131 
	C203.333237,1.000087 405.666473,1.000087 607.999756,1.000044 
	C607.999878,137.999863 607.999878,274.999725 607.999939,411.999786 
	C512.833313,412.000000 417.666656,412.000000 322.000000,412.000000 
M366.302765,51.560612 
	C366.207336,50.705250 366.111908,49.849888 366.216034,48.211407 
	C366.149445,47.142426 366.082855,46.073441 366.300507,44.663277 
	C366.203156,44.107944 366.105835,43.552616 366.196075,42.138157 
	C366.134308,40.093124 366.072510,38.048088 366.303711,35.560642 
	C366.209015,34.704929 366.114319,33.849220 366.218109,32.075348 
	C366.218109,24.126074 366.218109,16.176798 366.218109,8.214056 
	C361.168121,8.214056 356.642853,8.214056 351.887695,8.214056 
	C351.887695,10.103642 351.887665,11.589801 351.887695,13.075958 
	C351.889099,84.737434 351.874420,156.398911 351.900665,228.060379 
	C351.909790,253.050018 352.020020,278.039612 351.466461,303.601501 
	C351.140594,303.612793 350.725891,303.761169 350.501526,303.615814 
	C336.483856,294.533234 321.015869,292.801270 304.931580,294.984863 
	C277.138885,298.758057 254.156570,311.208710 237.391663,333.993744 
	C229.141922,345.205902 224.342697,357.853363 227.487061,371.952637 
	C231.387329,389.441437 244.064255,398.368225 260.510925,402.136200 
	C294.859985,410.005585 337.037445,393.030914 356.622772,363.701660 
	C363.181976,353.879181 367.823792,343.284515 366.344635,330.049835 
	C366.232605,322.033997 366.120605,314.018158 366.295074,305.556763 
	C366.195129,304.705017 366.095215,303.853241 366.167419,302.085693 
	C366.109894,297.723328 366.052368,293.360992 366.295837,288.352844 
	C366.195496,286.235779 366.095184,284.118744 366.167084,281.093750 
	C366.110046,277.395477 366.053040,273.697174 366.291534,269.559174 
	C366.197296,268.705170 366.103058,267.851166 366.196533,266.076630 
	C366.134125,257.385284 366.071716,248.693924 366.301056,239.243195 
	C366.198853,228.162720 366.096649,217.082260 366.167267,205.078156 
	C366.109680,193.051605 366.052063,181.025055 366.298767,168.244263 
	C366.202271,158.828506 366.105804,149.412750 366.198730,139.076767 
	C366.135529,110.052048 366.072327,81.027328 366.302765,51.560612 
z"/>
<path fill="#E5E5E5" opacity="1.000000" stroke="none" 
	d="
M366.132874,330.961761 
	C367.823792,343.284515 363.181976,353.879181 356.622772,363.701660 
	C337.037445,393.030914 294.859985,410.005585 260.510925,402.136200 
	C244.064255,398.368225 231.387329,389.441437 227.487061,371.952637 
	C224.342697,357.853363 229.141922,345.205902 237.391663,333.993744 
	C254.156570,311.208710 277.138885,298.758057 304.931580,294.984863 
	C321.015869,292.801270 336.483856,294.533234 350.501526,303.615814 
	C350.725891,303.761169 351.140594,303.612793 352.021423,303.575195 
	C352.380249,308.140991 352.039520,312.732361 352.015045,317.325409 
	C351.940979,331.215057 351.988800,331.215302 366.132874,330.961761 
z"/>
<path fill="#FEFEFE" opacity="1.000000" stroke="none" 
	d="
M366.238770,330.505798 
	C351.988800,331.215302 351.940979,331.215057 352.015045,317.325409 
	C352.039520,312.732361 352.380249,308.140991 352.330261,303.289062 
	C352.020020,278.039612 351.909790,253.050018 351.900665,228.060379 
	C351.874420,156.398911 351.889099,84.737434 351.887695,13.075958 
	C351.887665,11.589801 351.887695,10.103642 351.887695,8.214056 
	C356.642853,8.214056 361.168121,8.214056 366.218109,8.214056 
	C366.218109,16.176798 366.218109,24.126074 365.881104,32.725426 
	C365.699615,34.251354 365.855164,35.127205 366.010742,36.003059 
	C366.072510,38.048088 366.134308,40.093124 365.887054,42.716957 
	C365.724121,43.865322 365.870209,44.434891 366.016296,45.004456 
	C366.082855,46.073441 366.149445,47.142426 365.878174,48.793522 
	C365.696594,50.251293 365.852875,51.126953 366.009155,52.002609 
	C366.072327,81.027328 366.135529,110.052048 365.826904,139.847214 
	C365.310059,146.702713 365.028534,152.788773 365.073822,158.872406 
	C365.098938,162.249863 365.669647,165.623276 365.994446,168.998505 
	C366.052063,181.025055 366.109680,193.051605 365.805664,205.851257 
	C365.302704,216.025055 365.108368,225.425552 365.068085,234.826706 
	C365.060699,236.550613 365.679504,238.277206 366.009308,240.002563 
	C366.071716,248.693924 366.134125,257.385284 365.867218,266.728058 
	C365.690613,268.252625 365.843292,269.125763 365.996002,269.998901 
	C366.053040,273.697174 366.110046,277.395477 365.820984,281.819580 
	C365.648193,284.696472 365.821503,286.847534 365.994843,288.998627 
	C366.052368,293.360992 366.109894,297.723328 365.847534,302.736633 
	C365.687988,304.259125 365.848267,305.130737 366.008575,306.002319 
	C366.120605,314.018158 366.232605,322.033997 366.238770,330.505798 
z"/>
<path fill="#E5E5E5" opacity="1.000000" stroke="none" 
	d="
M366.155182,239.622879 
	C365.679504,238.277206 365.060699,236.550613 365.068085,234.826706 
	C365.108368,225.425552 365.302704,216.025055 365.719238,206.313065 
	C366.096649,217.082260 366.198853,228.162720 366.155182,239.622879 
z"/>
<path fill="#E5E5E5" opacity="1.000000" stroke="none" 
	d="
M366.146606,168.621384 
	C365.669647,165.623276 365.098938,162.249863 365.073822,158.872406 
	C365.028534,152.788773 365.310059,146.702713 365.732239,140.307327 
	C366.105804,149.412750 366.202271,158.828506 366.146606,168.621384 
z"/>
<path fill="#E5E5E5" opacity="1.000000" stroke="none" 
	d="
M366.145325,288.675720 
	C365.821503,286.847534 365.648193,284.696472 365.734863,282.273529 
	C366.095184,284.118744 366.195496,286.235779 366.145325,288.675720 
z"/>
<path fill="#E5E5E5" opacity="1.000000" stroke="none" 
	d="
M366.157227,35.781853 
	C365.855164,35.127205 365.699615,34.251354 365.781860,33.184502 
	C366.114319,33.849220 366.209015,34.704929 366.157227,35.781853 
z"/>
<path fill="#E5E5E5" opacity="1.000000" stroke="none" 
	d="
M366.155945,51.781609 
	C365.852875,51.126953 365.696594,50.251293 365.778381,49.185081 
	C366.111908,49.849888 366.207336,50.705250 366.155945,51.781609 
z"/>
<path fill="#E5E5E5" opacity="1.000000" stroke="none" 
	d="
M366.143768,269.779053 
	C365.843292,269.125763 365.690613,268.252625 365.773376,267.188324 
	C366.103058,267.851166 366.197296,268.705170 366.143768,269.779053 
z"/>
<path fill="#E5E5E5" opacity="1.000000" stroke="none" 
	d="
M366.151825,305.779541 
	C365.848267,305.130737 365.687988,304.259125 365.761475,303.194519 
	C366.095215,303.853241 366.195129,304.705017 366.151825,305.779541 
z"/>
<path fill="#E5E5E5" opacity="1.000000" stroke="none" 
	d="
M366.158386,44.833866 
	C365.870209,44.434891 365.724121,43.865322 365.793274,43.146523 
	C366.105835,43.552616 366.203156,44.107944 366.158386,44.833866 
z"/>
</svg>