<svg version="1.1" id="Layer_1" xmlns="http://www.w3.org/2000/svg" xmlns:xlink="http://www.w3.org/1999/xlink" x="0px" y="0px"
	 width="100%" viewBox="0 0 280 329" enable-background="new 0 0 280 329" xml:space="preserve">
<path fill="#010101" opacity="1.000000" stroke="none" 
	d="
M173.000000,330.000000 
	C115.333359,330.000000 58.166721,330.000000 1.000061,330.000000 
	C1.000041,220.333420 1.000041,110.666824 1.000021,1.000179 
	C94.333214,1.000119 187.666428,1.000119 280.999725,1.000060 
	C280.999817,110.666496 280.999817,220.332993 280.999908,329.999756 
	C245.166672,330.000000 209.333328,330.000000 173.000000,330.000000 
M119.827820,167.916168 
	C119.819138,175.557281 119.788422,183.198456 119.805725,190.839508 
	C119.867783,218.240585 119.946083,245.641617 119.347633,273.424561 
	C114.959961,271.597229 110.724579,268.949860 106.155144,268.101318 
	C94.009193,265.845795 83.241310,270.251526 73.184265,276.631317 
	C64.537132,282.116699 57.516369,289.040344 54.679260,299.277588 
	C51.580429,310.459106 56.672989,320.162903 67.954216,322.610138 
	C73.786720,323.875366 80.274330,323.849274 86.172470,322.783081 
	C111.242882,318.251129 126.121109,299.544617 124.326248,275.256348 
	C124.326248,249.190384 124.326248,223.124420 124.326248,195.924774 
	C130.809174,200.548721 136.489548,204.258469 141.786819,208.452148 
	C151.753082,216.342133 160.833542,225.067261 167.191696,236.335388 
	C169.860886,241.065811 171.091995,245.722687 169.633804,251.050781 
	C168.937866,253.593628 168.639725,256.245361 168.161392,258.847748 
	C168.535355,258.998718 168.909332,259.149658 169.283295,259.300598 
	C170.316025,257.705292 171.348770,256.109955 172.381500,254.514648 
	C172.790588,254.627762 173.199677,254.740875 173.608765,254.853973 
	C171.965302,268.226288 170.321838,281.598572 168.521271,296.249268 
	C169.836899,294.483185 170.749573,293.659088 171.169510,292.633301 
	C176.302368,280.094543 179.710220,267.142090 181.142487,253.615601 
	C182.476471,241.017288 178.858398,228.597702 180.814178,215.859055 
	C181.993210,208.179657 179.101929,199.936874 179.821304,192.111038 
	C180.923538,180.120407 182.435455,168.280670 179.576126,156.360001 
	C179.323669,155.307556 179.884705,154.074631 179.993011,152.918518 
	C180.474152,147.782043 181.176376,142.651230 181.346512,137.503418 
	C181.924255,120.021866 175.883835,105.255821 162.733978,93.554146 
	C154.646790,86.357582 146.514069,79.212143 138.430893,72.011093 
	C130.399170,64.855896 124.947289,56.068661 121.962440,45.738831 
	C121.540924,44.280048 121.040833,42.843971 120.577103,41.397385 
	C119.955849,46.732239 119.950615,51.882683 119.956757,57.033108 
	C119.984566,80.355301 120.015587,103.677490 119.831833,127.654869 
	C119.901985,128.103317 119.972145,128.551758 119.824516,129.915314 
	C119.896294,141.593750 119.968071,153.272171 119.823250,165.440384 
	C119.896019,165.960327 119.968788,166.480286 119.827820,167.916168 
z"/>
<path fill="#F9F9F9" opacity="1.000000" stroke="none" 
	d="
M120.018242,273.042664 
	C119.946083,245.641617 119.867783,218.240585 119.805725,190.839508 
	C119.788422,183.198456 119.819138,175.557281 120.261604,167.393127 
	C120.476875,166.230255 120.258362,165.590439 120.039856,164.950607 
	C119.968071,153.272171 119.896294,141.593750 120.224869,129.416519 
	C120.935951,128.597198 121.246696,128.276672 121.557434,127.956146 
	C121.053444,127.637321 120.549454,127.318504 120.045464,126.999680 
	C120.015587,103.677490 119.984566,80.355301 119.956757,57.033108 
	C119.950615,51.882683 119.955849,46.732239 120.577103,41.397385 
	C121.040833,42.843971 121.540924,44.280048 121.962440,45.738831 
	C124.947289,56.068661 130.399170,64.855896 138.430893,72.011093 
	C146.514069,79.212143 154.646790,86.357582 162.733978,93.554146 
	C175.883835,105.255821 181.924255,120.021866 181.346512,137.503418 
	C181.176376,142.651230 180.474152,147.782043 179.993011,152.918518 
	C179.884705,154.074631 179.323669,155.307556 179.576126,156.360001 
	C182.435455,168.280670 180.923538,180.120407 179.821304,192.111038 
	C179.101929,199.936874 181.993210,208.179657 180.814178,215.859055 
	C178.858398,228.597702 182.476471,241.017288 181.142487,253.615601 
	C179.710220,267.142090 176.302368,280.094543 171.169510,292.633301 
	C170.749573,293.659088 169.836899,294.483185 168.521271,296.249268 
	C170.321838,281.598572 171.965302,268.226288 173.608765,254.853973 
	C173.199677,254.740875 172.790588,254.627762 172.381500,254.514648 
	C171.348770,256.109955 170.316025,257.705292 169.283295,259.300598 
	C168.909332,259.149658 168.535355,258.998718 168.161392,258.847748 
	C168.639725,256.245361 168.937866,253.593628 169.633804,251.050781 
	C171.091995,245.722687 169.860886,241.065811 167.191696,236.335388 
	C160.833542,225.067261 151.753082,216.342133 141.786819,208.452148 
	C136.489548,204.258469 130.809174,200.548721 124.326248,195.924774 
	C124.326248,223.124420 124.326248,249.190384 123.926262,275.462158 
	C122.356926,274.792877 121.187584,273.917755 120.018242,273.042664 
M162.230453,119.278069 
	C151.979538,105.770988 138.675232,95.888817 123.716476,86.379402 
	C127.884575,98.883751 136.185623,106.827110 145.009537,114.464432 
	C153.774292,122.050537 162.295776,129.917694 170.923935,137.661591 
	C171.335052,137.433563 171.746170,137.205536 172.157288,136.977509 
	C169.004440,131.260101 165.851593,125.542702 162.230453,119.278069 
M132.817505,175.660492 
	C145.160049,187.088898 157.502594,198.517303 169.903671,209.999893 
	C172.726776,195.928986 133.651840,161.749619 123.689117,161.472839 
	C126.681183,166.186691 129.516586,170.653717 132.817505,175.660492 
M145.358963,151.132874 
	C153.547104,158.482773 161.735245,165.832672 169.913696,173.173859 
	C171.255600,161.470108 141.153839,129.018448 124.361053,124.325821 
	C128.082703,135.689880 136.180161,143.395508 145.358963,151.132874 
M126.419968,193.484344 
	C126.419968,193.484344 126.522240,193.425125 126.419968,193.484344 
z"/>
<path fill="#FCFCFC" opacity="1.000000" stroke="none" 
	d="
M119.682938,273.233612 
	C121.187584,273.917755 122.356926,274.792877 123.796997,275.848511 
	C126.121109,299.544617 111.242882,318.251129 86.172470,322.783081 
	C80.274330,323.849274 73.786720,323.875366 67.954216,322.610138 
	C56.672989,320.162903 51.580429,310.459106 54.679260,299.277588 
	C57.516369,289.040344 64.537132,282.116699 73.184265,276.631317 
	C83.241310,270.251526 94.009193,265.845795 106.155144,268.101318 
	C110.724579,268.949860 114.959961,271.597229 119.682938,273.233612 
z"/>
<path fill="#F7F7F7" opacity="1.000000" stroke="none" 
	d="
M119.938644,127.327271 
	C120.549454,127.318504 121.053444,127.637321 121.557434,127.956146 
	C121.246696,128.276672 120.935951,128.597198 120.333755,128.958969 
	C119.972145,128.551758 119.901985,128.103317 119.938644,127.327271 
z"/>
<path fill="#F7F7F7" opacity="1.000000" stroke="none" 
	d="
M119.931549,165.195496 
	C120.258362,165.590439 120.476875,166.230255 120.368469,166.935150 
	C119.968788,166.480286 119.896019,165.960327 119.931549,165.195496 
z"/>
<path fill="#0B0B0B" opacity="1.000000" stroke="none" 
	d="
M162.464600,119.551682 
	C165.851593,125.542702 169.004440,131.260101 172.157288,136.977509 
	C171.746170,137.205536 171.335052,137.433563 170.923935,137.661591 
	C162.295776,129.917694 153.774292,122.050537 145.009537,114.464432 
	C136.185623,106.827110 127.884575,98.883751 123.716476,86.379402 
	C138.675232,95.888817 151.979538,105.770988 162.464600,119.551682 
z"/>
<path fill="#0A0A0A" opacity="1.000000" stroke="none" 
	d="
M132.584747,175.390625 
	C129.516586,170.653717 126.681183,166.186691 123.689117,161.472839 
	C133.651840,161.749619 172.726776,195.928986 169.903671,209.999893 
	C157.502594,198.517303 145.160049,187.088898 132.584747,175.390625 
z"/>
<path fill="#090909" opacity="1.000000" stroke="none" 
	d="
M145.075806,150.919830 
	C136.180161,143.395508 128.082703,135.689880 124.361053,124.325821 
	C141.153839,129.018448 171.255600,161.470108 169.913696,173.173859 
	C161.735245,165.832672 153.547104,158.482773 145.075806,150.919830 
z"/>
<path fill="#F7F7F7" opacity="1.000000" stroke="none" 
	d="
M126.471100,193.454742 
	C126.522240,193.425125 126.419968,193.484344 126.471100,193.454742 
z"/>
</svg>