<svg version="1.1" id="Layer_1" xmlns="http://www.w3.org/2000/svg" xmlns:xlink="http://www.w3.org/1999/xlink" x="0px" y="0px"
	 width="100%" viewBox="0 0 225 225" enable-background="new 0 0 225 225" xml:space="preserve">
<path fill="#000000" opacity="1.000000" stroke="none" 
	d="
M156.000000,226.000000 
	C104.000000,226.000000 52.500008,226.000000 1.000007,226.000000 
	C1.000005,151.000000 1.000005,76.000015 1.000002,1.000017 
	C75.999992,1.000011 150.999985,1.000011 225.999969,1.000006 
	C225.999985,75.999985 225.999985,150.999969 226.000000,225.999969 
	C202.833328,226.000000 179.666672,226.000000 156.000000,226.000000 
M112.910118,38.661175 
	C112.962646,39.108101 113.015182,39.555031 112.902824,40.915455 
	C112.960472,44.939339 113.018127,48.963226 112.964348,53.920811 
	C112.996407,81.613190 113.028465,109.305573 112.871132,137.884247 
	C112.943565,140.594269 113.015999,143.304306 113.007935,146.669922 
	C113.048271,147.106705 113.088608,147.543503 112.958443,148.862671 
	C112.958443,151.268646 112.958443,153.674622 112.958443,156.295883 
	C92.951622,148.633392 71.242142,163.636002 67.446449,178.977371 
	C65.032753,188.732986 70.391205,195.980057 78.801201,197.694534 
	C94.725151,200.940811 107.342697,189.922867 114.180504,178.547104 
	C115.091286,177.031860 115.934006,175.207611 115.999275,173.495621 
	C116.435722,162.047958 116.673309,150.592316 116.891220,139.137665 
	C116.904671,138.430466 116.201927,137.709641 115.999969,136.296432 
	C116.288261,135.192856 116.576553,134.089294 116.994179,132.332870 
	C116.952072,131.893219 116.909966,131.453583 117.033554,130.087524 
	C117.033554,118.315536 117.033554,106.543549 117.033554,94.730339 
	C139.979874,97.247620 156.523163,115.681808 156.872086,139.353836 
	C156.923416,139.899567 156.974747,140.445282 156.775421,141.662827 
	C156.615509,142.830933 156.455597,143.999039 155.952316,145.793625 
	C154.374176,149.737061 152.677460,153.640076 151.309372,157.655075 
	C151.004456,158.549942 151.855118,159.838562 152.173721,160.945908 
	C153.150543,160.425674 154.440125,160.135773 155.031998,159.332062 
	C155.955124,158.078552 156.404984,156.476547 157.573578,154.526657 
	C158.395813,152.016495 159.218033,149.506348 160.335632,146.590317 
	C160.317825,146.423950 160.300034,146.257568 160.423340,145.969223 
	C160.423340,145.969223 160.388123,145.786041 160.862183,145.232193 
	C161.054047,143.807816 161.245911,142.383453 161.792603,140.106491 
	C162.609787,127.673836 160.988602,115.688835 152.974579,105.712273 
	C145.929626,96.942108 138.043549,88.851097 130.617142,80.382790 
	C124.547562,73.461662 119.679726,65.887924 118.243553,56.285820 
	C119.697189,56.285820 120.827026,56.285820 122.468849,56.761532 
	C124.267059,57.295193 126.065269,57.828857 128.304901,58.868099 
	C130.150513,59.778679 131.996124,60.689255 134.213074,61.985401 
	C134.526459,62.155857 134.839844,62.326313 135.503433,62.956902 
	C149.852997,73.309937 156.932175,87.416008 157.233795,105.027359 
	C157.273087,107.321373 156.465912,110.299690 160.372681,109.527924 
	C160.596100,105.531578 161.378769,101.544991 160.935059,97.699936 
	C159.200012,82.665253 155.350388,68.348763 144.819550,56.744118 
	C143.766327,55.583488 142.339050,54.762306 140.855927,53.138287 
	C139.586838,51.493706 138.464966,49.703293 137.014206,48.238655 
	C134.825256,46.028751 132.406708,44.046257 129.831161,41.384243 
	C128.552490,40.298840 127.273819,39.213432 125.722847,37.470242 
	C120.808327,34.214149 119.587799,28.858484 118.075462,23.735151 
	C117.374741,21.361336 116.598221,19.994215 113.409630,21.819386 
	C113.307114,22.205881 113.204590,22.592377 112.975204,23.906576 
	C113.003372,28.603792 113.031540,33.301010 112.910118,38.661175 
z"/>
<path fill="#E1E1E1" opacity="1.000000" stroke="none" 
	d="
M115.832413,136.995178 
	C116.201927,137.709641 116.904671,138.430466 116.891220,139.137665 
	C116.673309,150.592316 116.435722,162.047958 115.999275,173.495621 
	C115.934006,175.207611 115.091286,177.031860 114.180504,178.547104 
	C107.342697,189.922867 94.725151,200.940811 78.801201,197.694534 
	C70.391205,195.980057 65.032753,188.732986 67.446449,178.977371 
	C71.242142,163.636002 92.951622,148.633392 112.958443,156.295883 
	C112.958443,153.674622 112.958443,151.268646 113.324753,148.390076 
	C113.974480,147.591583 114.257896,147.265671 114.541306,146.939774 
	C114.057022,146.631287 113.572723,146.322815 113.088432,146.014328 
	C113.015999,143.304306 112.943565,140.594269 113.312286,137.447083 
	C114.446426,137.004990 115.139420,137.000076 115.832413,136.995178 
z"/>
<path fill="#E7E7E7" opacity="1.000000" stroke="none" 
	d="
M115.916191,136.645813 
	C115.139420,137.000076 114.446426,137.004990 113.406982,137.003937 
	C113.028465,109.305573 112.996407,81.613190 113.224808,53.310028 
	C115.988449,51.396500 118.491631,50.093758 120.253822,49.176651 
	C121.443619,51.551830 122.306313,53.041893 122.901787,54.632019 
	C123.044098,55.012039 122.295631,55.725639 121.956863,56.285820 
	C120.827026,56.285820 119.697189,56.285820 118.243553,56.285820 
	C119.679726,65.887924 124.547562,73.461662 130.617142,80.382790 
	C138.043549,88.851097 145.929626,96.942108 152.974579,105.712273 
	C160.988602,115.688835 162.609787,127.673836 161.297714,140.724243 
	C160.664597,142.823349 160.526367,144.304688 160.388123,145.786041 
	C160.388123,145.786041 160.423340,145.969223 160.105072,145.950500 
	C159.385269,145.925644 158.983749,145.919510 158.582214,145.913376 
	C159.068237,146.274307 159.554245,146.635254 160.040268,146.996185 
	C159.218033,149.506348 158.395813,152.016495 156.951538,154.702545 
	C156.105469,153.484161 155.689331,152.087769 155.704773,150.696167 
	C155.725266,148.851212 156.082932,147.009979 156.295700,145.167145 
	C156.455597,143.999039 156.615509,142.830933 157.103622,141.183624 
	C157.342148,140.151230 157.252487,139.598053 157.162811,139.044861 
	C156.523163,115.681808 139.979874,97.247620 117.033554,94.730339 
	C117.033554,106.543549 117.033554,118.315536 116.675003,130.589355 
	C116.031166,131.407806 115.745872,131.724457 115.460587,132.041107 
	C115.928673,132.355972 116.396759,132.670853 116.864845,132.985718 
	C116.576553,134.089294 116.288261,135.192856 115.916191,136.645813 
z"/>
<path fill="#ECECEC" opacity="1.000000" stroke="none" 
	d="
M122.212852,56.523674 
	C122.295631,55.725639 123.044098,55.012039 122.901787,54.632019 
	C122.306313,53.041893 121.443619,51.551830 120.253822,49.176651 
	C118.491631,50.093758 115.988449,51.396500 113.280525,52.843178 
	C113.018127,48.963226 112.960472,44.939339 113.358833,40.470856 
	C115.393578,42.338978 116.972305,44.651707 118.297211,46.592587 
	C119.687401,43.902817 121.208015,40.960697 123.258591,36.993198 
	C119.333855,37.379951 116.196785,37.689091 113.059708,37.998230 
	C113.031540,33.301010 113.003372,28.603792 113.249428,23.285061 
	C113.701447,22.361238 113.879250,22.058931 114.057053,21.756626 
	C116.598221,19.994215 117.374741,21.361336 118.075462,23.735151 
	C119.587799,28.858484 120.808327,34.214149 125.804214,38.143661 
	C125.802795,40.365921 125.720024,41.914761 125.606346,44.041656 
	C127.770691,43.039284 128.928207,42.503201 130.085739,41.967117 
	C132.406708,44.046257 134.825256,46.028751 137.014206,48.238655 
	C138.464966,49.703293 139.586838,51.493706 140.990784,53.842346 
	C141.674561,56.563881 142.604538,58.489281 139.311813,59.339905 
	C137.757523,59.741436 136.529236,61.405022 135.153229,62.496773 
	C134.839844,62.326313 134.526459,62.155857 134.027298,61.408115 
	C132.508194,58.411152 131.413010,55.414711 127.863480,58.362522 
	C126.065269,57.828857 124.267059,57.295193 122.212852,56.523674 
M132.641434,52.395645 
	C135.256439,50.237427 133.456696,48.058460 131.706421,47.770599 
	C129.962708,47.483822 127.895668,49.162983 125.970398,49.980160 
	C126.187675,50.320518 126.404961,50.660877 126.622238,51.001236 
	C128.441528,51.349274 130.260834,51.697311 132.641434,52.395645 
z"/>
<path fill="#E7E7E7" opacity="1.000000" stroke="none" 
	d="
M135.328339,62.726837 
	C136.529236,61.405022 137.757523,59.741436 139.311813,59.339905 
	C142.604538,58.489281 141.674561,56.563881 141.105515,54.164993 
	C142.339050,54.762306 143.766327,55.583488 144.819550,56.744118 
	C155.350388,68.348763 159.200012,82.665253 160.935059,97.699936 
	C161.378769,101.544991 160.596100,105.531578 160.372681,109.527924 
	C156.465912,110.299690 157.273087,107.321373 157.233795,105.027359 
	C156.932175,87.416008 149.852997,73.309937 135.328339,62.726837 
z"/>
<path fill="#E7E7E7" opacity="1.000000" stroke="none" 
	d="
M112.984909,38.329704 
	C116.196785,37.689091 119.333855,37.379951 123.258591,36.993198 
	C121.208015,40.960697 119.687401,43.902817 118.297211,46.592587 
	C116.972305,44.651707 115.393578,42.338978 113.441277,40.014107 
	C113.015182,39.555031 112.962646,39.108101 112.984909,38.329704 
z"/>
<path fill="#D8D8D8" opacity="1.000000" stroke="none" 
	d="
M156.124008,145.480377 
	C156.082932,147.009979 155.725266,148.851212 155.704773,150.696167 
	C155.689331,152.087769 156.105469,153.484161 156.692444,154.950317 
	C156.404984,156.476547 155.955124,158.078552 155.031998,159.332062 
	C154.440125,160.135773 153.150543,160.425674 152.173721,160.945892 
	C151.855118,159.838562 151.004456,158.549942 151.309372,157.655075 
	C152.677460,153.640076 154.374176,149.737061 156.124008,145.480377 
z"/>
<path fill="#E7E7E7" opacity="1.000000" stroke="none" 
	d="
M129.958450,41.675682 
	C128.928207,42.503201 127.770691,43.039284 125.606346,44.041656 
	C125.720024,41.914761 125.802795,40.365921 125.940361,38.472557 
	C127.273819,39.213432 128.552490,40.298840 129.958450,41.675682 
z"/>
<path fill="#E7E7E7" opacity="1.000000" stroke="none" 
	d="
M128.084198,58.615311 
	C131.413010,55.414711 132.508194,58.411152 133.841629,61.215332 
	C131.996124,60.689255 130.150513,59.778679 128.084198,58.615311 
z"/>
<path fill="#D8D8D8" opacity="1.000000" stroke="none" 
	d="
M160.625153,145.509125 
	C160.526367,144.304688 160.664597,142.823349 161.120300,141.150543 
	C161.245911,142.383453 161.054047,143.807816 160.625153,145.509125 
z"/>
<path fill="#FBFBFB" opacity="1.000000" stroke="none" 
	d="
M116.929512,132.659302 
	C116.396759,132.670853 115.928673,132.355972 115.460587,132.041107 
	C115.745872,131.724457 116.031166,131.407806 116.592163,131.052551 
	C116.909966,131.453583 116.952072,131.893219 116.929512,132.659302 
z"/>
<path fill="#D8D8D8" opacity="1.000000" stroke="none" 
	d="
M157.017456,139.199341 
	C157.252487,139.598053 157.342148,140.151230 157.228943,140.847717 
	C156.974747,140.445282 156.923416,139.899567 157.017456,139.199341 
z"/>
<path fill="#FEFEFE" opacity="1.000000" stroke="none" 
	d="
M113.048187,146.342133 
	C113.572723,146.322815 114.057022,146.631287 114.541306,146.939774 
	C114.257896,147.265671 113.974480,147.591583 113.410004,147.948883 
	C113.088608,147.543503 113.048271,147.106705 113.048187,146.342133 
z"/>
<path fill="#D8D8D8" opacity="1.000000" stroke="none" 
	d="
M160.187958,146.793243 
	C159.554245,146.635254 159.068237,146.274307 158.582214,145.913376 
	C158.983749,145.919510 159.385269,145.925644 160.034515,146.011505 
	C160.300034,146.257568 160.317825,146.423950 160.187958,146.793243 
z"/>
<path fill="#FEFEFE" opacity="1.000000" stroke="none" 
	d="
M113.733337,21.788006 
	C113.879250,22.058931 113.701447,22.361238 113.312866,22.821209 
	C113.204590,22.592377 113.307114,22.205881 113.733337,21.788006 
z"/>
<path fill="#E7E7E7" opacity="1.000000" stroke="none" 
	d="
M132.360779,52.220497 
	C130.260834,51.697311 128.441528,51.349274 126.622238,51.001236 
	C126.404961,50.660877 126.187675,50.320518 125.970398,49.980160 
	C127.895668,49.162983 129.962708,47.483822 131.706421,47.770599 
	C133.456696,48.058460 135.256439,50.237427 132.360779,52.220497 
z"/>
</svg>