<svg version="1.1" id="Layer_1" xmlns="http://www.w3.org/2000/svg" xmlns:xlink="http://www.w3.org/1999/xlink" x="0px" y="0px"
	 width="100%" viewBox="0 0 608 608" enable-background="new 0 0 608 608" xml:space="preserve">
<path fill="#000000" opacity="1.000000" stroke="none" 
	d="
M350.667480,166.078888 
	C397.325409,181.636917 429.757904,212.051163 445.912109,257.949524 
	C461.830963,303.179108 456.608185,347.049591 430.400238,387.481171 
	C406.325623,424.621643 371.620880,446.218475 327.991150,453.001190 
	C252.060562,464.805328 177.672699,412.530670 162.697861,337.206573 
	C147.130203,258.900574 192.902054,184.787949 269.950256,164.188675 
	C296.761902,157.020432 323.669769,158.055908 350.667480,166.078888 
M181.100922,329.621674 
	C182.029388,333.835022 182.709396,338.121429 183.923019,342.250946 
	C207.826218,423.585236 301.026245,459.894409 373.461365,416.134583 
	C430.572052,381.632629 451.548737,307.417908 420.875977,248.383698 
	C394.513672,197.645645 338.285980,170.671677 281.516388,181.529236 
	C214.601578,194.327118 168.791626,261.366669 181.100922,329.621674 
z"/>
<path fill="#000000" opacity="1.000000" stroke="none" 
	d="
M295.571075,390.114532 
	C284.712616,386.565430 281.118927,379.355286 282.877594,366.117706 
	C285.852081,343.728363 288.728333,321.325653 291.537689,298.914978 
	C292.484863,291.358948 289.380188,288.192657 281.652863,288.348419 
	C280.664062,288.368347 279.674530,288.351135 278.509888,288.351135 
	C277.305939,285.814056 277.279724,283.507050 280.120453,282.578461 
	C294.643372,277.831207 308.734863,271.643646 323.972290,269.252136 
	C324.114807,269.229767 324.281586,269.361755 324.569305,269.472656 
	C326.044800,270.944153 325.352173,272.878265 325.138397,274.572937 
	C321.977631,299.633514 318.692505,324.678375 315.542816,349.740295 
	C314.901215,354.845520 314.646423,360.002350 314.315765,365.141968 
	C314.210999,366.770081 314.047272,368.651733 315.964233,369.484558 
	C318.009796,370.373230 319.495422,369.093475 320.795563,367.769196 
	C324.597168,363.896942 326.832550,359.025665 329.225525,354.264923 
	C330.279724,352.167694 331.102966,349.604919 334.265564,351.060303 
	C337.715424,352.647919 335.522461,355.066193 334.743103,356.973663 
	C331.130981,365.814575 326.599915,374.113190 319.819031,381.007507 
	C313.258240,387.678040 305.456543,391.076904 295.571075,390.114532 
z"/>
<path fill="#000000" opacity="1.000000" stroke="none" 
	d="
M303.461792,253.709885 
	C297.737946,248.656952 295.475372,242.827484 297.551300,235.651733 
	C299.439911,229.123550 303.856323,225.068970 310.412933,223.905167 
	C317.109589,222.716537 322.904480,224.826950 327.074066,230.463242 
	C331.737244,236.766785 331.242126,245.790833 325.990753,251.610947 
	C320.518524,257.675751 312.148743,258.552704 303.461792,253.709885 
z"/>
</svg>