<?xml version="1.0" encoding="UTF-8"?>
<svg version="1.1" xmlns="http://www.w3.org/2000/svg" width="500" height="500">
<path d="M0 0 C0.99 0.66 1.98 1.32 3 2 C3.58164917 1.27526489 3.58164917 1.27526489 4.17504883 0.53588867 C9.46266561 -3.9141979 21.33539 -1.81335449 27.86767578 -1.40087891 C35.19719244 -0.46283788 40.99348856 2.88275469 47 7 C47.73992187 7.48855469 48.47984375 7.97710937 49.2421875 8.48046875 C57.16559306 14.48464941 62.45836938 23.89580829 66 33 C66.33 33.66 66.66 34.32 67 35 C67.26999572 39.11948014 67.23161547 43.24767276 67.25 47.375 C67.2809375 49.09976563 67.2809375 49.09976563 67.3125 50.859375 C67.31765625 51.96539062 67.3228125 53.07140625 67.328125 54.2109375 C67.3374707 55.22462402 67.34681641 56.23831055 67.35644531 57.28271484 C66.95223216 60.36414799 66.05814974 61.72109162 64 64 C64.515625 64.680625 65.03125 65.36125 65.5625 66.0625 C67.44299626 69.90525323 67.11509388 71.91132242 66 76 C64.5 78.4375 64.5 78.4375 62 80 C57.13354691 80.70670918 53.30951389 80.44858744 49 78 C48.38125 78.66 47.7625 79.32 47.125 80 C45 82 45 82 43 82 C43.495 82.474375 43.99 82.94875 44.5 83.4375 C46.70567597 87.20552978 46.72952617 90.73266411 46 95 C44.12379387 97.50160818 42.76108697 98.61945652 40 100 C35.53507661 100.30442659 32.1693589 99.5883272 28 98 C26.68 99.98 25.36 101.96 24 104 C24.66 104.99 25.32 105.98 26 107 C26.53808752 115.47487844 26.53808752 115.47487844 24 119 C21.72885524 120.13557238 20.27706381 120.23084318 17.75 120.3125 C17.00234375 120.34988281 16.2546875 120.38726562 15.484375 120.42578125 C12.02123998 119.83225654 9.80006862 118.05149536 7 116 C5.91460937 116.55429688 4.82921875 117.10859375 3.7109375 117.6796875 C2.26573404 118.41167367 0.82041542 119.14343248 -0.625 119.875 C-1.33785156 120.23980469 -2.05070312 120.60460937 -2.78515625 120.98046875 C-5.95826708 122.58157972 -8.93178111 123.97848666 -12.33203125 125.05078125 C-15.24570849 126.08741898 -16.2070478 126.89886163 -18.0625 129.3125 C-21.3217914 133.29769149 -24.83466086 136.89479087 -28.5 140.5 C-32.57407546 144.52594969 -36.4780316 148.5969447 -40.1875 152.96484375 C-45.02443566 158.39597193 -50.35938981 163.39600844 -55.53515625 168.5 C-58.0402733 171.04084772 -60.42836651 173.65803956 -62.8125 176.3125 C-68.09619334 182.1465006 -73.63649785 187.70343903 -79.25317383 193.21606445 C-83.17879658 197.09057104 -86.8866522 201.07062273 -90.4543457 205.27832031 C-92.42818427 207.47694764 -94.61423163 209.26489573 -97 211 C-95.5326428 215.07850052 -93.52711533 218.48361017 -91.1875 222.125 C-87.56927661 227.88245304 -84.57107082 233.70594492 -82 240 C-81.63003906 240.87011719 -81.26007813 241.74023438 -80.87890625 242.63671875 C-74.30200402 259.13920237 -74.22433995 277.8113777 -80.4296875 294.40625 C-85.28663476 305.5216517 -91.40619746 314.37815895 -100 323 C-100.77988281 323.84433594 -101.55976563 324.68867188 -102.36328125 325.55859375 C-108.4832305 331.22521343 -116.13868029 333.79418553 -123.7543335 336.91592407 C-140.44576204 343.80047802 -155.39620442 350.66973941 -163 368 C-163.95086737 370.73596418 -164.67907915 373.50200301 -165.375 376.3125 C-165.6846167 377.51217407 -165.6846167 377.51217407 -166.00048828 378.73608398 C-167.24913435 383.67162952 -168.35979142 388.62719719 -169.40625 393.609375 C-172.08515091 406.3341543 -175.10319866 418.2495586 -180.25537109 430.20019531 C-181.29470186 432.71230889 -182.10569081 435.2879635 -182.9375 437.875 C-189.61401679 456.00874931 -206.40668925 471.28086291 -222 482 C-223.38251953 482.96292969 -223.38251953 482.96292969 -224.79296875 483.9453125 C-240.7028967 494.55193113 -256.9658246 499.73025142 -275.93041992 499.57641602 C-278.3007546 499.56256862 -280.66710593 499.59674156 -283.03710938 499.63476562 C-305.28857081 499.74705865 -325.32540579 490.46478252 -344 479 C-344.57073242 478.65114746 -345.14146484 478.30229492 -345.72949219 477.94287109 C-347.19032254 477.01841935 -348.60052175 476.01493693 -350 475 C-350 474.34 -350 473.68 -350 473 C-350.58265625 472.72800781 -351.1653125 472.45601563 -351.765625 472.17578125 C-355.89525715 470.00267063 -359.36957917 466.91021589 -363 464 C-363.61053223 463.51499023 -364.22106445 463.02998047 -364.85009766 462.53027344 C-375.12499939 454.36119076 -384.59400217 446.32948922 -392.703125 435.93359375 C-394.5036995 433.6338804 -396.32630956 431.36093103 -398.171875 429.09765625 C-398.72133789 428.420979 -399.27080078 427.74430176 -399.83691406 427.04711914 C-400.93456955 425.6959974 -402.0354213 424.34746526 -403.13964844 423.00170898 C-407 418.22474143 -407 418.22474143 -407 416 C-407.66 416 -408.32 416 -409 416 C-410.12573242 414.58569336 -410.12573242 414.58569336 -411.35546875 412.58984375 C-411.80970215 411.85491699 -412.26393555 411.11999023 -412.73193359 410.36279297 C-413.21227051 409.56244629 -413.69260742 408.76209961 -414.1875 407.9375 C-414.68072754 407.11910645 -415.17395508 406.30071289 -415.68212891 405.45751953 C-426.65753958 386.96902944 -433.18876929 368.76762062 -433.35009766 347.17578125 C-433.36648021 345.57992795 -433.39352881 343.98414239 -433.43212891 342.38867188 C-433.79303054 327.3375045 -431.31660508 313.53729183 -423.8125 300.25 C-423.43013184 299.55302002 -423.04776367 298.85604004 -422.65380859 298.13793945 C-412.75344502 280.59860463 -397.59762474 263.60722582 -380.4375 253.125 C-379.83647461 252.75544189 -379.23544922 252.38588379 -378.61621094 252.00512695 C-374.62731554 249.66641883 -370.65665153 248.09925756 -366.2487793 246.71972656 C-364.13013885 246.04165121 -362.07930118 245.27600705 -360.01171875 244.45703125 C-347.22045991 239.5306377 -334.14326175 236.61082694 -320.75463867 233.84106445 C-304.20965816 230.38905858 -291.79545904 226.4654245 -281.82421875 211.91015625 C-277.7239471 205.36903767 -274.62013023 198.51291457 -271.65234375 191.40625 C-271.22614746 190.39594727 -270.79995117 189.38564453 -270.36083984 188.34472656 C-269.51425911 186.3268143 -268.68182383 184.30289136 -267.86572266 182.27246094 C-265.1481578 175.77628119 -261.96659096 170.98019413 -257 166 C-256.14277344 165.113125 -255.28554687 164.22625 -254.40234375 163.3125 C-241.93475696 151.61549306 -225.48568179 142.47350009 -208 142 C-207.32324219 141.96132812 -206.64648438 141.92265625 -205.94921875 141.8828125 C-185.08586239 141.19626695 -163.24734852 150.10009514 -147 163 C-143.80346523 161.62313762 -142.04595816 160.13756103 -139.875 157.4375 C-137.31074388 154.41092516 -134.67576068 151.73265605 -131.6875 149.125 C-125.66405188 143.84289934 -120.09501917 138.12191277 -114.50854492 132.38330078 C-110.23954596 128.0477369 -105.99903325 124.4546669 -101 121 C-99.21085279 119.25091771 -99.21085279 119.25091771 -97.8125 117.4375 C-91.25809669 109.64307444 -83.89655089 102.51517171 -76.14453125 95.921875 C-71.21878342 91.50754361 -66.64437889 86.70630395 -62 82 C-61.42636719 81.47921875 -60.85273438 80.9584375 -60.26171875 80.421875 C-58.6317385 78.58499324 -57.96961283 76.80213054 -57.125 74.5 C-54.98824223 68.88479934 -52.52746694 63.44855579 -50 58 C-50.66 57.360625 -51.32 56.72125 -52 56.0625 C-54.35027189 52.46364617 -54.65614747 50.31044939 -54.4453125 46.09375 C-54 44 -54 44 -51.9375 41.4375 C-47.38616167 39.21024933 -43.8136013 39.38260381 -39.0625 41 C-38.381875 41.33 -37.70125 41.66 -37 42 C-35.35 40.68 -33.7 39.36 -32 38 C-32.33 37.13375 -32.66 36.2675 -33 35.375 C-34.3769709 30.7277232 -34.78559238 27.6068935 -32.625 23.1875 C-31 21 -31 21 -29 20 C-24.76279307 19.57464332 -21.16919689 19.31559206 -17.4375 21.5 C-16.7259375 22.2425 -16.7259375 22.2425 -16 23 C-15.71125 22.401875 -15.4225 21.80375 -15.125 21.1875 C-14 19 -14 19 -12 16 C-12.66 15.01 -13.32 14.02 -14 13 C-14.48219153 9.95546509 -14.46284898 7.04708913 -14 4 C-10.01744675 -1.310071 -6.21538836 -1.41538547 0 0 Z M3.9375 27.5 C2.37780692 29.14748477 0.81094041 30.78792225 -0.75630188 32.42822266 C-1.77003658 33.4911391 -2.7804894 34.55719592 -3.78752136 35.62646484 C-7.15855135 39.1916287 -10.67156936 42.46544279 -14.4152832 45.63085938 C-16.32219871 47.27836857 -17.95938178 49.05784111 -19.5625 51 C-21.15766436 52.9224838 -22.7390687 54.76073579 -24.58178711 56.45043945 C-29.61010377 61.11318483 -32.50130302 66.0300823 -35.4375 72.1875 C-36.10555664 73.52071289 -36.10555664 73.52071289 -36.78710938 74.88085938 C-39.39371418 80.16347198 -39.39371418 80.16347198 -40 86 C-38.04705948 88.50776542 -38.04705948 88.50776542 -35.40625 90.984375 C-34.94013306 91.44483215 -34.47401611 91.90528931 -33.99377441 92.37969971 C-32.5049818 93.84612742 -31.00288278 95.29802983 -29.5 96.75 C-28.48737217 97.74256298 -27.47564185 98.7360425 -26.46484375 99.73046875 C-23.98688309 102.16436157 -21.49679722 104.58541748 -19 107 C-6.19215607 101.9741903 5.18824848 96.0041774 14.4921875 85.75390625 C16.66137437 83.37185525 18.8447129 81.30961699 21.3125 79.25 C23.8415547 77.1078646 26.01368249 74.89792693 28.13671875 72.35546875 C30.82341716 69.23914145 33.63725254 66.39301284 36.65625 63.59765625 C37.4503125 62.85193359 38.244375 62.10621094 39.0625 61.33789062 C40.70234539 59.80710547 42.35907881 58.2942343 44.03125 56.79882812 C48.35816011 52.87309077 48.35816011 52.87309077 50.375 47.60498047 C50.15772971 45.26205015 49.71949572 43.23694282 49 41 C48.71125 40.0925 48.4225 39.185 48.125 38.25 C43.49264836 28.98529672 37.01470328 22.50735164 27.75 17.875 C26.8425 17.58625 25.935 17.2975 25 17 C24.37552979 16.75314453 23.75105957 16.50628906 23.10766602 16.25195312 C14.38039062 13.85202616 9.26202552 21.71070728 3.9375 27.5 Z M-55.25585938 101.25 C-55.77986328 101.8275 -56.30386719 102.405 -56.84375 103 C-57.71749268 103.95422852 -57.71749268 103.95422852 -58.60888672 104.92773438 C-59.2329541 105.61158203 -59.85702148 106.29542969 -60.5 107 C-65.74240892 112.6822663 -71.08866601 118.00911594 -77 123 C-82.6223124 127.7816722 -87.91110236 132.79835747 -93.0859375 138.05859375 C-94.60923647 139.59453845 -96.13267839 141.13034137 -97.65625 142.66601562 C-100.01665618 145.05117274 -102.37541089 147.43791672 -104.73144531 149.82739258 C-120.36717147 165.67039819 -120.36717147 165.67039819 -128.03613281 171.49243164 C-130.82380538 173.6323966 -133.22332806 175.99431828 -135.6875 178.5 C-136.61046875 179.4384375 -137.5334375 180.376875 -138.484375 181.34375 C-140.54160978 183.51598548 -142.50857983 185.7152596 -144.4375 188 C-148.66466349 192.94005804 -153.53782682 197.18285659 -158.36328125 201.52050781 C-161.69442265 204.53165293 -164.97730079 207.59553563 -168.26831055 210.65039062 C-171.60913978 213.74276174 -175.00706539 216.75672722 -178.4375 219.75 C-182.5806952 223.44710893 -185.91193944 227.39301534 -189 232 C-188.21625 232.474375 -187.4325 232.94875 -186.625 233.4375 C-179.41442597 238.27302713 -173.1080196 244.24572762 -168.15625 251.37109375 C-166.96255131 253.14899087 -166.96255131 253.14899087 -165 255 C-163.30710619 253.50609009 -161.62099368 252.00449502 -159.9375 250.5 C-158.99777344 249.6646875 -158.05804688 248.829375 -157.08984375 247.96875 C-154.09703834 245.1899585 -151.45788926 242.15935277 -148.79663086 239.06591797 C-145.89408313 235.72832334 -142.8505642 232.52636974 -139.8125 229.3125 C-134.19000999 223.35034663 -134.19000999 223.35034663 -128.640625 217.3203125 C-123.92694322 212.13577673 -119.22724123 207.11872814 -113.859375 202.59375 C-108.8133139 198.26855477 -104.35890791 193.5549939 -100.30078125 188.296875 C-96.24748503 183.19211761 -91.84238516 178.61637322 -87.1875 174.0625 C-86.37434326 173.2569165 -85.56118652 172.45133301 -84.72338867 171.62133789 C-81.28969339 168.21993958 -77.84405201 164.83073989 -74.39941406 161.44042969 C-71.86622148 158.94368592 -69.33927181 156.44073901 -66.8125 153.9375 C-66.04768311 153.18927979 -65.28286621 152.44105957 -64.49487305 151.67016602 C-59.86854752 147.08545965 -55.70412552 142.31081757 -51.70950317 137.16511536 C-46.62017921 130.71939848 -40.43414672 125.07958952 -34 120 C-38.00620442 115.07809171 -42.33616202 110.55349248 -46.8125 106.0625 C-47.6936145 105.17461792 -47.6936145 105.17461792 -48.5925293 104.26879883 C-51.62349398 100.20900231 -51.62349398 100.20900231 -55.25585938 101.25 Z M-245 180 C-251.20177867 187.4831379 -254.52975798 196.586178 -258.30664062 205.43701172 C-265.93323102 223.29333237 -274.28374014 237.28764211 -292.5 245.6875 C-297.82661631 247.79678666 -303.11933692 248.87497746 -308.74291992 249.77734375 C-342.39953087 255.2227104 -376.60564875 265.5618736 -397.70703125 294.20068359 C-411.23852428 313.31105066 -418.67891126 333.67273024 -414.9375 357.1875 C-411.98541062 373.72624699 -403.75959181 391.29554727 -393.234375 404.3671875 C-392 406 -392 406 -390.4375 409.1875 C-388.72763127 412.53289534 -386.72221813 414.39613918 -384 417 C-382.6515536 418.49358011 -381.31282145 419.99595217 -379.98046875 421.50390625 C-374.97909704 427.08422462 -369.7467297 432.40133719 -364.4375 437.6875 C-363.09655273 439.03424805 -363.09655273 439.03424805 -361.72851562 440.40820312 C-354.4687631 447.65733421 -347.35538002 454.52911782 -338.5625 459.875 C-337.88147217 460.29354248 -337.20044434 460.71208496 -336.4987793 461.14331055 C-314.20887895 474.66783413 -289.64091513 486.78190024 -263 480.3125 C-247.11476699 476.13296538 -234.54539884 468.4716095 -222 458 C-221.02417969 457.22527344 -220.04835937 456.45054687 -219.04296875 455.65234375 C-208.82189131 447.0987876 -202.19086723 435.06219635 -197 423 C-196.29979736 421.40599365 -196.29979736 421.40599365 -195.58544922 419.77978516 C-191.50995243 410.12053686 -188.95594498 400.48056517 -186.75 390.25 C-186.40995831 388.7250138 -186.06881524 387.20027275 -185.7265625 385.67578125 C-184.3337246 379.42138711 -183.00189997 373.18223642 -181.953125 366.859375 C-179.69232568 354.07399811 -171.63032739 342.68121619 -161.30859375 334.99609375 C-157.04277492 332.42250057 -152.63356572 330.29931889 -148.125 328.1875 C-147.19969482 327.74809082 -146.27438965 327.30868164 -145.32104492 326.85595703 C-140.36558751 324.51809839 -135.38418401 322.29797667 -130.31958008 320.20849609 C-122.93393758 317.14140164 -116.811481 313.5742777 -111 308 C-110.35675781 307.38511719 -109.71351563 306.77023437 -109.05078125 306.13671875 C-99.76318547 296.40589714 -95.13915417 283.22517882 -94.5 269.9375 C-94.9144749 254.262813 -100.88202146 238.62489336 -110 226 C-115.32161947 230.43931441 -120.25624013 235.13391605 -125.125 240.0625 C-126.15947266 241.10374023 -126.15947266 241.10374023 -127.21484375 242.16601562 C-128.55200858 243.51212898 -129.88791553 244.85949332 -131.22241211 246.20825195 C-132.6858118 247.68330899 -134.1598409 249.14781292 -135.63671875 250.609375 C-138.9440442 253.95496702 -142.10138499 257.43050793 -145.25341797 260.92211914 C-148.52984226 264.51815787 -151.96260827 267.72692727 -155.625 270.9375 C-160.4945478 275.72963051 -161.05825139 279.70231863 -161.61328125 286.35546875 C-163.09649934 300.33367557 -170.85867342 312.25199476 -181.5625 321.0625 C-193.40541579 329.47117835 -206.76125575 331.35433637 -221 330 C-234.44002431 327.35488883 -246.55797866 320.66293233 -254.82421875 309.546875 C-263.37171027 295.85366441 -266.21305853 281.15285286 -263.31640625 265.24609375 C-261.34167939 258.30587114 -258.40812325 252.68415893 -254 247 C-253.278125 245.989375 -252.55625 244.97875 -251.8125 243.9375 C-244.82565951 235.95253944 -235.17476931 230.6507647 -225 228 C-222.60458657 227.92307089 -220.20865584 227.86108801 -217.8125 227.8125 C-207.92417138 226.82879062 -202.65147366 219.58100967 -196.2890625 212.55078125 C-192.858242 208.76333806 -189.21890546 205.77473816 -185.13256836 202.72924805 C-182.31611659 200.4454555 -180.09271853 197.84466287 -177.77294922 195.0703125 C-174.5813357 191.34339393 -171.05073693 187.94674829 -167.5625 184.5 C-166.46518555 183.40945312 -166.46518555 183.40945312 -165.34570312 182.296875 C-163.56610176 180.52890501 -161.78419082 178.76333622 -160 177 C-185.56734156 155.73970164 -221.85863348 154.94246937 -245 180 Z M-238 256 C-238.7425 256.763125 -239.485 257.52625 -240.25 258.3125 C-245.54343618 266.44170556 -247.86495515 275.25964928 -246.5 284.875 C-244.10914926 295.05590743 -237.6518066 302.48747739 -229 308 C-228.34 308.42152344 -227.68 308.84304688 -227 309.27734375 C-219.83732895 313.33522795 -212.81637697 313.62530349 -204.875 311.875 C-195.83434301 309.30518457 -187.40223931 304.0931013 -182.7109375 295.69140625 C-178.03402297 285.4459352 -177.52745232 275.51299259 -181 264.6875 C-184.11820156 256.91359028 -187.63228276 252.18923758 -195.171875 248.41015625 C-210.91489123 242.09545752 -226.02382022 243.54022152 -238 256 Z " fill="#ECECEC" transform="translate(433,1)"/>
<path d="M0 0 C7.90662916 4.79769647 14.36786954 12.0939333 20.83007812 18.62426758 C22.62317363 20.435655 24.42417766 22.23887581 26.2265625 24.04101562 C31.51834064 29.34983969 36.70257099 34.67763048 41.57128906 40.38208008 C43.73053012 42.82727667 46.12447191 44.96163154 48.5625 47.125 C54.55918878 52.55044415 60.33817428 58.19085385 66.07077026 63.89251709 C67.05779485 64.87342338 68.04664157 65.85249989 69.03738403 66.82965088 C70.44813637 68.22228652 71.8511322 69.62276582 73.25390625 71.0234375 C74.07189697 71.83731934 74.8898877 72.65120117 75.73266602 73.48974609 C78.94981513 77.05157738 81.71568218 80.25855333 82.5 85.0625 C81.86010666 88.82187339 80.79971653 90.42131372 78 93 C74.39414939 94.25420891 72.70132325 94.29213741 69.16796875 92.8203125 C65.75607534 90.85984107 63.01275877 88.57459126 60.1875 85.875 C59.64270996 85.36291992 59.09791992 84.85083984 58.53662109 84.32324219 C53.66184243 79.70531693 48.88613601 74.98461882 44.125 70.25 C43.07348755 69.20561768 43.07348755 69.20561768 42.00073242 68.14013672 C38.03159628 64.15827143 34.23767859 60.07922012 30.58129883 55.80786133 C26.82686377 51.51550505 22.75007418 47.60797949 18.4140625 43.91015625 C13.33601376 39.48477391 8.5755867 34.75953481 3.8125 30 C2.93658203 29.13632812 2.06066406 28.27265625 1.15820312 27.3828125 C-10.06701488 16.18312569 -10.06701488 16.18312569 -12.0625 9.375 C-11.98536026 5.20945381 -10.94474615 3.86061055 -8 1 C-4.96367283 -0.51816358 -3.41052601 -0.49607651 0 0 Z " fill="#EBEBEB" transform="translate(89,329)"/>
<path d="M0 0 C0.33 0.99 0.66 1.98 1 3 C-7.25 11.25 -15.5 19.5 -24 28 C-24.99 27.67 -25.98 27.34 -27 27 C-18 18 -9 9 0 0 Z " fill="#A1A1A1" transform="translate(273,177)"/>
<path d="M0 0 C0 3 0 3 -2.34375 5.671875 C-3.38758616 6.70630572 -4.44022619 7.73190358 -5.5 8.75 C-6.3199646 9.55352905 -6.3199646 9.55352905 -7.15649414 10.37329102 C-10.76698561 13.88607246 -14.47331065 17.26445354 -18.30859375 20.53125 C-20.66285302 22.57559523 -22.83014011 24.76233199 -25 27 C-25.66 26.67 -26.32 26.34 -27 26 C-23.47942591 22.45474011 -19.95560514 18.9127519 -16.42871094 15.3737793 C-15.22891468 14.16894871 -14.03001674 12.96322288 -12.83203125 11.7565918 C-11.11172077 10.02417648 -9.38822456 8.2949873 -7.6640625 6.56640625 C-7.12754059 6.02472305 -6.59101868 5.48303986 -6.03823853 4.92494202 C-2.22774341 1.11387171 -2.22774341 1.11387171 0 0 Z " fill="#8A8A8A" transform="translate(327,126)"/>
<path d="M0 0 C0.66 0.33 1.32 0.66 2 1 C1.45730469 1.53109375 0.91460937 2.0621875 0.35546875 2.609375 C-0.71767578 3.66898438 -0.71767578 3.66898438 -1.8125 4.75 C-2.87404297 5.79414063 -2.87404297 5.79414063 -3.95703125 6.859375 C-6.03281493 8.93721763 -6.03281493 8.93721763 -7.63671875 11.265625 C-8.08660156 11.83796875 -8.53648437 12.4103125 -9 13 C-9.66 13 -10.32 13 -11 13 C-9.46356148 9.31930113 -7.21849055 7.01224796 -4.375 4.25 C-3.55773437 3.45078125 -2.74046875 2.6515625 -1.8984375 1.828125 C-0.95871094 0.92320312 -0.95871094 0.92320312 0 0 Z " fill="#D4D4D4" transform="translate(290,233)"/>
<path d="M0 0 C0.99 0.33 1.98 0.66 3 1 C0.03 3.97 -2.94 6.94 -6 10 C-6.66 9.67 -7.32 9.34 -8 9 C-6.85459775 7.68712379 -5.70866567 6.37470979 -4.5625 5.0625 C-3.92441406 4.33160156 -3.28632813 3.60070312 -2.62890625 2.84765625 C-1.77458541 1.87860647 -0.91348825 0.91348825 0 0 Z " fill="#C2C2C2" transform="translate(34,269)"/>
</svg>
