<svg version="1.1" id="Layer_1" xmlns="http://www.w3.org/2000/svg" xmlns:xlink="http://www.w3.org/1999/xlink" x="0px" y="0px"
	 width="100%" viewBox="0 0 2048 2048" enable-background="new 0 0 2048 2048" xml:space="preserve">
<path fill="#1A1A1A" opacity="1.000000" stroke="none" 
	d="
M961.000000,1.000003 
	C1003.020935,1.000000 1045.041870,1.000000 1087.780640,1.281572 
	C1090.052734,2.029669 1091.581543,2.775510 1093.165039,2.919647 
	C1109.570068,4.412842 1126.029419,5.414804 1142.386475,7.307624 
	C1187.774048,12.559827 1232.582275,20.939297 1276.775757,32.661472 
	C1314.984253,42.796146 1352.523071,54.935833 1389.380005,69.181740 
	C1433.730347,86.323975 1476.636108,106.556839 1518.255249,129.561798 
	C1553.729492,149.170074 1587.754639,171.023575 1620.764771,194.513382 
	C1662.487305,224.202728 1701.309082,257.382721 1738.137085,292.860107 
	C1755.031738,309.135284 1771.522095,325.971313 1786.793091,343.757233 
	C1808.787842,369.374054 1830.477417,395.371521 1850.490845,422.537292 
	C1870.316162,449.447632 1888.714600,477.506836 1906.263794,505.971619 
	C1928.390625,541.861633 1947.276855,579.552490 1964.209717,618.216980 
	C1985.773682,667.456604 2003.542603,717.998413 2017.183472,769.975098 
	C2033.120850,830.703125 2043.369507,892.371277 2047.113770,955.086304 
	C2047.213501,956.755798 2048.348145,958.363464 2049.000000,960.000000 
	C2049.000000,1002.020935 2049.000000,1044.041870 2048.718750,1086.780884 
	C2047.970459,1089.053589 2047.226807,1090.582397 2047.079590,1092.166748 
	C2045.709961,1106.908203 2044.640015,1121.679932 2043.109131,1136.403931 
	C2038.313354,1182.530762 2029.795166,1227.975830 2018.083496,1272.851196 
	C2006.119385,1318.693604 1991.078491,1363.478271 1973.109741,1407.310547 
	C1957.357056,1445.736816 1939.135742,1482.973389 1918.781982,1519.126587 
	C1894.080933,1563.001587 1866.158447,1604.765259 1835.373413,1644.661377 
	C1808.074707,1680.039062 1778.189209,1713.095581 1747.211914,1745.196655 
	C1737.178101,1755.594482 1726.444214,1765.364014 1715.561890,1774.885254 
	C1694.665039,1793.168457 1673.774902,1811.487915 1652.259521,1829.028687 
	C1621.116333,1854.418579 1587.938843,1877.044189 1553.709351,1898.048096 
	C1522.331177,1917.302124 1490.230957,1935.318604 1456.695923,1950.615234 
	C1437.758301,1959.253540 1418.882080,1968.087402 1399.597778,1975.892944 
	C1347.476929,1996.989258 1294.006470,2013.913818 1239.103394,2026.208862 
	C1191.081787,2036.963135 1142.504761,2043.799438 1093.412842,2047.097168 
	C1091.574341,2047.220703 1089.802734,2048.343018 1088.000000,2049.000000 
	C1045.979126,2049.000000 1003.958191,2049.000000 961.220093,2048.718750 
	C954.968018,2047.659424 949.444580,2046.786865 943.896301,2046.119629 
	C914.816650,2042.622681 885.586060,2040.089966 856.679810,2035.507202 
	C809.563416,2028.037354 763.392700,2016.221558 718.028564,2001.436279 
	C661.704956,1983.079102 606.826233,1961.142334 554.755920,1932.747437 
	C528.016602,1918.166016 501.292664,1903.368774 475.746582,1886.838135 
	C448.795502,1869.398438 422.821808,1850.350952 397.209961,1830.963867 
	C366.398560,1807.641113 337.661163,1781.772217 310.252625,1754.541504 
	C293.615936,1738.012817 277.407166,1720.978027 262.009857,1703.296631 
	C243.329086,1681.845093 225.105286,1659.934570 207.764877,1637.390991 
	C181.133667,1602.768799 156.751846,1566.508789 135.673599,1528.230591 
	C119.857742,1499.509155 104.566315,1470.425781 90.652061,1440.748413 
	C72.542496,1402.122803 57.391396,1362.197266 45.400589,1321.227173 
	C36.936569,1292.307617 28.936155,1263.187866 22.377869,1233.789673 
	C12.033623,1187.420044 5.742733,1140.379150 2.886636,1092.913086 
	C2.786189,1091.243652 1.652264,1089.636230 1.000010,1088.000000 
	C1.000000,1045.645752 1.000000,1003.291565 1.281785,960.219727 
	C2.030518,957.947998 2.779283,956.418823 2.919506,954.835815 
	C3.975971,942.909119 4.783146,930.959595 5.910340,919.040100 
	C9.836730,877.520569 17.041105,836.519348 26.559855,795.959229 
	C38.567692,744.792969 54.754940,694.892029 74.499283,646.198486 
	C88.336861,612.072266 104.250580,578.887634 121.723984,546.451050 
	C147.291336,498.989410 176.539383,453.927795 209.004227,410.902740 
	C231.180695,381.512634 254.714798,353.232605 280.122467,326.651917 
	C305.537415,300.063629 331.802032,274.294067 359.843536,250.352158 
	C388.499115,225.885910 418.129364,202.746399 449.101440,181.336105 
	C501.022278,145.444443 555.738647,114.482849 613.402649,88.740150 
	C662.319214,66.902550 712.581909,48.932045 764.284424,34.877098 
	C827.163269,17.783979 891.045532,6.934193 956.086853,2.886669 
	C957.757202,2.782723 959.363708,1.651920 961.000000,1.000003 
M209.705734,800.184326 
	C199.661377,834.803650 192.370010,870.012756 187.232834,905.674194 
	C181.765884,943.625061 178.774200,981.766113 179.037292,1020.123779 
	C179.136627,1034.604126 179.378510,1049.094604 180.056351,1063.557007 
	C180.819565,1079.840820 181.620544,1096.154175 183.332840,1112.356445 
	C187.855591,1155.152344 195.658188,1197.356689 206.941803,1238.928833 
	C221.253281,1291.656738 240.383377,1342.570557 263.974060,1391.800171 
	C279.317322,1423.818604 296.823975,1454.672607 316.060181,1484.518433 
	C348.012146,1534.093140 384.967072,1579.712646 426.378937,1621.633667 
	C441.908447,1637.354492 458.210571,1652.453613 475.270691,1666.486328 
	C499.024780,1686.025269 523.177002,1705.212280 548.315125,1722.907104 
	C592.557739,1754.049683 639.877808,1779.955811 689.633118,1801.338135 
	C742.898743,1824.228882 797.784546,1842.018555 854.528503,1853.997681 
	C900.580017,1863.719604 947.198853,1869.128906 994.175171,1870.789673 
	C1029.794800,1872.049072 1065.455322,1871.169312 1100.974487,1867.760864 
	C1134.315063,1864.561279 1167.345581,1859.413452 1200.113403,1852.275635 
	C1264.573853,1838.234131 1326.299561,1816.413696 1385.743652,1788.047363 
	C1425.340210,1769.152100 1462.919189,1746.753052 1499.140259,1721.957520 
	C1537.300659,1695.834717 1573.037109,1666.742310 1606.363892,1634.808105 
	C1625.211792,1616.748047 1642.817505,1597.349854 1660.415771,1578.037598 
	C1684.682617,1551.407227 1706.129517,1522.514893 1726.180542,1492.619385 
	C1755.576538,1448.790161 1780.622314,1402.542358 1801.327759,1354.011597 
	C1823.934204,1301.025513 1841.896606,1246.519531 1853.508667,1190.007935 
	C1864.503540,1136.500244 1870.134033,1082.475586 1870.073242,1027.820923 
	C1870.037842,996.159180 1868.647949,964.626099 1865.259766,933.127563 
	C1861.690796,899.947266 1856.024658,867.167175 1848.379517,834.723511 
	C1837.619019,789.058594 1823.584839,744.358948 1804.517700,701.510864 
	C1790.584961,670.201172 1775.395752,639.365723 1759.127930,609.202515 
	C1741.013062,575.614563 1719.165039,544.307495 1695.980469,513.934875 
	C1675.748169,487.429871 1653.776978,462.477570 1630.781372,438.406067 
	C1621.703369,428.903595 1612.088013,419.890717 1602.400513,411.000275 
	C1589.285400,398.964417 1576.237671,386.808228 1562.500366,375.506805 
	C1531.342041,349.873383 1498.590088,326.470551 1464.130493,305.361298 
	C1424.542114,281.110107 1383.355957,260.162872 1340.424683,242.622681 
	C1286.601074,220.632309 1231.232178,203.799408 1173.992188,193.237183 
	C1134.621826,185.972336 1094.920288,181.376617 1054.955444,180.238174 
	C1020.687317,179.261993 986.307007,178.842102 952.157349,182.978851 
	C923.253723,186.480118 894.261536,189.720078 865.624878,194.843628 
	C824.252197,202.245850 783.874817,213.803986 744.286316,228.022034 
	C708.040588,241.039581 672.721619,256.113098 638.418457,273.694550 
	C594.120239,296.398804 551.871277,322.359100 512.703308,353.013641 
	C488.619995,371.862305 465.040985,391.511566 442.661682,412.334198 
	C423.199677,430.442413 405.418365,450.409424 387.475922,470.085327 
	C364.329834,495.467651 343.874451,523.025696 324.750732,551.522400 
	C300.588654,587.526978 279.153748,625.088257 260.696594,664.384949 
	C240.178085,708.070251 223.243668,753.045593 209.705734,800.184326 
z"/>
<path fill="#000000" opacity="1.000000" stroke="none" 
	d="
M1088.468628,2049.000000 
	C1089.802734,2048.343018 1091.574341,2047.220703 1093.412842,2047.097168 
	C1142.504761,2043.799438 1191.081787,2036.963135 1239.103394,2026.208862 
	C1294.006470,2013.913818 1347.476929,1996.989258 1399.597778,1975.892944 
	C1418.882080,1968.087402 1437.758301,1959.253540 1456.695923,1950.615234 
	C1490.230957,1935.318604 1522.331177,1917.302124 1553.709351,1898.048096 
	C1587.938843,1877.044189 1621.116333,1854.418579 1652.259521,1829.028687 
	C1673.774902,1811.487915 1694.665039,1793.168457 1715.561890,1774.885254 
	C1726.444214,1765.364014 1737.178101,1755.594482 1747.211914,1745.196655 
	C1778.189209,1713.095581 1808.074707,1680.039062 1835.373413,1644.661377 
	C1866.158447,1604.765259 1894.080933,1563.001587 1918.781982,1519.126587 
	C1939.135742,1482.973389 1957.357056,1445.736816 1973.109741,1407.310547 
	C1991.078491,1363.478271 2006.119385,1318.693604 2018.083496,1272.851196 
	C2029.795166,1227.975830 2038.313354,1182.530762 2043.109131,1136.403931 
	C2044.640015,1121.679932 2045.709961,1106.908203 2047.079590,1092.166748 
	C2047.226807,1090.582397 2047.970459,1089.053589 2048.718750,1087.249512 
	C2049.000000,1407.593750 2049.000000,1728.187500 2049.000000,2049.000000 
	C1728.979126,2049.000000 1408.958130,2049.000000 1088.468628,2049.000000 
z"/>
<path fill="#000000" opacity="1.000000" stroke="none" 
	d="
M960.531372,1.000003 
	C959.363708,1.651920 957.757202,2.782723 956.086853,2.886669 
	C891.045532,6.934193 827.163269,17.783979 764.284424,34.877098 
	C712.581909,48.932045 662.319214,66.902550 613.402649,88.740150 
	C555.738647,114.482849 501.022278,145.444443 449.101440,181.336105 
	C418.129364,202.746399 388.499115,225.885910 359.843536,250.352158 
	C331.802032,274.294067 305.537415,300.063629 280.122467,326.651917 
	C254.714798,353.232605 231.180695,381.512634 209.004227,410.902740 
	C176.539383,453.927795 147.291336,498.989410 121.723984,546.451050 
	C104.250580,578.887634 88.336861,612.072266 74.499283,646.198486 
	C54.754940,694.892029 38.567692,744.792969 26.559855,795.959229 
	C17.041105,836.519348 9.836730,877.520569 5.910340,919.040100 
	C4.783146,930.959595 3.975971,942.909119 2.919506,954.835815 
	C2.779283,956.418823 2.030518,957.947998 1.281785,959.751038 
	C1.000000,640.406189 1.000000,320.812378 1.000000,1.000000 
	C320.687531,1.000000 640.375122,1.000000 960.531372,1.000003 
z"/>
<path fill="#000000" opacity="1.000000" stroke="none" 
	d="
M1.000010,1088.468628 
	C1.652264,1089.636230 2.786189,1091.243652 2.886636,1092.913086 
	C5.742733,1140.379150 12.033623,1187.420044 22.377869,1233.789673 
	C28.936155,1263.187866 36.936569,1292.307617 45.400589,1321.227173 
	C57.391396,1362.197266 72.542496,1402.122803 90.652061,1440.748413 
	C104.566315,1470.425781 119.857742,1499.509155 135.673599,1528.230591 
	C156.751846,1566.508789 181.133667,1602.768799 207.764877,1637.390991 
	C225.105286,1659.934570 243.329086,1681.845093 262.009857,1703.296631 
	C277.407166,1720.978027 293.615936,1738.012817 310.252625,1754.541504 
	C337.661163,1781.772217 366.398560,1807.641113 397.209961,1830.963867 
	C422.821808,1850.350952 448.795502,1869.398438 475.746582,1886.838135 
	C501.292664,1903.368774 528.016602,1918.166016 554.755920,1932.747437 
	C606.826233,1961.142334 661.704956,1983.079102 718.028564,2001.436279 
	C763.392700,2016.221558 809.563416,2028.037354 856.679810,2035.507202 
	C885.586060,2040.089966 914.816650,2042.622681 943.896301,2046.119629 
	C949.444580,2046.786865 954.968018,2047.659424 960.751465,2048.718750 
	C641.072876,2049.000000 321.145721,2049.000000 1.000000,2049.000000 
	C1.000000,1728.979126 1.000000,1408.958130 1.000010,1088.468628 
z"/>
<path fill="#000000" opacity="1.000000" stroke="none" 
	d="
M2049.000000,959.531372 
	C2048.348145,958.363464 2047.213501,956.755798 2047.113770,955.086304 
	C2043.369507,892.371277 2033.120850,830.703125 2017.183472,769.975098 
	C2003.542603,717.998413 1985.773682,667.456604 1964.209717,618.216980 
	C1947.276855,579.552490 1928.390625,541.861633 1906.263794,505.971619 
	C1888.714600,477.506836 1870.316162,449.447632 1850.490845,422.537292 
	C1830.477417,395.371521 1808.787842,369.374054 1786.793091,343.757233 
	C1771.522095,325.971313 1755.031738,309.135284 1738.137085,292.860107 
	C1701.309082,257.382721 1662.487305,224.202728 1620.764771,194.513382 
	C1587.754639,171.023575 1553.729492,149.170074 1518.255249,129.561798 
	C1476.636108,106.556839 1433.730347,86.323975 1389.380005,69.181740 
	C1352.523071,54.935833 1314.984253,42.796146 1276.775757,32.661472 
	C1232.582275,20.939297 1187.774048,12.559827 1142.386475,7.307624 
	C1126.029419,5.414804 1109.570068,4.412842 1093.165039,2.919647 
	C1091.581543,2.775510 1090.052734,2.029669 1088.249268,1.281572 
	C1408.260376,1.000000 1728.520630,1.000000 2049.000000,1.000000 
	C2049.000000,320.354187 2049.000000,639.708435 2049.000000,959.531372 
z"/>
<path fill="#000000" opacity="1.000000" stroke="none" 
	d="
M209.804993,799.793396 
	C223.243668,753.045593 240.178085,708.070251 260.696594,664.384949 
	C279.153748,625.088257 300.588654,587.526978 324.750732,551.522400 
	C343.874451,523.025696 364.329834,495.467651 387.475922,470.085327 
	C405.418365,450.409424 423.199677,430.442413 442.661682,412.334198 
	C465.040985,391.511566 488.619995,371.862305 512.703308,353.013641 
	C551.871277,322.359100 594.120239,296.398804 638.418457,273.694550 
	C672.721619,256.113098 708.040588,241.039581 744.286316,228.022034 
	C783.874817,213.803986 824.252197,202.245850 865.624878,194.843628 
	C894.261536,189.720078 923.253723,186.480118 952.157349,182.978851 
	C986.307007,178.842102 1020.687317,179.261993 1054.955444,180.238174 
	C1094.920288,181.376617 1134.621826,185.972336 1173.992188,193.237183 
	C1231.232178,203.799408 1286.601074,220.632309 1340.424683,242.622681 
	C1383.355957,260.162872 1424.542114,281.110107 1464.130493,305.361298 
	C1498.590088,326.470551 1531.342041,349.873383 1562.500366,375.506805 
	C1576.237671,386.808228 1589.285400,398.964417 1602.400513,411.000275 
	C1612.088013,419.890717 1621.703369,428.903595 1630.781372,438.406067 
	C1653.776978,462.477570 1675.748169,487.429871 1695.980469,513.934875 
	C1719.165039,544.307495 1741.013062,575.614563 1759.127930,609.202515 
	C1775.395752,639.365723 1790.584961,670.201172 1804.517700,701.510864 
	C1823.584839,744.358948 1837.619019,789.058594 1848.379517,834.723511 
	C1856.024658,867.167175 1861.690796,899.947266 1865.259766,933.127563 
	C1868.647949,964.626099 1870.037842,996.159180 1870.073242,1027.820923 
	C1870.134033,1082.475586 1864.503540,1136.500244 1853.508667,1190.007935 
	C1841.896606,1246.519531 1823.934204,1301.025513 1801.327759,1354.011597 
	C1780.622314,1402.542358 1755.576538,1448.790161 1726.180542,1492.619385 
	C1706.129517,1522.514893 1684.682617,1551.407227 1660.415771,1578.037598 
	C1642.817505,1597.349854 1625.211792,1616.748047 1606.363892,1634.808105 
	C1573.037109,1666.742310 1537.300659,1695.834717 1499.140259,1721.957520 
	C1462.919189,1746.753052 1425.340210,1769.152100 1385.743652,1788.047363 
	C1326.299561,1816.413696 1264.573853,1838.234131 1200.113403,1852.275635 
	C1167.345581,1859.413452 1134.315063,1864.561279 1100.974487,1867.760864 
	C1065.455322,1871.169312 1029.794800,1872.049072 994.175171,1870.789673 
	C947.198853,1869.128906 900.580017,1863.719604 854.528503,1853.997681 
	C797.784546,1842.018555 742.898743,1824.228882 689.633118,1801.338135 
	C639.877808,1779.955811 592.557739,1754.049683 548.315125,1722.907104 
	C523.177002,1705.212280 499.024780,1686.025269 475.270691,1666.486328 
	C458.210571,1652.453613 441.908447,1637.354492 426.378937,1621.633667 
	C384.967072,1579.712646 348.012146,1534.093140 316.060181,1484.518433 
	C296.823975,1454.672607 279.317322,1423.818604 263.974060,1391.800171 
	C240.383377,1342.570557 221.253281,1291.656738 206.941803,1238.928833 
	C195.658188,1197.356689 187.855591,1155.152344 183.332840,1112.356445 
	C181.620544,1096.154175 180.819565,1079.840820 180.056351,1063.557007 
	C179.378510,1049.094604 179.136627,1034.604126 179.037292,1020.123779 
	C178.774200,981.766113 181.765884,943.625061 187.232834,905.674194 
	C192.370010,870.012756 199.661377,834.803650 209.804993,799.793396 
M507.999420,975.499634 
	C493.388702,990.783752 478.766724,1006.057251 464.174927,1021.359436 
	C460.450806,1025.264893 460.403442,1027.545166 464.225647,1031.649658 
	C470.914795,1038.833130 477.727234,1045.902100 484.508270,1052.999634 
	C498.993683,1068.161133 513.495605,1083.307007 527.984558,1098.465088 
	C549.719543,1121.203979 571.450378,1143.946777 593.180847,1166.689819 
	C607.664246,1181.848145 622.113403,1197.039185 636.633484,1212.162231 
	C653.928284,1230.175171 671.326904,1248.088501 688.595825,1266.126099 
	C700.213928,1278.261230 711.636597,1290.583252 723.234436,1302.738037 
	C738.976318,1319.236084 754.813965,1335.642456 770.588074,1352.109741 
	C784.289429,1366.413086 797.920654,1380.783813 811.652771,1395.057495 
	C831.040955,1415.210205 850.536865,1435.259277 869.875244,1455.459595 
	C873.001953,1458.725586 876.413513,1460.061401 880.912903,1460.057617 
	C975.906738,1459.977661 1070.900635,1460.000610 1165.894531,1459.972778 
	C1167.782227,1459.972290 1169.669800,1459.601440 1172.656738,1459.287964 
	C1171.150635,1457.248169 1170.422729,1456.033203 1169.478149,1455.020264 
	C1163.691895,1448.815308 1157.938110,1442.576660 1152.021606,1436.497070 
	C1137.039917,1421.102661 1121.968628,1405.795654 1106.950562,1390.436523 
	C1092.980835,1376.149414 1079.041260,1361.832886 1065.074585,1347.542969 
	C1050.176025,1332.299683 1035.258301,1317.075317 1020.354736,1301.837036 
	C1005.799011,1286.954590 991.248901,1272.066528 976.699280,1257.178101 
	C962.267761,1242.410400 947.879395,1227.600342 933.401733,1212.878052 
	C910.511169,1189.600708 887.557190,1166.385864 864.651062,1143.123901 
	C863.473511,1141.928101 862.492615,1140.538696 860.397339,1138.000000 
	C864.815369,1138.000000 867.602112,1138.000000 870.388855,1138.000000 
	C1090.874634,1138.000000 1311.360474,1138.000122 1531.846313,1137.999268 
	C1543.000488,1137.999268 1543.004150,1137.995117 1543.004395,1126.654663 
	C1543.005615,1059.492310 1543.005737,992.329895 1543.004272,925.167542 
	C1543.004150,914.004456 1542.999756,914.000610 1531.661377,914.000610 
	C1338.840454,913.999817 1146.019531,914.000000 953.198608,913.999817 
	C925.033752,913.999817 896.868896,914.011353 868.704102,913.971985 
	C866.703125,913.969177 864.702698,913.589905 861.800842,913.293701 
	C869.132935,905.392700 875.545837,898.234253 882.225769,891.334412 
	C897.167114,875.901367 912.244812,860.600464 927.260559,845.239502 
	C941.229919,830.949036 955.187317,816.646667 969.156677,802.356201 
	C984.172791,786.994812 999.200134,771.644531 1014.216431,756.283325 
	C1028.186646,741.992249 1042.143677,727.688354 1056.115723,713.399048 
	C1071.482788,697.683228 1086.832031,681.949890 1102.239868,666.274170 
	C1124.426025,643.702209 1146.664185,621.181396 1168.852661,598.611816 
	C1170.035278,597.408936 1170.964233,595.956665 1172.777588,593.642639 
	C1169.242188,593.359619 1167.008301,593.027710 1164.774048,593.024963 
	C1135.609253,592.989502 1106.444458,592.999939 1077.279663,593.000122 
	C1011.783875,593.000549 946.287964,593.056274 880.792480,592.910339 
	C874.852234,592.897095 870.452087,594.624512 867.391479,599.706909 
	C866.882935,600.551392 866.153015,601.275452 865.463867,601.996277 
	C843.265076,625.216736 821.056091,648.427490 798.854675,671.645386 
	C784.709961,686.437561 770.578308,701.242310 756.434631,716.035522 
	C734.348877,739.135498 712.256409,762.229065 690.169495,785.327881 
	C675.908569,800.242126 661.653687,815.162231 647.393982,830.077637 
	C632.669800,845.478943 617.942078,860.876770 603.217957,876.278137 
	C588.958008,891.193848 574.724182,906.134766 560.435913,921.023254 
	C543.147278,939.037964 525.813477,957.009338 507.999420,975.499634 
z"/>
<path fill="#1A1A1A" opacity="1.000000" stroke="none" 
	d="
M508.249329,975.249573 
	C525.813477,957.009338 543.147278,939.037964 560.435913,921.023254 
	C574.724182,906.134766 588.958008,891.193848 603.217957,876.278137 
	C617.942078,860.876770 632.669800,845.478943 647.393982,830.077637 
	C661.653687,815.162231 675.908569,800.242126 690.169495,785.327881 
	C712.256409,762.229065 734.348877,739.135498 756.434631,716.035522 
	C770.578308,701.242310 784.709961,686.437561 798.854675,671.645386 
	C821.056091,648.427490 843.265076,625.216736 865.463867,601.996277 
	C866.153015,601.275452 866.882935,600.551392 867.391479,599.706909 
	C870.452087,594.624512 874.852234,592.897095 880.792480,592.910339 
	C946.287964,593.056274 1011.783875,593.000549 1077.279663,593.000122 
	C1106.444458,592.999939 1135.609253,592.989502 1164.774048,593.024963 
	C1167.008301,593.027710 1169.242188,593.359619 1172.777588,593.642639 
	C1170.964233,595.956665 1170.035278,597.408936 1168.852661,598.611816 
	C1146.664185,621.181396 1124.426025,643.702209 1102.239868,666.274170 
	C1086.832031,681.949890 1071.482788,697.683228 1056.115723,713.399048 
	C1042.143677,727.688354 1028.186646,741.992249 1014.216431,756.283325 
	C999.200134,771.644531 984.172791,786.994812 969.156677,802.356201 
	C955.187317,816.646667 941.229919,830.949036 927.260559,845.239502 
	C912.244812,860.600464 897.167114,875.901367 882.225769,891.334412 
	C875.545837,898.234253 869.132935,905.392700 861.800842,913.293701 
	C864.702698,913.589905 866.703125,913.969177 868.704102,913.971985 
	C896.868896,914.011353 925.033752,913.999817 953.198608,913.999817 
	C1146.019531,914.000000 1338.840454,913.999817 1531.661377,914.000610 
	C1542.999756,914.000610 1543.004150,914.004456 1543.004272,925.167542 
	C1543.005737,992.329895 1543.005615,1059.492310 1543.004395,1126.654663 
	C1543.004150,1137.995117 1543.000488,1137.999268 1531.846313,1137.999268 
	C1311.360474,1138.000122 1090.874634,1138.000000 870.388855,1138.000000 
	C867.602112,1138.000000 864.815369,1138.000000 860.397339,1138.000000 
	C862.492615,1140.538696 863.473511,1141.928101 864.651062,1143.123901 
	C887.557190,1166.385864 910.511169,1189.600708 933.401733,1212.878052 
	C947.879395,1227.600342 962.267761,1242.410400 976.699280,1257.178101 
	C991.248901,1272.066528 1005.799011,1286.954590 1020.354736,1301.837036 
	C1035.258301,1317.075317 1050.176025,1332.299683 1065.074585,1347.542969 
	C1079.041260,1361.832886 1092.980835,1376.149414 1106.950562,1390.436523 
	C1121.968628,1405.795654 1137.039917,1421.102661 1152.021606,1436.497070 
	C1157.938110,1442.576660 1163.691895,1448.815308 1169.478149,1455.020264 
	C1170.422729,1456.033203 1171.150635,1457.248169 1172.656738,1459.287964 
	C1169.669800,1459.601440 1167.782227,1459.972290 1165.894531,1459.972778 
	C1070.900635,1460.000610 975.906738,1459.977661 880.912903,1460.057617 
	C876.413513,1460.061401 873.001953,1458.725586 869.875244,1455.459595 
	C850.536865,1435.259277 831.040955,1415.210205 811.652771,1395.057495 
	C797.920654,1380.783813 784.289429,1366.413086 770.588074,1352.109741 
	C754.813965,1335.642456 738.976318,1319.236084 723.234436,1302.738037 
	C711.636597,1290.583252 700.213928,1278.261230 688.595825,1266.126099 
	C671.326904,1248.088501 653.928284,1230.175171 636.633484,1212.162231 
	C622.113403,1197.039185 607.664246,1181.848145 593.180847,1166.689819 
	C571.450378,1143.946777 549.719543,1121.203979 527.984558,1098.465088 
	C513.495605,1083.307007 498.993683,1068.161133 484.508270,1052.999634 
	C477.727234,1045.902100 470.914795,1038.833130 464.225647,1031.649658 
	C460.403442,1027.545166 460.450806,1025.264893 464.174927,1021.359436 
	C478.766724,1006.057251 493.388702,990.783752 508.249329,975.249573 
z"/>
</svg>