<svg version="1.1" id="Layer_1" xmlns="http://www.w3.org/2000/svg" xmlns:xlink="http://www.w3.org/1999/xlink" x="0px" y="0px"
	 width="100%" viewBox="0 0 928 880" enable-background="new 0 0 928 880" xml:space="preserve">
<path fill="#000000" opacity="1.000000" stroke="none" 
	d="
M795.994324,630.920105 
	C785.787659,648.128967 775.228210,664.656860 762.951538,680.034729 
	C747.431274,699.475830 730.355591,717.374878 711.280090,733.398804 
	C682.924377,757.218384 651.965820,776.776733 617.828796,791.182068 
	C597.791809,799.637329 577.231628,806.428162 556.034424,811.557495 
	C543.582031,814.570740 531.015686,817.144470 518.427673,818.523987 
	C498.636475,820.692810 478.713074,822.115906 458.673676,820.962891 
	C444.064941,820.122253 429.439972,819.640198 415.012756,817.142334 
	C400.647797,814.655151 386.339539,811.837524 372.299957,807.773621 
	C347.163696,800.497559 322.929749,791.044678 299.736237,778.865723 
	C261.613525,758.847473 227.938629,732.986694 198.870422,701.333435 
	C175.715149,676.119080 156.094604,648.358398 140.820190,617.528503 
	C129.499649,594.678955 120.111427,571.207092 113.583168,546.559998 
	C108.870514,528.767639 105.451012,510.805664 103.307915,492.479706 
	C101.622002,478.063141 100.535484,463.666840 100.860222,449.239716 
	C101.229500,432.834137 102.211914,416.463348 104.368553,400.102936 
	C107.763443,374.349091 113.993095,349.415405 122.678513,325.036774 
	C131.747559,299.581329 143.592041,275.455780 158.000504,252.582443 
	C175.304321,225.112701 195.842926,200.263229 219.643784,178.268173 
	C237.742935,161.542236 257.417419,146.783295 278.467194,133.783737 
	C299.366669,120.877022 321.423065,110.484085 344.264374,101.774406 
	C356.298035,97.185814 368.829620,93.896172 381.286438,90.446747 
	C394.918823,86.671768 408.826996,84.684753 422.664520,82.226311 
	C429.667694,80.982094 436.855499,80.390854 443.973175,80.265961 
	C455.287994,80.067421 466.534821,78.078110 477.852631,78.808334 
	C494.909668,79.908867 512.059998,80.425682 528.930786,83.229752 
	C562.902039,88.876099 595.732544,98.607689 626.995850,113.139320 
	C660.195007,128.570755 690.667969,148.286362 717.981506,172.751541 
	C753.559021,204.618927 782.279236,241.678711 803.708191,284.485413 
	C813.271973,303.589996 821.087097,323.304230 827.330139,343.643890 
	C831.840576,358.338928 834.877686,373.400299 837.665405,388.566498 
	C841.587708,409.904297 843.284241,431.368500 843.017578,452.900757 
	C842.746704,474.773590 840.638367,496.557007 836.543884,518.178894 
	C830.422119,550.506714 820.250610,581.393738 806.133789,611.035950 
	C802.988403,617.640564 799.501465,624.082581 795.994324,630.920105 
M605.758118,413.582733 
	C602.675720,401.456482 598.243774,389.856110 591.828430,379.095795 
	C579.589600,358.567780 563.408569,342.007294 542.826050,329.610168 
	C525.294434,319.050659 506.186249,312.864868 486.212128,310.691498 
	C467.744232,308.681976 449.169189,310.311981 431.125153,316.194275 
	C414.013763,321.772461 398.369537,329.754028 384.443817,341.151001 
	C371.967255,351.361938 361.740540,363.425995 353.243042,377.147583 
	C341.605133,395.940369 335.531433,416.439270 334.130676,438.264740 
	C333.291748,451.335327 333.612823,464.474792 336.721069,477.398651 
	C340.153046,491.668610 344.937836,505.365173 352.548157,517.980835 
	C364.807587,538.303406 381.057251,554.566040 401.439636,566.831665 
	C418.789154,577.272095 437.753784,583.442627 457.548126,585.354858 
	C481.513031,587.670044 505.010956,584.539734 527.445190,574.237244 
	C541.714355,567.684326 554.756897,559.661133 566.069824,549.000244 
	C590.509277,525.969604 605.375305,497.945679 608.912048,464.251465 
	C610.674988,447.455902 610.605347,430.794434 605.758118,413.582733 
M376.194031,239.621201 
	C386.847290,234.665817 398.060730,231.125595 408.954773,227.143616 
	C409.331146,222.949570 408.296814,219.318512 407.302094,215.923477 
	C401.441437,195.920532 396.578827,175.657059 391.102570,155.560974 
	C386.199829,137.569473 381.395569,119.551743 376.597290,101.532349 
	C375.827576,98.641563 373.998749,97.798141 371.326935,98.600014 
	C368.145477,99.554832 365.047546,100.798058 361.849426,101.685699 
	C337.517090,108.439148 314.691223,118.944603 292.802795,131.180771 
	C266.165924,146.071442 241.659790,164.134842 219.716019,185.499939 
	C214.567505,190.512680 214.465240,190.509216 219.622803,195.675842 
	C241.852844,217.944992 264.126404,240.170700 286.358826,262.437469 
	C293.983459,270.073883 301.534271,277.783966 309.482819,285.828827 
	C329.242126,266.629272 351.081665,251.385132 376.194031,239.621201 
M789.882751,533.649597 
	C800.144653,536.353760 810.479370,538.816589 820.633911,541.876953 
	C824.890259,543.159790 826.251099,542.120728 827.028809,537.984619 
	C829.135498,526.780762 831.656189,515.684082 833.428711,504.382111 
	C835.018311,494.246674 836.132874,484.025421 837.044312,473.903839 
	C838.368896,459.193512 837.576172,444.291809 837.663879,429.471619 
	C837.673645,427.808563 837.867004,426.049316 837.416931,424.496521 
	C834.354004,413.929932 835.466064,402.856384 833.132629,392.121704 
	C830.924622,381.964264 829.277405,371.657898 826.916016,361.503632 
	C826.214355,358.486450 824.505493,357.707764 821.813782,358.420410 
	C804.535095,362.994873 787.255310,367.566040 769.994080,372.206238 
	C755.150757,376.196411 740.302063,380.172211 725.512939,384.356354 
	C716.450562,386.920319 707.164856,388.664276 698.287109,391.926819 
	C695.842896,392.825134 695.403381,393.931335 695.973267,396.393280 
	C698.737793,408.337219 701.040649,420.382751 701.271484,432.684723 
	C701.471619,443.344788 701.388428,454.011749 701.313110,464.674866 
	C701.263855,471.654083 699.873962,478.492798 699.021667,485.389679 
	C698.090942,492.921661 695.762085,500.255920 695.489807,508.090881 
	C704.693909,510.539917 713.633240,512.839905 722.527161,515.304260 
	C734.629333,518.657532 746.685730,522.148926 758.914185,525.063110 
	C769.064453,527.482056 779.036316,530.649902 789.882751,533.649597 
M800.455811,540.207642 
	C765.008911,530.737793 729.562012,521.267944 693.890991,511.738220 
	C689.428772,524.881409 685.174988,537.606079 679.263000,549.728577 
	C669.047302,570.675842 656.135132,589.725769 640.247070,606.745850 
	C635.572693,611.753296 635.459473,611.580688 640.235229,616.354004 
	C669.329834,645.433655 698.447388,674.490662 727.430359,703.681274 
	C730.423340,706.695740 732.327209,707.155273 735.474121,703.905518 
	C750.464294,688.425354 763.935791,671.706726 775.865234,653.815369 
	C790.108459,632.453918 802.142883,609.879211 811.588318,585.934998 
	C815.983032,574.794434 819.996338,563.555054 823.304626,552.052734 
	C824.184631,548.993164 824.280640,546.369141 820.446106,545.401611 
	C814.030640,543.782898 807.610474,542.183289 800.455811,540.207642 
M393.411804,150.110214 
	C400.195496,175.305878 406.979187,200.501541 413.899048,226.203079 
	C416.531677,224.514313 419.421112,224.998138 422.153107,224.297623 
	C433.403503,221.412979 444.932098,219.751694 456.447144,219.044083 
	C479.544159,217.624710 502.506622,219.460052 525.061951,224.906891 
	C529.060181,225.872406 530.587463,224.217804 531.459412,220.924240 
	C533.532043,213.094864 535.551575,205.251419 537.615417,197.419693 
	C542.117554,180.335495 546.581543,163.240967 551.159912,146.177185 
	C555.351562,130.554886 559.659058,114.963593 563.955139,99.369537 
	C564.489929,97.428406 564.121948,96.065781 562.083496,95.492142 
	C559.388489,94.733749 556.713501,93.739349 553.960449,93.382294 
	C544.913635,92.208984 536.044006,90.067726 527.030640,88.662476 
	C513.066711,86.485405 499.049805,85.057182 484.995117,84.541679 
	C470.423340,84.007202 455.854492,84.709961 441.242767,85.889244 
	C421.326172,87.496658 401.875824,91.136406 382.457520,95.379257 
	C379.829956,95.953362 379.055115,97.408623 379.815674,100.148735 
	C384.359467,116.518227 388.764130,132.926331 393.411804,150.110214 
M539.644470,204.953125 
	C538.175720,210.207474 537.032227,215.582550 535.140381,220.679825 
	C533.481018,225.150467 534.553345,227.672714 539.022217,228.911133 
	C545.268127,230.641998 551.228271,233.129501 557.266846,235.458282 
	C583.856140,245.712646 607.231506,261.000946 628.194580,280.126343 
	C634.208252,285.612823 634.070801,285.695343 639.937134,279.814392 
	C667.118835,252.565216 694.306335,225.321701 721.523560,198.107956 
	C729.063354,190.569168 729.161011,190.571655 721.845215,183.266205 
	C708.957642,170.396973 694.522034,159.418777 679.623047,149.026245 
	C656.460327,132.869446 631.724487,119.663597 605.358521,109.516998 
	C594.364258,105.285988 583.339661,101.168198 571.912048,98.209007 
	C569.466125,97.575615 568.081055,98.157021 567.435547,100.605270 
	C564.822937,110.514328 562.217896,120.425598 559.548401,130.319397 
	C556.229797,142.618851 552.787354,154.885117 549.514832,167.196686 
	C546.244263,179.501053 543.117432,191.843628 539.644470,204.953125 
M654.050842,767.545166 
	C660.706116,763.437927 667.464417,759.487244 673.996521,755.192627 
	C690.436279,744.384033 705.713745,732.061951 720.259827,718.841003 
	C723.276672,716.099060 726.521973,713.445496 728.036621,710.722107 
	C695.987610,678.538940 664.327637,646.746277 632.525452,614.810913 
	C632.139404,615.120178 631.455811,615.582642 630.871826,616.148010 
	C615.353333,631.171692 598.007751,643.658691 578.892029,653.707764 
	C566.495483,660.224426 553.679993,665.658997 540.200195,669.570862 
	C533.311157,671.570068 533.044128,672.736511 534.795349,678.793091 
	C538.412109,691.301025 541.848755,703.862366 545.234192,716.435486 
	C547.900269,726.336914 550.290283,736.312866 552.960083,746.213257 
	C557.654297,763.621277 562.600403,780.962646 567.132812,798.411987 
	C568.161072,802.370789 569.761108,803.438965 573.411438,801.991455 
	C583.901550,797.831604 594.862793,795.081177 605.374207,790.887024 
	C621.924377,784.283325 637.851501,776.495789 654.050842,767.545166 
M466.504608,680.154175 
	C448.682556,680.474365 431.418243,676.430298 413.835144,672.956604 
	C413.099030,677.796509 411.626160,681.995239 410.461670,686.267822 
	C404.846375,706.870483 399.626099,727.580444 394.093506,748.206116 
	C389.388306,765.747314 384.436554,783.222351 379.625427,800.735352 
	C378.919159,803.306152 380.033691,805.014099 382.586761,805.552490 
	C392.418213,807.625977 402.185150,810.384399 412.129852,811.440247 
	C423.139740,812.609192 434.036835,814.594849 445.157440,815.147827 
	C471.791321,816.472290 498.310181,816.262878 524.726929,812.281189 
	C527.515381,811.860901 530.361206,811.760437 533.118408,811.204590 
	C541.857910,809.442444 550.529602,807.313782 559.307129,805.783997 
	C563.237122,805.099060 564.547180,803.579224 563.530518,799.773193 
	C558.835022,782.194702 554.242920,764.588501 549.518066,747.017944 
	C544.797180,729.462036 539.954224,711.939026 535.182312,694.396790 
	C533.323730,687.564270 531.512878,680.718750 529.539246,673.352661 
	C508.746552,677.680115 488.338806,681.074890 466.504608,680.154175 
M671.246704,334.289886 
	C680.478577,349.583038 687.166382,365.981567 692.518921,382.975250 
	C694.246399,388.459595 695.751526,388.968628 701.251160,387.095978 
	C705.920715,385.505981 710.667297,384.122467 715.427734,382.823334 
	C725.795715,379.993774 736.186646,377.246948 746.582275,374.520050 
	C760.476501,370.875336 774.392944,367.314972 788.282959,363.654358 
	C797.557373,361.210144 806.898499,358.957886 816.033997,356.064514 
	C825.426331,353.089844 825.309326,352.802460 822.182190,343.260590 
	C816.126648,324.783112 809.242554,306.625275 800.621826,289.184814 
	C791.324829,270.376251 780.515015,252.480209 768.092957,235.527359 
	C758.336426,222.212296 747.931152,209.507080 736.467773,197.621628 
	C731.741089,192.720932 732.046387,192.428497 727.446533,197.036987 
	C698.509705,226.028397 669.624451,255.071747 640.563599,283.938416 
	C637.244141,287.235687 637.515198,289.130920 640.521362,292.426971 
	C652.069885,305.088928 662.742798,318.450104 671.246704,334.289886 
M123.999100,563.678894 
	C129.442490,580.801392 136.414658,597.291504 144.291367,613.429993 
	C154.694717,634.745117 167.651764,654.417053 181.828613,673.376770 
	C190.223709,684.604065 199.969589,694.621948 209.040909,705.241150 
	C211.398239,708.000732 213.073578,707.009827 215.150909,704.921631 
	C242.518005,677.411560 269.936951,649.953125 297.321899,622.460693 
	C300.805664,618.963318 304.170227,615.347168 307.945801,611.415527 
	C280.302216,582.792480 261.077209,549.663635 250.187805,511.757874 
	C230.471786,516.901306 211.426056,521.793396 192.423264,526.846924 
	C169.414047,532.966003 146.439911,539.217041 123.454285,545.424622 
	C121.045097,546.075195 118.513481,547.323792 119.692780,550.150146 
	C121.433212,554.321411 121.349205,559.012207 123.999100,563.678894 
M242.745285,472.571198 
	C242.487366,470.767456 242.034378,468.967316 242.001099,467.159424 
	C241.569870,443.738464 241.691254,420.355988 247.556824,397.434937 
	C248.331711,394.406952 247.627869,392.317078 244.268204,391.399628 
	C239.962250,390.223694 235.808853,388.392151 231.454803,387.506073 
	C213.441742,383.840302 196.016510,377.948883 178.137909,373.737274 
	C159.473602,369.340637 141.059662,363.870087 122.576881,358.723206 
	C118.864670,357.689453 117.302467,359.011444 116.631332,362.475647 
	C115.433914,368.656311 114.017868,374.795319 112.863113,380.983459 
	C109.295395,400.102081 106.647316,419.348053 106.317780,438.816681 
	C105.997009,457.767151 106.473198,476.641693 108.937508,495.547363 
	C110.848389,510.207275 114.143486,524.554749 116.451279,539.103333 
	C116.896713,541.911377 118.617752,543.116516 121.490532,542.306396 
	C138.067978,537.632019 154.808456,533.533630 171.384293,528.905884 
	C187.470612,524.414795 203.729324,520.568115 219.735641,515.776550 
	C229.477493,512.860229 239.400909,510.550446 249.256805,507.964539 
	C246.307007,496.247589 244.339630,484.880615 242.745285,472.571198 
M216.881729,197.640305 
	C215.257355,196.318771 214.266800,194.168289 211.679596,193.683929 
	C210.522766,194.767303 209.274078,195.849503 208.123322,197.027374 
	C189.328033,216.264984 173.205780,237.536819 159.252655,260.526672 
	C150.697403,274.622711 143.173889,289.211914 136.506210,304.271423 
	C129.921616,319.143219 124.725685,334.511749 119.840775,350.003448 
	C118.895126,353.002441 120.370102,353.958344 122.700218,354.615112 
	C135.568069,358.242218 148.336884,362.289032 161.333496,365.375793 
	C183.233643,370.577271 204.768448,377.119171 226.599991,382.550415 
	C234.098175,384.415802 241.383026,387.170746 249.210175,388.250916 
	C249.701157,387.329437 250.213242,386.647766 250.450424,385.880981 
	C253.583862,375.750946 257.270477,365.852203 261.437927,356.079681 
	C271.607086,332.233276 286.049744,311.254242 303.440430,292.239014 
	C306.560760,288.827179 306.472961,287.144867 303.214111,283.913574 
	C274.491638,255.434097 245.970505,226.751511 216.881729,197.640305 
M246.538147,678.038147 
	C236.883850,687.701721 227.272247,697.408630 217.544220,706.997375 
	C215.212280,709.295959 214.627670,710.914551 217.397476,713.491638 
	C234.729431,729.617371 252.993729,744.491455 272.873871,757.440796 
	C303.480316,777.377014 336.400299,792.065857 371.379944,802.324707 
	C374.316162,803.185913 375.778809,801.878723 376.531433,799.223633 
	C379.597565,788.407166 382.275909,777.489746 385.358124,766.670410 
	C391.520782,745.037842 396.942871,723.192505 402.538055,701.401001 
	C405.041748,691.650085 408.391449,682.106262 410.048187,671.944641 
	C396.968201,667.757080 384.131805,663.296509 371.920776,657.304565 
	C350.579834,646.832581 331.162292,633.512634 313.934113,617.107910 
	C311.198639,614.503174 309.611938,614.817200 307.052673,617.404114 
	C287.135590,637.535583 267.063538,657.513794 246.538147,678.038147 
M353.784607,563.296021 
	C357.922546,559.207581 361.960663,555.010925 366.233734,551.069031 
	C369.052521,548.468628 369.040771,546.526184 366.373566,543.642761 
	C357.310577,533.844727 349.899719,522.878235 343.873077,510.930847 
	C339.936096,503.126129 337.387939,494.765076 333.989929,486.743256 
	C331.590088,487.521332 329.573456,488.277222 327.502747,488.830872 
	C304.527954,494.973480 281.560120,501.143707 258.546143,507.136414 
	C255.372375,507.962830 254.841446,509.682373 255.694962,512.227356 
	C257.798981,518.501099 259.897430,524.786438 262.308960,530.945374 
	C269.860382,550.231262 279.868317,568.147400 292.497681,584.598022 
	C298.139435,591.946838 304.111694,598.970093 311.078278,605.822266 
	C314.141113,602.741943 316.917664,599.923523 319.722290,597.133301 
	C330.903900,586.009338 342.094299,574.894287 353.784607,563.296021 
M257.976440,502.975250 
	C266.785034,500.723602 275.613220,498.545288 284.397308,496.201782 
	C295.558594,493.224091 306.675842,490.081573 317.828827,487.072266 
	C323.017456,485.672272 328.245605,484.418762 333.259644,483.148529 
	C328.225189,459.489746 327.749969,436.409851 333.541504,413.121307 
	C321.251312,409.821045 309.172302,406.592346 297.101807,403.332031 
	C285.283051,400.139679 273.445984,397.010284 261.670319,393.665405 
	C255.641617,391.952942 254.499939,392.079529 252.951157,398.248199 
	C251.468872,404.152008 249.887177,410.263245 249.583115,416.218140 
	C248.784622,431.855133 246.053589,447.307465 247.749527,463.245697 
	C249.027954,475.260010 250.366409,487.230255 252.410980,499.127380 
	C252.838638,501.615875 253.670029,504.188934 257.976440,502.975250 
M342.575500,388.127136 
	C349.091644,373.404327 358.394257,360.555817 369.666901,348.945496 
	C362.365143,341.587189 355.488708,334.626434 348.577606,327.700165 
	C338.012390,317.111694 327.367004,306.602417 316.879425,295.937805 
	C313.827667,292.834564 311.747009,292.620544 308.474182,296.040039 
	C299.815979,305.086365 292.113190,314.856567 285.107330,325.175171 
	C275.635193,339.126190 268.226807,354.213440 261.938324,369.812134 
	C259.569550,375.687988 256.886688,381.647064 256.871552,388.618561 
	C282.649628,395.483704 308.211304,402.291229 333.990875,409.156799 
	C336.882385,402.275696 338.700531,395.176605 342.575500,388.127136 
M512.639221,290.084198 
	C513.954651,281.920746 516.654175,274.111328 518.778259,266.155518 
	C521.454712,256.130524 524.110535,246.097809 526.997620,236.132843 
	C527.679749,233.778564 527.193237,233.028198 524.987244,232.150742 
	C515.454346,228.358963 505.225830,227.577408 495.330933,226.669250 
	C484.185150,225.646301 472.863556,225.164307 461.510345,225.751617 
	C447.529755,226.474823 433.852386,228.530182 420.260071,231.541214 
	C418.528839,231.924728 415.610901,232.185043 416.678070,235.121002 
	C418.164703,239.210938 418.471283,243.553253 419.739929,247.626190 
	C425.635559,266.553894 430.330017,285.803162 435.210907,304.996765 
	C436.154633,308.707916 437.664520,309.661438 441.015594,309.004456 
	C445.545471,308.116333 450.060852,306.752991 454.627869,306.531921 
	C467.540375,305.906799 480.447083,305.334473 493.361725,307.469360 
	C497.832367,308.208374 502.315430,309.589111 507.100983,309.526184 
	C509.016174,303.215790 509.823090,296.772156 512.639221,290.084198 
M662.241272,548.195679 
	C659.636108,548.073730 659.636902,550.318054 659.037842,551.882751 
	C658.506531,553.270386 658.349670,554.796814 657.953613,556.241760 
	C657.296509,558.639099 655.444031,559.287781 653.289368,558.986389 
	C650.576660,558.607056 651.260254,556.629456 651.405640,554.750488 
	C651.593933,552.316956 653.432007,549.968323 652.255981,547.053284 
	C649.325867,549.599487 648.184814,552.382629 647.927551,555.694092 
	C647.737671,558.137207 645.973755,558.974365 643.705261,559.001587 
	C642.096375,559.020935 640.913147,558.174927 641.055725,556.681519 
	C641.477234,552.264038 644.255188,548.007141 641.838135,543.377258 
	C641.733093,543.175964 642.622803,542.395935 643.111145,541.954102 
	C645.988037,539.351562 648.914978,538.717529 651.890991,542.381470 
	C655.221741,538.931885 658.433228,538.772705 661.298828,542.316772 
	C665.851257,539.779785 668.137573,539.121216 669.211243,540.453430 
	C671.203064,542.924927 670.341980,545.814697 669.814026,548.578247 
	C669.549805,549.961426 668.561768,551.465027 670.834412,552.457520 
	C671.265503,552.059204 671.888855,551.714966 672.171692,551.187927 
	C679.106018,538.266968 684.317139,524.663452 688.160217,510.525818 
	C688.632935,508.786682 688.082092,507.723450 686.176636,507.243652 
	C680.086792,505.710205 674.017395,504.091980 667.960693,502.431274 
	C657.813904,499.649139 647.709290,496.709381 637.537720,494.022400 
	C628.127808,491.536652 618.653320,489.295380 609.220276,486.949677 
	C602.409607,510.007690 590.816040,530.049133 574.882996,546.410522 
	C594.206421,566.228333 613.201599,585.709473 632.587769,605.591614 
	C646.986450,591.435181 658.653198,575.685608 668.390076,558.101196 
	C662.153198,559.330200 660.900574,558.041748 662.073059,552.112488 
	C662.295288,550.988586 662.420044,549.845459 662.241272,548.195679 
M612.469116,304.968201 
	C616.450012,300.944183 620.165649,296.602020 624.492920,292.993347 
	C628.180542,289.918121 627.420837,288.005249 624.376953,285.159576 
	C604.964111,267.011261 582.746704,253.166504 558.476746,242.669708 
	C550.914429,239.399017 543.070618,236.504303 534.933472,234.654846 
	C532.487366,234.098892 531.012024,234.636795 530.382324,237.044266 
	C527.290100,248.866562 524.286621,260.712402 521.133789,272.518433 
	C518.401367,282.750366 515.646484,292.980225 512.644043,303.134888 
	C510.539307,310.253540 510.896362,311.145538 518.424744,313.630859 
	C534.222412,318.846130 548.301025,327.235626 561.499146,337.195557 
	C564.909241,339.769012 567.528259,343.324768 571.760376,345.826996 
	C585.204224,332.327484 598.582581,318.893768 612.469116,304.968201 
M577.406738,646.887939 
	C596.582703,636.467407 614.340271,624.161072 628.973022,609.175354 
	C609.373535,589.430603 590.285156,570.200867 570.936707,550.709106 
	C555.374084,565.140076 537.445007,576.254211 516.919800,583.077148 
	C510.384613,585.249512 510.684814,585.986633 512.863281,593.391113 
	C516.972473,607.358093 520.515930,621.491577 524.295410,635.555603 
	C526.856506,645.085999 529.419128,654.615967 532.117859,664.654968 
	C538.393250,662.718262 544.540588,661.256470 550.341187,658.930054 
	C559.271301,655.348450 567.963562,651.173767 577.406738,646.887939 
M679.451904,363.089539 
	C671.106323,345.303711 661.663513,328.182709 649.534058,312.624420 
	C643.925659,305.430542 637.962402,298.615356 631.516541,292.491486 
	C630.705444,292.796478 630.318420,292.828278 630.107300,293.037567 
	C612.160400,310.830780 594.251892,328.662811 576.260315,346.410675 
	C574.097351,348.544312 574.742676,349.762573 576.585510,351.670502 
	C591.015137,366.609894 600.973267,384.330872 607.424927,403.900330 
	C609.104309,408.994232 611.022766,408.976227 615.114685,407.768311 
	C625.256104,404.774597 635.414368,401.769165 645.706360,399.371582 
	C659.646484,396.124084 673.320984,391.995178 687.360962,388.251282 
	C686.270203,379.379395 681.817261,371.955170 679.451904,363.089539 
M485.296295,590.041199 
	C480.176086,590.142395 475.055542,590.230225 469.935699,590.347412 
	C459.749207,590.580505 449.797668,588.715698 439.833099,586.981201 
	C437.819763,586.630737 435.808197,586.747498 435.604767,589.135559 
	C435.091949,595.154663 432.532257,600.604919 431.158356,606.381714 
	C428.601685,617.131470 425.537018,627.760315 422.693909,638.442139 
	C420.286743,647.485962 417.893829,656.533569 415.453796,665.733521 
	C428.183075,669.463562 440.826233,671.658997 453.453247,672.430664 
	C475.676819,673.788818 497.918732,672.938965 519.774536,667.768555 
	C528.094177,665.800415 528.097900,665.873230 525.874268,657.511963 
	C519.903320,635.060669 513.866333,612.626221 508.072662,590.129150 
	C507.291260,587.094788 506.192657,586.398987 503.300934,586.995789 
	C497.639282,588.164429 491.917633,589.042419 485.296295,590.041199 
M695.583496,425.154755 
	C692.687988,416.464935 693.645569,407.061188 690.342834,398.376709 
	C688.021118,392.272034 687.908630,392.007996 681.427856,393.850067 
	C666.453247,398.106354 651.420166,402.159088 636.389648,406.216003 
	C627.823975,408.528046 619.216614,410.686005 610.120972,413.044830 
	C613.596497,424.670685 614.412720,436.136505 614.416321,447.781219 
	C614.419983,459.595398 613.709290,471.244568 610.021484,483.148804 
	C617.468567,484.939056 624.434692,486.226471 631.156616,488.304138 
	C649.314331,493.916534 667.865723,498.041870 686.122864,503.258087 
	C689.197327,504.136475 690.404053,503.037994 691.009338,500.193542 
	C694.221680,485.097839 695.876770,469.834778 696.664307,454.424591 
	C697.150940,444.903595 694.855835,435.543488 695.583496,425.154755 
M413.566589,658.834900 
	C415.037201,648.815735 418.646393,639.336609 421.027802,629.541870 
	C424.264465,616.229431 428.162689,603.074951 431.932281,589.897034 
	C432.892700,586.539490 432.369812,584.913147 428.702209,583.714539 
	C412.486847,578.415588 397.429413,570.780884 384.015015,560.131042 
	C380.140778,557.055298 376.437103,553.764648 372.496552,550.438538 
	C353.194336,570.038879 334.127075,589.400635 314.550049,609.280029 
	C341.736877,635.802795 373.817108,654.377258 410.931427,664.652710 
	C411.949219,662.551025 412.664154,661.074829 413.566589,658.834900 
M353.637878,259.253693 
	C341.093018,266.590546 329.847229,275.617798 319.172058,285.433197 
	C316.108856,288.249695 316.158478,290.211456 319.140167,293.121857 
	C332.711426,306.368713 346.126953,319.776001 359.523773,333.200195 
	C363.702606,337.387604 367.647003,341.808990 371.727417,346.153809 
	C373.101288,345.013031 373.617401,344.615295 374.099426,344.179810 
	C389.447174,330.312561 406.701172,319.708862 426.434570,313.212219 
	C433.326691,310.943237 433.235901,310.721405 431.102997,303.810974 
	C430.567780,302.076904 430.168610,300.300690 429.713531,298.542114 
	C427.153381,288.649109 424.686768,278.730774 422.010406,268.869354 
	C419.378174,259.170746 416.038666,249.633240 413.987701,239.820587 
	C412.933228,234.775497 411.262756,233.752594 406.714081,235.169281 
	C388.251801,240.919281 370.632324,248.494812 353.637878,259.253693 
z"/>
<path fill="#000000" opacity="1.000000" stroke="none" 
	d="
M296.633362,207.739410 
	C298.522919,198.065475 300.357666,188.810211 302.188385,179.554184 
	C302.981445,175.544510 304.053345,171.456421 298.331604,170.022308 
	C297.266998,169.755463 296.859344,168.662170 297.191956,167.579330 
	C297.596436,166.262543 298.766846,165.910797 299.966705,165.884460 
	C303.293884,165.811401 306.622833,165.803940 309.951111,165.799393 
	C318.272644,165.788025 326.595581,165.880722 334.915039,165.748093 
	C338.309540,165.693985 339.792114,166.786087 339.442657,170.396927 
	C339.154022,173.378677 339.041534,176.365707 338.267670,179.278351 
	C337.960144,180.435867 337.614807,181.627350 336.128510,181.605286 
	C334.729492,181.584503 334.130188,180.540421 333.849976,179.341080 
	C333.220490,176.646927 333.444275,173.471359 330.274597,172.129288 
	C326.773773,170.647003 323.050232,171.402740 319.412354,171.380219 
	C318.096802,171.372086 317.021362,172.097733 316.760681,173.281204 
	C315.552551,178.766449 314.455994,184.277573 313.416779,189.797745 
	C313.180298,191.053665 313.866486,191.971069 315.137634,192.484665 
	C319.015259,194.051407 325.286560,192.294373 327.559082,188.818863 
	C328.673798,187.114059 329.659576,184.912521 332.060181,185.874924 
	C334.664917,186.919189 333.296997,189.200043 332.928619,191.085861 
	C332.196503,194.833832 331.534821,198.595520 330.821106,202.347168 
	C330.489349,204.091049 329.823517,205.593613 327.705627,205.610428 
	C325.522034,205.627762 324.920532,204.188049 324.823669,202.326065 
	C324.587067,197.778671 321.163025,198.295731 318.227692,198.332062 
	C315.261414,198.368774 311.616882,197.224869 310.981689,202.102051 
	C310.597351,205.052780 309.928955,207.983536 309.166321,210.864517 
	C307.488098,217.204269 307.729126,217.866379 313.712341,220.475143 
	C314.825226,220.960388 315.994202,221.317551 315.761597,222.825439 
	C315.558838,224.139816 314.568695,224.957367 313.339722,224.969620 
	C305.358307,225.049210 297.375732,225.050476 289.393921,225.010696 
	C288.372986,225.005615 287.470734,224.414978 287.151733,223.332489 
	C286.893066,222.454895 287.131104,221.409546 287.970306,221.223114 
	C295.109070,219.637314 295.566223,213.729416 296.633362,207.739410 
z"/>
<path fill="#000000" opacity="1.000000" stroke="none" 
	d="
M778.176636,469.084717 
	C778.054565,474.254395 778.695984,478.579437 783.862976,480.597412 
	C784.890198,480.998566 785.525024,481.691376 785.328247,482.876007 
	C785.100891,484.244598 784.074890,484.970184 782.882935,484.982605 
	C775.904785,485.055389 768.924927,485.039642 761.946655,484.964783 
	C760.946838,484.954102 760.028931,484.339203 759.840637,483.174652 
	C759.654358,482.022369 760.404114,481.417908 761.226624,480.762848 
	C764.860901,477.868408 766.030090,472.172424 763.998779,468.178375 
	C763.308533,466.821198 762.343445,466.156952 760.890320,466.115631 
	C759.394043,466.073029 757.896729,466.066254 756.399780,466.050140 
	C748.831909,465.968536 745.557373,468.693176 743.719177,476.141663 
	C743.006165,479.031036 745.144714,479.524994 746.747070,480.482910 
	C747.815735,481.121765 748.820740,481.647827 748.470703,483.095367 
	C748.148438,484.428101 747.030029,485.012817 745.854614,485.029236 
	C740.370239,485.105865 734.883850,485.087738 729.398987,485.027832 
	C728.377747,485.016693 727.446106,484.482422 727.142090,483.384949 
	C726.835388,482.277985 727.323853,481.341675 728.290405,480.883209 
	C739.450134,475.589966 741.727661,463.683655 747.682739,454.579468 
	C753.224060,446.107849 757.896729,437.068237 762.955444,428.280701 
	C764.182068,426.149872 765.714783,424.416229 768.484680,424.896759 
	C771.472534,425.415039 770.964478,428.012787 771.323730,430.031433 
	C773.613892,442.900452 775.877991,455.774109 778.176636,469.084717 
M760.507263,445.765808 
	C756.294006,449.227234 754.804077,454.188965 752.560547,458.937195 
	C761.704346,460.975769 762.520203,460.356323 761.874207,452.102234 
	C761.720032,450.131409 761.158447,448.192413 760.507263,445.765808 
z"/>
<path fill="#000000" opacity="1.000000" stroke="none" 
	d="
M693.849243,612.913452 
	C695.586487,603.565369 697.093018,594.602356 699.015015,585.729309 
	C699.733215,582.413391 698.845520,580.630371 695.813416,579.601135 
	C694.539551,579.168701 693.085632,578.753418 693.588257,576.935608 
	C694.011353,575.405396 695.400085,575.018188 696.762695,575.012756 
	C708.581482,574.965759 720.400452,574.950684 732.219238,574.977356 
	C734.192139,574.981812 735.219482,576.084229 735.263550,578.129578 
	C735.335571,581.469666 735.316711,584.788696 734.269043,588.014282 
	C733.784119,589.507324 733.179749,590.930298 731.282593,590.777222 
	C729.620483,590.643066 729.342041,589.194275 728.941956,587.918457 
	C726.958862,581.594482 721.982361,579.148926 715.435303,581.214294 
	C714.396790,581.541992 713.618225,582.017639 713.354126,583.099243 
	C712.333374,587.279053 711.230652,591.443054 710.377197,595.657227 
	C710.099121,597.030334 709.895569,599.057617 711.764709,599.482544 
	C715.000732,600.218079 718.370789,600.645508 721.299744,598.352539 
	C721.805542,597.956543 722.125549,597.322327 722.528076,596.795532 
	C723.634766,595.347412 723.772888,592.409851 726.583984,593.420166 
	C729.425964,594.441528 728.331665,597.097656 728.051819,599.078125 
	C727.541504,602.689331 726.755554,606.270203 725.907166,609.821289 
	C725.530334,611.398132 725.012390,613.194763 722.804504,613.147400 
	C720.520569,613.098389 720.243286,611.444580 720.187378,609.666565 
	C720.067627,605.858337 717.185120,606.287842 714.751526,606.229980 
	C711.800232,606.159790 708.378235,605.567139 707.689819,609.806152 
	C707.026550,613.890808 706.683533,618.026306 706.110596,622.127014 
	C705.477295,626.659241 707.570801,628.367126 711.938782,628.589111 
	C718.217224,628.908081 722.883301,626.525391 726.247742,621.298950 
	C727.288574,619.682068 728.212769,617.191589 730.672913,618.262390 
	C733.594604,619.534241 731.977844,622.067932 731.228455,623.889587 
	C726.484558,635.421448 730.485107,634.180786 716.875488,634.248474 
	C707.219727,634.296509 697.563232,634.272827 687.907654,634.200439 
	C686.200195,634.187683 683.798645,634.794739 683.383179,632.314148 
	C683.016296,630.123169 685.202087,629.879578 686.751404,629.398621 
	C691.323303,627.979370 691.444702,623.748047 692.491821,620.182800 
	C693.143311,617.964844 693.367554,615.621338 693.849243,612.913452 
z"/>
<path fill="#000000" opacity="1.000000" stroke="none" 
	d="
M448.416504,173.404343 
	C439.327179,158.253586 446.622864,136.021378 462.939941,127.963341 
	C473.640778,122.678833 484.644531,121.286163 496.224701,124.598427 
	C498.625977,125.285255 500.239868,126.111908 500.016022,128.857956 
	C499.732574,132.336151 499.452881,135.814865 499.133514,139.289841 
	C499.020599,140.518448 498.519928,141.586533 497.204193,141.902252 
	C495.616669,142.283203 494.732025,141.301346 494.070740,140.044632 
	C493.917786,139.753967 493.854523,139.417603 493.727539,139.111572 
	C492.051208,135.072266 491.521729,130.088074 485.891479,129.222458 
	C479.080566,128.175308 472.936096,129.543411 468.122223,134.770538 
	C460.743988,142.782196 456.174072,160.463486 461.758453,171.164459 
	C466.664154,180.564835 474.971161,182.560364 482.943207,175.500702 
	C485.406342,173.319504 487.421387,170.620361 489.561310,168.090439 
	C490.944489,166.455170 492.416534,165.016342 494.612701,166.420563 
	C496.628418,167.709442 495.230896,169.417801 494.683899,170.860825 
	C489.821991,183.687561 478.350281,188.928299 464.708588,184.582001 
	C458.288971,182.536682 452.131653,180.081131 448.416504,173.404343 
z"/>
<path fill="#000000" opacity="1.000000" stroke="none" 
	d="
M643.493896,166.101151 
	C647.776184,168.357239 647.089539,171.728378 646.019714,174.961868 
	C645.131226,177.647171 646.824524,182.182236 643.413940,182.756302 
	C639.722961,183.377579 640.661804,178.635223 639.451843,176.352249 
	C636.332336,170.466293 627.759216,167.889343 621.086121,171.311966 
	C614.579285,174.649261 610.324646,180.005722 608.007996,186.937622 
	C605.368225,194.836517 604.408875,202.671539 607.399902,210.804794 
	C609.784912,217.289993 614.359985,220.942642 620.637573,220.799072 
	C623.433289,220.735123 625.068176,219.494705 625.819885,217.041870 
	C626.691833,214.196320 627.533630,211.346344 627.775269,208.321915 
	C628.070435,204.627609 626.974792,202.127686 623.071289,201.418152 
	C621.705139,201.169861 620.315125,200.875824 620.530396,199.044601 
	C620.727234,197.370285 622.076660,196.947815 623.464539,196.939682 
	C630.619873,196.897690 637.775574,196.906937 644.931030,196.940704 
	C645.959045,196.945541 646.992676,197.337326 647.383179,198.361816 
	C647.785339,199.417221 647.264221,200.461227 646.331543,200.910797 
	C639.427124,204.238998 640.369995,211.169556 639.534607,216.877075 
	C638.943054,220.918518 637.811279,223.708527 633.933777,224.530518 
	C623.780151,226.682983 613.596008,228.109833 603.721802,223.152390 
	C596.085388,219.318497 591.778687,212.920624 590.925476,204.704102 
	C588.614685,182.449951 604.739929,164.917419 627.251038,164.708603 
	C632.575195,164.659210 637.903015,164.501175 643.493896,166.101151 
z"/>
<path fill="#000000" opacity="1.000000" stroke="none" 
	d="
M635.732178,684.234009 
	C642.669434,692.783142 639.594788,701.728394 627.726135,707.103943 
	C630.388672,708.346252 632.739502,709.437927 634.466248,711.435791 
	C641.915344,720.054688 636.429382,733.918396 624.558411,737.192810 
	C612.747620,740.450623 600.765259,738.758484 588.854187,739.142761 
	C587.547363,739.184998 585.960632,739.047180 585.713501,737.359680 
	C585.477234,735.746216 586.759094,734.900879 588.114380,734.658875 
	C592.768921,733.827515 594.020569,730.343933 594.786682,726.426636 
	C597.173279,714.223450 599.459900,701.999512 601.996216,689.827576 
	C602.726257,686.324158 600.640198,685.447937 598.213867,684.511047 
	C597.054993,684.063599 596.061707,683.455200 596.433350,681.978027 
	C596.697449,680.928589 597.477356,680.035645 598.501587,680.066284 
	C610.499634,680.425049 622.769043,677.531250 634.348633,682.963379 
	C634.780212,683.165833 635.093994,683.619385 635.732178,684.234009 
M608.192871,724.314026 
	C607.933472,725.953552 607.519470,727.586975 607.454163,729.234192 
	C607.374023,731.256897 608.275879,733.018005 610.420044,733.237732 
	C614.186646,733.623596 617.846497,733.023010 620.371399,729.828552 
	C623.672180,725.652527 624.942932,720.921265 622.907104,715.806335 
	C621.319519,711.817627 617.719971,710.982727 613.878723,710.779480 
	C612.024292,710.681335 610.407837,711.068909 610.243408,713.230042 
	C609.976990,716.731567 607.864868,719.854919 608.192871,724.314026 
M623.442566,687.175049 
	C618.683411,684.550659 615.388672,685.004883 614.573547,688.736267 
	C613.458923,693.838989 612.846863,699.051453 611.976685,704.483276 
	C616.785706,705.272034 620.619934,704.097168 623.376587,700.635010 
	C626.590759,696.598328 626.665833,692.122559 623.442566,687.175049 
z"/>
<path fill="#000000" opacity="1.000000" stroke="none" 
	d="
M467.411743,754.141602 
	C465.799011,754.257690 464.449005,754.386963 464.026794,755.632324 
	C462.203613,761.009583 461.129456,766.545959 461.150360,772.243408 
	C461.158478,774.447876 463.037354,774.647766 464.624146,775.166443 
	C466.177612,775.674255 468.136322,776.092712 467.726562,778.342163 
	C467.387543,780.203247 465.657928,780.287476 464.137360,780.291565 
	C456.974945,780.311035 449.812378,780.310913 442.650055,780.274292 
	C441.127594,780.266541 439.432617,780.129150 439.249084,778.155151 
	C439.089752,776.441345 440.613586,776.012695 441.896423,775.705688 
	C445.725403,774.789246 447.069611,772.043213 447.726959,768.496460 
	C449.836517,757.114136 452.083527,745.757324 454.258240,734.386963 
	C454.951385,730.762878 456.126984,726.945679 450.760406,725.685120 
	C449.772980,725.453186 449.044952,724.557617 449.185913,723.409973 
	C449.393829,721.717346 450.781281,721.316101 452.126831,721.278259 
	C456.443146,721.156677 460.763153,721.149475 465.081848,721.136108 
	C472.244446,721.113892 479.410919,721.259827 486.568268,721.063049 
	C490.714844,720.949097 492.356384,722.599365 492.009430,726.694946 
	C491.823303,728.891968 491.272797,730.929626 490.545349,732.979309 
	C489.975586,734.584717 490.554626,737.105530 487.835663,736.949158 
	C485.688293,736.825623 485.476227,734.650452 485.358490,733.114502 
	C484.968750,728.030640 481.980957,726.745605 477.502075,727.156006 
	C475.850067,727.307312 474.171844,727.224731 472.507599,727.177368 
	C470.116821,727.109375 468.519257,728.221130 468.417877,730.575806 
	C468.222198,735.118408 466.459137,739.304199 465.722321,743.722351 
	C465.280487,746.371704 466.000427,747.511230 468.612122,747.640381 
	C473.366608,747.875488 478.077118,748.206848 480.412750,742.598755 
	C481.035645,741.103210 482.652466,740.479675 484.240387,741.121094 
	C485.884003,741.785156 486.147858,743.327332 485.827454,744.911926 
	C484.972504,749.140442 484.036713,753.352600 483.184845,757.581726 
	C482.790161,759.541138 482.065216,761.121826 479.741364,761.130310 
	C477.522461,761.138367 477.195770,759.523804 476.818268,757.792603 
	C475.618744,752.291931 471.080078,754.750854 467.411743,754.141602 
z"/>
<path fill="#000000" opacity="1.000000" stroke="none" 
	d="
M532.800293,742.481689 
	C531.765869,744.467957 531.025879,746.400635 528.757263,746.202881 
	C522.717834,745.676270 522.172241,749.719666 521.746460,754.256226 
	C524.474304,755.348450 528.177612,755.391052 527.194458,759.884705 
	C526.671692,762.273926 525.540833,764.261780 523.048889,764.062561 
	C518.299927,763.682922 517.137207,766.747375 516.146973,770.276611 
	C515.520386,772.509644 515.001221,774.793823 514.127869,776.929932 
	C513.419922,778.661438 511.816010,779.359924 509.981262,778.733032 
	C507.961761,778.043030 507.826752,776.380737 508.318970,774.624756 
	C508.811554,772.867371 509.492340,771.161926 509.965210,769.400085 
	C510.450653,767.591370 511.919952,765.286621 508.899689,764.458008 
	C506.017151,763.667236 504.135437,765.050476 503.422455,768.046204 
	C502.808472,770.626038 502.137115,773.205872 501.262543,775.705872 
	C500.501465,777.881470 499.123291,779.820496 496.451813,778.668396 
	C494.009186,777.614990 494.676758,775.346436 495.311859,773.450012 
	C496.206207,770.779358 497.204895,768.155518 497.319916,765.726074 
	C496.659790,764.379211 495.796448,764.349304 494.973816,764.284912 
	C492.932312,764.124939 490.533112,764.086304 490.948517,761.185852 
	C491.305756,758.691895 491.375946,755.046326 494.960632,755.268677 
	C501.037689,755.645691 502.135468,751.840515 502.860718,747.245605 
	C502.388336,746.046753 501.235046,746.363342 500.310303,746.330017 
	C498.098846,746.250244 496.096222,745.889404 496.613434,743.005920 
	C497.037842,740.639648 497.067810,737.438110 500.636078,737.800720 
	C505.383209,738.283020 506.833282,735.892944 507.966797,731.784729 
	C508.773773,728.860046 509.060760,723.357422 513.877136,724.949341 
	C517.995544,726.310486 514.476501,730.352051 514.288147,733.207031 
	C514.212341,734.354980 514.062378,735.498169 513.930359,736.799927 
	C517.282593,738.552429 519.432556,737.506775 520.667236,734.313599 
	C521.503906,732.149963 522.178406,729.914368 522.781494,727.672241 
	C523.414734,725.318237 525.019531,724.208313 527.217163,724.683655 
	C529.765991,725.234741 529.172302,727.386780 528.752075,729.175903 
	C528.152466,731.728455 526.677979,734.088379 527.043762,737.053223 
	C529.346436,738.262329 534.223450,736.729126 532.800293,742.481689 
M509.239502,749.667236 
	C509.060699,751.225403 507.674652,752.915222 509.242126,754.300354 
	C510.454346,755.371582 512.204468,755.222900 513.413452,754.313904 
	C515.831848,752.495239 516.441528,749.860779 516.168213,746.662537 
	C513.398865,746.389282 510.703674,745.342896 509.239502,749.667236 
z"/>
<path fill="#000000" opacity="1.000000" stroke="none" 
	d="
M752.836426,291.648560 
	C756.025024,302.742706 754.667847,312.813232 748.047974,321.875122 
	C740.733826,331.887573 729.822998,334.875458 718.319946,335.797852 
	C710.202637,336.448761 701.997620,336.048035 693.832031,336.021515 
	C692.094910,336.015869 689.672729,336.406647 689.255188,334.082336 
	C688.815796,331.636780 691.278625,331.311249 692.951538,330.880798 
	C697.078308,329.819000 697.581970,326.155121 698.221741,323.084167 
	C700.618713,311.580261 702.542725,299.978546 704.844055,288.453461 
	C705.559692,284.869751 705.461060,282.196930 701.202454,281.276886 
	C700.020752,281.021576 699.136780,280.076233 699.262268,278.713531 
	C699.397156,277.247742 700.591064,276.795868 701.786011,276.827759 
	C712.908630,277.124634 724.104797,275.499664 735.145386,277.847076 
	C743.065125,279.530975 749.166748,283.763733 752.836426,291.648560 
M728.591614,326.189850 
	C735.740173,320.840851 738.866089,313.320984 739.736084,304.777039 
	C740.371582,298.535889 739.611267,292.423584 735.540894,287.277893 
	C732.130371,282.966431 727.362732,281.441284 722.167419,282.406250 
	C717.579285,283.258423 718.516418,287.822845 717.862549,290.947998 
	C715.929138,300.187775 714.388062,309.509399 712.673401,318.795319 
	C712.041565,322.217041 710.485779,326.501099 713.155701,328.753510 
	C716.258850,331.371460 720.774109,329.888275 724.586121,328.626099 
	C725.811768,328.220337 726.869690,327.308167 728.591614,326.189850 
z"/>
<path fill="#000000" opacity="1.000000" stroke="none" 
	d="
M231.541306,631.150513 
	C223.813705,627.960510 221.503281,623.210083 223.198166,615.632080 
	C225.937592,603.383728 228.431458,591.080566 231.160904,578.829895 
	C231.794708,575.985168 231.819321,573.848572 228.322174,573.282227 
	C227.251434,573.108826 226.426315,572.524597 226.386765,571.360779 
	C226.347961,570.219299 227.150726,569.445129 228.110825,569.152527 
	C232.861404,567.704834 237.595047,566.145630 242.431915,565.058594 
	C245.220932,564.431702 245.869888,566.550964 245.374756,568.836487 
	C243.557358,577.225647 241.641647,585.593567 239.772781,593.971619 
	C239.600418,594.744263 239.498077,595.532471 239.209152,597.205811 
	C241.766663,595.280273 243.628922,593.791077 245.579163,592.427795 
	C249.757523,589.506958 254.391418,586.585999 259.321106,589.577026 
	C264.467499,592.699463 265.185272,598.412659 264.035583,603.823181 
	C260.865479,618.741638 251.686188,631.412292 231.541306,631.150513 
M247.535202,615.999634 
	C250.059494,611.550293 250.732529,606.659424 250.878510,601.663330 
	C250.922165,600.169739 250.855026,598.520691 249.299835,597.724792 
	C247.726624,596.919678 246.449249,598.010315 245.190384,598.794312 
	C237.580658,603.533569 235.560715,611.038635 235.317078,619.277039 
	C235.254578,621.390076 235.919754,623.793518 238.336990,624.541443 
	C240.906143,625.336243 242.837662,623.845520 244.231903,621.838440 
	C245.360794,620.213257 246.234100,618.410461 247.535202,615.999634 
z"/>
<path fill="#000000" opacity="1.000000" stroke="none" 
	d="
M199.554321,618.332886 
	C198.626785,614.976196 199.625412,610.899475 194.785843,610.339905 
	C185.220047,609.233765 183.018539,609.989136 180.500244,615.434998 
	C179.871826,616.793945 179.283188,618.182800 178.521927,619.466431 
	C177.046051,621.955017 177.151901,623.799927 180.211731,624.890198 
	C181.425018,625.322571 182.968369,625.822693 182.744980,627.525452 
	C182.497742,629.410034 180.806747,629.732361 179.315353,629.760498 
	C174.322800,629.854675 169.326401,629.861389 164.333984,629.767761 
	C163.055450,629.743774 161.520584,629.524719 161.244995,627.822571 
	C161.025055,626.464172 161.954407,625.492554 163.071976,625.153870 
	C170.395767,622.933838 172.472458,616.138794 175.761703,610.522705 
	C183.063644,598.055420 190.112823,585.440186 197.270050,572.888123 
	C198.504318,570.723633 200.128769,569.103027 202.873154,569.636230 
	C205.621094,570.170044 205.073410,572.550293 205.372513,574.439209 
	C207.707336,589.184631 211.050293,603.766602 212.455475,618.665344 
	C212.741074,621.693420 214.520081,623.837402 217.403397,625.039246 
	C218.455551,625.477783 219.680634,626.037537 219.479919,627.500732 
	C219.257095,629.125061 217.888412,629.674072 216.541000,629.689941 
	C210.050323,629.766663 203.557724,629.757568 197.067032,629.677795 
	C195.942474,629.664001 194.635437,629.344360 194.291275,627.971191 
	C193.862274,626.259583 195.130600,625.496338 196.412231,625.110291 
	C199.809998,624.086670 199.948013,621.566711 199.554321,618.332886 
M196.672806,599.291809 
	C196.507782,596.088013 196.572815,592.812195 193.912094,589.834229 
	C191.505386,594.856873 187.858505,598.680847 186.636108,604.711426 
	C188.976242,604.711426 190.921127,604.559814 192.833771,604.743835 
	C196.525269,605.098938 197.688751,603.526794 196.672806,599.291809 
z"/>
<path fill="#000000" opacity="1.000000" stroke="none" 
	d="
M178.567596,440.123840 
	C177.413162,435.518066 176.804245,431.282379 170.694809,431.247375 
	C162.949142,431.202972 162.550171,431.244415 161.062149,439.065735 
	C160.845108,440.206604 160.591721,441.348328 160.245224,442.455231 
	C159.363464,445.271942 157.850616,448.400879 161.017761,450.486084 
	C163.860062,452.357452 169.696854,450.412537 171.679504,447.551575 
	C172.728912,446.037262 173.074631,443.221680 175.836472,444.308258 
	C178.342392,445.294189 177.411316,447.766510 177.124954,449.603424 
	C176.536743,453.376801 175.723892,457.124268 174.800598,460.831848 
	C174.417572,462.369934 173.947525,464.276459 171.684097,464.096954 
	C169.804214,463.947845 169.306686,462.410828 169.086777,460.898041 
	C168.328781,455.683746 164.294342,457.446472 161.255890,457.196625 
	C158.033432,456.931610 156.655350,459.018951 156.500259,461.769562 
	C156.256805,466.087311 154.828278,470.245056 155.108398,474.641418 
	C155.294403,477.561005 156.519577,478.614197 159.392349,478.910095 
	C166.325668,479.624237 171.839355,477.693481 175.611023,471.550323 
	C176.519562,470.070496 177.488937,467.889038 179.781464,468.966492 
	C182.324829,470.161896 181.060944,472.347168 180.523956,474.208740 
	C177.344620,485.230774 177.340393,485.247162 166.105789,485.254608 
	C156.440048,485.261017 146.774124,485.245697 137.108688,485.179138 
	C135.352097,485.167053 132.903351,485.665833 132.388962,483.456818 
	C131.810959,480.974609 134.352997,480.850098 136.018341,480.287689 
	C139.805908,479.008606 140.722412,475.509674 141.350662,472.376892 
	C143.730438,460.510254 145.610931,448.543915 147.948654,436.668091 
	C148.596344,433.377777 147.833893,431.586517 144.663986,430.643738 
	C143.354507,430.254303 142.109299,429.474365 142.636475,427.760284 
	C143.097092,426.262634 144.425995,425.837982 145.818848,425.834381 
	C157.483688,425.804108 169.148636,425.809052 180.813538,425.805084 
	C180.979706,425.805054 181.146240,425.823120 181.311981,425.839050 
	C182.750443,425.977478 184.041214,426.480347 184.122223,428.106903 
	C184.345428,432.587952 184.775223,437.198792 182.037201,441.126678 
	C181.076279,442.505219 179.654510,441.706238 178.567596,440.123840 
z"/>
<path fill="#000000" opacity="1.000000" stroke="none" 
	d="
M225.161072,460.889069 
	C222.503815,471.959564 216.643326,479.830505 206.363144,484.334198 
	C201.886063,486.295593 197.339142,486.635406 192.690384,486.143127 
	C188.023483,485.648926 185.047318,481.757111 184.677490,476.806030 
	C184.093109,468.982513 187.191788,461.779785 188.296051,454.242218 
	C189.253006,447.710358 190.808731,441.257874 192.299332,434.816467 
	C192.930847,432.087463 193.006836,430.117249 189.943573,428.712982 
	C186.627121,427.192657 187.812454,425.248718 190.398209,424.334381 
	C194.915619,422.736908 199.512375,421.242310 204.193726,420.274780 
	C207.077469,419.678802 207.333939,422.246094 206.927048,424.308044 
	C205.674408,430.656097 204.225632,436.965210 202.885437,443.296326 
	C202.311371,446.008179 201.817352,448.736938 201.173523,452.040039 
	C204.284897,449.803650 206.813080,447.986847 209.340836,446.169464 
	C212.816727,443.670441 216.820129,442.478027 220.587418,444.546661 
	C224.646011,446.775238 226.108124,451.026520 226.063278,455.604401 
	C226.047241,457.241425 225.582245,458.874054 225.161072,460.889069 
M210.314682,468.681183 
	C211.251190,464.669708 213.271729,460.832794 212.593384,456.557434 
	C212.176849,453.932098 211.455627,451.332794 207.795029,453.381012 
	C200.678818,457.362762 195.849426,467.363434 197.109482,475.490448 
	C197.434357,477.585693 198.247726,479.484222 200.337677,480.139496 
	C202.327438,480.763397 203.887344,479.327484 205.036926,477.962097 
	C207.177246,475.419952 208.978653,472.615723 210.314682,468.681183 
z"/>
<path fill="#000000" opacity="1.000000" stroke="none" 
	d="
M179.902771,272.185791 
	C181.454620,270.532928 183.176682,270.755676 184.822495,270.753082 
	C192.146698,270.741516 199.471695,270.821442 206.794876,270.736603 
	C210.774857,270.690491 214.446320,271.946289 217.600555,273.988983 
	C224.933182,278.737579 224.664169,289.296478 217.292206,294.656219 
	C215.697769,295.815460 213.912918,296.712799 211.748871,298.010834 
	C216.514465,300.701019 220.764084,303.551544 221.285248,309.372986 
	C222.029648,317.687927 216.652557,325.543579 208.450043,327.992218 
	C196.564713,331.540253 184.378677,329.778198 172.307144,329.979675 
	C171.033218,330.000946 169.443985,329.763123 169.276505,328.032104 
	C169.113998,326.352478 170.496613,325.828674 171.811325,325.452667 
	C175.868134,324.292358 177.698883,321.131622 178.417877,317.421082 
	C180.683228,305.730011 182.582825,293.967072 184.929779,282.293427 
	C185.689743,278.513367 185.124161,276.170624 181.133209,275.198425 
	C179.856567,274.887421 179.241226,273.897797 179.902771,272.185791 
M192.864197,308.285645 
	C191.725876,311.768372 191.985382,315.489227 190.741409,319.021820 
	C189.710724,321.948669 191.594360,323.639648 194.693390,323.929840 
	C199.316238,324.362640 202.996048,322.731201 205.178192,318.677002 
	C207.491364,314.379425 208.015060,309.664154 205.464935,305.335266 
	C203.527390,302.046234 200.016907,301.007874 196.301071,301.541870 
	C192.804520,302.044373 193.512390,305.134308 192.864197,308.285645 
M197.134750,284.555267 
	C196.097916,288.009003 195.983597,291.554443 195.740616,295.061707 
	C202.166656,296.176392 206.233963,293.934082 208.716354,288.396301 
	C210.332504,284.790955 209.608047,281.576813 207.344009,278.657684 
	C205.833832,276.710541 203.612289,275.732635 201.159271,276.394287 
	C197.367035,277.417206 198.177322,281.066315 197.134750,284.555267 
z"/>
<path fill="#000000" opacity="1.000000" stroke="none" 
	d="
M225.998627,316.456909 
	C228.832184,303.239990 231.587494,290.451324 234.387039,277.672394 
	C234.990585,274.917389 233.041397,274.383545 231.194443,273.482117 
	C228.513763,272.173767 228.528915,270.409149 231.298737,269.415863 
	C235.818863,267.794830 240.438477,266.402039 245.096191,265.231506 
	C248.110809,264.473907 248.301224,266.832184 248.183411,268.939606 
	C247.812241,275.579620 245.292755,281.800293 244.303528,288.330627 
	C243.887756,291.075287 243.034363,293.753632 242.138672,297.460571 
	C244.853851,295.362061 246.766403,293.899689 248.661987,292.415619 
	C252.818527,289.161438 257.620453,286.840363 262.423584,289.803284 
	C267.509155,292.940430 268.235809,298.683472 267.025879,304.098114 
	C264.118866,317.107788 257.298615,326.904114 243.653534,330.638000 
	C235.523941,332.862640 229.625793,331.009003 226.739288,325.216614 
	C225.382721,322.494385 225.938446,319.687775 225.998627,316.456909 
M245.061356,301.563232 
	C239.088470,305.953186 239.017365,312.685059 238.368439,319.063049 
	C238.139908,321.309021 238.821274,324.050751 241.291916,324.951111 
	C243.902878,325.902557 245.530655,323.702332 246.989960,321.916809 
	C250.877411,317.160309 252.908279,311.597473 253.602692,305.561951 
	C253.900146,302.976685 254.848755,299.677002 252.287476,298.126678 
	C249.425873,296.394531 247.714996,299.743408 245.061356,301.563232 
z"/>
<path fill="#000000" opacity="1.000000" stroke="none" 
	d="
M293.152222,684.600708 
	C301.564789,684.686096 309.428314,684.341797 316.958008,688.109802 
	C328.453613,693.862305 330.927094,708.093262 328.266022,717.730347 
	C323.667908,734.382507 311.430237,741.439880 295.611328,743.004028 
	C285.730865,743.980957 275.677979,743.225525 265.702576,743.204041 
	C265.097595,743.202759 264.493469,742.817627 264.016266,742.654602 
	C263.271423,740.792114 264.231293,739.519409 265.533447,739.399658 
	C271.820679,738.821594 272.431580,733.689209 273.329559,729.353149 
	C275.746368,717.683289 277.582794,705.894409 279.878967,694.197754 
	C280.502991,691.018860 278.953613,689.984192 276.516632,689.191406 
	C275.187012,688.758911 273.900543,688.082397 274.140106,686.459290 
	C274.385284,684.798157 275.936707,684.796814 277.245148,684.541992 
	C282.395111,683.539185 287.529938,684.770691 293.152222,684.600708 
M291.048004,706.346558 
	C290.703003,707.792664 290.229004,709.221680 290.034607,710.687744 
	C289.034485,718.229187 286.398041,725.492798 286.225464,733.171204 
	C286.173279,735.492188 286.450348,737.625000 289.475006,737.729492 
	C293.298157,737.861572 297.011871,737.844055 300.591858,735.875366 
	C313.196686,728.944153 318.731232,708.221008 311.071167,696.083313 
	C308.203400,691.539246 302.343414,688.978577 296.698822,690.262268 
	C291.570282,691.428650 292.885803,696.102722 292.177704,699.614197 
	C291.784760,701.562744 291.455475,703.524170 291.048004,706.346558 
z"/>
<path fill="#000000" opacity="1.000000" stroke="none" 
	d="
M350.230927,703.889282 
	C350.317932,705.878906 348.830505,707.395752 350.061646,709.330261 
	C353.292664,707.338074 356.373505,705.138977 359.710632,703.444519 
	C366.241730,700.128418 372.140503,703.348572 373.245514,710.602600 
	C375.264954,723.859558 365.626587,739.187744 352.780273,743.135315 
	C351.987396,743.378906 351.128174,743.448120 350.374939,743.772705 
	C345.031097,746.075806 339.846008,745.906860 335.406586,742.006592 
	C331.163666,738.278931 332.147064,733.076782 332.988892,728.409180 
	C335.136566,716.501221 337.638824,704.654907 340.161591,692.818481 
	C340.752991,690.043640 340.982758,688.119019 337.582214,687.028870 
	C335.081024,686.226929 335.229492,683.727051 337.484436,683.153687 
	C342.856293,681.787781 347.968842,679.220642 353.997528,678.813416 
	C355.497162,687.758362 351.161774,695.384644 350.230927,703.889282 
M345.465363,724.404907 
	C345.308472,727.393372 345.038910,730.381653 345.034454,733.370361 
	C345.031525,735.347534 345.094360,737.563477 347.488922,738.349121 
	C349.657501,739.060669 351.462189,737.999451 352.798859,736.448181 
	C357.901337,730.526428 359.674255,723.294128 360.495087,715.774902 
	C360.676270,714.115112 360.040985,712.382080 358.315521,711.595459 
	C356.726715,710.871155 355.397064,711.870972 354.197327,712.739746 
	C350.326538,715.542786 347.591125,719.260071 345.465363,724.404907 
z"/>
<path fill="#000000" opacity="1.000000" stroke="none" 
	d="
M316.879089,535.299805 
	C318.919098,535.518127 319.223358,537.361694 320.196991,538.203308 
	C323.646149,536.652405 326.736237,532.181396 329.846466,537.865356 
	C330.399048,537.830505 330.759918,537.895752 331.042328,537.776001 
	C333.358215,536.793762 335.501526,533.818237 338.180359,536.002563 
	C340.520081,537.910278 339.435486,540.957581 338.877533,543.498535 
	C338.479218,545.312561 337.991852,547.044861 338.684875,548.855835 
	C339.567444,551.162170 337.954712,552.182251 336.444153,553.253967 
	C335.150452,554.171875 333.679932,554.667297 332.247375,553.859802 
	C330.244904,552.730957 330.700012,550.673950 330.977386,548.932434 
	C331.310577,546.840881 332.010437,544.807678 332.673584,542.284912 
	C328.682678,543.712891 328.310242,546.896362 327.543579,549.787964 
	C326.671234,553.078125 325.204254,555.348572 321.258270,553.825867 
	C319.341339,550.272522 322.318115,546.762695 321.329803,542.487305 
	C319.124329,544.821655 317.456879,546.668091 317.257233,549.502930 
	C317.019714,552.876038 315.266174,555.246155 311.828217,554.129761 
	C308.639740,553.094421 310.422974,550.480652 311.064148,548.264832 
	C311.902313,545.368164 313.281860,542.290161 310.506561,539.625549 
	C311.936462,537.119812 314.115784,536.030151 316.879089,535.299805 
z"/>
<path fill="#000000" opacity="1.000000" stroke="none" 
	d="
M293.229401,536.469360 
	C294.000031,533.082092 294.462219,530.126526 290.501007,527.080505 
	C298.147797,525.541931 304.682037,525.076965 310.725739,526.789429 
	C314.786346,527.940002 311.432404,531.203552 310.502655,533.987183 
	C308.142273,531.939758 306.366577,528.897644 303.155945,530.481384 
	C299.712555,532.179993 301.964325,535.895996 300.338623,538.190063 
	C303.977936,540.850769 305.365936,536.628967 308.172943,536.685913 
	C310.214142,539.961060 308.264893,542.661865 307.340240,545.652161 
	C304.297150,545.298157 302.962830,539.927856 299.955353,543.470337 
	C297.526978,546.330627 297.433777,549.894348 301.302216,553.531799 
	C296.260803,554.830200 292.068298,554.277222 286.733124,553.877014 
	C292.197388,548.684387 292.249908,542.651978 293.229401,536.469360 
z"/>
<path fill="#000000" opacity="1.000000" stroke="none" 
	d="
M314.166870,456.619293 
	C313.349274,459.132355 312.885681,461.409851 312.045258,463.538544 
	C311.276093,465.486664 309.391296,466.187195 307.495026,465.748108 
	C305.307556,465.241608 305.814331,463.220032 305.816406,461.600098 
	C305.820007,458.817871 307.765106,456.354218 307.269653,452.950012 
	C304.309753,455.493622 303.157257,458.503723 302.326447,461.715393 
	C301.633179,464.395355 300.103912,466.674164 297.140411,465.766388 
	C294.245880,464.879761 295.871887,462.197021 296.011444,460.187714 
	C296.220245,457.182465 298.570465,454.510193 296.332184,451.019012 
	C295.328156,449.452972 298.484192,448.077271 300.187836,447.225281 
	C302.932953,445.852570 304.493500,447.346130 305.247711,449.997131 
	C310.622467,445.631958 312.018585,445.614990 315.494324,449.861053 
	C316.038330,449.553314 316.705963,449.336304 317.152496,448.895386 
	C319.097015,446.975342 321.403625,445.678131 323.743591,447.627106 
	C325.906830,449.428894 325.482819,452.192169 324.518951,454.577972 
	C323.889954,456.134888 322.772980,457.672882 323.675385,459.271637 
	C325.347473,462.234070 323.466949,463.538116 321.427643,464.831238 
	C320.123383,465.658264 318.589752,466.288208 317.241028,465.202576 
	C315.163818,463.530609 315.748688,461.316895 316.638702,459.287354 
	C317.390106,457.573853 317.921173,455.885101 317.498505,453.366852 
	C316.297119,454.495636 315.326874,455.407227 314.166870,456.619293 
z"/>
<path fill="#000000" opacity="1.000000" stroke="none" 
	d="
M283.708038,442.553650 
	C277.676117,448.002747 276.252960,453.208710 279.063477,458.483948 
	C281.049072,462.210846 284.261841,463.000366 287.647583,460.525665 
	C288.581116,459.843323 289.351501,458.941895 290.233978,458.184357 
	C291.110596,457.431763 292.040070,456.479156 293.255554,457.511017 
	C294.393646,458.477173 293.844727,459.628845 293.325958,460.689972 
	C292.147705,463.100006 291.030151,465.563080 287.808197,465.808197 
	C282.220154,466.233337 276.733765,466.273804 272.705170,461.435059 
	C269.054138,457.049713 269.469177,452.244202 271.519196,447.365540 
	C274.032379,441.384674 278.944153,438.653015 285.048645,437.800171 
	C287.169647,437.503845 289.365112,437.747650 291.526428,437.730438 
	C293.659637,437.713470 295.533234,438.212799 296.397369,440.418304 
	C297.411652,443.007172 296.207489,444.807739 294.020538,446.862518 
	C291.559631,442.939667 288.936005,439.687988 283.708038,442.553650 
z"/>
<path fill="#000000" opacity="1.000000" stroke="none" 
	d="
M320.127777,360.885742 
	C320.997253,362.053589 321.762512,361.700409 322.461304,361.210144 
	C325.463928,359.103485 328.253998,358.978241 330.521912,362.293030 
	C331.837006,361.598511 332.830292,360.995209 333.884766,360.530884 
	C338.152283,358.651947 340.375824,360.222992 339.857880,364.798798 
	C339.542725,367.583344 338.693298,370.294250 340.321014,373.048004 
	C341.523102,375.081665 339.609131,376.080414 338.278625,376.927917 
	C336.596039,377.999756 334.700104,378.995941 332.674866,377.782318 
	C330.907410,376.723175 330.993622,375.144592 331.751740,373.418732 
	C332.618530,371.445465 332.972900,369.399323 332.261169,367.121765 
	C329.435913,368.121521 328.920502,370.456909 328.218658,372.627747 
	C327.861328,373.733002 327.725952,374.913239 327.333679,376.003235 
	C326.492798,378.339752 324.434692,378.850342 322.428467,378.404327 
	C320.125610,377.892242 320.818237,375.849762 321.125793,374.260681 
	C321.559875,372.018097 322.124084,369.800720 322.833374,366.693176 
	C319.197540,369.084595 318.837219,372.404877 317.906097,375.147278 
	C316.735687,378.594360 314.979279,379.220886 311.778168,377.647003 
	C310.876923,372.997528 313.190247,368.456512 312.105194,363.508514 
	C311.592102,361.168701 316.192657,358.842896 320.127777,360.885742 
z"/>
<path fill="#000000" opacity="1.000000" stroke="none" 
	d="
M286.122620,374.719299 
	C279.127899,362.995758 287.772949,351.536072 298.493378,350.727722 
	C299.487091,350.652863 300.490417,350.697632 301.489227,350.700073 
	C309.522125,350.719910 310.423157,352.145508 307.494812,360.204468 
	C305.913971,360.387543 305.687988,359.031830 305.117432,358.085907 
	C302.510162,353.763031 299.090332,353.223694 295.387695,356.562408 
	C291.984711,359.631012 290.315857,366.650696 291.940094,370.878143 
	C292.700195,372.856445 293.804352,374.462952 296.078552,374.702362 
	C297.676392,374.870605 298.338562,373.652039 299.022644,372.445404 
	C300.401489,370.013336 298.862305,368.801727 297.169495,367.569672 
	C296.970184,367.424713 297.000183,366.964661 296.930420,366.649078 
	C301.153503,364.401306 305.146423,364.395050 309.850372,366.940002 
	C304.969452,369.413666 308.110321,377.691132 300.941711,378.207306 
	C295.857697,378.573364 290.510620,379.391632 286.122620,374.719299 
z"/>
<path fill="#000000" opacity="1.000000" stroke="none" 
	d="
M492.120758,273.527985 
	C492.751984,271.286194 493.803894,269.509064 493.213104,267.109619 
	C490.858521,268.686096 489.489716,270.575684 489.077820,273.203979 
	C488.872711,274.512756 488.547394,275.814789 488.144928,277.077942 
	C487.395294,279.430481 485.436249,279.985321 483.353119,279.686584 
	C480.901947,279.335114 481.769257,277.278961 481.637665,275.702576 
	C481.432587,273.245911 483.446564,271.017303 482.232147,268.050903 
	C479.906891,270.356781 478.312103,272.573761 478.066620,275.789917 
	C477.834900,278.825531 475.675507,280.481750 472.864288,279.598083 
	C470.019104,278.703827 471.122406,276.254211 471.767517,274.117188 
	C472.586700,271.403564 474.157227,268.701080 471.975281,265.780579 
	C470.888336,264.325745 472.283875,263.265259 473.350830,262.543549 
	C475.286285,261.234344 477.619843,259.616058 479.717651,261.400238 
	C481.574890,262.979797 482.606445,262.644989 484.362061,261.518341 
	C487.311707,259.625458 489.614838,260.858551 491.091400,263.999115 
	C492.166504,263.162109 492.928741,262.528717 493.731598,261.951935 
	C495.464050,260.707336 497.464264,260.056335 499.322815,261.235168 
	C501.322601,262.503601 500.901062,264.717468 500.541870,266.699921 
	C500.053406,269.396057 499.310913,271.794708 500.165070,274.863220 
	C500.977783,277.782776 497.368591,279.246948 494.763489,279.357513 
	C490.635773,279.532715 491.987457,276.226837 492.120758,273.527985 
z"/>
<path fill="#000000" opacity="1.000000" stroke="none" 
	d="
M446.639526,279.430847 
	C444.990967,279.290771 443.580383,279.704926 442.290924,278.175568 
	C448.752014,271.511932 452.254059,262.875702 457.163940,255.116577 
	C458.112671,253.617294 459.016266,251.573273 461.277069,252.200317 
	C463.324585,252.768188 463.612946,254.766846 463.854218,256.639618 
	C464.362671,260.585571 464.824646,264.542267 465.505737,268.459778 
	C466.093811,271.842468 466.499786,275.336334 469.358795,278.215332 
	C465.297699,280.871582 461.591400,279.925201 457.651245,278.849670 
	C457.654358,276.270508 460.679993,273.571228 457.498077,271.564148 
	C455.954803,270.590698 453.931976,270.766724 452.388519,272.149597 
	C450.216553,274.095551 450.828583,276.232056 452.305420,278.183380 
	C450.687744,280.179321 448.722076,279.179230 446.639526,279.430847 
z"/>
<path fill="#000000" opacity="1.000000" stroke="none" 
	d="
M621.712036,534.868469 
	C621.574524,537.177063 620.937561,538.779602 618.922546,539.453796 
	C614.035645,534.110657 611.443115,533.405457 607.577637,536.328369 
	C602.887207,539.875000 600.975952,547.546326 604.483337,552.309631 
	C609.810974,559.544800 613.278442,550.919250 617.656616,549.992004 
	C619.115051,553.676819 617.076538,557.780762 613.446960,558.776001 
	C606.239319,560.752197 598.092529,557.348816 595.697632,551.360962 
	C593.093262,544.849365 596.776123,536.555908 603.612244,532.911133 
	C608.116150,530.509766 612.853943,530.569824 617.674805,530.829468 
	C619.966797,530.952942 621.349365,532.177246 621.712036,534.868469 
z"/>
<path fill="#000000" opacity="1.000000" stroke="none" 
	d="
M639.378662,542.354980 
	C637.046082,543.597595 634.193176,544.347412 637.352112,547.329163 
	C638.190430,548.120483 638.211121,549.693665 637.407227,549.959534 
	C633.664124,551.197388 633.157593,555.463684 630.560608,557.520386 
	C627.816467,556.396362 629.558044,553.943604 628.330139,552.558411 
	C626.814575,552.850891 627.199829,554.388916 626.650513,555.289795 
	C625.958679,556.424438 625.602722,557.927612 623.868408,557.537415 
	C622.229980,557.168701 621.975586,555.928162 622.348083,554.426331 
	C622.503113,553.800781 622.758057,552.879517 622.456421,552.509644 
	C618.400818,547.536926 627.806274,544.073242 624.023499,538.952515 
	C623.719116,538.540527 627.249390,537.934143 628.072205,535.882324 
	C628.630676,534.489502 629.064819,532.592102 631.091492,532.486328 
	C633.520569,533.245605 631.779602,535.553284 633.046265,536.999695 
	C633.856262,535.712524 634.517090,534.443481 635.388489,533.340820 
	C636.214417,532.295837 638.406067,532.388306 638.285950,532.974365 
	C637.604126,536.300476 642.049133,538.760254 639.378662,542.354980 
z"/>
<path fill="#000000" opacity="1.000000" stroke="none" 
	d="
M561.166626,294.064423 
	C560.545227,295.635223 560.194397,297.018646 559.347900,297.953156 
	C558.306335,299.103058 556.734680,299.446167 555.216614,298.730988 
	C553.741272,298.035889 553.658875,296.602173 553.909485,295.282745 
	C554.280334,293.329834 554.713684,291.353821 555.436890,289.511871 
	C556.294128,287.328888 556.189209,285.482727 554.250977,284.095123 
	C558.431702,279.154846 560.062988,278.836975 564.460693,282.103668 
	C567.641357,280.039551 571.088196,277.771149 574.038940,282.648468 
	C575.263855,281.879608 576.058472,281.302917 576.919495,280.853363 
	C581.290405,278.571289 583.362122,280.011261 583.307007,285.057556 
	C583.272644,288.215912 581.317017,291.022766 582.925781,294.674835 
	C583.792114,296.641205 579.931946,298.359009 577.546265,298.677551 
	C574.639648,299.065613 574.529907,296.554382 574.780090,294.538940 
	C575.104736,291.924591 575.786682,289.354614 576.541992,285.651886 
	C573.683289,287.946075 571.995544,289.865845 571.397888,292.648499 
	C571.153931,293.783966 571.131714,294.973236 570.826172,296.088043 
	C570.189514,298.411346 568.393372,299.285645 566.223572,298.930939 
	C563.648865,298.510071 564.134033,296.557007 564.351624,294.635681 
	C564.623657,292.234711 566.418213,290.022125 565.169434,286.984406 
	C562.909241,288.865417 561.447021,290.869965 561.166626,294.064423 
z"/>
<path fill="#000000" opacity="1.000000" stroke="none" 
	d="
M551.842285,271.053955 
	C554.574158,273.761505 551.678528,275.582916 551.989502,277.908386 
	C548.807678,277.736450 548.616394,273.002167 545.318237,274.830841 
	C542.326477,276.489624 543.554688,279.438660 543.055786,281.747925 
	C545.993530,284.079865 547.198303,279.951172 549.829102,280.572723 
	C551.433716,283.691650 549.085022,286.188568 548.496521,289.045685 
	C546.113403,288.743256 544.911865,284.350128 542.520386,287.328491 
	C541.157837,289.025513 538.858215,291.945099 541.176819,294.013123 
	C544.679993,297.137695 547.285522,293.088440 550.088379,291.431244 
	C551.847473,297.299408 550.854797,299.088959 545.587036,299.055450 
	C540.260010,299.021606 534.792603,299.966705 529.307007,298.110657 
	C535.671692,289.924988 536.248840,281.159515 535.220093,271.123260 
	C540.426636,270.335938 545.960632,270.765015 551.842285,271.053955 
z"/>
<path fill="#000000" opacity="1.000000" stroke="none" 
	d="
M598.882324,606.217163 
	C597.529602,608.329590 596.503418,610.201233 596.356323,612.458740 
	C596.185486,615.080994 594.671387,616.487427 592.070190,616.137390 
	C588.970459,615.720337 589.873962,613.463745 590.263672,611.518433 
	C590.713562,609.272400 591.135376,607.020752 591.716797,604.007507 
	C588.680115,606.724304 587.695068,609.628113 586.961975,612.667480 
	C586.394226,615.021545 585.255066,616.717346 582.489746,616.187744 
	C579.285645,615.574097 580.617493,613.032166 580.825867,611.355164 
	C581.210083,608.262390 582.219421,605.396484 580.812317,602.130127 
	C579.957397,600.145569 582.469543,599.331543 584.029114,598.380615 
	C586.649780,596.782654 588.675171,597.257812 590.007507,599.943298 
	C595.729492,596.410278 595.729492,596.410278 599.472107,600.212158 
	C602.054688,599.544678 604.026978,595.807373 607.024353,597.805237 
	C610.078125,599.840576 608.129028,603.328491 608.146667,606.155640 
	C608.159729,608.238281 607.177612,610.393799 609.653687,611.531738 
	C609.044800,613.652405 607.497559,614.426025 606.160706,615.335632 
	C604.712646,616.320923 603.063049,616.687500 601.473022,615.687317 
	C599.730103,614.590820 600.001770,613.016174 600.478516,611.272339 
	C601.122681,608.916260 601.478577,606.481384 601.967529,604.032959 
	C600.430176,604.007202 599.919128,605.202271 598.882324,606.217163 
z"/>
<path fill="#000000" opacity="1.000000" stroke="none" 
	d="
M558.022095,605.978638 
	C555.154968,606.633057 554.845154,609.127014 554.285095,611.346985 
	C553.865234,613.011108 553.410461,614.500183 551.778259,615.434570 
	C547.982178,617.607971 537.875427,616.261780 534.797302,613.102539 
	C530.919312,609.122375 530.605957,601.443542 533.656860,596.440430 
	C538.671082,588.217651 547.562317,587.560852 554.216858,588.576538 
	C557.942078,589.145142 558.357544,592.896118 555.480469,597.763916 
	C554.545959,597.688843 554.057800,597.038452 553.569824,596.342041 
	C549.909668,591.118652 546.052734,590.960938 542.269592,596.072571 
	C539.445251,599.888794 538.595337,604.158264 540.118469,608.810974 
	C540.815186,610.939270 542.199402,612.210144 544.311401,612.591492 
	C545.658447,612.834717 546.355347,611.806580 546.961975,610.731567 
	C548.208801,608.522400 547.471436,606.969543 545.518921,605.670715 
	C545.176025,605.442627 545.081848,604.840698 544.874268,604.414368 
	C549.609802,601.896545 554.827820,602.267151 557.919373,605.648254 
	C557.996460,606.016113 558.022095,605.978638 558.022095,605.978638 
z"/>
<path fill="#000000" opacity="1.000000" stroke="none" 
	d="
M557.985229,606.036011 
	C559.448303,605.031189 560.922668,604.006409 562.675354,602.788147 
	C558.008057,595.366821 567.600220,594.864868 568.012207,589.906006 
	C571.460510,590.839294 569.534790,593.466736 570.831299,594.767212 
	C572.281433,594.451050 572.170898,593.036560 572.678406,592.101379 
	C573.349060,590.865662 574.010559,589.681335 575.682617,590.209900 
	C577.165161,590.678711 577.068420,591.838440 576.732361,593.061523 
	C576.604370,593.527405 576.378235,594.254883 576.596008,594.484375 
	C580.699219,598.808533 577.488953,600.635498 573.162048,602.022278 
	C576.396301,605.762695 576.621155,608.298462 571.919312,610.078613 
	C570.278748,610.699829 570.817261,614.196960 568.486511,614.824524 
	C566.124573,613.931946 567.483765,611.628967 566.263245,610.432739 
	C564.782837,610.676392 564.840271,612.094299 564.353088,613.038086 
	C563.786621,614.135559 563.189392,615.199524 561.802307,614.967102 
	C560.067810,614.676514 559.758179,613.302551 560.260559,611.924011 
	C561.160889,609.453491 558.311523,608.610718 558.095337,606.310791 
	C558.022095,605.978638 557.996460,606.016113 557.985229,606.036011 
z"/>
<path fill="#000000" opacity="1.000000" stroke="none" 
	d="
M621.838135,347.699463 
	C622.803345,347.702240 623.303101,347.727509 623.800293,347.702759 
	C627.296143,347.528839 630.190063,348.902924 631.607117,352.007599 
	C633.334778,355.792755 629.873291,357.946045 628.034485,360.463928 
	C633.164673,368.595795 629.828247,374.857269 620.227661,375.342712 
	C615.653259,375.574005 611.050842,376.231323 606.480469,374.722870 
	C611.113403,366.572052 613.241455,358.155334 611.767334,348.424469 
	C614.521423,346.780670 618.056702,348.085693 621.838135,347.699463 
M621.045715,370.433746 
	C623.468384,367.488464 623.675110,364.913422 619.992004,362.756653 
	C617.702576,364.527679 617.221497,366.735168 617.278870,369.116364 
	C617.335144,371.449829 618.432739,372.106445 621.045715,370.433746 
M624.620850,354.454163 
	C624.545715,352.803467 624.085693,351.351959 622.070007,351.608002 
	C620.692932,351.782898 620.352600,353.048035 620.317871,354.266571 
	C620.285828,355.392456 619.956604,356.798035 621.329712,357.320160 
	C623.252014,358.051178 623.969543,356.618530 624.620850,354.454163 
z"/>
<path fill="#000000" opacity="1.000000" stroke="none" 
	d="
M633.723328,363.095337 
	C631.457458,360.492340 633.218750,359.241119 634.957397,358.121887 
	C637.697754,356.357819 640.443970,355.480011 642.670227,359.041107 
	C646.191467,356.623047 649.563721,354.858795 652.254395,359.956390 
	C653.268127,359.171997 654.034485,358.553436 654.827271,357.970917 
	C656.395691,356.818512 658.203674,356.230286 659.972900,357.106689 
	C661.962219,358.092072 661.651062,360.139191 661.535095,361.963776 
	C661.342102,365.001129 660.161865,367.745636 661.082947,371.161530 
	C661.838318,373.962738 658.183960,375.222382 655.442932,375.220581 
	C652.514160,375.218658 652.741150,372.799774 652.922180,370.805450 
	C653.143188,368.369629 654.795532,366.193604 654.341431,363.329529 
	C651.182861,364.848755 650.281494,367.593872 649.720764,370.514282 
	C649.152527,373.473907 648.229919,376.582214 644.534058,375.683319 
	C640.516541,374.706177 643.170410,371.279480 643.060303,368.955872 
	C642.994080,367.557892 644.203308,366.182709 643.289001,364.254913 
	C640.849976,366.247284 639.384277,368.473236 639.116516,371.599670 
	C638.855774,374.644257 636.727600,376.298462 633.967590,375.564240 
	C631.024292,374.781250 631.998840,372.211273 632.830078,370.181183 
	C633.731995,367.978729 633.950439,365.704590 633.723328,363.095337 
z"/>
<path fill="#000000" opacity="1.000000" stroke="none" 
	d="
M492.138000,639.082397 
	C492.893860,635.656616 493.669891,632.631165 494.635529,628.866394 
	C491.242523,631.249146 490.393463,634.117065 489.803284,637.161804 
	C489.269135,639.917419 487.946960,642.051697 484.744720,641.166992 
	C481.230286,640.195984 482.729187,637.433777 483.413177,635.458008 
	C484.311066,632.864319 485.140350,630.679260 483.317291,627.973450 
	C481.895966,625.863708 484.197815,624.815369 485.731537,623.885010 
	C488.293976,622.330566 490.903748,620.807068 492.696411,625.122559 
	C496.081207,622.392334 499.253326,620.526184 502.066467,625.476807 
	C503.336151,624.661438 504.412292,623.941772 505.516571,623.268250 
	C507.022217,622.349854 508.657928,621.902405 510.200409,622.989563 
	C511.710876,624.054077 511.768768,625.677917 511.678986,627.454041 
	C511.510071,630.796082 509.070312,634.217651 512.005371,637.296265 
	C511.071228,639.067627 509.643158,639.898987 508.131561,640.620117 
	C506.717468,641.294617 505.220398,641.650879 503.899658,640.581116 
	C502.740448,639.642212 502.834747,638.304688 503.094818,636.907166 
	C503.546875,634.478333 503.822815,632.016785 504.303040,628.656067 
	C501.029175,631.337463 499.830261,634.125183 499.119141,637.425293 
	C498.199615,641.692383 495.716125,642.322021 492.138000,639.082397 
z"/>
<path fill="#000000" opacity="1.000000" stroke="none" 
	d="
M442.966858,628.147400 
	C444.618439,623.473450 445.858368,619.196655 442.919495,614.261597 
	C448.951874,613.178589 454.740540,612.814392 459.960571,614.176025 
	C463.821716,615.183105 461.238556,618.542419 459.862213,620.764465 
	C457.205383,620.634155 457.013123,615.993103 454.069763,617.729187 
	C451.546814,619.217468 451.596436,622.091248 451.697479,624.625366 
	C454.518494,626.511047 455.571655,622.834473 458.092072,623.274597 
	C459.980194,626.321716 458.011871,628.919006 456.956512,631.708435 
	C454.554901,631.595520 453.089813,626.837219 450.660614,630.402954 
	C449.480530,632.135193 447.909546,635.191895 449.935150,636.865173 
	C453.499176,639.809265 455.748444,635.874939 458.217865,633.882751 
	C460.436737,639.443054 459.373901,641.372070 454.128662,641.297485 
	C448.936890,641.223755 443.674316,641.901672 437.389038,640.598267 
	C442.276245,637.178284 442.024231,632.659241 442.966858,628.147400 
z"/>
<path fill="#000000" opacity="1.000000" stroke="none" 
	d="
M478.408295,636.243774 
	C475.601257,639.271240 472.745941,641.348145 468.731262,641.349182 
	C463.668610,641.350464 461.373291,638.840759 462.354584,633.808411 
	C463.176575,629.592651 464.261322,625.426758 465.281189,621.251404 
	C465.850616,618.920166 467.024902,616.582336 464.325378,614.567017 
	C465.534637,613.730835 466.307617,613.107788 467.160004,612.625061 
	C469.004150,611.580688 470.978241,609.861572 473.061066,611.520386 
	C474.992737,613.058777 473.805084,615.169678 473.097626,617.023743 
	C472.377930,618.909790 472.009918,620.813049 472.740845,622.917542 
	C475.442780,623.361389 479.118378,620.394958 480.691742,624.304749 
	C482.147522,627.922363 481.875397,631.818237 479.241913,635.143005 
	C479.035736,635.403198 478.833923,635.666809 478.408295,636.243774 
M472.629303,628.820923 
	C468.937469,630.557068 468.563751,633.174683 470.160339,637.114990 
	C473.357361,634.634033 474.557953,632.282715 472.629303,628.820923 
z"/>
<path fill="#000000" opacity="1.000000" stroke="none" 
	d="
M676.765198,464.284119 
	C673.656372,464.624908 673.411560,462.917389 673.660278,460.851410 
	C673.963745,458.330383 674.297668,455.813019 674.220276,453.191925 
	C672.236450,455.099182 670.393433,456.934265 670.236145,459.790283 
	C670.058167,463.024414 668.400574,465.050476 665.113281,464.203003 
	C661.496887,463.270691 663.492065,460.676605 663.980530,458.531647 
	C664.578308,455.906738 665.563477,453.527954 664.225525,450.485168 
	C662.629517,446.855743 666.870850,446.384583 668.876770,445.367188 
	C671.647034,443.962128 672.424561,446.531799 673.038025,449.014618 
	C676.358521,446.083771 679.620789,441.907806 683.196411,448.272644 
	C683.934570,447.909088 684.419556,447.747192 684.815857,447.462036 
	C686.809204,446.027924 688.760803,443.738190 691.386780,445.911682 
	C693.665405,447.797668 693.026733,450.434509 692.200867,452.865540 
	C691.661438,454.453522 690.762878,456.136230 691.677795,457.670624 
	C692.996948,459.883148 692.606628,461.394501 690.514832,462.662201 
	C688.792908,463.705780 686.960205,465.026215 685.002747,463.600708 
	C683.063660,462.188660 683.766907,459.997406 684.119873,458.050140 
	C684.398438,456.513672 685.632141,455.024323 684.233459,453.329529 
	C681.766724,454.246613 681.487305,456.366974 681.079895,458.506805 
	C680.612793,460.959442 680.125366,463.501129 676.765198,464.284119 
z"/>
<path fill="#000000" opacity="1.000000" stroke="none" 
	d="
M641.434448,436.015564 
	C647.734802,437.867065 643.791809,440.822174 643.076904,444.185089 
	C640.227905,441.485199 637.804626,438.195007 634.339233,441.090088 
	C632.568665,442.569244 632.513855,445.883423 633.663757,447.616150 
	C635.857849,450.922333 637.747620,446.561890 640.444580,446.613403 
	C642.475098,450.031708 641.498901,452.988831 639.548645,455.824280 
	C636.436768,455.671967 635.795898,449.916046 632.638855,453.505432 
	C630.226440,456.248169 629.235413,459.761139 633.127869,462.599426 
	C629.260010,464.824036 623.876587,464.900635 620.080933,463.126678 
	C624.930847,455.170074 626.802063,446.762390 624.584717,436.616211 
	C629.611694,434.919525 635.395142,436.395508 641.434448,436.015564 
z"/>
<path fill="#000000" opacity="1.000000" stroke="none" 
	d="
M662.632202,446.629883 
	C661.263000,448.566345 658.724670,448.429474 657.609497,450.776093 
	C660.594238,453.785858 660.477234,456.253418 656.074829,458.150513 
	C654.288452,458.920288 655.024902,462.411713 652.382751,462.826416 
	C649.875061,461.778900 651.954895,459.382080 650.761414,457.973450 
	C648.995178,458.232574 649.075806,459.861908 648.572510,460.959442 
	C647.988342,462.233185 647.473633,463.600830 645.793152,463.146362 
	C644.107666,462.690521 644.062988,461.352783 644.692749,459.942780 
	C645.115173,458.997131 645.443909,458.033783 644.518005,457.216064 
	C641.789856,454.806610 642.203247,453.038300 645.559814,451.818756 
	C646.571655,451.451111 647.529602,450.720856 647.319885,449.687439 
	C646.862305,447.433014 643.758728,444.945465 648.383301,443.486755 
	C650.853210,442.707733 650.250427,438.846466 653.033325,438.257019 
	C655.127686,439.211548 653.606140,441.478424 654.898315,442.654724 
	C656.265015,442.669037 656.236267,441.394226 656.700928,440.623657 
	C657.455505,439.372406 657.901123,437.568329 659.878174,438.233612 
	C661.725098,438.855103 660.846191,440.384460 660.583313,441.620605 
	C660.131531,443.745239 663.285095,444.167114 662.632202,446.629883 
z"/>
<path fill="#000000" opacity="1.000000" stroke="none" 
	d="
M351.767456,599.997070 
	C352.237488,596.227844 354.350189,592.754822 349.642792,589.399231 
	C356.458344,587.845337 362.129944,587.834717 367.417389,589.103882 
	C373.275787,590.510193 373.394867,595.259216 368.243988,601.035095 
	C372.769958,610.871216 369.258667,616.271851 358.162476,616.265381 
	C354.303375,616.263123 350.335815,616.966614 345.916046,615.408813 
	C350.791382,611.177307 350.274597,605.453003 351.767456,599.997070 
M360.409821,603.840942 
	C356.587036,605.973938 356.825287,609.037048 358.082672,612.559570 
	C363.339264,610.490967 364.012390,608.311218 360.409821,603.840942 
M363.072754,592.586426 
	C358.679657,593.349182 360.532898,596.280334 360.568481,599.088440 
	C364.206726,597.887146 365.826355,596.295044 363.072754,592.586426 
z"/>
<path fill="#000000" opacity="1.000000" stroke="none" 
	d="
M414.505188,608.300537 
	C414.597015,607.143555 414.597015,606.336487 414.597015,604.963318 
	C412.022339,606.289734 410.645691,607.842712 410.349060,610.357483 
	C410.194183,611.670532 410.041901,613.019958 409.611450,614.256470 
	C408.843964,616.461243 406.832458,616.488831 405.010712,616.295532 
	C402.601654,616.039917 403.015411,614.141174 403.082550,612.460327 
	C403.179077,610.043457 405.139496,607.922424 404.283173,604.851440 
	C401.804779,606.805786 400.524078,608.942444 400.151123,611.685669 
	C399.698914,615.011658 397.739960,617.322266 394.458649,616.258972 
	C391.320160,615.241943 393.021423,612.414368 393.764343,610.314026 
	C394.498962,608.237000 395.443848,605.914978 394.286926,604.040222 
	C391.668030,599.796570 395.485809,599.207642 397.568054,597.923035 
	C400.521667,596.100769 402.045959,598.048767 402.958221,601.056946 
	C406.225159,597.175110 409.550079,595.262756 413.201019,600.193054 
	C414.118103,599.614929 414.811920,599.175964 415.507294,598.739441 
	C417.066132,597.761047 418.652679,596.590271 420.577026,597.600525 
	C422.819397,598.777710 422.239380,601.018066 422.255066,602.952026 
	C422.278351,605.820435 421.183685,608.431580 422.216248,611.647644 
	C423.038696,614.209229 419.490509,615.870728 416.703857,616.133240 
	C413.780762,616.408508 413.648132,614.158936 413.768097,612.062378 
	C413.833679,610.916504 414.188812,609.787231 414.505188,608.300537 
z"/>
<path fill="#000000" opacity="1.000000" stroke="none" 
	d="
M387.790527,611.712524 
	C385.068298,613.927795 382.787598,616.128601 379.329865,616.307007 
	C373.769836,616.593933 371.220032,613.848022 372.314178,608.377502 
	C373.193542,603.980957 373.987549,599.543030 375.282440,595.263550 
	C375.962677,593.015442 375.811462,591.258057 374.161102,589.442078 
	C375.547028,588.517517 376.578705,587.672852 377.741852,587.091064 
	C379.345581,586.289001 381.145599,584.996521 382.856812,586.358459 
	C384.832916,587.931213 383.824005,589.916626 382.977875,591.796997 
	C382.147614,593.642273 381.903931,595.585144 382.651428,597.810608 
	C385.418518,597.789612 388.965088,595.668457 390.593719,599.392822 
	C392.528442,603.817261 390.927032,607.839417 387.790527,611.712524 
M381.113220,611.322754 
	C384.012115,609.186584 384.438477,606.453979 383.170624,602.718506 
	C379.143921,605.002991 377.930695,607.594238 381.113220,611.322754 
z"/>
<path fill="#000000" opacity="1.000000" stroke="none" 
	d="
M350.403259,292.413940 
	C351.293335,286.345673 354.602020,280.720093 350.330505,274.216675 
	C357.664001,273.848206 364.511353,272.204773 370.979889,275.442535 
	C377.693085,278.802795 378.456604,289.191437 373.258728,295.863312 
	C369.099030,301.202606 355.370575,304.188843 346.210236,300.390533 
	C348.296112,298.197083 350.293427,295.983337 350.403259,292.413940 
M361.178314,278.641663 
	C358.790558,282.918945 359.704224,288.017944 357.719696,292.434265 
	C357.009521,294.014709 356.524170,296.232849 358.410950,297.385681 
	C360.250671,298.509827 362.217987,297.795746 363.913879,296.489258 
	C367.344025,293.846710 369.631439,287.222137 368.532928,283.076080 
	C367.622345,279.639313 365.906860,277.357605 361.178314,278.641663 
z"/>
<path fill="#000000" opacity="1.000000" stroke="none" 
	d="
M378.094543,299.890625 
	C378.154022,296.835175 379.823547,294.598053 379.955872,291.845703 
	C380.048401,289.921814 380.278442,288.329865 377.733032,287.347137 
	C381.169006,284.408386 383.491333,280.435394 388.058167,284.595459 
	C388.797028,285.268524 389.591400,284.602386 390.262665,284.093140 
	C393.365784,281.738953 396.060425,282.456421 398.402283,285.453247 
	C399.254059,284.901489 399.956512,284.482666 400.620087,284.009338 
	C402.200287,282.882172 403.947357,282.299377 405.761017,283.135651 
	C407.887238,284.116028 407.302094,286.220428 407.344391,287.975739 
	C407.417938,291.028229 406.189880,293.845520 407.046753,297.207336 
	C407.767334,300.034607 404.111359,301.492401 401.534393,301.625366 
	C398.379608,301.788086 398.742218,299.020630 398.873871,296.859833 
	C398.989594,294.960022 400.511047,293.164307 399.179474,290.720184 
	C396.132202,292.250732 395.858826,295.134705 395.356873,297.752014 
	C394.808502,300.611298 393.500275,302.585724 390.383911,301.894287 
	C387.088989,301.163239 388.779541,298.467743 388.783112,296.523804 
	C388.786713,294.570282 390.268921,292.782593 389.367188,290.290955 
	C386.634155,292.305237 385.495758,294.756195 385.041168,297.986572 
	C384.449768,302.188904 381.653534,302.974731 378.094543,299.890625 
z"/>
</svg>