<?xml version="1.0" encoding="UTF-8"?>
<svg version="1.1" xmlns="http://www.w3.org/2000/svg" width="500" height="500">
<path d="M0 0 C3.625 0.3125 3.625 0.3125 5.5625 2.1875 C6.625 4.3125 6.625 4.3125 6.625 6.3125 C7.50542969 6.27769531 8.38585937 6.24289063 9.29296875 6.20703125 C10.45441406 6.17996094 11.61585938 6.15289063 12.8125 6.125 C13.96105469 6.09019531 15.10960937 6.05539063 16.29296875 6.01953125 C20.89572382 6.42422835 23.40817409 8.09567409 26.625 11.3125 C27.37323458 16.10649855 28.08032341 21.8199279 25.55078125 26.15234375 C23.68437452 27.77428411 21.73129065 29.01396159 19.625 30.3125 C18.10939237 31.39536711 16.59441658 32.47917976 15.08740234 33.57397461 C13.31849549 34.85336789 11.53527421 36.11075337 9.75 37.3671875 C6.65523823 39.55956576 3.60317061 41.80352686 0.5625 44.0703125 C-0.72672363 45.0303418 -0.72672363 45.0303418 -2.04199219 46.00976562 C-3.74854867 47.28339227 -5.45238381 48.56067437 -7.15332031 49.84179688 C-7.93288086 50.42251953 -8.71244141 51.00324219 -9.515625 51.6015625 C-10.56024902 52.38587646 -10.56024902 52.38587646 -11.62597656 53.18603516 C-13.375 54.3125 -13.375 54.3125 -15.375 54.3125 C-15.705 55.3025 -16.035 56.2925 -16.375 57.3125 C-17.96972656 58.67529297 -17.96972656 58.67529297 -20.015625 60.0546875 C-20.75683594 60.56386719 -21.49804688 61.07304688 -22.26171875 61.59765625 C-23.04160156 62.12230469 -23.82148438 62.64695313 -24.625 63.1875 C-33.41524636 69.13166322 -39.49615575 75.54834504 -45.8125 84.0625 C-46.45509766 84.9184375 -47.09769531 85.774375 -47.75976562 86.65625 C-51.34461442 91.46031133 -54.78939697 96.32627557 -58.078125 101.33789062 C-60.75137241 105.40815136 -63.31949296 109.2672406 -66.7890625 112.703125 C-69.19649717 115.13237932 -71.17298912 117.55536902 -73.1875 120.3125 C-77.42187677 126.04508649 -81.7307967 131.71561496 -86.0625 137.375 C-91.27838451 144.20017644 -96.42797164 151.06731688 -101.5 158 C-107.74755848 166.53375099 -114.19994812 174.89522034 -120.73022461 183.21386719 C-123.07189661 186.20169746 -125.40113036 189.19913782 -127.73022461 192.19677734 C-129.16269776 194.03940943 -130.59848583 195.87939118 -132.03515625 197.71875 C-132.82792969 198.7396875 -133.62070312 199.760625 -134.4375 200.8125 C-135.63052734 202.34390625 -135.63052734 202.34390625 -136.84765625 203.90625 C-138.76185495 206.42594894 -140.52223756 209.01842142 -142.2578125 211.6640625 C-145.35076157 216.3510965 -148.71670594 220.77579911 -152.1875 225.1875 C-152.80351074 225.97560059 -153.41952148 226.76370117 -154.05419922 227.57568359 C-157.31861102 231.73979705 -160.6234544 235.86342305 -164 239.9375 C-171.88303959 249.49715622 -179.45816572 259.36929749 -185.875 269.98046875 C-188.06753048 273.38916848 -190.43606003 276.45891821 -193.4375 279.1875 C-196.75611706 282.82727355 -198.41140056 286.4924722 -198.3125 291.4375 C-196.90958269 295.73977976 -194.96638409 298.36627162 -191.0625 300.6875 C-184.13538544 302.29845687 -176.03610703 299.11741863 -169.30078125 297.4765625 C-168.14055954 297.19654388 -166.98033783 296.91652527 -165.78495789 296.62802124 C-162.08506294 295.73421845 -158.3862883 294.83587011 -154.6875 293.9375 C-152.2194705 293.34085844 -149.7513722 292.7445014 -147.28320312 292.1484375 C-142.71614709 291.0441491 -138.14923216 289.93929545 -133.58325195 288.83056641 C-132.04334091 288.45753387 -132.04334091 288.45753387 -130.47232056 288.07696533 C-128.35305201 287.55389796 -126.23739891 287.0160206 -124.12509155 286.46551514 C-123.07858429 286.19378479 -122.03207703 285.92205444 -120.95385742 285.64208984 C-120.02465988 285.39598969 -119.09546234 285.14988953 -118.1381073 284.89633179 C-112.91583879 283.79289062 -106.86797355 282.83229695 -102.125 285.6484375 C-98.98784666 288.6315342 -99.18450448 292.04190403 -98.94921875 296.1796875 C-99.77514514 300.31689676 -102.75334996 302.85890937 -106.05712891 305.26953125 C-107.06179199 305.88183594 -108.06645508 306.49414062 -109.1015625 307.125 C-110.21660156 307.80820312 -111.33164062 308.49140625 -112.48046875 309.1953125 C-113.05974121 309.54368164 -113.63901367 309.89205078 -114.23583984 310.25097656 C-115.97999778 311.30046434 -117.71511618 312.36368529 -119.44921875 313.4296875 C-125.2965751 316.98778034 -131.1676198 320.25415336 -137.32470703 323.23852539 C-139.96496067 324.62153036 -142.0865371 326.40904579 -144.375 328.3125 C-147.57947846 330.4072122 -150.85477657 332.38496774 -154.125 334.375 C-160.90177255 338.53322059 -167.64689544 342.72803583 -174.3125 347.0625 C-174.99707275 347.50730713 -175.68164551 347.95211426 -176.38696289 348.41040039 C-179.04791871 350.14169774 -181.70667643 351.87635164 -184.36523438 353.61132812 C-186.26251299 354.84786294 -188.16230031 356.08046048 -190.0625 357.3125 C-191.13886719 358.01375 -192.21523438 358.715 -193.32421875 359.4375 C-196.375 361.3125 -196.375 361.3125 -199.60546875 362.91796875 C-205.85886055 366.06671469 -210.14118466 371.93713187 -212.51586914 378.43359375 C-212.95854126 380.07521484 -212.95854126 380.07521484 -213.41015625 381.75 C-213.74466797 382.97589844 -214.07917969 384.20179688 -214.42382812 385.46484375 C-214.75833984 386.73457031 -215.09285156 388.00429688 -215.4375 389.3125 C-215.77587891 390.55128906 -216.11425781 391.79007812 -216.46289062 393.06640625 C-218.41596951 400.31206448 -220.13317073 407.57806712 -221.66674805 414.92333984 C-224.40259088 428.01502212 -227.32735769 441.11895378 -230.9375 454 C-231.28941406 455.26199219 -231.64132813 456.52398437 -232.00390625 457.82421875 C-234.40624038 463.93614005 -237.68971054 468.97539466 -243.84863281 471.66723633 C-254.58464543 474.40933928 -266.61974192 471.7651269 -277.25 469.6875 C-278.70339328 469.4122952 -280.15684485 469.13739803 -281.61035156 468.86279297 C-308.74548414 463.67340197 -335.94341123 456.9792434 -361.9921875 447.734375 C-365.71166693 446.45794007 -369.48492534 445.51296958 -373.296875 444.55078125 C-382.04558558 442.29128375 -390.3603089 439.07637925 -398.75 435.75 C-399.53324646 435.44225647 -400.31649292 435.13451294 -401.12347412 434.81744385 C-413.98748341 429.76296876 -426.71518112 424.44909227 -439.29199219 418.71289062 C-442.6890045 417.16987014 -446.09813065 415.6554286 -449.5078125 414.140625 C-451.88070837 413.07402842 -454.25311661 412.00634622 -456.625 410.9375 C-457.72730957 410.44942871 -458.82961914 409.96135742 -459.96533203 409.45849609 C-470.32617949 404.73394965 -470.32617949 404.73394965 -473.375 400.3125 C-474.0390625 396.71875 -474.0390625 396.71875 -474 392.8125 C-474.01289063 391.5234375 -474.02578125 390.234375 -474.0390625 388.90625 C-473.20895116 384.41388276 -471.78521082 383.27375902 -468.375 380.3125 C-465.51928711 378.72265625 -465.51928711 378.72265625 -462.40234375 377.375 C-460.68047852 376.62089844 -460.68047852 376.62089844 -458.92382812 375.8515625 C-457.73208984 375.34367187 -456.54035156 374.83578125 -455.3125 374.3125 C-454.14783203 373.80460937 -452.98316406 373.29671875 -451.78320312 372.7734375 C-442.70609262 368.82906636 -433.5868644 364.97898205 -424.390625 361.3203125 C-409.25405561 355.29583727 -394.30246876 348.80997795 -379.49731445 342.01538086 C-370.13105153 337.72247497 -360.68606217 333.6183896 -351.22412109 329.54150391 C-348.36224755 328.30699907 -345.50324859 327.0660123 -342.64453125 325.82421875 C-334.78193412 322.41938429 -326.96637787 319.08489057 -318.8671875 316.27734375 C-313.85944289 314.33860877 -309.13396714 311.78744576 -304.375 309.3125 C-303.64152344 309.02632813 -302.90804687 308.74015625 -302.15234375 308.4453125 C-299.6455338 306.8475655 -299.38798028 305.08385656 -298.375 302.3125 C-298.04314697 301.40975342 -297.71129395 300.50700684 -297.36938477 299.5769043 C-297.02190186 298.60664307 -296.67441895 297.63638184 -296.31640625 296.63671875 C-295.93033203 295.56099609 -295.54425781 294.48527344 -295.14648438 293.37695312 C-294.74751953 292.26255859 -294.34855469 291.14816406 -293.9375 290 C-289.49051339 277.58761161 -289.49051339 277.58761161 -287.7890625 273.109375 C-286.73324934 270.32401858 -285.76805656 267.51925532 -284.83203125 264.69140625 C-278.84213727 246.92017367 -278.84213727 246.92017367 -271.375 241.3125 C-263.13657448 237.30461731 -254.12809245 239.42071353 -245.4375 240.8125 C-229.82844504 243.51109766 -229.82844504 243.51109766 -215.375 238.3125 C-214.58222656 237.90257812 -213.78945313 237.49265625 -212.97265625 237.0703125 C-209.70996814 234.86247844 -207.58076142 232.11578815 -205.25 229 C-204.28019662 227.73418442 -203.31013731 226.46856488 -202.33984375 225.203125 C-201.8485498 224.55666016 -201.35725586 223.91019531 -200.85107422 223.24414062 C-198.53930775 220.21888487 -196.17357512 217.23680619 -193.8125 214.25 C-190.3044564 209.79271378 -186.82644462 205.31373055 -183.375 200.8125 C-178.5559938 194.5277525 -173.66786158 188.29894046 -168.76611328 182.07861328 C-166.92382362 179.73970079 -165.08436263 177.39857498 -163.24560547 175.05688477 C-162.33796793 173.90172441 -161.42945079 172.74725459 -160.52001953 171.59350586 C-158.09663802 168.51707306 -155.69171027 165.42807102 -153.30859375 162.3203125 C-152.80714844 161.670625 -152.30570312 161.0209375 -151.7890625 160.3515625 C-150.82175397 159.09764404 -149.85931587 157.83994973 -148.90234375 156.578125 C-147.77285683 155.11920439 -146.57940864 153.7102088 -145.375 152.3125 C-144.715 152.3125 -144.055 152.3125 -143.375 152.3125 C-143.106875 151.755625 -142.83875 151.19875 -142.5625 150.625 C-139.99620384 145.6274759 -136.87561247 141.25447386 -133.375 136.875 C-132.39576481 135.63937722 -131.4166003 134.40369842 -130.4375 133.16796875 C-129.93476563 132.53552246 -129.43203125 131.90307617 -128.9140625 131.25146484 C-126.39029013 128.07192802 -123.88289739 124.87956197 -121.375 121.6875 C-120.91867187 121.10814697 -120.46234375 120.52879395 -119.9921875 119.93188477 C-118.17501962 117.62200052 -116.37904571 115.31825015 -114.6875 112.9140625 C-114.254375 112.38554688 -113.82125 111.85703125 -113.375 111.3125 C-112.715 111.3125 -112.055 111.3125 -111.375 111.3125 C-111.14554687 110.78398438 -110.91609375 110.25546875 -110.6796875 109.7109375 C-108.94794167 106.5274287 -106.73975261 103.77147269 -104.5 100.9375 C-102.02561615 97.79495909 -99.61455475 94.67277898 -97.3984375 91.33984375 C-95.05402632 87.83227875 -92.49932937 84.5500763 -89.875 81.25 C-89.16537109 80.3518457 -89.16537109 80.3518457 -88.44140625 79.43554688 C-87.51845094 78.26843025 -86.59277092 77.1034619 -85.6640625 75.94091797 C-84.47346489 74.43688652 -83.31337591 72.90883857 -82.15625 71.37890625 C-81.5684375 70.69699219 -80.980625 70.01507813 -80.375 69.3125 C-79.715 69.3125 -79.055 69.3125 -78.375 69.3125 C-78.01921875 68.50232422 -78.01921875 68.50232422 -77.65625 67.67578125 C-75.44080408 63.58936423 -72.3590079 60.10736705 -69.46875 56.48046875 C-66.51335731 52.00878317 -65.34368828 48.09726777 -65.4375 42.75 C-65.3659143 38.81278658 -64.33425438 36.68241753 -62.375 33.3125 C-61.14358224 31.23778651 -61.14358224 31.23778651 -61.4375 28.3125 C-61.375 25.3125 -61.375 25.3125 -59.375 23.3125 C-52.79807692 23.88942308 -52.79807692 23.88942308 -51.375 25.3125 C-51.065625 24.343125 -50.75625 23.37375 -50.4375 22.375 C-49.375 19.3125 -49.375 19.3125 -48.375 18.3125 C-42.96323529 17.84191176 -42.96323529 17.84191176 -40.5 19.8125 C-40.12875 20.3075 -39.7575 20.8025 -39.375 21.3125 C-39.436875 20.136875 -39.436875 20.136875 -39.5 18.9375 C-39.375 16.3125 -39.375 16.3125 -37.375 14.3125 C-33.875 14.0625 -33.875 14.0625 -30.375 14.3125 C-29.715 14.9725 -29.055 15.6325 -28.375 16.3125 C-28.065625 15.343125 -27.75625 14.37375 -27.4375 13.375 C-26.375 10.3125 -26.375 10.3125 -25.375 9.3125 C-19.96323529 8.84191176 -19.96323529 8.84191176 -17.5 10.8125 C-17.12875 11.3075 -16.7575 11.8025 -16.375 12.3125 C-16.045 10.0025 -15.715 7.6925 -15.375 5.3125 C-12.625 4.625 -12.625 4.625 -9.375 4.3125 C-7 5.75 -7 5.75 -5.375 7.3125 C-5.230625 6.343125 -5.08625 5.37375 -4.9375 4.375 C-4.20544983 0.3893935 -4.20544983 0.3893935 0 0 Z M-10.375 23.3125 C-12.79008426 24.29556315 -15.20672775 25.27480543 -17.625 26.25 C-18.83800781 26.74113281 -20.05101562 27.23226562 -21.30078125 27.73828125 C-26.90303259 29.94744178 -32.61305578 31.86759639 -38.32324219 33.77709961 C-47.56438153 36.79363257 -47.56438153 36.79363257 -55.375 42.3125 C-55.17039365 44.94546062 -54.56247233 46.10810944 -52.7734375 48.05859375 C-50.65517119 49.8292681 -48.5286551 51.58496917 -46.375 53.3125 C-45.74464844 53.85132813 -45.11429687 54.39015625 -44.46484375 54.9453125 C-42.51729208 56.58394123 -42.51729208 56.58394123 -39.375 58.3125 C-34.85583701 57.18653905 -31.50449537 54.29944015 -27.9375 51.4375 C-24.71823843 48.88180825 -21.52623806 46.41320506 -18.1015625 44.1328125 C-15.32089564 42.41385712 -15.32089564 42.41385712 -13.1875 40.0625 C-7.0715777 34.08248709 0.01453595 29.52709717 7.54296875 25.5390625 C10.90581287 23.55794983 13.88814998 21.09335082 16.625 18.3125 C16.625 17.9825 16.625 17.6525 16.625 17.3125 C6.61797402 16.16762838 -1.36245144 19.54635507 -10.375 23.3125 Z M-57.375 59.3125 C-58.425928 60.60102911 -59.4394828 61.92006819 -60.4375 63.25 C-62.90782912 66.47849924 -65.44718921 69.56041155 -68.1875 72.5625 C-72.30396596 77.13019395 -76.0219929 81.96439018 -79.73828125 86.85546875 C-82.41090736 90.3727126 -85.13821591 93.84507253 -87.875 97.3125 C-91.38724651 101.76699662 -94.86658992 106.24402225 -98.3125 110.75 C-102.41126722 116.10364194 -106.6034724 121.37759058 -110.82592773 126.6340332 C-114.82563834 131.61544991 -118.78342889 136.62842198 -122.72241211 141.65795898 C-124.68257302 144.16050724 -126.65155542 146.64417964 -128.6875 149.0859375 C-130.57633973 151.11252569 -130.57633973 151.11252569 -130.375 153.3125 C-130.98214844 153.56515625 -131.58929688 153.8178125 -132.21484375 154.078125 C-134.69754772 155.49681299 -135.47825803 156.62890524 -136.9375 159.0625 C-140.84343526 165.1961923 -145.37955157 170.78051948 -149.90625 176.45996094 C-151.36558327 178.30062265 -152.81012164 180.15190371 -154.25 182.0078125 C-158.17221372 187.057434 -162.07525549 192.07489963 -166.375 196.8125 C-169.7808474 200.57019114 -172.97541973 204.46501879 -176.125 208.4375 C-176.58519531 209.01177734 -177.04539062 209.58605469 -177.51953125 210.17773438 C-179.71372342 212.97005182 -181.6698544 215.72944222 -183.375 218.84765625 C-185.38221161 222.49398899 -187.88581416 225.50758355 -190.625 228.625 C-194.04364975 232.00962772 -194.04364975 232.00962772 -195.375 236.3125 C-196.26819946 236.69184692 -196.26819946 236.69184692 -197.17944336 237.07885742 C-199.64491729 238.46416152 -200.80956775 239.8013122 -202.50390625 242.05078125 C-203.06400391 242.78876953 -203.62410156 243.52675781 -204.20117188 244.28710938 C-204.77416016 245.05861328 -205.34714844 245.83011719 -205.9375 246.625 C-206.51435547 247.38490234 -207.09121094 248.14480469 -207.68554688 248.92773438 C-210.46296406 252.61493989 -213.11244464 256.27854898 -215.375 260.3125 C-213.98386005 261.58846932 -212.58685587 262.85804648 -211.1875 264.125 C-210.41019531 264.83269531 -209.63289063 265.54039062 -208.83203125 266.26953125 C-206.45515085 268.24585629 -204.06421134 269.79832594 -201.375 271.3125 C-199.18540868 268.35570939 -196.99834142 265.39706381 -194.8125 262.4375 C-194.16643799 261.56287109 -193.52037598 260.68824219 -192.85473633 259.78710938 C-189.69670685 255.50141167 -186.56847989 251.20695632 -183.5625 246.8125 C-180.58081178 242.49904036 -177.28627468 238.50019263 -173.94140625 234.46484375 C-165.21647084 223.8391556 -157.10213575 212.69069096 -149.04418945 201.55664062 C-146.34681684 197.85675699 -143.67910096 194.49859735 -140.375 191.3125 C-139.52414401 190.10956566 -138.71269862 188.87802596 -137.9375 187.625 C-133.35877319 180.58882994 -128.1144883 174.03584016 -122.98388672 167.39892578 C-121.53515666 165.52019329 -120.09518149 163.63530206 -118.66015625 161.74609375 C-114.62576223 156.44482313 -110.5084813 151.25684402 -106.1875 146.1875 C-102.41649726 141.71273314 -99.26228428 137.13624088 -96.20703125 132.15625 C-90.51423233 123.3196666 -83.56499645 115.30648406 -76.8125 107.27734375 C-73.61506564 103.38815676 -70.60171279 99.38017616 -67.609375 95.33203125 C-66.07273117 93.25541293 -64.51965079 91.19088886 -62.953125 89.13671875 C-58.19851863 82.98171625 -58.19851863 82.98171625 -54.125 76.375 C-52.19863551 73.00386214 -50.2169133 70.91758719 -47.375 68.3125 C-48.87337756 63.81736731 -52.49819062 61.68328067 -56.375 59.3125 C-56.705 59.3125 -57.035 59.3125 -57.375 59.3125 Z M-267.0859375 252.71875 C-269.94904025 256.7228937 -271.44050182 261.18222427 -273 265.8125 C-273.6884217 267.76445711 -274.37724728 269.71627182 -275.06640625 271.66796875 C-276.05423612 274.50673456 -277.0399781 277.34621536 -278.02459717 280.18609619 C-279.41070726 284.17776696 -280.81402796 288.16279687 -282.23529053 292.14208984 C-282.69770441 293.44786145 -283.15365291 294.75594354 -283.6026001 296.06640625 C-287.0570332 306.14860224 -290.44389584 315.0789295 -300.32421875 320.17578125 C-302.22593087 321.01760224 -304.13959683 321.83277846 -306.0625 322.625 C-307.10704346 323.07955566 -308.15158691 323.53411133 -309.2277832 324.00244141 C-312.60030007 325.46350813 -315.98650718 326.88892917 -319.375 328.3125 C-321.63630975 329.28046837 -323.89672557 330.25052771 -326.15625 331.22265625 C-329.62804092 332.71486747 -333.10099969 334.20386163 -336.57885742 335.68188477 C-344.60374494 339.09547687 -352.56837839 342.62421572 -360.51266479 346.21972656 C-369.70015868 350.37739688 -378.9009273 354.41403527 -388.29467773 358.08398438 C-408.00357383 365.83674471 -427.382114 374.49960295 -446.75 383.0625 C-447.85996338 383.55137695 -448.96992676 384.04025391 -450.11352539 384.54394531 C-451.13567139 384.99866211 -452.15781738 385.45337891 -453.2109375 385.921875 C-454.09313965 386.31342773 -454.9753418 386.70498047 -455.88427734 387.10839844 C-458.4848949 388.365627 -460.92143269 389.79050691 -463.375 391.3125 C-463.27704108 393.72262013 -463.27704108 393.72262013 -462.375 396.3125 C-460.12229536 398.0636165 -460.12229536 398.0636165 -457.1875 399.3125 C-455.55748047 400.07046875 -455.55748047 400.07046875 -453.89453125 400.84375 C-449.39079138 402.72322413 -444.82998239 404.3417704 -440.1875 405.84375 C-436.93663006 406.99628203 -433.94728233 408.51870216 -430.8828125 410.09765625 C-423.85970221 413.66819242 -416.6071079 416.46867664 -409.25 419.25 C-407.96332184 419.74096074 -406.67686288 420.23249633 -405.390625 420.72460938 C-403.43126735 421.47418691 -401.47154227 422.22268076 -399.51025391 422.9671936 C-396.00750273 424.29800721 -392.51393456 425.64821036 -389.03125 427.03076172 C-379.1144531 430.95979042 -369.13107985 434.53178218 -358.97802734 437.80273438 C-356.60860905 438.56779245 -354.24376132 439.34596601 -351.87890625 440.125 C-343.89953392 442.72686674 -336.00951923 444.96707084 -327.76708984 446.60986328 C-324.20030868 447.34868552 -320.69231678 448.22495186 -317.16796875 449.14453125 C-303.02267782 452.83509045 -288.88247045 456.17365508 -274.5 458.8125 C-273.80885101 458.94210114 -273.11770203 459.07170227 -272.40560913 459.20523071 C-259.2292466 462.22756276 -259.2292466 462.22756276 -246.4375 459.8125 C-240.79186363 452.9693044 -239.586718 442.7806328 -237.46875 434.33203125 C-237.09944058 432.87236061 -236.72976413 431.41278278 -236.35974121 429.95329285 C-235.58714979 426.90209053 -234.81751856 423.85016332 -234.05029297 420.79760742 C-233.07608902 416.92165947 -232.09680087 413.04702101 -231.11553192 409.17285633 C-230.16896325 405.43470427 -229.22503025 401.69588809 -228.28125 397.95703125 C-228.10554977 397.26190744 -227.92984955 396.56678364 -227.74882507 395.85059547 C-227.24062667 393.83800929 -226.73422183 391.8249813 -226.22851562 389.81176758 C-225.91245361 388.55417633 -225.5963916 387.29658508 -225.27075195 386.00088501 C-224.14972416 381.38489497 -223.14909626 376.74608477 -222.18688965 372.0945282 C-221.32158516 369.12946825 -220.00191866 366.92095466 -218.375 364.3125 C-218.375 363.6525 -218.375 362.9925 -218.375 362.3125 C-217.7975 362.05210937 -217.22 361.79171875 -216.625 361.5234375 C-214.21526165 360.22652971 -212.43738317 358.73450298 -210.375 356.9375 C-204.59981311 352.21937857 -198.29955028 348.52840254 -191.859375 344.78955078 C-186.69200925 341.77423849 -181.78108777 338.54452573 -176.90625 335.07739258 C-172.66333023 332.11905278 -168.27506005 329.40422836 -163.875 326.6875 C-163.00230469 326.1409375 -162.12960937 325.594375 -161.23046875 325.03125 C-156.10313287 321.85609978 -150.92401485 318.9876627 -145.48632812 316.37744141 C-143.1663874 315.26049026 -143.1663874 315.26049026 -140.375 313.3125 C-140.375 312.6525 -140.375 311.9925 -140.375 311.3125 C-139.27442261 310.89798584 -139.27442261 310.89798584 -138.15161133 310.47509766 C-135.56931101 309.39386015 -133.32564336 308.18124337 -130.94921875 306.7109375 C-130.15322266 306.22109375 -129.35722656 305.73125 -128.53710938 305.2265625 C-127.72048828 304.71867187 -126.90386719 304.21078125 -126.0625 303.6875 C-125.22654297 303.171875 -124.39058594 302.65625 -123.52929688 302.125 C-121.47568801 300.85762996 -119.42436659 299.58671427 -117.375 298.3125 C-120.92295474 297.12984842 -122.27851053 297.57055969 -125.86523438 298.46826172 C-127.55344299 298.88396927 -127.55344299 298.88396927 -129.27575684 299.30807495 C-130.49444458 299.61633209 -131.71313232 299.92458923 -132.96875 300.2421875 C-134.89004374 300.71567666 -136.81133983 301.18915655 -138.7327652 301.66211128 C-142.11521902 302.49705659 -145.49502011 303.34260573 -148.875 304.1875 C-152.87745565 305.18799375 -156.88033297 306.18649681 -160.88635254 307.17263794 C-163.38030908 307.78730946 -165.87253196 308.40907296 -168.3626709 309.03903198 C-189.09395444 314.14564825 -189.09395444 314.14564825 -198.375 309.3125 C-203.13977014 306.16070652 -206.47608985 302.79824042 -208.375 297.3125 C-209.52062924 291.12610208 -209.40558846 285.49603076 -208.375 279.3125 C-209.2 278.77625 -210.025 278.24 -210.875 277.6875 C-223.35414547 269.33856816 -223.35414547 269.33856816 -227.375 264.3125 C-227.96150534 260.2069626 -227.28997928 257.88866613 -225.375 254.3125 C-226.51195312 254.19132813 -227.64890625 254.07015625 -228.8203125 253.9453125 C-237.33383465 253.02498178 -245.80282841 252.02236851 -254.26171875 250.6796875 C-255.28910156 250.55851563 -256.31648437 250.43734375 -257.375 250.3125 C-258.55707031 250.17070312 -259.73914063 250.02890625 -260.95703125 249.8828125 C-264.54502182 250.00672115 -264.54502182 250.00672115 -267.0859375 252.71875 Z " fill="#E9EAEA" transform="translate(473.375,13.6875)"/>
<path d="M0 0 C3.81489906 0.57093727 5.67465214 2.26058937 8.4375 4.875 C10.65752751 6.96761723 12.6797001 8.8094487 15.3046875 10.37109375 C19.05290916 12.63632336 22.3168276 15.4007958 25.6875 18.1875 C31.41119403 22.92458009 31.41119403 22.92458009 37.26953125 27.4921875 C38.17058594 28.17539062 39.07164062 28.85859375 40 29.5625 C40.78375 30.14128906 41.5675 30.72007812 42.375 31.31640625 C44 33 44 33 44 37 C42.87011719 38.859375 42.87011719 38.859375 41.296875 40.75 C40.72839844 41.4409375 40.15992188 42.131875 39.57421875 42.84375 C38.97222656 43.5553125 38.37023437 44.266875 37.75 45 C37.16347656 45.7115625 36.57695312 46.423125 35.97265625 47.15625 C34.33804638 49.12512841 32.67321232 51.0639459 31 53 C30.30390625 53.845625 29.6078125 54.69125 28.890625 55.5625 C27 57 27 57 24.59375 56.984375 C21.48057956 55.80287056 19.16764607 54.24324116 16.5 52.25 C15.5821875 51.57453125 14.664375 50.8990625 13.71875 50.203125 C11 48 11 48 8.609375 45.6015625 C5.50738599 42.50886088 2.18653044 39.83322745 -1.25 37.125 C-1.9087915 36.60196289 -2.56758301 36.07892578 -3.24633789 35.54003906 C-8.13912916 31.66130712 -13.05205183 27.80817691 -18 24 C-17.38821244 20.34603593 -15.8335544 18.13957441 -13.5625 15.25 C-12.94503906 14.45078125 -12.32757813 13.6515625 -11.69140625 12.828125 C-11.13324219 12.22484375 -10.57507813 11.6215625 -10 11 C-9.34 11 -8.68 11 -8 11 C-7.73445312 10.41734375 -7.46890625 9.8346875 -7.1953125 9.234375 C-5.96697004 6.93825772 -4.59685061 5.19643982 -2.875 3.25 C-2.33617187 2.63640625 -1.79734375 2.0228125 -1.2421875 1.390625 C-0.83226562 0.93171875 -0.42234375 0.4728125 0 0 Z M2 15 C-0.26212435 17.26513223 -0.26212435 17.26513223 -2 20 C-0.78814589 23.63556234 0.48490383 24.39360739 3.5 26.6875 C7.03722577 29.43137656 10.43872241 32.23718791 13.75 35.25 C17.01133192 38.19272933 20.26162948 40.6994643 24 43 C25.65 41.02 27.3 39.04 29 37 C25.20351929 33.09586861 21.21407093 29.52146167 17.0625 26 C16.46759766 25.49210937 15.87269531 24.98421875 15.25976562 24.4609375 C14.0819314 23.45688209 12.90180353 22.45551018 11.71923828 21.45703125 C10.57018724 20.48322599 9.4279143 19.50136768 8.29248047 18.51171875 C5.54252186 15.8450334 5.54252186 15.8450334 2 15 Z " fill="#EBECEC" transform="translate(198,322)"/>
<path d="M0 0 C5.78769778 1.41537158 9.42882848 4.43060853 13.875 8.1875 C14.94705688 9.07586548 14.94705688 9.07586548 16.04077148 9.98217773 C20.01608481 13.28834741 23.92938924 16.65672757 27.78515625 20.1015625 C33.38339012 24.90004868 39.22337837 29.41931957 45 34 C43.04516807 38.28201279 40.92282759 41.46645107 37.6875 44.875 C33.81029533 49.05629915 30.30658516 53.35781377 27 58 C24.30477067 56.72333182 21.94347394 55.32934471 19.56640625 53.53125 C18.92388916 53.04744873 18.28137207 52.56364746 17.61938477 52.06518555 C16.60122681 51.2904187 16.60122681 51.2904187 15.5625 50.5 C14.85601318 49.96608643 14.14952637 49.43217285 13.42163086 48.88208008 C7.89992211 44.70246625 2.3992777 40.49530564 -3.078125 36.2578125 C-4.95669015 34.80619398 -6.84162897 33.36276664 -8.734375 31.9296875 C-9.54390625 31.31351562 -10.3534375 30.69734375 -11.1875 30.0625 C-11.88230469 29.53785156 -12.57710937 29.01320313 -13.29296875 28.47265625 C-15 27 -15 27 -17 24 C-16.41050024 15.45225354 -5.80673589 5.54700968 0 0 Z M2 15 C0.61767557 16.62626404 -0.71937515 18.2925002 -2 20 C-0.64591832 23.11749781 0.76416493 24.91067185 3.4140625 27.0234375 C4.09339844 27.57 4.77273437 28.1165625 5.47265625 28.6796875 C6.18292969 29.23914063 6.89320313 29.79859375 7.625 30.375 C8.65560547 31.20257813 8.65560547 31.20257813 9.70703125 32.046875 C11.79270436 33.71384826 13.89265767 35.36052455 16 37 C16.73831055 37.57782227 17.47662109 38.15564453 18.23730469 38.75097656 C18.95047852 39.29979492 19.66365234 39.84861328 20.3984375 40.4140625 C21.04216309 40.91115723 21.68588867 41.40825195 22.34912109 41.92041016 C23.95022006 43.18243646 23.95022006 43.18243646 26 43 C27.86250805 40.78508316 27.86250805 40.78508316 29 38 C27.75019333 33.78636607 24.27869202 31.42140535 21 28.75 C20.13411255 28.03299927 20.13411255 28.03299927 19.25073242 27.30151367 C18.07281 26.32892761 16.89206531 25.35974935 15.70849609 24.39404297 C14.12875504 23.10505734 12.55809776 21.8049604 10.98828125 20.50390625 C6.95966822 16.63220322 6.95966822 16.63220322 2 15 Z " fill="#ECEDED" transform="translate(223,290)"/>
<path d="M0 0 C5.43769698 0.62638813 7.89778667 3.12547683 11.87109375 6.703125 C13.36174507 7.99287103 14.85530695 9.27925976 16.3515625 10.5625 C17.48537354 11.53993164 17.48537354 11.53993164 18.64208984 12.53710938 C22.81994473 16.03037649 27.23549948 19.20719731 31.66772461 22.36816406 C35.76225165 25.35123571 38.95571376 28.33078252 41.93359375 32.453125 C41.85447027 35.93455826 41.40004631 36.98667244 38.93359375 39.453125 C35.30859375 39.078125 35.30859375 39.078125 31.93359375 38.453125 C31.93359375 37.793125 31.93359375 37.133125 31.93359375 36.453125 C31.39863281 36.21851563 30.86367187 35.98390625 30.3125 35.7421875 C27.24765736 34.08143533 24.59798199 31.98037852 21.87109375 29.828125 C17.70080854 26.57031044 13.4980073 23.3950706 9.18359375 20.328125 C-2.31403084 11.92471409 -2.31403084 11.92471409 -5.06640625 8.453125 C-5.19140625 4.515625 -5.19140625 4.515625 -4.06640625 1.453125 C-3.06640625 0.453125 -3.06640625 0.453125 0 0 Z " fill="#E8E9E8" transform="translate(176.06640625,351.546875)"/>
<path d="M0 0 C1.8408153 1.2961704 3.39910797 2.71189663 4.99609375 4.296875 C7.222765 6.18932853 9.62555111 7.48574488 12.17358398 8.89746094 C15.15853398 10.69936365 17.70223213 12.9517067 20.3125 15.25 C21.43783452 16.22247494 22.5641483 17.19381779 23.69140625 18.1640625 C24.2445752 18.64133789 24.79774414 19.11861328 25.36767578 19.61035156 C28.5691965 22.33590584 31.87360712 24.93236692 35.171875 27.5390625 C37 29 37 29 38 30 C38.3125 32.875 38.3125 32.875 38 36 C36.3125 37.9375 36.3125 37.9375 34 39 C29.20894811 38.70887706 26.2501984 36.19411776 22.6875 33.25 C21.7903125 32.52659424 21.7903125 32.52659424 20.875 31.78857422 C19.58828564 30.74892228 18.30502832 29.70498011 17.02490234 28.65722656 C14.93620035 26.9477849 12.83831231 25.25018676 10.73828125 23.5546875 C7.40669627 20.86085547 4.07866626 18.16291211 0.765625 15.44628906 C-0.40763787 14.48522584 -1.58471518 13.52879977 -2.765625 12.57714844 C-6.88900213 9.22199574 -6.88900213 9.22199574 -8 7 C-8.039992 5.00039988 -8.04346799 2.99952758 -8 1 C-5.04206277 -0.47896861 -3.29779776 -0.4355582 0 0 Z " fill="#ECEDED" transform="translate(168,368)"/>
<path d="M0 0 C3.72021185 2.28285727 5.36171208 3.52263623 6.75 7.6875 C7.13438818 12.37703585 7.20895659 14.75193464 5.125 19 C2.3922424 22.09233097 0.68682468 23.42474492 -3.25 24.6875 C-8.06537024 24.97279123 -11.92157503 24.34947173 -15.75 21.3125 C-19.37825231 17.50283508 -19.70496793 14.110093 -19.671875 9.046875 C-18.94146105 4.96196734 -16.40083914 2.2633685 -13.25 -0.3125 C-8.48329499 -1.90140167 -4.67641851 -1.88855363 0 0 Z M-7.25 8.6875 C-7.58 10.0075 -7.91 11.3275 -8.25 12.6875 C-6.93 12.6875 -5.61 12.6875 -4.25 12.6875 C-4.25 11.6975 -4.25 10.7075 -4.25 9.6875 C-5.24 9.3575 -6.23 9.0275 -7.25 8.6875 Z " fill="#E6E7E7" transform="translate(230.25,408.3125)"/>
<path d="M0 0 C3.56986793 1.36718346 4.68082803 2.526745 6.8125 5.6875 C8.49405047 10.37814078 8.6647429 14.34102842 7.4375 19.25 C4.67311 22.61534434 1.20144553 24.57582938 -3.02734375 25.390625 C-8.15466206 25.66618145 -11.13074798 24.22437668 -15 21 C-17.971705 16.5424425 -17.75294249 12.22586818 -17 7 C-13.15134588 -0.39685568 -7.56193287 -0.6440763 0 0 Z M-7 11 C-6.67 12.32 -6.34 13.64 -6 15 C-5.01 14.67 -4.02 14.34 -3 14 C-3.33 13.01 -3.66 12.02 -4 11 C-4.99 11 -5.98 11 -7 11 Z " fill="#EFEFEF" transform="translate(217,438)"/>
<path d="M0 0 C0.66 0.99 1.32 1.98 2 3 C-0.64 4.98 -3.28 6.96 -6 9 C-4.25618453 5.51236907 -2.47193291 2.96631949 0 0 Z " fill="#B6B7B6" transform="translate(299,203)"/>
<path d="M0 0 C0.66 0.33 1.32 0.66 2 1 C-1.5 5.875 -1.5 5.875 -6 7 C-4.02 4.69 -2.04 2.38 0 0 Z " fill="#959495" transform="translate(202,255)"/>
</svg>
