<?xml version="1.0" encoding="UTF-8"?>
<svg version="1.1" xmlns="http://www.w3.org/2000/svg" width="452" height="321">
<path d="M0 0 C2.03245812 1.01385379 3.39523165 2.05035132 5.01875305 3.63742065 C5.60228043 4.20180847 6.1858078 4.76619629 6.78701782 5.34768677 C7.40384933 5.96117981 8.02068085 6.57467285 8.65620422 7.20675659 C9.29660141 7.83716858 9.9369986 8.46758057 10.59680176 9.11709595 C11.94631435 10.45143391 13.29179355 11.78986174 14.63349915 13.13204956 C16.69353082 15.18550744 18.77634288 17.21378841 20.86128235 19.24191284 C22.16938899 20.54121981 23.47607944 21.84195445 24.78120422 23.14425659 C25.40815689 23.74965271 26.03510956 24.35504883 26.68106079 24.97879028 C30.8606665 29.22634169 30.8606665 29.22634169 30.9848175 32.63864136 C29.75560108 35.21595131 28.53973509 36.6668282 26.42182922 38.57785034 C25.35146423 39.56084106 25.35146423 39.56084106 24.25947571 40.56369019 C23.11587585 41.58583618 23.11587585 41.58583618 21.94917297 42.62863159 C20.39874008 44.05076961 18.84925839 45.47394534 17.30073547 46.89816284 C16.54566711 47.58732788 15.79059875 48.27649292 15.01264954 48.98654175 C12.22909013 51.54570305 9.51534955 54.159855 6.82417297 56.81613159 C5.66208313 57.9569519 5.66208313 57.9569519 4.47651672 59.12081909 C2.66740038 60.7893831 2.66740038 60.7893831 2.88667297 62.94113159 C4.54749374 64.15480831 6.26962601 65.28473526 8.01167297 66.37863159 C12.78541682 69.48633323 17.35164374 72.72699471 21.82417297 76.25363159 C22.33544739 76.65444946 22.8467218 77.05526733 23.37348938 77.4682312 C25.22684945 78.94081412 27.05803316 80.43791707 28.88667297 81.94113159 C29.83397278 82.71634155 30.78127258 83.49155151 31.75727844 84.29025269 C39.37664581 90.59072144 46.51864985 97.25877496 53.48139954 104.27511597 C55.14292901 105.94742822 56.81498054 107.60868522 58.48823547 109.26925659 C65.07896982 115.85191711 71.09387903 122.63829574 76.88667297 129.94113159 C77.78445908 131.00451135 78.68802794 132.06308534 79.60151672 133.11300659 C84.22830541 138.47975621 88.53087555 143.99928224 92.57417297 149.81613159 C93.24404236 150.74377319 93.24404236 150.74377319 93.92744446 151.69015503 C95.78746412 154.44094595 96.86182983 156.49274322 97.04682922 159.83175659 C95.33663729 164.41530131 92.59994873 167.95446588 89.63667297 171.81613159 C88.69211243 173.06861694 88.69211243 173.06861694 87.72846985 174.34640503 C85.79752638 176.89103673 83.84702561 179.41910488 81.88667297 181.94113159 C81.04072571 183.03119507 81.04072571 183.03119507 80.1776886 184.14328003 C72.27802236 194.24894474 63.80575941 203.7283321 54.88667297 212.94113159 C54.29177063 213.557948 53.69686829 214.1747644 53.0839386 214.81027222 C45.73376246 222.39883244 38.23201706 229.44088264 29.88667297 235.94113159 C28.55868319 237.01912279 27.23195784 238.09867271 25.90620422 239.17941284 C15.14413296 247.86486756 3.9535692 255.20056703 -8.11332703 261.94113159 C-8.95766296 262.41679565 -9.8019989 262.89245972 -10.67192078 263.38253784 C-36.36626783 277.73539229 -64.80026204 288.2476332 -94.11332703 291.94113159 C-94.9170575 292.04264526 -95.72078796 292.14415894 -96.5488739 292.24874878 C-132.38131903 296.54809969 -168.05795489 293.67907549 -202.10771179 281.58297729 C-203.07636169 281.24226196 -204.0450116 280.90154663 -205.04301453 280.55050659 C-206.33054626 280.08596069 -206.33054626 280.08596069 -207.64408875 279.61203003 C-210.36851669 278.8717959 -212.2999921 278.65418676 -215.11332703 278.94113159 C-217.29661352 280.40274116 -217.29661352 280.40274116 -219.2610321 282.52120972 C-220.04146378 283.30201904 -220.82189545 284.08282837 -221.62597656 284.88729858 C-222.45324753 285.74037598 -223.28051849 286.59345337 -224.13285828 287.47238159 C-224.99142929 288.33802734 -225.85000031 289.2036731 -226.73458862 290.09555054 C-229.47693918 292.86591245 -232.20140925 295.65314327 -234.92582703 298.44113159 C-236.78079587 300.32117414 -238.63690213 302.20009516 -240.4941864 304.07785034 C-245.04718324 308.68600655 -249.58561484 313.3081371 -254.11332703 317.94113159 C-256.8853196 316.66979469 -258.96951923 315.34652774 -261.15361023 313.22311401 C-261.71711685 312.67882248 -262.28062347 312.13453094 -262.86120605 311.57374573 C-263.75364265 310.69405876 -263.75364265 310.69405876 -264.66410828 309.79660034 C-265.28230942 309.18979935 -265.90051056 308.58299835 -266.53744507 307.95780945 C-267.83872964 306.67537856 -269.13715909 305.39004496 -270.4329071 304.10202026 C-272.42248767 302.13193822 -274.43235825 300.18418604 -276.44340515 298.23605347 C-277.70578473 296.98672661 -278.96689726 295.7361179 -280.22660828 294.48410034 C-280.83168716 293.90371506 -281.43676605 293.32332977 -282.06018066 292.72535706 C-283.72001648 291.04733276 -283.72001648 291.04733276 -286.11332703 287.94113159 C-286.01674244 283.12114833 -283.56203972 280.89351384 -280.26345825 277.60351562 C-279.75372076 277.08965486 -279.24398326 276.5757941 -278.71879917 276.0463618 C-277.0086886 274.32732319 -275.28466714 272.62296011 -273.56034851 270.91818237 C-272.3309653 269.68829035 -271.10245549 268.45752476 -269.87475586 267.22595215 C-266.53628571 263.88205657 -263.18552165 260.55073156 -259.83231997 257.22161722 C-256.32180181 253.73239422 -252.82222855 250.23222736 -249.3213501 246.7333374 C-243.43561559 240.85405466 -237.54253121 234.98222559 -231.64433289 229.115448 C-224.08855212 221.59986698 -216.54416705 214.07295812 -209.0036459 206.54207039 C-202.50897245 200.0557238 -196.00985307 193.57383733 -189.50961041 187.09307241 C-188.11779461 185.70529755 -186.72612866 184.31737239 -185.33461261 182.92929697 C-181.36144383 178.96596672 -177.38591824 175.00503305 -173.40647697 171.04800034 C-172.20442483 169.8520287 -171.00317399 168.65525103 -169.80281448 167.45758057 C-164.22970491 161.89811664 -158.6827186 156.36861497 -152.62063694 151.33357048 C-150.86163336 149.81793267 -150.86163336 149.81793267 -149.11332703 146.94113159 C-148.45332703 146.94113159 -147.79332703 146.94113159 -147.11332703 146.94113159 C-146.9047406 146.40788269 -146.69615417 145.87463379 -146.48124695 145.32522583 C-144.56846986 141.9915213 -141.93314895 139.48292126 -139.22660828 136.79562378 C-138.62480743 136.1903183 -138.02300659 135.58501282 -137.40296936 134.96136475 C-135.41558572 132.96518947 -133.42098873 130.97640556 -131.42582703 128.98800659 C-130.04312838 127.60396091 -128.66072676 126.21961844 -127.27861023 124.83499146 C-124.3833338 121.93676754 -121.48447288 119.04218984 -118.58305359 116.15011597 C-114.85689694 112.43537486 -111.13981816 108.71169982 -107.425354 104.98527145 C-104.57404125 102.1267482 -101.71800258 99.27298526 -98.86048889 96.42066193 C-97.48743178 95.04894246 -96.11586836 93.67572621 -94.74580383 92.30101776 C-92.83533606 90.38549581 -90.91861825 88.47646079 -89.00004578 86.56906128 C-88.43063263 85.99559967 -87.86121948 85.42213806 -87.27455139 84.83129883 C-83.34185788 80.94113159 -83.34185788 80.94113159 -81.11332703 80.94113159 C-80.12332703 78.96113159 -80.12332703 78.96113159 -79.11332703 76.94113159 C-78.45332703 76.94113159 -77.79332703 76.94113159 -77.11332703 76.94113159 C-76.8735614 76.36234253 -76.63379578 75.78355347 -76.38676453 75.18722534 C-74.85726076 72.48948097 -73.10873156 71.00198234 -70.73832703 69.00363159 C-66.73850396 65.51321907 -63.08281548 61.84452098 -59.52348328 57.90353394 C-53.47167231 51.27943343 -47.24017275 44.85341459 -40.92582703 38.48019409 C-40.37916382 37.92820721 -39.83250061 37.37622032 -39.26927185 36.80750656 C-36.39533724 33.90724412 -33.51801268 31.01039062 -30.63822937 28.11593628 C-28.26695868 25.73115924 -25.90324512 23.33923728 -23.54545593 20.94113159 C-20.67024347 18.01681792 -17.78314742 15.10476963 -14.88685608 12.20133591 C-13.79174508 11.09950705 -12.70089749 9.9934236 -11.61445618 8.8830452 C-10.10727009 7.34445879 -8.58530978 5.82216755 -7.05863953 4.302948 C-6.19770691 3.43392853 -5.33677429 2.56490906 -4.44975281 1.66955566 C-2.11332703 -0.05886841 -2.11332703 -0.05886841 0 0 Z M-51.11332703 113.94113159 C-51.62194275 114.45498413 -52.13055847 114.96883667 -52.65458679 115.4982605 C-54.99228407 117.85692724 -57.33401885 120.21154659 -59.67582703 122.56613159 C-60.87562195 123.77849487 -60.87562195 123.77849487 -62.09965515 125.01535034 C-65.67010763 128.60037609 -69.21115098 132.0856523 -73.14067078 135.27706909 C-76.36218359 138.10573639 -76.36218359 138.10573639 -77.11332703 141.94113159 C-76.63252414 143.87461672 -76.14705854 145.80729301 -75.62016296 147.72872925 C-72.49488343 161.37096581 -75.3143272 175.99566567 -82.42582703 187.81613159 C-91.46169072 201.03419971 -104.37416413 208.88250884 -120.11332703 211.94113159 C-127.16858594 212.39191337 -133.75870749 211.86912072 -140.64067078 210.28097534 C-143.4952235 209.88864345 -145.34219251 210.15372546 -148.11332703 210.94113159 C-150.10510245 212.40298739 -150.10510245 212.40298739 -151.85551453 214.32785034 C-152.52969421 215.01943237 -153.2038739 215.7110144 -153.89848328 216.42355347 C-154.93295593 217.51506714 -154.93295593 217.51506714 -155.98832703 218.62863159 C-157.35822354 220.05161483 -158.73059541 221.47221948 -160.10551453 222.89035034 C-160.77034851 223.57919312 -161.4351825 224.26803589 -162.12016296 224.97775269 C-164.53048624 227.35205692 -167.09224512 229.46553277 -169.77006531 231.53024292 C-171.40943273 233.25214483 -171.7222424 234.62644194 -172.11332703 236.94113159 C-149.295903 249.50874212 -123.90890002 250.78528135 -99.09770203 244.13253784 C-87.26055271 240.23873872 -76.36303418 233.1840679 -67.11332703 224.94113159 C-66.35535828 224.26566284 -65.59738953 223.59019409 -64.81645203 222.89425659 C-48.56258838 207.53715784 -38.644252 185.89749037 -37.87504578 163.53488159 C-37.65989092 151.64587226 -37.96440222 141.2063352 -42.11332703 129.94113159 C-42.72627625 128.24150269 -42.72627625 128.24150269 -43.35160828 126.50753784 C-45.3669485 121.31008147 -47.08068559 117.82321697 -51.11332703 113.94113159 Z " fill="#07080A" transform="translate(353.1133270263672,2.058868408203125)"/>
<path d="M0 0 C1.08958008 0.07822998 2.17916016 0.15645996 3.30175781 0.23706055 C4.32366211 0.32125244 5.34556641 0.40544434 6.3984375 0.4921875 C7.31028809 0.56550293 8.22213867 0.63881836 9.16162109 0.71435547 C11.66605906 1.13184453 13.43433191 1.86761916 15.625 3.125 C14.00939473 6.45718586 12.13531494 8.66114945 9.328125 10.98828125 C3.65221629 15.87138293 -1.58561182 21.18599732 -6.8671875 26.48681641 C-8.63168446 28.25670488 -10.40150529 30.02114422 -12.171875 31.78515625 C-13.30761268 32.92155426 -14.44304037 34.05826219 -15.578125 35.1953125 C-16.10110168 35.71626495 -16.62407837 36.23721741 -17.16290283 36.7739563 C-19.45092872 39.07656955 -21.58827826 41.39269168 -23.61230469 43.93310547 C-26.50680478 47.53238827 -29.0508385 47.36826179 -33.5 47.875 C-57.29501838 51.22914968 -77.84268821 62.42808701 -92.5480957 81.58496094 C-101.6084587 94.01424291 -107.99534162 108.60467943 -108.6875 124.125 C-108.97829569 127.67774155 -110.09037633 129.31781783 -112.48213196 131.92710876 C-113.11848886 132.6249542 -113.75484577 133.32279964 -114.41048622 134.04179192 C-117.35352127 137.16264272 -120.32578875 140.24735584 -123.34838867 143.29125977 C-124.00622849 143.95727707 -124.6640683 144.62329437 -125.34184265 145.30949402 C-127.48924543 147.48143299 -129.64053277 149.6494557 -131.79296875 151.81640625 C-132.53177088 152.56053205 -133.27057301 153.30465786 -134.03176308 154.07133293 C-137.93000353 157.99614373 -141.83180119 161.91738212 -145.73608398 165.83618164 C-148.96609652 169.07961743 -152.18865174 172.33020158 -155.4050293 175.5871582 C-159.29891648 179.53015158 -163.20473864 183.46092669 -167.11968422 187.38300896 C-168.60832504 188.87838311 -170.09269137 190.37802488 -171.57271385 191.8819294 C-173.63359654 193.97420446 -175.70944896 196.05039326 -177.78979492 198.12329102 C-178.70550262 199.06360672 -178.70550262 199.06360672 -179.63970947 200.0229187 C-181.35954285 201.71754456 -181.35954285 201.71754456 -184.375 204.125 C-187.77884215 203.68694337 -189.55219241 202.3935279 -192.06640625 200.109375 C-192.76266113 199.47708984 -193.45891602 198.84480469 -194.17626953 198.19335938 C-197.94792989 194.64533511 -201.65291954 191.03848027 -205.3125 187.375 C-206.50262695 186.18366455 -206.50262695 186.18366455 -207.71679688 184.96826172 C-212.57297564 180.06112306 -217.14466264 175.11140181 -221.390625 169.6640625 C-223.54882706 166.90258349 -225.83223003 164.27555892 -228.125 161.625 C-232.51893671 156.32724719 -236.63045545 150.85479842 -240.625 145.25 C-241.22280273 144.44111328 -241.82060547 143.63222656 -242.43652344 142.79882812 C-246.45103362 137.04334357 -246.45103362 137.04334357 -246.125 133.10546875 C-243.69832744 128.97254204 -241.01332523 125.13500817 -238.125 121.3125 C-237.50238281 120.48008789 -236.87976563 119.64767578 -236.23828125 118.79003906 C-205.53311474 78.06090219 -167.8159303 43.97319941 -121.375 22.125 C-120.6231543 21.7630957 -119.87130859 21.40119141 -119.09667969 21.02832031 C-81.50622096 2.9793608 -41.42466192 -3.03100084 0 0 Z " fill="#08080A" transform="translate(246.375,25.875)"/>
<path d="M0 0 C0 3 0 3 -1 5 C-0.34 5.33 0.32 5.66 1 6 C0.67 6.66 0.34 7.32 0 8 C-0.66 8 -1.32 8 -2 8 C-2 9.65 -2 11.3 -2 13 C-2.9075 13.061875 -3.815 13.12375 -4.75 13.1875 C-8.83028957 14.20757239 -9.77312006 15.50061724 -12 19 C-13.24016669 21.6794645 -13.24016669 21.6794645 -14 24 C-15.27875 24.0825 -16.5575 24.165 -17.875 24.25 C-20.05238046 24.46895383 -20.05238046 24.46895383 -22 25 C-23.68979836 27.18265621 -24 28.27214651 -24 31 C-23.01 31.33 -22.02 31.66 -21 32 C-21.33 32.66 -21.66 33.32 -22 34 C-23.99954746 34.04254356 -26.00041636 34.04080783 -28 34 C-28.33 33.67 -28.66 33.34 -29 33 C-31.97 35.475 -31.97 35.475 -35 38 C-34.67 39.32 -34.34 40.64 -34 42 C-35.32 42.66 -36.64 43.32 -38 44 C-38 43.34 -38 42.68 -38 42 C-39.32 42.99 -40.64 43.98 -42 45 C-42.66 44.67 -43.32 44.34 -44 44 C-42.04761147 41.99387601 -40.08862178 39.99507567 -38.125 38 C-37.56941406 37.42765625 -37.01382812 36.8553125 -36.44140625 36.265625 C-34.99865596 34.80549218 -33.5025626 33.39850702 -32 32 C-31.34 32 -30.68 32 -30 32 C-29.34 30.68 -28.68 29.36 -28 28 C-27.34 28 -26.68 28 -26 28 C-25.76023437 27.42121094 -25.52046875 26.84242187 -25.2734375 26.24609375 C-23.74393374 23.54834938 -21.99540453 22.06085075 -19.625 20.0625 C-14.17187304 15.2930012 -9.32916879 10.08690881 -4.46875 4.72265625 C-3.01295698 3.11713768 -1.53248543 1.53248543 0 0 Z M-37 39 C-36 41 -36 41 -36 41 Z " fill="#0D090D" transform="translate(302,51)"/>
<path d="M0 0 C0.58265625 0.12117187 1.1653125 0.24234375 1.765625 0.3671875 C3.52443676 0.72669305 5.28506047 1.07738612 7.046875 1.421875 C8.93543288 1.79159268 10.82127622 2.17564867 12.703125 2.578125 C25.69012831 5.11748319 38.61320651 4.73598078 51.51831055 1.97973633 C54.9707456 1.25461147 57.64456082 0.70084278 61 2 C53.74308171 6.63636446 47.07174737 6.18624458 38.68554688 6.18530273 C36.53494739 6.18746487 34.38488216 6.2055674 32.234375 6.22460938 C20.97563924 6.2711721 10.4602656 5.42549698 0 1 C0 0.67 0 0.34 0 0 Z " fill="#454245" transform="translate(194,245)"/>
<path d="M0 0 C0.66 0.33 1.32 0.66 2 1 C0.7934375 2.0828125 0.7934375 2.0828125 -0.4375 3.1875 C-3.02292072 6.02515689 -3.68042813 7.27166147 -4 11 C-3.01 11.33 -2.02 11.66 -1 12 C-1.33 12.66 -1.66 13.32 -2 14 C-3.99954746 14.04254356 -6.00041636 14.04080783 -8 14 C-8.33 13.67 -8.66 13.34 -9 13 C-10.98 14.65 -12.96 16.3 -15 18 C-14.67 19.32 -14.34 20.64 -14 22 C-15.98 22.99 -15.98 22.99 -18 24 C-18 23.34 -18 22.68 -18 22 C-19.32 22.99 -20.64 23.98 -22 25 C-22.66 24.67 -23.32 24.34 -24 24 C-22.04761147 21.99387601 -20.08862178 19.99507567 -18.125 18 C-17.56941406 17.42765625 -17.01382812 16.8553125 -16.44140625 16.265625 C-14.99865596 14.80549218 -13.5025626 13.39850702 -12 12 C-11.34 12 -10.68 12 -10 12 C-9.34 10.68 -8.68 9.36 -8 8 C-7.34 8 -6.68 8 -6 8 C-5.7525 7.4225 -5.505 6.845 -5.25 6.25 C-3.83316683 3.6997003 -2.12372463 1.98214299 0 0 Z M-17 19 C-16 21 -16 21 -16 21 Z " fill="#1A171A" transform="translate(282,71)"/>
<path d="M0 0 C0.99 0.99 1.98 1.98 3 3 C2.67 3.99 2.34 4.98 2 6 C0.68 6 -0.64 6 -2 6 C-2.33 6.99 -2.66 7.98 -3 9 C-3.99 9 -4.98 9 -6 9 C-6.33 9.99 -6.66 10.98 -7 12 C-7.66 12 -8.32 12 -9 12 C-9 12.99 -9 13.98 -9 15 C-9.66 15 -10.32 15 -11 15 C-11.66 16.32 -12.32 17.64 -13 19 C-15 19 -17 19 -19 19 C-12.73 12.73 -6.46 6.46 0 0 Z " fill="#1F1C20" transform="translate(148,205)"/>
<path d="M0 0 C0 3.58912412 -0.66436554 4.10857029 -3 6.6875 C-3.556875 7.31011719 -4.11375 7.93273437 -4.6875 8.57421875 C-5.120625 9.04472656 -5.55375 9.51523438 -6 10 C-4.68 9.01 -3.36 8.02 -2 7 C-2 10 -2 10 -3 12 C-5.90259811 13.3749149 -7.76138705 14 -11 14 C-13.00319381 15.78577046 -14.84334566 17.56304305 -16.6875 19.5 C-17.19861328 20.02464844 -17.70972656 20.54929687 -18.23632812 21.08984375 C-19.49772708 22.38660904 -20.74977212 23.69246117 -22 25 C-22.66 24.67 -23.32 24.34 -24 24 C-16.08 16.08 -8.16 8.16 0 0 Z M-10 14 C-9.34 14.33 -8.68 14.66 -8 15 C-8.66 15.66 -9.32 16.32 -10 17 C-10 16.01 -10 15.02 -10 14 Z " fill="#262227" transform="translate(347,6)"/>
<path d="M0 0 C0.33 0.99 0.66 1.98 1 3 C-4.28 8.28 -9.56 13.56 -15 19 C-16 16 -16 16 -15.3125 13.9375 C-13.75797433 11.64272401 -12.52193641 11.06991242 -10 10 C-9.01 9.34 -8.02 8.68 -7 8 C-6.896875 7.38125 -6.79375 6.7625 -6.6875 6.125 C-5.59647445 2.75273921 -2.93536053 1.74872542 0 0 Z " fill="#131114" transform="translate(248,40)"/>
<path d="M0 0 C0.33 0.99 0.66 1.98 1 3 C-3.29 7.29 -7.58 11.58 -12 16 C-13.32 15.34 -14.64 14.68 -16 14 C-15.01 13.67 -14.02 13.34 -13 13 C-12.67 12.34 -12.34 11.68 -12 11 C-10.5625 9.375 -10.5625 9.375 -9 8 C-8.34 8 -7.68 8 -7 8 C-6.566875 7.071875 -6.566875 7.071875 -6.125 6.125 C-4.53593878 3.12343992 -2.84123955 1.8941597 0 0 Z " fill="#171315" transform="translate(111,304)"/>
<path d="M0 0 C-0.825 0.763125 -1.65 1.52625 -2.5 2.3125 C-5.34055197 4.75434142 -5.34055197 4.75434142 -5 8 C-4.01 8.33 -3.02 8.66 -2 9 C-8.75 12 -8.75 12 -11 12 C-11 8 -11 8 -10 7 C-10.66 6.67 -11.32 6.34 -12 6 C-4.89473684 -1.63157895 -4.89473684 -1.63157895 0 0 Z " fill="#0B0A0D" transform="translate(250,109)"/>
<path d="M0 0 C1.32 0.66 2.64 1.32 4 2 C2.38113585 3.67262717 0.7547271 5.33795537 -0.875 7 C-2.23238281 8.3921875 -2.23238281 8.3921875 -3.6171875 9.8125 C-6 12 -6 12 -8 12 C-8.66 13.32 -9.32 14.64 -10 16 C-10.66 14.68 -11.32 13.36 -12 12 C-9 10 -9 10 -6 10 C-6 8.68 -6 7.36 -6 6 C-3.5625 3.875 -3.5625 3.875 -1 2 C-0.67 1.34 -0.34 0.68 0 0 Z " fill="#1E171B" transform="translate(290,123)"/>
<path d="M0 0 C0.99 0.99 1.98 1.98 3 3 C1.60667426 6.36720387 0.0210714 7.9859524 -3 10 C-3.33 9.01 -3.66 8.02 -4 7 C-3.34 7 -2.68 7 -2 7 C-2.33 6.34 -2.66 5.68 -3 5 C-5.64 7.64 -8.28 10.28 -11 13 C-11.66 12.67 -12.32 12.34 -13 12 C-11.21135158 10.18443212 -9.41928379 8.37248378 -7.625 6.5625 C-7.11710938 6.04623047 -6.60921875 5.52996094 -6.0859375 4.99804688 C-2.2265625 1.11328125 -2.2265625 1.11328125 0 0 Z " fill="#1D181B" transform="translate(196,158)"/>
<path d="M0 0 C1.17205481 2.85131463 1.02641449 3.92930523 -0.07421875 6.875 C-0.60660156 7.90625 -1.13898438 8.9375 -1.6875 10 C-2.20699219 11.03125 -2.72648437 12.0625 -3.26171875 13.125 C-4.92602742 15.87765434 -6.62691643 17.84923145 -9 20 C-9.33 18.68 -9.66 17.36 -10 16 C-9.34 16 -8.68 16 -8 16 C-8 14.35 -8 12.7 -8 11 C-7.34 11 -6.68 11 -6 11 C-5.01 9.02 -4.02 7.04 -3 5 C-2.34 5 -1.68 5 -1 5 C-0.67 3.35 -0.34 1.7 0 0 Z " fill="#1A1518" transform="translate(276,175)"/>
<path d="M0 0 C1.32 0.66 2.64 1.32 4 2 C0.37 5.63 -3.26 9.26 -7 13 C-7.66 12.01 -8.32 11.02 -9 10 C-8.21625 9.2575 -7.4325 8.515 -6.625 7.75 C-4.39697474 5.4158783 -3.31766516 3.83804804 -2 1 C-1.34 0.67 -0.68 0.34 0 0 Z " fill="#111012" transform="translate(100,186)"/>
<path d="M0 0 C0.33 0.99 0.66 1.98 1 3 C-0.98 4.65 -2.96 6.3 -5 8 C-4.67 9.32 -4.34 10.64 -4 12 C-5.98 12.99 -5.98 12.99 -8 14 C-8 13.34 -8 12.68 -8 12 C-9.32 12.99 -10.64 13.98 -12 15 C-12.66 14.67 -13.32 14.34 -14 14 C-12.04761147 11.99387601 -10.08862178 9.99507567 -8.125 8 C-7.29162109 7.14148438 -7.29162109 7.14148438 -6.44140625 6.265625 C-4.99865596 4.80549218 -3.5025626 3.39850702 -2 2 C-1.34 2 -0.68 2 0 2 C0 1.34 0 0.68 0 0 Z M-7 9 C-6 11 -6 11 -6 11 Z " fill="#2B282B" transform="translate(272,81)"/>
<path d="M0 0 C0 3 0 3 -1 6 C-0.34 6.66 0.32 7.32 1 8 C0.34 8 -0.32 8 -1 8 C-1.33 8.99 -1.66 9.98 -2 11 C-3.32 10.67 -4.64 10.34 -6 10 C-5.01 10 -4.02 10 -3 10 C-3 9.34 -3 8.68 -3 8 C-3.78375 8.515625 -4.5675 9.03125 -5.375 9.5625 C-6.24125 10.036875 -7.1075 10.51125 -8 11 C-8.66 10.67 -9.32 10.34 -10 10 C-6.7 6.7 -3.4 3.4 0 0 Z " fill="#231E22" transform="translate(223,130)"/>
<path d="M0 0 C0 3 0 3 -2 6 C-1.34 6 -0.68 6 0 6 C-0.33 6.66 -0.66 7.32 -1 8 C-1.66 8 -2.32 8 -3 8 C-4.62514468 9.45833358 -4.62514468 9.45833358 -6 11 C-6 10.34 -6 9.68 -6 9 C-7.98 9.66 -9.96 10.32 -12 11 C-8.19588166 7.08060535 -4.18423892 3.50897269 0 0 Z " fill="#2C282B" transform="translate(287,225)"/>
<path d="M0 0 C0.33 1.32 0.66 2.64 1 4 C1.66 4 2.32 4 3 4 C3 4.66 3 5.32 3 6 C-2.75 8 -2.75 8 -5 8 C-7.12153042 9.85633912 -8.41328692 11.61993038 -10 14 C-9.54261927 9.31808451 -7.80889606 7.36895826 -4.4375 4.1875 C-3.61121094 3.39730469 -2.78492187 2.60710937 -1.93359375 1.79296875 C-1.29550781 1.20128906 -0.65742187 0.60960937 0 0 Z " fill="#282228" transform="translate(77,276)"/>
<path d="M0 0 C1.32 0.99 2.64 1.98 4 3 C3.52354792 7.28806873 2.34097516 9.26647487 -1 12 C-1.66 12 -2.32 12 -3 12 C-3 11.01 -3 10.02 -3 9 C-2.01 8.34 -1.02 7.68 0 7 C-0.66 6.01 -1.32 5.02 -2 4 C-1.01 3.67 -0.02 3.34 1 3 C0.67 2.01 0.34 1.02 0 0 Z " fill="#231D22" transform="translate(380,29)"/>
<path d="M0 0 C1.32 0.66 2.64 1.32 4 2 C2.60667426 5.36720387 1.0210714 6.9859524 -2 9 C-2 8.01 -2 7.02 -2 6 C-2.99 5.67 -3.98 5.34 -5 5 C-3.35 3.35 -1.7 1.7 0 0 Z " fill="#130F12" transform="translate(421,193)"/>
<path d="M0 0 C1.32 0 2.64 0 4 0 C4 2 4 2 1.8125 4.375 C-0.70610834 6.72570111 -3.27358589 8.89676626 -6 11 C-6.33 9.68 -6.66 8.36 -7 7 C-6.34 7 -5.68 7 -5 7 C-3.68251535 5.2433538 -2.5641447 3.40106106 -1.4140625 1.53125 C-0.94742188 1.0259375 -0.48078125 0.520625 0 0 Z " fill="#161214" transform="translate(161,94)"/>
<path d="M0 0 C0.66 0.33 1.32 0.66 2 1 C1.67 1.66 1.34 2.32 1 3 C1.66 3.33 2.32 3.66 3 4 C2.13375 4.020625 1.2675 4.04125 0.375 4.0625 C-4.31473013 5.36520281 -6.18859744 8.18167667 -9 12 C-10.32 11.67 -11.64 11.34 -13 11 C-8.71 7.37 -4.42 3.74 0 0 Z " fill="#1A1819" transform="translate(69,83)"/>
<path d="M0 0 C1.2065625 0.0309375 1.2065625 0.0309375 2.4375 0.0625 C0.28408594 2.41167898 -1.77917937 3.88693004 -4.625 5.3125 C-5.31722656 5.66828125 -6.00945312 6.0240625 -6.72265625 6.390625 C-7.32980469 6.61234375 -7.93695313 6.8340625 -8.5625 7.0625 C-9.2225 6.7325 -9.8825 6.4025 -10.5625 6.0625 C-9.9025 4.4125 -9.2425 2.7625 -8.5625 1.0625 C-7.3559375 1.0934375 -7.3559375 1.0934375 -6.125 1.125 C-3.0866539 1.050894 -3.0383461 0.074106 0 0 Z " fill="#181618" transform="translate(340.5625,263.9375)"/>
<path d="M0 0 C0 3 0 3 -1 5 C-0.34 5.33 0.32 5.66 1 6 C0.34 6 -0.32 6 -1 6 C-1.12375 6.639375 -1.2475 7.27875 -1.375 7.9375 C-1.58125 8.618125 -1.7875 9.29875 -2 10 C-2.99 10.495 -2.99 10.495 -4 11 C-4 9.68 -4 8.36 -4 7 C-4.99 7.99 -5.98 8.98 -7 10 C-7.66 9.67 -8.32 9.34 -9 9 C-6.03 6.03 -3.06 3.06 0 0 Z " fill="#262226" transform="translate(122,231)"/>
<path d="M0 0 C0.33 1.32 0.66 2.64 1 4 C1.66 4 2.32 4 3 4 C2.67 4.66 2.34 5.32 2 6 C1.01 5.67 0.02 5.34 -1 5 C-1.33 6.65 -1.66 8.3 -2 10 C-2.99 9.01 -3.98 8.02 -5 7 C-3.70700306 4.11562221 -2.34058637 2.12780579 0 0 Z " fill="#181318" transform="translate(128,225)"/>
<path d="M0 0 C-1.45411765 4.60470588 -1.45411765 4.60470588 -3.8125 6.3125 C-6.31189617 7.09802451 -8.39493282 7.14472595 -11 7 C-8.52653212 3.01496841 -4.89193403 0 0 0 Z " fill="#140D12" transform="translate(220,138)"/>
<path d="M0 0 C0 2.66666667 0 5.33333333 0 8 C-0.99 8 -1.98 8 -3 8 C-3.33 8.66 -3.66 9.32 -4 10 C-4.99 10 -5.98 10 -7 10 C-5.33248852 6.05860922 -2.77289351 3.2107188 0 0 Z " fill="#181619" transform="translate(26,125)"/>
<path d="M0 0 C0.66 0.99 1.32 1.98 2 3 C-0.31 4.98 -2.62 6.96 -5 9 C-4.67 7.68 -4.34 6.36 -4 5 C-4.33 4.34 -4.66 3.68 -5 3 C-4.67 2.34 -4.34 1.68 -4 1 C-1.9375 0.375 -1.9375 0.375 0 0 Z " fill="#161115" transform="translate(126,288)"/>
<path d="M0 0 C0.33 0.66 0.66 1.32 1 2 C2.32 1.67 3.64 1.34 5 1 C4.04578192 2.14926266 3.08647955 3.29430541 2.125 4.4375 C1.59132812 5.07558594 1.05765625 5.71367187 0.5078125 6.37109375 C-1 8 -1 8 -3 9 C-2.44271087 5.65626525 -1.64826111 2.96687001 0 0 Z " fill="#241F20" transform="translate(195,217)"/>
<path d="M0 0 C0.33 0.99 0.66 1.98 1 3 C-1.31 5.31 -3.62 7.62 -6 10 C-6.33 9.34 -6.66 8.68 -7 8 C-7.99 7.67 -8.98 7.34 -10 7 C-7.35261084 5.5393715 -6.10551666 5 -3 5 C-2.690625 4.360625 -2.38125 3.72125 -2.0625 3.0625 C-1 1 -1 1 0 0 Z " fill="#131213" transform="translate(114,174)"/>
<path d="M0 0 C0.66 0 1.32 0 2 0 C1.82374165 2.37948772 1.30280227 3.70225849 -0.40234375 5.37890625 C-1.90649092 6.62115486 -3.45129851 7.81376056 -5 9 C-5.66 8.67 -6.32 8.34 -7 8 C-5.73220443 5.46440887 -4.08937386 3.89943078 -2 2 C-1.34 2 -0.68 2 0 2 C0 1.34 0 0.68 0 0 Z " fill="#121113" transform="translate(128,159)"/>
<path d="M0 0 C0.66 0.33 1.32 0.66 2 1 C0.52292634 4.89410329 -1.43188595 6.00849448 -5 8 C-6.68477344 9.31037934 -8.35648543 10.63823078 -10 12 C-8.52278578 8.54798361 -6.56205999 6.35038064 -3.875 3.75 C-3.15054688 3.04359375 -2.42609375 2.3371875 -1.6796875 1.609375 C-1.12539063 1.07828125 -0.57109375 0.5471875 0 0 Z " fill="#201F20" transform="translate(47,102)"/>
<path d="M0 0 C0.66 0.33 1.32 0.66 2 1 C1.01 2.485 1.01 2.485 0 4 C0.33 4.99 0.66 5.98 1 7 C0.01 7.33 -0.98 7.66 -2 8 C-2.33 7.01 -2.66 6.02 -3 5 C-4.32 5.99 -5.64 6.98 -7 8 C-7.66 7.67 -8.32 7.34 -9 7 C-6.03 4.69 -3.06 2.38 0 0 Z " fill="#1B181B" transform="translate(86,70)"/>
<path d="M0 0 C0 0.99 0 1.98 0 3 C-0.33 3.33 -0.66 3.66 -1 4 C-0.34 4.66 0.32 5.32 1 6 C0.34 6 -0.32 6 -1 6 C-1.66 7.32 -2.32 8.64 -3 10 C-3.33 9.01 -3.66 8.02 -4 7 C-5.98 7.99 -5.98 7.99 -8 9 C-7.04270084 7.87411986 -6.08412105 6.7493285 -5.125 5.625 C-4.59132812 4.99851562 -4.05765625 4.37203125 -3.5078125 3.7265625 C-2.38567993 2.44163349 -1.20628025 1.20628025 0 0 Z " fill="#282428" transform="translate(232,121)"/>
<path d="M0 0 C0.33 0 0.66 0 1 0 C1.25 2.3125 1.25 2.3125 1 5 C-1 6.8125 -1 6.8125 -3 8 C-3 7.34 -3 6.68 -3 6 C-3.66 5.67 -4.32 5.34 -5 5 C-5.33 4.01 -5.66 3.02 -6 2 C-4.7934375 1.7834375 -4.7934375 1.7834375 -3.5625 1.5625 C-1.07896294 1.25864751 -1.07896294 1.25864751 0 0 Z " fill="#131012" transform="translate(374,39)"/>
<path d="M0 0 C-3.82180842 4.4008703 -6.47371099 5.80805531 -12 7 C-5.54347826 -1.84782609 -5.54347826 -1.84782609 0 0 Z " fill="#191418" transform="translate(250,109)"/>
<path d="M0 0 C6.64615385 3.32307692 6.64615385 3.32307692 8.4375 6.75 C8.623125 7.4925 8.80875 8.235 9 9 C6.66471585 8.82701599 5.30822418 8.29774631 3.62109375 6.66796875 C0 2.42788462 0 2.42788462 0 0 Z " fill="#171316" transform="translate(20,188)"/>
<path d="M0 0 C0 4.02197773 -1.2932859 5.07959795 -4 8 C-5.95851344 9.39355764 -7.95127113 10.74282547 -10 12 C-8.52278578 8.54798361 -6.56205999 6.35038064 -3.875 3.75 C-3.15054687 3.04359375 -2.42609375 2.3371875 -1.6796875 1.609375 C-1.12539063 1.07828125 -0.57109375 0.5471875 0 0 Z " fill="#322E32" transform="translate(302,51)"/>
<path d="M0 0 C2 3 2 3 2 5 C1.071875 5.268125 0.14375 5.53625 -0.8125 5.8125 C-3.76240366 6.91148371 -5.05615186 7.62418561 -7 10 C-7.66 9.67 -8.32 9.34 -9 9 C-6.03 6.03 -3.06 3.06 0 0 Z " fill="#28272A" transform="translate(322,31)"/>
<path d="M0 0 C1.32 0 2.64 0 4 0 C4 0.66 4 1.32 4 2 C4.66 2 5.32 2 6 2 C6 2.66 6 3.32 6 4 C6.66 4 7.32 4 8 4 C7.67 5.32 7.34 6.64 7 8 C5.83035398 6.8572081 4.66435444 5.71068285 3.5 4.5625 C2.8503125 3.92441406 2.200625 3.28632813 1.53125 2.62890625 C0 1 0 1 0 0 Z " fill="#121012" transform="translate(43,214)"/>
<path d="M0 0 C2.6015625 0.2421875 2.6015625 0.2421875 5.625 0.875 C6.62789062 1.07867187 7.63078125 1.28234375 8.6640625 1.4921875 C9.43492187 1.65976563 10.20578125 1.82734375 11 2 C11 2.33 11 2.66 11 3 C10.39671875 2.96519531 9.7934375 2.93039063 9.171875 2.89453125 C4.07474512 2.6485551 4.07474512 2.6485551 -0.5625 4.5 C-1.036875 4.995 -1.51125 5.49 -2 6 C-2 2 -2 2 0 0 Z " fill="#2F2D30" transform="translate(204,210)"/>
<path d="M0 0 C1.0326802 2.78823655 1.04509293 3.8677274 0.0625 6.75 C-0.288125 7.4925 -0.63875 8.235 -1 9 C-1.66 8.34 -2.32 7.68 -3 7 C-3.99 7.495 -3.99 7.495 -5 8 C-3.62845496 5.04590299 -2.01136276 2.55991624 0 0 Z " fill="#1F1A1C" transform="translate(17,136)"/>
<path d="M0 0 C-2.22825644 2.22825644 -3.65761628 2.69239369 -6.625 3.625 C-7.44226563 3.88539062 -8.25953125 4.14578125 -9.1015625 4.4140625 C-9.72804687 4.60742188 -10.35453125 4.80078125 -11 5 C-8.45499142 -0.63537615 -5.97208347 -0.11059414 0 0 Z " fill="#292629" transform="translate(194,77)"/>
<path d="M0 0 C0.33 1.32 0.66 2.64 1 4 C-3.5 5.5 -3.5 5.5 -8 7 C-5.61042731 3.75700849 -3.7952131 1.49097658 0 0 Z " fill="#1B191C" transform="translate(86,269)"/>
<path d="M0 0 C0 0.99 0 1.98 0 3 C-0.99 3.33 -1.98 3.66 -3 4 C-3.33 4.66 -3.66 5.32 -4 6 C-5.32 5.34 -6.64 4.68 -8 4 C-5.36 2.68 -2.72 1.36 0 0 Z " fill="#1D1C25" transform="translate(121,50)"/>
<path d="M0 0 C-1.36983503 3.16115776 -1.9890638 3.9927092 -5 6 C-5.33 4.35 -5.66 2.7 -6 1 C-4 0 -4 0 0 0 Z " fill="#121010" transform="translate(258,32)"/>
<path d="M0 0 C2.97 0.99 5.94 1.98 9 3 C6 5 6 5 4 5 C3.67 5.66 3.34 6.32 3 7 C3 5.68 3 4.36 3 3 C2.01 2.67 1.02 2.34 0 2 C0 1.34 0 0.68 0 0 Z " fill="#272629" transform="translate(185,241)"/>
<path d="M0 0 C0.66 0 1.32 0 2 0 C2 0.99 2 1.98 2 3 C2.99 3.33 3.98 3.66 5 4 C4.67 5.65 4.34 7.3 4 9 C3.34 9 2.68 9 2 9 C1.34 6.03 0.68 3.06 0 0 Z " fill="#18161A" transform="translate(178,231)"/>
<path d="M0 0 C0.33 1.32 0.66 2.64 1 4 C-0.32 4.99 -1.64 5.98 -3 7 C-3.1875 4.625 -3.1875 4.625 -3 2 C-2.01 1.34 -1.02 0.68 0 0 Z " fill="#130D12" transform="translate(435,179)"/>
<path d="M0 0 C0.95465783 2.16967689 1.14401212 3.56328793 0.3984375 5.82421875 C-0.35870385 7.5684743 -1.17609198 9.28627131 -2 11 C-3.0625 9.125 -3.0625 9.125 -4 7 C-3.67 6.34 -3.34 5.68 -3 5 C-2.34 5 -1.68 5 -1 5 C-0.67 3.35 -0.34 1.7 0 0 Z " fill="#281E24" transform="translate(276,175)"/>
<path d="M0 0 C0 0.66 0 1.32 0 2 C-0.66 2 -1.32 2 -2 2 C-2.66 3.32 -3.32 4.64 -4 6 C-4.66 4.68 -5.32 3.36 -6 2 C-3 0 -3 0 0 0 Z " fill="#290F27" transform="translate(284,133)"/>
<path d="M0 0 C0.66 0 1.32 0 2 0 C2.1875 2.375 2.1875 2.375 2 5 C1.01 5.66 0.02 6.32 -1 7 C-1 6.34 -1 5.68 -1 5 C-1.66 4.67 -2.32 4.34 -3 4 C-2.34 3.67 -1.68 3.34 -1 3 C-0.67 2.01 -0.34 1.02 0 0 Z " fill="#100E0F" transform="translate(228,57)"/>
<path d="M0 0 C-0.66 1.32 -1.32 2.64 -2 4 C-3.32 2.68 -4.64 1.36 -6 0 C-3 -1 -3 -1 0 0 Z " fill="#131014" transform="translate(77,293)"/>
<path d="M0 0 C0.99 0.66 1.98 1.32 3 2 C1.75 3.5625 1.75 3.5625 0 5 C-2.1875 4.6875 -2.1875 4.6875 -4 4 C-2.68 2.68 -1.36 1.36 0 0 Z " fill="#1D191C" transform="translate(62,225)"/>
<path d="M0 0 C0.99 0.33 1.98 0.66 3 1 C2.6875 2.875 2.6875 2.875 2 5 C1.01 5.66 0.02 6.32 -1 7 C-0.67 4.69 -0.34 2.38 0 0 Z " fill="#121114" transform="translate(68,217)"/>
<path d="M0 0 C0.33 0.99 0.66 1.98 1 3 C-0.65 4.32 -2.3 5.64 -4 7 C-3.6875 4.625 -3.6875 4.625 -3 2 C-2.01 1.34 -1.02 0.68 0 0 Z " fill="#141316" transform="translate(89,199)"/>
<path d="M0 0 C3 3.625 3 3.625 3 7 C1.68 7.33 0.36 7.66 -1 8 C-0.67 5.36 -0.34 2.72 0 0 Z " fill="#1C1B1D" transform="translate(313,178)"/>
<path d="M0 0 C0.33 0 0.66 0 1 0 C1.33 2.31 1.66 4.62 2 7 C0.68 6.67 -0.64 6.34 -2 6 C-1.125 1.125 -1.125 1.125 0 0 Z " fill="#1C1A1C" transform="translate(11,144)"/>
</svg>
