<svg version="1.1" id="Layer_1" xmlns="http://www.w3.org/2000/svg" xmlns:xlink="http://www.w3.org/1999/xlink" x="0px" y="0px"
	 width="100%" viewBox="0 0 192 192" enable-background="new 0 0 192 192" xml:space="preserve">
<path fill="#000000" opacity="1.000000" stroke="none" 
	d="
M66.999969,166.360596 
	C60.169918,166.357025 53.839218,166.298218 47.510017,166.370544 
	C44.128082,166.409164 42.683998,164.848572 42.690685,161.523056 
	C42.731216,141.366806 42.743011,121.210419 42.703796,101.054192 
	C42.698627,98.395477 44.140167,96.763451 45.989700,95.224846 
	C62.761189,81.272804 79.569954,67.364716 96.239807,53.292126 
	C99.447296,50.584389 101.991730,50.132347 105.360847,52.971321 
	C122.422920,67.348595 139.595490,81.594795 156.739395,95.874840 
	C158.692596,97.501740 159.336456,99.547142 159.329697,102.051018 
	C159.277008,121.540955 159.237000,141.031448 159.349747,160.520874 
	C159.374252,164.755722 157.878128,166.488251 153.495026,166.417099 
	C141.504288,166.222504 129.506348,166.227280 117.515472,166.418106 
	C113.262634,166.485794 111.469681,165.097656 111.593292,160.684647 
	C111.812424,152.861786 111.512512,145.025177 111.682663,137.199799 
	C111.762642,133.521500 110.432106,132.073639 106.724907,132.290466 
	C102.740417,132.523499 98.728050,132.462585 94.735512,132.318146 
	C91.500977,132.201096 90.282257,133.548737 90.330902,136.754944 
	C90.449677,144.582367 90.127655,152.422028 90.434433,160.239044 
	C90.627861,165.167740 88.665634,166.687744 83.986832,166.428787 
	C78.506721,166.125443 72.996895,166.359146 66.999969,166.360596 
M48.392437,116.506874 
	C48.389801,129.493820 48.493694,142.482193 48.318729,155.466827 
	C48.267143,159.295319 49.409439,160.854340 53.423615,160.749695 
	C62.075840,160.524139 70.743355,160.497070 79.393745,160.754227 
	C83.663406,160.881165 84.859642,159.188400 84.744720,155.185089 
	C84.525047,147.532501 84.804642,139.866562 84.650726,132.210724 
	C84.568604,128.125504 86.245201,126.533333 90.298882,126.631645 
	C97.454254,126.805176 104.619362,126.798759 111.775352,126.640350 
	C115.904778,126.548950 117.405396,128.370239 117.338211,132.351913 
	C117.203415,140.341614 117.401375,148.337021 117.260857,156.326523 
	C117.204346,159.539749 118.344337,160.788483 121.610641,160.733276 
	C130.266312,160.586914 138.937515,160.405441 147.579590,160.774887 
	C152.566650,160.988068 153.774948,159.080627 153.712646,154.442734 
	C153.495682,138.295074 153.523697,122.141304 153.719788,105.993027 
	C153.765335,102.242889 152.417938,99.847908 149.621155,97.546822 
	C134.454178,85.067970 119.354187,72.505531 104.382385,59.793709 
	C101.784706,57.588158 100.187996,57.665844 97.659912,59.806625 
	C84.452866,70.990356 71.522720,82.574959 57.626846,92.843620 
	C49.320320,98.981911 47.131458,106.189346 48.392437,116.506874 
z"/>
<path fill="#000000" opacity="1.000000" stroke="none" 
	d="
M46.703659,57.078377 
	C46.706573,48.917850 46.706573,48.917854 54.328625,48.878162 
	C65.942642,48.817688 65.938400,48.818127 67.115562,60.165604 
	C67.162682,60.619774 67.437805,61.050285 67.850624,62.129505 
	C73.073936,57.668751 78.039291,53.375748 83.063980,49.153362 
	C87.269325,45.619495 91.649849,42.287453 95.756096,38.644321 
	C99.351242,35.454639 102.387329,35.342213 106.152092,38.636417 
	C120.680923,51.349285 135.427979,63.812397 150.047913,76.421669 
	C157.737000,83.053276 165.332016,89.793999 172.967300,96.487938 
	C173.593002,97.036491 174.230347,97.576294 174.812714,98.168877 
	C176.244553,99.625824 176.951462,101.284401 175.335800,102.976044 
	C173.811081,104.572456 172.257034,103.675537 170.925461,102.545189 
	C165.723038,98.128937 160.543839,93.685120 155.376099,89.228249 
	C137.856873,74.118935 120.347305,58.998417 102.826645,43.890747 
	C102.336624,43.468204 101.763130,43.142475 100.872787,42.524784 
	C92.792305,49.421577 84.700180,56.275425 76.666245,63.196823 
	C61.790047,76.012970 46.951859,88.873238 32.085835,101.701218 
	C30.474947,103.091270 28.692156,105.169861 26.580109,102.874771 
	C24.559690,100.679245 26.420877,98.881279 28.061110,97.409164 
	C32.892357,93.073143 37.636547,88.621933 42.690853,84.559219 
	C45.893288,81.985062 46.973106,79.032127 46.787979,75.045647 
	C46.517921,69.230286 46.710415,63.393440 46.703659,57.078377 
M57.844925,71.087418 
	C60.458248,68.428772 62.023617,60.026218 60.537342,56.815948 
	C59.518711,54.615772 57.555317,55.148643 55.806473,55.154190 
	C53.990150,55.159946 52.417072,55.732838 52.443619,57.902790 
	C52.509663,63.301807 51.843449,68.741592 52.983604,74.138969 
	C55.087555,74.042091 55.953129,72.391411 57.844925,71.087418 
z"/>
</svg>