<svg version="1.1" id="Layer_1" xmlns="http://www.w3.org/2000/svg" xmlns:xlink="http://www.w3.org/1999/xlink" x="0px" y="0px"
	 width="100%" viewBox="0 0 607 411" enable-background="new 0 0 607 411" xml:space="preserve">
<path fill="#000000" opacity="1.000000" stroke="none" 
	d="
M322.000000,412.000000 
	C214.666687,412.000000 107.833382,412.000000 1.000057,412.000000 
	C1.000038,275.000061 1.000038,138.000122 1.000019,1.000131 
	C203.333237,1.000087 405.666473,1.000087 607.999756,1.000044 
	C607.999878,137.999863 607.999878,274.999725 607.999939,411.999786 
	C512.833313,412.000000 417.666656,412.000000 322.000000,412.000000 
M366.167816,302.085449 
	C366.110565,297.723267 366.053314,293.361115 366.296478,288.352875 
	C366.196350,286.235657 366.096222,284.118469 366.167633,281.093292 
	C366.110687,277.395233 366.053741,273.697174 366.291962,269.559113 
	C366.197876,268.705048 366.103790,267.850952 366.197083,266.076355 
	C366.134521,257.385101 366.071960,248.693832 366.301056,239.243195 
	C366.199646,228.162476 366.098206,217.081757 366.168457,205.077316 
	C366.110992,193.051178 366.053528,181.025055 366.299683,168.244339 
	C366.202881,158.828552 366.106079,149.412781 366.198700,139.076767 
	C366.135651,110.052086 366.072571,81.027405 366.303009,51.560669 
	C366.208282,50.705044 366.113556,49.849422 366.217712,48.210815 
	C366.151123,47.142220 366.084503,46.073624 366.301178,44.663113 
	C366.203735,44.107800 366.106293,43.552483 366.196198,42.137993 
	C366.134369,40.092976 366.072540,38.047955 366.303680,35.560543 
	C366.208984,34.704865 366.114288,33.849186 366.218109,32.075359 
	C366.218109,24.131027 366.218109,16.186693 366.218109,8.211400 
	C361.180115,8.211400 356.657104,8.211400 351.877899,8.211400 
	C351.877899,16.244314 351.877045,23.888336 351.878021,31.532356 
	C351.889496,122.295784 351.901245,213.059204 351.220245,303.767761 
	C336.833527,294.887817 321.130035,292.637878 304.692474,295.009613 
	C274.873230,299.312195 250.657501,312.999298 234.295181,338.813232 
	C227.817001,349.033508 224.685349,360.379456 227.681458,372.614807 
	C231.862823,389.690399 244.225555,398.294464 260.168335,402.057770 
	C294.520569,410.166595 336.981415,393.134918 356.636566,363.680603 
	C363.186432,353.865295 367.789001,343.264526 366.345673,330.049316 
	C366.233673,322.033783 366.121674,314.018219 366.295563,305.556732 
	C366.195740,304.704895 366.095886,303.853088 366.167816,302.085449 
z"/>
<path fill="#E5E5E5" opacity="1.000000" stroke="none" 
	d="
M366.134247,330.961273 
	C367.789001,343.264526 363.186432,353.865295 356.636566,363.680603 
	C336.981415,393.134918 294.520569,410.166595 260.168335,402.057770 
	C244.225555,398.294464 231.862823,389.690399 227.681458,372.614807 
	C224.685349,360.379456 227.817001,349.033508 234.295181,338.813232 
	C250.657501,312.999298 274.873230,299.312195 304.692474,295.009613 
	C321.130035,292.637878 336.833527,294.887817 351.616577,304.273071 
	C352.004578,308.926361 351.989868,313.074371 351.989197,317.222351 
	C351.986938,331.215698 351.988831,331.215698 366.134247,330.961273 
z"/>
<path fill="#FEFEFE" opacity="1.000000" stroke="none" 
	d="
M366.239960,330.505310 
	C351.988831,331.215698 351.986938,331.215698 351.989197,317.222351 
	C351.989868,313.074371 352.004578,308.926361 351.962891,304.300507 
	C351.901245,213.059204 351.889496,122.295784 351.878021,31.532356 
	C351.877045,23.888336 351.877899,16.244314 351.877899,8.211400 
	C356.657104,8.211400 361.180115,8.211400 366.218109,8.211400 
	C366.218109,16.186693 366.218109,24.131027 365.881073,32.725426 
	C365.699585,34.251305 365.855164,35.127121 366.010742,36.002937 
	C366.072540,38.047955 366.134369,40.092976 365.887421,42.716980 
	C365.725067,43.865650 365.871490,44.435337 366.017914,45.005028 
	C366.084503,46.073624 366.151123,47.142220 365.880310,48.793114 
	C365.698456,50.251186 365.854004,51.126953 366.009521,52.002724 
	C366.072571,81.027405 366.135651,110.052086 365.826843,139.847198 
	C365.309998,146.702637 365.028259,152.788681 365.073792,158.872284 
	C365.099060,162.249939 365.670685,165.623505 365.996063,168.998917 
	C366.053528,181.025055 366.110992,193.051178 365.807831,205.850784 
	C365.304779,216.024994 365.109314,225.425507 365.068085,234.826691 
	C365.060516,236.550568 365.679565,238.277206 366.009399,240.002563 
	C366.071960,248.693832 366.134521,257.385101 365.867981,266.727905 
	C365.691498,268.252686 365.844147,269.125916 365.996765,269.999115 
	C366.053741,273.697174 366.110687,277.395233 365.822083,281.819336 
	C365.649689,284.696564 365.822876,286.847748 365.996094,288.998932 
	C366.053314,293.361115 366.110565,297.723267 365.848267,302.736542 
	C365.689026,304.259308 365.849365,305.131012 366.009644,306.002686 
	C366.121674,314.018219 366.233673,322.033783 366.239960,330.505310 
z"/>
<path fill="#E5E5E5" opacity="1.000000" stroke="none" 
	d="
M366.155212,239.622879 
	C365.679565,238.277206 365.060516,236.550568 365.068085,234.826691 
	C365.109314,225.425507 365.304779,216.024994 365.721985,206.312653 
	C366.098206,217.081757 366.199646,228.162476 366.155212,239.622879 
z"/>
<path fill="#E5E5E5" opacity="1.000000" stroke="none" 
	d="
M366.147888,168.621628 
	C365.670685,165.623505 365.099060,162.249939 365.073792,158.872284 
	C365.028259,152.788681 365.309998,146.702637 365.732147,140.307312 
	C366.106079,149.412781 366.202881,158.828552 366.147888,168.621628 
z"/>
<path fill="#E5E5E5" opacity="1.000000" stroke="none" 
	d="
M366.146271,288.675903 
	C365.822876,286.847748 365.649689,284.696564 365.736267,282.273315 
	C366.096222,284.118469 366.196350,286.235657 366.146271,288.675903 
z"/>
<path fill="#E5E5E5" opacity="1.000000" stroke="none" 
	d="
M366.157227,35.781738 
	C365.855164,35.127121 365.699585,34.251305 365.781799,33.184498 
	C366.114288,33.849186 366.208984,34.704865 366.157227,35.781738 
z"/>
<path fill="#E5E5E5" opacity="1.000000" stroke="none" 
	d="
M366.156250,51.781696 
	C365.854004,51.126953 365.698456,50.251186 365.780884,49.184608 
	C366.113556,49.849422 366.208282,50.705044 366.156250,51.781696 
z"/>
<path fill="#E5E5E5" opacity="1.000000" stroke="none" 
	d="
M366.144379,269.779114 
	C365.844147,269.125916 365.691498,268.252686 365.774292,267.188171 
	C366.103790,267.850952 366.197876,268.705048 366.144379,269.779114 
z"/>
<path fill="#E5E5E5" opacity="1.000000" stroke="none" 
	d="
M366.152618,305.779724 
	C365.849365,305.131012 365.689026,304.259308 365.762390,303.194458 
	C366.095886,303.853088 366.195740,304.704895 366.152618,305.779724 
z"/>
<path fill="#E5E5E5" opacity="1.000000" stroke="none" 
	d="
M366.159546,44.834068 
	C365.871490,44.435337 365.725067,43.865650 365.793762,43.146564 
	C366.106293,43.552483 366.203735,44.107800 366.159546,44.834068 
z"/>
</svg>