<?xml version="1.0" encoding="UTF-8"?>
<svg version="1.1" xmlns="http://www.w3.org/2000/svg" width="500" height="500">
<path d="M0 0 C2.81955877 0.02431498 5.63873125 0.01871471 8.45836353 0.01273346 C11.22726283 0.00962793 13.99593338 0.02190638 16.76477623 0.03886414 C18.67810642 0.04903677 20.59147983 0.04973751 22.50483704 0.05004883 C51.19272993 0.43184042 76.63701656 13.20590367 96.49194336 33.51037598 C101.29663086 38.85585081 101.29663086 38.85585081 101.29663086 41.51818848 C101.95663086 41.51818848 102.61663086 41.51818848 103.29663086 41.51818848 C115.69513896 58.16354188 122.30512231 78.17661264 123.52636719 98.70422363 C123.91387346 104.52992688 124.8421428 109.19298994 127.29663086 114.51818848 C127.95663086 114.84818848 128.61663086 115.17818848 129.29663086 115.51818848 C129.29663086 116.17818848 129.29663086 116.83818848 129.29663086 117.51818848 C136.16406768 120.0738697 142.96884463 119.83229143 150.22631836 119.86193848 C151.58481994 119.8756019 152.9433106 119.89039229 154.30178833 119.90625 C158.59167042 119.95420933 162.88159638 119.98729292 167.17163086 120.01818848 C172.14123347 120.05404238 177.11062214 120.0962273 182.0800209 120.15412903 C184.05449521 120.17396801 186.0290742 120.18233819 188.00363159 120.19042969 C199.96480356 120.32216131 210.07153239 121.83440292 219.17163086 130.14318848 C219.87288086 130.92693848 220.57413086 131.71068848 221.29663086 132.51818848 C221.89475586 133.05443848 222.49288086 133.59068848 223.10913086 134.14318848 C224.29663086 135.51818848 224.29663086 135.51818848 224.29663086 138.51818848 C224.95663086 138.51818848 225.61663086 138.51818848 226.29663086 138.51818848 C230.35328349 146.54190046 230.86115895 153.58149493 230.7824707 162.4732666 C230.78462106 163.85079305 230.78850539 165.2283177 230.79397583 166.60583496 C230.80359683 170.31618473 230.78846315 174.02604684 230.76806974 177.73633766 C230.75040577 181.62711591 230.75402546 185.51788122 230.75479126 189.40869141 C230.75292409 195.9316009 230.73562986 202.45432314 230.70825195 208.97717285 C230.67670176 216.52205985 230.66625969 224.06674281 230.66772306 231.611691 C230.66907203 239.65277939 230.6552128 247.69378907 230.63682985 255.73485374 C230.63256446 258.05155612 230.6311472 260.36824583 230.63035202 262.68495178 C230.62834786 266.31627913 230.61617727 269.94743428 230.59601974 273.57870483 C230.5873653 275.55106849 230.58851487 277.52346745 230.58990479 279.49584961 C230.58137482 280.66212891 230.57284485 281.8284082 230.5640564 283.0300293 C230.56070471 284.04760567 230.55735302 285.06518204 230.55389977 286.11359406 C230.29663086 288.51818848 230.29663086 288.51818848 228.29663086 290.51818848 C226.13256836 290.71350098 226.13256836 290.71350098 223.67163086 290.64318848 C222.85436523 290.6251416 222.03709961 290.60709473 221.19506836 290.58850098 C220.2553418 290.55369629 220.2553418 290.55369629 219.29663086 290.51818848 C219.30329269 291.2609906 219.30995453 292.00379272 219.31681824 292.769104 C219.37695415 299.77271246 219.42261776 306.77623133 219.45206738 313.78002548 C219.46771682 317.38068413 219.48894144 320.98112927 219.52294922 324.58166504 C219.55556914 328.05705104 219.5734893 331.5322318 219.58126259 335.00775909 C219.58949525 336.97759272 219.61291059 338.94734389 219.63652039 340.91705322 C219.63674698 342.11799622 219.63697357 343.31893921 219.63720703 344.55627441 C219.64719978 346.14179108 219.64719978 346.14179108 219.65739441 347.75933838 C219.24406449 350.92017677 218.51971522 352.26352812 216.29663086 354.51818848 C211.99895249 355.95074793 207.86180974 355.78288934 203.35913086 355.83068848 C202.45227539 355.85969238 201.54541992 355.88869629 200.61108398 355.9185791 C199.73516602 355.92695801 198.85924805 355.93533691 197.95678711 355.94396973 C196.76001343 355.96584351 196.76001343 355.96584351 195.5390625 355.98815918 C193.29663086 355.51818848 193.29663086 355.51818848 189.29663086 351.51818848 C189.29663086 331.38818848 189.29663086 311.25818848 189.29663086 290.51818848 C101.18663086 290.51818848 13.07663086 290.51818848 -77.70336914 290.51818848 C-77.70336914 310.64818848 -77.70336914 330.77818848 -77.70336914 351.51818848 C-81.70336914 355.51818848 -81.70336914 355.51818848 -84.02172852 356.01989746 C-85.27179688 356.01711792 -85.27179688 356.01711792 -86.54711914 356.01428223 C-87.46364258 356.01492676 -88.38016602 356.01557129 -89.32446289 356.01623535 C-90.27450195 355.99625488 -91.22454102 355.97627441 -92.20336914 355.95568848 C-93.1534082 355.96277832 -94.10344727 355.96986816 -95.08227539 355.97717285 C-103.26115226 355.90240112 -103.26115226 355.90240112 -106.70336914 352.51818848 C-107.18438721 349.80366516 -107.18438721 349.80366516 -107.1574707 346.48620605 C-107.15716858 345.24514603 -107.15686646 344.004086 -107.15655518 342.72541809 C-107.13612867 341.37117879 -107.11526469 340.01694603 -107.09399414 338.66271973 C-107.08653251 337.2769604 -107.08083921 335.89119052 -107.07684326 334.50541687 C-107.06158037 330.86043089 -107.02229415 327.21608385 -106.97802734 323.5713501 C-106.93708803 319.85124353 -106.91883519 316.13103357 -106.89868164 312.4107666 C-106.85579947 305.11294946 -106.78754154 297.81565854 -106.70336914 290.51818848 C-107.32985352 290.5413916 -107.95633789 290.56459473 -108.60180664 290.58850098 C-109.41907227 290.60654785 -110.23633789 290.62459473 -111.07836914 290.64318848 C-111.89047852 290.6663916 -112.70258789 290.68959473 -113.53930664 290.71350098 C-115.70336914 290.51818848 -115.70336914 290.51818848 -117.70336914 288.51818848 C-117.905292 285.92303972 -117.98142066 283.4339817 -117.97079468 280.83726501 C-117.97532579 280.03492386 -117.9798569 279.23258271 -117.98452532 278.40592819 C-117.99724374 275.70167285 -117.9955441 272.99761701 -117.99389648 270.29333496 C-117.99987773 268.36005391 -118.00668233 266.42677525 -118.01425171 264.49349976 C-118.03197561 259.22610312 -118.03661021 253.95877141 -118.03788328 248.69134784 C-118.03930362 245.39628151 -118.04357134 242.10123173 -118.04887772 238.80616951 C-118.06741006 227.29716061 -118.07554569 215.78819812 -118.07397461 204.2791748 C-118.07277737 193.57756511 -118.09378919 182.87615847 -118.12546194 172.17460006 C-118.15171339 162.97436057 -118.16233796 153.77418691 -118.16106379 144.5739103 C-118.16055608 139.08535364 -118.16613081 133.59697671 -118.18741989 128.10845757 C-118.20694786 122.93163321 -118.20682824 117.75515701 -118.19238663 112.57831955 C-118.19031426 110.69069847 -118.19490413 108.8030548 -118.20710754 106.91547203 C-118.33576187 85.61335631 -113.52046705 67.0670952 -102.70336914 48.51818848 C-102.04336914 48.51818848 -101.38336914 48.51818848 -100.70336914 48.51818848 C-100.29731445 47.40637207 -100.29731445 47.40637207 -99.88305664 46.27209473 C-93.76144808 31.98158468 -78.85115603 20.95588111 -65.70336914 13.51818848 C-65.09009766 13.16240723 -64.47682617 12.80662598 -63.8449707 12.44006348 C-43.54240799 0.82055636 -22.89631999 -0.25927888 0 0 Z M-74.70336914 34.51818848 C-75.53094727 35.15111816 -76.35852539 35.78404785 -77.21118164 36.43615723 C-79.80808882 38.60567373 -81.75415419 40.85017865 -83.82836914 43.51818848 C-84.82223633 44.78662598 -84.82223633 44.78662598 -85.83618164 46.08068848 C-86.45235352 46.88506348 -87.06852539 47.68943848 -87.70336914 48.51818848 C-88.27829102 49.24006348 -88.85321289 49.96193848 -89.44555664 50.70568848 C-90.89341258 52.42434254 -90.89341258 52.42434254 -90.70336914 54.51818848 C-91.36336914 54.51818848 -92.02336914 54.51818848 -92.70336914 54.51818848 C-110.06259727 90.65073917 -106.70336914 114.39109356 -106.70336914 159.51818848 C0.87663086 159.51818848 108.45663086 159.51818848 219.29663086 159.51818848 C218.19719466 149.62326269 216.89339926 144.02970425 209.29663086 137.51818848 C202.09322471 131.78820631 194.13328035 131.20370286 185.22241211 131.35803223 C184.38376617 131.36377762 183.54512024 131.36952301 182.68106079 131.3754425 C180.9034595 131.38804647 179.12588344 131.40482346 177.34835815 131.42553711 C172.74529195 131.47620422 168.14211956 131.48570165 163.53881836 131.49865723 C162.64208908 131.5017691 161.7453598 131.50488098 160.82145691 131.50808716 C153.9556676 131.52801504 147.09675659 131.50028769 140.23413086 131.26818848 C139.41146729 131.25392822 138.58880371 131.23966797 137.74121094 131.22497559 C132.82862187 131.01620756 129.31549583 129.8787986 125.02539062 127.46447754 C123.14592572 126.36899591 123.14592572 126.36899591 120.29663086 125.51818848 C120.29663086 124.85818848 120.29663086 124.19818848 120.29663086 123.51818848 C119.69850586 122.98193848 119.10038086 122.44568848 118.48413086 121.89318848 C112.56479228 115.46647802 112.62694264 106.72561244 111.92163086 98.45568848 C109.60290537 75.35179655 101.14750641 56.45805548 85.29663086 39.51818848 C84.3549707 38.47404785 84.3549707 38.47404785 83.39428711 37.40881348 C67.23422342 20.22211044 43.25369819 12.51783096 20.29663086 11.51818848 C-14.16689707 10.56910681 -47.36401544 10.51916934 -74.70336914 34.51818848 Z M-106.70336914 170.51818848 C-106.70336914 181.40818848 -106.70336914 192.29818848 -106.70336914 203.51818848 C0.87663086 203.51818848 108.45663086 203.51818848 219.29663086 203.51818848 C219.29663086 192.62818848 219.29663086 181.73818848 219.29663086 170.51818848 C111.71663086 170.51818848 4.13663086 170.51818848 -106.70336914 170.51818848 Z M-106.70336914 215.51818848 C-106.70336914 236.63818848 -106.70336914 257.75818848 -106.70336914 279.51818848 C0.87663086 279.51818848 108.45663086 279.51818848 219.29663086 279.51818848 C219.29663086 258.39818848 219.29663086 237.27818848 219.29663086 215.51818848 C217.97663086 215.51818848 216.65663086 215.51818848 215.29663086 215.51818848 C215.29076462 216.18804276 215.28489838 216.85789703 215.27885437 217.54804993 C215.21502106 224.5072088 215.13062758 231.46590089 215.03417969 238.42468262 C215.00088342 241.02325291 214.97286632 243.62189634 214.95019531 246.22058105 C214.91673635 249.95161167 214.86442357 253.68196908 214.80834961 257.41271973 C214.80195969 258.57841995 214.79556976 259.74412018 214.78898621 260.94514465 C214.75929497 262.56648567 214.75929497 262.56648567 214.72900391 264.22058105 C214.71790085 265.17322342 214.70679779 266.12586578 214.69535828 267.1073761 C214.21171731 270.03159843 213.63068154 270.73955948 211.29663086 272.51818848 C208.93334627 272.89193463 208.93334627 272.89193463 206.07886505 272.89012527 C204.44767644 272.90001004 204.44767644 272.90001004 202.78353453 272.9100945 C201.58423449 272.90203809 200.38493445 272.89398169 199.14929199 272.88568115 C197.87886063 272.88894999 196.60842927 272.89221883 195.29949999 272.89558673 C191.76608561 272.90425738 188.23293295 272.89414857 184.69954133 272.88104439 C180.89172443 272.87016975 177.08393235 272.87655562 173.27610779 272.88082886 C165.81379193 272.88647008 158.35157858 272.87613257 150.8892802 272.8605409 C142.20499966 272.84302836 133.52073917 272.8415822 124.83644372 272.84092531 C109.34479771 272.83923615 93.85319848 272.82340795 78.36157227 272.79943848 C63.31827405 272.77617946 48.27500551 272.76201389 33.23168945 272.75842285 C32.30521821 272.75820008 31.37874696 272.75797732 30.42420083 272.7577478 C28.55789382 272.75730521 26.69158681 272.75686318 24.8252798 272.75642173 C23.90471275 272.75620216 22.9841457 272.7559826 22.03568268 272.75575638 C21.11748754 272.75554039 20.1992924 272.75532441 19.25327316 272.75510187 C4.93286126 272.75140294 -9.38754584 272.74004307 -23.70795247 272.72762598 C-28.90397424 272.72318725 -34.09999556 272.7197504 -39.29601848 272.71700385 C-47.53742519 272.71257537 -55.77881416 272.70481628 -64.02020967 272.69022945 C-67.78760108 272.68361304 -71.55497681 272.67855502 -75.32237434 272.67776871 C-79.40028146 272.67683978 -83.47813421 272.66816723 -87.55603027 272.65863037 C-88.75533031 272.65949685 -89.95463035 272.66036334 -91.19027281 272.66125607 C-92.27773188 272.65741493 -93.36519095 272.65357378 -94.48560333 272.64961624 C-95.42758214 272.64836974 -96.36956094 272.64712325 -97.34008455 272.64583898 C-99.70336914 272.51818848 -99.70336914 272.51818848 -102.70336914 271.51818848 C-103.03336914 253.03818848 -103.36336914 234.55818848 -103.70336914 215.51818848 C-104.69336914 215.51818848 -105.68336914 215.51818848 -106.70336914 215.51818848 Z M-92.70336914 215.51818848 C-92.70336914 230.69818848 -92.70336914 245.87818848 -92.70336914 261.51818848 C-87.09336914 261.51818848 -81.48336914 261.51818848 -75.70336914 261.51818848 C-75.70336914 256.56818848 -75.70336914 251.61818848 -75.70336914 246.51818848 C-78.17836914 245.52818848 -78.17836914 245.52818848 -80.70336914 244.51818848 C-82.07176277 241.78140123 -81.91971732 239.47554424 -82.01977539 236.41662598 C-82.06166992 235.20490723 -82.10356445 233.99318848 -82.14672852 232.74475098 C-82.18604492 231.47373535 -82.22536133 230.20271973 -82.26586914 228.89318848 C-82.30905273 227.61443848 -82.35223633 226.33568848 -82.39672852 225.01818848 C-82.503068 221.851635 -82.60509747 218.68500095 -82.70336914 215.51818848 C-86.00336914 215.51818848 -89.30336914 215.51818848 -92.70336914 215.51818848 Z M-56.70336914 215.51818848 C-57.03336914 224.75818848 -57.36336914 233.99818848 -57.70336914 243.51818848 C-60.01336914 244.50818848 -62.32336914 245.49818848 -64.70336914 246.51818848 C-64.70336914 251.46818848 -64.70336914 256.41818848 -64.70336914 261.51818848 C-59.09336914 261.51818848 -53.48336914 261.51818848 -47.70336914 261.51818848 C-47.70336914 246.33818848 -47.70336914 231.15818848 -47.70336914 215.51818848 C-50.67336914 215.51818848 -53.64336914 215.51818848 -56.70336914 215.51818848 Z M-36.70336914 215.51818848 C-36.70336914 230.69818848 -36.70336914 245.87818848 -36.70336914 261.51818848 C-31.09336914 261.51818848 -25.48336914 261.51818848 -19.70336914 261.51818848 C-19.70336914 256.56818848 -19.70336914 251.61818848 -19.70336914 246.51818848 C-21.68336914 246.18818848 -23.66336914 245.85818848 -25.70336914 245.51818848 C-26.03336914 235.61818848 -26.36336914 225.71818848 -26.70336914 215.51818848 C-30.00336914 215.51818848 -33.30336914 215.51818848 -36.70336914 215.51818848 Z M-0.70336914 215.51818848 C-0.74095337 216.72148804 -0.74095337 216.72148804 -0.77929688 217.94909668 C-0.89518957 221.57645921 -1.01794665 225.20355765 -1.14086914 228.83068848 C-1.18018555 230.0933252 -1.21950195 231.35596191 -1.26000977 232.65686035 C-1.3019043 233.86535645 -1.34379883 235.07385254 -1.38696289 236.31896973 C-1.44194946 237.99213257 -1.44194946 237.99213257 -1.49804688 239.69909668 C-1.70336914 242.51818848 -1.70336914 242.51818848 -2.70336914 245.51818848 C-4.35336914 245.84818848 -6.00336914 246.17818848 -7.70336914 246.51818848 C-7.70336914 251.46818848 -7.70336914 256.41818848 -7.70336914 261.51818848 C-2.42336914 261.51818848 2.85663086 261.51818848 8.29663086 261.51818848 C8.29663086 256.56818848 8.29663086 251.61818848 8.29663086 246.51818848 C6.31663086 246.18818848 4.33663086 245.85818848 2.29663086 245.51818848 C1.96663086 235.61818848 1.63663086 225.71818848 1.29663086 215.51818848 C0.63663086 215.51818848 -0.02336914 215.51818848 -0.70336914 215.51818848 Z M27.29663086 215.51818848 C27.27157471 216.2848584 27.24651855 217.05152832 27.22070312 217.84143066 C27.10461663 221.31718131 26.9819472 224.7926694 26.85913086 228.26818848 C26.80015625 230.07803223 26.80015625 230.07803223 26.73999023 231.92443848 C26.6980957 233.08459473 26.65620117 234.24475098 26.61303711 235.44006348 C26.55805054 237.0425293 26.55805054 237.0425293 26.50195312 238.67736816 C26.32676176 241.1013 25.98464598 243.1970556 25.29663086 245.51818848 C23.31663086 245.84818848 21.33663086 246.17818848 19.29663086 246.51818848 C19.29663086 251.46818848 19.29663086 256.41818848 19.29663086 261.51818848 C24.57663086 261.51818848 29.85663086 261.51818848 35.29663086 261.51818848 C36.46168076 259.18808868 36.41756666 257.8457177 36.41015625 255.2520752 C36.41004295 253.93093216 36.41004295 253.93093216 36.40992737 252.58309937 C36.40476608 251.63097565 36.3996048 250.67885193 36.39428711 249.69787598 C36.39287216 248.7240799 36.39145721 247.75028381 36.38999939 246.74697876 C36.38439059 243.62901774 36.37183659 240.51112788 36.35913086 237.39318848 C36.35411699 235.28251243 36.34955389 233.17183526 36.34545898 231.06115723 C36.3344183 225.88014012 36.31714775 220.69917637 36.29663086 215.51818848 C33.32663086 215.51818848 30.35663086 215.51818848 27.29663086 215.51818848 Z M47.29663086 215.51818848 C47.29663086 230.69818848 47.29663086 245.87818848 47.29663086 261.51818848 C52.57663086 261.51818848 57.85663086 261.51818848 63.29663086 261.51818848 C63.29663086 256.56818848 63.29663086 251.61818848 63.29663086 246.51818848 C61.64663086 246.18818848 59.99663086 245.85818848 58.29663086 245.51818848 C57.96663086 235.61818848 57.63663086 225.71818848 57.29663086 215.51818848 C53.99663086 215.51818848 50.69663086 215.51818848 47.29663086 215.51818848 Z M82.29663086 215.51818848 C81.96663086 225.08818848 81.63663086 234.65818848 81.29663086 244.51818848 C79.31663086 245.17818848 77.33663086 245.83818848 75.29663086 246.51818848 C75.29663086 251.46818848 75.29663086 256.41818848 75.29663086 261.51818848 C80.90663086 261.51818848 86.51663086 261.51818848 92.29663086 261.51818848 C92.29663086 256.56818848 92.29663086 251.61818848 92.29663086 246.51818848 C90.31663086 246.18818848 88.33663086 245.85818848 86.29663086 245.51818848 C85.96663086 235.61818848 85.63663086 225.71818848 85.29663086 215.51818848 C84.30663086 215.51818848 83.31663086 215.51818848 82.29663086 215.51818848 Z M110.29663086 215.51818848 C109.96663086 225.41818848 109.63663086 235.31818848 109.29663086 245.51818848 C107.31663086 245.84818848 105.33663086 246.17818848 103.29663086 246.51818848 C103.29663086 251.46818848 103.29663086 256.41818848 103.29663086 261.51818848 C108.90663086 261.51818848 114.51663086 261.51818848 120.29663086 261.51818848 C120.29663086 256.56818848 120.29663086 251.61818848 120.29663086 246.51818848 C118.31663086 245.85818848 116.33663086 245.19818848 114.29663086 244.51818848 C113.96663086 234.94818848 113.63663086 225.37818848 113.29663086 215.51818848 C112.30663086 215.51818848 111.31663086 215.51818848 110.29663086 215.51818848 Z M138.29663086 215.51818848 C137.96663086 224.75818848 137.63663086 233.99818848 137.29663086 243.51818848 C135.31663086 244.50818848 133.33663086 245.49818848 131.29663086 246.51818848 C131.29663086 251.46818848 131.29663086 256.41818848 131.29663086 261.51818848 C136.57663086 261.51818848 141.85663086 261.51818848 147.29663086 261.51818848 C147.29663086 246.33818848 147.29663086 231.15818848 147.29663086 215.51818848 C144.32663086 215.51818848 141.35663086 215.51818848 138.29663086 215.51818848 Z M159.29663086 215.51818848 C159.29663086 230.69818848 159.29663086 245.87818848 159.29663086 261.51818848 C164.57663086 261.51818848 169.85663086 261.51818848 175.29663086 261.51818848 C175.29663086 256.56818848 175.29663086 251.61818848 175.29663086 246.51818848 C172.82163086 245.52818848 172.82163086 245.52818848 170.29663086 244.51818848 C170.27157471 243.67522217 170.24651855 242.83225586 170.22070312 241.96374512 C170.12574931 238.84577174 170.02650638 235.72797344 169.92431641 232.61022949 C169.88091863 231.259047 169.83924716 229.90780795 169.79931641 228.55651855 C169.74173134 226.61782146 169.67748788 224.67932572 169.61303711 222.74084473 C169.57637939 221.57303467 169.53972168 220.40522461 169.50195312 219.20202637 C169.59586898 216.60039053 169.59586898 216.60039053 168.29663086 215.51818848 C165.32663086 215.51818848 162.35663086 215.51818848 159.29663086 215.51818848 Z M194.29663086 215.51818848 C193.96663086 224.75818848 193.63663086 233.99818848 193.29663086 243.51818848 C191.31663086 244.50818848 189.33663086 245.49818848 187.29663086 246.51818848 C187.29663086 251.46818848 187.29663086 256.41818848 187.29663086 261.51818848 C192.57663086 261.51818848 197.85663086 261.51818848 203.29663086 261.51818848 C203.29663086 246.33818848 203.29663086 231.15818848 203.29663086 215.51818848 C200.32663086 215.51818848 197.35663086 215.51818848 194.29663086 215.51818848 Z M-95.70336914 290.51818848 C-95.70336914 308.00818848 -95.70336914 325.49818848 -95.70336914 343.51818848 C-93.72336914 343.51818848 -91.74336914 343.51818848 -89.70336914 343.51818848 C-89.70336914 326.02818848 -89.70336914 308.53818848 -89.70336914 290.51818848 C-91.68336914 290.51818848 -93.66336914 290.51818848 -95.70336914 290.51818848 Z M200.29663086 290.51818848 C200.29663086 308.00818848 200.29663086 325.49818848 200.29663086 343.51818848 C202.60663086 343.51818848 204.91663086 343.51818848 207.29663086 343.51818848 C207.29663086 326.02818848 207.29663086 308.53818848 207.29663086 290.51818848 C204.98663086 290.51818848 202.67663086 290.51818848 200.29663086 290.51818848 Z " fill="#ECECEC" transform="translate(193.703369140625,55.4818115234375)"/>
<path d="M0 0 C1.32 0 2.64 0 4 0 C4 0.66 4 1.32 4 2 C3.34 2 2.68 2 2 2 C2 10.91 2 19.82 2 29 C1.34 29.33 0.68 29.66 0 30 C0 20.1 0 10.2 0 0 Z " fill="#7F7F7F" transform="translate(191,269)"/>
<path d="M0 0 C0 3 0 3 -1 6 C-1.66 6 -2.32 6 -3 6 C-3 6.99 -3 7.98 -3 9 C-3.66 9 -4.32 9 -5 9 C-5 9.66 -5 10.32 -5 11 C-8.465 12.485 -8.465 12.485 -12 14 C-10.41332422 10.09714233 -7.86649519 7.66479018 -4.875 4.75 C-3.96492188 3.85796875 -3.05484375 2.9659375 -2.1171875 2.046875 C-1.41851562 1.37140625 -0.71984375 0.6959375 0 0 Z " fill="#B9B9B9" transform="translate(111,81)"/>
<path d="M0 0 C1.36363636 4.09090909 1.36363636 4.09090909 0 7 C-3.0625 8.75 -3.0625 8.75 -6 10 C-6 9.34 -6 8.68 -6 8 C-5.34 8 -4.68 8 -4 8 C-3.71125 7.236875 -3.4225 6.47375 -3.125 5.6875 C-2 3 -2 3 0 0 Z " fill="#C3C3C3" transform="translate(97,96)"/>
<path d="M0 0 C0.33 0 0.66 0 1 0 C1.26218749 3.14624993 1.24754367 4.61837017 -0.5 7.3125 C-1.2425 8.1478125 -1.2425 8.1478125 -2 9 C-2.66 8.67 -3.32 8.34 -4 8 C-2.68 5.36 -1.36 2.72 0 0 Z " fill="#B1B1B1" transform="translate(90,106)"/>
</svg>
