<svg version="1.1" id="Layer_1" xmlns="http://www.w3.org/2000/svg" xmlns:xlink="http://www.w3.org/1999/xlink" x="0px" y="0px"
	 width="100%" viewBox="0 0 707 353" enable-background="new 0 0 707 353" xml:space="preserve">
<path fill="#000000" opacity="1.000000" stroke="none" 
	d="
M524.000000,354.000000 
	C349.374390,354.000000 175.248764,354.000000 1.061571,354.000000 
	C1.061571,236.402145 1.061571,118.804237 1.061571,1.103168 
	C236.666641,1.103168 472.333313,1.103168 707.978149,1.103168 
	C707.978149,118.751282 707.978149,236.375641 707.978149,354.000000 
	C646.804199,354.000000 585.652100,354.000000 524.000000,354.000000 
M344.825500,70.475166 
	C344.825500,70.475166 344.989136,70.683769 344.390137,71.061890 
	C343.901550,71.570778 343.412964,72.079666 342.260834,72.811157 
	C340.496155,74.867493 338.731476,76.923828 337.000336,79.000328 
	C337.000336,79.000328 336.979462,78.967216 336.336914,79.211380 
	C328.799072,86.850151 321.261230,94.488914 313.118744,102.435234 
	C312.415680,103.298225 311.712585,104.161217 310.403168,105.164154 
	C309.529510,106.795021 308.655823,108.425896 307.439026,110.310913 
	C307.295288,110.585884 307.292786,110.862122 306.994843,111.833740 
	C307.034729,115.877289 307.074646,119.920830 307.097107,124.763992 
	C307.533508,126.833969 307.969910,128.903946 308.266418,131.584488 
	C308.618774,132.329041 308.971161,133.073593 309.352875,133.973755 
	C309.352875,133.973755 309.487152,134.254288 309.292847,134.702667 
	C309.552551,135.054672 309.812225,135.406693 310.152252,136.482269 
	C310.566376,137.329620 310.980530,138.176971 311.294464,139.461868 
	C311.454376,139.742859 311.694031,139.908463 312.041840,140.484192 
	C312.096313,140.650940 312.150818,140.817688 312.064331,141.579285 
	C312.381012,142.051147 312.697693,142.523026 313.068146,143.596451 
	C313.366150,144.068588 313.664154,144.540741 314.079987,145.757187 
	C317.075928,151.760056 320.028748,157.784927 323.077209,163.761017 
	C328.635803,174.657928 334.251068,185.525955 339.948822,197.012878 
	C340.190582,197.330917 340.432312,197.648941 340.715790,198.534851 
	C341.189850,199.497864 341.663910,200.460861 342.267365,202.165405 
	C343.023895,203.462723 343.780457,204.760040 344.364441,206.445511 
	C344.500854,206.724182 344.722504,206.886444 344.992767,206.980988 
	C344.992767,206.980988 345.053223,206.973465 345.095215,207.710770 
	C347.493805,212.462692 349.892395,217.214615 352.270264,222.537582 
	C352.562805,223.009476 352.855347,223.481369 353.208771,224.566589 
	C353.954041,225.769775 354.699310,226.972946 355.430603,228.930206 
	C356.094727,230.278030 356.758850,231.625854 357.562775,233.644928 
	C361.072266,241.086670 364.581787,248.528412 368.124512,256.570862 
	C368.417694,257.046265 368.710876,257.521667 369.054688,258.765533 
	C370.070923,262.279755 371.087189,265.793976 371.258026,269.187622 
	C369.847748,269.296295 368.437469,269.404968 366.336395,269.292297 
	C365.232758,269.552765 364.129089,269.813232 362.162933,270.076508 
	C360.449005,270.207581 358.735046,270.338684 356.423401,270.225067 
	C355.940277,270.462250 355.457184,270.699463 354.126556,271.047119 
	C352.730316,271.214508 351.334045,271.381897 349.566711,271.428223 
	C349.309509,271.549652 349.155914,271.750458 348.368011,272.055969 
	C346.905151,272.685425 345.442322,273.314880 343.178680,273.976379 
	C334.672333,275.888885 327.515747,279.973785 321.767761,287.392761 
	C321.494202,287.882690 321.220642,288.372589 320.330231,289.048431 
	C319.743530,290.377258 319.156860,291.706085 318.157349,293.562927 
	C317.860291,294.397980 317.563232,295.233002 316.832733,296.545227 
	C316.661621,297.370575 316.490509,298.195892 316.053925,299.650421 
	C316.050079,300.098755 316.046234,300.547119 315.824036,301.629669 
	C315.943726,303.424561 316.063446,305.219421 316.104828,307.780334 
	C317.053619,310.177826 318.002411,312.575317 318.882721,315.539398 
	C319.503784,316.455658 320.124847,317.371918 320.907867,318.089172 
	C320.907867,318.089172 320.709808,318.252319 320.901306,318.864899 
	C321.937256,319.904236 322.973206,320.943573 324.000000,322.001221 
	C324.000000,322.001221 324.018158,321.990173 324.272522,322.600311 
	C325.859985,323.698578 327.447449,324.796844 329.422546,326.408813 
	C329.814331,326.562225 330.206085,326.715637 330.947632,327.404633 
	C336.647400,328.313568 342.347168,329.222534 348.927460,330.214691 
	C350.942108,329.876984 352.956757,329.539276 355.490509,329.362518 
	C355.975464,329.184509 356.460449,329.006470 357.665253,328.753143 
	C363.790680,325.250671 370.300507,322.271637 375.950806,318.122162 
	C384.281006,312.004669 390.679260,304.174591 390.789642,293.084656 
	C390.867432,285.271301 388.814362,277.868561 384.955078,270.270752 
	C383.348114,267.065338 381.741150,263.859894 380.034119,260.141510 
	C379.696381,259.758453 379.358612,259.375397 378.946899,258.266663 
	C377.600372,255.854050 376.253845,253.441437 374.853760,250.369415 
	C374.498383,249.584915 374.143005,248.800415 373.853302,247.295761 
	C368.979523,237.452942 364.096008,227.614929 359.234558,217.766022 
	C353.948029,207.055862 348.682007,196.335571 343.051483,185.918106 
	C343.051483,185.918106 343.387146,185.597412 343.183136,184.898483 
	C341.422638,181.366501 339.662170,177.834503 337.964294,173.638168 
	C337.898712,173.425629 337.833160,173.213074 337.864319,172.489594 
	C337.587524,172.294022 337.310699,172.098465 337.000092,171.447083 
	C337.000092,171.447083 336.859009,171.012314 336.977081,170.262421 
	C335.398315,166.623398 333.819550,162.984375 332.474457,159.127533 
	C332.548340,158.875122 332.463226,158.700485 332.778320,158.222763 
	C333.867645,156.820709 334.956970,155.418640 336.653687,153.742859 
	C339.873413,150.397858 343.093140,147.052872 346.916168,143.395569 
	C348.261353,141.924026 349.606537,140.452484 351.523529,138.794662 
	C352.006897,138.173019 352.490295,137.551392 353.579010,136.702805 
	C354.717133,135.477524 355.855255,134.252243 357.500183,132.862274 
	C357.657166,132.547821 357.814117,132.233368 358.578796,131.768494 
	C359.367493,130.838760 360.156189,129.909027 361.438324,128.810165 
	C361.618073,128.523010 361.797821,128.235840 362.613403,127.753372 
	C363.833649,126.206245 365.053894,124.659126 366.889862,122.856651 
	C367.972198,121.255806 369.054504,119.654961 370.804138,118.028671 
	C372.013641,117.237846 373.223145,116.447029 374.560608,115.556648 
	C374.560608,115.556648 374.656799,115.426140 375.133209,115.108978 
	C375.754517,114.410728 376.375824,113.712479 377.504242,112.883980 
	C377.670715,112.593651 377.837158,112.303329 378.626465,111.784225 
	C387.074066,103.191650 395.521637,94.599083 404.451111,85.812561 
	C404.625519,85.519203 404.799957,85.225853 405.610626,84.721756 
	C408.163574,82.001907 410.716492,79.282066 413.568665,76.243446 
	C418.923431,87.182671 424.008789,97.275490 428.832764,107.491737 
	C437.253601,125.325546 445.568329,143.210266 453.766388,161.147324 
	C454.711884,163.216095 454.632050,165.753494 454.270081,168.080704 
	C453.518707,168.142273 452.767303,168.203842 451.267975,168.084549 
	C450.506195,168.147980 449.744385,168.211395 448.109009,168.113632 
	C442.409668,169.135696 436.710327,170.157761 430.250549,171.052124 
	C426.858154,172.444397 423.465729,173.836670 419.447723,175.276001 
	C418.259125,176.086823 417.070496,176.897629 415.211945,177.927551 
	C410.232605,181.422302 405.257721,184.921188 402.562164,191.487534 
	C399.107758,197.904938 398.905518,204.747177 400.131500,211.696548 
	C401.067139,217.000504 403.982941,221.046280 408.667480,223.779755 
	C422.167999,231.657349 446.433533,228.407074 459.687164,216.878586 
	C462.386047,214.225693 465.084900,211.572800 467.935242,208.935593 
	C467.935242,208.935593 467.928406,208.783463 468.479431,208.603912 
	C468.667694,208.066452 468.855957,207.528992 469.526917,206.762695 
	C469.590942,206.596527 469.654968,206.430359 470.169098,205.828461 
	C471.220032,203.208313 472.270935,200.588165 473.731781,197.118973 
	C473.584961,192.421921 473.438141,187.724854 473.442108,182.365051 
	C473.113525,181.299973 472.784973,180.234894 472.506989,178.715836 
	C472.433289,178.400574 472.256775,178.161102 471.980011,177.230988 
	C469.665131,172.148636 467.350281,167.066284 464.961151,161.402451 
	C464.618713,160.942413 464.276276,160.482391 463.831238,159.296799 
	C458.031952,147.318115 452.150513,135.378311 446.456116,123.349968 
	C440.572174,110.921219 434.935577,98.375420 429.060028,85.942619 
	C426.197815,79.886086 423.037872,73.970253 419.931854,67.335739 
	C419.532990,66.562973 419.134155,65.790207 418.731415,64.300926 
	C417.083130,60.890491 415.434814,57.480057 413.678680,53.363361 
	C412.905365,51.875732 412.132050,50.388100 411.590790,48.565750 
	C411.472076,48.288841 411.263428,48.129711 411.001831,48.030663 
	C411.001831,48.030663 410.933319,48.029373 410.895966,47.302288 
	C407.577515,41.577641 404.259064,35.852993 400.967041,30.054174 
	C400.967041,30.054174 400.888367,30.050117 400.783539,29.369469 
	C395.875671,22.724768 392.833710,22.261557 386.651947,27.469057 
	C384.661804,29.145536 382.982880,31.191416 381.050323,33.072392 
	C381.050323,33.072392 381.075012,33.181004 380.464508,33.458694 
	C378.806854,35.262867 377.165009,37.081860 375.488861,38.868679 
	C367.674652,47.198917 359.850983,55.520290 351.864349,63.696163 
	C351.864349,63.696163 351.980713,63.955227 351.252106,64.335999 
	C351.082275,64.551056 350.912415,64.766106 350.783691,64.751297 
	C350.783691,64.751297 350.688629,65.016197 349.978790,65.196716 
	C348.649628,66.559143 347.320465,67.921577 345.529114,69.254959 
	C345.206299,69.450462 345.123108,69.719978 345.008545,70.211357 
	C345.008545,70.211357 345.076935,70.512383 344.825500,70.475166 
M118.187462,260.684235 
	C121.444489,251.332626 124.920273,242.050110 127.900879,232.611221 
	C131.307587,221.822906 134.112305,210.845245 137.473328,200.041565 
	C141.446075,187.271652 145.911255,174.654236 149.837662,161.870804 
	C154.146042,147.843735 158.090652,133.704803 162.175919,119.609421 
	C162.835663,117.333061 163.694107,116.578377 166.591049,116.705238 
	C180.088928,117.296326 191.476318,122.760193 201.316345,131.399368 
	C216.450760,144.686813 226.568909,160.491745 222.892776,181.846115 
	C221.843170,187.943192 219.657349,193.841248 218.060654,199.848679 
	C216.769714,204.705750 215.581116,209.590027 214.347107,214.462234 
	C214.807922,214.640442 215.268723,214.818634 215.729523,214.996841 
	C230.066284,199.924377 242.144104,183.760330 245.128036,161.992126 
	C247.984756,141.152023 244.689590,122.205414 231.193054,105.615829 
	C217.394272,88.654762 199.197128,78.508743 178.482239,72.850990 
	C168.789017,70.203529 164.122192,73.570747 161.138596,83.478592 
	C158.563309,92.030670 156.306595,100.678520 153.745285,109.235008 
	C148.254471,127.577896 142.684616,145.897278 137.096313,164.210770 
	C132.567673,179.051620 128.048019,193.896149 123.363670,208.688141 
	C120.536339,217.616119 117.401985,226.446869 114.314156,235.592102 
	C112.542702,234.560837 111.378273,234.153061 110.574234,233.373566 
	C101.395699,224.475311 90.538284,218.138779 78.669914,213.858124 
	C65.964729,209.275665 52.792641,208.026642 40.968552,216.169098 
	C24.111143,227.777649 18.548256,243.672424 33.647087,260.578827 
	C46.175877,274.607483 62.319988,281.524445 81.043404,282.212769 
	C97.509720,282.818024 110.229385,276.526306 118.187462,260.684235 
M615.153198,211.228333 
	C613.379578,203.673615 611.532043,196.135345 609.846252,188.561081 
	C604.796570,165.873077 599.798950,143.173462 594.811035,120.471771 
	C594.073975,117.117149 591.862061,112.522148 593.244385,110.643112 
	C595.183533,108.007187 599.727905,106.868690 603.374878,105.983925 
	C616.245300,102.861526 628.746704,103.694008 641.370850,108.480675 
	C659.231079,115.252708 669.462280,127.636353 673.056213,146.153671 
	C674.319275,152.661392 676.388367,159.012695 678.089478,165.435410 
	C678.545959,165.393784 679.002441,165.352158 679.458923,165.310532 
	C680.178833,162.334335 680.979919,159.375076 681.605835,156.379242 
	C686.474609,133.075729 683.867310,111.130768 669.286743,91.571564 
	C658.580261,77.209282 643.526794,69.682404 626.443970,66.287949 
	C612.819214,63.580643 599.086182,65.128357 585.672485,68.313141 
	C575.389526,70.754608 571.288696,76.281021 574.973389,86.769409 
	C577.455444,93.834473 578.808899,101.304222 580.543335,108.622299 
	C587.919067,139.742447 595.302979,170.860901 602.560181,202.008789 
	C604.606079,210.789413 606.231079,219.668121 608.157776,229.029526 
	C606.023193,228.915192 604.719238,229.003403 603.483154,228.754379 
	C592.525269,226.546768 581.491455,226.018280 570.501160,228.066422 
	C555.787659,230.808426 543.834106,237.147934 538.201111,252.435333 
	C532.741760,267.251648 539.238342,281.203674 554.053711,286.107758 
	C568.057068,290.742981 581.860168,290.149933 595.502502,285.483429 
	C612.799377,279.566833 624.491760,267.765381 622.699402,248.226364 
	C621.580444,236.027435 617.964539,224.057541 615.153198,211.228333 
z"/>
<path fill="#DBF4FA" opacity="1.000000" stroke="none" 
	d="
M117.988892,261.001007 
	C110.229385,276.526306 97.509720,282.818024 81.043404,282.212769 
	C62.319988,281.524445 46.175877,274.607483 33.647087,260.578827 
	C18.548256,243.672424 24.111143,227.777649 40.968552,216.169098 
	C52.792641,208.026642 65.964729,209.275665 78.669914,213.858124 
	C90.538284,218.138779 101.395699,224.475311 110.574234,233.373566 
	C111.378273,234.153061 112.542702,234.560837 114.314156,235.592102 
	C117.401985,226.446869 120.536339,217.616119 123.363670,208.688141 
	C128.048019,193.896149 132.567673,179.051620 137.096313,164.210770 
	C142.684616,145.897278 148.254471,127.577896 153.745285,109.235008 
	C156.306595,100.678520 158.563309,92.030670 161.138596,83.478592 
	C164.122192,73.570747 168.789017,70.203529 178.482239,72.850990 
	C199.197128,78.508743 217.394272,88.654762 231.193054,105.615829 
	C244.689590,122.205414 247.984756,141.152023 245.128036,161.992126 
	C242.144104,183.760330 230.066284,199.924377 215.729523,214.996841 
	C215.268723,214.818634 214.807922,214.640442 214.347107,214.462234 
	C215.581116,209.590027 216.769714,204.705750 218.060654,199.848679 
	C219.657349,193.841248 221.843170,187.943192 222.892776,181.846115 
	C226.568909,160.491745 216.450760,144.686813 201.316345,131.399368 
	C191.476318,122.760193 180.088928,117.296326 166.591049,116.705238 
	C163.694107,116.578377 162.835663,117.333061 162.175919,119.609421 
	C158.090652,133.704803 154.146042,147.843735 149.837662,161.870804 
	C145.911255,174.654236 141.446075,187.271652 137.473328,200.041565 
	C134.112305,210.845245 131.307587,221.822906 127.900879,232.611221 
	C124.920273,242.050110 121.444489,251.332626 117.988892,261.001007 
z"/>
<path fill="#DCF4FA" opacity="1.000000" stroke="none" 
	d="
M615.311157,211.606598 
	C617.964539,224.057541 621.580444,236.027435 622.699402,248.226364 
	C624.491760,267.765381 612.799377,279.566833 595.502502,285.483429 
	C581.860168,290.149933 568.057068,290.742981 554.053711,286.107758 
	C539.238342,281.203674 532.741760,267.251648 538.201111,252.435333 
	C543.834106,237.147934 555.787659,230.808426 570.501160,228.066422 
	C581.491455,226.018280 592.525269,226.546768 603.483154,228.754379 
	C604.719238,229.003403 606.023193,228.915192 608.157776,229.029526 
	C606.231079,219.668121 604.606079,210.789413 602.560181,202.008789 
	C595.302979,170.860901 587.919067,139.742447 580.543335,108.622299 
	C578.808899,101.304222 577.455444,93.834473 574.973389,86.769409 
	C571.288696,76.281021 575.389526,70.754608 585.672485,68.313141 
	C599.086182,65.128357 612.819214,63.580643 626.443970,66.287949 
	C643.526794,69.682404 658.580261,77.209282 669.286743,91.571564 
	C683.867310,111.130768 686.474609,133.075729 681.605835,156.379242 
	C680.979919,159.375076 680.178833,162.334335 679.458923,165.310532 
	C679.002441,165.352158 678.545959,165.393784 678.089478,165.435410 
	C676.388367,159.012695 674.319275,152.661392 673.056213,146.153671 
	C669.462280,127.636353 659.231079,115.252708 641.370850,108.480675 
	C628.746704,103.694008 616.245300,102.861526 603.374878,105.983925 
	C599.727905,106.868690 595.183533,108.007187 593.244385,110.643112 
	C591.862061,112.522148 594.073975,117.117149 594.811035,120.471771 
	C599.798950,143.173462 604.796570,165.873077 609.846252,188.561081 
	C611.532043,196.135345 613.379578,203.673615 615.311157,211.606598 
z"/>
<path fill="#DDF8FF" opacity="1.000000" stroke="none" 
	d="
M352.973694,136.929764 
	C352.490295,137.551392 352.006897,138.173019 350.854034,138.892899 
	C348.893982,140.563385 347.603424,142.135635 346.312866,143.707886 
	C343.093140,147.052872 339.873413,150.397858 335.929749,153.869492 
	C331.575806,153.824280 331.911163,156.222870 332.219086,158.603653 
	C332.463226,158.700485 332.548340,158.875122 332.293213,159.697144 
	C332.446045,163.038559 332.463654,165.906998 333.266205,168.535797 
	C333.598877,169.625366 335.610779,170.202271 336.859009,171.012314 
	C336.859009,171.012314 337.000092,171.447083 337.067383,171.899384 
	C337.271118,172.640671 337.482086,172.856949 337.767578,173.000534 
	C337.833160,173.213074 337.898712,173.425629 337.943176,174.396042 
	C337.954834,176.778046 337.406647,178.766693 338.147125,179.946732 
	C339.488586,182.084549 341.598206,183.740372 343.387146,185.597412 
	C343.387146,185.597412 343.051483,185.918106 343.122498,186.201935 
	C343.702972,188.829315 344.246185,191.166153 344.714996,193.517822 
	C345.732330,198.620926 351.308441,202.055908 349.636505,207.998764 
	C347.864777,207.654694 346.459015,207.314072 345.053223,206.973465 
	C345.053223,206.973465 344.992767,206.980988 344.988770,206.781433 
	C344.911591,206.342072 344.762329,206.167221 344.536987,206.057343 
	C343.780457,204.760040 343.023895,203.462723 342.195465,201.498306 
	C341.640411,199.876465 341.157227,198.921722 340.674072,197.966980 
	C340.432312,197.648941 340.190582,197.330917 339.936035,196.269806 
	C338.679260,187.574783 336.976135,179.854050 330.401886,174.247742 
	C329.622620,173.583191 329.482361,172.188049 329.000549,171.152679 
	C327.172821,167.224777 325.402496,163.267365 323.457123,159.398193 
	C322.374451,157.244812 321.047058,155.205673 319.725342,153.183426 
	C317.901917,150.393616 318.802521,145.670105 313.962158,145.012894 
	C313.664154,144.540741 313.366150,144.068588 313.254028,143.133041 
	C313.028381,142.107895 312.616821,141.546158 312.205292,140.984421 
	C312.150818,140.817688 312.096313,140.650940 311.999146,140.023300 
	C311.855164,139.293289 311.667908,139.113922 311.394684,139.024307 
	C310.980530,138.176971 310.566376,137.329620 310.019409,135.723587 
	C309.753418,134.728043 309.620300,134.491165 309.487152,134.254288 
	C309.487152,134.254288 309.352875,133.973755 309.505432,133.568665 
	C309.240784,132.433701 308.823547,131.703812 308.406311,130.973923 
	C307.969910,128.903946 307.533508,126.833969 307.409088,124.186768 
	C307.624573,119.452896 307.528076,115.296257 307.431549,111.139618 
	C307.292786,110.862122 307.295288,110.585884 307.971008,110.123520 
	C309.338531,108.298813 310.174011,106.661514 311.009521,105.024208 
	C311.712585,104.161217 312.415680,103.298225 313.549805,102.616692 
	C315.057129,102.619820 316.391571,102.784752 317.164642,102.203285 
	C320.385712,99.780540 323.448456,97.145859 326.540985,94.555130 
	C327.029663,94.145752 327.673431,93.597435 327.736206,93.054443 
	C328.296570,88.209320 332.057220,87.639725 335.314911,87.270370 
	C335.927673,84.213875 336.453583,81.590546 336.979462,78.967216 
	C336.979462,78.967216 337.000336,79.000328 337.331421,78.964500 
	C338.774292,78.614586 339.886139,78.300499 341.047943,78.294464 
	C342.265106,77.959969 343.693268,77.559547 344.553436,76.632225 
	C347.953461,72.966644 353.455597,70.970993 354.317657,64.850288 
	C356.501434,62.973694 358.728546,61.492870 360.156219,59.452652 
	C362.757477,55.735226 368.024689,54.218109 368.736450,48.933437 
	C368.805634,48.419765 370.029694,48.008854 370.764923,47.646008 
	C376.798065,44.668583 378.614716,38.697414 381.075012,33.181004 
	C381.075012,33.181004 381.050323,33.072392 381.481445,33.051910 
	C385.917542,31.131784 389.922516,29.232141 392.613251,27.955875 
	C396.183014,28.859295 398.535675,29.454704 400.888367,30.050114 
	C400.888367,30.050117 400.967041,30.054174 400.957092,30.505276 
	C400.106781,38.034508 405.928162,42.037102 408.660645,47.460075 
	C408.890289,47.915844 410.151428,47.851871 410.933319,48.029373 
	C410.933319,48.029373 411.001831,48.030663 411.000122,48.215523 
	C411.055969,48.612164 411.176056,48.778862 411.358734,48.900475 
	C412.132050,50.388100 412.905365,51.875732 413.499512,54.005722 
	C413.320312,57.567200 413.320312,60.486317 413.320312,63.435566 
	C415.294678,64.012329 417.014984,64.514885 418.735321,65.017433 
	C419.134155,65.790207 419.532990,66.562973 419.705078,67.862503 
	C417.312134,70.931839 418.818329,72.854698 420.402405,74.946022 
	C421.814514,76.810272 422.900360,78.921638 424.130219,80.923943 
	C423.596802,81.398697 423.063416,81.873451 422.530029,82.348198 
	C421.293152,81.186890 419.708313,80.228439 418.889313,78.823540 
	C416.974182,75.538399 412.752228,73.423813 410.849365,75.596298 
	C408.456757,78.327980 406.894775,81.787216 404.974396,84.932495 
	C404.799957,85.225853 404.625519,85.519203 403.844177,85.907166 
	C399.956238,88.332130 396.437286,90.395531 393.451721,93.057228 
	C389.277924,96.778297 385.312927,100.780884 381.640503,104.995819 
	C379.958832,106.925903 379.187683,109.649345 378.003601,112.013000 
	C377.837158,112.303329 377.670715,112.593651 376.874146,112.948837 
	C375.714935,113.817848 375.185883,114.621994 374.656799,115.426140 
	C374.656799,115.426140 374.560608,115.556648 374.146301,115.466522 
	C369.756256,115.902199 369.638092,115.990219 370.136810,118.054108 
	C369.054504,119.654961 367.972198,121.255806 366.192841,122.961090 
	C361.862061,122.920113 360.473389,124.392273 361.977570,127.948685 
	C361.797821,128.235840 361.618073,128.523010 360.831482,128.902390 
	C359.473450,129.969376 358.722260,130.944153 357.971100,131.918915 
	C357.814117,132.233368 357.657166,132.547821 356.856110,132.928772 
	C353.177460,132.697571 352.837708,134.617889 352.973694,136.929764 
z"/>
<path fill="#DCF7FD" opacity="1.000000" stroke="none" 
	d="
M317.266174,296.068054 
	C317.563232,295.233002 317.860291,294.397980 318.713409,293.269501 
	C319.828674,291.604889 320.387878,290.233673 320.947083,288.862488 
	C321.220642,288.372589 321.494202,287.882690 322.355499,287.204102 
	C324.714752,286.252380 327.153259,285.977539 328.134918,284.636353 
	C331.304291,280.306335 335.752808,278.522614 340.511780,276.895142 
	C341.847809,276.438232 342.833252,274.956177 343.979492,273.944336 
	C345.442322,273.314880 346.905151,272.685425 348.904327,272.020050 
	C349.667694,271.909302 349.833435,271.764374 349.937805,271.549286 
	C351.334045,271.381897 352.730316,271.214508 354.686218,271.214813 
	C355.837646,271.078247 356.429382,270.774017 357.021118,270.469788 
	C358.735046,270.338684 360.449005,270.207581 362.804535,270.311340 
	C364.639832,270.201965 365.833496,269.857788 367.027191,269.513611 
	C368.437469,269.404968 369.847748,269.296295 371.938599,269.421875 
	C374.779114,265.925415 373.230286,260.930328 369.004059,257.997101 
	C368.710876,257.521667 368.417694,257.046265 368.360382,256.015015 
	C368.532501,250.627777 367.589386,246.213608 364.118256,242.427475 
	C362.413330,240.567795 361.681793,237.847488 360.282043,235.662537 
	C359.597626,234.594162 358.392426,233.859421 357.422974,232.973663 
	C356.758850,231.625854 356.094727,230.278030 355.742859,228.418457 
	C355.086029,226.588898 354.116974,225.271088 353.147919,223.953278 
	C352.855347,223.481369 352.562805,223.009476 352.470703,222.058624 
	C352.778961,221.053925 352.886780,220.528183 353.250610,220.000183 
	C353.677338,219.995560 353.848053,219.993210 354.403809,219.991257 
	C357.063477,221.817505 360.237549,223.186661 361.440735,225.556458 
	C364.793640,232.160187 367.233856,239.221985 370.291260,245.986862 
	C370.742767,246.985870 372.587494,247.355240 373.787598,248.015915 
	C374.143005,248.800415 374.498383,249.584915 374.607178,250.845398 
	C373.415192,255.396439 374.062012,258.504211 379.020844,258.992340 
	C379.358612,259.375397 379.696381,259.758453 380.047852,260.860596 
	C380.742706,265.224548 377.630615,270.853516 384.991333,271.004517 
	C388.814362,277.868561 390.867432,285.271301 390.789642,293.084656 
	C390.679260,304.174591 384.281006,312.004669 375.950806,318.122162 
	C370.300507,322.271637 363.790680,325.250671 357.169922,328.608276 
	C356.106842,328.709473 355.539124,328.955536 354.971405,329.201599 
	C352.956757,329.539276 350.942108,329.876984 348.237366,329.884979 
	C341.897461,328.659851 336.247650,327.764435 330.597870,326.869019 
	C330.206085,326.715637 329.814331,326.562225 329.212585,325.788391 
	C327.341125,324.108704 325.679657,323.049438 324.018158,321.990173 
	C324.018158,321.990173 324.000000,322.001221 323.999146,321.617126 
	C322.902130,320.239502 321.805969,319.245911 320.709808,318.252319 
	C320.709808,318.252319 320.907867,318.089172 320.893799,317.860168 
	C320.236908,316.745056 319.594086,315.858948 318.951233,314.972809 
	C318.002411,312.575317 317.053619,310.177826 316.454681,307.323120 
	C316.550476,304.909058 316.296448,302.952271 316.042419,300.995453 
	C316.046234,300.547119 316.050079,300.098755 316.472717,299.277405 
	C317.016388,297.958954 317.141296,297.013489 317.266174,296.068054 
z"/>
<path fill="#DCF7FD" opacity="1.000000" stroke="none" 
	d="
M471.977448,177.997452 
	C472.256775,178.161102 472.433289,178.400574 472.355652,179.303802 
	C472.566620,180.937119 472.928986,181.982468 473.291321,183.027802 
	C473.438141,187.724854 473.584961,192.421921 473.241699,197.665100 
	C471.564392,199.766129 470.139587,201.204086 469.291931,202.926147 
	C468.878784,203.765396 469.542633,205.134781 469.718994,206.264191 
	C469.654968,206.430359 469.590942,206.596527 469.044922,207.020264 
	C468.351410,207.779709 468.139893,208.281586 467.928406,208.783463 
	C467.928406,208.783463 467.935242,208.935593 467.467896,208.941086 
	C461.427277,208.764664 460.724915,213.397186 459.011017,217.029907 
	C446.433533,228.407074 422.167999,231.657349 408.667480,223.779755 
	C403.982941,221.046280 401.067139,217.000504 400.131500,211.696548 
	C398.905518,204.747177 399.107758,197.904938 403.239258,191.257263 
	C407.459290,190.599121 415.310455,181.860123 415.881866,177.708435 
	C417.070496,176.897629 418.259125,176.086823 419.966003,175.477112 
	C424.670990,175.764832 428.777283,175.663361 431.010986,171.179840 
	C436.710327,170.157761 442.409668,169.135696 448.612762,168.494171 
	C450.082977,168.671600 451.049469,168.468506 452.015930,168.265411 
	C452.767303,168.203842 453.518707,168.142273 454.890564,168.322235 
	C459.437561,168.715057 457.972198,166.038757 457.511932,164.318100 
	C456.997131,162.393494 455.920776,160.619095 455.088806,158.779327 
	C455.396851,158.410950 455.704895,158.042587 456.012970,157.674210 
	C458.653259,158.456924 461.293549,159.239624 463.933838,160.022354 
	C464.276276,160.482391 464.618713,160.942413 464.732666,161.932449 
	C466.239655,167.346939 467.924103,172.251083 469.785828,177.086960 
	C469.981873,177.596222 471.221832,177.703613 471.977448,177.997452 
z"/>
<path fill="#D9ECF1" opacity="1.000000" stroke="none" 
	d="
M463.882538,159.659576 
	C461.293549,159.239624 458.653259,158.456924 456.012970,157.674210 
	C455.704895,158.042587 455.396851,158.410950 455.088806,158.779327 
	C455.920776,160.619095 456.997131,162.393494 457.511932,164.318100 
	C457.972198,166.038757 459.437561,168.715057 455.269318,168.318695 
	C454.632050,165.753494 454.711884,163.216095 453.766388,161.147324 
	C445.568329,143.210266 437.253601,125.325546 428.832764,107.491737 
	C424.008789,97.275490 418.923431,87.182671 413.568665,76.243446 
	C410.716492,79.282066 408.163574,82.001907 405.292511,84.827126 
	C406.894775,81.787216 408.456757,78.327980 410.849365,75.596298 
	C412.752228,73.423813 416.974182,75.538399 418.889313,78.823540 
	C419.708313,80.228439 421.293152,81.186890 422.530029,82.348198 
	C423.063416,81.873451 423.596802,81.398697 424.130219,80.923943 
	C422.900360,78.921638 421.814514,76.810272 420.402405,74.946022 
	C418.818329,72.854698 417.312134,70.931839 419.745483,68.190002 
	C423.037872,73.970253 426.197815,79.886086 429.060028,85.942619 
	C434.935577,98.375420 440.572174,110.921219 446.456116,123.349968 
	C452.150513,135.378311 458.031952,147.318115 463.882538,159.659576 
z"/>
<path fill="#D7EBEF" opacity="1.000000" stroke="none" 
	d="
M373.820435,247.655853 
	C372.587494,247.355240 370.742767,246.985870 370.291260,245.986862 
	C367.233856,239.221985 364.793640,232.160187 361.440735,225.556458 
	C360.237549,223.186661 357.063477,221.817505 354.450256,219.607635 
	C355.624878,213.927902 354.282257,210.264191 349.998810,207.998779 
	C350.000000,208.000000 350.002441,208.002228 350.002441,208.002228 
	C351.308441,202.055908 345.732330,198.620926 344.714996,193.517822 
	C344.246185,191.166153 343.702972,188.829315 343.300293,186.052719 
	C348.682007,196.335571 353.948029,207.055862 359.234558,217.766022 
	C364.096008,227.614929 368.979523,237.452942 373.820435,247.655853 
z"/>
<path fill="#D7EBEF" opacity="1.000000" stroke="none" 
	d="
M314.021057,145.385040 
	C318.802521,145.670105 317.901917,150.393616 319.725342,153.183426 
	C321.047058,155.205673 322.374451,157.244812 323.457123,159.398193 
	C325.402496,163.267365 327.172821,167.224777 329.000549,171.152679 
	C329.482361,172.188049 329.622620,173.583191 330.401886,174.247742 
	C336.976135,179.854050 338.679260,187.574783 339.882965,195.966370 
	C334.251068,185.525955 328.635803,174.657928 323.077209,163.761017 
	C320.028748,157.784927 317.075928,151.760056 314.021057,145.385040 
z"/>
<path fill="#D9ECF1" opacity="1.000000" stroke="none" 
	d="
M380.769775,33.319847 
	C378.614716,38.697414 376.798065,44.668583 370.764923,47.646008 
	C370.029694,48.008854 368.805634,48.419765 368.736450,48.933437 
	C368.024689,54.218109 362.757477,55.735226 360.156219,59.452652 
	C358.728546,61.492870 356.501434,62.973694 354.067139,64.744476 
	C353.033722,64.500526 352.568024,64.218857 352.075928,63.920662 
	C352.049561,63.904129 352.030670,63.844810 352.030670,63.844810 
	C359.850983,55.520290 367.674652,47.198917 375.488861,38.868679 
	C377.165009,37.081860 378.806854,35.262867 380.769775,33.319847 
z"/>
<path fill="#D7EBEF" opacity="1.000000" stroke="none" 
	d="
M336.658203,79.089294 
	C336.453583,81.590546 335.927673,84.213875 335.314911,87.270370 
	C332.057220,87.639725 328.296570,88.209320 327.736206,93.054443 
	C327.673431,93.597435 327.029663,94.145752 326.540985,94.555130 
	C323.448456,97.145859 320.385712,99.780540 317.164642,102.203285 
	C316.391571,102.784752 315.057129,102.619820 313.852112,102.462921 
	C321.261230,94.488914 328.799072,86.850151 336.658203,79.089294 
z"/>
<path fill="#D9ECF1" opacity="1.000000" stroke="none" 
	d="
M378.315033,111.898613 
	C379.187683,109.649345 379.958832,106.925903 381.640503,104.995819 
	C385.312927,100.780884 389.277924,96.778297 393.451721,93.057228 
	C396.437286,90.395531 399.956238,88.332130 403.603210,86.004143 
	C395.521637,94.599083 387.074066,103.191650 378.315033,111.898613 
z"/>
<path fill="#D9ECF1" opacity="1.000000" stroke="none" 
	d="
M400.835938,29.709789 
	C398.535675,29.454704 396.183014,28.859295 392.613251,27.955875 
	C389.922516,29.232141 385.917542,31.131784 381.537109,33.049866 
	C382.982880,31.191416 384.661804,29.145536 386.651947,27.469057 
	C392.833710,22.261557 395.875671,22.724768 400.835938,29.709789 
z"/>
<path fill="#E0F7FC" opacity="1.000000" stroke="none" 
	d="
M352.102325,63.937187 
	C352.568024,64.218857 353.033722,64.500526 353.749969,64.888000 
	C353.455597,70.970993 347.953461,72.966644 344.553436,76.632225 
	C343.693268,77.559547 342.265106,77.959969 341.316650,78.057472 
	C341.998352,75.871147 342.461365,74.229851 342.924377,72.588554 
	C343.412964,72.079666 343.901550,71.570778 344.721497,70.855331 
	C345.052887,70.648766 345.076935,70.512383 345.076935,70.512383 
	C345.076935,70.512383 345.008545,70.211357 345.310852,70.057068 
	C345.823669,69.748123 345.949707,69.541862 345.991302,69.284004 
	C347.320465,67.921577 348.649628,66.559143 350.349152,65.090317 
	C350.719513,64.983917 350.742584,64.981148 350.742584,64.981148 
	C350.912415,64.766106 351.082275,64.551056 351.647064,64.142822 
	C352.042023,63.949646 352.102325,63.937183 352.102325,63.937187 
z"/>
<path fill="#D7EBEF" opacity="1.000000" stroke="none" 
	d="
M343.579102,273.960388 
	C342.833252,274.956177 341.847809,276.438232 340.511780,276.895142 
	C335.752808,278.522614 331.304291,280.306335 328.134918,284.636353 
	C327.153259,285.977539 324.714752,286.252380 322.569214,287.014587 
	C327.515747,279.973785 334.672333,275.888885 343.579102,273.960388 
z"/>
<path fill="#D7EBEF" opacity="1.000000" stroke="none" 
	d="
M357.492859,233.309296 
	C358.392426,233.859421 359.597626,234.594162 360.282043,235.662537 
	C361.681793,237.847488 362.413330,240.567795 364.118256,242.427475 
	C367.589386,246.213608 368.532501,250.627777 368.343781,255.714645 
	C364.581787,248.528412 361.072266,241.086670 357.492859,233.309296 
z"/>
<path fill="#D9ECF1" opacity="1.000000" stroke="none" 
	d="
M415.546906,177.817993 
	C415.310455,181.860123 407.459290,190.599121 403.522339,191.034454 
	C405.257721,184.921188 410.232605,181.422302 415.546906,177.817993 
z"/>
<path fill="#D9ECF1" opacity="1.000000" stroke="none" 
	d="
M410.914642,47.665829 
	C410.151428,47.851871 408.890289,47.915844 408.660645,47.460075 
	C405.928162,42.037102 400.106781,38.034508 400.943878,30.542362 
	C404.259064,35.852993 407.577515,41.577641 410.914642,47.665829 
z"/>
<path fill="#D9ECF1" opacity="1.000000" stroke="none" 
	d="
M471.978729,177.614227 
	C471.221832,177.703613 469.981873,177.596222 469.785828,177.086960 
	C467.924103,172.251083 466.239655,167.346939 464.769836,162.223175 
	C467.350281,167.066284 469.665131,172.148636 471.978729,177.614227 
z"/>
<path fill="#D7EBEF" opacity="1.000000" stroke="none" 
	d="
M352.994598,220.002441 
	C352.886780,220.528183 352.778961,221.053925 352.481079,221.773102 
	C349.892395,217.214615 347.493805,212.462692 345.074219,207.342117 
	C346.459015,207.314072 347.864777,207.654694 349.636505,207.998764 
	C350.002441,208.002228 350.000000,208.000000 349.997620,208.425629 
	C350.994995,212.568329 351.994781,216.285385 352.994598,220.002441 
z"/>
<path fill="#D9ECF1" opacity="1.000000" stroke="none" 
	d="
M418.733368,64.659180 
	C417.014984,64.514885 415.294678,64.012329 413.320312,63.435566 
	C413.320312,60.486317 413.320312,57.567200 413.553406,54.358856 
	C415.434814,57.480057 417.083130,60.890491 418.733368,64.659180 
z"/>
<path fill="#D7EBEF" opacity="1.000000" stroke="none" 
	d="
M330.772766,327.136841 
	C336.247650,327.764435 341.897461,328.659851 347.797089,329.843384 
	C342.347168,329.222534 336.647400,328.313568 330.772766,327.136841 
z"/>
<path fill="#D7EBEF" opacity="1.000000" stroke="none" 
	d="
M343.285156,185.247955 
	C341.598206,183.740372 339.488586,182.084549 338.147125,179.946732 
	C337.406647,178.766693 337.954834,176.778046 337.911865,174.728210 
	C339.662170,177.834503 341.422638,181.366501 343.285156,185.247955 
z"/>
<path fill="#D9ECF1" opacity="1.000000" stroke="none" 
	d="
M459.349091,216.954254 
	C460.724915,213.397186 461.427277,208.764664 467.392181,208.933243 
	C465.084900,211.572800 462.386047,214.225693 459.349091,216.954254 
z"/>
<path fill="#D9ECF1" opacity="1.000000" stroke="none" 
	d="
M430.630768,171.115967 
	C428.777283,175.663361 424.670990,175.764832 420.278809,175.453583 
	C423.465729,173.836670 426.858154,172.444397 430.630768,171.115967 
z"/>
<path fill="#D7EBEF" opacity="1.000000" stroke="none" 
	d="
M384.973206,270.637634 
	C377.630615,270.853516 380.742706,265.224548 380.097839,261.117096 
	C381.741150,263.859894 383.348114,267.065338 384.973206,270.637634 
z"/>
<path fill="#D7EBEF" opacity="1.000000" stroke="none" 
	d="
M336.918030,170.637360 
	C335.610779,170.202271 333.598877,169.625366 333.266205,168.535797 
	C332.463654,165.906998 332.446045,163.038559 332.176361,159.806061 
	C333.819550,162.984375 335.398315,166.623398 336.918030,170.637360 
z"/>
<path fill="#D7EBEF" opacity="1.000000" stroke="none" 
	d="
M378.983887,258.629517 
	C374.062012,258.504211 373.415192,255.396439 374.633942,251.175110 
	C376.253845,253.441437 377.600372,255.854050 378.983887,258.629517 
z"/>
<path fill="#D7EBEF" opacity="1.000000" stroke="none" 
	d="
M307.213196,111.486679 
	C307.528076,115.296257 307.624573,119.452896 307.417786,123.786957 
	C307.074646,119.920830 307.034729,115.877289 307.213196,111.486679 
z"/>
<path fill="#D7EBEF" opacity="1.000000" stroke="none" 
	d="
M369.029358,258.381317 
	C373.230286,260.930328 374.779114,265.925415 372.361298,269.482147 
	C371.087189,265.793976 370.070923,262.279755 369.029358,258.381317 
z"/>
<path fill="#D9ECF1" opacity="1.000000" stroke="none" 
	d="
M469.944031,206.046326 
	C469.542633,205.134781 468.878784,203.765396 469.291931,202.926147 
	C470.139587,201.204086 471.564392,199.766129 473.036743,198.089600 
	C472.270935,200.588165 471.220032,203.208313 469.944031,206.046326 
z"/>
<path fill="#D7EBEF" opacity="1.000000" stroke="none" 
	d="
M342.592590,72.699860 
	C342.461365,74.229851 341.998352,75.871147 341.266663,77.749428 
	C339.886139,78.300499 338.774292,78.614586 337.314636,78.954422 
	C338.731476,76.923828 340.496155,74.867493 342.592590,72.699860 
z"/>
<path fill="#D9ECF1" opacity="1.000000" stroke="none" 
	d="
M362.295471,127.851028 
	C360.473389,124.392273 361.862061,122.920113 365.884979,123.088768 
	C365.053894,124.659126 363.833649,126.206245 362.295471,127.851028 
z"/>
<path fill="#D7EBEF" opacity="1.000000" stroke="none" 
	d="
M324.145325,322.295227 
	C325.679657,323.049438 327.341125,324.108704 329.018768,325.531555 
	C327.447449,324.796844 325.859985,323.698578 324.145325,322.295227 
z"/>
<path fill="#D7EBEF" opacity="1.000000" stroke="none" 
	d="
M353.276367,136.816284 
	C352.837708,134.617889 353.177460,132.697571 356.602692,133.011108 
	C355.855255,134.252243 354.717133,135.477524 353.276367,136.816284 
z"/>
<path fill="#D7EBEF" opacity="1.000000" stroke="none" 
	d="
M310.706360,105.094177 
	C310.174011,106.661514 309.338531,108.298813 308.142578,109.996445 
	C308.655823,108.425896 309.529510,106.795021 310.706360,105.094177 
z"/>
<path fill="#D7EBEF" opacity="1.000000" stroke="none" 
	d="
M346.614502,143.551727 
	C347.603424,142.135635 348.893982,140.563385 350.568115,138.986038 
	C349.606537,140.452484 348.261353,141.924026 346.614502,143.551727 
z"/>
<path fill="#D7EBEF" opacity="1.000000" stroke="none" 
	d="
M315.933228,301.312561 
	C316.296448,302.952271 316.550476,304.909058 316.493835,306.940094 
	C316.063446,305.219421 315.943726,303.424561 315.933228,301.312561 
z"/>
<path fill="#D9ECF1" opacity="1.000000" stroke="none" 
	d="
M370.470459,118.041389 
	C369.638092,115.990219 369.756256,115.902199 374.082336,115.516312 
	C373.223145,116.447029 372.013641,117.237846 370.470459,118.041389 
z"/>
<path fill="#D7EBEF" opacity="1.000000" stroke="none" 
	d="
M332.498718,158.413208 
	C331.911163,156.222870 331.575806,153.824280 335.626038,154.006348 
	C334.956970,155.418640 333.867645,156.820709 332.498718,158.413208 
z"/>
<path fill="#D7EBEF" opacity="1.000000" stroke="none" 
	d="
M353.178345,224.259933 
	C354.116974,225.271088 355.086029,226.588898 355.749847,228.041412 
	C354.699310,226.972946 353.954041,225.769775 353.178345,224.259933 
z"/>
<path fill="#D7EBEF" opacity="1.000000" stroke="none" 
	d="
M320.638672,288.955444 
	C320.387878,290.233673 319.828674,291.604889 318.919830,293.005493 
	C319.156860,291.706085 319.743530,290.377258 320.638672,288.955444 
z"/>
<path fill="#D7EBEF" opacity="1.000000" stroke="none" 
	d="
M320.805542,318.558594 
	C321.805969,319.245911 322.902130,320.239502 324.003723,321.607971 
	C322.973206,320.943573 321.937256,319.904236 320.805542,318.558594 
z"/>
<path fill="#D7EBEF" opacity="1.000000" stroke="none" 
	d="
M366.681793,269.402954 
	C365.833496,269.857788 364.639832,270.201965 363.235779,270.309937 
	C364.129089,269.813232 365.232758,269.552765 366.681793,269.402954 
z"/>
<path fill="#D7EBEF" opacity="1.000000" stroke="none" 
	d="
M358.274963,131.843704 
	C358.722260,130.944153 359.473450,129.969376 360.584747,128.986954 
	C360.156189,129.909027 359.367493,130.838760 358.274963,131.843704 
z"/>
<path fill="#D7EBEF" opacity="1.000000" stroke="none" 
	d="
M318.916992,315.256104 
	C319.594086,315.858948 320.236908,316.745056 320.812836,317.959717 
	C320.124847,317.371918 319.503784,316.455658 318.916992,315.256104 
z"/>
<path fill="#D7EBEF" opacity="1.000000" stroke="none" 
	d="
M340.694916,198.250916 
	C341.157227,198.921722 341.640411,199.876465 342.130768,201.127533 
	C341.663910,200.460861 341.189850,199.497864 340.694916,198.250916 
z"/>
<path fill="#D9ECF1" opacity="1.000000" stroke="none" 
	d="
M451.641968,168.174973 
	C451.049469,168.468506 450.082977,168.671600 449.049561,168.574768 
	C449.744385,168.211395 450.506195,168.147980 451.641968,168.174973 
z"/>
<path fill="#D7EBEF" opacity="1.000000" stroke="none" 
	d="
M317.049438,296.306641 
	C317.141296,297.013489 317.016388,297.958954 316.605469,298.962830 
	C316.490509,298.195892 316.661621,297.370575 317.049438,296.306641 
z"/>
<path fill="#D9ECF1" opacity="1.000000" stroke="none" 
	d="
M473.366699,182.696426 
	C472.928986,181.982468 472.566620,180.937119 472.330353,179.530792 
	C472.784973,180.234894 473.113525,181.299973 473.366699,182.696426 
z"/>
<path fill="#D9ECF1" opacity="1.000000" stroke="none" 
	d="
M374.895020,115.267563 
	C375.185883,114.621994 375.714935,113.817848 376.620544,113.013962 
	C376.375824,113.712479 375.754517,114.410728 374.895020,115.267563 
z"/>
<path fill="#D7EBEF" opacity="1.000000" stroke="none" 
	d="
M355.230957,329.282043 
	C355.539124,328.955536 356.106842,328.709473 356.809998,328.645935 
	C356.460449,329.006470 355.975464,329.184509 355.230957,329.282043 
z"/>
<path fill="#D7EBEF" opacity="1.000000" stroke="none" 
	d="
M312.134827,141.281860 
	C312.616821,141.546158 313.028381,142.107895 313.227142,142.832260 
	C312.697693,142.523026 312.381012,142.051147 312.134827,141.281860 
z"/>
<path fill="#D7EBEF" opacity="1.000000" stroke="none" 
	d="
M356.722260,270.347412 
	C356.429382,270.774017 355.837646,271.078247 355.109985,271.159576 
	C355.457184,270.699463 355.940277,270.462250 356.722260,270.347412 
z"/>
<path fill="#D7EBEF" opacity="1.000000" stroke="none" 
	d="
M308.336365,131.279205 
	C308.823547,131.703812 309.240784,132.433701 309.490784,133.490875 
	C308.971161,133.073593 308.618774,132.329041 308.336365,131.279205 
z"/>
<path fill="#D9ECF1" opacity="1.000000" stroke="none" 
	d="
M468.203918,208.693695 
	C468.139893,208.281586 468.351410,207.779709 468.803558,207.134705 
	C468.855957,207.528992 468.667694,208.066452 468.203918,208.693695 
z"/>
<path fill="#D7EBEF" opacity="1.000000" stroke="none" 
	d="
M350.763123,64.866226 
	C350.742584,64.981148 350.719513,64.983917 350.704071,65.000061 
	C350.688629,65.016197 350.783691,64.751297 350.763123,64.866226 
z"/>
<path fill="#D7EBEF" opacity="1.000000" stroke="none" 
	d="
M311.344574,139.243088 
	C311.667908,139.113922 311.855164,139.293289 311.984955,139.760544 
	C311.694031,139.908463 311.454376,139.742859 311.344574,139.243088 
z"/>
<path fill="#D7EBEF" opacity="1.000000" stroke="none" 
	d="
M349.752258,271.488770 
	C349.833435,271.764374 349.667694,271.909302 349.273285,272.007355 
	C349.155914,271.750458 349.309509,271.549652 349.752258,271.488770 
z"/>
<path fill="#D7EBEF" opacity="1.000000" stroke="none" 
	d="
M352.075928,63.920654 
	C352.102325,63.937183 352.042023,63.949646 352.011353,63.952438 
	C351.980713,63.955227 351.864349,63.696163 351.947510,63.770485 
	C352.030670,63.844810 352.049561,63.904129 352.075928,63.920654 
z"/>
<path fill="#D7EBEF" opacity="1.000000" stroke="none" 
	d="
M345.760193,69.269485 
	C345.949707,69.541862 345.823669,69.748123 345.446350,69.983139 
	C345.123108,69.719978 345.206299,69.450462 345.760193,69.269485 
z"/>
<path fill="#D7EBEF" opacity="1.000000" stroke="none" 
	d="
M344.951233,70.493774 
	C345.076935,70.512383 345.052887,70.648766 345.020996,70.666267 
	C344.989136,70.683769 344.825500,70.475166 344.951233,70.493774 
z"/>
<path fill="#D7EBEF" opacity="1.000000" stroke="none" 
	d="
M309.390015,134.478485 
	C309.620300,134.491165 309.753418,134.728043 309.979248,135.361801 
	C309.812225,135.406693 309.552551,135.054672 309.390015,134.478485 
z"/>
<path fill="#D7EBEF" opacity="1.000000" stroke="none" 
	d="
M344.450714,206.251434 
	C344.762329,206.167221 344.911591,206.342072 345.007080,206.757111 
	C344.722504,206.886444 344.500854,206.724182 344.450714,206.251434 
z"/>
<path fill="#D9ECF1" opacity="1.000000" stroke="none" 
	d="
M411.474762,48.733116 
	C411.176056,48.778862 411.055969,48.612164 410.981628,48.244373 
	C411.263428,48.129711 411.472076,48.288841 411.474762,48.733116 
z"/>
<path fill="#D7EBEF" opacity="1.000000" stroke="none" 
	d="
M337.815948,172.745056 
	C337.482086,172.856949 337.271118,172.640671 337.084290,172.127289 
	C337.310699,172.098465 337.587524,172.294022 337.815948,172.745056 
z"/>
<path fill="#DDF8FF" opacity="1.000000" stroke="none" 
	d="
M353.250610,220.000183 
	C351.994781,216.285385 350.994995,212.568329 349.996399,208.424408 
	C354.282257,210.264191 355.624878,213.927902 354.065186,219.607208 
	C353.848053,219.993210 353.677338,219.995560 353.250610,220.000183 
z"/>
</svg>