<?xml version="1.0" encoding="UTF-8"?>
<svg version="1.1" xmlns="http://www.w3.org/2000/svg" width="453" height="287">
<path d="M0 0 C0.79615723 0.38655762 1.59231445 0.77311523 2.41259766 1.17138672 C34.28499378 16.74657059 65.1576475 43.09047914 88 70 C88.79792969 70.90878906 89.59585937 71.81757812 90.41796875 72.75390625 C98.22875737 81.71600023 105.24779929 91.21953958 112 101 C112.61875 101.8765625 113.2375 102.753125 113.875 103.65625 C115.40748093 106.84891861 115.60262237 108.47829196 115 112 C113.34236677 115.04936888 111.29509855 117.7487072 109.1875 120.5 C108.5987207 121.28955078 108.00994141 122.07910156 107.40332031 122.89257812 C105.61834521 125.27446735 103.81252551 127.63903318 102 130 C101.48840332 130.67289063 100.97680664 131.34578125 100.44970703 132.0390625 C95.24248906 138.87650373 89.85233282 145.46244871 84.02734375 151.7890625 C82.2385666 153.73982911 80.52156881 155.72980395 78.8125 157.75 C70.07019696 167.74989651 60.47279432 176.84163537 50 185 C48.91013941 185.87857473 47.82166308 186.75886862 46.734375 187.640625 C2.87725069 223.0050589 -52.12905636 244.53996876 -108.75 244.375 C-109.49812958 244.37412384 -110.24625916 244.37324768 -111.01705933 244.37234497 C-171.48705317 244.14174751 -228.89918682 219.68400533 -274 180 C-274.87942261 179.24976563 -274.87942261 179.24976563 -275.77661133 178.484375 C-281.58786639 173.49514279 -287.02132359 168.16227146 -292.4375 162.75 C-293.32759766 161.87214844 -294.21769531 160.99429688 -295.13476562 160.08984375 C-301.19574905 154.04214225 -306.68808284 147.71075928 -312 141 C-312.97695984 139.79614021 -313.95468389 138.59289967 -314.93359375 137.390625 C-319.7357062 131.4005238 -324.31568078 125.29302149 -328.625 118.9375 C-329.05095459 118.31842773 -329.47690918 117.69935547 -329.91577148 117.06152344 C-332.0980541 113.77799011 -333.91461639 110.99989368 -334 107 C-328.28189926 94.11879111 -316.58898619 82.25029804 -307.40771484 71.62866211 C-306.42394655 70.4904869 -305.44552326 69.34767964 -304.47119141 68.20141602 C-299.48674751 62.39794235 -294.15584123 56.97224155 -288.75 51.5625 C-287.87214844 50.67240234 -286.99429688 49.78230469 -286.08984375 48.86523438 C-280.04202034 42.80412878 -273.70860636 37.31467032 -267 32 C-265.83092254 31.04693129 -264.6627675 30.09272838 -263.49609375 29.13671875 C-186.8852695 -32.21064626 -87.86211375 -43.35653025 0 0 Z M-166 39 C-166.83917969 39.67675781 -167.67835938 40.35351562 -168.54296875 41.05078125 C-185.13619659 55.1228675 -197.24557539 76.17787714 -199.28222656 98.02783203 C-200.92829877 125.3534578 -193.74892478 148.21933517 -176 169 C-175.43925781 169.66257813 -174.87851563 170.32515625 -174.30078125 171.0078125 C-159.78246879 186.73293683 -137.24710125 196.78963975 -116.02001953 198.12451172 C-91.06585249 199.06827984 -69.24056838 192.28813634 -50 176 C-49.39671875 175.54238281 -48.7934375 175.08476562 -48.171875 174.61328125 C-32.74353415 162.60945531 -22.61201679 141.5650491 -19.75 122.6875 C-17.01081652 98.42968591 -21.0496227 75.74962293 -36 56 C-39.50852903 51.8249571 -43.17179184 47.88266347 -47 44 C-47.73089844 43.25621094 -48.46179688 42.51242188 -49.21484375 41.74609375 C-65.09918031 26.63083122 -87.72943199 19.36463314 -109.3125 19.5625 C-111.08234253 19.57494751 -111.08234253 19.57494751 -112.88793945 19.58764648 C-132.47702628 19.96541969 -150.85314075 26.44436084 -166 39 Z " fill="#08090B" transform="translate(335,40)"/>
<path d="M0 0 C0.86625 0.5775 1.7325 1.155 2.625 1.75 C11.67340138 10.32216973 18.69674931 23.85282408 19.3359375 36.3828125 C19.66730325 53.84450584 15.56807538 67.74159056 3.4453125 80.64453125 C-7.55626889 91.24190118 -20.79964368 96.36333586 -36 97 C-51.71617538 96.27491694 -65.85855902 89.67789542 -76.75 78.375 C-86.40277322 66.54107129 -91.37491392 51.18214804 -90 36 C-87.94288428 20.87741957 -80.55261532 7.272855 -68.33203125 -2.03125 C-46.12446751 -16.81541091 -21.37737728 -15.712151 0 0 Z " fill="#090A0C" transform="translate(261,107)"/>
<path d="M0 0 C0.66 0.33 1.32 0.66 2 1 C1.01 3.31 0.02 5.62 -1 8 C-2.98 8 -4.96 8 -7 8 C-7.33 8.99 -7.66 9.98 -8 11 C-10.375 12.75 -10.375 12.75 -13 14 C-13.99 13.67 -14.98 13.34 -16 13 C-16.99 13 -17.98 13 -19 13 C-6.06960951 3.42105263 -6.06960951 3.42105263 0 0 Z " fill="#242624" transform="translate(103,47)"/>
<path d="M0 0 C0.6084375 0.18175781 1.216875 0.36351562 1.84375 0.55078125 C4.88344471 1.42245841 7.93506731 2.22149307 11 3 C12.12664062 3.28617188 13.25328125 3.57234375 14.4140625 3.8671875 C26.88012624 6.62284369 39.28735931 6.29652691 52 6 C52 6.66 52 7.32 52 8 C36.33908125 8.36029721 21.41001476 7.92198925 6 5 C6 4.34 6 3.68 6 3 C4.02 2.34 2.04 1.68 0 1 C0 0.67 0 0.34 0 0 Z " fill="#9D9D9D" transform="translate(190,231)"/>
<path d="M0 0 C-2.82522609 4.67248931 -5.67760044 7.65996398 -10 11 C-10 10.34 -10 9.68 -10 9 C-10.99 8.67 -11.98 8.34 -13 8 C-12.34 7.67 -11.68 7.34 -11 7 C-10.690625 6.38125 -10.38125 5.7625 -10.0625 5.125 C-7.57335365 0.1467073 -5.52079445 -0.36805296 0 0 Z " fill="#1B1D1E" transform="translate(418,192)"/>
<path d="M0 0 C2 1 2 1 2 1 Z M5 -1 C5.99 -0.67 6.98 -0.34 8 0 C8 8 8 8 7 10 C4.03 7.36 1.06 4.72 -2 2 C-1.34 1.67 -0.68 1.34 0 1 C0.99 1.33 1.98 1.66 3 2 C3 1.34 3 0.68 3 0 C3.66 -0.33 4.32 -0.66 5 -1 Z " fill="#1B1C1E" transform="translate(63,218)"/>
<path d="M0 0 C-5.12914664 5.12914664 -12.28475861 5.39038742 -19.14453125 5.81640625 C-22.4738737 6.03046794 -25.70747645 6.47618943 -29 7 C-26.17217843 5.11478562 -24.51470368 4.4822186 -21.2890625 3.7109375 C-19.91621094 3.38222656 -19.91621094 3.38222656 -18.515625 3.046875 C-17.08476562 2.71429687 -17.08476562 2.71429687 -15.625 2.375 C-14.67882812 2.14554688 -13.73265625 1.91609375 -12.7578125 1.6796875 C-8.39296242 0.64977905 -4.50619248 -0.13167772 0 0 Z " fill="#6F7070" transform="translate(186,17)"/>
<path d="M0 0 C0.66 0.33 1.32 0.66 2 1 C-0.75 5.875 -0.75 5.875 -3 7 C-2.34 8.32 -1.68 9.64 -1 11 C-1.680625 10.95875 -2.36125 10.9175 -3.0625 10.875 C-6.59924168 11.02549965 -9.63323033 11.94375853 -13 13 C-9.0580583 8.11950075 -4.88049925 3.9419417 0 0 Z " fill="#1B1B1B" transform="translate(64,75)"/>
<path d="M0 0 C0.66 0.33 1.32 0.66 2 1 C2.64165788 6.26159459 1.20577001 8.68592849 -1.90625 12.6796875 C-2.2671875 13.11539063 -2.628125 13.55109375 -3 14 C-3.99 13.01 -4.98 12.02 -6 11 C-5.67 10.01 -5.34 9.02 -5 8 C-4.01 8 -3.02 8 -2 8 C-2.66 6.35 -3.32 4.7 -4 3 C-3.01 3 -2.02 3 -1 3 C-0.67 2.01 -0.34 1.02 0 0 Z " fill="#262627" transform="translate(448,145)"/>
<path d="M0 0 C1.46726798 3.81489674 0.43336419 6.29011622 -1 10 C-0.34 10 0.32 10 1 10 C0.34 11.32 -0.32 12.64 -1 14 C-1.33 13.67 -1.66 13.34 -2 13 C-2.66 18.28 -3.32 23.56 -4 29 C-4.33 29 -4.66 29 -5 29 C-5.48032961 19.12655793 -4.88410273 8.83385538 0 0 Z " fill="#656565" transform="translate(176,126)"/>
<path d="M0 0 C0.4125 0.515625 0.825 1.03125 1.25 1.5625 C1.8275 2.036875 2.405 2.51125 3 3 C4.34262065 2.70630173 5.67696283 2.3721042 7 2 C7.99 2.66 8.98 3.32 10 4 C9.54625 4.433125 9.0925 4.86625 8.625 5.3125 C6.79975666 7.10798342 6.79975666 7.10798342 5 10 C2.36 7.36 -0.28 4.72 -3 2 C-2.01 1.34 -1.02 0.68 0 0 Z " fill="#1B1C1E" transform="translate(51,206)"/>
<path d="M0 0 C0.99966797 0.27263672 0.99966797 0.27263672 2.01953125 0.55078125 C3.40205078 0.92783203 3.40205078 0.92783203 4.8125 1.3125 C13.40625 3.65625 13.40625 3.65625 22 6 C18.34606463 7.26823485 15.50929974 6.75715321 11.75 6.0625 C10.67234375 5.86785156 9.5946875 5.67320312 8.484375 5.47265625 C7.25460938 5.23869141 7.25460938 5.23869141 6 5 C6 4.34 6 3.68 6 3 C4.02 2.34 2.04 1.68 0 1 C0 0.67 0 0.34 0 0 Z " fill="#898A8C" transform="translate(190,231)"/>
<path d="M0 0 C0.66 0.33 1.32 0.66 2 1 C1.01 3.31 0.02 5.62 -1 8 C-3.64 7.67 -6.28 7.34 -9 7 C-6.25604436 4.05278838 -3.61662784 1.80831392 0 0 Z " fill="#323234" transform="translate(103,47)"/>
<path d="M0 0 C1.43410153 3.78819273 0.51009497 6.06521279 -0.9375 9.75 C-1.31777344 10.73484375 -1.69804687 11.7196875 -2.08984375 12.734375 C-2.39019531 13.48203125 -2.69054687 14.2296875 -3 15 C-3.33 15 -3.66 15 -4 15 C-4 11.7 -4 8.4 -4 5 C-3.34 4.67 -2.68 4.34 -2 4 C-1.67 3.01 -1.34 2.02 -1 1 C-0.67 0.67 -0.34 0.34 0 0 Z " fill="#343538" transform="translate(278,158)"/>
<path d="M0 0 C1.98 0.66 3.96 1.32 6 2 C1.25 6.875 1.25 6.875 -1 8 C-1.125 2.25 -1.125 2.25 0 0 Z " fill="#1D1E21" transform="translate(386,216)"/>
<path d="M0 0 C0.33 0.66 0.66 1.32 1 2 C-0.375 4 -0.375 4 -2 6 C-2.66 6 -3.32 6 -4 6 C-4.061875 6.61875 -4.12375 7.2375 -4.1875 7.875 C-5 10 -5 10 -7.5625 11.25 C-8.366875 11.4975 -9.17125 11.745 -10 12 C-8.52278578 8.54798361 -6.56205999 6.35038064 -3.875 3.75 C-3.15054688 3.04359375 -2.42609375 2.3371875 -1.6796875 1.609375 C-1.12539063 1.07828125 -0.57109375 0.5471875 0 0 Z " fill="#404142" transform="translate(40,98)"/>
<path d="M0 0 C1.98 0 3.96 0 6 0 C2.25 5.875 2.25 5.875 0 7 C0 6.34 0 5.68 0 5 C-0.66 4.67 -1.32 4.34 -2 4 C-1.34 2.68 -0.68 1.36 0 0 Z " fill="#262729" transform="translate(412,192)"/>
<path d="M0 0 C2.79872437 2.52788007 4.45773019 4.20411134 5 8 C4.01 7.67 3.02 7.34 2 7 C1.67 7.66 1.34 8.32 1 9 C0.01 8.67 -0.98 8.34 -2 8 C-1.67 7.05125 -1.34 6.1025 -1 5.125 C0.10159191 2.22937548 0.10159191 2.22937548 0 0 Z " fill="#39393A" transform="translate(443,137)"/>
<path d="M0 0 C0.66 0.33 1.32 0.66 2 1 C1.67 1.66 1.34 2.32 1 3 C1.66 3.66 2.32 4.32 3 5 C2.01 5 1.02 5 0 5 C0 5.66 0 6.32 0 7 C-2.76276177 6.47731534 -5.3260876 5.89130413 -8 5 C-6.71475739 4.13619741 -5.42157581 3.28419631 -4.125 2.4375 C-3.04605469 1.72400391 -3.04605469 1.72400391 -1.9453125 0.99609375 C-1.30335938 0.66738281 -0.66140625 0.33867187 0 0 Z " fill="#4D4E4F" transform="translate(276,222)"/>
<path d="M0 0 C0.66 0.99 1.32 1.98 2 3 C1.360625 3.433125 0.72125 3.86625 0.0625 4.3125 C-2.26746003 5.91239177 -2.26746003 5.91239177 -3 9 C-4.32 8.67 -5.64 8.34 -7 8 C-4.69 5.36 -2.38 2.72 0 0 Z " fill="#3C3D3E" transform="translate(29,110)"/>
<path d="M0 0 C0 0.66 0 1.32 0 2 C-0.99 2 -1.98 2 -3 2 C-3 3.98 -3 5.96 -3 8 C-3.66 8 -4.32 8 -5 8 C-5 7.34 -5 6.68 -5 6 C-6.32 5.67 -7.64 5.34 -9 5 C-7.87926138 4.16094435 -6.75325453 3.32892169 -5.625 2.5 C-4.99851563 2.0359375 -4.37203125 1.571875 -3.7265625 1.09375 C-2 0 -2 0 0 0 Z " fill="#3C3D3E" transform="translate(201,101)"/>
<path d="M0 0 C2.64 1.32 5.28 2.64 8 4 C8 4.33 8 4.66 8 5 C5 5 2 5 -1 5 C-1 2 -1 2 0 0 Z " fill="#303233" transform="translate(338,42)"/>
<path d="M0 0 C0.66 0.33 1.32 0.66 2 1 C2 2.98 2 4.96 2 7 C-1.465 5.02 -1.465 5.02 -5 3 C-2 1 -2 1 0 0 Z " fill="#2C2C2E" transform="translate(99,242)"/>
<path d="M0 0 C0 2.6506582 -0.36825703 4.47302813 -1 7 C-1 7.99 -1 8.98 -1 10 C-2.32 9.67 -3.64 9.34 -5 9 C-3.7508258 5.54074837 -2.32472205 2.85306797 0 0 Z " fill="#515152" transform="translate(7,138)"/>
<path d="M0 0 C-2.68841859 2.25245881 -4.64641875 3.88213958 -8 5 C-7.67 3.35 -7.34 1.7 -7 0 C-3.98968256 -0.93423645 -3.13349732 -1.04449911 0 0 Z " fill="#212123" transform="translate(184,69)"/>
<path d="M0 0 C2.91517292 1.07401108 4.77810176 1.77810176 7 4 C5.1875 4.6875 5.1875 4.6875 3 5 C1.25 3.6875 1.25 3.6875 0 2 C0 1.34 0 0.68 0 0 Z M-1 3 C-0.01 3.99 0.98 4.98 2 6 C1.01 6.495 1.01 6.495 0 7 C-0.33 5.68 -0.66 4.36 -1 3 Z " fill="#313133" transform="translate(348,48)"/>
<path d="M0 0 C0.66 0.33 1.32 0.66 2 1 C1.34 2.65 0.68 4.3 0 6 C-0.99 6 -1.98 6 -3 6 C-3.33 6.66 -3.66 7.32 -4 8 C-4.66 7.67 -5.32 7.34 -6 7 C-4.02 4.69 -2.04 2.38 0 0 Z " fill="#4E504F" transform="translate(190,107)"/>
<path d="M0 0 C2.31 1.98 4.62 3.96 7 6 C6.67 6.66 6.34 7.32 6 8 C4.35 7.67 2.7 7.34 1 7 C0.67 4.69 0.34 2.38 0 0 Z " fill="#3E3F40" transform="translate(409,96)"/>
<path d="M0 0 C0.66 0.33 1.32 0.66 2 1 C1.375 3.4375 1.375 3.4375 0 6 C-3.125 6.8125 -3.125 6.8125 -6 7 C-4.02 4.69 -2.04 2.38 0 0 Z " fill="#363637" transform="translate(57,81)"/>
<path d="M0 0 C1.33333333 0.66666667 2.66666667 1.33333333 4 2 C4.66 1.67 5.32 1.34 6 1 C5.67 2.32 5.34 3.64 5 5 C2.97954558 4.39816251 0.97888961 3.72693904 -1 3 C-1.33 2.34 -1.66 1.68 -2 1 C-1.34 0.67 -0.68 0.34 0 0 Z " fill="#2E302F" transform="translate(106,249)"/>
<path d="M0 0 C0.99 0.66 1.98 1.32 3 2 C1.35 3.65 -0.3 5.3 -2 7 C-2.33 6.01 -2.66 5.02 -3 4 C-1.5625 1.8125 -1.5625 1.8125 0 0 Z " fill="#2B2B2E" transform="translate(267,179)"/>
<path d="M0 0 C0.33 0.66 0.66 1.32 1 2 C0.06553465 4.03144641 -0.93224776 6.03533587 -2 8 C-2.99 8 -3.98 8 -5 8 C-3.62845496 5.04590299 -2.01136276 2.55991624 0 0 Z " fill="#585858" transform="translate(15,127)"/>
<path d="M0 0 C-1.32 0.33 -2.64 0.66 -4 1 C-4 1.66 -4 2.32 -4 3 C-5.65 2.67 -7.3 2.34 -9 2 C-8 0 -8 0 -6.1875 -0.6875 C-3.81180233 -1.02688538 -2.26664171 -0.72856341 0 0 Z " fill="#1A1A1B" transform="translate(100,54)"/>
<path d="M0 0 C3.3 0.99 6.6 1.98 10 3 C6.68756695 3.82810826 4.34023421 4.09278428 1 4 C0.67 2.68 0.34 1.36 0 0 Z " fill="#474747" transform="translate(306,28)"/>
<path d="M0 0 C-1.65 1.65 -3.3 3.3 -5 5 C-5.33 3.35 -5.66 1.7 -6 0 C-3 -1 -3 -1 0 0 Z " fill="#2A2A2B" transform="translate(435,173)"/>
</svg>
