<svg version="1.1" id="Layer_1" xmlns="http://www.w3.org/2000/svg" xmlns:xlink="http://www.w3.org/1999/xlink" x="0px" y="0px"
	 width="100%" viewBox="0 0 366 195" enable-background="new 0 0 366 195" xml:space="preserve">
<path fill="#000000" opacity="1.000000" stroke="none" 
	d="
M272.000000,196.000000 
	C181.333359,196.000000 91.166718,196.000000 1.000060,196.000000 
	C1.000040,131.000046 1.000040,66.000092 1.000020,1.000104 
	C122.999916,1.000069 244.999832,1.000069 366.999817,1.000035 
	C366.999878,65.999901 366.999878,130.999802 366.999939,195.999847 
	C335.500000,196.000000 304.000000,196.000000 272.000000,196.000000 
M280.002106,168.997589 
	C280.002106,168.997589 279.971436,169.002991 279.859619,168.505157 
	C279.574036,168.346359 279.288483,168.187576 279.003754,167.996292 
	C279.003754,167.996292 278.971313,167.998520 278.828156,167.490692 
	C278.510559,167.417648 278.192963,167.344589 277.466248,167.106125 
	C277.466248,167.106125 277.042206,166.983887 276.682983,166.295700 
	C271.243073,164.014755 263.837158,165.887314 261.359314,170.170227 
	C258.543060,175.038040 260.506226,184.114258 265.135162,187.440994 
	C265.407867,187.630997 265.680573,187.820999 266.107971,188.599945 
	C266.725403,189.102982 267.342834,189.606003 268.297119,190.736008 
	C274.577667,193.097412 280.605835,195.059372 287.572723,192.089584 
	C294.626953,189.082565 297.866638,185.598953 297.971985,177.175171 
	C297.988342,173.852554 298.245087,170.509552 297.965393,167.212051 
	C297.532715,162.110565 296.733551,157.040192 296.333344,151.313995 
	C301.338989,148.874298 306.180389,146.235519 309.078186,140.454239 
	C309.403534,140.003494 309.728882,139.552750 310.714691,138.759232 
	C311.444061,137.884369 312.638153,137.100647 312.830414,136.120453 
	C314.622375,126.983917 315.432281,117.934052 309.000000,110.000793 
	C309.000000,110.000793 309.024933,109.986954 308.828156,109.422241 
	C308.222931,108.929543 307.617706,108.436852 306.815491,107.406693 
	C306.231812,106.936165 305.648102,106.465637 304.804840,105.374817 
	C303.536011,104.651031 302.267212,103.927254 300.535248,103.027283 
	C300.535248,103.027283 300.060852,102.884224 299.675018,102.250671 
	C297.781982,101.889130 295.888977,101.527588 293.354218,101.054619 
	C292.919983,101.051720 292.485718,101.048828 291.690094,100.378448 
	C290.872711,99.463158 289.558197,98.659149 289.324097,97.613289 
	C288.313782,93.099846 287.619934,88.515572 286.925995,83.501671 
	C286.925995,83.501671 287.008575,83.039261 287.573059,82.843269 
	C288.062073,82.235909 288.551117,81.628548 288.999847,80.999603 
	C288.999847,80.999603 289.022583,81.039291 289.627197,80.821960 
	C290.741058,79.560310 291.854919,78.298668 293.474762,76.854805 
	C293.662415,76.559471 293.850067,76.264137 294.600250,75.753754 
	C294.776886,75.184113 294.953522,74.614471 295.685181,73.805305 
	C296.466003,72.898376 297.246826,71.991455 298.666656,70.800804 
	C300.043152,68.197952 301.419678,65.595093 302.918518,62.496597 
	C302.890350,62.328777 302.862152,62.160961 303.203094,61.325970 
	C304.141296,57.867550 305.079468,54.409134 305.957367,50.165787 
	C305.898590,49.120117 305.839813,48.074444 305.941498,46.238071 
	C305.887390,45.168983 305.833252,44.099895 305.911621,42.367813 
	C305.957855,41.919796 306.004089,41.471783 306.565399,40.788391 
	C305.329742,34.402088 304.276611,27.972980 302.792664,21.644894 
	C301.843018,17.595253 297.070709,13.831481 294.210876,15.258777 
	C291.645477,16.539152 289.998566,19.659761 287.999390,21.999739 
	C287.999390,21.999739 287.968628,21.946539 287.322205,22.202593 
	C285.673492,24.609844 283.622101,26.836208 282.445465,29.455523 
	C277.232361,41.060520 279.417786,53.379410 279.323273,65.476585 
	C279.306274,67.649796 279.095978,69.821495 278.355682,72.256149 
	C276.714935,73.598091 274.912262,74.785957 273.462524,76.309647 
	C268.231628,81.807312 263.119568,87.418068 257.446228,93.108803 
	C257.282196,93.408691 257.118164,93.708580 257.008148,94.006836 
	C257.008148,94.006836 256.996796,93.953979 256.326141,94.206406 
	C250.914612,102.389618 249.102875,111.267731 251.039215,121.592743 
	C251.074417,122.063805 251.109619,122.534866 251.035309,123.769547 
	C253.742096,135.743195 260.891052,144.043579 272.394226,149.724930 
	C277.601440,150.439957 282.808655,151.154968 288.783875,151.999664 
	C289.909332,152.658249 291.034760,153.316849 292.023804,154.856308 
	C292.677277,158.573975 293.330719,162.291641 294.078674,166.803116 
	C294.055817,167.867294 294.032959,168.931458 293.337097,170.358765 
	C293.520752,172.558090 293.704407,174.757401 293.309113,177.374298 
	C290.779846,186.185638 286.357422,189.000656 274.840851,188.395554 
	C274.169403,187.974487 273.497986,187.553421 272.992493,186.337631 
	C278.549347,184.991455 281.685486,181.346710 282.680054,175.374329 
	C282.288330,174.588516 281.644440,173.296768 281.000000,172.000000 
	C281.000000,172.000000 281.005280,171.998199 281.476807,171.864075 
	C281.300842,171.551270 281.124847,171.238480 280.883270,170.538422 
	C280.883270,170.538422 280.745270,170.170700 280.837372,169.626160 
	C280.557007,169.426819 280.276642,169.227478 280.002106,168.997589 
M76.753990,48.748386 
	C78.169701,48.108395 79.585403,47.468403 81.666412,46.842133 
	C82.815247,45.908928 83.964088,44.975723 85.757584,43.793755 
	C86.565437,42.758865 87.373291,41.723976 88.059532,40.844891 
	C85.727074,39.309669 83.888481,38.099510 81.816910,36.289890 
	C80.889587,35.828056 79.962265,35.366222 78.688728,34.208797 
	C76.331734,33.616787 74.533020,33.798286 74.187599,37.000538 
	C73.753059,37.652744 73.318520,38.304955 72.282631,38.995010 
	C71.508049,38.956532 70.733459,38.918049 69.201920,39.246227 
	C68.296860,39.497211 67.336304,40.083683 66.495750,39.944653 
	C61.101284,39.052387 55.742798,37.944939 50.353870,37.016212 
	C43.653786,35.861526 36.915489,34.921295 30.229670,33.692665 
	C17.087955,31.277662 4.620502,43.426926 6.596898,56.739075 
	C11.364425,56.739075 16.114906,56.739075 21.147749,56.739075 
	C20.688339,55.522030 20.185846,54.656601 20.042192,53.735229 
	C19.058475,47.425797 21.145786,44.757618 27.421991,45.071186 
	C33.324558,45.366074 39.197460,46.254753 44.997158,46.872986 
	C44.997158,80.015694 45.006992,112.144730 44.988094,144.273743 
	C44.984692,150.059647 47.025299,156.894760 38.638638,157.787094 
	C41.694836,161.867477 44.622440,165.776184 47.689266,169.870758 
	C52.535835,165.721054 56.152935,160.746353 57.002708,153.090530 
	C56.995495,121.220016 57.000683,89.349487 56.942291,57.479073 
	C56.939541,55.977665 56.371407,54.477287 55.990047,52.162949 
	C57.659187,51.706886 59.328327,51.250824 61.821140,50.972065 
	C65.549927,51.524620 64.994148,54.445232 64.997055,56.921539 
	C65.025261,80.918816 65.045151,104.916283 64.951782,128.913254 
	C64.941559,131.541870 64.206406,134.167648 63.752991,137.153625 
	C68.320625,137.153625 73.105003,137.153625 76.982849,137.153625 
	C76.982849,132.686813 77.032219,128.795349 76.966698,124.905800 
	C76.917290,121.972771 76.593773,119.041199 76.617424,116.110794 
	C76.660561,110.765625 76.251839,105.302292 77.252007,100.123955 
	C77.817467,97.196281 80.661293,94.109833 84.625443,95.141937 
	C86.283844,95.573715 88.811096,97.527016 88.798126,98.766075 
	C88.671997,110.807686 88.063980,122.843697 87.690567,134.884323 
	C87.661362,135.826157 88.395020,137.629272 88.721710,137.617188 
	C92.762665,137.467468 96.793877,137.054703 99.990578,136.781311 
	C99.990578,131.760635 99.991631,127.048080 99.990356,122.335526 
	C99.988152,114.170135 100.016502,106.004570 99.970665,97.839424 
	C99.937981,92.017258 97.495010,87.051247 92.051285,85.250191 
	C87.442268,83.725296 82.210678,84.082130 76.912209,83.573349 
	C76.643250,79.195328 76.039360,73.971283 76.078712,68.752098 
	C76.120743,63.177074 76.769867,57.606625 77.770569,51.797077 
	C77.224876,50.887081 76.679184,49.977089 76.753990,48.748386 
M349.976501,105.510696 
	C350.360260,99.208145 350.744049,92.905594 351.145081,86.319534 
	C348.077850,85.108360 344.280975,83.541428 340.406403,82.198601 
	C340.071411,82.082504 338.691284,83.448662 338.692535,84.124649 
	C338.713135,95.343338 338.925720,106.561508 338.984985,117.780380 
	C339.008514,122.234680 335.890808,126.208855 332.274902,125.914024 
	C327.553772,125.529076 326.984772,121.848740 326.993652,117.981682 
	C327.018433,107.163918 327.002258,96.346054 327.002258,85.127357 
	C323.063721,84.841660 319.282104,84.567337 315.483551,84.291786 
	C315.672760,87.617218 315.912842,90.810287 316.025696,94.007858 
	C316.393280,104.423851 316.352570,114.873787 317.277313,125.238541 
	C317.549316,128.287170 319.914368,131.780655 322.346649,133.882202 
	C328.712402,139.382309 335.679047,137.558975 342.920074,133.700241 
	C345.235107,137.647369 348.218475,141.267029 349.596069,145.419418 
	C351.774536,151.985718 349.791840,157.556885 345.061035,159.320038 
	C340.339386,161.079773 335.560211,163.337067 330.083923,161.192627 
	C328.042786,160.393372 325.226227,160.599640 326.733887,164.673309 
	C327.439575,166.580063 327.547913,169.198349 326.810974,171.050018 
	C325.095001,175.361481 327.705414,175.333054 330.328949,174.896759 
	C334.876892,174.140396 339.534363,173.454285 343.817261,171.857361 
	C348.130676,170.249054 352.788605,168.330933 355.989014,165.209106 
	C364.663483,156.747665 363.352936,144.461288 357.842194,136.340424 
	C355.985382,133.604156 354.141602,130.832077 352.602417,127.912628 
	C349.033325,121.142906 350.107208,113.734978 349.976501,105.510696 
M149.022049,127.109543 
	C149.635696,127.875809 150.316605,128.597946 150.852646,129.415131 
	C156.460861,137.964630 169.619019,140.205002 176.874710,133.445541 
	C189.522217,121.663040 189.735825,103.547348 179.877930,90.593475 
	C178.038361,88.176155 175.000610,85.979668 172.101440,85.175888 
	C157.310379,81.075119 150.312134,88.519005 146.104340,100.954140 
	C143.166885,109.635071 144.399277,118.279709 149.022049,127.109543 
M138.536880,112.985054 
	C140.043121,112.565750 141.549347,112.146454 142.742935,111.814186 
	C142.368698,108.013092 142.524704,104.515175 141.577225,101.347298 
	C140.548615,97.908211 138.749298,94.617294 136.838928,91.539268 
	C130.357559,81.096336 115.920952,81.903496 109.007484,91.032204 
	C102.491394,99.636246 103.155304,109.327660 104.602814,119.228203 
	C105.800980,127.423218 110.739372,133.151077 117.870033,135.614410 
	C123.700874,137.628708 130.464615,136.942505 137.390579,137.499878 
	C136.314423,132.403076 135.452728,128.321930 134.539825,123.998352 
	C128.608017,124.566078 122.122261,127.828865 116.750114,121.058235 
	C123.405411,118.943443 129.649643,117.005135 135.848007,114.929848 
	C136.597382,114.678947 137.098999,113.688103 138.536880,112.985054 
M201.993301,126.417786 
	C201.685211,120.355347 201.271164,114.295334 201.131836,108.229019 
	C201.088470,106.341797 201.194672,103.945045 202.272903,102.643578 
	C204.512466,99.940346 207.260696,97.494133 210.263611,95.733047 
	C210.831436,95.400040 213.548340,98.731560 215.517593,100.604202 
	C216.345200,100.090385 217.819031,99.116669 219.348587,98.240166 
	C221.402679,97.063072 224.372253,96.474854 225.403427,94.723793 
	C227.820236,90.619751 221.445114,92.654419 221.359695,89.870476 
	C221.356033,89.750771 221.099884,89.657867 221.021210,89.518654 
	C217.970016,84.119415 212.886169,83.662315 207.553787,84.187172 
	C205.868668,84.353043 203.658585,86.293159 202.718231,85.723083 
	C197.908875,82.807495 192.787445,86.632538 189.453598,84.488861 
	C190.677353,101.855194 189.714386,119.190971 190.083817,137.245148 
	C193.745102,137.245148 198.252518,137.245148 201.989136,137.245148 
	C201.989136,133.480072 201.989136,130.433319 201.993301,126.417786 
M227.028351,85.263145 
	C227.682724,86.866631 228.946503,88.489174 228.897064,90.070663 
	C228.410721,105.628494 230.406235,121.270828 227.781921,136.600006 
	C231.924469,136.600006 236.429337,136.600006 240.464966,136.600006 
	C240.464966,118.889206 240.464966,101.577805 240.464966,84.377060 
	C236.091858,84.377060 231.635757,84.377060 227.028351,85.263145 
M240.638931,71.196945 
	C239.719604,70.253036 238.864105,69.234940 237.869186,68.378883 
	C234.675476,65.630966 231.433868,67.152985 229.382233,69.475273 
	C227.810257,71.254623 226.705704,74.658417 227.304291,76.807434 
	C227.918167,79.011353 229.978500,81.355637 233.661133,81.115395 
	C239.769897,80.716881 241.272186,79.216164 240.638931,71.196945 
z"/>
<path fill="#FDFDFD" opacity="1.000000" stroke="none" 
	d="
M56.835564,154.016815 
	C56.152935,160.746353 52.535835,165.721054 47.689266,169.870758 
	C44.622440,165.776184 41.694836,161.867477 38.638638,157.787094 
	C47.025299,156.894760 44.984692,150.059647 44.988094,144.273743 
	C45.006992,112.144730 44.997158,80.015694 44.997158,46.872986 
	C39.197460,46.254753 33.324558,45.366074 27.421991,45.071186 
	C21.145786,44.757618 19.058475,47.425797 20.042192,53.735229 
	C20.185846,54.656601 20.688339,55.522030 21.147749,56.739075 
	C16.114906,56.739075 11.364425,56.739075 6.596898,56.739075 
	C4.620502,43.426926 17.087955,31.277662 30.229670,33.692665 
	C36.915489,34.921295 43.653786,35.861526 50.353870,37.016212 
	C55.742798,37.944939 61.101284,39.052387 66.495750,39.944653 
	C67.336304,40.083683 68.296860,39.497211 69.634254,39.401222 
	C71.381752,39.664383 72.696915,39.772552 74.012077,39.880722 
	C73.636047,39.572868 73.260010,39.265018 72.883980,38.957165 
	C73.318520,38.304955 73.753059,37.652744 74.882156,36.963005 
	C76.729454,36.251781 77.882195,35.578083 79.034943,34.904388 
	C79.962265,35.366222 80.889587,35.828056 81.803413,36.906410 
	C82.897591,39.696129 84.005257,41.869324 85.112923,44.042519 
	C83.964088,44.975723 82.815247,45.908928 81.272629,46.518196 
	C78.585762,47.115147 76.292664,48.036030 73.557510,48.972649 
	C70.768639,49.003242 68.421829,49.018097 65.684662,49.022678 
	C63.862019,49.606525 62.429741,50.200645 60.997463,50.794765 
	C59.328327,51.250824 57.659187,51.706886 55.713585,52.851021 
	C55.300694,54.011593 55.045208,54.484001 55.044827,54.956619 
	C55.019264,86.808113 54.994793,118.659668 55.084541,150.510910 
	C55.087837,151.681183 56.226185,152.848251 56.835564,154.016815 
z"/>
<path fill="#F9FAF9" opacity="1.000000" stroke="none" 
	d="
M349.976440,106.007286 
	C350.107208,113.734978 349.033325,121.142906 352.602417,127.912628 
	C354.141602,130.832077 355.985382,133.604156 357.842194,136.340424 
	C363.352936,144.461288 364.663483,156.747665 355.989014,165.209106 
	C352.788605,168.330933 348.130676,170.249054 343.817261,171.857361 
	C339.534363,173.454285 334.876892,174.140396 330.328949,174.896759 
	C327.705414,175.333054 325.095001,175.361481 326.810974,171.050018 
	C327.547913,169.198349 327.439575,166.580063 326.733887,164.673309 
	C325.226227,160.599640 328.042786,160.393372 330.083923,161.192627 
	C335.560211,163.337067 340.339386,161.079773 345.061035,159.320038 
	C349.791840,157.556885 351.774536,151.985718 349.596069,145.419418 
	C348.218475,141.267029 345.235107,137.647369 342.920074,133.700241 
	C335.679047,137.558975 328.712402,139.382309 322.346649,133.882202 
	C319.914368,131.780655 317.549316,128.287170 317.277313,125.238541 
	C316.352570,114.873787 316.393280,104.423851 316.025696,94.007858 
	C315.912842,90.810287 315.672760,87.617218 315.483551,84.291786 
	C319.282104,84.567337 323.063721,84.841660 327.002258,85.127357 
	C327.002258,96.346054 327.018433,107.163918 326.993652,117.981682 
	C326.984772,121.848740 327.553772,125.529076 332.274902,125.914024 
	C335.890808,126.208855 339.008514,122.234680 338.984985,117.780380 
	C338.925720,106.561508 338.713135,95.343338 338.692535,84.124649 
	C338.691284,83.448662 340.071411,82.082504 340.406403,82.198601 
	C344.280975,83.541428 348.077850,85.108360 351.145081,86.319534 
	C350.744049,92.905594 350.360260,99.208145 349.976440,106.007286 
z"/>
<path fill="#FBFBFB" opacity="1.000000" stroke="none" 
	d="
M61.409302,50.883415 
	C62.429741,50.200645 63.862019,49.606525 65.711021,49.410767 
	C67.390022,50.540398 68.587280,51.706417 69.928909,51.907070 
	C72.290771,52.260303 74.740845,52.023766 77.153976,52.034180 
	C76.769867,57.606625 76.120743,63.177074 76.078712,68.752098 
	C76.039360,73.971283 76.643250,79.195328 76.912209,83.573349 
	C82.210678,84.082130 87.442268,83.725296 92.051285,85.250191 
	C97.495010,87.051247 99.937981,92.017258 99.970665,97.839424 
	C100.016502,106.004570 99.988152,114.170135 99.990356,122.335526 
	C99.991631,127.048080 99.990578,131.760635 99.990578,136.781311 
	C96.793877,137.054703 92.762665,137.467468 88.721710,137.617188 
	C88.395020,137.629272 87.661362,135.826157 87.690567,134.884323 
	C88.063980,122.843697 88.671997,110.807686 88.798126,98.766075 
	C88.811096,97.527016 86.283844,95.573715 84.625443,95.141937 
	C80.661293,94.109833 77.817467,97.196281 77.252007,100.123955 
	C76.251839,105.302292 76.660561,110.765625 76.617424,116.110794 
	C76.593773,119.041199 76.917290,121.972771 76.966698,124.905800 
	C77.032219,128.795349 76.982849,132.686813 76.982849,137.153625 
	C73.105003,137.153625 68.320625,137.153625 63.752991,137.153625 
	C64.206406,134.167648 64.941559,131.541870 64.951782,128.913254 
	C65.045151,104.916283 65.025261,80.918816 64.997055,56.921539 
	C64.994148,54.445232 65.549927,51.524620 61.409302,50.883415 
z"/>
<path fill="#FBFBFB" opacity="1.000000" stroke="none" 
	d="
M149.016998,126.713928 
	C144.399277,118.279709 143.166885,109.635071 146.104340,100.954140 
	C150.312134,88.519005 157.310379,81.075119 172.101440,85.175888 
	C175.000610,85.979668 178.038361,88.176155 179.877930,90.593475 
	C189.735825,103.547348 189.522217,121.663040 176.874710,133.445541 
	C169.619019,140.205002 156.460861,137.964630 150.852646,129.415131 
	C150.316605,128.597946 149.635696,127.875809 149.016998,126.713928 
M167.647476,125.033669 
	C168.767883,124.317192 170.141434,123.816734 170.967316,122.848923 
	C176.035019,116.910393 174.257095,109.638168 173.583435,103.101639 
	C173.282532,100.181961 169.101395,96.448296 165.915222,95.389771 
	C162.880112,94.381416 159.690140,97.328415 158.966599,101.259171 
	C158.181961,105.521812 156.737503,109.787071 156.757828,114.045570 
	C156.790665,120.933731 161.551376,125.728172 167.647476,125.033669 
z"/>
<path fill="#FCFCFC" opacity="1.000000" stroke="none" 
	d="
M138.126160,113.012627 
	C137.098999,113.688103 136.597382,114.678947 135.848007,114.929848 
	C129.649643,117.005135 123.405411,118.943443 116.750114,121.058235 
	C122.122261,127.828865 128.608017,124.566078 134.539825,123.998352 
	C135.452728,128.321930 136.314423,132.403076 137.390579,137.499878 
	C130.464615,136.942505 123.700874,137.628708 117.870033,135.614410 
	C110.739372,133.151077 105.800980,127.423218 104.602814,119.228203 
	C103.155304,109.327660 102.491394,99.636246 109.007484,91.032204 
	C115.920952,81.903496 130.357559,81.096336 136.838928,91.539268 
	C138.749298,94.617294 140.548615,97.908211 141.577225,101.347298 
	C142.524704,104.515175 142.368698,108.013092 142.742935,111.814186 
	C141.549347,112.146454 140.043121,112.565750 138.126160,113.012627 
M120.750626,107.813248 
	C124.078575,106.745377 127.406525,105.677513 130.567551,104.663208 
	C129.681366,100.139114 128.049789,95.553421 122.883476,95.220810 
	C118.495880,94.938339 114.967125,102.013115 115.343582,109.074394 
	C116.962425,108.808830 118.555603,108.547470 120.750626,107.813248 
z"/>
<path fill="#07F607" opacity="1.000000" stroke="none" 
	d="
M305.781036,47.028774 
	C305.839813,48.074444 305.898590,49.120117 305.647461,50.718185 
	C301.638153,54.175861 302.794159,58.214809 302.833984,61.993141 
	C302.862152,62.160961 302.890350,62.328777 302.495850,62.756298 
	C300.724701,65.705513 299.376190,68.395020 298.027679,71.084534 
	C297.246826,71.991455 296.466003,72.898376 295.137360,74.058403 
	C294.405609,74.863937 294.221680,75.416367 294.037720,75.968796 
	C293.850067,76.264137 293.662415,76.559471 292.847778,76.940109 
	C291.154724,78.363373 290.088654,79.701324 289.022583,81.039291 
	C289.022583,81.039291 288.999847,80.999603 288.687744,81.032074 
	C287.919952,81.722778 287.464264,82.381020 287.008575,83.039261 
	C287.008575,83.039261 286.925995,83.501671 286.634827,83.970184 
	C285.517273,85.314148 284.690826,86.189590 283.496155,87.036552 
	C281.265930,88.365273 279.119080,89.461884 277.595032,91.128151 
	C272.876434,96.287117 268.394867,101.662903 263.507141,107.010788 
	C262.796265,107.724251 262.399506,108.381439 261.997559,109.015343 
	C261.992310,108.992065 262.040009,108.991325 261.698334,109.121094 
	C260.176544,113.131180 258.346619,116.956818 258.014130,120.908455 
	C257.728516,124.302765 259.153839,127.841026 259.873779,131.421829 
	C259.925018,131.528030 259.932251,131.763718 259.913940,132.139343 
	C259.928650,133.013672 259.961670,133.512405 259.960510,134.298813 
	C258.403229,133.310837 256.551788,132.269760 255.433640,130.704773 
	C253.736633,128.329559 252.548889,125.590454 251.144821,123.005928 
	C251.109619,122.534866 251.074417,122.063805 251.361359,120.936462 
	C251.465118,111.748863 252.653381,103.520988 256.823181,95.905945 
	C257.110657,95.381004 256.949371,94.610367 256.996796,93.953979 
	C256.996796,93.953979 257.008148,94.006836 257.222717,93.921280 
	C257.612396,93.552528 257.787506,93.269318 257.962646,92.986115 
	C263.119568,87.418068 268.231628,81.807312 273.462524,76.309647 
	C274.912262,74.785957 276.714935,73.598091 279.020020,72.094376 
	C281.292877,70.618141 282.800140,69.149391 284.527252,68.015610 
	C292.520508,62.768417 298.020172,55.625130 301.053345,46.587608 
	C302.170380,43.259335 303.120911,39.875179 304.215424,36.293850 
	C304.906006,38.074005 305.478149,39.548889 306.050293,41.023769 
	C306.004089,41.471783 305.957855,41.919796 305.622437,42.903900 
	C305.482513,44.636250 305.631775,45.832512 305.781036,47.028774 
z"/>
<path fill="#FBFBFC" opacity="1.000000" stroke="none" 
	d="
M201.991211,126.902176 
	C201.989136,130.433319 201.989136,133.480072 201.989136,137.245148 
	C198.252518,137.245148 193.745102,137.245148 190.083817,137.245148 
	C189.714386,119.190971 190.677353,101.855194 189.453598,84.488861 
	C192.787445,86.632538 197.908875,82.807495 202.718231,85.723083 
	C203.658585,86.293159 205.868668,84.353043 207.553787,84.187172 
	C212.886169,83.662315 217.970016,84.119415 221.021210,89.518654 
	C221.099884,89.657867 221.356033,89.750771 221.359695,89.870476 
	C221.445114,92.654419 227.820236,90.619751 225.403427,94.723793 
	C224.372253,96.474854 221.402679,97.063072 219.348587,98.240166 
	C217.819031,99.116669 216.345200,100.090385 215.517593,100.604202 
	C213.548340,98.731560 210.831436,95.400040 210.263611,95.733047 
	C207.260696,97.494133 204.512466,99.940346 202.272903,102.643578 
	C201.194672,103.945045 201.088470,106.341797 201.131836,108.229019 
	C201.271164,114.295334 201.685211,120.355347 201.991211,126.902176 
z"/>
<path fill="#F6F8F7" opacity="1.000000" stroke="none" 
	d="
M227.104004,84.820099 
	C231.635757,84.377060 236.091858,84.377060 240.464966,84.377060 
	C240.464966,101.577805 240.464966,118.889206 240.464966,136.600006 
	C236.429337,136.600006 231.924469,136.600006 227.781921,136.600006 
	C230.406235,121.270828 228.410721,105.628494 228.897064,90.070663 
	C228.946503,88.489174 227.682724,86.866631 227.104004,84.820099 
z"/>
<path fill="#06F906" opacity="1.000000" stroke="none" 
	d="
M300.060852,102.884224 
	C300.060852,102.884224 300.535248,103.027283 300.817017,103.459373 
	C302.420654,104.592674 303.742523,105.293892 305.064423,105.995102 
	C305.648102,106.465637 306.231812,106.936165 306.944031,108.006271 
	C307.723358,109.066208 308.374146,109.526581 309.024933,109.986954 
	C309.024933,109.986954 309.000000,110.000793 308.990234,110.362381 
	C309.988373,116.171638 311.509155,121.589119 311.832062,127.077080 
	C312.065033,131.036819 310.704224,135.090317 310.054260,139.101990 
	C309.728882,139.552750 309.403534,140.003494 308.625244,140.730560 
	C307.168060,141.067169 306.163879,141.127457 305.093903,141.191696 
	C305.030243,139.838440 304.985840,138.894669 304.988708,137.538193 
	C305.338440,133.759140 305.640930,130.392776 306.225037,126.801025 
	C304.851593,123.150406 303.527710,119.492752 301.370911,116.419670 
	C300.560516,115.264969 297.816681,115.467186 295.976318,115.025162 
	C295.998322,114.999550 295.966370,115.058716 295.920532,114.705811 
	C294.893433,113.913086 293.912170,113.473274 292.709656,113.001335 
	C292.488403,112.969208 292.043060,113.008713 291.595215,113.000069 
	C279.404144,113.096413 275.898621,116.551811 274.892273,128.508133 
	C274.771729,129.940750 273.187378,131.250198 272.262024,132.560776 
	C272.242523,132.504807 272.237518,132.385635 272.450500,132.052628 
	C271.825104,130.136383 270.986694,128.553146 270.094116,126.530930 
	C270.072845,123.732452 270.105682,121.372948 270.479004,118.930740 
	C272.546082,114.902153 274.272644,110.956276 275.999023,107.004929 
	C275.998840,106.999466 276.011139,106.998634 276.386658,107.015518 
	C280.468018,104.942635 284.173889,102.852867 287.926575,100.736702 
	C289.033051,100.819649 290.542267,100.932793 292.051483,101.045929 
	C292.485718,101.048828 292.919983,101.051720 293.751648,101.445679 
	C296.119659,102.185898 298.090271,102.535065 300.060852,102.884224 
z"/>
<path fill="#11E411" opacity="1.000000" stroke="none" 
	d="
M306.307861,40.906082 
	C305.478149,39.548889 304.906006,38.074005 304.215424,36.293850 
	C303.120911,39.875179 302.170380,43.259335 301.053345,46.587608 
	C298.020172,55.625130 292.520508,62.768417 284.527252,68.015610 
	C282.800140,69.149391 281.292877,70.618141 279.329651,71.963242 
	C279.095978,69.821495 279.306274,67.649796 279.323273,65.476585 
	C279.417786,53.379410 277.232361,41.060520 282.445465,29.455523 
	C283.622101,26.836208 285.673492,24.609844 287.658112,22.458548 
	C287.395203,24.229012 286.842255,25.763603 286.189453,27.254477 
	C283.674591,32.998024 280.783234,38.662601 282.476593,45.515198 
	C283.892120,44.526588 284.966553,43.776215 286.015686,43.430038 
	C285.167328,49.539501 284.273560,55.236359 283.592987,60.958588 
	C283.483734,61.877293 284.104950,63.467117 284.789307,63.739468 
	C285.545654,64.040443 287.126617,63.487225 287.720215,62.779278 
	C291.299225,58.511055 295.786377,54.547447 297.858765,49.598068 
	C300.039764,44.389122 303.342987,38.452217 299.615692,32.562374 
	C294.160248,29.869272 292.329163,35.050415 289.044281,36.692451 
	C290.921417,29.938837 295.709412,28.697165 301.466400,29.642706 
	C302.568939,22.491961 300.792145,19.428061 295.677521,17.703644 
	C292.646240,19.375872 290.296326,20.672207 287.946442,21.968548 
	C289.998566,19.659761 291.645477,16.539152 294.210876,15.258777 
	C297.070709,13.831481 301.843018,17.595253 302.792664,21.644894 
	C304.276611,27.972980 305.329742,34.402088 306.307861,40.906082 
z"/>
<path fill="#18DE16" opacity="1.000000" stroke="none" 
	d="
M272.281525,132.616745 
	C273.187378,131.250198 274.771729,129.940750 274.892273,128.508133 
	C275.898621,116.551811 279.404144,113.096413 291.458038,113.334305 
	C291.524780,114.271545 290.996979,114.908913 291.079559,115.453804 
	C292.324463,123.670326 293.663513,131.872528 294.945374,140.083572 
	C295.235016,141.939178 295.391174,143.815628 295.608765,145.682495 
	C296.544525,146.372299 297.480286,147.062103 298.416046,147.751923 
	C300.591187,144.484924 302.766327,141.217926 304.941467,137.950912 
	C304.985840,138.894669 305.030243,139.838440 305.093903,141.191696 
	C306.163879,141.127457 307.168060,141.067169 308.516510,140.992249 
	C306.180389,146.235519 301.338989,148.874298 295.931671,151.759018 
	C295.006775,152.809723 294.483521,153.415421 293.660522,154.011795 
	C292.960571,153.993469 292.560394,153.984451 292.160217,153.975433 
	C291.034760,153.316849 289.909332,152.658249 288.541016,151.644745 
	C288.513916,150.475555 288.729675,149.661255 289.101471,148.530853 
	C289.805176,147.427765 290.914032,146.559738 290.813873,145.866348 
	C289.792175,138.793167 288.551758,131.751907 287.420288,124.694084 
	C286.903412,121.470047 286.492737,118.228966 286.033905,114.995621 
	C285.315613,114.768402 284.597351,114.541183 283.879059,114.313972 
	C281.388428,117.722832 277.744232,120.812523 276.691040,124.619095 
	C275.286713,129.694855 277.301056,134.790085 282.195984,138.245804 
	C276.991302,139.872513 274.384064,138.274582 272.281525,132.616745 
z"/>
<path fill="#03FC04" opacity="1.000000" stroke="none" 
	d="
M277.042206,166.983887 
	C277.042206,166.983887 277.466248,167.106125 277.802795,167.380814 
	C278.361816,167.903000 278.639130,168.017334 278.971313,167.998520 
	C278.971313,167.998520 279.003754,167.996292 279.065399,168.256592 
	C279.408508,168.678909 279.689972,168.840958 279.971436,169.002991 
	C279.971436,169.002991 280.002106,168.997589 280.041351,169.247910 
	C280.224152,169.799438 280.445709,170.023605 280.745270,170.170700 
	C280.745270,170.170700 280.883270,170.538422 280.897797,171.002289 
	C280.943298,171.643509 280.974304,171.820862 281.005280,171.998199 
	C281.005280,171.998199 281.000000,172.000000 280.610321,172.062195 
	C279.883698,172.454300 279.242523,172.796143 279.254883,173.112396 
	C279.479980,178.868668 278.268982,183.556396 271.428894,184.472794 
	C271.028992,184.526367 270.744812,185.443375 270.406769,185.958588 
	C271.213348,186.349838 272.019958,186.741104 272.826538,187.132355 
	C273.497986,187.553421 274.169403,187.974487 274.657471,188.811310 
	C272.319672,189.143890 270.165253,189.060745 267.836365,188.730499 
	C267.092377,188.325928 266.522827,188.168472 265.953278,188.011017 
	C265.680573,187.820999 265.407867,187.630997 265.070984,186.801453 
	C264.344177,183.992096 263.731567,181.805466 263.009857,179.655472 
	C260.622711,172.544022 265.529541,166.321930 272.983978,166.992538 
	C274.325623,167.113251 275.688904,166.992920 277.042206,166.983887 
z"/>
<path fill="#E8E9E9" opacity="1.000000" stroke="none" 
	d="
M56.919136,153.553680 
	C56.226185,152.848251 55.087837,151.681183 55.084541,150.510910 
	C54.994793,118.659668 55.019264,86.808113 55.044827,54.956619 
	C55.045208,54.484001 55.300694,54.011593 55.751850,53.257759 
	C56.371407,54.477287 56.939541,55.977665 56.942291,57.479073 
	C57.000683,89.349487 56.995495,121.220016 56.919136,153.553680 
z"/>
<path fill="#18DB19" opacity="1.000000" stroke="none" 
	d="
M268.010803,188.977600 
	C270.165253,189.060745 272.319672,189.143890 274.806335,189.083740 
	C286.357422,189.000656 290.779846,186.185638 293.863159,177.176208 
	C294.593750,176.978256 294.770264,176.978409 295.143494,177.237900 
	C296.175812,177.662598 297.011353,177.827972 297.846924,177.993362 
	C297.866638,185.598953 294.626953,189.082565 287.572723,192.089584 
	C280.605835,195.059372 274.577667,193.097412 268.142639,190.139709 
	C267.995697,189.354797 268.003265,189.166199 268.010803,188.977600 
z"/>
<path fill="#F8F8F8" opacity="1.000000" stroke="none" 
	d="
M240.782104,71.557465 
	C241.272186,79.216164 239.769897,80.716881 233.661133,81.115395 
	C229.978500,81.355637 227.918167,79.011353 227.304291,76.807434 
	C226.705704,74.658417 227.810257,71.254623 229.382233,69.475273 
	C231.433868,67.152985 234.675476,65.630966 237.869186,68.378883 
	C238.864105,69.234940 239.719604,70.253036 240.782104,71.557465 
z"/>
<path fill="#22CE27" opacity="1.000000" stroke="none" 
	d="
M251.090057,123.387741 
	C252.548889,125.590454 253.736633,128.329559 255.433640,130.704773 
	C256.551788,132.269760 258.403229,133.310837 260.166077,134.290588 
	C260.405823,133.994659 260.817108,133.987930 260.905151,134.347229 
	C262.126160,136.169678 263.013824,137.957184 264.438477,139.034607 
	C268.560059,142.151688 272.897644,144.983185 276.806946,147.942932 
	C274.966919,148.336395 273.470367,148.713715 271.973846,149.091034 
	C260.891052,144.043579 253.742096,135.743195 251.090057,123.387741 
z"/>
<path fill="#1CDF1A" opacity="1.000000" stroke="none" 
	d="
M291.870789,100.712189 
	C290.542267,100.932793 289.033051,100.819649 287.926575,100.736702 
	C284.173889,102.852867 280.468018,104.942635 276.500183,106.684235 
	C285.140625,102.913536 284.610626,95.512939 283.947906,88.056206 
	C283.918579,87.725945 283.892181,87.395432 283.864410,87.065033 
	C284.690826,86.189590 285.517273,85.314148 286.577301,84.197891 
	C287.619934,88.515572 288.313782,93.099846 289.324097,97.613289 
	C289.558197,98.659149 290.872711,99.463158 291.870789,100.712189 
z"/>
<path fill="#18E918" opacity="1.000000" stroke="none" 
	d="
M297.909454,177.584259 
	C297.011353,177.827972 296.175812,177.662598 295.205933,176.860428 
	C295.324402,174.044235 297.920380,171.465454 294.010071,169.995636 
	C294.032959,168.931458 294.055817,167.867294 294.323242,166.149750 
	C294.365295,161.671280 294.162811,157.846191 293.960297,154.021103 
	C294.483521,153.415421 295.006775,152.809723 295.809875,152.080322 
	C296.733551,157.040192 297.532715,162.110565 297.965393,167.212051 
	C298.245087,170.509552 297.988342,173.852554 297.909454,177.584259 
z"/>
<path fill="#17DF19" opacity="1.000000" stroke="none" 
	d="
M276.862610,166.639801 
	C275.688904,166.992920 274.325623,167.113251 272.983978,166.992538 
	C265.529541,166.321930 260.622711,172.544022 263.009857,179.655472 
	C263.731567,181.805466 264.344177,183.992096 264.997772,186.556015 
	C260.506226,184.114258 258.543060,175.038040 261.359314,170.170227 
	C263.837158,165.887314 271.243073,164.014755 276.862610,166.639801 
z"/>
<path fill="#17E716" opacity="1.000000" stroke="none" 
	d="
M310.384460,138.930603 
	C310.704224,135.090317 312.065033,131.036819 311.832062,127.077080 
	C311.509155,121.589119 309.988373,116.171638 308.996948,110.350082 
	C315.432281,117.934052 314.622375,126.983917 312.830414,136.120453 
	C312.638153,137.100647 311.444061,137.884369 310.384460,138.930603 
z"/>
<path fill="#22D720" opacity="1.000000" stroke="none" 
	d="
M272.909515,186.735001 
	C272.019958,186.741104 271.213348,186.349838 270.406769,185.958588 
	C270.744812,185.443375 271.028992,184.526367 271.428894,184.472794 
	C278.268982,183.556396 279.479980,178.868668 279.254883,173.112396 
	C279.242523,172.796143 279.883698,172.454300 280.610596,172.064697 
	C281.644440,173.296768 282.288330,174.588516 282.680054,175.374329 
	C281.685486,181.346710 278.549347,184.991455 272.909515,186.735001 
z"/>
<path fill="#21E41F" opacity="1.000000" stroke="none" 
	d="
M272.184021,149.407990 
	C273.470367,148.713715 274.966919,148.336395 277.218506,147.965652 
	C281.630859,148.263794 285.288147,148.555389 288.945435,148.846970 
	C288.729675,149.661255 288.513916,150.475555 288.157013,151.579926 
	C282.808655,151.154968 277.601440,150.439957 272.184021,149.407990 
z"/>
<path fill="#36CC38" opacity="1.000000" stroke="none" 
	d="
M256.661469,94.080193 
	C256.949371,94.610367 257.110657,95.381004 256.823181,95.905945 
	C252.653381,103.520988 251.465118,111.748863 251.428833,120.587799 
	C249.102875,111.267731 250.914612,102.389618 256.661469,94.080193 
z"/>
<path fill="#D3D4D2" opacity="1.000000" stroke="none" 
	d="
M77.462273,51.915627 
	C74.740845,52.023766 72.290771,52.260303 69.928909,51.907070 
	C68.587280,51.706417 67.390022,50.540398 66.101387,49.421040 
	C68.421829,49.018097 70.768639,49.003242 73.912384,49.006153 
	C75.184044,49.038311 75.658768,49.052704 76.133484,49.067097 
	C76.679184,49.977089 77.224876,50.887081 77.462273,51.915627 
z"/>
<path fill="#10CB16" opacity="1.000000" stroke="none" 
	d="
M293.660522,154.011795 
	C294.162811,157.846191 294.365295,161.671280 294.275970,165.752838 
	C293.330719,162.291641 292.677277,158.573975 292.092010,154.415863 
	C292.560394,153.984451 292.960571,153.993469 293.660522,154.011795 
z"/>
<path fill="#11E411" opacity="1.000000" stroke="none" 
	d="
M303.018555,61.659554 
	C302.794159,58.214809 301.638153,54.175861 305.677612,51.110649 
	C305.079468,54.409134 304.141296,57.867550 303.018555,61.659554 
z"/>
<path fill="#FBFBFB" opacity="1.000000" stroke="none" 
	d="
M85.435257,43.918137 
	C84.005257,41.869324 82.897591,39.696129 81.919907,37.206146 
	C83.888481,38.099510 85.727074,39.309669 88.059532,40.844891 
	C87.373291,41.723976 86.565437,42.758865 85.435257,43.918137 
z"/>
<path fill="#10CB16" opacity="1.000000" stroke="none" 
	d="
M293.673584,170.177200 
	C297.920380,171.465454 295.324402,174.044235 295.009186,176.601105 
	C294.770264,176.978409 294.593750,176.978256 294.152649,176.967407 
	C293.704407,174.757401 293.520752,172.558090 293.673584,170.177200 
z"/>
<path fill="#11E411" opacity="1.000000" stroke="none" 
	d="
M298.347168,70.942673 
	C299.376190,68.395020 300.724701,65.705513 302.434692,63.004120 
	C301.419678,65.595093 300.043152,68.197952 298.347168,70.942673 
z"/>
<path fill="#FBFBFB" opacity="1.000000" stroke="none" 
	d="
M76.443741,48.907742 
	C75.658768,49.052704 75.184044,49.038311 74.354446,48.990417 
	C76.292664,48.036030 78.585762,47.115147 80.939980,46.511337 
	C79.585403,47.468403 78.169701,48.108395 76.443741,48.907742 
z"/>
<path fill="#FBFBFB" opacity="1.000000" stroke="none" 
	d="
M78.861832,34.556595 
	C77.882195,35.578083 76.729454,36.251781 75.229538,36.940742 
	C74.533020,33.798286 76.331734,33.616787 78.861832,34.556595 
z"/>
<path fill="#1CDF1A" opacity="1.000000" stroke="none" 
	d="
M289.324890,80.930618 
	C290.088654,79.701324 291.154724,78.363373 292.594788,77.031219 
	C291.854919,78.298668 290.741058,79.560310 289.324890,80.930618 
z"/>
<path fill="#17E716" opacity="1.000000" stroke="none" 
	d="
M299.867920,102.567444 
	C298.090271,102.535065 296.119659,102.185898 294.072510,101.501389 
	C295.888977,101.527588 297.781982,101.889130 299.867920,102.567444 
z"/>
<path fill="#FBFBFB" opacity="1.000000" stroke="none" 
	d="
M72.583305,38.976089 
	C73.260010,39.265018 73.636047,39.572868 74.012077,39.880722 
	C72.696915,39.772552 71.381752,39.664383 70.012733,39.217896 
	C70.733459,38.918049 71.508049,38.956532 72.583305,38.976089 
z"/>
<path fill="#17E716" opacity="1.000000" stroke="none" 
	d="
M304.934631,105.684967 
	C303.742523,105.293892 302.420654,104.592674 301.048584,103.547470 
	C302.267212,103.927254 303.536011,104.651031 304.934631,105.684967 
z"/>
<path fill="#11E411" opacity="1.000000" stroke="none" 
	d="
M305.861267,46.633423 
	C305.631775,45.832512 305.482513,44.636250 305.556213,43.235397 
	C305.833252,44.099895 305.887390,45.168983 305.861267,46.633423 
z"/>
<path fill="#17DF19" opacity="1.000000" stroke="none" 
	d="
M267.836365,188.730499 
	C268.003265,189.166199 267.995697,189.354797 267.974182,189.826218 
	C267.342834,189.606003 266.725403,189.102982 266.030640,188.305481 
	C266.522827,188.168472 267.092377,188.325928 267.836365,188.730499 
z"/>
<path fill="#1CDF1A" opacity="1.000000" stroke="none" 
	d="
M287.290833,82.941261 
	C287.464264,82.381020 287.919952,81.722778 288.707886,81.042862 
	C288.551117,81.628548 288.062073,82.235909 287.290833,82.941261 
z"/>
<path fill="#17E716" opacity="1.000000" stroke="none" 
	d="
M308.926544,109.704597 
	C308.374146,109.526581 307.723358,109.066208 307.042542,108.274994 
	C307.617706,108.436852 308.222931,108.929543 308.926544,109.704597 
z"/>
<path fill="#1CDF1A" opacity="1.000000" stroke="none" 
	d="
M294.319000,75.861282 
	C294.221680,75.416367 294.405609,74.863937 294.859863,74.178162 
	C294.953522,74.614471 294.776886,75.184113 294.319000,75.861282 
z"/>
<path fill="#22D720" opacity="1.000000" stroke="none" 
	d="
M278.899719,167.744598 
	C278.639130,168.017334 278.361816,167.903000 278.007355,167.463531 
	C278.192963,167.344589 278.510559,167.417648 278.899719,167.744598 
z"/>
<path fill="#22D720" opacity="1.000000" stroke="none" 
	d="
M279.915527,168.754074 
	C279.689972,168.840958 279.408508,168.678909 279.064972,168.272827 
	C279.288483,168.187576 279.574036,168.346359 279.915527,168.754074 
z"/>
<path fill="#22D720" opacity="1.000000" stroke="none" 
	d="
M280.791321,169.898438 
	C280.445709,170.023605 280.224152,169.799438 280.038452,169.263184 
	C280.276642,169.227478 280.557007,169.426819 280.791321,169.898438 
z"/>
<path fill="#22D720" opacity="1.000000" stroke="none" 
	d="
M281.241028,171.931137 
	C280.974304,171.820862 280.943298,171.643509 280.930603,171.195923 
	C281.124847,171.238480 281.300842,171.551270 281.241028,171.931137 
z"/>
<path fill="#36CC38" opacity="1.000000" stroke="none" 
	d="
M257.704437,93.047455 
	C257.787506,93.269318 257.612396,93.552528 257.195679,93.922104 
	C257.118164,93.708580 257.282196,93.408691 257.704437,93.047455 
z"/>
<path fill="#000000" opacity="1.000000" stroke="none" 
	d="
M167.323303,125.262589 
	C161.551376,125.728172 156.790665,120.933731 156.757828,114.045570 
	C156.737503,109.787071 158.181961,105.521812 158.966599,101.259171 
	C159.690140,97.328415 162.880112,94.381416 165.915222,95.389771 
	C169.101395,96.448296 173.282532,100.181961 173.583435,103.101639 
	C174.257095,109.638168 176.035019,116.910393 170.967316,122.848923 
	C170.141434,123.816734 168.767883,124.317192 167.323303,125.262589 
z"/>
<path fill="#000000" opacity="1.000000" stroke="none" 
	d="
M120.449707,108.049675 
	C118.555603,108.547470 116.962425,108.808830 115.343582,109.074394 
	C114.967125,102.013115 118.495880,94.938339 122.883476,95.220810 
	C128.049789,95.553421 129.681366,100.139114 130.567551,104.663208 
	C127.406525,105.677513 124.078575,106.745377 120.449707,108.049675 
z"/>
<path fill="#000000" opacity="1.000000" stroke="none" 
	d="
M289.101471,148.530853 
	C285.288147,148.555389 281.630859,148.263794 277.562012,147.949493 
	C272.897644,144.983185 268.560059,142.151688 264.438477,139.034607 
	C263.013824,137.957184 262.126160,136.169678 260.962799,134.018524 
	C260.598999,132.808243 260.265625,132.285980 259.932251,131.763718 
	C259.932251,131.763718 259.925018,131.528030 259.931244,130.970734 
	C259.618591,128.502335 258.810699,126.520920 259.073456,124.693466 
	C259.830933,119.426147 261.020264,114.220932 262.039978,108.991325 
	C262.040009,108.991325 261.992310,108.992065 262.287354,108.927101 
	C262.995361,108.226265 263.408325,107.590393 263.821289,106.954521 
	C268.394867,101.662903 272.876434,96.287117 277.595032,91.128151 
	C279.119080,89.461884 281.265930,88.365273 283.496155,87.036552 
	C283.892181,87.395432 283.918579,87.725945 283.947906,88.056206 
	C284.610626,95.512939 285.140625,102.913536 276.124695,106.667343 
	C276.011139,106.998634 275.998840,106.999466 275.671204,107.117111 
	C273.608551,111.160980 271.873535,115.087212 270.138519,119.013451 
	C270.105682,121.372948 270.072845,123.732452 270.017792,126.890175 
	C270.742920,129.254150 271.490234,130.819885 272.237518,132.385635 
	C272.237518,132.385635 272.242523,132.504807 272.262024,132.560776 
	C274.384064,138.274582 276.991302,139.872513 282.195984,138.245804 
	C277.301056,134.790085 275.286713,129.694855 276.691040,124.619095 
	C277.744232,120.812523 281.388428,117.722832 283.879059,114.313972 
	C284.597351,114.541183 285.315613,114.768402 286.033905,114.995621 
	C286.492737,118.228966 286.903412,121.470047 287.420288,124.694084 
	C288.551758,131.751907 289.792175,138.793167 290.813873,145.866348 
	C290.914032,146.559738 289.805176,147.427765 289.101471,148.530853 
z"/>
<path fill="#3DD83B" opacity="1.000000" stroke="none" 
	d="
M261.698303,109.121094 
	C261.020264,114.220932 259.830933,119.426147 259.073456,124.693466 
	C258.810699,126.520920 259.618591,128.502335 259.880005,130.864532 
	C259.153839,127.841026 257.728516,124.302765 258.014130,120.908455 
	C258.346619,116.956818 260.176544,113.131180 261.698303,109.121094 
z"/>
<path fill="#3DD83B" opacity="1.000000" stroke="none" 
	d="
M263.507141,107.010788 
	C263.408325,107.590393 262.995361,108.226265 262.292603,108.950378 
	C262.399506,108.381439 262.796265,107.724251 263.507141,107.010788 
z"/>
<path fill="#3DD83B" opacity="1.000000" stroke="none" 
	d="
M259.913940,132.139343 
	C260.265625,132.285980 260.598999,132.808243 260.874756,133.659210 
	C260.817108,133.987930 260.405823,133.994659 260.200256,134.002899 
	C259.961670,133.512405 259.928650,133.013672 259.913940,132.139343 
z"/>
<path fill="#000000" opacity="1.000000" stroke="none" 
	d="
M304.988708,137.538208 
	C302.766327,141.217926 300.591187,144.484924 298.416046,147.751923 
	C297.480286,147.062103 296.544525,146.372299 295.608765,145.682495 
	C295.391174,143.815628 295.235016,141.939178 294.945374,140.083572 
	C293.663513,131.872528 292.324463,123.670326 291.079559,115.453804 
	C290.996979,114.908913 291.524780,114.271545 291.905884,113.342957 
	C292.043060,113.008713 292.488403,112.969208 292.829651,113.307114 
	C294.102753,114.116249 295.034546,114.587486 295.966370,115.058716 
	C295.966370,115.058716 295.998322,114.999550 296.143372,115.326538 
	C301.695038,117.586769 303.449219,122.620728 305.943420,127.026428 
	C305.640930,130.392776 305.338440,133.759140 304.988708,137.538208 
z"/>
<path fill="#18DE16" opacity="1.000000" stroke="none" 
	d="
M306.225037,126.801025 
	C303.449219,122.620728 301.695038,117.586769 296.121399,115.352158 
	C297.816681,115.467186 300.560516,115.264969 301.370911,116.419670 
	C303.527710,119.492752 304.851593,123.150406 306.225037,126.801025 
z"/>
<path fill="#1CDF1A" opacity="1.000000" stroke="none" 
	d="
M270.479004,118.930740 
	C271.873535,115.087212 273.608551,111.160980 275.671387,107.122574 
	C274.272644,110.956276 272.546082,114.902153 270.479004,118.930740 
z"/>
<path fill="#18DE16" opacity="1.000000" stroke="none" 
	d="
M272.450500,132.052628 
	C271.490234,130.819885 270.742920,129.254150 270.071960,127.329147 
	C270.986694,128.553146 271.825104,130.136383 272.450500,132.052628 
z"/>
<path fill="#18DE16" opacity="1.000000" stroke="none" 
	d="
M295.920532,114.705811 
	C295.034546,114.587486 294.102753,114.116249 293.050903,113.339241 
	C293.912170,113.473274 294.893433,113.913086 295.920532,114.705811 
z"/>
<path fill="#000000" opacity="1.000000" stroke="none" 
	d="
M289.057800,37.066154 
	C292.329163,35.050415 294.160248,29.869272 299.615692,32.562374 
	C303.342987,38.452217 300.039764,44.389122 297.858765,49.598068 
	C295.786377,54.547447 291.299225,58.511055 287.720215,62.779278 
	C287.126617,63.487225 285.545654,64.040443 284.789307,63.739468 
	C284.104950,63.467117 283.483734,61.877293 283.592987,60.958588 
	C284.273560,55.236359 285.167328,49.539501 286.000305,43.425312 
	C286.010162,43.016388 286.030945,43.035545 286.335205,42.889114 
	C287.116058,41.509541 287.592590,40.276394 288.039978,39.019512 
	C288.010834,38.995777 288.046753,39.061707 288.335999,38.940742 
	C288.778351,38.223389 288.931427,37.626995 289.059540,37.025322 
	C289.034546,37.020039 289.057800,37.066154 289.057800,37.066154 
z"/>
<path fill="#02FD03" opacity="1.000000" stroke="none" 
	d="
M287.972900,21.984140 
	C290.296326,20.672207 292.646240,19.375872 295.677521,17.703644 
	C300.792145,19.428061 302.568939,22.491961 301.466400,29.642706 
	C295.709412,28.697165 290.921417,29.938837 289.044281,36.692451 
	C289.057800,37.066154 289.034546,37.020039 288.789093,37.175804 
	C288.378021,37.908279 288.212402,38.484993 288.046753,39.061707 
	C288.046753,39.061707 288.010834,38.995777 287.672485,39.062763 
	C286.899780,40.431683 286.465363,41.733616 286.030945,43.035545 
	C286.030945,43.035545 286.010162,43.016388 286.025574,43.021114 
	C284.966553,43.776215 283.892120,44.526588 282.476593,45.515198 
	C280.783234,38.662601 283.674591,32.998024 286.189453,27.254477 
	C286.842255,25.763603 287.395203,24.229012 287.981323,22.330521 
	C287.968628,21.946539 287.999390,21.999739 287.972900,21.984140 
z"/>
<path fill="#11E411" opacity="1.000000" stroke="none" 
	d="
M286.335205,42.889118 
	C286.465363,41.733616 286.899780,40.431683 287.701660,39.086498 
	C287.592590,40.276394 287.116058,41.509541 286.335205,42.889118 
z"/>
<path fill="#11E411" opacity="1.000000" stroke="none" 
	d="
M288.335999,38.940742 
	C288.212402,38.484993 288.378021,37.908279 288.814087,37.181084 
	C288.931427,37.626995 288.778351,38.223389 288.335999,38.940742 
z"/>
</svg>