<svg version="1.1" id="Layer_1" xmlns="http://www.w3.org/2000/svg" xmlns:xlink="http://www.w3.org/1999/xlink" x="0px" y="0px"
	 width="100%" viewBox="0 0 272 272" enable-background="new 0 0 272 272" xml:space="preserve">
<path fill="#000000" opacity="1.000000" stroke="none" 
	d="
M182.979782,255.014008 
	C170.024506,241.038895 165.703140,224.974625 169.736938,206.788361 
	C170.492630,203.381317 169.781128,201.232773 167.357193,198.937851 
	C161.004898,192.923767 154.855774,186.695068 147.983124,179.918274 
	C146.907562,186.891525 142.967438,190.865784 138.933975,194.880600 
	C115.551071,218.155273 92.243301,241.505417 68.904190,264.824127 
	C59.715366,274.004883 51.221947,273.993683 42.052811,264.813751 
	C33.810215,256.561371 25.528309,248.347839 17.333448,240.048340 
	C8.484281,231.086227 8.546998,222.329849 17.347189,213.526825 
	C39.962296,190.904449 62.563675,168.268356 85.160561,145.627777 
	C89.845428,140.933853 94.150887,135.742676 102.364731,134.196991 
	C94.653709,126.486031 87.822243,119.531120 80.828056,112.743881 
	C78.989021,110.959251 76.702667,112.416748 74.663895,112.881523 
	C42.265152,120.267342 11.039169,94.789688 11.762811,61.511932 
	C11.864645,56.828888 12.715420,52.224579 14.139789,47.782578 
	C15.719353,42.856590 19.486464,41.841034 23.312252,45.417702 
	C29.517672,51.219048 35.483524,57.275944 41.585815,63.188519 
	C46.780285,68.221489 51.052464,68.226448 56.327057,63.182404 
	C59.095959,60.534527 61.808346,57.822208 64.447357,55.045025 
	C69.110542,50.137684 69.173767,45.491203 64.435349,40.566994 
	C58.890659,34.804882 53.122814,29.258224 47.519588,23.551514 
	C42.309189,18.244886 43.278828,14.729342 50.439007,12.611810 
	C78.551880,4.297788 109.716957,24.391708 114.376320,53.610928 
	C115.528641,60.837250 115.354523,67.859886 113.537292,74.867058 
	C112.853935,77.502060 113.071709,79.461143 115.208008,81.546989 
	C125.221680,91.324135 135.109818,101.232651 144.899277,111.234703 
	C147.439163,113.829750 149.194885,113.969162 151.843750,111.300652 
	C171.094162,91.907433 190.416473,72.584480 209.865448,53.390671 
	C212.826508,50.468464 212.861145,47.367661 212.349472,43.806091 
	C210.986145,34.316853 211.015335,34.208134 219.229660,29.586697 
	C229.246857,23.950960 239.384674,18.524878 249.313034,12.738258 
	C253.652344,10.209149 256.965057,10.552523 260.285828,14.338242 
	C263.136566,17.588116 266.373230,20.498077 269.414764,23.582455 
	C271.707245,25.907204 271.933167,28.498018 270.359802,31.328646 
	C263.886383,42.974998 257.402222,54.615517 250.986023,66.293373 
	C249.360977,69.251060 247.093185,70.673080 243.676392,70.350716 
	C241.027084,70.100769 238.304871,70.334305 235.713638,69.838150 
	C233.049484,69.328049 231.291199,70.251419 229.520874,72.029251 
	C209.886307,91.747200 190.239166,111.452835 170.515350,131.081360 
	C168.349823,133.236404 168.368927,134.688644 170.517548,136.810593 
	C180.712830,146.879471 190.882431,156.978561 200.842392,167.278458 
	C203.202393,169.719025 205.418991,169.205566 208.044983,168.624069 
	C230.718872,163.603027 252.817596,172.989426 264.479126,193.017426 
	C271.566254,205.189209 273.423767,218.305771 269.574738,232.018127 
	C267.602142,239.045746 264.154449,240.040527 259.044159,235.037689 
	C253.448380,229.559570 248.004013,223.926636 242.399094,218.458099 
	C236.683853,212.881927 232.161041,212.922531 226.413696,218.464127 
	C224.015106,220.776871 221.653610,223.130859 219.341492,225.529953 
	C213.858688,231.219009 213.886414,235.766296 219.519791,241.503738 
	C224.772766,246.853806 230.146866,252.084869 235.405533,257.429443 
	C237.345840,259.401459 239.971054,261.229126 238.781891,264.610901 
	C237.686859,267.725037 234.761993,268.490051 231.990143,269.033295 
	C213.434830,272.669861 196.965866,268.769470 182.979782,255.014008 
M27.677513,217.183640 
	C26.732321,218.123978 25.777559,219.054901 24.843493,220.006165 
	C19.036343,225.920273 19.046434,227.628876 24.912998,233.543793 
	C32.775410,241.471024 40.602859,249.433365 48.513027,257.312683 
	C54.394230,263.170959 56.401470,263.177979 62.135799,257.446808 
	C86.063965,233.531784 109.976234,209.600830 133.874420,185.655838 
	C139.187134,180.332718 139.160202,178.290817 133.707855,172.784714 
	C125.851730,164.851089 117.948135,156.964340 110.045464,149.076950 
	C103.846901,142.890366 101.974861,142.909805 95.712723,149.168747 
	C73.199150,171.670792 50.689823,194.177094 27.677513,217.183640 
M219.271683,211.752075 
	C229.511917,201.930313 239.803864,202.017151 249.847870,212.012405 
	C253.311127,215.458847 256.770111,218.909576 260.449646,222.576172 
	C262.234924,219.580933 261.763916,217.188751 261.552094,214.971924 
	C259.037720,188.658554 232.731033,171.066483 207.436584,179.041962 
	C202.373260,180.638428 199.054184,179.756897 195.504272,176.056183 
	C187.091309,167.285797 178.390228,158.790222 169.741745,150.248215 
	C166.808472,147.351044 164.200241,144.076965 160.549377,141.657883 
	C156.528732,144.977997 152.048996,147.429825 155.024948,154.164322 
	C156.524551,157.557892 155.558380,161.875793 153.080383,165.086899 
	C151.063263,167.700790 151.760956,169.359467 153.876129,171.423462 
	C161.621460,178.981461 169.059097,186.861755 176.951447,194.259171 
	C180.886154,197.947144 181.640686,201.400177 180.016678,206.608978 
	C173.063828,228.909470 185.489609,251.968277 207.848602,258.810272 
	C212.701904,260.295410 217.705688,261.426849 223.425934,260.053436 
	C220.059555,255.276535 215.924667,251.934097 212.267242,248.167465 
	C203.190872,238.819977 203.217361,227.924454 212.409134,218.609711 
	C214.514328,216.476379 216.647919,214.371094 219.271683,211.752075 
M71.708443,33.850693 
	C80.072922,43.273834 79.820595,53.734287 70.997414,62.730328 
	C69.131889,64.632393 67.225204,66.494087 65.338715,68.375618 
	C53.785366,79.898575 43.915443,79.793022 32.228176,68.191086 
	C29.151058,65.136436 26.500484,61.541771 22.182009,58.980110 
	C21.956694,61.037285 21.593754,62.506752 21.667091,63.954117 
	C23.091990,92.076118 50.792698,111.259216 76.912094,101.959023 
	C80.926437,100.529655 83.851746,101.220528 86.768990,104.200195 
	C94.573074,112.171265 102.602257,119.922188 110.392197,127.906738 
	C112.719086,130.291763 114.676537,131.059341 117.672867,128.996185 
	C120.781609,126.855614 124.726372,125.569099 128.131485,127.143623 
	C134.662827,130.163742 137.432663,126.156830 140.455719,122.064926 
	C139.920013,119.852631 138.304932,118.816467 137.040665,117.545227 
	C126.707146,107.154785 116.416138,96.720016 105.942345,86.472336 
	C102.616501,83.218285 101.141144,80.104355 103.128090,75.445778 
	C104.954880,71.162682 105.657745,66.415207 105.505600,61.769581 
	C104.873596,42.472347 91.659775,26.243473 72.892899,21.869417 
	C68.878212,20.933704 64.578880,19.546953 59.063713,22.122292 
	C63.449989,26.176485 67.325287,29.758390 71.708443,33.850693 
M170.252243,106.752121 
	C161.895142,115.115753 153.505783,123.447510 145.194534,131.856476 
	C141.027039,136.072968 141.260071,137.315231 146.704926,140.485321 
	C148.303284,138.964539 150.011032,137.406342 151.645386,135.774612 
	C174.978180,112.479240 198.455353,89.324760 221.501968,65.749435 
	C226.372101,60.767563 231.292679,58.642673 237.837814,60.090885 
	C241.307373,60.858578 243.404099,59.820335 245.086731,56.626945 
	C249.353683,48.528934 253.803391,40.520416 258.425903,32.619995 
	C260.215424,29.561512 259.634674,27.518238 257.253418,25.200230 
	C254.984299,22.991379 253.057007,21.892632 249.889160,23.772783 
	C242.734116,28.019388 235.549744,32.282532 228.057678,35.871834 
	C223.197678,38.200157 221.349533,41.334465 222.297821,46.433754 
	C223.380814,52.257584 220.896011,56.343204 216.736038,60.391891 
	C201.223694,75.489159 186.056320,90.940872 170.252243,106.752121 
M136.234741,161.266754 
	C137.933441,162.859833 139.571533,164.937668 142.037613,162.402618 
	C144.101013,160.281509 147.188202,157.837799 144.808502,154.821518 
	C139.887161,148.583679 134.247086,142.866425 127.947868,138.009430 
	C124.589523,135.419998 121.678528,138.107056 119.412987,140.677460 
	C116.943184,143.479599 119.906334,144.826080 121.336517,146.312210 
	C126.052414,151.212570 130.922806,155.964218 136.234741,161.266754 
z"/>
</svg>