<svg version="1.1" id="Layer_1" xmlns="http://www.w3.org/2000/svg" xmlns:xlink="http://www.w3.org/1999/xlink" x="0px" y="0px"
	 width="100%" viewBox="0 0 736 896" enable-background="new 0 0 736 896" xml:space="preserve">
<path fill="#000000" opacity="1.000000" stroke="none" 
	d="
M122.035370,729.031616 
	C109.565315,741.739807 97.356812,754.206238 85.362755,766.453735 
	C80.951660,764.294434 78.872185,761.383484 76.444389,758.937805 
	C68.347740,750.781677 60.473579,742.403992 52.343899,734.281616 
	C48.898071,730.838928 48.463066,728.439453 52.331635,724.564026 
	C91.407898,685.418884 130.196075,645.986450 169.208527,606.777283 
	C232.654663,543.011292 296.172638,479.316620 359.728912,415.660309 
	C401.869537,373.453339 444.101929,331.337830 486.343658,289.231964 
	C539.784058,235.963470 593.274597,182.745346 646.746643,129.508652 
	C652.143005,124.136078 652.199768,124.098343 657.727478,129.511017 
	C667.130859,138.718796 676.360046,148.107742 685.895935,157.175003 
	C689.030212,160.155228 689.186157,161.973694 685.998169,165.139542 
	C654.196716,196.720184 622.536682,228.443329 590.864807,260.154297 
	C549.540588,301.529449 508.268066,342.956238 466.924164,384.311707 
	C431.238617,420.007172 395.466248,455.615814 359.764282,491.294830 
	C282.228088,568.781006 204.712051,646.287415 127.190689,723.788452 
	C125.541252,725.437378 123.927368,727.121948 122.035370,729.031616 
z"/>
<path fill="#000000" opacity="1.000000" stroke="none" 
	d="
M222.064117,677.916016 
	C246.624710,694.585022 272.997314,706.236267 301.750732,712.098694 
	C309.541626,713.687134 317.607056,714.248474 325.575958,714.586487 
	C353.549225,715.772827 381.552826,716.188843 409.512299,714.580933 
	C462.416290,711.538330 506.575348,689.196228 543.415405,651.934448 
	C568.019775,627.048523 584.227783,596.950562 594.585571,563.706543 
	C599.564209,547.727295 601.244263,531.110596 601.636108,514.446838 
	C602.062988,496.288971 602.002136,478.116119 601.888611,459.951416 
	C601.858948,455.204407 603.348022,453.597626 608.226318,453.698425 
	C622.219788,453.987579 636.225769,453.894073 650.222534,453.676910 
	C654.594177,453.609070 656.529724,454.684875 656.361450,459.520721 
	C655.365479,488.141235 656.341675,516.856445 653.264832,545.369629 
	C651.037781,566.007019 644.826477,585.798889 636.905396,604.909302 
	C610.360046,668.952515 565.627625,715.920227 502.928314,745.482788 
	C472.801788,759.687317 440.909668,767.474365 407.615997,769.358948 
	C406.455292,769.424622 405.302307,769.633850 404.146942,769.785278 
	C394.043182,771.109375 394.046844,771.110046 394.051239,781.155884 
	C394.056213,792.488953 394.148773,803.823303 394.003876,815.154480 
	C393.952576,819.164856 395.376648,820.818726 399.521027,820.840210 
	C406.843506,820.878113 414.184113,821.879761 421.480408,821.581116 
	C437.543243,820.923645 451.752838,840.936584 444.247742,857.573303 
	C440.007538,866.972656 433.329315,872.941223 422.117645,873.422485 
	C387.965729,874.888428 353.807556,874.055420 319.653534,874.288513 
	C316.495941,874.310059 313.370361,874.134216 310.214325,873.578064 
	C296.841705,871.221436 287.397614,859.533813 288.224823,846.370483 
	C289.100494,832.435974 300.827026,821.242798 313.412048,821.507568 
	C320.519989,821.657043 327.702362,820.742554 334.866150,820.748291 
	C338.407745,820.751099 339.997406,819.215149 339.980164,815.616333 
	C339.914734,801.950439 339.914795,788.283752 340.003113,774.618103 
	C340.026398,771.016663 338.133606,770.275513 334.998016,770.049683 
	C314.232025,768.553650 293.657867,765.923462 273.502930,760.351013 
	C239.976135,751.081543 209.835876,735.135986 181.803284,714.838440 
	C178.317535,712.314453 178.456650,710.111389 181.020554,707.085938 
	C190.626053,695.750977 201.378525,685.536194 211.904144,675.095764 
	C213.628143,673.385742 215.283524,673.237671 217.214981,674.633789 
	C218.699387,675.706726 220.245148,676.694824 222.064117,677.916016 
z"/>
<path fill="#000000" opacity="1.000000" stroke="none" 
	d="
M194.836151,154.962326 
	C217.717316,97.316742 258.040314,58.229740 317.605621,42.043064 
	C388.994202,22.643457 450.793274,41.568260 501.853363,94.916344 
	C519.331726,113.177849 532.269165,134.445526 540.343384,158.548752 
	C541.329529,161.492477 541.656128,163.896378 539.214722,166.280487 
	C526.341125,178.851837 513.531311,191.488434 500.686127,204.088913 
	C499.989594,204.772202 499.278961,205.547272 497.717957,205.304825 
	C495.198761,202.414703 495.549591,198.370667 494.728882,194.768707 
	C482.358551,140.475372 449.751190,104.693016 395.475433,92.003639 
	C349.164764,81.176460 308.292725,94.175201 274.350891,128.090134 
	C257.259766,145.167694 246.266861,165.536270 240.031570,188.643784 
	C237.397949,198.403824 238.207016,208.487503 238.007996,218.444458 
	C236.575958,290.089355 237.455292,361.747284 236.880096,433.397339 
	C236.794510,444.057739 236.459030,454.716064 236.350357,465.376465 
	C236.325104,467.854614 235.734848,469.882751 233.917618,471.649139 
	C219.939453,485.236359 206.011673,498.875427 192.031311,512.460388 
	C190.886810,513.572510 189.792343,515.379456 187.922516,514.812317 
	C185.839874,514.180664 185.764206,511.994507 185.618179,510.220795 
	C184.949234,502.096008 184.037643,493.970001 183.853287,485.829895 
	C182.060791,406.686523 182.579102,327.531311 183.250214,248.383057 
	C183.395462,231.254517 182.821457,214.053696 184.702881,196.956238 
	C186.275879,182.661575 189.760727,168.817703 194.836151,154.962326 
z"/>
<path fill="#000000" opacity="1.000000" stroke="none" 
	d="
M496.776733,432.999237 
	C497.080444,419.179291 497.400513,405.859772 497.655701,392.538971 
	C497.692749,390.604797 498.162628,389.000946 499.565460,387.596283 
	C515.456421,371.684845 531.318970,355.744995 547.198853,339.822418 
	C547.769043,339.250702 548.347412,338.567719 550.029053,339.099518 
	C550.379517,343.016479 551.079224,347.231537 551.082886,351.447144 
	C551.113281,386.270325 551.445984,421.101929 550.772583,455.913300 
	C550.437927,473.211548 551.117004,490.564545 549.317627,507.830475 
	C547.818909,522.211182 543.485352,535.872253 537.936584,549.067688 
	C517.601318,597.427063 483.794800,632.836121 434.612762,651.839966 
	C380.717163,672.665100 327.973236,668.740356 277.284271,640.625854 
	C272.198822,637.805237 267.373260,634.513062 262.452850,631.399048 
	C259.940460,629.809021 259.660065,627.942993 261.814789,625.729980 
	C272.621155,614.631165 283.415497,603.520508 294.174683,592.375977 
	C296.515717,589.951111 298.632202,591.153137 300.887482,592.438843 
	C314.730835,600.330200 329.299744,606.151428 345.111816,608.894409 
	C368.506805,612.952759 391.202972,610.522888 413.258942,602.097656 
	C451.213287,587.599182 476.366180,560.499634 490.667236,522.822998 
	C493.961334,514.144653 495.174988,505.111481 495.694824,495.950867 
	C496.875275,475.149658 496.725769,454.321991 496.776733,432.999237 
z"/>
<path fill="#000000" opacity="1.000000" stroke="none" 
	d="
M78.622284,454.656067 
	C81.399864,453.426941 83.924408,453.862335 86.400650,453.850952 
	C99.555649,453.790436 112.712563,453.904846 125.865204,453.712402 
	C129.942902,453.652740 131.399048,455.012695 131.409210,459.175079 
	C131.436813,470.488525 132.192856,481.803955 132.086578,493.113220 
	C131.869888,516.168518 133.894485,538.944885 139.587753,561.318848 
	C140.254150,563.937683 139.850494,565.736511 137.967712,567.556091 
	C126.595406,578.546692 115.363144,589.683777 103.897217,600.575134 
	C98.982605,605.243469 97.648575,604.836121 95.367805,598.528076 
	C85.815063,572.107361 79.148735,545.116028 78.880089,516.789795 
	C78.704857,498.312714 78.096588,479.839874 77.727516,461.364258 
	C77.684814,459.226685 77.307480,457.028687 78.622284,454.656067 
z"/>
</svg>