<svg version="1.1" id="Layer_1" xmlns="http://www.w3.org/2000/svg" xmlns:xlink="http://www.w3.org/1999/xlink" x="0px" y="0px"
	 width="100%" viewBox="0 0 400 400" enable-background="new 0 0 400 400" xml:space="preserve">
<path fill="#000000" opacity="1.000000" stroke="none" 
	d="
M140.000000,401.000000 
	C93.694870,401.000000 47.389744,401.000000 1.042308,401.000000 
	C1.042308,267.776062 1.042308,134.552078 1.042308,1.000000 
	C60.687160,1.000000 120.374924,1.000000 180.829041,1.325339 
	C181.124969,2.087664 180.723053,2.775136 180.174164,2.925223 
	C163.917145,7.370550 150.960236,16.640787 140.674118,29.833757 
	C131.289062,41.871017 125.365158,55.545918 125.236420,70.743721 
	C124.827187,119.058395 125.113152,167.378845 125.105370,215.697067 
	C125.101555,239.358154 134.226807,258.670868 152.373962,273.850647 
	C172.307388,290.524628 195.017471,295.475067 220.096573,289.846039 
	C237.435226,285.954376 251.635941,276.344879 262.509552,262.680481 
	C274.140717,248.064133 279.073090,230.758911 279.030640,211.996964 
	C278.931061,168.010925 279.038940,124.024429 278.955475,80.038322 
	C278.944153,74.076736 279.150085,67.921585 277.812439,62.193031 
	C274.253540,46.952065 267.529907,33.119152 256.212982,22.004646 
	C247.313187,13.264045 236.736603,7.081755 224.929199,2.998646 
	C224.149033,2.728862 223.636841,1.684229 223.000000,1.000000 
	C282.297028,1.000000 341.594025,1.000000 400.945526,1.000000 
	C400.945526,134.215378 400.945526,267.430786 400.945526,401.000000 
	C355.646393,401.000000 310.291840,401.000000 264.179321,400.708130 
	C263.829407,399.893402 264.150269,399.257599 264.658905,398.865112 
	C270.099121,394.667206 271.854095,389.387939 269.745087,383.404602 
	C268.094238,378.721069 263.453156,376.027466 256.993469,376.024628 
	C244.664673,376.019196 232.335861,376.022644 220.007065,376.022430 
	C218.084732,376.022400 216.162415,376.022430 214.312805,376.022430 
	C214.312805,365.237366 214.312805,355.159973 214.312805,345.175781 
	C216.022018,344.724030 217.446106,344.151306 218.915466,343.989349 
	C234.946320,342.222504 249.902557,337.325623 264.018188,329.461853 
	C280.291260,320.396149 294.329224,308.785950 305.463226,293.888428 
	C322.727020,270.789246 331.890717,244.867615 332.086090,215.840439 
	C332.137115,208.260651 326.904724,202.579285 319.583588,202.589355 
	C311.244690,202.600830 306.845642,209.318604 306.864014,215.891068 
	C306.883118,222.737640 306.216736,229.745789 304.667053,236.408096 
	C299.343170,259.295929 288.356262,278.760376 270.312256,294.455902 
	C255.429657,307.401459 238.439484,315.407654 219.447189,318.851471 
	C196.586472,322.996704 174.586670,319.153900 153.818542,308.588348 
	C137.622192,300.348602 124.236328,288.642548 114.361443,273.608185 
	C103.178299,256.582001 96.983749,237.605057 96.791321,216.938004 
	C96.769241,214.567200 96.134491,212.073517 95.228333,209.864685 
	C92.924286,204.248352 87.296204,201.771973 80.487350,203.036667 
	C76.282715,203.817642 72.158653,208.843002 72.005501,213.320801 
	C70.842651,247.318832 82.558990,276.811340 104.709770,301.960815 
	C122.045517,321.643402 143.894913,334.872192 169.511490,341.336945 
	C175.952682,342.962494 182.552872,343.958038 188.876999,345.203125 
	C188.876999,355.714203 188.876999,365.657440 188.876999,376.022583 
	C187.049988,376.022583 185.429840,376.022705 183.809708,376.022552 
	C170.981094,376.021271 158.152344,375.986481 145.323914,376.035248 
	C140.268768,376.054474 135.013168,379.730927 133.373245,384.185028 
	C131.691681,388.752258 133.669052,394.882141 137.787048,398.257782 
	C138.676361,398.986847 139.270111,400.076477 140.000000,401.000000 
z"/>
<path fill="#FCFCFC" opacity="1.000000" stroke="none" 
	d="
M222.531342,1.000000 
	C223.636841,1.684229 224.149033,2.728862 224.929199,2.998646 
	C236.736603,7.081755 247.313187,13.264045 256.212982,22.004646 
	C267.529907,33.119152 274.253540,46.952065 277.812439,62.193031 
	C279.150085,67.921585 278.944153,74.076736 278.955475,80.038322 
	C279.038940,124.024429 278.931061,168.010925 279.030640,211.996964 
	C279.073090,230.758911 274.140717,248.064133 262.509552,262.680481 
	C251.635941,276.344879 237.435226,285.954376 220.096573,289.846039 
	C195.017471,295.475067 172.307388,290.524628 152.373962,273.850647 
	C134.226807,258.670868 125.101555,239.358154 125.105370,215.697067 
	C125.113152,167.378845 124.827187,119.058395 125.236420,70.743721 
	C125.365158,55.545918 131.289062,41.871017 140.674118,29.833757 
	C150.960236,16.640787 163.917145,7.370550 180.174164,2.925223 
	C180.723053,2.775136 181.124969,2.087664 181.297699,1.325339 
	C194.687561,1.000000 208.375122,1.000000 222.531342,1.000000 
M152.850555,59.580795 
	C151.799164,66.020447 149.875549,72.454826 149.836578,78.900597 
	C149.564743,123.874908 149.509186,168.852936 149.860489,213.826065 
	C149.914352,220.721375 151.667694,227.856934 153.932343,234.434708 
	C161.206848,255.563889 186.166016,270.259186 209.765854,266.192566 
	C227.301407,263.170929 239.341080,253.303635 247.923828,238.690536 
	C252.501465,230.896561 254.002335,221.894623 254.015442,212.829941 
	C254.073181,172.851410 254.090286,132.872665 253.998184,92.894272 
	C253.981445,85.629288 253.681183,78.337921 253.002121,71.106590 
	C250.985397,49.630413 238.891190,35.426224 219.316544,28.052229 
	C192.313843,17.880003 164.361572,31.220644 152.850555,59.580795 
z"/>
<path fill="#FDFDFD" opacity="1.000000" stroke="none" 
	d="
M140.468658,401.000000 
	C139.270111,400.076477 138.676361,398.986847 137.787048,398.257782 
	C133.669052,394.882141 131.691681,388.752258 133.373245,384.185028 
	C135.013168,379.730927 140.268768,376.054474 145.323914,376.035248 
	C158.152344,375.986481 170.981094,376.021271 183.809708,376.022552 
	C185.429840,376.022705 187.049988,376.022583 188.876999,376.022583 
	C188.876999,365.657440 188.876999,355.714203 188.876999,345.203125 
	C182.552872,343.958038 175.952682,342.962494 169.511490,341.336945 
	C143.894913,334.872192 122.045517,321.643402 104.709770,301.960815 
	C82.558990,276.811340 70.842651,247.318832 72.005501,213.320801 
	C72.158653,208.843002 76.282715,203.817642 80.487350,203.036667 
	C87.296204,201.771973 92.924286,204.248352 95.228333,209.864685 
	C96.134491,212.073517 96.769241,214.567200 96.791321,216.938004 
	C96.983749,237.605057 103.178299,256.582001 114.361443,273.608185 
	C124.236328,288.642548 137.622192,300.348602 153.818542,308.588348 
	C174.586670,319.153900 196.586472,322.996704 219.447189,318.851471 
	C238.439484,315.407654 255.429657,307.401459 270.312256,294.455902 
	C288.356262,278.760376 299.343170,259.295929 304.667053,236.408096 
	C306.216736,229.745789 306.883118,222.737640 306.864014,215.891068 
	C306.845642,209.318604 311.244690,202.600830 319.583588,202.589355 
	C326.904724,202.579285 332.137115,208.260651 332.086090,215.840439 
	C331.890717,244.867615 322.727020,270.789246 305.463226,293.888428 
	C294.329224,308.785950 280.291260,320.396149 264.018188,329.461853 
	C249.902557,337.325623 234.946320,342.222504 218.915466,343.989349 
	C217.446106,344.151306 216.022018,344.724030 214.312805,345.175781 
	C214.312805,355.159973 214.312805,365.237366 214.312805,376.022430 
	C216.162415,376.022430 218.084732,376.022400 220.007065,376.022430 
	C232.335861,376.022644 244.664673,376.019196 256.993469,376.024628 
	C263.453156,376.027466 268.094238,378.721069 269.745087,383.404602 
	C271.854095,389.387939 270.099121,394.667206 264.658905,398.865112 
	C264.150269,399.257599 263.829407,399.893402 263.710693,400.708130 
	C222.979111,401.000000 181.958206,401.000000 140.468658,401.000000 
z"/>
<path fill="#000000" opacity="1.000000" stroke="none" 
	d="
M152.894623,59.181961 
	C164.361572,31.220644 192.313843,17.880003 219.316544,28.052229 
	C238.891190,35.426224 250.985397,49.630413 253.002121,71.106590 
	C253.681183,78.337921 253.981445,85.629288 253.998184,92.894272 
	C254.090286,132.872665 254.073181,172.851410 254.015442,212.829941 
	C254.002335,221.894623 252.501465,230.896561 247.923828,238.690536 
	C239.341080,253.303635 227.301407,263.170929 209.765854,266.192566 
	C186.166016,270.259186 161.206848,255.563889 153.932343,234.434708 
	C151.667694,227.856934 149.914352,220.721375 149.860489,213.826065 
	C149.509186,168.852936 149.564743,123.874908 149.836578,78.900597 
	C149.875549,72.454826 151.799164,66.020447 152.894623,59.181961 
z"/>
</svg>