<svg version="1.1" id="Layer_1" xmlns="http://www.w3.org/2000/svg" xmlns:xlink="http://www.w3.org/1999/xlink" x="0px" y="0px"
	 width="100%" viewBox="0 0 141 188" enable-background="new 0 0 141 188" xml:space="preserve">
<path fill="#000000" opacity="1.000000" stroke="none" 
	d="
M142.000000,151.000000 
	C142.000000,163.656799 142.000000,176.313614 142.000000,188.970428 
	C141.843323,188.980286 141.686661,188.998795 141.529984,188.998795 
	C94.733116,189.000031 47.936241,189.000000 1.069686,189.000000 
	C1.069686,126.428650 1.069686,63.857201 1.069686,1.142876 
	C47.999710,1.142876 94.999786,1.142876 142.000000,1.142876 
	C142.000000,18.756943 142.000000,36.409813 141.536133,54.535698 
	C136.328812,55.007526 131.580460,55.119774 126.845726,54.915897 
	C125.815079,54.871513 124.833145,53.695557 123.912598,52.635666 
	C124.366173,50.172050 124.735931,48.113537 125.513664,46.019928 
	C129.887711,45.622887 127.382698,42.744488 127.930153,40.656792 
	C127.332855,38.915249 126.656776,37.539394 125.654709,36.093094 
	C124.890686,36.077179 124.452644,36.131721 123.630615,35.963390 
	C123.246620,31.551693 123.246620,27.362865 123.246620,23.174040 
	C122.653595,22.993599 122.060570,22.813158 121.467537,22.632719 
	C120.650688,24.276690 119.315666,25.863420 119.126404,27.576715 
	C118.749092,30.992357 119.001030,34.477509 118.603699,37.968979 
	C115.824837,38.629642 113.435326,39.255280 111.022804,39.429825 
	C110.999786,35.032276 110.999786,31.085817 110.999786,27.139359 
	C110.642509,27.120508 110.285240,27.101656 109.927963,27.082806 
	C109.927963,31.713106 109.927963,36.343407 109.535576,41.030495 
	C108.420670,41.403973 107.680099,42.029419 106.978493,41.988407 
	C101.466293,41.666172 103.347153,45.786064 103.049561,48.498260 
	C102.621094,52.403233 105.471382,52.000877 107.970848,52.394394 
	C107.975441,53.496891 107.945122,54.232498 107.561310,54.994286 
	C104.353264,55.083618 101.498711,55.146782 98.644150,55.209946 
	C98.649071,56.019909 98.653992,56.829868 98.658913,57.639832 
	C101.743919,57.776882 104.828934,57.913937 107.965805,58.501171 
	C108.017677,61.422703 108.017677,63.894058 108.017677,66.703217 
	C103.496269,66.498466 102.670113,69.268143 102.961937,72.962494 
	C103.065681,74.275871 102.901672,75.610390 102.400772,76.963448 
	C90.403687,76.991638 78.865700,76.991638 67.380356,76.991638 
	C70.755821,71.843712 74.412140,67.288605 76.878792,62.161186 
	C78.642654,58.494663 80.790535,57.694717 84.364143,57.930206 
	C88.173920,58.181255 92.019104,58.089024 95.836052,57.895164 
	C96.744316,57.849033 97.601723,56.801678 98.482513,56.214848 
	C98.302635,55.782463 98.122757,55.350075 97.942879,54.917690 
	C91.972420,54.917690 86.001953,54.917690 80.000847,54.613998 
	C79.930466,53.906933 79.890739,53.503559 79.947289,52.675457 
	C80.216301,46.876869 81.027382,41.422066 80.359436,36.154812 
	C79.826782,31.954374 77.490852,27.982613 75.901695,23.733559 
	C75.848007,23.557774 75.716972,23.214314 75.835037,22.842569 
	C73.964134,19.311392 71.975182,16.151960 69.990341,12.998590 
	C69.994469,13.004652 70.006485,13.012980 70.004410,12.651608 
	C68.999237,11.554976 67.996132,10.819720 66.645599,10.115691 
	C64.915237,11.811405 63.532299,13.475893 62.082886,15.068615 
	C62.016418,14.996850 62.142860,15.142367 61.784184,15.139221 
	C59.884163,18.092463 58.342815,21.048853 56.534050,24.137587 
	C55.903564,25.108730 55.540493,25.947529 55.069637,27.182896 
	C53.657108,36.070972 52.342327,44.561005 51.091663,53.060471 
	C51.050243,53.341934 51.659065,53.719082 51.955971,54.328300 
	C51.639435,54.796021 51.331711,54.987076 50.563438,55.101376 
	C40.068932,55.071861 30.034975,55.119099 19.542707,55.086967 
	C14.795768,54.912567 10.503169,54.690804 6.221722,54.824970 
	C5.320154,54.853218 4.459515,56.187622 2.484760,57.832443 
	C9.464466,57.832443 14.732880,57.832443 20.464203,57.909763 
	C31.263269,58.002865 41.599430,58.018646 52.012760,58.451790 
	C51.994633,62.590370 53.814281,66.503601 50.980606,69.967667 
	C50.982346,69.985252 50.948952,69.973640 50.614799,69.960602 
	C49.483055,70.611763 48.685459,71.275963 47.576035,72.089401 
	C44.512299,75.999435 40.904709,77.236496 36.199673,77.093307 
	C25.614971,76.771156 15.013736,76.992264 4.022335,76.992264 
	C4.110681,78.513435 4.178582,79.682564 4.255546,81.007744 
	C14.247286,81.007744 23.861334,80.968208 33.474346,81.050095 
	C34.926311,81.062462 36.373459,81.640572 37.504223,82.062073 
	C33.187496,88.154564 29.189384,94.141960 24.937183,100.492180 
	C17.937153,100.854996 11.191210,100.854996 4.283917,100.854996 
	C4.283917,102.468628 4.283917,103.635521 4.283917,105.095917 
	C10.671876,105.095917 16.768499,105.095917 22.887585,105.504730 
	C22.581911,112.241882 22.253775,118.570221 21.691500,124.970734 
	C21.457361,125.042908 20.997335,125.211723 20.544491,125.125809 
	C16.226254,124.693192 12.357698,124.084488 8.497047,124.131073 
	C6.991136,124.149239 5.503016,125.642036 4.006793,126.463165 
	C5.307027,127.310364 6.614715,128.885361 7.906134,128.872116 
	C12.273269,128.827393 16.634636,128.219620 21.362461,127.903336 
	C22.469629,128.014145 23.212547,128.048676 23.985744,128.438522 
	C26.403799,131.874146 28.791571,134.954422 31.190351,138.366394 
	C32.447334,139.485275 33.693302,140.272461 35.055595,141.362244 
	C35.795547,141.794373 36.419170,141.923950 37.149338,142.380585 
	C39.494957,144.115250 41.734035,145.522827 43.507988,146.974503 
	C30.129053,147.018600 17.215242,147.018600 3.970917,147.018600 
	C4.122329,148.606018 4.234193,149.778824 4.365192,151.152237 
	C26.821764,151.152237 48.896923,151.152237 70.979622,151.560333 
	C72.721878,159.508942 74.566368,167.040085 72.623482,175.000885 
	C69.160500,177.738892 66.020355,180.343658 62.478828,182.963562 
	C58.516850,182.978714 54.956249,182.978714 51.029289,182.978714 
	C60.051006,175.493149 62.085869,168.869659 57.584846,162.548462 
	C53.944511,157.436005 48.249321,156.568436 41.764629,160.091766 
	C41.298923,160.325745 41.116180,160.649551 40.965897,160.982300 
	C40.998363,160.991241 40.963058,160.933884 40.585999,160.962921 
	C34.517662,167.995987 34.430817,175.036819 40.109818,181.475098 
	C48.634914,188.974380 59.803818,189.097733 70.301086,182.045181 
	C70.710930,181.698715 70.876976,181.420837 71.407898,181.086868 
	C76.505760,176.456711 79.680153,171.386902 78.128288,164.316666 
	C77.172874,159.963867 76.775482,155.488602 76.587387,151.039093 
	C98.698151,151.006592 120.349075,151.003296 142.000000,151.000000 
M98.505867,55.071281 
	C98.372910,55.257061 98.239952,55.442841 98.107002,55.628620 
	C98.400742,55.601475 98.694473,55.574329 98.505867,55.071281 
z"/>
<path fill="#000000" opacity="1.000000" stroke="none" 
	d="
M142.000000,81.000000 
	C142.000000,87.354401 142.000000,93.708794 141.531326,100.529488 
	C117.374649,101.051323 93.686653,101.106865 69.598312,101.086777 
	C67.840805,100.987930 66.483627,100.964706 65.068497,100.532959 
	C64.197060,96.111549 63.286289,92.115021 62.607956,88.079422 
	C62.223953,85.794846 62.221527,83.446144 62.509960,81.070480 
	C77.968658,81.044418 92.964630,81.074181 107.985992,81.539276 
	C108.830170,84.707550 106.222984,89.149757 112.036674,90.400192 
	C112.036674,86.729683 112.036674,83.935944 112.464706,81.077301 
	C114.894394,81.254166 117.203087,80.956940 118.818283,81.877075 
	C120.742981,82.973526 120.485306,83.425842 122.438629,81.062592 
	C123.889267,80.949196 124.945679,80.890564 126.462967,80.910431 
	C131.949234,80.992622 136.974609,80.996307 142.000000,81.000000 
z"/>
<path fill="#000000" opacity="1.000000" stroke="none" 
	d="
M142.000000,105.000000 
	C142.000000,111.354401 142.000000,117.708794 141.534454,124.529823 
	C128.046341,125.054291 115.023766,125.112129 101.588669,125.095100 
	C99.783943,125.072716 98.391747,125.125191 96.633873,125.104591 
	C95.525826,124.983284 94.783455,124.935066 93.904190,124.575600 
	C91.309029,125.001213 90.210068,124.400009 89.817200,121.539597 
	C89.413673,118.601639 88.021515,115.799461 87.024384,112.694595 
	C86.986755,112.451332 86.799149,111.996132 86.863770,111.644630 
	C85.633400,109.234306 84.338402,107.175484 83.369270,105.061493 
	C84.130142,104.951233 84.565147,104.896156 85.438881,104.919556 
	C88.251633,104.946106 90.625664,104.894188 93.330368,104.916473 
	C94.107437,104.941132 94.553810,104.891571 95.463120,104.919701 
	C111.284035,104.998260 126.642021,104.999130 142.000000,105.000000 
z"/>
<path fill="#000000" opacity="1.000000" stroke="none" 
	d="
M142.000000,128.000000 
	C142.000000,134.021149 142.000000,140.042297 141.531372,146.526596 
	C119.192085,146.989746 97.321449,146.989746 75.297272,146.989746 
	C77.957466,144.680099 80.330826,142.619476 82.946869,140.341949 
	C85.420525,136.851624 87.510193,133.466980 89.954613,130.361603 
	C90.883141,129.182022 92.627724,128.644775 94.322525,127.892303 
	C95.083466,128.010025 95.522247,128.050232 96.109192,128.437103 
	C98.171974,128.464478 100.086578,128.145187 102.464081,127.901123 
	C115.951317,127.984238 128.975662,127.992119 142.000000,128.000000 
z"/>
<path fill="#F9F9F7" opacity="1.000000" stroke="none" 
	d="
M82.704178,140.558868 
	C80.330826,142.619476 77.957466,144.680099 75.297272,146.989746 
	C97.321449,146.989746 119.192085,146.989746 141.531372,146.994873 
	C142.000000,148.066666 142.000000,149.133347 142.000000,150.600006 
	C120.349075,151.003296 98.698151,151.006592 76.249237,150.901703 
	C73.958191,150.913086 72.465134,151.032669 70.972084,151.152237 
	C48.896923,151.152237 26.821764,151.152237 4.365192,151.152237 
	C4.234193,149.778824 4.122329,148.606018 3.970917,147.018600 
	C17.215242,147.018600 30.129053,147.018600 43.728226,147.251831 
	C45.978413,146.641693 47.543228,145.798309 49.538712,144.978699 
	C56.322922,145.819443 62.710796,147.253555 69.198730,143.958557 
	C70.381981,142.960464 71.201828,141.956955 72.400360,140.972382 
	C74.505585,139.968262 76.232132,138.945236 78.029800,138.280975 
	C79.374268,139.066727 80.647598,139.493713 82.110641,140.087753 
	C82.434959,140.356155 82.569572,140.457504 82.704178,140.558868 
z"/>
<path fill="#F9FBF9" opacity="1.000000" stroke="none" 
	d="
M92.999680,104.842270 
	C90.625664,104.894188 88.251633,104.946106 85.387482,104.628311 
	C84.279366,104.544624 83.661385,104.830650 83.043404,105.116669 
	C84.338402,107.175484 85.633400,109.234306 86.543930,111.606499 
	C85.106346,112.278564 84.053246,112.637268 82.705872,113.122726 
	C81.608253,113.499138 80.804901,113.748787 80.001358,113.559692 
	C80.448372,108.741982 80.193916,105.033318 74.385788,104.433174 
	C72.827393,104.272148 71.455925,102.302040 69.998650,101.162415 
	C93.686653,101.106865 117.374649,101.051323 141.531326,100.997894 
	C142.000000,102.066673 142.000000,103.133339 142.000000,104.600006 
	C126.642021,104.999130 111.284035,104.998260 95.418991,104.639107 
	C94.593842,103.986847 94.275749,103.692871 93.957657,103.398895 
	C93.638329,103.880020 93.319008,104.361145 92.999680,104.842270 
z"/>
<path fill="#000000" opacity="1.000000" stroke="none" 
	d="
M142.000000,58.000000 
	C142.000000,64.021156 142.000000,70.042305 141.533813,76.529030 
	C136.378860,77.050018 131.690079,77.105446 126.626770,77.085533 
	C124.157898,76.043823 122.063545,75.077446 118.745590,73.546478 
	C123.179886,72.011391 126.022003,71.027489 128.937256,69.596878 
	C129.003326,67.031281 129.144760,64.894554 128.893646,62.805012 
	C128.823441,62.220806 127.595428,61.775753 126.580154,61.212929 
	C125.831436,61.166260 125.401108,61.173527 124.928261,60.849663 
	C124.637169,59.712376 124.388596,58.906216 124.508881,58.042015 
	C130.254013,57.932861 135.630280,57.881752 141.248611,57.910004 
	C141.660446,57.992916 141.830215,57.996460 142.000000,58.000000 
z"/>
<path fill="#FAFAF8" opacity="1.000000" stroke="none" 
	d="
M142.000000,127.625000 
	C128.975662,127.992119 115.951317,127.984238 102.463638,127.569153 
	C102.000595,126.497948 102.000893,125.833954 102.001190,125.169968 
	C115.023766,125.112129 128.046341,125.054291 141.534454,124.998230 
	C142.000000,125.750000 142.000000,126.500000 142.000000,127.625000 
z"/>
<path fill="#F9FBF9" opacity="1.000000" stroke="none" 
	d="
M141.006561,57.830643 
	C135.630280,57.881752 130.254013,57.932861 124.159348,58.055023 
	C122.975769,58.092178 122.510574,58.058289 121.649689,58.014221 
	C120.464203,58.017326 119.674408,58.030602 118.462250,58.021675 
	C116.065254,58.027576 114.090630,58.055683 111.694969,58.076401 
	C110.153938,58.063004 109.033943,58.056995 107.913940,58.050987 
	C104.828934,57.913937 101.743919,57.776882 98.658913,57.639832 
	C98.653992,56.829868 98.649071,56.019909 98.644150,55.209946 
	C101.498711,55.146782 104.353264,55.083618 107.895493,55.030563 
	C109.734512,54.992142 110.885872,54.943611 112.467995,54.943611 
	C114.919708,54.966209 116.940651,54.940273 119.140419,55.175110 
	C120.213928,55.291328 121.108627,55.146782 122.243073,54.869774 
	C122.931473,54.171799 123.380127,53.606281 123.828781,53.040764 
	C124.833145,53.695557 125.815079,54.871513 126.845726,54.915897 
	C131.580460,55.119774 136.328812,55.007526 141.536133,55.004356 
	C142.000000,55.444447 142.000000,55.888889 141.793625,56.750702 
	C141.327194,57.330643 141.133636,57.551502 141.006561,57.830643 
z"/>
<path fill="#FCFDFB" opacity="1.000000" stroke="none" 
	d="
M127.001297,77.160873 
	C131.690079,77.105446 136.378860,77.050018 141.533813,76.997299 
	C142.000000,78.066673 142.000000,79.133339 142.000000,80.600006 
	C136.974609,80.996307 131.949234,80.992622 126.497284,80.592178 
	C126.380905,79.183899 126.691101,78.172386 127.001297,77.160873 
z"/>
<path fill="#F1F6F6" opacity="1.000000" stroke="none" 
	d="
M141.248611,57.910004 
	C141.133636,57.551502 141.327194,57.330643 141.793625,57.084030 
	C142.000000,57.000000 142.000000,57.500000 142.000000,57.750000 
	C141.830215,57.996460 141.660446,57.992916 141.248611,57.910004 
z"/>
<path fill="#F9FBF9" opacity="1.000000" stroke="none" 
	d="
M107.960602,81.103951 
	C92.964630,81.074181 77.968658,81.044418 62.312168,80.811409 
	C58.670788,82.608498 53.962231,82.313309 53.036339,87.053726 
	C53.013084,87.032562 53.070438,87.053238 52.803604,87.026657 
	C52.358555,87.001266 52.180340,87.002441 51.634094,87.010956 
	C46.912998,91.325691 42.559933,95.633095 38.206871,99.940498 
	C38.821198,100.293671 39.435520,100.646843 40.314865,100.991302 
	C40.756477,100.974327 40.933060,100.966057 41.547009,100.978516 
	C44.323513,101.054047 46.662655,101.108871 49.036282,101.481888 
	C49.381298,102.811417 49.691830,103.822762 49.546127,104.911987 
	C45.098656,105.028114 41.107414,105.066360 36.747864,105.109749 
	C35.221458,106.344040 33.584129,107.377907 32.989628,108.836739 
	C30.627918,114.632019 29.094824,120.610687 30.960503,127.142929 
	C30.564276,127.593613 30.288750,127.808296 29.673262,127.871460 
	C27.540688,127.841019 25.748075,127.962105 23.955463,128.083191 
	C23.212547,128.048676 22.469629,128.014145 21.362820,127.576424 
	C20.998396,126.519386 20.997866,125.865555 20.997337,125.211723 
	C20.997335,125.211723 21.457361,125.042908 22.092396,124.996307 
	C23.117115,123.053894 23.506800,121.158081 23.884903,119.042358 
	C23.807159,118.525200 23.650017,118.288437 23.319901,117.711716 
	C23.298920,116.501251 23.359928,115.691231 23.568966,114.722977 
	C23.870342,114.300827 23.926756,114.017525 23.858837,113.338501 
	C23.932070,111.963104 24.032694,110.964027 24.360912,109.770172 
	C24.700182,108.995110 24.811855,108.414848 24.930553,107.455536 
	C24.976854,106.314819 25.016132,105.553162 25.276081,104.547417 
	C26.293024,102.792961 27.089294,101.282578 27.919945,99.568871 
	C27.954325,99.365540 28.100258,98.979774 28.307777,98.852325 
	C28.767237,98.493042 28.911224,98.206841 28.990622,97.632065 
	C29.033981,97.397842 29.212200,96.956032 29.392117,96.837982 
	C29.788557,96.514427 29.925928,96.265236 30.023811,95.717316 
	C30.108913,95.296265 30.154346,95.130287 30.379906,94.846451 
	C30.778635,94.526299 30.919989,94.279716 30.992027,93.993393 
	C30.999960,93.997971 30.986345,93.981667 31.329865,93.936127 
	C32.113964,92.940048 32.554546,91.989502 33.140141,90.733971 
	C34.797710,87.604973 36.310272,84.780975 37.822830,81.956978 
	C36.373459,81.640572 34.926311,81.062462 33.474346,81.050095 
	C23.861334,80.968208 14.247286,81.007744 4.255546,81.007744 
	C4.178582,79.682564 4.110681,78.513435 4.022335,76.992264 
	C15.013736,76.992264 25.614971,76.771156 36.199673,77.093307 
	C40.904709,77.236496 44.512299,75.999435 47.857132,72.203262 
	C49.283024,71.436478 50.115990,70.705063 50.948952,69.973640 
	C50.948952,69.973640 50.982346,69.985252 51.338287,69.978676 
	C54.031456,66.828430 56.368683,63.684761 59.136753,59.961590 
	C56.331974,59.210979 54.133781,58.622704 51.935589,58.034428 
	C41.599430,58.018646 31.263269,58.002865 20.463871,57.576500 
	C20.000761,56.499390 20.000891,55.832863 20.001019,55.166336 
	C30.034975,55.119099 40.068932,55.071861 50.780704,55.327049 
	C52.642590,55.417320 53.826656,55.205158 55.360210,54.986122 
	C56.174664,54.951000 56.639629,54.922752 57.523331,54.948612 
	C59.627754,55.061241 61.313438,55.119766 63.041161,55.462265 
	C63.743484,55.800140 64.403770,55.854042 65.434761,55.910202 
	C70.245689,55.786537 71.256615,52.537804 72.025345,49.045471 
	C72.018555,49.016251 72.078522,49.018101 72.318359,48.853046 
	C72.716568,48.141956 72.874939,47.595921 73.015518,47.027832 
	C72.997734,47.005779 73.053680,47.014790 73.297279,46.851158 
	C73.704918,46.140213 73.868965,45.592903 74.014236,45.027630 
	C73.995461,45.009666 74.047256,45.013321 74.288940,44.836037 
	C74.668533,44.093266 74.806442,43.527779 74.962799,42.952026 
	C74.981247,42.941765 75.021301,42.955078 75.291489,42.730640 
	C75.656822,41.579929 75.751968,40.653656 75.882729,39.335388 
	C76.016991,37.636055 76.115631,36.328716 76.508217,35.013680 
	C77.194206,35.004284 77.586258,35.002590 77.990784,35.002861 
	C78.003265,35.004826 77.995598,35.025719 77.973946,35.308701 
	C78.225929,36.399212 78.499565,37.206741 78.844009,38.470196 
	C78.607193,43.288887 78.299561,47.651657 77.727539,52.239540 
	C77.517731,53.486938 77.572304,54.509212 77.626869,55.531490 
	C78.428413,55.326893 79.229950,55.122292 80.031494,54.917690 
	C86.001953,54.917690 91.972420,54.917690 97.942879,54.917690 
	C98.122757,55.350075 98.302635,55.782463 98.482513,56.214848 
	C97.601723,56.801678 96.744316,57.849033 95.836052,57.895164 
	C92.019104,58.089024 88.173920,58.181255 84.364143,57.930206 
	C80.790535,57.694717 78.642654,58.494663 76.878792,62.161186 
	C74.412140,67.288605 70.755821,71.843712 67.380356,76.991638 
	C78.865700,76.991638 90.403687,76.991638 102.749588,77.104187 
	C105.680801,76.803947 107.804092,76.391159 110.302299,75.981216 
	C112.314842,76.233536 115.292030,73.610130 114.638214,78.006058 
	C113.501984,78.707230 112.726936,79.401726 111.585602,80.079071 
	C110.133080,80.409264 109.046844,80.756607 107.960602,81.103951 
z"/>
<path fill="#F6F5F1" opacity="1.000000" stroke="none" 
	d="
M70.057289,182.113770 
	C59.803818,189.097733 48.634914,188.974380 40.163513,181.058441 
	C37.162994,173.718216 37.725780,167.264313 40.963058,160.933884 
	C40.963058,160.933884 40.998363,160.991241 41.200504,160.934769 
	C41.671673,160.696091 41.886654,160.463867 42.047592,160.181610 
	C48.249321,156.568436 53.944511,157.436005 57.584846,162.548462 
	C62.085869,168.869659 60.051006,175.493149 51.029289,182.978714 
	C54.956249,182.978714 58.516850,182.978714 62.847763,182.953079 
	C65.764481,182.656219 67.910881,182.384995 70.057289,182.113770 
z"/>
<path fill="#F0F3EE" opacity="1.000000" stroke="none" 
	d="
M77.978302,35.000896 
	C77.586258,35.002590 77.194206,35.004284 76.432907,34.643375 
	C75.086029,32.448360 74.108414,30.615946 72.972694,28.452568 
	C70.605545,24.609756 67.133278,23.733606 65.186920,26.378468 
	C62.918243,29.461325 60.938808,32.757038 58.566338,36.197563 
	C57.202778,42.620827 56.106750,48.806915 55.010723,54.992996 
	C53.826656,55.205158 52.642590,55.417320 51.241257,55.403809 
	C51.331711,54.987076 51.639435,54.796021 52.292107,54.067162 
	C53.780010,45.641914 54.967983,37.760391 56.008110,29.859411 
	C56.135952,28.888330 55.473595,27.813227 55.177422,26.786327 
	C55.540493,25.947529 55.903564,25.108730 56.904449,24.104168 
	C59.075798,21.006393 60.609329,18.074381 62.142860,15.142368 
	C62.142860,15.142367 62.016418,14.996850 62.423214,15.113797 
	C64.173981,14.021644 65.517944,12.812543 67.165421,11.793293 
	C68.314781,12.326423 69.160637,12.669702 70.006485,13.012980 
	C70.006485,13.012980 69.994469,13.004652 69.929230,13.373718 
	C71.814980,16.899960 73.765976,20.057137 75.716972,23.214314 
	C75.716972,23.214314 75.848007,23.557774 75.884132,24.147774 
	C76.606270,28.158817 77.292282,31.579857 77.978302,35.000896 
z"/>
<path fill="#F1F8F7" opacity="1.000000" stroke="none" 
	d="
M111.045822,39.880917 
	C113.435326,39.255280 115.824837,38.629642 118.792091,38.227554 
	C120.918098,37.696156 122.466354,36.941208 124.014610,36.186260 
	C124.452644,36.131721 124.890686,36.077179 125.662292,36.469940 
	C126.614380,38.285656 127.232880,39.654072 127.851379,41.022488 
	C127.382698,42.744488 129.887711,45.622887 125.239952,45.911171 
	C122.692108,46.591137 120.825943,47.344769 118.597847,48.156067 
	C116.196426,48.824547 114.156944,49.435368 111.778229,50.058281 
	C110.271309,50.722752 109.103622,51.375130 107.935936,52.027504 
	C105.471382,52.000877 102.621094,52.403233 103.049561,48.498260 
	C103.347153,45.786064 101.466293,41.666172 106.978493,41.988407 
	C107.680099,42.029419 108.420670,41.403973 109.782410,40.918518 
	C110.629692,40.460136 110.837753,40.170528 111.045822,39.880917 
z"/>
<path fill="#EAE3CE" opacity="1.000000" stroke="none" 
	d="
M70.979622,151.560333 
	C72.465134,151.032669 73.958191,150.913086 75.789391,150.930908 
	C76.775482,155.488602 77.172874,159.963867 78.128288,164.316666 
	C79.680153,171.386902 76.505760,176.456711 71.448273,180.715652 
	C71.731277,178.556229 72.338791,176.711929 72.946312,174.867630 
	C74.566368,167.040085 72.721878,159.508942 70.979622,151.560333 
z"/>
<path fill="#F3F9F7" opacity="1.000000" stroke="none" 
	d="
M27.885567,99.772202 
	C27.089294,101.282578 26.293024,102.792961 24.906685,104.565643 
	C23.832787,104.917274 23.348955,105.006599 22.865124,105.095917 
	C16.768499,105.095917 10.671876,105.095917 4.283917,105.095917 
	C4.283917,103.635521 4.283917,102.468628 4.283917,100.854996 
	C11.191210,100.854996 17.937153,100.854996 25.273680,100.437302 
	C26.538029,99.937141 27.211798,99.854668 27.885567,99.772202 
z"/>
<path fill="#EDFAFB" opacity="1.000000" stroke="none" 
	d="
M23.985744,128.438522 
	C25.748075,127.962105 27.540688,127.841019 29.703976,128.225861 
	C31.258020,130.613388 32.291172,132.613220 33.658245,134.350250 
	C35.996552,137.321365 38.543991,140.127884 40.659683,142.973145 
	C39.224777,142.646347 38.133789,142.349930 37.042797,142.053513 
	C36.419170,141.923950 35.795547,141.794373 35.036926,141.029541 
	C33.661064,139.607773 32.420200,138.821243 31.179340,138.034714 
	C28.791571,134.954422 26.403799,131.874146 23.985744,128.438522 
z"/>
<path fill="#C5DEE8" opacity="1.000000" stroke="none" 
	d="
M109.927391,75.978371 
	C107.804092,76.391159 105.680801,76.803947 103.208694,77.075996 
	C102.901672,75.610390 103.065681,74.275871 102.961937,72.962494 
	C102.670113,69.268143 103.496269,66.498466 108.017677,66.703217 
	C108.017677,63.894058 108.017677,61.422703 107.965805,58.501167 
	C109.033943,58.056995 110.153938,58.063004 111.659454,58.500523 
	C112.693993,61.004135 113.343025,63.076233 113.925247,65.436386 
	C106.526833,67.016891 105.517677,68.291283 106.363800,74.932808 
	C107.614204,75.299683 108.770798,75.639023 109.927391,75.978371 
z"/>
<path fill="#FCFDFB" opacity="1.000000" stroke="none" 
	d="
M20.544493,125.125809 
	C20.997866,125.865555 20.998396,126.519386 20.998566,127.500137 
	C16.634636,128.219620 12.273269,128.827393 7.906134,128.872116 
	C6.614715,128.885361 5.307027,127.310364 4.006793,126.463165 
	C5.503016,125.642036 6.991136,124.149239 8.497047,124.131073 
	C12.357698,124.084488 16.226254,124.693192 20.544493,125.125809 
z"/>
<path fill="#F0EEE0" opacity="1.000000" stroke="none" 
	d="
M123.630615,35.963390 
	C122.466354,36.941208 120.918098,37.696156 119.181458,38.192528 
	C119.001030,34.477509 118.749092,30.992357 119.126404,27.576715 
	C119.315666,25.863420 120.650688,24.276690 121.467537,22.632719 
	C122.060570,22.813158 122.653595,22.993599 123.246620,23.174040 
	C123.246620,27.362865 123.246620,31.551693 123.630615,35.963390 
z"/>
<path fill="#D5B898" opacity="1.000000" stroke="none" 
	d="
M77.990784,35.002861 
	C77.292282,31.579857 76.606270,28.158817 75.937820,24.323559 
	C77.490852,27.982613 79.826782,31.954374 80.359436,36.154812 
	C81.027382,41.422066 80.216301,46.876869 79.672699,52.614174 
	C78.865196,52.656555 78.428558,52.335491 77.991928,52.014423 
	C78.299561,47.651657 78.607193,43.288887 78.901749,38.143269 
	C78.590981,36.582184 78.293289,35.803951 77.995598,35.025719 
	C77.995598,35.025719 78.003265,35.004826 77.990784,35.002861 
z"/>
<path fill="#F8F9FA" opacity="1.000000" stroke="none" 
	d="
M19.542707,55.086967 
	C20.000891,55.832863 20.000761,56.499390 20.000963,57.499180 
	C14.732880,57.832443 9.464466,57.832443 2.484760,57.832443 
	C4.459515,56.187622 5.320154,54.853218 6.221722,54.824970 
	C10.503169,54.690804 14.795768,54.912567 19.542707,55.086967 
z"/>
<path fill="#78A5C5" opacity="1.000000" stroke="none" 
	d="
M55.069637,27.182896 
	C55.473595,27.813227 56.135952,28.888330 56.008110,29.859411 
	C54.967983,37.760391 53.780010,45.641914 52.300919,53.790497 
	C51.659065,53.719082 51.050243,53.341934 51.091663,53.060471 
	C52.342327,44.561005 53.657108,36.070972 55.069637,27.182896 
z"/>
<path fill="#90B7D4" opacity="1.000000" stroke="none" 
	d="
M27.919945,99.568871 
	C27.211798,99.854668 26.538029,99.937141 25.527765,100.074486 
	C29.189384,94.141960 33.187496,88.154564 37.504219,82.062073 
	C36.310272,84.780975 34.797710,87.604973 32.864746,90.884323 
	C31.958344,92.220329 31.472343,93.100998 30.986343,93.981667 
	C30.986345,93.981667 30.999960,93.997971 30.780319,94.081909 
	C30.278845,94.359001 30.158546,94.625160 30.199781,94.964317 
	C30.154346,95.130287 30.108913,95.296265 29.826515,95.821838 
	C29.332302,96.375610 29.206518,96.633804 29.212200,96.956032 
	C29.212200,96.956032 29.033981,97.397842 28.780491,97.760696 
	C28.254507,98.344070 28.112259,98.629478 28.100258,98.979774 
	C28.100258,98.979774 27.954325,99.365540 27.919945,99.568871 
z"/>
<path fill="#B9C8C8" opacity="1.000000" stroke="none" 
	d="
M52.012760,58.451790 
	C54.133781,58.622704 56.331974,59.210979 59.136753,59.961590 
	C56.368683,63.684761 54.031456,66.828430 51.336548,69.961090 
	C53.814281,66.503601 51.994633,62.590370 52.012760,58.451790 
z"/>
<path fill="#85ACCF" opacity="1.000000" stroke="none" 
	d="
M22.887585,105.504730 
	C23.348955,105.006599 23.832787,104.917274 24.686014,104.809723 
	C25.016132,105.553162 24.976854,106.314819 24.693602,107.649673 
	C24.344189,108.803558 24.238752,109.384262 24.133318,109.964958 
	C24.032694,110.964027 23.932070,111.963104 23.693203,113.494629 
	C23.356287,114.287773 23.311613,114.572487 23.420937,114.881218 
	C23.359928,115.691231 23.298920,116.501251 23.295910,117.934097 
	C23.440239,118.864647 23.621096,119.099754 23.896484,119.262260 
	C23.506800,121.158081 23.117115,123.053894 22.326534,124.924133 
	C22.253775,118.570221 22.581911,112.241882 22.887585,105.504730 
z"/>
<path fill="#7DA9C7" opacity="1.000000" stroke="none" 
	d="
M40.585999,160.962921 
	C37.725780,167.264313 37.162994,173.718216 40.013794,180.748871 
	C34.430817,175.036819 34.517662,167.995987 40.585999,160.962921 
z"/>
<path fill="#EBE8DD" opacity="1.000000" stroke="none" 
	d="
M37.149338,142.380585 
	C38.133789,142.349930 39.224777,142.646347 40.657738,142.971375 
	C40.999714,143.000000 40.994995,142.996857 41.175461,143.262390 
	C42.555008,143.366653 43.754097,143.205383 45.107086,142.830490 
	C45.347378,142.464066 45.433762,142.311264 45.789719,142.364777 
	C47.075546,143.365707 48.091797,144.160324 49.108047,144.954941 
	C47.543228,145.798309 45.978413,146.641693 44.193352,147.207733 
	C41.734035,145.522827 39.494957,144.115250 37.149338,142.380585 
z"/>
<path fill="#E3E5DF" opacity="1.000000" stroke="none" 
	d="
M72.623482,175.000885 
	C72.338791,176.711929 71.731277,178.556229 71.083389,180.771744 
	C70.876976,181.420837 70.710930,181.698715 70.301086,182.045181 
	C67.910881,182.384995 65.764481,182.656219 63.249138,182.937927 
	C66.020355,180.343658 69.160500,177.738892 72.623482,175.000885 
z"/>
<path fill="#EAE7D7" opacity="1.000000" stroke="none" 
	d="
M118.959785,48.098404 
	C120.825943,47.344769 122.692108,46.591137 124.831978,45.946259 
	C124.735931,48.113537 124.366173,50.172050 123.912598,52.635666 
	C123.380127,53.606281 122.931473,54.171799 122.232285,54.495773 
	C121.040474,52.499359 120.099197,50.744484 119.074905,48.774250 
	C118.991890,48.558895 118.959785,48.098404 118.959785,48.098404 
z"/>
<path fill="#D5B898" opacity="1.000000" stroke="none" 
	d="
M75.835037,22.842569 
	C73.765976,20.057137 71.814980,16.899960 69.925102,13.367655 
	C71.975182,16.151960 73.964134,19.311392 75.835037,22.842569 
z"/>
<path fill="#F2F5F4" opacity="1.000000" stroke="none" 
	d="
M107.970848,52.394394 
	C109.103622,51.375130 110.271309,50.722752 111.717148,50.458591 
	C112.009277,52.196232 112.023254,53.545658 112.037231,54.895084 
	C110.885872,54.943611 109.734512,54.992142 108.248978,55.004391 
	C107.945122,54.232498 107.975441,53.496891 107.970848,52.394394 
z"/>
<path fill="#769AB9" opacity="1.000000" stroke="none" 
	d="
M61.784184,15.139221 
	C60.609329,18.074381 59.075798,21.006393 57.171867,23.971825 
	C58.342815,21.048853 59.884163,18.092463 61.784184,15.139221 
z"/>
<path fill="#E4EEEE" opacity="1.000000" stroke="none" 
	d="
M111.022804,39.429825 
	C110.837753,40.170528 110.629692,40.460136 110.174789,40.861725 
	C109.927963,36.343407 109.927963,31.713106 109.927963,27.082806 
	C110.285240,27.101656 110.642509,27.120508 110.999786,27.139359 
	C110.999786,31.085817 110.999786,35.032276 111.022804,39.429825 
z"/>
<path fill="#769AB9" opacity="1.000000" stroke="none" 
	d="
M66.861908,11.603442 
	C65.517944,12.812543 64.173981,14.021644 62.489685,15.185562 
	C63.532299,13.475893 64.915237,11.811405 66.606918,10.367979 
	C66.897751,10.927174 66.879829,11.265307 66.861908,11.603442 
z"/>
<path fill="#F0F3EE" opacity="1.000000" stroke="none" 
	d="
M77.727539,52.239540 
	C78.428558,52.335491 78.865196,52.656555 79.576416,53.038902 
	C79.890739,53.503559 79.930466,53.906933 80.000847,54.613998 
	C79.229950,55.122292 78.428413,55.326893 77.626869,55.531490 
	C77.572304,54.509212 77.517731,53.486938 77.727539,52.239540 
z"/>
<path fill="#F0EEE0" opacity="1.000000" stroke="none" 
	d="
M127.930153,40.656792 
	C127.232880,39.654072 126.614380,38.285656 125.988289,36.540390 
	C126.656776,37.539394 127.332855,38.915249 127.930153,40.656792 
z"/>
<path fill="#D5B898" opacity="1.000000" stroke="none" 
	d="
M67.165421,11.793293 
	C66.879829,11.265307 66.897751,10.927174 66.954346,10.336752 
	C67.996132,10.819720 68.999237,11.554976 70.004410,12.651608 
	C69.160637,12.669702 68.314781,12.326423 67.165421,11.793293 
z"/>
<path fill="#EBE8DD" opacity="1.000000" stroke="none" 
	d="
M31.190350,138.366394 
	C32.420200,138.821243 33.661064,139.607773 34.920601,140.726974 
	C33.693302,140.272461 32.447334,139.485275 31.190350,138.366394 
z"/>
<path fill="#B9C8C8" opacity="1.000000" stroke="none" 
	d="
M50.614799,69.960602 
	C50.115990,70.705063 49.283024,71.436478 48.168961,72.054031 
	C48.685459,71.275963 49.483055,70.611763 50.614799,69.960602 
z"/>
<path fill="#7DA9C7" opacity="1.000000" stroke="none" 
	d="
M41.764629,160.091766 
	C41.886654,160.463867 41.671673,160.696091 41.168037,160.925842 
	C41.116180,160.649551 41.298923,160.325745 41.764629,160.091766 
z"/>
<path fill="#F9FBF9" opacity="1.000000" stroke="none" 
	d="
M98.747040,55.309231 
	C98.694473,55.574329 98.400742,55.601475 98.107002,55.628616 
	C98.239952,55.442841 98.372910,55.257061 98.747040,55.309231 
z"/>
<path fill="#FCFDFB" opacity="1.000000" stroke="none" 
	d="
M50.002361,104.834106 
	C49.691830,103.822762 49.381298,102.811417 49.412197,101.405403 
	C53.161751,100.977211 56.569878,100.943687 60.189003,101.189316 
	C61.975491,101.292816 63.550976,101.117157 65.126457,100.941490 
	C66.483627,100.964706 67.840805,100.987930 69.598312,101.086777 
	C71.455925,102.302040 72.827393,104.272148 74.385788,104.433174 
	C80.193916,105.033318 80.448372,108.741982 79.996918,113.564011 
	C79.992676,114.007072 79.982948,114.016388 79.625618,113.977104 
	C76.821571,112.954521 74.374855,111.971222 71.593071,110.934906 
	C70.246605,109.822433 69.190964,108.801392 68.231796,107.696602 
	C64.849304,103.800606 63.814262,103.901154 60.627148,108.220070 
	C59.869705,109.246498 58.716228,110.685448 57.716209,110.708870 
	C52.791088,110.824234 52.079346,114.502869 50.676487,118.007431 
	C49.572201,118.362434 48.786022,118.682739 47.702377,119.041473 
	C47.087189,119.485809 46.769466,119.891716 46.451748,120.297623 
	C46.967274,120.531174 47.482800,120.764725 47.998856,121.373596 
	C47.999493,122.499596 47.999592,123.250252 47.834263,124.089935 
	C47.779240,124.452232 47.889648,124.725502 48.248947,124.999161 
	C48.497833,124.999542 48.995609,125.001587 49.148487,125.336319 
	C49.539433,127.107224 49.777500,128.543396 50.009285,130.238251 
	C50.000397,130.669418 49.997791,130.841904 49.721237,130.884399 
	C48.632915,130.165970 47.818546,129.577515 46.857174,128.692505 
	C45.167519,127.170944 45.351749,123.526955 42.039772,124.622925 
	C42.507824,121.853554 42.842789,119.428062 43.539566,116.996010 
	C46.149422,115.780174 48.397461,114.570900 50.765335,113.297165 
	C44.190338,106.862686 56.207676,107.950020 54.407875,103.071564 
	C53.116436,103.797112 52.015007,104.415916 50.679760,105.011887 
	C50.445938,104.989059 50.002361,104.834106 50.002361,104.834106 
z"/>
<path fill="#FBFCF8" opacity="1.000000" stroke="none" 
	d="
M110.302299,75.981216 
	C108.770798,75.639023 107.614204,75.299683 106.363800,74.932808 
	C105.517677,68.291283 106.526833,67.016891 114.258652,65.297714 
	C116.091148,64.218048 117.523438,63.565098 119.130005,63.168255 
	C120.275681,63.239902 121.247063,63.055450 122.555252,62.899242 
	C123.584961,62.345253 124.277870,61.763023 124.970779,61.180794 
	C125.401108,61.173527 125.831436,61.166260 126.585861,61.637901 
	C127.561340,64.759071 128.212738,67.401329 128.864120,70.043587 
	C126.022003,71.027489 123.179886,72.011391 118.745590,73.546478 
	C122.063545,75.077446 124.157898,76.043823 126.626778,77.085541 
	C126.691101,78.172386 126.380905,79.183899 126.036407,80.513672 
	C124.945679,80.890564 123.889267,80.949196 122.421387,80.675545 
	C121.364441,74.503105 117.396103,78.601616 114.999390,77.999390 
	C115.292030,73.610130 112.314842,76.233536 110.302299,75.981216 
z"/>
<path fill="#E7E1D2" opacity="1.000000" stroke="none" 
	d="
M65.068497,100.532959 
	C63.550976,101.117157 61.975491,101.292816 60.215828,100.773582 
	C59.116772,95.159966 58.201900,90.241234 57.269951,85.230705 
	C55.587265,85.967743 54.323429,86.521317 53.059593,87.074890 
	C53.962231,82.313309 58.670788,82.608498 61.849442,80.867249 
	C62.221527,83.446144 62.223953,85.794846 62.607956,88.079422 
	C63.286289,92.115021 64.197060,96.111549 65.068497,100.532959 
z"/>
<path fill="#FCFDFB" opacity="1.000000" stroke="none" 
	d="
M114.638214,78.006058 
	C117.396103,78.601616 121.364441,74.503105 122.027168,80.730316 
	C120.485306,83.425842 120.742981,82.973526 118.818283,81.877075 
	C117.203087,80.956940 114.894394,81.254166 112.456512,80.814743 
	C111.997490,80.443459 111.974693,80.269844 111.951889,80.096222 
	C112.726936,79.401726 113.501984,78.707230 114.638214,78.006058 
z"/>
<path fill="#CBE0DC" opacity="1.000000" stroke="none" 
	d="
M111.585609,80.079071 
	C111.974693,80.269844 111.997490,80.443459 112.028481,80.879639 
	C112.036674,83.935944 112.036674,86.729683 112.036674,90.400192 
	C106.222984,89.149757 108.830170,84.707550 107.985992,81.539276 
	C109.046844,80.756607 110.133080,80.409264 111.585609,80.079071 
z"/>
<path fill="#F9F9F7" opacity="1.000000" stroke="none" 
	d="
M94.000359,127.814774 
	C92.627724,128.644775 90.883141,129.182022 89.954613,130.361603 
	C87.510193,133.466980 85.420525,136.851624 82.946877,140.341949 
	C82.569572,140.457504 82.434959,140.356155 82.137123,139.721527 
	C81.983383,138.451813 81.992859,137.715347 82.335831,136.931396 
	C83.432213,135.597565 84.195107,134.311218 85.262177,132.871246 
	C86.375946,131.144669 87.185532,129.571716 88.148605,127.651062 
	C88.199455,124.869095 88.096832,122.434853 87.970901,119.680824 
	C87.627258,118.573196 87.306908,117.785362 86.989723,116.611984 
	C86.937340,115.205765 86.881775,114.185066 86.883873,113.106400 
	C86.941528,113.048424 87.062012,112.937866 87.062012,112.937866 
	C88.021515,115.799461 89.413673,118.601639 89.817200,121.539597 
	C90.210068,124.400009 91.309029,125.001213 93.892975,124.941483 
	C94.012550,126.350655 94.006454,127.082718 94.000359,127.814774 
z"/>
<path fill="#F9F9F7" opacity="1.000000" stroke="none" 
	d="
M101.588669,125.095093 
	C102.000893,125.833954 102.000595,126.497948 102.000748,127.493912 
	C100.086578,128.145187 98.171974,128.464478 96.226730,128.147049 
	C96.463905,126.732758 96.731720,125.955208 96.999542,125.177673 
	C98.391747,125.125191 99.783943,125.072716 101.588669,125.095093 
z"/>
<path fill="#FAFAF8" opacity="1.000000" stroke="none" 
	d="
M96.633865,125.104584 
	C96.731720,125.955208 96.463905,126.732758 96.078552,127.800369 
	C95.522247,128.050232 95.083466,128.010025 94.322525,127.892303 
	C94.006454,127.082718 94.012550,126.350655 94.029861,125.252716 
	C94.783455,124.935066 95.525826,124.983284 96.633865,125.104584 
z"/>
<path fill="#FAFAF8" opacity="1.000000" stroke="none" 
	d="
M83.000137,112.995972 
	C84.053246,112.637268 85.106346,112.278564 86.479301,111.958000 
	C86.799149,111.996132 86.986755,112.451332 87.024384,112.694595 
	C87.062012,112.937866 86.941528,113.048424 86.506699,113.050690 
	C85.047958,113.033958 84.024048,113.014969 83.000137,112.995972 
z"/>
<path fill="#FAFAF8" opacity="1.000000" stroke="none" 
	d="
M93.330368,104.916473 
	C93.319008,104.361145 93.638329,103.880020 93.957657,103.398895 
	C94.275749,103.692871 94.593842,103.986847 94.956055,104.561417 
	C94.553810,104.891571 94.107437,104.941132 93.330368,104.916473 
z"/>
<path fill="#FAFAF8" opacity="1.000000" stroke="none" 
	d="
M83.369270,105.061493 
	C83.661385,104.830650 84.279366,104.544624 84.948746,104.549843 
	C84.565147,104.896156 84.130142,104.951233 83.369270,105.061493 
z"/>
<path fill="#000000" opacity="1.000000" stroke="none" 
	d="
M49.538712,144.978699 
	C48.091797,144.160324 47.075546,143.365707 45.579491,142.107025 
	C39.576668,138.184341 34.135979,134.663818 34.542145,127.033615 
	C38.613815,128.015808 42.275311,129.020004 46.061844,130.348587 
	C49.721531,134.102554 53.544918,136.859756 59.503887,136.826492 
	C56.755783,133.760376 54.620575,131.378082 51.924980,128.370560 
	C54.414009,128.109482 55.711502,127.973373 57.402737,127.909477 
	C60.844028,128.323563 63.891582,128.665451 66.968361,129.442261 
	C67.610168,134.569153 68.222748,139.261139 68.835327,143.953110 
	C62.710796,147.253555 56.322922,145.819443 49.538712,144.978699 
z"/>
<path fill="#000000" opacity="1.000000" stroke="none" 
	d="
M77.958679,137.922211 
	C76.232132,138.945236 74.505585,139.968262 72.405724,140.769562 
	C72.032402,140.547821 72.036926,140.142227 72.398056,139.946930 
	C72.122589,136.136780 71.485985,132.521942 70.924133,128.699432 
	C70.998878,128.491776 71.077492,128.057404 71.314331,128.014511 
	C71.551170,127.971611 72.010101,127.826279 72.253220,127.904770 
	C72.659523,127.934479 72.822701,127.885681 73.404266,127.909233 
	C76.203194,128.338409 78.583733,128.695251 80.999878,129.424316 
	C80.074844,132.205460 79.114197,134.614380 78.081726,137.243027 
	C78.009903,137.462738 77.958679,137.922211 77.958679,137.922211 
z"/>
<path fill="#95B9C9" opacity="1.000000" stroke="none" 
	d="
M72.036926,140.142227 
	C72.036926,140.142227 72.032402,140.547821 72.027039,140.750641 
	C71.201828,141.956955 70.381981,142.960464 69.198730,143.958557 
	C68.222748,139.261139 67.610168,134.569153 66.971291,129.233627 
	C67.311943,128.388733 67.678894,128.187393 68.053772,128.320068 
	C68.375656,129.434860 68.689606,130.215637 68.988579,131.399841 
	C69.994713,134.582916 71.015823,137.362579 72.036926,140.142227 
z"/>
<path fill="#FAFAF8" opacity="1.000000" stroke="none" 
	d="
M78.029800,138.280975 
	C77.958679,137.922211 78.009903,137.462738 78.466454,137.232086 
	C79.949448,136.993912 80.975891,136.986389 82.002335,136.978882 
	C81.992859,137.715347 81.983383,138.451813 81.947418,139.554504 
	C80.647598,139.493713 79.374268,139.066727 78.029800,138.280975 
z"/>
<path fill="#FCFDFB" opacity="1.000000" stroke="none" 
	d="
M82.705872,113.122726 
	C84.024048,113.014969 85.047958,113.033958 86.449043,113.108658 
	C86.881775,114.185066 86.937340,115.205765 86.649170,116.670349 
	C84.608948,119.292343 84.759506,119.549690 87.994202,120.000610 
	C88.096832,122.434853 88.199455,124.869095 87.820610,127.699371 
	C86.226501,128.732162 85.113876,129.368942 83.947624,129.602356 
	C82.590317,124.138123 81.286636,119.077255 79.982948,114.016388 
	C79.982948,114.016388 79.992676,114.007072 79.997116,114.002754 
	C80.804901,113.748787 81.608253,113.499138 82.705872,113.122726 
z"/>
<path fill="#D2BDA5" opacity="1.000000" stroke="none" 
	d="
M128.937256,69.596878 
	C128.212738,67.401329 127.561340,64.759071 126.904243,61.691841 
	C127.595428,61.775753 128.823441,62.220806 128.893646,62.805012 
	C129.144760,64.894554 129.003326,67.031281 128.937256,69.596878 
z"/>
<path fill="#D2BDA5" opacity="1.000000" stroke="none" 
	d="
M124.928253,60.849663 
	C124.277870,61.763023 123.584961,62.345253 122.488159,62.501747 
	C122.071297,60.725471 122.058334,59.374935 122.045372,58.024395 
	C122.510574,58.058289 122.975769,58.092178 123.790497,58.113064 
	C124.388596,58.906216 124.637169,59.712376 124.928253,60.849663 
z"/>
<path fill="#000000" opacity="1.000000" stroke="none" 
	d="
M118.955734,62.912155 
	C117.523438,63.565098 116.091148,64.218048 114.325455,65.009659 
	C113.343025,63.076233 112.693993,61.004135 112.080475,58.507912 
	C114.090630,58.055683 116.065254,58.027576 118.515244,58.424553 
	C118.978981,60.203808 118.967354,61.557980 118.955734,62.912155 
z"/>
<path fill="#000000" opacity="1.000000" stroke="none" 
	d="
M112.467995,54.943611 
	C112.023254,53.545658 112.009277,52.196232 112.056381,50.446495 
	C114.156944,49.435368 116.196426,48.824547 118.597847,48.156067 
	C118.959785,48.098404 118.991890,48.558895 119.006622,49.193932 
	C119.001434,51.524094 118.981514,53.219215 118.961601,54.914341 
	C116.940651,54.940273 114.919708,54.966209 112.467995,54.943611 
z"/>
<path fill="#F1F6F6" opacity="1.000000" stroke="none" 
	d="
M119.140419,55.175110 
	C118.981514,53.219215 119.001434,51.524094 119.089638,49.409286 
	C120.099197,50.744484 121.040474,52.499359 121.992538,54.628235 
	C121.108627,55.146782 120.213928,55.291328 119.140419,55.175110 
z"/>
<path fill="#F1F6F6" opacity="1.000000" stroke="none" 
	d="
M119.130013,63.168259 
	C118.967354,61.557980 118.978981,60.203808 118.937607,58.446754 
	C119.674408,58.030602 120.464203,58.017326 121.649689,58.014221 
	C122.058334,59.374935 122.071297,60.725471 122.151352,62.473503 
	C121.247063,63.055450 120.275681,63.239902 119.130013,63.168259 
z"/>
<path fill="#000000" opacity="1.000000" stroke="none" 
	d="
M58.833866,35.960384 
	C60.938808,32.757038 62.918243,29.461325 65.186920,26.378468 
	C67.133278,23.733606 70.605545,24.609756 72.867722,28.883915 
	C73.297012,32.322548 74.252655,35.076149 73.908539,37.656406 
	C73.435905,41.200302 71.978653,44.612881 70.615746,48.178085 
	C68.502663,50.478378 66.717140,52.682312 64.609543,54.941971 
	C63.858021,55.057896 63.428574,55.118095 62.999126,55.178291 
	C61.313438,55.119766 59.627754,55.061241 57.498833,54.517860 
	C57.259842,52.299671 57.496616,50.569431 57.661900,48.832394 
	C58.070015,44.543385 58.445354,40.251259 58.833866,35.960384 
z"/>
<path fill="#000000" opacity="1.000000" stroke="none" 
	d="
M49.546127,104.911987 
	C50.002361,104.834106 50.445938,104.989059 50.637680,105.365898 
	C48.278866,109.496010 45.728306,113.249290 43.177750,117.002571 
	C42.842789,119.428062 42.507824,121.853554 41.612701,124.642639 
	C38.381500,125.389030 35.710461,125.771843 32.794441,126.074463 
	C32.382355,125.954155 32.215256,125.914032 32.034660,125.439148 
	C33.719505,118.371140 35.417839,111.737877 37.116173,105.104614 
	C41.107414,105.066360 45.098656,105.028114 49.546127,104.911987 
z"/>
<path fill="#000000" opacity="1.000000" stroke="none" 
	d="
M53.036339,87.053726 
	C54.323429,86.521317 55.587265,85.967743 57.269951,85.230705 
	C58.201900,90.241234 59.116772,95.159966 60.004822,100.494431 
	C56.569878,100.943687 53.161751,100.977211 49.377712,101.087219 
	C46.662655,101.108871 44.323513,101.054047 41.495125,100.745010 
	C41.005882,100.490784 40.847786,100.039238 40.972054,99.718567 
	C44.745125,95.636116 48.393932,91.874329 52.303478,88.037598 
	C52.732956,87.659515 52.901699,87.356377 53.070442,87.053238 
	C53.070438,87.053238 53.013084,87.032562 53.036339,87.053726 
z"/>
<path fill="#EBE8DD" opacity="1.000000" stroke="none" 
	d="
M32.048153,125.873901 
	C32.215256,125.914032 32.382355,125.954155 32.923691,126.280472 
	C33.536880,126.796280 33.814896,126.959259 34.131973,127.055626 
	C34.135979,134.663818 39.576668,138.184341 45.309917,141.900726 
	C45.433762,142.311264 45.347378,142.464066 44.712967,142.816162 
	C43.108295,143.009262 42.051647,143.003067 40.994995,142.996857 
	C40.994995,142.996857 40.999714,143.000000 41.001659,143.001770 
	C38.543991,140.127884 35.996552,137.321365 33.658245,134.350250 
	C32.291172,132.613220 31.258020,130.613388 30.043936,128.377380 
	C30.288750,127.808296 30.564276,127.593613 31.179661,127.034142 
	C31.789946,126.478668 31.966158,126.206848 32.048153,125.873901 
z"/>
<path fill="#EDD3B0" opacity="1.000000" stroke="none" 
	d="
M32.034660,125.439148 
	C31.966158,126.206848 31.789946,126.478668 31.300360,126.798149 
	C29.094824,120.610687 30.627918,114.632019 32.989628,108.836739 
	C33.584129,107.377907 35.221458,106.344040 36.747864,105.109749 
	C35.417839,111.737877 33.719505,118.371140 32.034660,125.439148 
z"/>
<path fill="#F1DDC2" opacity="1.000000" stroke="none" 
	d="
M52.042744,88.112541 
	C48.393932,91.874329 44.745125,95.636116 40.774345,99.816864 
	C40.212238,100.434731 40.078060,100.689461 40.049843,101.000015 
	C39.435520,100.646843 38.821198,100.293671 38.206871,99.940498 
	C42.559933,95.633095 46.912998,91.325691 51.636154,87.288376 
	C52.018410,87.743149 52.030579,87.927841 52.042744,88.112541 
z"/>
<path fill="#6C93B4" opacity="1.000000" stroke="none" 
	d="
M70.943298,48.081726 
	C71.978653,44.612881 73.435905,41.200302 73.908539,37.656406 
	C74.252655,35.076149 73.297012,32.322548 73.025818,29.214878 
	C74.108414,30.615946 75.086029,32.448360 76.138962,34.651077 
	C76.115631,36.328716 76.016991,37.636055 75.652893,39.595825 
	C75.265404,41.150532 75.143349,42.052807 75.021301,42.955078 
	C75.021301,42.955078 74.981247,42.941765 74.731285,43.137047 
	C74.336639,43.892662 74.191948,44.452991 74.047256,45.013321 
	C74.047256,45.013321 73.995461,45.009666 73.779907,45.200714 
	C73.394127,45.932774 73.223900,46.473782 73.053680,47.014790 
	C73.053680,47.014790 72.997734,47.005779 72.767548,47.182442 
	C72.384422,47.912106 72.231476,48.465103 72.078522,49.018101 
	C72.078522,49.018101 72.018555,49.016251 71.753174,48.993763 
	C71.306297,48.674759 71.124802,48.378242 70.943298,48.081726 
z"/>
<path fill="#EFD7B3" opacity="1.000000" stroke="none" 
	d="
M58.566338,36.197563 
	C58.445354,40.251259 58.070015,44.543385 57.661900,48.832394 
	C57.496616,50.569431 57.259842,52.299671 57.080097,54.463757 
	C56.639629,54.922752 56.174664,54.951000 55.360210,54.986122 
	C56.106750,48.806915 57.202778,42.620827 58.566338,36.197563 
z"/>
<path fill="#CBE2EF" opacity="1.000000" stroke="none" 
	d="
M70.615738,48.178085 
	C71.124802,48.378242 71.306297,48.674759 71.759964,49.022984 
	C71.256615,52.537804 70.245689,55.786537 65.396889,55.655838 
	C64.969406,55.228218 64.950508,55.057228 64.931618,54.886246 
	C66.717140,52.682312 68.502663,50.478378 70.615738,48.178085 
z"/>
<path fill="#F3F9F7" opacity="1.000000" stroke="none" 
	d="
M31.329865,93.936127 
	C31.472343,93.100998 31.958344,92.220329 32.719734,91.189316 
	C32.554546,91.989502 32.113964,92.940048 31.329865,93.936127 
z"/>
<path fill="#F0F3EE" opacity="1.000000" stroke="none" 
	d="
M77.973946,35.308701 
	C78.293289,35.803951 78.590981,36.582184 78.830933,37.687344 
	C78.499565,37.206741 78.225929,36.399212 77.973946,35.308701 
z"/>
<path fill="#F8F9FA" opacity="1.000000" stroke="none" 
	d="
M64.609543,54.941971 
	C64.950508,55.057228 64.969406,55.228218 65.026184,55.653572 
	C64.403770,55.854042 63.743484,55.800140 63.041161,55.462265 
	C63.428574,55.118095 63.858021,55.057896 64.609543,54.941971 
z"/>
<path fill="#F0F3EE" opacity="1.000000" stroke="none" 
	d="
M75.291489,42.730640 
	C75.143349,42.052807 75.265404,41.150532 75.617279,39.987823 
	C75.751968,40.653656 75.656822,41.579929 75.291489,42.730640 
z"/>
<path fill="#CBE2EF" opacity="1.000000" stroke="none" 
	d="
M74.288940,44.836037 
	C74.191948,44.452991 74.336639,43.892662 74.712837,43.147308 
	C74.806442,43.527779 74.668533,44.093266 74.288940,44.836037 
z"/>
<path fill="#F3F9F7" opacity="1.000000" stroke="none" 
	d="
M24.360912,109.770172 
	C24.238752,109.384262 24.344189,108.803558 24.686577,108.028717 
	C24.811855,108.414848 24.700182,108.995110 24.360912,109.770172 
z"/>
<path fill="#CBE2EF" opacity="1.000000" stroke="none" 
	d="
M73.297279,46.851158 
	C73.223900,46.473782 73.394127,45.932774 73.798676,45.218681 
	C73.868965,45.592903 73.704918,46.140213 73.297279,46.851158 
z"/>
<path fill="#CBE2EF" opacity="1.000000" stroke="none" 
	d="
M72.318359,48.853046 
	C72.231476,48.465103 72.384422,47.912106 72.785339,47.204494 
	C72.874939,47.595921 72.716568,48.141956 72.318359,48.853046 
z"/>
<path fill="#F3F9F7" opacity="1.000000" stroke="none" 
	d="
M23.884903,119.042358 
	C23.621096,119.099754 23.440239,118.864647 23.377903,118.334549 
	C23.650017,118.288437 23.807159,118.525200 23.884903,119.042358 
z"/>
<path fill="#F3F9F7" opacity="1.000000" stroke="none" 
	d="
M29.392117,96.837982 
	C29.206518,96.633804 29.332302,96.375610 29.786846,96.076904 
	C29.925928,96.265236 29.788557,96.514427 29.392117,96.837982 
z"/>
<path fill="#FAFAF8" opacity="1.000000" stroke="none" 
	d="
M40.314865,100.991302 
	C40.078060,100.689461 40.212238,100.434731 40.650078,100.137527 
	C40.847786,100.039238 41.005882,100.490784 41.057762,100.724289 
	C40.933060,100.966057 40.756477,100.974327 40.314865,100.991302 
z"/>
<path fill="#F3F9F7" opacity="1.000000" stroke="none" 
	d="
M23.568964,114.722977 
	C23.311613,114.572487 23.356287,114.287773 23.720596,113.870956 
	C23.926756,114.017525 23.870342,114.300827 23.568964,114.722977 
z"/>
<path fill="#E7E1D2" opacity="1.000000" stroke="none" 
	d="
M52.303478,88.037598 
	C52.030579,87.927841 52.018410,87.743149 52.004181,87.281036 
	C52.180340,87.002441 52.358555,87.001266 52.803608,87.026657 
	C52.901699,87.356377 52.732956,87.659515 52.303478,88.037598 
z"/>
<path fill="#F3F9F7" opacity="1.000000" stroke="none" 
	d="
M28.307777,98.852325 
	C28.112259,98.629478 28.254507,98.344070 28.737129,97.994919 
	C28.911224,98.206841 28.767237,98.493042 28.307777,98.852325 
z"/>
<path fill="#F3F9F7" opacity="1.000000" stroke="none" 
	d="
M30.379906,94.846451 
	C30.158546,94.625160 30.278845,94.359001 30.772385,94.077332 
	C30.919989,94.279716 30.778635,94.526299 30.379906,94.846451 
z"/>
<path fill="#EDFAFB" opacity="1.000000" stroke="none" 
	d="
M41.175461,143.262390 
	C42.051647,143.003067 43.108295,143.009262 44.559067,143.029785 
	C43.754097,143.205383 42.555008,143.366653 41.175461,143.262390 
z"/>
<path fill="#E4EEEE" opacity="1.000000" stroke="none" 
	d="
M79.625618,113.977104 
	C81.286636,119.077255 82.590317,124.138123 83.944122,129.939743 
	C84.315491,131.461960 84.636742,132.243408 84.957993,133.024872 
	C84.195107,134.311218 83.432213,135.597565 82.335831,136.931396 
	C80.975891,136.986389 79.949448,136.993912 78.538284,137.012360 
	C79.114197,134.614380 80.074844,132.205460 81.006485,129.084076 
	C80.313065,127.301865 79.648643,126.232086 79.347458,124.984810 
	C81.554916,117.877129 75.589027,115.634354 71.977921,111.720169 
	C71.953529,111.476685 71.928139,110.987923 71.928139,110.987923 
	C74.374855,111.971222 76.821571,112.954521 79.625618,113.977104 
z"/>
<path fill="#F9FBF9" opacity="1.000000" stroke="none" 
	d="
M71.593071,110.934906 
	C71.928139,110.987923 71.953529,111.476685 71.600220,111.725121 
	C70.495041,111.926353 69.743164,111.879150 68.725250,111.598587 
	C66.618927,111.597816 64.778641,111.830406 62.582577,112.121643 
	C58.840153,114.132561 55.453506,116.084816 51.798721,118.022186 
	C51.351921,117.995781 51.173256,117.984261 50.994595,117.972740 
	C52.079346,114.502869 52.791088,110.824234 57.716209,110.708870 
	C58.716228,110.685448 59.869705,109.246498 60.627148,108.220070 
	C63.814262,103.901154 64.849304,103.800606 68.231796,107.696602 
	C69.190964,108.801392 70.246605,109.822433 71.593071,110.934906 
z"/>
<path fill="#E4EEEE" opacity="1.000000" stroke="none" 
	d="
M57.008995,127.837273 
	C55.711502,127.973373 54.414009,128.109482 51.924980,128.370560 
	C54.620575,131.378082 56.755783,133.760376 59.503887,136.826492 
	C53.544918,136.859756 49.721531,134.102554 46.290054,130.232819 
	C46.596878,129.524811 46.800529,129.256943 47.004181,128.989059 
	C47.818546,129.577515 48.632915,130.165970 49.747341,131.138000 
	C50.220268,131.745514 50.393139,131.969452 50.566010,132.193390 
	C50.382526,131.455460 50.199047,130.717514 50.015564,129.979584 
	C49.777500,128.543396 49.539433,127.107224 49.186428,125.041710 
	C49.997242,124.276184 50.922997,124.139984 52.009060,124.332565 
	C53.118862,124.827919 54.068352,124.994507 55.152531,125.353165 
	C55.532688,125.748924 55.810383,125.888527 56.349670,125.981537 
	C56.579037,125.999039 57.008995,126.162735 57.005074,126.441811 
	C57.003761,127.093018 57.006378,127.465141 57.008995,127.837273 
z"/>
<path fill="#F9FBF9" opacity="1.000000" stroke="none" 
	d="
M43.539566,116.996010 
	C45.728306,113.249290 48.278866,109.496010 50.871502,105.388733 
	C52.015007,104.415916 53.116436,103.797112 54.407875,103.071564 
	C56.207676,107.950020 44.190338,106.862686 50.765335,113.297165 
	C48.397461,114.570900 46.149422,115.780174 43.539566,116.996010 
z"/>
<path fill="#F1F6F6" opacity="1.000000" stroke="none" 
	d="
M46.857174,128.692505 
	C46.800529,129.256943 46.596878,129.524811 46.165016,129.908447 
	C42.275311,129.020004 38.613815,128.015808 34.542145,127.033615 
	C33.814896,126.959259 33.536880,126.796280 33.168674,126.360664 
	C35.710461,125.771843 38.381500,125.389030 41.479610,124.986511 
	C45.351749,123.526955 45.167519,127.170944 46.857174,128.692505 
z"/>
<path fill="#FAFAF8" opacity="1.000000" stroke="none" 
	d="
M51.848747,124.003784 
	C50.922997,124.139984 49.997242,124.276184 49.033550,124.706985 
	C48.995609,125.001587 48.497833,124.999542 48.248867,124.749702 
	C47.999901,124.499863 47.999695,124.000916 47.999695,124.000916 
	C47.999592,123.250252 47.999493,122.499596 47.999416,121.041069 
	C47.999577,119.889824 47.999714,119.446434 47.999847,119.003052 
	C48.786022,118.682739 49.572201,118.362434 50.676487,118.007431 
	C51.173256,117.984261 51.351921,117.995781 51.672016,118.363251 
	C51.825214,120.480736 51.836983,122.242256 51.848747,124.003784 
z"/>
<path fill="#F9FBF9" opacity="1.000000" stroke="none" 
	d="
M47.702377,119.041473 
	C47.999714,119.446434 47.999577,119.889824 47.998882,120.665741 
	C47.482800,120.764725 46.967274,120.531174 46.451748,120.297623 
	C46.769466,119.891716 47.087189,119.485809 47.702377,119.041473 
z"/>
<path fill="#FAFAF8" opacity="1.000000" stroke="none" 
	d="
M50.009285,130.238251 
	C50.199047,130.717514 50.382526,131.455460 50.566010,132.193390 
	C50.393139,131.969452 50.220268,131.745514 50.021294,131.267975 
	C49.997791,130.841904 50.000397,130.669418 50.009285,130.238251 
z"/>
<path fill="#F9FBF9" opacity="1.000000" stroke="none" 
	d="
M47.834263,124.089935 
	C47.999695,124.000916 47.999901,124.499863 47.999977,124.749321 
	C47.889648,124.725502 47.779240,124.452232 47.834263,124.089935 
z"/>
<path fill="#FAFAF8" opacity="1.000000" stroke="none" 
	d="
M85.262177,132.871246 
	C84.636742,132.243408 84.315491,131.461960 83.997742,130.343109 
	C85.113876,129.368942 86.226501,128.732162 87.667130,128.047089 
	C87.185532,129.571716 86.375946,131.144669 85.262177,132.871246 
z"/>
<path fill="#FAFAF8" opacity="1.000000" stroke="none" 
	d="
M87.970901,119.680824 
	C84.759506,119.549690 84.608948,119.292343 86.645996,117.055885 
	C87.306908,117.785362 87.627258,118.573196 87.970901,119.680824 
z"/>
<path fill="#FCFDFB" opacity="1.000000" stroke="none" 
	d="
M57.402737,127.909477 
	C57.006378,127.465141 57.003761,127.093018 57.378700,126.259293 
	C60.492512,125.513527 63.228764,125.229355 66.134338,125.209274 
	C66.897644,125.613655 67.491631,125.753937 68.381950,125.882141 
	C69.132576,125.544632 69.586861,125.219223 70.485184,124.951431 
	C73.614220,125.060135 76.299217,125.111221 78.984222,125.162315 
	C79.648643,126.232086 80.313065,127.301865 80.970879,128.711868 
	C78.583733,128.695251 76.203194,128.338409 73.313194,127.765594 
	C72.539192,127.641838 72.274651,127.734062 72.010101,127.826279 
	C72.010101,127.826279 71.551170,127.971611 71.054810,127.992386 
	C70.384666,128.011780 70.210884,128.010406 69.786148,128.003922 
	C69.367828,127.999474 69.200485,128.000122 68.786423,127.989502 
	C68.539719,127.978233 68.045837,127.986038 68.045837,127.986038 
	C67.678894,128.187393 67.311943,128.388733 66.942062,128.798706 
	C63.891582,128.665451 60.844028,128.323563 57.402737,127.909477 
z"/>
<path fill="#E6DAC4" opacity="1.000000" stroke="none" 
	d="
M69.033134,128.000778 
	C69.200485,128.000122 69.367828,127.999474 69.860458,128.202332 
	C70.341537,128.659531 70.562752,128.826614 70.849380,128.907104 
	C71.485985,132.521942 72.122589,136.136780 72.398056,139.946930 
	C71.015823,137.362579 69.994713,134.582916 68.985153,131.025421 
	C69.008850,129.498642 69.020988,128.749710 69.033134,128.000778 
z"/>
<path fill="#E4EEEE" opacity="1.000000" stroke="none" 
	d="
M70.924133,128.699432 
	C70.562752,128.826614 70.341537,128.659531 70.111420,128.207443 
	C70.210884,128.010406 70.384666,128.011780 70.817963,128.035278 
	C71.077492,128.057404 70.998878,128.491776 70.924133,128.699432 
z"/>
<path fill="#E4EEEE" opacity="1.000000" stroke="none" 
	d="
M72.253220,127.904778 
	C72.274651,127.734062 72.539192,127.641838 72.894806,127.693253 
	C72.822701,127.885681 72.659523,127.934479 72.253220,127.904778 
z"/>
<path fill="#E4EEEE" opacity="1.000000" stroke="none" 
	d="
M68.786423,127.989502 
	C69.020988,128.749710 69.008850,129.498642 69.000130,130.621994 
	C68.689606,130.215637 68.375656,129.434860 68.053772,128.320068 
	C68.045837,127.986038 68.539719,127.978233 68.786423,127.989502 
z"/>
<path fill="#000000" opacity="1.000000" stroke="none" 
	d="
M79.347458,124.984810 
	C76.299217,125.111221 73.614220,125.060135 70.476334,124.538696 
	C69.679398,119.989548 69.335342,115.910751 68.991287,111.831947 
	C69.743164,111.879150 70.495041,111.926353 71.624619,111.968613 
	C75.589027,115.634354 81.554916,117.877129 79.347458,124.984810 
z"/>
<path fill="#000000" opacity="1.000000" stroke="none" 
	d="
M65.965019,124.945190 
	C63.228764,125.229355 60.492512,125.513527 57.382626,125.980209 
	C57.008995,126.162735 56.579037,125.999039 56.260380,125.727112 
	C55.633762,125.357147 55.325802,125.259125 55.017841,125.161095 
	C54.068352,124.994507 53.118862,124.827919 52.009060,124.332565 
	C51.836983,122.242256 51.825214,120.480736 51.940155,118.378143 
	C55.453506,116.084816 58.840153,114.132561 62.609169,112.514343 
	C64.050072,116.245354 65.108604,119.642342 66.092270,123.351181 
	C65.999939,124.090424 65.982483,124.517807 65.965019,124.945190 
z"/>
<path fill="#E6E0CE" opacity="1.000000" stroke="none" 
	d="
M66.167137,123.039322 
	C65.108604,119.642342 64.050072,116.245354 62.964951,112.455681 
	C64.778641,111.830406 66.618927,111.597816 68.725250,111.598587 
	C69.335342,115.910751 69.679398,119.989548 70.032303,124.481079 
	C69.586861,125.219223 69.132576,125.544632 68.352676,125.554138 
	C67.407089,124.505257 66.787117,123.772293 66.167137,123.039322 
z"/>
<path fill="#F9FBF9" opacity="1.000000" stroke="none" 
	d="
M55.152531,125.353165 
	C55.325802,125.259125 55.633762,125.357147 56.031013,125.709610 
	C55.810383,125.888527 55.532688,125.748924 55.152531,125.353165 
z"/>
<path fill="#E4EEEE" opacity="1.000000" stroke="none" 
	d="
M66.092270,123.351181 
	C66.787117,123.772293 67.407089,124.505257 68.056343,125.566223 
	C67.491631,125.753937 66.897644,125.613655 66.134338,125.209274 
	C65.982483,124.517807 65.999939,124.090424 66.092270,123.351181 
z"/>
</svg>