<svg version="1.1" id="Layer_1" xmlns="http://www.w3.org/2000/svg" xmlns:xlink="http://www.w3.org/1999/xlink" x="0px" y="0px"
	 width="100%" viewBox="0 0 452 312" enable-background="new 0 0 452 312" xml:space="preserve">
<path fill="#000000" opacity="1.000000" stroke="none" 
	d="
M453.000000,247.000000 
	C453.000000,264.020905 453.000000,281.041779 452.537109,298.531372 
	C404.179871,298.666687 356.286011,298.203064 308.391083,298.036621 
	C260.415894,297.869934 212.439285,297.880280 164.464005,298.033752 
	C116.669472,298.186646 68.860596,297.308960 20.768629,299.663086 
	C21.710600,301.437073 22.910065,302.796936 24.210701,302.901794 
	C30.942703,303.444458 37.701172,303.968903 44.449322,303.955353 
	C180.632965,303.681671 316.816467,303.333313 453.000000,303.000000 
	C453.000000,306.332214 453.000000,309.664429 453.000000,312.997498 
	C302.385254,312.998322 151.770477,312.998322 1.077862,312.998322 
	C1.077862,209.087021 1.077862,105.173950 1.077862,1.130444 
	C151.666595,1.130444 302.333282,1.130444 453.000000,1.130444 
	C453.000000,24.411955 453.000000,47.737320 452.606750,71.850967 
	C441.026276,72.092834 429.840179,71.101646 418.651672,71.073837 
	C356.658386,70.919731 294.664520,71.000000 232.670853,71.000000 
	C230.886536,71.000000 229.102219,71.000000 227.428497,71.000000 
	C226.772308,64.367722 227.248337,57.819626 225.285156,52.110260 
	C222.618729,44.355770 218.794693,36.753555 214.133911,30.007088 
	C210.290680,24.444040 205.405869,18.866610 198.290924,17.068390 
	C183.580414,13.350483 168.927246,13.435590 154.818573,19.703011 
	C141.797974,25.487078 135.142731,36.154381 138.952850,50.278286 
	C140.824295,57.215652 148.064117,63.291061 156.053940,63.976788 
	C161.106308,64.410400 167.224731,60.007282 170.035294,53.915115 
	C174.933075,43.298702 168.449356,33.007339 156.858078,33.000225 
	C154.336212,32.998676 151.814331,33.000000 149.292465,33.000000 
	C149.792542,30.680899 150.421906,29.440165 151.406708,29.006426 
	C156.938782,26.569899 162.444366,22.745750 168.167709,22.340145 
	C181.112183,21.422789 184.454147,19.936104 191.084305,33.505493 
	C192.349564,36.094982 193.805847,38.639027 194.681335,41.362415 
	C197.765472,50.956276 200.109482,60.682686 198.689117,70.653000 
	C174.903030,70.653000 151.498383,70.653000 127.706642,70.653000 
	C127.706642,51.894287 127.706642,33.481277 127.706642,15.352795 
	C124.233047,15.352795 121.157455,15.352795 117.699188,15.352795 
	C117.699188,34.112171 117.699188,52.520184 117.699188,70.643036 
	C113.217941,70.643036 109.143684,70.643036 104.683807,70.643036 
	C104.683807,51.880280 104.683807,33.473278 104.683807,15.361902 
	C95.538193,15.361902 86.795143,15.361902 77.670547,15.361902 
	C77.670547,34.130398 77.670547,52.537945 77.670547,71.698410 
	C58.561165,71.698410 39.852802,71.698410 21.331240,71.698410 
	C20.347158,76.103119 22.033211,77.097359 25.463068,77.051819 
	C36.126766,76.910225 46.793537,76.999992 57.459114,77.000000 
	C64.227127,77.000008 70.995148,77.000000 77.723602,77.000000 
	C77.723602,93.953606 77.723602,110.358177 77.723602,127.545181 
	C58.752861,127.545181 40.056194,127.545181 21.480064,127.545181 
	C20.208708,132.314209 22.227041,133.069290 25.713987,133.046341 
	C41.711662,132.940994 57.710426,132.994125 73.708778,133.010132 
	C75.126862,133.011551 76.544792,133.155365 77.634827,133.215073 
	C77.634827,150.799515 77.634827,167.872879 77.634827,185.000000 
	C60.105553,185.000000 42.941101,185.052444 25.777491,184.955704 
	C22.348528,184.936401 20.185398,185.557648 21.520052,190.580780 
	C40.120354,190.580780 58.939667,190.580780 77.729698,190.580780 
	C77.729698,208.274612 77.729698,225.012375 77.729698,242.000000 
	C68.488869,242.000000 59.515980,241.999863 50.543091,242.000046 
	C42.043957,242.000229 33.541706,241.886139 25.048855,242.117279 
	C23.681543,242.154495 22.356136,243.731369 21.011360,244.596512 
	C22.375860,245.397659 23.708321,246.827972 25.109985,246.899353 
	C35.326668,247.419632 45.557869,247.973785 55.783367,247.953476 
	C188.189011,247.690384 320.594482,247.333328 453.000000,247.000000 
z"/>
<path fill="#FFFFFF" opacity="1.000000" stroke="none" 
	d="
M453.000000,246.600006 
	C320.594482,247.333328 188.189011,247.690384 55.783367,247.953476 
	C45.557869,247.973785 35.326668,247.419632 25.109985,246.899353 
	C23.708321,246.827972 22.375860,245.397659 21.011360,244.596512 
	C22.356136,243.731369 23.681543,242.154495 25.048855,242.117279 
	C33.541706,241.886139 42.043957,242.000229 50.543091,242.000046 
	C59.515980,241.999863 68.488869,242.000000 77.729698,242.000000 
	C77.729698,225.012375 77.729698,208.274612 77.729698,190.580780 
	C58.939667,190.580780 40.120354,190.580780 21.520052,190.580780 
	C20.185398,185.557648 22.348528,184.936401 25.777491,184.955704 
	C42.941101,185.052444 60.105553,185.000000 77.634827,185.000000 
	C77.634827,167.872879 77.634827,150.799515 77.634827,133.215073 
	C76.544792,133.155365 75.126862,133.011551 73.708778,133.010132 
	C57.710426,132.994125 41.711662,132.940994 25.713987,133.046341 
	C22.227041,133.069290 20.208708,132.314209 21.480064,127.545181 
	C40.056194,127.545181 58.752861,127.545181 77.723602,127.545181 
	C77.723602,110.358177 77.723602,93.953606 77.723602,77.000000 
	C70.995148,77.000000 64.227127,77.000008 57.459114,77.000000 
	C46.793537,76.999992 36.126766,76.910225 25.463068,77.051819 
	C22.033211,77.097359 20.347158,76.103119 21.331240,71.698410 
	C39.852802,71.698410 58.561165,71.698410 77.670547,71.698410 
	C77.670547,52.537945 77.670547,34.130398 77.670547,15.361902 
	C86.795143,15.361902 95.538193,15.361902 104.683807,15.361902 
	C104.683807,33.473278 104.683807,51.880280 104.683807,70.643036 
	C109.143684,70.643036 113.217941,70.643036 117.699188,70.643036 
	C117.699188,52.520184 117.699188,34.112171 117.699188,15.352795 
	C121.157455,15.352795 124.233047,15.352795 127.706642,15.352795 
	C127.706642,33.481277 127.706642,51.894287 127.706642,70.653000 
	C151.498383,70.653000 174.903030,70.653000 198.689117,70.653000 
	C200.109482,60.682686 197.765472,50.956276 194.681335,41.362415 
	C193.805847,38.639027 192.349564,36.094982 191.084305,33.505493 
	C184.454147,19.936104 181.112183,21.422789 168.167709,22.340145 
	C162.444366,22.745750 156.938782,26.569899 151.406708,29.006426 
	C150.421906,29.440165 149.792542,30.680899 149.292465,33.000000 
	C151.814331,33.000000 154.336212,32.998676 156.858078,33.000225 
	C168.449356,33.007339 174.933075,43.298702 170.035294,53.915115 
	C167.224731,60.007282 161.106308,64.410400 156.053940,63.976788 
	C148.064117,63.291061 140.824295,57.215652 138.952850,50.278286 
	C135.142731,36.154381 141.797974,25.487078 154.818573,19.703011 
	C168.927246,13.435590 183.580414,13.350483 198.290924,17.068390 
	C205.405869,18.866610 210.290680,24.444040 214.133911,30.007088 
	C218.794693,36.753555 222.618729,44.355770 225.285156,52.110260 
	C227.248337,57.819626 226.772308,64.367722 227.428497,71.000000 
	C229.102219,71.000000 230.886536,71.000000 232.670853,71.000000 
	C294.664520,71.000000 356.658386,70.919731 418.651672,71.073837 
	C429.840179,71.101646 441.026276,72.092834 452.606750,72.319626 
	C453.000000,73.066673 453.000000,74.133339 452.562988,75.600014 
	C445.394867,76.333344 438.664062,76.948997 431.932617,76.956291 
	C365.272552,77.028511 298.612366,77.000000 231.952194,77.000000 
	C230.136154,77.000000 228.320129,77.000000 226.541641,77.000000 
	C220.811188,116.927254 188.565796,129.683899 158.963470,110.606667 
	C157.094391,116.015709 155.292603,121.230026 153.298859,126.999893 
	C155.435822,126.999893 156.257828,126.997391 157.079788,127.000244 
	C253.156296,127.333237 349.232849,127.659096 445.309174,128.040771 
	C447.874023,128.050949 450.436432,128.666672 453.000000,129.000000 
	C453.000000,129.750000 453.000000,130.500000 452.560242,131.625000 
	C449.381714,132.333344 446.644257,132.946426 443.903992,132.959335 
	C362.488586,133.342743 281.072937,133.674179 199.657257,133.992554 
	C186.158066,134.045349 172.658493,134.000000 159.159088,134.000000 
	C157.516754,134.000000 155.874405,134.000000 153.500610,134.000000 
	C154.809433,138.480057 155.901688,142.454208 157.138428,146.382858 
	C158.268250,149.971924 160.354553,150.906937 163.730392,148.733475 
	C170.472900,144.392441 177.705750,142.751480 185.919998,142.790436 
	C202.060608,142.866959 213.077530,150.329437 219.882599,164.240631 
	C223.057251,170.730438 224.793991,177.923630 227.252655,185.000000 
	C296.320190,185.000000 365.814056,184.975876 435.307800,185.043350 
	C441.205505,185.049072 447.102600,185.666656 453.000000,186.000000 
	C453.000000,187.066666 453.000000,188.133347 452.531860,189.600006 
	C377.087219,190.497910 302.110779,190.995819 228.610260,191.483917 
	C226.338562,201.006500 224.728073,210.244949 221.863449,219.076614 
	C218.908295,228.187393 213.260956,235.829056 205.092178,241.415909 
	C205.237885,241.943939 205.383591,242.471970 205.529297,243.000000 
	C288.019531,243.000000 370.509766,243.000000 453.000000,243.000000 
	C453.000000,244.066666 453.000000,245.133347 453.000000,246.600006 
M172.383728,240.000000 
	C179.696426,242.114639 185.116608,239.069672 188.874771,233.169647 
	C191.342789,229.294998 193.342163,224.953262 194.668411,220.554489 
	C197.555267,210.979767 200.394516,201.296021 198.626343,191.341461 
	C174.880096,191.341461 151.492355,191.341461 128.325836,191.341461 
	C128.325836,208.411118 128.325836,225.138153 128.325836,241.713516 
	C136.038391,241.713516 143.422516,241.713516 151.833054,241.713516 
	C150.426926,240.381287 149.776123,239.587875 148.965790,239.023560 
	C137.374954,230.951614 134.330490,216.288147 142.284821,205.411774 
	C145.574127,200.914169 150.664505,197.792236 155.954056,198.306900 
	C162.404709,198.934540 169.092957,201.223969 170.651428,209.165985 
	C172.774734,219.986359 169.389755,229.749298 155.738510,229.016663 
	C153.529221,228.898102 151.308121,229.000000 149.092468,229.000000 
	C155.021683,236.563126 162.996048,238.854797 172.383728,240.000000 
M134.316345,125.130493 
	C144.907166,113.866585 146.980774,99.040115 151.048965,84.798584 
	C152.450089,86.633362 153.269379,88.448936 153.982666,90.305237 
	C155.952072,95.430534 157.868637,100.821953 163.057983,103.442719 
	C170.774628,107.339828 179.003677,109.825630 187.013199,104.412041 
	C196.548462,97.967216 197.225418,87.416611 199.313889,77.231766 
	C175.152298,77.231766 151.740601,77.231766 128.175125,77.231766 
	C128.175125,93.897224 128.175125,110.330788 128.175125,127.493454 
	C130.285736,126.839302 132.051239,126.292107 134.316345,125.130493 
M135.033630,137.369080 
	C133.077545,135.655548 131.121475,133.942017 128.216217,131.397003 
	C128.216217,150.455612 128.216217,167.548096 128.216217,184.812073 
	C151.840347,184.812073 175.248169,184.812073 200.224014,184.812073 
	C197.832138,177.443329 195.989029,170.534317 193.267075,163.990906 
	C192.191925,161.406265 189.492538,159.056610 186.958008,157.599838 
	C178.301041,152.624039 161.038513,153.852219 155.886795,167.441742 
	C154.351898,171.490570 152.148499,175.285965 149.740646,180.250549 
	C147.981949,171.923874 147.146286,164.684937 144.838150,157.950668 
	C142.468536,151.036926 138.660019,144.616348 135.033630,137.369080 
M105.000000,177.439316 
	C105.000000,179.877594 105.000000,182.315872 105.000000,184.730774 
	C109.609886,184.730774 113.682426,184.730774 117.731186,184.730774 
	C117.731186,167.389313 117.731186,150.318481 117.731186,133.272156 
	C113.384239,133.272156 109.311577,133.272156 105.000000,133.272156 
	C105.000000,147.847168 105.000000,162.151505 105.000000,177.439316 
M109.575089,191.000000 
	C108.137802,191.000000 106.700516,191.000000 105.264114,191.000000 
	C105.264114,208.264008 105.264114,225.003235 105.264114,241.731995 
	C109.606400,241.731995 113.678596,241.731995 117.729736,241.731995 
	C117.729736,224.723022 117.729736,207.983490 117.729736,191.000000 
	C115.154388,191.000000 112.846794,191.000000 109.575089,191.000000 
M117.999992,123.346573 
	C117.999992,107.929543 117.999992,92.512520 117.999992,77.345222 
	C113.241585,77.345222 109.167709,77.345222 105.345276,77.345222 
	C105.345276,94.099075 105.345276,110.506439 105.345276,126.999756 
	C108.851685,126.999756 112.036682,127.216545 115.161095,126.876526 
	C116.188026,126.764778 117.057999,125.210670 117.999992,123.346573 
z"/>
<path fill="#000000" opacity="1.000000" stroke="none" 
	d="
M453.000000,185.531342 
	C447.102600,185.666656 441.205505,185.049072 435.307800,185.043350 
	C365.814056,184.975876 296.320190,185.000000 227.252655,185.000000 
	C224.793991,177.923630 223.057251,170.730438 219.882599,164.240631 
	C213.077530,150.329437 202.060608,142.866959 185.919998,142.790436 
	C177.705750,142.751480 170.472900,144.392441 163.730392,148.733475 
	C160.354553,150.906937 158.268250,149.971924 157.138428,146.382858 
	C155.901688,142.454208 154.809433,138.480057 153.500610,134.000000 
	C155.874405,134.000000 157.516754,134.000000 159.159088,134.000000 
	C172.658493,134.000000 186.158066,134.045349 199.657257,133.992554 
	C281.072937,133.674179 362.488586,133.342743 443.903992,132.959335 
	C446.644257,132.946426 449.381714,132.333344 452.560242,132.000000 
	C453.000000,149.687561 453.000000,167.375122 453.000000,185.531342 
z"/>
<path fill="#000000" opacity="1.000000" stroke="none" 
	d="
M453.000000,128.531342 
	C450.436432,128.666672 447.874023,128.050949 445.309174,128.040771 
	C349.232849,127.659096 253.156296,127.333237 157.079788,127.000244 
	C156.257828,126.997391 155.435822,126.999893 153.298859,126.999893 
	C155.292603,121.230026 157.094391,116.015709 158.963470,110.606667 
	C188.565796,129.683899 220.811188,116.927254 226.541641,77.000000 
	C228.320129,77.000000 230.136154,77.000000 231.952194,77.000000 
	C298.612366,77.000000 365.272552,77.028511 431.932617,76.956291 
	C438.664062,76.948997 445.394867,76.333344 452.562988,76.000008 
	C453.000000,93.354225 453.000000,110.708458 453.000000,128.531342 
z"/>
<path fill="#000000" opacity="1.000000" stroke="none" 
	d="
M453.000000,242.531342 
	C370.509766,243.000000 288.019531,243.000000 205.529297,243.000000 
	C205.383591,242.471970 205.237885,241.943939 205.092178,241.415909 
	C213.260956,235.829056 218.908295,228.187393 221.863449,219.076614 
	C224.728073,210.244949 226.338562,201.006500 228.610260,191.483917 
	C302.110779,190.995819 377.087219,190.497910 452.531860,190.000000 
	C453.000000,207.354233 453.000000,224.708450 453.000000,242.531342 
z"/>
<path fill="#FFFFFF" opacity="1.000000" stroke="none" 
	d="
M453.000000,302.600006 
	C316.816467,303.333313 180.632965,303.681671 44.449322,303.955353 
	C37.701172,303.968903 30.942703,303.444458 24.210701,302.901794 
	C22.910065,302.796936 21.710600,301.437073 20.768629,299.663086 
	C68.860596,297.308960 116.669472,298.186646 164.464005,298.033752 
	C212.439285,297.880280 260.415894,297.869934 308.391083,298.036621 
	C356.286011,298.203064 404.179871,298.666687 452.537109,299.000000 
	C453.000000,300.066681 453.000000,301.133331 453.000000,302.600006 
z"/>
<path fill="#000000" opacity="1.000000" stroke="none" 
	d="
M171.940674,240.000000 
	C162.996048,238.854797 155.021683,236.563126 149.092468,229.000000 
	C151.308121,229.000000 153.529221,228.898102 155.738510,229.016663 
	C169.389755,229.749298 172.774734,219.986359 170.651428,209.165985 
	C169.092957,201.223969 162.404709,198.934540 155.954056,198.306900 
	C150.664505,197.792236 145.574127,200.914169 142.284821,205.411774 
	C134.330490,216.288147 137.374954,230.951614 148.965790,239.023560 
	C149.776123,239.587875 150.426926,240.381287 151.833054,241.713516 
	C143.422516,241.713516 136.038391,241.713516 128.325836,241.713516 
	C128.325836,225.138153 128.325836,208.411118 128.325836,191.341461 
	C151.492355,191.341461 174.880096,191.341461 198.626343,191.341461 
	C200.394516,201.296021 197.555267,210.979767 194.668411,220.554489 
	C193.342163,224.953262 191.342789,229.294998 188.874771,233.169647 
	C185.116608,239.069672 179.696426,242.114639 171.940674,240.000000 
z"/>
<path fill="#000000" opacity="1.000000" stroke="none" 
	d="
M134.066559,125.437698 
	C132.051239,126.292107 130.285736,126.839302 128.175125,127.493454 
	C128.175125,110.330788 128.175125,93.897224 128.175125,77.231766 
	C151.740601,77.231766 175.152298,77.231766 199.313889,77.231766 
	C197.225418,87.416611 196.548462,97.967216 187.013199,104.412041 
	C179.003677,109.825630 170.774628,107.339828 163.057983,103.442719 
	C157.868637,100.821953 155.952072,95.430534 153.982666,90.305237 
	C153.269379,88.448936 152.450089,86.633362 151.048965,84.798584 
	C146.980774,99.040115 144.907166,113.866585 134.066559,125.437698 
z"/>
<path fill="#000000" opacity="1.000000" stroke="none" 
	d="
M135.257416,137.674515 
	C138.660019,144.616348 142.468536,151.036926 144.838150,157.950668 
	C147.146286,164.684937 147.981949,171.923874 149.740646,180.250549 
	C152.148499,175.285965 154.351898,171.490570 155.886795,167.441742 
	C161.038513,153.852219 178.301041,152.624039 186.958008,157.599838 
	C189.492538,159.056610 192.191925,161.406265 193.267075,163.990906 
	C195.989029,170.534317 197.832138,177.443329 200.224014,184.812073 
	C175.248169,184.812073 151.840347,184.812073 128.216217,184.812073 
	C128.216217,167.548096 128.216217,150.455612 128.216217,131.397003 
	C131.121475,133.942017 133.077545,135.655548 135.257416,137.674515 
z"/>
<path fill="#000000" opacity="1.000000" stroke="none" 
	d="
M105.000000,176.947571 
	C105.000000,162.151505 105.000000,147.847168 105.000000,133.272156 
	C109.311577,133.272156 113.384239,133.272156 117.731186,133.272156 
	C117.731186,150.318481 117.731186,167.389313 117.731186,184.730774 
	C113.682426,184.730774 109.609886,184.730774 105.000000,184.730774 
	C105.000000,182.315872 105.000000,179.877594 105.000000,176.947571 
z"/>
<path fill="#000000" opacity="1.000000" stroke="none" 
	d="
M110.057144,191.000000 
	C112.846794,191.000000 115.154388,191.000000 117.729736,191.000000 
	C117.729736,207.983490 117.729736,224.723022 117.729736,241.731995 
	C113.678596,241.731995 109.606400,241.731995 105.264114,241.731995 
	C105.264114,225.003235 105.264114,208.264008 105.264114,191.000000 
	C106.700516,191.000000 108.137802,191.000000 110.057144,191.000000 
z"/>
<path fill="#000000" opacity="1.000000" stroke="none" 
	d="
M117.999863,123.831345 
	C117.057999,125.210670 116.188026,126.764778 115.161095,126.876526 
	C112.036682,127.216545 108.851685,126.999756 105.345276,126.999756 
	C105.345276,110.506439 105.345276,94.099075 105.345276,77.345222 
	C109.167709,77.345222 113.241585,77.345222 117.999992,77.345222 
	C117.999992,92.512520 117.999992,107.929543 117.999863,123.831345 
z"/>
</svg>