<svg version="1.1" id="Layer_1" xmlns="http://www.w3.org/2000/svg" xmlns:xlink="http://www.w3.org/1999/xlink" x="0px" y="0px"
	 width="100%" viewBox="0 0 500 500" enable-background="new 0 0 500 500" xml:space="preserve">
<path fill="#000000" opacity="1.000000" stroke="none" 
	d="
M278.000000,501.000000 
	C185.333359,501.000000 93.166710,501.000000 1.000049,501.000000 
	C1.000033,334.333405 1.000033,167.666794 1.000016,1.000139 
	C167.666565,1.000093 334.333130,1.000093 500.999756,1.000046 
	C500.999847,167.666519 500.999847,334.333038 500.999939,500.999786 
	C426.833344,501.000000 352.666656,501.000000 278.000000,501.000000 
M189.784180,452.720154 
	C188.317230,456.578735 187.205887,460.621338 185.321152,464.263733 
	C177.595551,479.193970 163.297623,485.084412 145.163757,483.210938 
	C137.094727,482.377289 129.945709,479.652985 123.053902,473.008423 
	C125.386940,473.008423 126.476639,473.018616 127.566109,473.006866 
	C144.392014,472.825836 154.741455,461.908752 153.985229,445.141907 
	C153.393021,432.011322 143.179932,420.502899 130.187637,418.326050 
	C119.316917,416.504730 106.007370,424.512024 101.237457,435.347351 
	C91.466438,457.543243 105.476784,484.749725 129.485626,492.378693 
	C144.684387,497.208160 159.976349,495.970062 174.558868,489.161743 
	C188.829971,482.498840 197.859375,470.888031 199.782562,455.752136 
	C201.280472,443.963226 199.608429,431.665161 198.472366,419.676056 
	C197.167984,405.910797 194.901413,392.236725 193.164810,379.353912 
	C199.377151,376.206146 204.848206,373.860931 209.885223,370.801178 
	C224.588165,361.869873 234.418259,349.163818 239.437668,332.549103 
	C244.008713,317.418518 243.402344,302.529663 239.288666,287.484314 
	C233.814636,267.463562 221.920425,252.915344 202.282440,245.998734 
	C193.569214,242.929886 183.984238,242.336197 174.060806,240.481781 
	C174.044266,240.386444 173.729034,238.944534 173.551315,237.485870 
	C172.272354,226.988327 172.104019,216.205795 169.466766,206.064072 
	C166.645233,195.213654 169.882523,188.725403 178.157379,181.712616 
	C202.248932,161.295502 217.557831,135.941635 220.387283,103.486221 
	C222.143555,83.340874 222.794327,63.531967 217.883392,43.780857 
	C214.952423,31.992895 210.916718,20.755068 203.625305,10.839758 
	C199.154449,4.760030 194.559708,4.122813 189.478760,7.263574 
	C183.627609,10.880440 177.853745,15.534185 173.833298,21.042023 
	C156.990891,44.115391 149.195587,70.612000 149.180328,98.842735 
	C149.170715,116.638924 152.248566,134.430527 153.710938,152.243103 
	C153.863098,154.096405 152.999084,156.669617 151.672577,157.909851 
	C137.583847,171.082458 122.666832,183.430435 109.232552,197.227173 
	C89.907188,217.073975 75.237411,239.716095 71.662399,268.240997 
	C68.550339,293.071930 73.533218,315.947845 86.830811,336.955414 
	C95.168037,350.126587 106.420067,360.396881 119.815285,368.488434 
	C135.955902,378.238373 152.993469,383.907623 172.087234,381.966553 
	C175.850601,381.583984 179.636246,381.420898 183.870453,381.124481 
	C185.169571,390.927185 186.141998,400.626068 187.799118,410.206512 
	C190.189987,424.029266 191.363831,437.856171 189.784180,452.720154 
z"/>
<path fill="#FAFAFA" opacity="1.000000" stroke="none" 
	d="
M189.849304,452.283325 
	C191.363831,437.856171 190.189987,424.029266 187.799118,410.206512 
	C186.141998,400.626068 185.169571,390.927185 183.870453,381.124481 
	C179.636246,381.420898 175.850601,381.583984 172.087234,381.966553 
	C152.993469,383.907623 135.955902,378.238373 119.815285,368.488434 
	C106.420067,360.396881 95.168037,350.126587 86.830811,336.955414 
	C73.533218,315.947845 68.550339,293.071930 71.662399,268.240997 
	C75.237411,239.716095 89.907188,217.073975 109.232552,197.227173 
	C122.666832,183.430435 137.583847,171.082458 151.672577,157.909851 
	C152.999084,156.669617 153.863098,154.096405 153.710938,152.243103 
	C152.248566,134.430527 149.170715,116.638924 149.180328,98.842735 
	C149.195587,70.612000 156.990891,44.115391 173.833298,21.042023 
	C177.853745,15.534185 183.627609,10.880440 189.478760,7.263574 
	C194.559708,4.122813 199.154449,4.760030 203.625305,10.839758 
	C210.916718,20.755068 214.952423,31.992895 217.883392,43.780857 
	C222.794327,63.531967 222.143555,83.340874 220.387283,103.486221 
	C217.557831,135.941635 202.248932,161.295502 178.157379,181.712616 
	C169.882523,188.725403 166.645233,195.213654 169.466766,206.064072 
	C172.104019,216.205795 172.272354,226.988327 173.551315,237.485870 
	C173.729034,238.944534 174.044266,240.386444 174.060806,240.481781 
	C183.984238,242.336197 193.569214,242.929886 202.282440,245.998734 
	C221.920425,252.915344 233.814636,267.463562 239.288666,287.484314 
	C243.402344,302.529663 244.008713,317.418518 239.437668,332.549103 
	C234.418259,349.163818 224.588165,361.869873 209.885223,370.801178 
	C204.848206,373.860931 199.377151,376.206146 193.164810,379.353912 
	C194.901413,392.236725 197.167984,405.910797 198.472366,419.676056 
	C199.608429,431.665161 201.280472,443.963226 199.782562,455.752136 
	C197.859375,470.888031 188.829971,482.498840 174.558868,489.161743 
	C159.976349,495.970062 144.684387,497.208160 129.485626,492.378693 
	C105.476784,484.749725 91.466438,457.543243 101.237457,435.347351 
	C106.007370,424.512024 119.316917,416.504730 130.187637,418.326050 
	C143.179932,420.502899 153.393021,432.011322 153.985229,445.141907 
	C154.741455,461.908752 144.392014,472.825836 127.566109,473.006866 
	C126.476639,473.018616 125.386940,473.008423 123.053902,473.008423 
	C129.945709,479.652985 137.094727,482.377289 145.163757,483.210938 
	C163.297623,485.084412 177.595551,479.193970 185.321152,464.263733 
	C187.205887,460.621338 188.317230,456.578735 189.849304,452.283325 
M142.318298,296.995667 
	C133.314117,314.888153 139.769714,335.359161 157.247849,344.396332 
	C158.495575,345.041504 159.279892,346.582886 160.279678,347.707581 
	C158.630753,348.078217 156.914612,348.948212 155.344055,348.736755 
	C146.522583,347.549011 139.683395,342.770691 134.257858,335.995422 
	C115.611633,312.710449 119.434914,281.778961 139.749329,259.995880 
	C146.848373,252.383606 155.393723,246.882385 165.559296,243.834854 
	C163.610397,228.980072 161.712067,214.510651 159.791245,199.869797 
	C158.612946,200.181976 158.018250,200.161438 157.705093,200.448242 
	C145.937164,211.226852 133.831146,221.668533 122.537582,232.925049 
	C106.786812,248.624130 94.560188,266.571381 90.531342,289.091858 
	C85.930115,314.811829 93.506363,336.659149 112.493454,354.106293 
	C126.090454,366.600464 142.619415,373.479919 161.328751,373.619598 
	C168.413986,373.672455 175.509781,372.311737 182.647736,371.590607 
	C178.294510,339.129730 174.078125,307.689270 169.861725,276.248718 
	C158.640686,277.784058 148.873016,285.020416 142.318298,296.995667 
M198.277557,108.751488 
	C200.629486,103.841064 203.223038,99.029640 205.283875,93.999947 
	C209.798264,82.982063 212.207245,71.627380 210.037628,59.624523 
	C208.842087,53.010437 204.070175,48.551731 197.380814,48.611843 
	C189.468506,48.682938 184.293533,53.740814 180.059433,59.475304 
	C168.519135,75.105034 161.847183,92.844704 160.087219,112.098045 
	C158.969955,124.320541 159.407898,136.689728 162.156418,149.461288 
	C165.881165,146.213303 169.485641,143.769180 172.203339,140.571396 
	C180.923416,130.310974 189.315567,119.771843 198.277557,108.751488 
M210.171219,356.670746 
	C223.574661,342.653809 226.299179,314.867828 216.013992,297.169403 
	C207.745255,282.940796 187.373627,273.087677 179.154861,276.765747 
	C183.268845,307.067352 187.393860,337.450256 191.562683,368.155823 
	C199.205734,366.629364 204.488449,361.891815 210.171219,356.670746 
z"/>
<path fill="#020202" opacity="1.000000" stroke="none" 
	d="
M142.513275,296.668701 
	C148.873016,285.020416 158.640686,277.784058 169.861725,276.248718 
	C174.078125,307.689270 178.294510,339.129730 182.647736,371.590607 
	C175.509781,372.311737 168.413986,373.672455 161.328751,373.619598 
	C142.619415,373.479919 126.090454,366.600464 112.493454,354.106293 
	C93.506363,336.659149 85.930115,314.811829 90.531342,289.091858 
	C94.560188,266.571381 106.786812,248.624130 122.537582,232.925049 
	C133.831146,221.668533 145.937164,211.226852 157.705093,200.448242 
	C158.018250,200.161438 158.612946,200.181976 159.791245,199.869797 
	C161.712067,214.510651 163.610397,228.980072 165.559296,243.834854 
	C155.393723,246.882385 146.848373,252.383606 139.749329,259.995880 
	C119.434914,281.778961 115.611633,312.710449 134.257858,335.995422 
	C139.683395,342.770691 146.522583,347.549011 155.344055,348.736755 
	C156.914612,348.948212 158.630753,348.078217 160.279678,347.707581 
	C159.279892,346.582886 158.495575,345.041504 157.247849,344.396332 
	C139.769714,335.359161 133.314117,314.888153 142.513275,296.668701 
z"/>
<path fill="#020202" opacity="1.000000" stroke="none" 
	d="
M198.055908,109.045868 
	C189.315567,119.771843 180.923416,130.310974 172.203339,140.571396 
	C169.485641,143.769180 165.881165,146.213303 162.156418,149.461288 
	C159.407898,136.689728 158.969955,124.320541 160.087219,112.098045 
	C161.847183,92.844704 168.519135,75.105034 180.059433,59.475304 
	C184.293533,53.740814 189.468506,48.682938 197.380814,48.611843 
	C204.070175,48.551731 208.842087,53.010437 210.037628,59.624523 
	C212.207245,71.627380 209.798264,82.982063 205.283875,93.999947 
	C203.223038,99.029640 200.629486,103.841064 198.055908,109.045868 
z"/>
<path fill="#030303" opacity="1.000000" stroke="none" 
	d="
M210.021454,356.999146 
	C204.488449,361.891815 199.205734,366.629364 191.562683,368.155823 
	C187.393860,337.450256 183.268845,307.067352 179.154861,276.765747 
	C187.373627,273.087677 207.745255,282.940796 216.013992,297.169403 
	C226.299179,314.867828 223.574661,342.653809 210.021454,356.999146 
z"/>
</svg>