<svg version="1.1" id="Layer_1" xmlns="http://www.w3.org/2000/svg" xmlns:xlink="http://www.w3.org/1999/xlink" x="0px" y="0px"
	 width="100%" viewBox="0 0 177 285" enable-background="new 0 0 177 285" xml:space="preserve">
<path fill="#FEFEFE" opacity="1.000000" stroke="none" 
	d="
M83.000000,286.000000 
	C55.348038,286.000000 28.196079,286.000000 1.022059,286.000000 
	C1.022059,191.066132 1.022059,96.132271 1.022059,1.099199 
	C59.901779,1.099199 118.803780,1.099199 177.852890,1.099199 
	C177.852890,95.999817 177.852890,190.999893 177.852890,286.000000 
	C146.465836,286.000000 114.982918,286.000000 83.000000,286.000000 
M113.089020,260.343811 
	C113.528214,255.242920 114.742401,250.064651 114.242546,245.057495 
	C113.253517,235.150269 111.531555,225.296341 109.648003,215.509796 
	C109.044357,212.373322 109.746010,211.308838 112.484055,209.970581 
	C129.119949,201.839355 136.966171,183.531952 132.063858,164.883575 
	C129.925354,156.748703 125.853424,149.829880 118.964890,144.831055 
	C111.608002,139.492371 103.346100,137.941452 94.404427,139.724121 
	C94.124443,138.834015 93.872963,138.224365 93.742302,137.589828 
	C92.434723,131.239471 91.382614,124.824036 89.760429,118.555855 
	C88.867195,115.104401 89.508018,112.881348 91.943085,110.192230 
	C115.584457,84.084305 118.189835,53.925011 108.220901,21.641388 
	C106.610420,16.425972 103.913040,10.804193 97.641296,10.170080 
	C91.102745,9.508988 87.659996,14.814079 84.711319,19.666103 
	C76.281128,33.537895 73.387016,48.655968 75.506386,64.699074 
	C76.573120,72.773933 78.134636,80.785751 79.090378,88.871231 
	C79.317749,90.794739 78.581932,93.397125 77.319740,94.838142 
	C70.195045,102.972290 62.453648,110.579170 55.525211,118.869507 
	C42.819801,134.072388 36.047310,151.167511 39.899929,171.483948 
	C44.071266,193.481125 58.118786,209.980515 77.866142,213.534164 
	C86.008148,214.999359 94.633804,213.776917 104.025230,213.776917 
	C105.542168,226.184967 107.912834,238.644150 108.363953,251.172455 
	C108.836044,264.283325 96.903114,273.463684 84.181786,271.152740 
	C80.323692,270.451874 77.000229,268.901154 75.950043,264.449310 
	C77.131989,264.085236 78.100838,263.854889 79.018112,263.493622 
	C86.707314,260.465332 90.153984,252.407745 86.893265,245.133347 
	C83.758408,238.139740 74.908356,235.089615 67.870712,238.577332 
	C59.706848,242.623199 56.156803,255.806137 61.701862,263.823334 
	C68.913071,274.249512 79.802940,277.597382 91.865372,276.891846 
	C102.061623,276.295441 109.249390,270.854797 113.089020,260.343811 
z"/>
<path fill="#050505" opacity="1.000000" stroke="none" 
	d="
M112.998024,260.731079 
	C109.249390,270.854797 102.061623,276.295441 91.865372,276.891846 
	C79.802940,277.597382 68.913071,274.249512 61.701862,263.823334 
	C56.156803,255.806137 59.706848,242.623199 67.870712,238.577332 
	C74.908356,235.089615 83.758408,238.139740 86.893265,245.133347 
	C90.153984,252.407745 86.707314,260.465332 79.018112,263.493622 
	C78.100838,263.854889 77.131989,264.085236 75.950043,264.449310 
	C77.000229,268.901154 80.323692,270.451874 84.181786,271.152740 
	C96.903114,273.463684 108.836044,264.283325 108.363953,251.172455 
	C107.912834,238.644150 105.542168,226.184967 104.025230,213.776917 
	C94.633804,213.776917 86.008148,214.999359 77.866142,213.534164 
	C58.118786,209.980515 44.071266,193.481125 39.899929,171.483948 
	C36.047310,151.167511 42.819801,134.072388 55.525211,118.869507 
	C62.453648,110.579170 70.195045,102.972290 77.319740,94.838142 
	C78.581932,93.397125 79.317749,90.794739 79.090378,88.871231 
	C78.134636,80.785751 76.573120,72.773933 75.506386,64.699074 
	C73.387016,48.655968 76.281128,33.537895 84.711319,19.666103 
	C87.659996,14.814079 91.102745,9.508988 97.641296,10.170080 
	C103.913040,10.804193 106.610420,16.425972 108.220901,21.641388 
	C118.189835,53.925011 115.584457,84.084305 91.943085,110.192230 
	C89.508018,112.881348 88.867195,115.104401 89.760429,118.555855 
	C91.382614,124.824036 92.434723,131.239471 93.742302,137.589828 
	C93.872963,138.224365 94.124443,138.834015 94.404427,139.724121 
	C103.346100,137.941452 111.608002,139.492371 118.964890,144.831055 
	C125.853424,149.829880 129.925354,156.748703 132.063858,164.883575 
	C136.966171,183.531952 129.119949,201.839355 112.484055,209.970581 
	C109.746010,211.308838 109.044357,212.373322 109.648003,215.509796 
	C111.531555,225.296341 113.253517,235.150269 114.242546,245.057495 
	C114.742401,250.064651 113.528214,255.242920 112.998024,260.731079 
M53.843853,187.506836 
	C62.443371,205.075821 84.087067,214.028870 102.322906,207.156143 
	C99.104477,190.749115 95.868774,174.254013 92.455673,156.854599 
	C89.344154,158.898041 86.778465,160.138092 84.766022,161.981934 
	C76.200813,169.829636 76.282677,182.031021 84.797913,191.957657 
	C86.297157,193.705399 87.873703,195.386826 89.414551,197.098877 
	C89.050461,197.404556 88.686371,197.710220 88.322289,198.015900 
	C77.869179,193.080231 68.863503,186.439529 67.712311,173.777893 
	C66.244965,157.638855 75.679939,147.908112 89.309814,141.055405 
	C87.779121,133.396469 86.267410,125.832542 84.566856,117.323708 
	C77.290146,124.095970 70.301659,129.991379 64.024818,136.566177 
	C50.213463,151.033142 46.808472,167.931519 53.843853,187.506836 
M82.431091,66.052528 
	C82.751511,73.026115 83.071930,79.999702 83.392349,86.973289 
	C84.092682,87.166718 84.793015,87.360153 85.493347,87.553581 
	C90.837387,80.221664 96.967926,73.317253 101.263123,65.415230 
	C104.393524,59.656128 105.676659,52.669769 106.696411,46.062775 
	C107.410316,41.437370 107.101501,35.553925 101.414948,33.927807 
	C95.842552,32.334335 92.774185,37.158745 90.103043,41.154068 
	C85.270271,48.382633 83.474037,56.657413 82.431091,66.052528 
M104.638199,189.955856 
	C105.639442,194.933075 106.640686,199.910309 107.676445,205.059097 
	C118.700294,198.743896 123.322189,186.472672 119.696930,174.214676 
	C116.472420,163.311722 108.170380,156.630356 97.767151,157.019058 
	C99.977036,167.781128 102.170868,178.465042 104.638199,189.955856 
z"/>
<path fill="#FAFAFA" opacity="1.000000" stroke="none" 
	d="
M53.672203,187.162933 
	C46.808472,167.931519 50.213463,151.033142 64.024818,136.566177 
	C70.301659,129.991379 77.290146,124.095970 84.566856,117.323708 
	C86.267410,125.832542 87.779121,133.396469 89.309814,141.055405 
	C75.679939,147.908112 66.244965,157.638855 67.712311,173.777893 
	C68.863503,186.439529 77.869179,193.080231 88.322289,198.015900 
	C88.686371,197.710220 89.050461,197.404556 89.414551,197.098877 
	C87.873703,195.386826 86.297157,193.705399 84.797913,191.957657 
	C76.282677,182.031021 76.200813,169.829636 84.766022,161.981934 
	C86.778465,160.138092 89.344154,158.898041 92.455673,156.854599 
	C95.868774,174.254013 99.104477,190.749115 102.322906,207.156143 
	C84.087067,214.028870 62.443371,205.075821 53.672203,187.162933 
z"/>
<path fill="#F9F9F9" opacity="1.000000" stroke="none" 
	d="
M82.488274,65.607635 
	C83.474037,56.657413 85.270271,48.382633 90.103043,41.154068 
	C92.774185,37.158745 95.842552,32.334335 101.414948,33.927807 
	C107.101501,35.553925 107.410316,41.437370 106.696411,46.062775 
	C105.676659,52.669769 104.393524,59.656128 101.263123,65.415230 
	C96.967926,73.317253 90.837387,80.221664 85.493347,87.553581 
	C84.793015,87.360153 84.092682,87.166718 83.392349,86.973289 
	C83.071930,79.999702 82.751511,73.026115 82.488274,65.607635 
z"/>
<path fill="#F8F8F8" opacity="1.000000" stroke="none" 
	d="
M104.501450,189.552414 
	C102.170868,178.465042 99.977036,167.781128 97.767151,157.019058 
	C108.170380,156.630356 116.472420,163.311722 119.696930,174.214676 
	C123.322189,186.472672 118.700294,198.743896 107.676445,205.059097 
	C106.640686,199.910309 105.639442,194.933075 104.501450,189.552414 
z"/>
</svg>