<svg version="1.1" id="Layer_1" xmlns="http://www.w3.org/2000/svg" xmlns:xlink="http://www.w3.org/1999/xlink" x="0px" y="0px"
	 width="100%" viewBox="0 0 287 176" enable-background="new 0 0 287 176" xml:space="preserve">
<path fill="#000000" opacity="1.000000" stroke="none" 
	d="
M288.000000,158.000000 
	C288.000000,164.329483 288.000000,170.658966 288.000000,176.991333 
	C192.395340,176.994232 96.790665,176.994232 1.093001,176.994232 
	C1.093001,118.431122 1.093001,59.862053 1.093001,1.146491 
	C96.666481,1.146491 192.333221,1.146491 288.000000,1.146491 
	C288.000000,4.030464 288.000000,7.028667 287.606201,10.831581 
	C285.609344,11.423993 284.006744,11.031417 282.403137,11.027164 
	C265.579224,10.982531 248.755188,10.982636 231.931198,11.004034 
	C198.620422,11.046401 165.309677,11.110023 131.535919,11.088070 
	C90.547920,11.011280 50.022919,11.011280 9.497917,11.011280 
	C9.467813,11.918679 9.437707,12.826079 9.407601,13.733479 
	C21.883177,14.335711 34.358749,14.937943 46.699646,15.533673 
	C46.699646,25.680033 46.699646,35.753601 46.699646,46.007092 
	C36.071011,46.007092 25.754601,46.028912 15.438406,45.991478 
	C12.914213,45.982323 10.563688,45.986809 11.201028,50.096443 
	C23.032713,50.096443 34.939350,50.096443 46.698986,50.096443 
	C46.698986,61.012043 46.698986,71.419403 46.698986,81.998642 
	C42.573673,81.998642 38.753361,81.890053 34.941341,82.021767 
	C27.530756,82.277802 20.121359,82.614700 12.722544,83.090370 
	C12.012479,83.136024 11.380301,84.393196 10.711967,85.087952 
	C10.913659,85.588959 11.115352,86.089966 11.317044,86.590973 
	C23.136740,86.590973 34.956436,86.590973 46.740623,86.590973 
	C46.740623,97.920418 46.740623,108.287842 46.740623,118.803070 
	C34.670925,118.803070 22.880363,118.803070 11.089803,118.803070 
	C10.910110,119.525131 10.730419,120.247185 10.550728,120.969246 
	C12.248032,121.644318 13.935660,122.873894 15.644221,122.903702 
	C26.059809,123.085426 36.480152,122.994476 46.665688,122.994476 
	C46.665688,134.088974 46.665688,144.498123 46.665688,155.251221 
	C34.575161,155.251221 22.826174,155.251221 10.428833,155.251221 
	C11.202756,156.519531 11.533271,157.754166 12.104561,157.878006 
	C14.635611,158.426620 17.234388,158.942581 19.811192,158.955261 
	C37.476929,159.042191 55.143578,159.062790 72.809433,158.987396 
	C144.539719,158.681274 216.269821,158.332825 288.000000,158.000000 
z"/>
<path fill="#FEFEFE" opacity="1.000000" stroke="none" 
	d="
M288.000000,157.625000 
	C216.269821,158.332825 144.539719,158.681274 72.809433,158.987396 
	C55.143578,159.062790 37.476929,159.042191 19.811192,158.955261 
	C17.234388,158.942581 14.635611,158.426620 12.104561,157.878006 
	C11.533271,157.754166 11.202756,156.519531 10.428833,155.251221 
	C22.826174,155.251221 34.575161,155.251221 46.665688,155.251221 
	C46.665688,144.498123 46.665688,134.088974 46.665688,122.994476 
	C36.480152,122.994476 26.059809,123.085426 15.644221,122.903702 
	C13.935660,122.873894 12.248032,121.644318 10.550728,120.969246 
	C10.730419,120.247185 10.910110,119.525131 11.089803,118.803070 
	C22.880363,118.803070 34.670925,118.803070 46.740623,118.803070 
	C46.740623,108.287842 46.740623,97.920418 46.740623,86.590973 
	C34.956436,86.590973 23.136740,86.590973 11.317044,86.590973 
	C11.115352,86.089966 10.913659,85.588959 10.711967,85.087952 
	C11.380301,84.393196 12.012479,83.136024 12.722544,83.090370 
	C20.121359,82.614700 27.530756,82.277802 34.941341,82.021767 
	C38.753361,81.890053 42.573673,81.998642 46.698986,81.998642 
	C46.698986,71.419403 46.698986,61.012043 46.698986,50.096443 
	C34.939350,50.096443 23.032713,50.096443 11.201028,50.096443 
	C10.563688,45.986809 12.914213,45.982323 15.438406,45.991478 
	C25.754601,46.028912 36.071011,46.007092 46.699646,46.007092 
	C46.699646,35.753601 46.699646,25.680033 46.699646,15.533673 
	C34.358749,14.937943 21.883177,14.335711 9.407601,13.733479 
	C9.437707,12.826079 9.467813,11.918679 9.497917,11.011280 
	C50.022919,11.011280 90.547920,11.011280 131.460434,11.427204 
	C130.579453,12.933811 129.310974,14.024495 128.150360,15.443552 
	C129.833893,17.127266 131.690964,18.264809 132.937195,19.875101 
	C138.792374,27.440834 142.086121,36.007584 142.067978,46.003841 
	C146.993942,46.003841 151.619797,45.998425 156.245651,46.004692 
	C195.496490,46.057869 234.747330,46.113178 273.998779,46.534256 
	C273.998962,47.877769 273.998535,48.854874 273.535156,49.908745 
	C229.185104,49.985512 185.298004,49.985512 141.705139,49.985512 
	C139.266251,60.854980 136.279312,69.932457 126.833153,75.022827 
	C117.078354,80.279533 107.830315,78.090157 98.601852,72.183464 
	C97.321686,75.858452 96.285881,78.831924 95.178299,82.011452 
	C97.448814,82.011452 99.445747,82.011589 101.442673,82.011436 
	C157.258972,82.007156 213.075287,81.990501 268.891510,82.047791 
	C270.930847,82.049889 272.969421,82.776947 275.113647,83.386497 
	C275.148773,84.348793 275.078644,85.090752 274.545410,85.909851 
	C214.539505,85.987007 154.996643,85.987007 95.051697,85.987007 
	C95.806442,88.873718 96.192970,90.588844 96.710411,92.263504 
	C97.212318,93.887863 97.848694,95.470688 98.436661,97.101295 
	C122.695091,85.566208 137.750885,96.573723 141.416626,118.350967 
	C143.009293,118.231644 144.568253,117.968712 146.115952,118.023445 
	C154.031937,118.303398 161.942795,118.879333 169.859528,118.962364 
	C209.238968,119.375374 248.619720,119.666176 288.000000,120.000000 
	C288.000000,120.444443 288.000000,120.888893 287.562988,121.664253 
	C282.564514,122.330536 278.003601,122.949135 273.441589,122.957123 
	C231.308655,123.030899 189.175507,122.999207 147.042419,122.998177 
	C145.424484,122.998138 143.806564,122.998169 142.047760,122.998169 
	C141.962006,135.814148 137.823547,146.442657 127.334167,155.000000 
	C181.735474,155.000000 234.867737,155.000000 288.000000,155.000000 
	C288.000000,155.750000 288.000000,156.500000 288.000000,157.625000 
M97.500534,122.999092 
	C91.411705,122.999092 85.322884,122.999092 79.246811,122.999092 
	C79.246811,133.938812 79.246811,144.328796 79.246811,154.754227 
	C84.183868,154.754227 88.859909,154.754227 92.415710,154.754227 
	C90.171585,151.295502 86.960037,147.796783 85.433395,143.674133 
	C82.715721,136.335190 89.914146,125.745552 96.539871,127.174591 
	C103.565186,128.689804 106.672333,129.847519 106.007614,140.194870 
	C105.723000,144.625351 102.334206,146.968185 95.979668,146.991638 
	C94.772148,146.996094 93.564598,146.992264 90.965958,146.992264 
	C98.065613,152.438141 104.679283,154.431000 111.987823,153.860718 
	C113.407799,153.749939 115.208473,152.593460 116.005585,151.376846 
	C121.598442,142.840454 123.910416,133.368820 123.986031,122.994209 
	C115.095367,122.994209 106.797890,122.994209 97.500534,122.999092 
M109.287704,15.994328 
	C103.047096,16.008986 97.284325,17.460197 92.003456,21.453484 
	C94.735451,22.026939 97.045822,22.471073 99.336380,23.000891 
	C104.690094,24.239235 106.168243,26.580072 105.992287,33.558659 
	C105.875854,38.176266 103.672585,41.281906 99.008850,41.960136 
	C89.149117,43.393997 83.111877,35.299168 85.506783,26.341156 
	C86.637291,22.112581 90.299789,18.560930 92.413162,15.319028 
	C88.626503,15.319028 83.878448,15.319028 78.571899,15.319028 
	C78.571899,25.643999 78.571899,35.643143 78.571899,45.640480 
	C93.579445,45.640480 108.763557,45.640480 124.170113,45.640480 
	C123.616913,36.604557 121.692970,28.408014 117.404778,20.762402 
	C115.719543,17.757711 113.598221,16.027861 109.287704,15.994328 
M100.500092,49.999802 
	C93.406776,49.999802 86.313461,49.999802 79.192398,49.999802 
	C79.192398,60.984985 79.192398,71.411407 79.192398,83.225769 
	C81.345642,81.661385 83.213203,80.955925 83.988991,79.617599 
	C86.228310,75.754517 88.348267,71.756172 89.906967,67.583763 
	C91.378029,63.645954 92.076881,59.419674 93.115410,55.320286 
	C96.023354,64.849998 101.823380,71.284180 111.841187,69.707245 
	C122.022125,68.104630 122.210999,58.380234 124.167381,49.999752 
	C116.416298,49.999752 108.958145,49.999752 100.500092,49.999802 
M78.990829,109.434189 
	C78.990829,112.521553 78.990829,115.608910 78.990829,118.341911 
	C94.245781,118.341911 109.025612,118.341911 124.275826,118.341911 
	C123.166405,114.772873 122.528351,111.080383 120.877113,107.916702 
	C119.507256,105.292122 117.373009,102.248466 114.831535,101.202194 
	C106.163887,97.633888 98.344849,101.881851 94.999802,111.176689 
	C94.431259,112.756470 93.702934,114.278740 93.492462,114.776817 
	C90.442741,106.885666 87.385277,98.618263 83.988808,90.492569 
	C83.325020,88.904503 81.346336,87.866035 78.990829,85.648300 
	C78.990829,94.510666 78.990829,101.482155 78.990829,109.434189 
M71.998589,66.497833 
	C71.998589,61.064648 71.998589,55.631462 71.998589,50.267902 
	C69.385292,50.267902 67.315979,50.267902 65.193054,50.267902 
	C65.193054,61.298164 65.193054,72.058823 65.193054,83.090958 
	C67.569458,82.563271 69.700523,82.090065 71.998573,81.579773 
	C71.998573,76.784576 71.998573,72.140121 71.998589,66.497833 
M68.498642,122.997025 
	C66.790100,123.050598 64.887070,122.370262 64.938095,125.464439 
	C65.098541,135.194778 64.997169,144.929459 64.997169,154.814270 
	C67.485085,154.814270 69.545921,154.814270 71.998817,154.814270 
	C71.998817,144.888687 72.060432,135.151169 71.887985,125.417801 
	C71.873367,124.592438 70.294785,123.794785 68.498642,122.997025 
M64.996323,116.024017 
	C64.996323,116.849220 64.996323,117.674423 64.996323,118.325806 
	C67.423790,118.325806 69.669708,118.325806 71.644302,118.325806 
	C71.644302,107.803909 71.644302,97.423630 71.644302,87.159973 
	C69.335281,87.159973 67.383087,87.159973 64.996254,87.159973 
	C64.996254,96.589615 64.996254,105.850922 64.996323,116.024017 
M65.000908,22.564375 
	C65.000908,30.295715 65.000908,38.027058 65.000908,45.767071 
	C67.567963,45.767071 69.628632,45.767071 71.664116,45.767071 
	C71.664116,35.371559 71.664116,25.214540 71.664116,15.325657 
	C69.262825,15.325657 67.202530,15.325657 65.000992,15.325657 
	C65.000992,17.634983 65.000992,19.609247 65.000908,22.564375 
z"/>
<path fill="#000000" opacity="1.000000" stroke="none" 
	d="
M288.000000,119.531342 
	C248.619720,119.666176 209.238968,119.375374 169.859528,118.962364 
	C161.942795,118.879333 154.031937,118.303398 146.115952,118.023445 
	C144.568253,117.968712 143.009293,118.231644 141.416626,118.350967 
	C137.750885,96.573723 122.695091,85.566208 98.436661,97.101295 
	C97.848694,95.470688 97.212318,93.887863 96.710411,92.263504 
	C96.192970,90.588844 95.806442,88.873718 95.051697,85.987007 
	C154.996643,85.987007 214.539505,85.987007 275.002319,85.987534 
	C279.948181,85.992035 283.974091,85.996017 288.000000,86.000000 
	C288.000000,97.020897 288.000000,108.041786 288.000000,119.531342 
z"/>
<path fill="#000000" opacity="1.000000" stroke="none" 
	d="
M275.008362,83.166153 
	C272.969421,82.776947 270.930847,82.049889 268.891510,82.047791 
	C213.075287,81.990501 157.258972,82.007156 101.442673,82.011436 
	C99.445747,82.011589 97.448814,82.011452 95.178299,82.011452 
	C96.285881,78.831924 97.321686,75.858452 98.601852,72.183464 
	C107.830315,78.090157 117.078354,80.279533 126.833153,75.022827 
	C136.279312,69.932457 139.266251,60.854980 141.705139,49.985512 
	C185.298004,49.985512 229.185104,49.985512 273.994934,49.986961 
	C279.278473,49.992271 283.639221,49.996136 288.000000,50.000000 
	C288.000000,60.687561 288.000000,71.375122 287.536774,82.535492 
	C283.051819,83.060921 279.030090,83.113533 275.008362,83.166153 
z"/>
<path fill="#000000" opacity="1.000000" stroke="none" 
	d="
M288.000000,154.531342 
	C234.867737,155.000000 181.735474,155.000000 127.334167,155.000000 
	C137.823547,146.442657 141.962006,135.814148 142.047760,122.998169 
	C143.806564,122.998169 145.424484,122.998138 147.042419,122.998177 
	C189.175507,122.999207 231.308655,123.030899 273.441589,122.957123 
	C278.003601,122.949135 282.564514,122.330536 287.562988,121.997589 
	C288.000000,132.687561 288.000000,143.375122 288.000000,154.531342 
z"/>
<path fill="#000000" opacity="1.000000" stroke="none" 
	d="
M273.998169,46.167847 
	C234.747330,46.113178 195.496490,46.057869 156.245651,46.004692 
	C151.619797,45.998425 146.993942,46.003841 142.067978,46.003841 
	C142.086121,36.007584 138.792374,27.440834 132.937195,19.875101 
	C131.690964,18.264809 129.833893,17.127266 128.613617,15.390127 
	C176.087692,15.005970 223.206467,15.038545 270.325012,14.957055 
	C276.217224,14.946866 282.108368,14.333752 288.000000,14.000000 
	C288.000000,25.020895 288.000000,36.041790 287.572693,47.529915 
	C283.068451,45.192062 278.492798,45.971134 273.998169,46.167847 
z"/>
<path fill="#FEFEFE" opacity="1.000000" stroke="none" 
	d="
M288.000000,13.625000 
	C282.108368,14.333752 276.217224,14.946866 270.325012,14.957055 
	C223.206467,15.038545 176.087692,15.005970 128.505737,15.061754 
	C129.310974,14.024495 130.579453,12.933811 131.923431,11.503993 
	C165.309677,11.110023 198.620422,11.046401 231.931198,11.004034 
	C248.755188,10.982636 265.579224,10.982531 282.403137,11.027164 
	C284.006744,11.031417 285.609344,11.423993 287.606201,11.318146 
	C288.000000,11.750000 288.000000,12.500000 288.000000,13.625000 
z"/>
<path fill="#FCFCFC" opacity="1.000000" stroke="none" 
	d="
M273.998779,46.534256 
	C278.492798,45.971134 283.068451,45.192062 287.572693,47.998573 
	C288.000000,48.444447 288.000000,48.888889 288.000000,49.666668 
	C283.639221,49.996136 279.278473,49.992271 274.457886,49.910194 
	C273.998535,48.854874 273.998962,47.877769 273.998779,46.534256 
z"/>
<path fill="#FBFBFB" opacity="1.000000" stroke="none" 
	d="
M275.113647,83.386497 
	C279.030090,83.113533 283.051819,83.060921 287.536774,83.004150 
	C288.000000,83.750000 288.000000,84.500000 288.000000,85.625000 
	C283.974091,85.996017 279.948181,85.992035 275.465393,85.910378 
	C275.078644,85.090752 275.148773,84.348793 275.113647,83.386497 
z"/>
<path fill="#000000" opacity="1.000000" stroke="none" 
	d="
M98.000473,122.996651 
	C106.797890,122.994209 115.095367,122.994209 123.986031,122.994209 
	C123.910416,133.368820 121.598442,142.840454 116.005585,151.376846 
	C115.208473,152.593460 113.407799,153.749939 111.987823,153.860718 
	C104.679283,154.431000 98.065613,152.438141 90.965958,146.992264 
	C93.564598,146.992264 94.772148,146.996094 95.979668,146.991638 
	C102.334206,146.968185 105.723000,144.625351 106.007614,140.194870 
	C106.672333,129.847519 103.565186,128.689804 96.539871,127.174591 
	C89.914146,125.745552 82.715721,136.335190 85.433395,143.674133 
	C86.960037,147.796783 90.171585,151.295502 92.415710,154.754227 
	C88.859909,154.754227 84.183868,154.754227 79.246811,154.754227 
	C79.246811,144.328796 79.246811,133.938812 79.246811,122.999092 
	C85.322884,122.999092 91.411705,122.999092 98.000473,122.996651 
z"/>
<path fill="#000000" opacity="1.000000" stroke="none" 
	d="
M109.721069,15.995610 
	C113.598221,16.027861 115.719543,17.757711 117.404778,20.762402 
	C121.692970,28.408014 123.616913,36.604557 124.170113,45.640480 
	C108.763557,45.640480 93.579445,45.640480 78.571899,45.640480 
	C78.571899,35.643143 78.571899,25.643999 78.571899,15.319028 
	C83.878448,15.319028 88.626503,15.319028 92.413162,15.319028 
	C90.299789,18.560930 86.637291,22.112581 85.506783,26.341156 
	C83.111877,35.299168 89.149117,43.393997 99.008850,41.960136 
	C103.672585,41.281906 105.875854,38.176266 105.992287,33.558659 
	C106.168243,26.580072 104.690094,24.239235 99.336380,23.000891 
	C97.045822,22.471073 94.735451,22.026939 92.003456,21.453484 
	C97.284325,17.460197 103.047096,16.008986 109.721069,15.995610 
z"/>
<path fill="#000000" opacity="1.000000" stroke="none" 
	d="
M101.000046,49.999779 
	C108.958145,49.999752 116.416298,49.999752 124.167381,49.999752 
	C122.210999,58.380234 122.022125,68.104630 111.841187,69.707245 
	C101.823380,71.284180 96.023354,64.849998 93.115410,55.320286 
	C92.076881,59.419674 91.378029,63.645954 89.906967,67.583763 
	C88.348267,71.756172 86.228310,75.754517 83.988991,79.617599 
	C83.213203,80.955925 81.345642,81.661385 79.192398,83.225769 
	C79.192398,71.411407 79.192398,60.984985 79.192398,49.999802 
	C86.313461,49.999802 93.406776,49.999802 101.000046,49.999779 
z"/>
<path fill="#000000" opacity="1.000000" stroke="none" 
	d="
M78.990829,108.943916 
	C78.990829,101.482155 78.990829,94.510666 78.990829,85.648300 
	C81.346336,87.866035 83.325020,88.904503 83.988808,90.492569 
	C87.385277,98.618263 90.442741,106.885666 93.492462,114.776817 
	C93.702934,114.278740 94.431259,112.756470 94.999802,111.176689 
	C98.344849,101.881851 106.163887,97.633888 114.831535,101.202194 
	C117.373009,102.248466 119.507256,105.292122 120.877113,107.916702 
	C122.528351,111.080383 123.166405,114.772873 124.275826,118.341911 
	C109.025612,118.341911 94.245781,118.341911 78.990829,118.341911 
	C78.990829,115.608910 78.990829,112.521553 78.990829,108.943916 
z"/>
<path fill="#000000" opacity="1.000000" stroke="none" 
	d="
M71.998581,66.996750 
	C71.998573,72.140121 71.998573,76.784576 71.998573,81.579773 
	C69.700523,82.090065 67.569458,82.563271 65.193054,83.090958 
	C65.193054,72.058823 65.193054,61.298164 65.193054,50.267902 
	C67.315979,50.267902 69.385292,50.267902 71.998589,50.267902 
	C71.998589,55.631462 71.998589,61.064648 71.998581,66.996750 
z"/>
<path fill="#000000" opacity="1.000000" stroke="none" 
	d="
M68.970703,122.990639 
	C70.294785,123.794785 71.873367,124.592438 71.887985,125.417801 
	C72.060432,135.151169 71.998817,144.888687 71.998817,154.814270 
	C69.545921,154.814270 67.485085,154.814270 64.997169,154.814270 
	C64.997169,144.929459 65.098541,135.194778 64.938095,125.464439 
	C64.887070,122.370262 66.790100,123.050598 68.970703,122.990639 
z"/>
<path fill="#000000" opacity="1.000000" stroke="none" 
	d="
M64.996292,115.568115 
	C64.996254,105.850922 64.996254,96.589615 64.996254,87.159973 
	C67.383087,87.159973 69.335281,87.159973 71.644302,87.159973 
	C71.644302,97.423630 71.644302,107.803909 71.644302,118.325806 
	C69.669708,118.325806 67.423790,118.325806 64.996323,118.325806 
	C64.996323,117.674423 64.996323,116.849220 64.996292,115.568115 
z"/>
<path fill="#000000" opacity="1.000000" stroke="none" 
	d="
M65.000946,22.073944 
	C65.000992,19.609247 65.000992,17.634983 65.000992,15.325657 
	C67.202530,15.325657 69.262825,15.325657 71.664116,15.325657 
	C71.664116,25.214540 71.664116,35.371559 71.664116,45.767071 
	C69.628632,45.767071 67.567963,45.767071 65.000908,45.767071 
	C65.000908,38.027058 65.000908,30.295715 65.000946,22.073944 
z"/>
</svg>