<svg version="1.1" id="Layer_1" xmlns="http://www.w3.org/2000/svg" xmlns:xlink="http://www.w3.org/1999/xlink" x="0px" y="0px"
	 width="100%" viewBox="0 0 208 243" enable-background="new 0 0 208 243" xml:space="preserve">
<path fill="#000000" opacity="1.000000" stroke="none" 
	d="
M209.000000,49.000000 
	C209.000000,65.687561 209.000000,82.375122 208.712738,99.818771 
	C207.674194,99.929169 206.644348,99.430511 206.214157,98.615379 
	C201.093521,88.912674 188.403671,85.935654 179.273056,97.181419 
	C174.375748,103.213196 173.328369,114.732063 183.241333,121.746063 
	C188.295746,125.322350 201.007706,126.169746 205.668762,117.927917 
	C206.356033,116.712654 207.869034,115.964355 209.000000,115.000000 
	C209.000000,157.943115 209.000000,200.886246 209.000000,244.000000 
	C141.979202,244.000000 74.958260,244.000000 7.178348,243.694199 
	C16.877520,237.478516 27.457619,231.772781 37.766850,225.613663 
	C55.832462,214.820541 73.960739,204.103439 91.630508,192.685532 
	C106.458923,183.103653 120.398232,172.187836 131.303635,158.071793 
	C138.504166,148.751358 146.004883,139.462524 151.689835,129.225800 
	C157.818420,118.190186 161.889435,106.133911 163.158142,93.207825 
	C164.353058,81.033707 165.566544,68.737709 161.449066,57.188381 
	C151.593445,29.543869 132.494751,11.116975 103.964371,2.944201 
	C103.187675,2.721708 102.649437,1.666756 102.000000,0.999998 
	C137.554855,1.000000 173.109695,1.000000 209.000000,1.000000 
	C209.000000,11.685222 209.000000,22.373953 208.700073,33.820423 
	C206.886871,32.516495 205.663422,30.135231 203.807098,28.451839 
	C197.735275,22.945671 190.206726,22.558031 182.800873,27.019321 
	C177.329514,30.315268 174.190887,38.324120 176.113129,45.213379 
	C177.922379,51.697601 182.214508,56.396053 188.818970,57.781189 
	C195.433884,59.168514 201.191574,56.939781 205.403259,51.256176 
	C206.187988,50.197193 207.780365,49.736698 209.000000,49.000000 
z"/>
<path fill="#000000" opacity="1.000000" stroke="none" 
	d="
M1.000003,236.000000 
	C1.000000,157.779892 1.000000,79.559792 1.000000,1.000000 
	C23.353081,1.000000 45.707882,1.000000 68.830582,1.347313 
	C69.107834,2.116418 68.664009,2.830241 68.119705,2.917544 
	C52.042587,5.496180 38.222355,12.912555 26.190128,23.470406 
	C16.415705,32.047112 10.899701,43.032394 8.778049,56.172855 
	C7.069861,66.752525 9.347044,75.878670 15.555163,83.892319 
	C24.604753,95.573837 43.292538,101.079216 58.846916,94.130989 
	C68.693726,89.732368 76.098976,79.368515 76.024742,68.610252 
	C75.955780,58.616257 67.565483,48.460308 57.364796,46.302731 
	C50.799324,44.914051 43.528324,45.869858 36.729813,46.854179 
	C29.993916,47.829437 25.830540,44.522533 28.121168,38.167702 
	C31.753525,28.090551 38.340752,20.427574 48.404968,15.971100 
	C59.169876,11.204362 70.527016,10.324018 81.965317,11.114409 
	C92.918564,11.871280 101.983376,16.635185 108.515877,25.921650 
	C115.174866,35.387924 118.409233,45.874008 120.194672,57.227047 
	C122.228798,70.161499 122.469528,82.976364 119.617554,95.650902 
	C115.185257,115.348587 107.871307,133.978912 97.305214,151.286240 
	C86.386070,169.171875 72.729553,184.528397 55.874329,197.013565 
	C42.471504,206.941467 29.144106,216.973160 15.642054,226.764099 
	C10.980252,230.144577 5.892948,232.938278 1.000003,236.000000 
z"/>
<path fill="#FFFFFF" opacity="1.000000" stroke="none" 
	d="
M1.000003,236.494751 
	C5.892948,232.938278 10.980252,230.144577 15.642054,226.764099 
	C29.144106,216.973160 42.471504,206.941467 55.874329,197.013565 
	C72.729553,184.528397 86.386070,169.171875 97.305214,151.286240 
	C107.871307,133.978912 115.185257,115.348587 119.617554,95.650902 
	C122.469528,82.976364 122.228798,70.161499 120.194672,57.227047 
	C118.409233,45.874008 115.174866,35.387924 108.515877,25.921650 
	C101.983376,16.635185 92.918564,11.871280 81.965317,11.114409 
	C70.527016,10.324018 59.169876,11.204362 48.404968,15.971100 
	C38.340752,20.427574 31.753525,28.090551 28.121168,38.167702 
	C25.830540,44.522533 29.993916,47.829437 36.729813,46.854179 
	C43.528324,45.869858 50.799324,44.914051 57.364796,46.302731 
	C67.565483,48.460308 75.955780,58.616257 76.024742,68.610252 
	C76.098976,79.368515 68.693726,89.732368 58.846916,94.130989 
	C43.292538,101.079216 24.604753,95.573837 15.555163,83.892319 
	C9.347044,75.878670 7.069861,66.752525 8.778049,56.172855 
	C10.899701,43.032394 16.415705,32.047112 26.190128,23.470406 
	C38.222355,12.912555 52.042587,5.496180 68.119705,2.917544 
	C68.664009,2.830241 69.107834,2.116418 69.299240,1.347313 
	C79.687561,1.000000 90.375122,1.000000 101.531342,0.999998 
	C102.649437,1.666756 103.187675,2.721708 103.964371,2.944201 
	C132.494751,11.116975 151.593445,29.543869 161.449066,57.188381 
	C165.566544,68.737709 164.353058,81.033707 163.158142,93.207825 
	C161.889435,106.133911 157.818420,118.190186 151.689835,129.225800 
	C146.004883,139.462524 138.504166,148.751358 131.303635,158.071793 
	C120.398232,172.187836 106.458923,183.103653 91.630508,192.685532 
	C73.960739,204.103439 55.832462,214.820541 37.766850,225.613663 
	C27.457619,231.772781 16.877520,237.478516 6.709691,243.694199 
	C5.072514,244.000000 3.145029,244.000000 1.000000,244.000000 
	C1.000000,241.665253 1.000000,239.327362 1.000003,236.494751 
z"/>
<path fill="#FFFFFF" opacity="1.000000" stroke="none" 
	d="
M209.000000,114.533890 
	C207.869034,115.964355 206.356033,116.712654 205.668762,117.927917 
	C201.007706,126.169746 188.295746,125.322350 183.241333,121.746063 
	C173.328369,114.732063 174.375748,103.213196 179.273056,97.181419 
	C188.403671,85.935654 201.093521,88.912674 206.214157,98.615379 
	C206.644348,99.430511 207.674194,99.929169 208.712738,100.287430 
	C209.000000,104.689255 209.000000,109.378510 209.000000,114.533890 
z"/>
<path fill="#FFFFFF" opacity="1.000000" stroke="none" 
	d="
M209.000000,48.533882 
	C207.780365,49.736698 206.187988,50.197193 205.403259,51.256176 
	C201.191574,56.939781 195.433884,59.168514 188.818970,57.781189 
	C182.214508,56.396053 177.922379,51.697601 176.113129,45.213379 
	C174.190887,38.324120 177.329514,30.315268 182.800873,27.019321 
	C190.206726,22.558031 197.735275,22.945671 203.807098,28.451839 
	C205.663422,30.135231 206.886871,32.516495 208.700073,34.289082 
	C209.000000,38.689255 209.000000,43.378513 209.000000,48.533882 
z"/>
</svg>