<svg version="1.1" id="Layer_1" xmlns="http://www.w3.org/2000/svg" xmlns:xlink="http://www.w3.org/1999/xlink" x="0px" y="0px"
	 width="100%" viewBox="0 0 170 170" enable-background="new 0 0 170 170" xml:space="preserve">
<path fill="#000000" opacity="1.000000" stroke="none" 
	d="
M84.000000,171.000000 
	C56.000004,171.000000 28.500006,171.000000 1.000007,171.000000 
	C1.000005,114.333344 1.000005,57.666687 1.000003,1.000023 
	C57.666653,1.000015 114.333305,1.000015 170.999969,1.000008 
	C170.999969,57.666641 170.999969,114.333282 170.999985,170.999969 
	C142.166672,171.000000 113.333336,171.000000 84.000000,171.000000 
M129.369354,64.000687 
	C96.282982,64.000687 63.196606,64.000687 30.331310,64.000687 
	C30.331310,67.397743 30.331310,70.137375 30.331310,73.259537 
	C36.737518,73.259537 42.816963,73.259537 49.271210,73.259537 
	C49.271210,81.407272 49.271210,89.152725 49.271210,96.663681 
	C71.409729,96.663681 93.147301,96.663681 115.278740,96.663681 
	C115.278740,88.584785 115.278740,80.838943 115.278740,72.722534 
	C121.761986,72.722534 127.848602,72.722534 133.839874,72.722534 
	C133.839874,69.705116 133.839874,67.080994 133.839874,64.002876 
	C132.568588,64.002876 131.452942,64.002876 129.369354,64.000687 
z"/>
<path fill="#FFFFFF" opacity="1.000000" stroke="none" 
	d="
M129.853317,64.001785 
	C131.452942,64.002876 132.568588,64.002876 133.839874,64.002876 
	C133.839874,67.080994 133.839874,69.705116 133.839874,72.722534 
	C127.848602,72.722534 121.761986,72.722534 115.278740,72.722534 
	C115.278740,80.838943 115.278740,88.584785 115.278740,96.663681 
	C93.147301,96.663681 71.409729,96.663681 49.271210,96.663681 
	C49.271210,89.152725 49.271210,81.407272 49.271210,73.259537 
	C42.816963,73.259537 36.737518,73.259537 30.331310,73.259537 
	C30.331310,70.137375 30.331310,67.397743 30.331310,64.000687 
	C63.196606,64.000687 96.282982,64.000687 129.853317,64.001785 
z"/>
</svg>