<svg version="1.1" id="Layer_1" xmlns="http://www.w3.org/2000/svg" xmlns:xlink="http://www.w3.org/1999/xlink" x="0px" y="0px"
	 width="100%" viewBox="0 0 297 550" enable-background="new 0 0 297 550" xml:space="preserve">
<path fill="#000000" opacity="1.000000" stroke="none" 
	d="
M298.000000,6.999995 
	C298.000000,188.230713 298.000000,369.461426 298.000000,551.000000 
	C224.977646,551.000000 151.954865,551.000000 78.466278,550.606506 
	C78.011482,549.713501 77.877510,549.154480 78.054382,548.722961 
	C84.891640,532.042908 91.869858,515.419617 98.594543,498.694489 
	C110.571304,468.906738 122.333359,439.032684 134.302505,409.241882 
	C148.130615,374.824219 162.075546,340.453491 175.989044,306.070160 
	C184.746674,284.428101 193.583130,262.817810 202.303833,241.160934 
	C210.263474,221.394058 218.065918,201.563873 226.027451,181.797760 
	C234.276459,161.317917 242.570770,140.855835 250.961060,120.433563 
	C259.156525,100.485504 267.682465,80.671524 275.720032,60.660793 
	C282.739014,43.185970 289.268921,25.514856 296.091278,7.960140 
	C296.282806,7.467262 297.344208,7.312443 298.000000,6.999995 
z"/>
<path fill="#000000" opacity="1.000000" stroke="none" 
	d="
M0.999999,260.000000 
	C1.000000,173.737183 1.000000,87.474358 1.000000,1.000000 
	C93.020790,1.000000 185.041733,1.000000 277.826050,1.313030 
	C274.073456,13.000585 269.674591,24.423374 265.011505,35.737247 
	C259.357697,49.454956 256.055908,64.190880 246.143188,76.037926 
	C233.258713,91.436600 217.781906,99.563148 197.104218,96.000397 
	C203.631226,80.183281 203.775040,64.972214 196.027313,49.851151 
	C190.743286,39.538437 182.729080,31.816355 173.140625,25.869595 
	C160.511703,18.037127 146.529633,15.335283 131.800598,17.670729 
	C116.375641,20.116520 103.951775,27.720224 93.758453,39.611454 
	C81.805450,53.555473 78.410934,69.868767 82.635674,86.792015 
	C89.247910,113.278961 115.422966,130.763535 140.739548,130.813171 
	C154.691162,130.840530 168.752838,129.737976 182.574173,127.790939 
	C201.384323,125.141136 219.032974,118.756088 234.611115,107.420586 
	C234.888229,107.815155 235.008316,107.966354 235.088654,108.493271 
	C233.726089,111.996643 232.365051,115.108749 231.086639,118.254440 
	C222.074478,140.430283 213.072922,162.610428 204.080429,184.794250 
	C194.046768,209.546600 184.168121,234.363220 173.921249,259.026917 
	C170.441925,267.401459 166.588455,275.546356 158.682022,281.255859 
	C147.915985,289.030396 135.885773,290.193481 123.298111,290.106689 
	C119.137108,290.077972 118.723648,288.634064 119.941170,285.114807 
	C124.028893,273.299225 124.335709,261.389008 119.952599,249.566208 
	C116.181976,239.395508 109.764244,231.352615 101.223839,224.505676 
	C89.850128,215.387299 77.190742,210.300934 62.773071,210.190491 
	C51.066326,210.100830 39.915230,213.024933 30.028868,219.583008 
	C16.034502,228.866135 5.824487,240.890366 2.928887,258.061188 
	C2.805144,258.795013 1.666080,259.357635 0.999999,260.000000 
z"/>
<path fill="#FEFEFE" opacity="1.000000" stroke="none" 
	d="
M0.999999,260.463196 
	C1.666080,259.357635 2.805144,258.795013 2.928887,258.061188 
	C5.824487,240.890366 16.034502,228.866135 30.028868,219.583008 
	C39.915230,213.024933 51.066326,210.100830 62.773071,210.190491 
	C77.190742,210.300934 89.850128,215.387299 101.223839,224.505676 
	C109.764244,231.352615 116.181976,239.395508 119.952599,249.566208 
	C124.335709,261.389008 124.028893,273.299225 119.941170,285.114807 
	C118.723648,288.634064 119.137108,290.077972 123.298111,290.106689 
	C135.885773,290.193481 147.915985,289.030396 158.682022,281.255859 
	C166.588455,275.546356 170.441925,267.401459 173.921249,259.026917 
	C184.168121,234.363220 194.046768,209.546600 204.080429,184.794250 
	C213.072922,162.610428 222.074478,140.430283 231.086639,118.254440 
	C232.365051,115.108749 233.726089,111.996643 235.366913,108.385254 
	C235.717590,107.351105 235.750244,106.800697 235.782898,106.250305 
	C235.339981,106.559280 234.897049,106.868256 234.454102,107.177216 
	C219.032974,118.756088 201.384323,125.141136 182.574173,127.790939 
	C168.752838,129.737976 154.691162,130.840530 140.739548,130.813171 
	C115.422966,130.763535 89.247910,113.278961 82.635674,86.792015 
	C78.410934,69.868767 81.805450,53.555473 93.758453,39.611454 
	C103.951775,27.720224 116.375641,20.116520 131.800598,17.670729 
	C146.529633,15.335283 160.511703,18.037127 173.140625,25.869595 
	C182.729080,31.816355 190.743286,39.538437 196.027313,49.851151 
	C203.775040,64.972214 203.631226,80.183281 197.104218,96.000397 
	C217.781906,99.563148 233.258713,91.436600 246.143188,76.037926 
	C256.055908,64.190880 259.357697,49.454956 265.011505,35.737247 
	C269.674591,24.423374 274.073456,13.000585 278.294708,1.313030 
	C284.666779,1.000000 291.333557,1.000000 298.000000,1.000000 
	C298.000000,2.732945 298.000000,4.367001 298.000000,6.500524 
	C297.344208,7.312443 296.282806,7.467262 296.091278,7.960140 
	C289.268921,25.514856 282.739014,43.185970 275.720032,60.660793 
	C267.682465,80.671524 259.156525,100.485504 250.961060,120.433563 
	C242.570770,140.855835 234.276459,161.317917 226.027451,181.797760 
	C218.065918,201.563873 210.263474,221.394058 202.303833,241.160934 
	C193.583130,262.817810 184.746674,284.428101 175.989044,306.070160 
	C162.075546,340.453491 148.130615,374.824219 134.302505,409.241882 
	C122.333359,439.032684 110.571304,468.906738 98.594543,498.694489 
	C91.869858,515.419617 84.891640,532.042908 78.054382,548.722961 
	C77.877510,549.154480 78.011482,549.713501 78.000237,550.606506 
	C70.979050,551.000000 63.958103,551.000000 56.560852,550.641602 
	C59.137798,543.327332 62.185154,536.409668 65.026199,529.408325 
	C72.737701,510.404266 80.353592,491.361420 88.022583,472.340088 
	C97.698265,448.341583 107.399750,424.353424 117.070015,400.352692 
	C125.771080,378.757385 134.439789,357.149017 143.133087,335.550568 
	C147.822739,323.899170 152.533966,312.256470 157.510590,299.928345 
	C155.926804,300.587524 154.966171,300.753510 154.315781,301.293243 
	C144.894592,309.111664 133.715622,313.421051 122.251266,316.916779 
	C101.614586,323.209442 80.357750,324.700256 58.919899,323.926392 
	C54.240307,323.757446 49.318642,323.399384 44.980381,321.826660 
	C22.507097,313.679688 6.278759,299.738770 2.911744,274.466766 
	C2.836622,273.902954 1.661834,273.485626 1.000004,273.000000 
	C1.000000,268.975464 1.000000,264.950897 0.999999,260.463196 
z"/>
<path fill="#000000" opacity="1.000000" stroke="none" 
	d="
M1.000004,273.468658 
	C1.661834,273.485626 2.836622,273.902954 2.911744,274.466766 
	C6.278759,299.738770 22.507097,313.679688 44.980381,321.826660 
	C49.318642,323.399384 54.240307,323.757446 58.919899,323.926392 
	C80.357750,324.700256 101.614586,323.209442 122.251266,316.916779 
	C133.715622,313.421051 144.894592,309.111664 154.315781,301.293243 
	C154.966171,300.753510 155.926804,300.587524 157.510590,299.928345 
	C152.533966,312.256470 147.822739,323.899170 143.133087,335.550568 
	C134.439789,357.149017 125.771080,378.757385 117.070015,400.352692 
	C107.399750,424.353424 97.698265,448.341583 88.022583,472.340088 
	C80.353592,491.361420 72.737701,510.404266 65.026199,529.408325 
	C62.185154,536.409668 59.137798,543.327332 56.092270,550.641602 
	C37.690781,551.000000 19.381559,551.000000 1.000000,551.000000 
	C1.000000,458.645782 1.000000,366.291565 1.000004,273.468658 
z"/>
<path fill="#000000" opacity="1.000000" stroke="none" 
	d="
M234.611130,107.420593 
	C234.897049,106.868256 235.339981,106.559280 235.782898,106.250305 
	C235.750244,106.800697 235.717590,107.351105 235.406677,108.009521 
	C235.008316,107.966354 234.888229,107.815155 234.611130,107.420593 
z"/>
</svg>