<svg version="1.1" id="Layer_1" xmlns="http://www.w3.org/2000/svg" xmlns:xlink="http://www.w3.org/1999/xlink" x="0px" y="0px"
	 width="100%" viewBox="0 0 167 301" enable-background="new 0 0 167 301" xml:space="preserve">
<path fill="#000000" opacity="1.000000" stroke="none" 
	d="
M75.000000,302.000000 
	C50.013092,302.000000 25.526186,302.000000 1.019640,302.000000 
	C1.019640,201.733383 1.019640,101.466759 1.019640,1.100069 
	C56.570045,1.100069 112.140335,1.100069 167.855316,1.100069 
	C167.855316,101.333168 167.855316,201.666565 167.855316,302.000000 
	C137.133682,302.000000 106.316841,302.000000 75.000000,302.000000 
M80.054451,86.573990 
	C72.962845,103.867867 60.044216,116.740822 47.305157,129.177597 
	C64.790779,152.280121 85.246666,172.464920 100.648041,196.727646 
	C99.635658,196.732941 98.974129,196.360641 98.279579,196.066269 
	C86.187225,190.940979 74.556313,189.805634 63.089149,198.275330 
	C48.600025,208.977066 42.989285,223.801331 45.377655,240.609604 
	C47.534916,255.791458 58.957241,266.186127 70.198357,276.743378 
	C77.250496,283.184326 84.455879,289.347412 93.429993,293.138855 
	C96.616096,294.485016 98.843613,294.378113 100.332260,292.144623 
	C94.407455,284.509644 88.762192,277.234863 83.002533,269.205383 
	C81.524406,265.173859 79.484344,261.251801 78.673752,257.090240 
	C76.264061,244.718887 77.951805,236.325272 89.412773,229.267960 
	C100.355225,222.529922 112.277786,222.981186 124.225197,225.732101 
	C129.856064,227.028641 135.322266,229.040329 140.863083,230.727951 
	C130.435440,215.395340 118.941185,201.081131 108.033577,186.333069 
	C103.687996,180.457458 99.923752,173.913483 97.175644,167.153122 
	C93.455788,158.002274 97.001129,148.901428 101.598747,141.300949 
	C109.758369,127.811989 119.385323,115.214302 128.229553,102.129616 
	C129.036530,100.935722 129.383301,98.373581 128.661362,97.362389 
	C118.236649,82.760834 107.592209,68.316147 96.747520,53.202282 
	C93.495613,48.762512 90.252625,44.316177 86.989952,39.884335 
	C80.111069,30.540405 72.984146,21.365763 66.463272,11.778665 
	C64.117889,8.330451 62.224934,10.407853 60.468735,11.317256 
	C58.148464,12.518747 58.018070,14.389565 59.886459,16.681196 
	C63.133080,20.663252 66.461678,24.704283 68.915321,29.181271 
	C74.278748,38.967548 79.114998,49.042747 84.014130,59.614056 
	C84.304451,60.090237 84.594772,60.566414 84.991203,61.955997 
	C86.091545,70.453918 83.027863,78.208832 80.054451,86.573990 
z"/>
<path fill="#FFFFFF" opacity="1.000000" stroke="none" 
	d="
M69.957336,276.114319 
	C58.957241,266.186127 47.534916,255.791458 45.377655,240.609604 
	C42.989285,223.801331 48.600025,208.977066 63.089149,198.275330 
	C74.556313,189.805634 86.187225,190.940979 98.279579,196.066269 
	C98.974129,196.360641 99.635658,196.732941 100.648041,196.727646 
	C85.246666,172.464920 64.790779,152.280121 47.305157,129.177597 
	C60.044216,116.740822 72.962845,103.867867 80.513245,86.707375 
	C83.127678,87.350220 85.283318,87.859688 86.276070,88.094315 
	C87.073334,80.975487 87.588173,75.121315 88.430786,69.314705 
	C88.956795,65.689850 89.413368,62.375248 84.885094,61.042591 
	C84.594772,60.566414 84.304451,60.090237 84.423126,59.238533 
	C85.213356,57.336025 85.594597,55.809040 86.101501,53.778725 
	C87.777191,54.357151 89.366829,55.128426 91.040886,55.428055 
	C93.189949,55.812698 95.911835,57.648922 97.000443,53.833851 
	C107.592209,68.316147 118.236649,82.760834 128.661362,97.362389 
	C129.383301,98.373581 129.036530,100.935722 128.229553,102.129616 
	C119.385323,115.214302 109.758369,127.811989 101.598747,141.300949 
	C97.001129,148.901428 93.455788,158.002274 97.175644,167.153122 
	C99.923752,173.913483 103.687996,180.457458 108.033577,186.333069 
	C118.941185,201.081131 130.435440,215.395340 140.863083,230.727951 
	C135.322266,229.040329 129.856064,227.028641 124.225197,225.732101 
	C112.277786,222.981186 100.355225,222.529922 89.412773,229.267960 
	C77.951805,236.325272 76.264061,244.718887 78.673752,257.090240 
	C79.484344,261.251801 81.524406,265.173859 82.707420,269.640137 
	C79.359573,272.001465 78.200516,278.444550 72.467125,274.240448 
	C72.220917,274.059937 70.820221,275.453857 69.957336,276.114319 
z"/>
<path fill="#FEFEFE" opacity="1.000000" stroke="none" 
	d="
M96.873978,53.518066 
	C95.911835,57.648922 93.189949,55.812698 91.040886,55.428055 
	C89.366829,55.128426 87.777191,54.357151 86.101501,53.778725 
	C85.594597,55.809040 85.213356,57.336025 84.499359,58.931469 
	C79.114998,49.042747 74.278748,38.967548 68.915321,29.181271 
	C66.461678,24.704283 63.133080,20.663252 59.886459,16.681196 
	C58.018070,14.389565 58.148464,12.518747 60.468735,11.317256 
	C62.224934,10.407853 64.117889,8.330451 66.463272,11.778665 
	C72.984146,21.365763 80.111069,30.540405 86.989952,39.884335 
	C90.252625,44.316177 93.495613,48.762512 96.873978,53.518066 
z"/>
<path fill="#FEFEFE" opacity="1.000000" stroke="none" 
	d="
M70.077850,276.428833 
	C70.820221,275.453857 72.220917,274.059937 72.467125,274.240448 
	C78.200516,278.444550 79.359573,272.001465 82.764618,270.017517 
	C88.762192,277.234863 94.407455,284.509644 100.332260,292.144623 
	C98.843613,294.378113 96.616096,294.485016 93.429993,293.138855 
	C84.455879,289.347412 77.250496,283.184326 70.077850,276.428833 
z"/>
<path fill="#FEFEFE" opacity="1.000000" stroke="none" 
	d="
M84.938148,61.499294 
	C89.413368,62.375248 88.956795,65.689850 88.430786,69.314705 
	C87.588173,75.121315 87.073334,80.975487 86.276070,88.094315 
	C85.283318,87.859688 83.127678,87.350220 80.828247,86.466507 
	C83.027863,78.208832 86.091545,70.453918 84.938148,61.499294 
z"/>
</svg>