<svg version="1.1" id="Layer_1" xmlns="http://www.w3.org/2000/svg" xmlns:xlink="http://www.w3.org/1999/xlink" x="0px" y="0px"
	 width="100%" viewBox="0 0 170 170" enable-background="new 0 0 170 170" xml:space="preserve">
<path fill="#000000" opacity="1.000000" stroke="none" 
	d="
M125.000000,171.000000 
	C83.333336,171.000000 42.166676,171.000000 1.000011,171.000000 
	C1.000007,114.333344 1.000007,57.666691 1.000004,1.000026 
	C57.666645,1.000018 114.333290,1.000018 170.999954,1.000009 
	C170.999969,57.666641 170.999969,114.333282 170.999985,170.999969 
	C155.833328,171.000000 140.666672,171.000000 125.000000,171.000000 
M115.336990,62.438023 
	C92.040344,62.438023 68.743690,62.438023 44.861290,62.438023 
	C44.861290,71.554283 44.861290,80.260406 44.861290,89.001328 
	C40.441105,89.001328 36.609055,89.001320 32.777004,89.001320 
	C22.837273,89.001320 22.833860,89.001404 23.059122,98.895866 
	C23.065344,99.169144 23.336525,99.436394 23.546041,99.819672 
	C62.894379,99.819672 102.302788,99.819672 141.780853,99.819672 
	C141.780853,96.500160 141.780853,93.424057 141.780853,89.928238 
	C134.997269,89.928238 128.418671,89.928238 121.474648,89.928238 
	C121.474648,82.202835 121.227440,74.886795 121.569717,67.598450 
	C121.766968,63.398205 120.427292,61.743362 115.336990,62.438023 
z"/>
<path fill="#FFFFFF" opacity="1.000000" stroke="none" 
	d="
M115.817406,62.438713 
	C120.427292,61.743362 121.766968,63.398205 121.569717,67.598450 
	C121.227440,74.886795 121.474648,82.202835 121.474648,89.928238 
	C128.418671,89.928238 134.997269,89.928238 141.780853,89.928238 
	C141.780853,93.424057 141.780853,96.500160 141.780853,99.819672 
	C102.302788,99.819672 62.894379,99.819672 23.546041,99.819672 
	C23.336525,99.436394 23.065344,99.169144 23.059122,98.895866 
	C22.833860,89.001404 22.837273,89.001320 32.777004,89.001320 
	C36.609055,89.001320 40.441105,89.001328 44.861290,89.001328 
	C44.861290,80.260406 44.861290,71.554283 44.861290,62.438023 
	C68.743690,62.438023 92.040344,62.438023 115.817406,62.438713 
z"/>
</svg>