<svg version="1.1" id="Layer_1" xmlns="http://www.w3.org/2000/svg" xmlns:xlink="http://www.w3.org/1999/xlink" x="0px" y="0px"
	 width="100%" viewBox="0 0 360 360" enable-background="new 0 0 360 360" xml:space="preserve">
<path fill="#000000" opacity="1.000000" stroke="none" 
	d="
M156.000000,361.000000 
	C104.368385,361.000000 52.736771,361.000000 1.052577,361.000000 
	C1.052577,241.116486 1.052577,121.232933 1.052577,1.000000 
	C44.020264,1.000000 87.041473,1.000000 130.900330,1.296159 
	C129.875412,2.373652 128.066956,3.337663 126.141884,3.908015 
	C107.197395,9.520790 93.580490,21.824694 88.681305,40.487991 
	C82.489708,64.074699 88.892006,85.261841 108.146416,101.509537 
	C126.864540,117.304703 148.891693,119.855545 172.035660,116.753731 
	C192.762054,113.975922 212.850052,108.399330 232.670105,101.547028 
	C232.944962,101.911530 233.066971,102.047974 233.148102,102.557205 
	C228.789368,114.917191 224.455505,126.898643 220.156265,138.892502 
	C195.856354,206.683563 171.581924,274.483765 147.253693,342.264648 
	C143.098495,353.841461 143.005554,353.787628 154.937943,359.003601 
	C155.479385,359.240295 155.654358,360.315399 156.000000,361.000000 
z"/>
<path fill="#000000" opacity="1.000000" stroke="none" 
	d="
M154.000000,0.999996 
	C222.959946,1.000000 291.919891,1.000000 360.939911,1.000000 
	C360.939911,120.890244 360.939911,240.780518 360.939911,361.000000 
	C298.979492,361.000000 236.958405,361.000000 174.170303,360.689484 
	C174.215912,359.893311 174.971634,359.226837 175.850098,358.950531 
	C183.167648,356.648468 188.553558,352.738464 189.300781,344.293396 
	C189.529419,341.709229 190.663406,339.201141 191.415344,336.667877 
	C206.287720,286.564362 221.306625,236.503799 236.001434,186.348282 
	C250.873901,135.586441 265.414795,84.727486 280.131500,33.919922 
	C282.486633,25.789124 277.504700,20.381689 269.066559,21.561380 
	C263.586884,22.327469 261.609009,26.540316 259.026367,30.291044 
	C248.264053,45.921085 236.814072,61.019321 221.755112,72.792122 
	C211.339279,80.935013 199.096512,77.019745 194.828308,64.449974 
	C192.445816,57.433563 190.662048,50.184433 189.047806,42.942249 
	C184.740982,23.619961 175.587509,8.557497 155.169724,2.904642 
	C154.644318,2.759180 154.383972,1.656344 154.000000,0.999996 
z"/>
<path fill="#FEFEFE" opacity="1.000000" stroke="none" 
	d="
M153.531372,0.999996 
	C154.383972,1.656344 154.644318,2.759180 155.169724,2.904642 
	C175.587509,8.557497 184.740982,23.619961 189.047806,42.942249 
	C190.662048,50.184433 192.445816,57.433563 194.828308,64.449974 
	C199.096512,77.019745 211.339279,80.935013 221.755112,72.792122 
	C236.814072,61.019321 248.264053,45.921085 259.026367,30.291044 
	C261.609009,26.540316 263.586884,22.327469 269.066559,21.561380 
	C277.504700,20.381689 282.486633,25.789124 280.131500,33.919922 
	C265.414795,84.727486 250.873901,135.586441 236.001434,186.348282 
	C221.306625,236.503799 206.287720,286.564362 191.415344,336.667877 
	C190.663406,339.201141 189.529419,341.709229 189.300781,344.293396 
	C188.553558,352.738464 183.167648,356.648468 175.850098,358.950531 
	C174.971634,359.226837 174.215912,359.893311 173.701645,360.689484 
	C168.311966,361.000000 162.623917,361.000000 156.467957,361.000000 
	C155.654358,360.315399 155.479385,359.240295 154.937943,359.003601 
	C143.005554,353.787628 143.098495,353.841461 147.253693,342.264648 
	C171.581924,274.483765 195.856354,206.683563 220.156265,138.892502 
	C224.455505,126.898643 228.789368,114.917191 233.406448,102.458221 
	C233.309540,101.763947 232.913391,101.541458 232.517258,101.318970 
	C212.850052,108.399330 192.762054,113.975922 172.035660,116.753731 
	C148.891693,119.855545 126.864540,117.304703 108.146416,101.509537 
	C88.892006,85.261841 82.489708,64.074699 88.681305,40.487991 
	C93.580490,21.824694 107.197395,9.520790 126.141884,3.908015 
	C128.066956,3.337663 129.875412,2.373652 131.368988,1.296159 
	C138.354248,1.000000 145.708496,1.000000 153.531372,0.999996 
z"/>
<path fill="#000000" opacity="1.000000" stroke="none" 
	d="
M232.670105,101.547028 
	C232.913391,101.541458 233.309540,101.763947 233.447327,102.085426 
	C233.066971,102.047974 232.944962,101.911530 232.670105,101.547028 
z"/>
</svg>