<svg version="1.1" id="Layer_1" xmlns="http://www.w3.org/2000/svg" xmlns:xlink="http://www.w3.org/1999/xlink" x="0px" y="0px"
	 width="100%" viewBox="0 0 150 337" enable-background="new 0 0 150 337" xml:space="preserve">
<path fill="#000000" opacity="1.000000" stroke="none" 
	d="
M151.000000,105.000000 
	C151.000000,182.960205 151.000000,260.420410 151.000000,337.940308 
	C101.065529,337.940308 51.130974,337.940308 1.098206,337.940308 
	C1.098206,225.789902 1.098206,113.579674 1.098206,1.184730 
	C50.999443,1.184730 100.999664,1.184730 151.000000,1.184730 
	C151.000000,35.535507 151.000000,70.017754 151.000000,105.000000 
M97.670715,50.723816 
	C97.525963,50.617794 97.381218,50.511768 97.716507,49.834057 
	C99.991173,46.196415 102.038765,42.926105 102.402283,38.032738 
	C102.892822,31.429323 102.961029,25.558680 97.583710,21.351088 
	C93.743431,18.346182 89.320282,15.536584 84.705193,14.195916 
	C77.141228,11.998611 70.189003,14.287170 63.976189,19.392962 
	C57.515228,24.702677 55.206516,36.820583 58.522507,44.308372 
	C60.519218,48.817127 63.396755,51.217255 67.139877,54.119183 
	C77.426315,62.093945 89.417976,58.749393 100.546074,60.791512 
	C107.735649,56.189735 117.072128,55.359646 122.693939,47.914356 
	C124.449379,45.589516 126.965691,43.839195 130.306931,40.736366 
	C129.837250,43.508179 129.763947,44.881432 129.355957,46.146770 
	C128.578384,48.558388 127.501450,50.874344 126.741615,53.290649 
	C124.754745,59.609016 122.888992,65.965378 120.932983,72.293617 
	C120.540741,73.562614 119.909866,74.756119 119.479416,76.015343 
	C117.589073,81.545319 116.356949,87.412125 113.689857,92.533829 
	C110.930214,97.833275 105.507362,101.953888 103.549614,107.414764 
	C100.515633,115.877655 94.414467,121.426453 88.284920,126.919250 
	C82.851570,131.788177 75.999344,134.569809 68.408119,135.163788 
	C70.401070,132.722946 72.438026,130.854324 73.705734,128.560577 
	C77.841370,121.077675 77.074715,106.036423 67.638184,99.708488 
	C61.283257,95.446991 54.524059,94.183540 48.239761,95.487144 
	C43.170742,96.538658 38.320118,101.190819 34.595871,105.342819 
	C31.793478,108.467079 28.853117,112.558640 30.838943,117.945595 
	C31.867933,120.736931 30.545982,124.517067 31.834827,127.068024 
	C36.042976,135.397064 44.374935,139.927094 52.494759,141.492783 
	C61.354366,143.201126 70.912315,143.710541 80.224754,139.644989 
	C87.686020,136.387619 94.463806,132.824295 99.818703,126.707710 
	C100.020370,126.477356 100.327934,126.339706 100.100708,126.498856 
	C101.218758,127.019211 102.062576,127.411942 102.749519,127.731659 
	C98.497154,141.076065 94.429359,154.488953 89.882675,167.737503 
	C88.407516,172.035950 85.786591,175.966339 83.490913,179.950516 
	C81.475494,183.448288 78.855629,186.624435 77.074791,190.225540 
	C72.462090,199.553085 66.323463,207.402786 56.767269,211.967575 
	C51.946114,214.270523 46.855286,216.008926 41.131729,218.305405 
	C44.387783,213.510117 47.282703,210.074112 49.169983,206.153137 
	C50.280682,203.845551 49.405849,200.665543 50.098309,198.056915 
	C51.800327,191.645065 47.336372,186.514938 44.061672,183.747833 
	C39.125969,179.577225 32.947178,175.451263 24.900047,176.814865 
	C16.222191,178.285355 8.686325,182.478058 5.697002,189.756561 
	C0.548914,202.291260 4.759979,213.928574 18.497318,220.411102 
	C28.217758,224.998108 38.180569,224.521011 47.990925,223.652466 
	C53.827175,223.135742 59.864056,219.935349 64.883163,216.561569 
	C69.691635,213.329376 73.301399,208.313904 78.460510,203.036148 
	C65.757805,243.040421 53.490566,281.673309 41.012741,320.969391 
	C43.162537,321.559326 45.457626,322.189148 47.936806,322.869507 
	C49.069412,319.980316 50.263065,317.543335 50.982639,314.973633 
	C52.494888,309.573181 53.425762,303.991882 55.198883,298.686554 
	C58.113972,289.964417 61.798412,281.496490 64.632408,272.750885 
	C68.752563,260.036316 72.383629,247.163712 76.266762,234.371719 
	C78.170975,228.098740 80.114891,221.836487 82.148094,215.604370 
	C84.029045,209.838882 86.512535,204.339905 87.567322,198.221024 
	C88.443748,193.136841 91.110916,188.373611 92.865387,183.425827 
	C95.944229,174.743210 99.147705,166.095657 101.893715,157.306808 
	C104.401489,149.280457 106.069618,140.988815 108.647270,132.987900 
	C113.096176,119.178719 118.008606,105.519516 122.636574,91.767105 
	C125.105888,84.429344 127.444466,77.046036 129.732803,69.649483 
	C131.268051,64.687088 132.401199,59.592266 134.104080,54.692169 
	C135.609177,50.361271 137.944321,46.313820 139.380478,41.965351 
	C140.908569,37.338444 141.661743,32.461403 143.027969,27.773632 
	C144.403809,23.052900 146.360565,18.490879 147.540619,13.729894 
	C147.914246,12.222466 147.066071,9.797606 145.910004,8.743536 
	C145.150009,8.050616 142.053955,8.466996 141.344971,9.402682 
	C136.053848,16.385609 129.958817,23.108536 126.420181,30.952539 
	C123.885986,36.570019 120.370392,40.933693 115.990540,44.103283 
	C110.873238,47.806534 105.589310,52.812908 97.670715,50.723816 
z"/>
<path fill="#FEFEFE" opacity="1.000000" stroke="none" 
	d="
M98.079712,51.073772 
	C105.589310,52.812908 110.873238,47.806534 115.990540,44.103283 
	C120.370392,40.933693 123.885986,36.570019 126.420181,30.952539 
	C129.958817,23.108536 136.053848,16.385609 141.344971,9.402682 
	C142.053955,8.466996 145.150009,8.050616 145.910004,8.743536 
	C147.066071,9.797606 147.914246,12.222466 147.540619,13.729894 
	C146.360565,18.490879 144.403809,23.052900 143.027969,27.773632 
	C141.661743,32.461403 140.908569,37.338444 139.380478,41.965351 
	C137.944321,46.313820 135.609177,50.361271 134.104080,54.692169 
	C132.401199,59.592266 131.268051,64.687088 129.732803,69.649483 
	C127.444466,77.046036 125.105888,84.429344 122.636574,91.767105 
	C118.008606,105.519516 113.096176,119.178719 108.647270,132.987900 
	C106.069618,140.988815 104.401489,149.280457 101.893715,157.306808 
	C99.147705,166.095657 95.944229,174.743210 92.865387,183.425827 
	C91.110916,188.373611 88.443748,193.136841 87.567322,198.221024 
	C86.512535,204.339905 84.029045,209.838882 82.148094,215.604370 
	C80.114891,221.836487 78.170975,228.098740 76.266762,234.371719 
	C72.383629,247.163712 68.752563,260.036316 64.632408,272.750885 
	C61.798412,281.496490 58.113972,289.964417 55.198883,298.686554 
	C53.425762,303.991882 52.494888,309.573181 50.982639,314.973633 
	C50.263065,317.543335 49.069412,319.980316 47.936806,322.869507 
	C45.457626,322.189148 43.162537,321.559326 41.012741,320.969391 
	C53.490566,281.673309 65.757805,243.040421 78.460510,203.036148 
	C73.301399,208.313904 69.691635,213.329376 64.883163,216.561569 
	C59.864056,219.935349 53.827175,223.135742 47.990925,223.652466 
	C38.180569,224.521011 28.217758,224.998108 18.497318,220.411102 
	C4.759979,213.928574 0.548914,202.291260 5.697002,189.756561 
	C8.686325,182.478058 16.222191,178.285355 24.900047,176.814865 
	C32.947178,175.451263 39.125969,179.577225 44.061672,183.747833 
	C47.336372,186.514938 51.800327,191.645065 50.098309,198.056915 
	C49.405849,200.665543 50.280682,203.845551 49.169983,206.153137 
	C47.282703,210.074112 44.387783,213.510117 41.131729,218.305405 
	C46.855286,216.008926 51.946114,214.270523 56.767269,211.967575 
	C66.323463,207.402786 72.462090,199.553085 77.074791,190.225540 
	C78.855629,186.624435 81.475494,183.448288 83.490913,179.950516 
	C85.786591,175.966339 88.407516,172.035950 89.882675,167.737503 
	C94.429359,154.488953 98.497154,141.076065 102.749519,127.731659 
	C102.062576,127.411942 101.218758,127.019211 100.100708,126.498856 
	C100.327934,126.339706 100.020370,126.477356 99.818703,126.707710 
	C94.463806,132.824295 87.686020,136.387619 80.224754,139.644989 
	C70.912315,143.710541 61.354366,143.201126 52.494759,141.492783 
	C44.374935,139.927094 36.042976,135.397064 31.834827,127.068024 
	C30.545982,124.517067 31.867933,120.736931 30.838943,117.945595 
	C28.853117,112.558640 31.793478,108.467079 34.595871,105.342819 
	C38.320118,101.190819 43.170742,96.538658 48.239761,95.487144 
	C54.524059,94.183540 61.283257,95.446991 67.638184,99.708488 
	C77.074715,106.036423 77.841370,121.077675 73.705734,128.560577 
	C72.438026,130.854324 70.401070,132.722946 68.408119,135.163788 
	C75.999344,134.569809 82.851570,131.788177 88.284920,126.919250 
	C94.414467,121.426453 100.515633,115.877655 103.549614,107.414764 
	C105.507362,101.953888 110.930214,97.833275 113.689857,92.533829 
	C116.356949,87.412125 117.589073,81.545319 119.479416,76.015343 
	C119.909866,74.756119 120.540741,73.562614 120.932983,72.293617 
	C122.888992,65.965378 124.754745,59.609016 126.741615,53.290649 
	C127.501450,50.874344 128.578384,48.558388 129.355957,46.146770 
	C129.763947,44.881432 129.837250,43.508179 130.306931,40.736366 
	C126.965691,43.839195 124.449379,45.589516 122.693939,47.914356 
	C117.072128,55.359646 107.735649,56.189735 100.546074,60.791512 
	C89.417976,58.749393 77.426315,62.093945 67.139877,54.119183 
	C63.396755,51.217255 60.519218,48.817127 58.522507,44.308372 
	C55.206516,36.820583 57.515228,24.702677 63.976189,19.392962 
	C70.189003,14.287170 77.141228,11.998611 84.705193,14.195916 
	C89.320282,15.536584 93.743431,18.346182 97.583710,21.351088 
	C102.961029,25.558680 102.892822,31.429323 102.402283,38.032738 
	C102.038765,42.926105 99.991173,46.196415 97.216492,50.345608 
	C95.916801,51.441654 95.117119,52.026150 94.183586,52.708481 
	C96.169106,52.708481 97.906807,52.708481 99.852165,52.708481 
	C99.078445,51.994888 98.579079,51.534328 98.079712,51.073772 
z"/>
<path fill="#000000" opacity="1.000000" stroke="none" 
	d="
M97.875214,50.898796 
	C98.579079,51.534328 99.078445,51.994888 99.852165,52.708481 
	C97.906807,52.708481 96.169106,52.708481 94.183586,52.708481 
	C95.117119,52.026150 95.916801,51.441654 96.976471,50.631451 
	C97.381218,50.511768 97.525963,50.617794 97.875214,50.898796 
z"/>
</svg>