<svg version="1.1" id="Layer_1" xmlns="http://www.w3.org/2000/svg" xmlns:xlink="http://www.w3.org/1999/xlink" x="0px" y="0px"
	 width="100%" viewBox="0 0 357 698" enable-background="new 0 0 357 698" xml:space="preserve">
<path fill="#000000" opacity="1.000000" stroke="none" 
	d="
M358.000000,7.000005 
	C358.000000,237.567627 358.000000,468.135254 358.000000,699.000000 
	C258.641968,699.000000 159.283615,699.000000 59.456749,698.616272 
	C64.631828,685.254272 70.310310,672.291077 75.910736,659.294189 
	C83.940544,640.659302 91.914452,622.000244 99.910248,603.350708 
	C106.263176,588.532959 112.623962,573.718628 118.961609,558.894409 
	C126.745529,540.687195 134.466278,522.452881 142.294983,504.265015 
	C148.451080,489.962952 154.808945,475.747528 160.932343,461.431671 
	C167.756531,445.477448 174.317017,429.410095 181.176849,413.471466 
	C187.931641,397.776886 195.006271,382.220093 201.779984,366.533508 
	C210.590897,346.129120 219.212265,325.642975 227.974152,305.217285 
	C234.583389,289.809814 241.339249,274.465149 247.932510,259.050934 
	C256.470978,239.089035 264.844910,219.056625 273.417572,199.109558 
	C280.159485,183.422363 287.171265,167.851212 293.924713,152.168884 
	C301.559418,134.440018 309.027985,116.639648 316.590363,98.879578 
	C322.375275,85.293991 328.200653,71.725662 333.995422,58.144268 
	C341.047150,41.616867 348.060120,25.072754 355.209076,8.587589 
	C355.549500,7.802578 357.043304,7.517757 358.000000,7.000005 
z"/>
<path fill="#000000" opacity="1.000000" stroke="none" 
	d="
M0.999999,480.000000 
	C1.000000,320.417114 1.000000,160.834198 1.000000,1.000000 
	C114.356537,1.000000 227.713257,1.000000 341.845947,1.309366 
	C337.091614,15.877474 331.664795,30.177481 326.000275,44.382710 
	C320.904480,57.161755 312.506531,66.926819 299.098724,71.348808 
	C293.641052,73.148781 287.876190,74.202766 282.277161,72.074257 
	C283.270569,68.682610 284.624634,65.799438 284.904083,62.815609 
	C286.417816,46.653233 282.062775,33.087132 268.441650,22.774557 
	C246.826920,6.410027 217.880417,10.628240 202.172104,32.948647 
	C185.658371,56.413494 197.583832,86.091812 223.746811,96.012512 
	C233.862152,99.848137 244.159637,98.849739 254.684647,98.184746 
	C273.948914,96.967606 292.119324,92.896751 308.599823,82.428574 
	C308.867371,82.802658 308.983337,82.945786 309.058075,83.463867 
	C299.654205,104.371010 290.313629,124.913261 280.921967,145.432144 
	C273.520416,161.603043 266.280579,177.854721 258.483032,193.833435 
	C256.134552,198.645950 252.664307,203.180832 248.824539,206.940720 
	C240.335175,215.253525 229.468933,215.654099 218.299225,214.787689 
	C218.762451,213.359268 219.255478,212.153519 219.544510,210.900711 
	C223.973099,191.705719 219.490677,175.980835 204.122467,165.210144 
	C187.751572,153.736694 170.019180,152.417526 151.960175,162.482422 
	C136.948410,170.848938 127.054245,190.863510 131.215576,207.150085 
	C135.233673,222.876114 145.620941,233.275269 160.770981,239.011871 
	C170.065857,242.531387 179.632446,241.840622 189.188370,240.963348 
	C196.491348,240.292892 203.868591,239.791885 211.025116,238.309448 
	C222.887131,235.852264 234.361145,232.073120 245.174774,224.054352 
	C244.786392,226.157608 244.788406,227.250122 244.382050,228.160324 
	C242.408386,232.581161 240.312424,236.947174 238.283432,241.343536 
	C232.249481,254.417694 226.156433,267.465149 220.215897,280.581665 
	C211.236496,300.407837 202.813812,320.501190 193.296906,340.063751 
	C186.654572,353.717499 173.510132,360.028931 155.791367,357.759125 
	C156.182083,349.525177 158.060394,341.136139 156.657700,333.337219 
	C153.196793,314.094818 134.655594,300.582703 116.048279,298.996582 
	C102.818230,297.868835 91.105812,302.014832 81.303543,310.477448 
	C69.915993,320.308716 64.716156,334.087952 67.594902,349.176117 
	C69.726448,360.348022 76.020157,368.591217 84.795998,375.229553 
	C93.792641,382.034912 104.264450,384.781097 115.290550,384.866364 
	C122.115196,384.919098 129.026855,384.096222 135.761536,382.893860 
	C145.116837,381.223633 154.524918,379.405151 163.562363,376.548889 
	C169.972107,374.523132 175.806488,370.676910 181.869385,367.657349 
	C181.882919,367.858215 182.026047,368.233551 181.908737,368.489624 
	C171.172989,391.928009 160.451553,415.373047 149.650009,438.781158 
	C143.217987,452.720001 135.983826,466.332153 130.328506,480.574890 
	C123.484917,497.810272 106.174866,504.379364 90.225571,501.326904 
	C95.493820,484.948425 93.824158,469.908813 81.489037,457.057251 
	C67.661423,442.650696 47.511223,438.701477 29.507296,446.430481 
	C15.570201,452.413605 5.413079,462.540344 2.918267,478.538788 
	C2.828940,479.111633 1.663764,479.516724 0.999999,480.000000 
z"/>
<path fill="#FEFEFE" opacity="1.000000" stroke="none" 
	d="
M0.999999,480.333313 
	C1.663764,479.516724 2.828940,479.111633 2.918267,478.538788 
	C5.413079,462.540344 15.570201,452.413605 29.507296,446.430481 
	C47.511223,438.701477 67.661423,442.650696 81.489037,457.057251 
	C93.824158,469.908813 95.493820,484.948425 90.225571,501.326904 
	C106.174866,504.379364 123.484917,497.810272 130.328506,480.574890 
	C135.983826,466.332153 143.217987,452.720001 149.650009,438.781158 
	C160.451553,415.373047 171.172989,391.928009 181.908737,368.489624 
	C182.026047,368.233551 181.882919,367.858215 181.869385,367.657349 
	C175.806488,370.676910 169.972107,374.523132 163.562363,376.548889 
	C154.524918,379.405151 145.116837,381.223633 135.761536,382.893860 
	C129.026855,384.096222 122.115196,384.919098 115.290550,384.866364 
	C104.264450,384.781097 93.792641,382.034912 84.795998,375.229553 
	C76.020157,368.591217 69.726448,360.348022 67.594902,349.176117 
	C64.716156,334.087952 69.915993,320.308716 81.303543,310.477448 
	C91.105812,302.014832 102.818230,297.868835 116.048279,298.996582 
	C134.655594,300.582703 153.196793,314.094818 156.657700,333.337219 
	C158.060394,341.136139 156.182083,349.525177 155.791367,357.759125 
	C173.510132,360.028931 186.654572,353.717499 193.296906,340.063751 
	C202.813812,320.501190 211.236496,300.407837 220.215897,280.581665 
	C226.156433,267.465149 232.249481,254.417694 238.283432,241.343536 
	C240.312424,236.947174 242.408386,232.581161 244.382050,228.160324 
	C244.788406,227.250122 244.786392,226.157608 245.174774,224.054352 
	C234.361145,232.073120 222.887131,235.852264 211.025116,238.309448 
	C203.868591,239.791885 196.491348,240.292892 189.188370,240.963348 
	C179.632446,241.840622 170.065857,242.531387 160.770981,239.011871 
	C145.620941,233.275269 135.233673,222.876114 131.215576,207.150085 
	C127.054245,190.863510 136.948410,170.848938 151.960175,162.482422 
	C170.019180,152.417526 187.751572,153.736694 204.122467,165.210144 
	C219.490677,175.980835 223.973099,191.705719 219.544510,210.900711 
	C219.255478,212.153519 218.762451,213.359268 218.299225,214.787689 
	C229.468933,215.654099 240.335175,215.253525 248.824539,206.940720 
	C252.664307,203.180832 256.134552,198.645950 258.483032,193.833435 
	C266.280579,177.854721 273.520416,161.603043 280.921967,145.432144 
	C290.313629,124.913261 299.654205,104.371010 309.339020,83.362221 
	C309.699646,82.340675 309.738098,81.795753 309.776550,81.250824 
	C309.333771,81.566414 308.890991,81.882011 308.448212,82.197601 
	C292.119324,92.896751 273.948914,96.967606 254.684647,98.184746 
	C244.159637,98.849739 233.862152,99.848137 223.746811,96.012512 
	C197.583832,86.091812 185.658371,56.413494 202.172104,32.948647 
	C217.880417,10.628240 246.826920,6.410027 268.441650,22.774557 
	C282.062775,33.087132 286.417816,46.653233 284.904083,62.815609 
	C284.624634,65.799438 283.270569,68.682610 282.277161,72.074257 
	C287.876190,74.202766 293.641052,73.148781 299.098724,71.348808 
	C312.506531,66.926819 320.904480,57.161755 326.000275,44.382710 
	C331.664795,30.177481 337.091614,15.877474 342.310974,1.309366 
	C347.333618,1.000000 352.667236,1.000000 358.000000,1.000000 
	C358.000000,2.745079 358.000000,4.373068 358.000000,6.500533 
	C357.043304,7.517757 355.549500,7.802578 355.209076,8.587589 
	C348.060120,25.072754 341.047150,41.616867 333.995422,58.144268 
	C328.200653,71.725662 322.375275,85.293991 316.590363,98.879578 
	C309.027985,116.639648 301.559418,134.440018 293.924713,152.168884 
	C287.171265,167.851212 280.159485,183.422363 273.417572,199.109558 
	C264.844910,219.056625 256.470978,239.089035 247.932510,259.050934 
	C241.339249,274.465149 234.583389,289.809814 227.974152,305.217285 
	C219.212265,325.642975 210.590897,346.129120 201.779984,366.533508 
	C195.006271,382.220093 187.931641,397.776886 181.176849,413.471466 
	C174.317017,429.410095 167.756531,445.477448 160.932343,461.431671 
	C154.808945,475.747528 148.451080,489.962952 142.294983,504.265015 
	C134.466278,522.452881 126.745529,540.687195 118.961609,558.894409 
	C112.623962,573.718628 106.263176,588.532959 99.910248,603.350708 
	C91.914452,622.000244 83.940544,640.659302 75.910736,659.294189 
	C70.310310,672.291077 64.631828,685.254272 58.994110,698.616272 
	C53.977909,699.000000 48.955814,699.000000 43.467281,698.606445 
	C43.948818,695.670105 44.833576,693.101685 45.854687,690.588623 
	C54.886185,668.360901 63.999321,646.166321 72.975578,623.916382 
	C83.717941,597.288757 94.349319,570.616455 105.029121,543.963623 
	C109.377098,533.112671 113.726059,522.262085 118.281219,510.895752 
	C112.000610,514.130554 106.522827,517.504272 100.637886,519.861389 
	C90.231316,524.029724 79.391998,526.843018 68.080727,526.992004 
	C57.263176,527.134583 46.234352,528.298279 35.672680,526.635620 
	C21.367296,524.383606 4.612704,508.440613 2.923811,492.947327 
	C2.846355,492.236755 1.666441,491.646362 0.999999,491.000000 
	C1.000000,490.555542 1.000000,490.111115 1.310186,489.622925 
	C1.894755,489.058746 2.169138,488.538300 2.443517,488.017883 
	C1.962343,488.011902 1.481172,488.005951 1.000000,488.000000 
	C1.000000,486.611115 1.000000,485.222198 1.307772,483.708649 
	C1.890878,483.067230 2.166211,482.550507 2.441545,482.033752 
	C1.961031,482.022491 1.480516,482.011230 1.000000,482.000000 
	C1.000000,481.555542 1.000000,481.111115 0.999999,480.333313 
z"/>
<path fill="#000000" opacity="1.000000" stroke="none" 
	d="
M0.999999,491.468658 
	C1.666441,491.646362 2.846355,492.236755 2.923811,492.947327 
	C4.612704,508.440613 21.367296,524.383606 35.672680,526.635620 
	C46.234352,528.298279 57.263176,527.134583 68.080727,526.992004 
	C79.391998,526.843018 90.231316,524.029724 100.637886,519.861389 
	C106.522827,517.504272 112.000610,514.130554 118.281219,510.895752 
	C113.726059,522.262085 109.377098,533.112671 105.029121,543.963623 
	C94.349319,570.616455 83.717941,597.288757 72.975578,623.916382 
	C63.999321,646.166321 54.886185,668.360901 45.854687,690.588623 
	C44.833576,693.101685 43.948818,695.670105 43.000420,698.606445 
	C29.024540,699.000000 15.049078,699.000000 1.000000,699.000000 
	C1.000000,629.979126 1.000000,560.958191 0.999999,491.468658 
z"/>
<path fill="#000000" opacity="1.000000" stroke="none" 
	d="
M1.000000,482.250000 
	C1.480516,482.011230 1.961031,482.022491 2.441545,482.033752 
	C2.166211,482.550507 1.890878,483.067230 1.307772,483.291992 
	C1.000000,483.000000 1.000000,482.500000 1.000000,482.250000 
z"/>
<path fill="#000000" opacity="1.000000" stroke="none" 
	d="
M1.000000,488.250000 
	C1.481172,488.005951 1.962343,488.011902 2.443517,488.017883 
	C2.169138,488.538300 1.894755,489.058746 1.310186,489.289581 
	C1.000000,489.000000 1.000000,488.500000 1.000000,488.250000 
z"/>
<path fill="#000000" opacity="1.000000" stroke="none" 
	d="
M308.599823,82.428574 
	C308.890991,81.882011 309.333771,81.566414 309.776550,81.250824 
	C309.738098,81.795753 309.699646,82.340675 309.380249,82.987259 
	C308.983337,82.945786 308.867371,82.802658 308.599823,82.428574 
z"/>
</svg>